G75*
G70*
%OFA0B0*%
%FSLAX24Y24*%
%IPPOS*%
%LPD*%
%AMOC8*
5,1,8,0,0,1.08239X$1,22.5*
%
%ADD10C,0.0000*%
%ADD11C,0.0040*%
%ADD12C,0.0050*%
D10*
X000494Y000100D02*
X000494Y000887D01*
X000887Y000494D02*
X000100Y000494D01*
X001773Y002954D02*
X001839Y002952D01*
X001905Y002947D01*
X001971Y002937D01*
X002036Y002924D01*
X002100Y002908D01*
X002163Y002888D01*
X002225Y002864D01*
X002285Y002837D01*
X002344Y002807D01*
X002401Y002773D01*
X002456Y002736D01*
X002509Y002696D01*
X002560Y002654D01*
X002608Y002608D01*
X002654Y002560D01*
X002696Y002509D01*
X002736Y002456D01*
X002773Y002401D01*
X002807Y002344D01*
X002837Y002285D01*
X002864Y002225D01*
X002888Y002163D01*
X002908Y002100D01*
X002924Y002036D01*
X002937Y001971D01*
X002947Y001905D01*
X002952Y001839D01*
X002954Y001773D01*
X002954Y000494D01*
X017817Y000494D01*
X017817Y009450D01*
X016537Y009450D01*
X016471Y009452D01*
X016405Y009457D01*
X016339Y009467D01*
X016274Y009480D01*
X016210Y009496D01*
X016147Y009516D01*
X016085Y009540D01*
X016025Y009567D01*
X015966Y009597D01*
X015909Y009631D01*
X015854Y009668D01*
X015801Y009708D01*
X015750Y009750D01*
X015702Y009796D01*
X015656Y009844D01*
X015614Y009895D01*
X015574Y009948D01*
X015537Y010003D01*
X015503Y010060D01*
X015473Y010119D01*
X015446Y010179D01*
X015422Y010241D01*
X015402Y010304D01*
X015386Y010368D01*
X015373Y010433D01*
X015363Y010499D01*
X015358Y010565D01*
X015356Y010631D01*
X015356Y011911D01*
X000494Y011911D01*
X000494Y002954D01*
X001773Y002954D01*
X003566Y003624D02*
X003568Y003674D01*
X003574Y003724D01*
X003584Y003773D01*
X003597Y003822D01*
X003615Y003869D01*
X003636Y003915D01*
X003660Y003958D01*
X003688Y004000D01*
X003719Y004040D01*
X003753Y004077D01*
X003790Y004111D01*
X003830Y004142D01*
X003872Y004170D01*
X003915Y004194D01*
X003961Y004215D01*
X004008Y004233D01*
X004057Y004246D01*
X004106Y004256D01*
X004156Y004262D01*
X004206Y004264D01*
X004256Y004262D01*
X004306Y004256D01*
X004355Y004246D01*
X004404Y004233D01*
X004451Y004215D01*
X004497Y004194D01*
X004540Y004170D01*
X004582Y004142D01*
X004622Y004111D01*
X004659Y004077D01*
X004693Y004040D01*
X004724Y004000D01*
X004752Y003958D01*
X004776Y003915D01*
X004797Y003869D01*
X004815Y003822D01*
X004828Y003773D01*
X004838Y003724D01*
X004844Y003674D01*
X004846Y003624D01*
X004844Y003574D01*
X004838Y003524D01*
X004828Y003475D01*
X004815Y003426D01*
X004797Y003379D01*
X004776Y003333D01*
X004752Y003290D01*
X004724Y003248D01*
X004693Y003208D01*
X004659Y003171D01*
X004622Y003137D01*
X004582Y003106D01*
X004540Y003078D01*
X004497Y003054D01*
X004451Y003033D01*
X004404Y003015D01*
X004355Y003002D01*
X004306Y002992D01*
X004256Y002986D01*
X004206Y002984D01*
X004156Y002986D01*
X004106Y002992D01*
X004057Y003002D01*
X004008Y003015D01*
X003961Y003033D01*
X003915Y003054D01*
X003872Y003078D01*
X003830Y003106D01*
X003790Y003137D01*
X003753Y003171D01*
X003719Y003208D01*
X003688Y003248D01*
X003660Y003290D01*
X003636Y003333D01*
X003615Y003379D01*
X003597Y003426D01*
X003584Y003475D01*
X003574Y003524D01*
X003568Y003574D01*
X003566Y003624D01*
X007566Y003624D02*
X007568Y003674D01*
X007574Y003724D01*
X007584Y003773D01*
X007597Y003822D01*
X007615Y003869D01*
X007636Y003915D01*
X007660Y003958D01*
X007688Y004000D01*
X007719Y004040D01*
X007753Y004077D01*
X007790Y004111D01*
X007830Y004142D01*
X007872Y004170D01*
X007915Y004194D01*
X007961Y004215D01*
X008008Y004233D01*
X008057Y004246D01*
X008106Y004256D01*
X008156Y004262D01*
X008206Y004264D01*
X008256Y004262D01*
X008306Y004256D01*
X008355Y004246D01*
X008404Y004233D01*
X008451Y004215D01*
X008497Y004194D01*
X008540Y004170D01*
X008582Y004142D01*
X008622Y004111D01*
X008659Y004077D01*
X008693Y004040D01*
X008724Y004000D01*
X008752Y003958D01*
X008776Y003915D01*
X008797Y003869D01*
X008815Y003822D01*
X008828Y003773D01*
X008838Y003724D01*
X008844Y003674D01*
X008846Y003624D01*
X008844Y003574D01*
X008838Y003524D01*
X008828Y003475D01*
X008815Y003426D01*
X008797Y003379D01*
X008776Y003333D01*
X008752Y003290D01*
X008724Y003248D01*
X008693Y003208D01*
X008659Y003171D01*
X008622Y003137D01*
X008582Y003106D01*
X008540Y003078D01*
X008497Y003054D01*
X008451Y003033D01*
X008404Y003015D01*
X008355Y003002D01*
X008306Y002992D01*
X008256Y002986D01*
X008206Y002984D01*
X008156Y002986D01*
X008106Y002992D01*
X008057Y003002D01*
X008008Y003015D01*
X007961Y003033D01*
X007915Y003054D01*
X007872Y003078D01*
X007830Y003106D01*
X007790Y003137D01*
X007753Y003171D01*
X007719Y003208D01*
X007688Y003248D01*
X007660Y003290D01*
X007636Y003333D01*
X007615Y003379D01*
X007597Y003426D01*
X007584Y003475D01*
X007574Y003524D01*
X007568Y003574D01*
X007566Y003624D01*
X012501Y001576D02*
X012503Y001624D01*
X012509Y001672D01*
X012519Y001719D01*
X012532Y001765D01*
X012550Y001810D01*
X012570Y001854D01*
X012595Y001896D01*
X012623Y001935D01*
X012653Y001972D01*
X012687Y002006D01*
X012724Y002038D01*
X012762Y002067D01*
X012803Y002092D01*
X012846Y002114D01*
X012891Y002132D01*
X012937Y002146D01*
X012984Y002157D01*
X013032Y002164D01*
X013080Y002167D01*
X013128Y002166D01*
X013176Y002161D01*
X013224Y002152D01*
X013270Y002140D01*
X013315Y002123D01*
X013359Y002103D01*
X013401Y002080D01*
X013441Y002053D01*
X013479Y002023D01*
X013514Y001990D01*
X013546Y001954D01*
X013576Y001916D01*
X013602Y001875D01*
X013624Y001832D01*
X013644Y001788D01*
X013659Y001743D01*
X013671Y001696D01*
X013679Y001648D01*
X013683Y001600D01*
X013683Y001552D01*
X013679Y001504D01*
X013671Y001456D01*
X013659Y001409D01*
X013644Y001364D01*
X013624Y001320D01*
X013602Y001277D01*
X013576Y001236D01*
X013546Y001198D01*
X013514Y001162D01*
X013479Y001129D01*
X013441Y001099D01*
X013401Y001072D01*
X013359Y001049D01*
X013315Y001029D01*
X013270Y001012D01*
X013224Y001000D01*
X013176Y000991D01*
X013128Y000986D01*
X013080Y000985D01*
X013032Y000988D01*
X012984Y000995D01*
X012937Y001006D01*
X012891Y001020D01*
X012846Y001038D01*
X012803Y001060D01*
X012762Y001085D01*
X012724Y001114D01*
X012687Y001146D01*
X012653Y001180D01*
X012623Y001217D01*
X012595Y001256D01*
X012570Y001298D01*
X012550Y001342D01*
X012532Y001387D01*
X012519Y001433D01*
X012509Y001480D01*
X012503Y001528D01*
X012501Y001576D01*
X016604Y004972D02*
X016606Y004997D01*
X016612Y005021D01*
X016621Y005043D01*
X016634Y005064D01*
X016650Y005083D01*
X016669Y005099D01*
X016690Y005112D01*
X016712Y005121D01*
X016736Y005127D01*
X016761Y005129D01*
X016786Y005127D01*
X016810Y005121D01*
X016832Y005112D01*
X016853Y005099D01*
X016872Y005083D01*
X016888Y005064D01*
X016901Y005043D01*
X016910Y005021D01*
X016916Y004997D01*
X016918Y004972D01*
X016916Y004947D01*
X016910Y004923D01*
X016901Y004901D01*
X016888Y004880D01*
X016872Y004861D01*
X016853Y004845D01*
X016832Y004832D01*
X016810Y004823D01*
X016786Y004817D01*
X016761Y004815D01*
X016736Y004817D01*
X016712Y004823D01*
X016690Y004832D01*
X016669Y004845D01*
X016650Y004861D01*
X016634Y004880D01*
X016621Y004901D01*
X016612Y004923D01*
X016606Y004947D01*
X016604Y004972D01*
X016604Y005287D02*
X016606Y005312D01*
X016612Y005336D01*
X016621Y005358D01*
X016634Y005379D01*
X016650Y005398D01*
X016669Y005414D01*
X016690Y005427D01*
X016712Y005436D01*
X016736Y005442D01*
X016761Y005444D01*
X016786Y005442D01*
X016810Y005436D01*
X016832Y005427D01*
X016853Y005414D01*
X016872Y005398D01*
X016888Y005379D01*
X016901Y005358D01*
X016910Y005336D01*
X016916Y005312D01*
X016918Y005287D01*
X016916Y005262D01*
X016910Y005238D01*
X016901Y005216D01*
X016888Y005195D01*
X016872Y005176D01*
X016853Y005160D01*
X016832Y005147D01*
X016810Y005138D01*
X016786Y005132D01*
X016761Y005130D01*
X016736Y005132D01*
X016712Y005138D01*
X016690Y005147D01*
X016669Y005160D01*
X016650Y005176D01*
X016634Y005195D01*
X016621Y005216D01*
X016612Y005238D01*
X016606Y005262D01*
X016604Y005287D01*
X015067Y005326D02*
X015069Y005345D01*
X015074Y005364D01*
X015084Y005380D01*
X015096Y005395D01*
X015111Y005407D01*
X015127Y005417D01*
X015146Y005422D01*
X015165Y005424D01*
X015184Y005422D01*
X015203Y005417D01*
X015219Y005407D01*
X015234Y005395D01*
X015246Y005380D01*
X015256Y005364D01*
X015261Y005345D01*
X015263Y005326D01*
X015261Y005307D01*
X015256Y005288D01*
X015246Y005272D01*
X015234Y005257D01*
X015219Y005245D01*
X015203Y005235D01*
X015184Y005230D01*
X015165Y005228D01*
X015146Y005230D01*
X015127Y005235D01*
X015111Y005245D01*
X015096Y005257D01*
X015084Y005272D01*
X015074Y005288D01*
X015069Y005307D01*
X015067Y005326D01*
X004627Y010828D02*
X004629Y010876D01*
X004635Y010924D01*
X004645Y010971D01*
X004658Y011017D01*
X004676Y011062D01*
X004696Y011106D01*
X004721Y011148D01*
X004749Y011187D01*
X004779Y011224D01*
X004813Y011258D01*
X004850Y011290D01*
X004888Y011319D01*
X004929Y011344D01*
X004972Y011366D01*
X005017Y011384D01*
X005063Y011398D01*
X005110Y011409D01*
X005158Y011416D01*
X005206Y011419D01*
X005254Y011418D01*
X005302Y011413D01*
X005350Y011404D01*
X005396Y011392D01*
X005441Y011375D01*
X005485Y011355D01*
X005527Y011332D01*
X005567Y011305D01*
X005605Y011275D01*
X005640Y011242D01*
X005672Y011206D01*
X005702Y011168D01*
X005728Y011127D01*
X005750Y011084D01*
X005770Y011040D01*
X005785Y010995D01*
X005797Y010948D01*
X005805Y010900D01*
X005809Y010852D01*
X005809Y010804D01*
X005805Y010756D01*
X005797Y010708D01*
X005785Y010661D01*
X005770Y010616D01*
X005750Y010572D01*
X005728Y010529D01*
X005702Y010488D01*
X005672Y010450D01*
X005640Y010414D01*
X005605Y010381D01*
X005567Y010351D01*
X005527Y010324D01*
X005485Y010301D01*
X005441Y010281D01*
X005396Y010264D01*
X005350Y010252D01*
X005302Y010243D01*
X005254Y010238D01*
X005206Y010237D01*
X005158Y010240D01*
X005110Y010247D01*
X005063Y010258D01*
X005017Y010272D01*
X004972Y010290D01*
X004929Y010312D01*
X004888Y010337D01*
X004850Y010366D01*
X004813Y010398D01*
X004779Y010432D01*
X004749Y010469D01*
X004721Y010508D01*
X004696Y010550D01*
X004676Y010594D01*
X004658Y010639D01*
X004645Y010685D01*
X004635Y010732D01*
X004629Y010780D01*
X004627Y010828D01*
D11*
X007656Y009349D02*
X007656Y008889D01*
X007809Y008889D02*
X007502Y008889D01*
X007809Y009196D02*
X007656Y009349D01*
X007963Y009272D02*
X007963Y009119D01*
X008039Y009042D01*
X008269Y009042D01*
X008116Y009042D02*
X007963Y008889D01*
X008269Y008889D02*
X008269Y009349D01*
X008039Y009349D01*
X007963Y009272D01*
X008889Y009389D02*
X009349Y009389D01*
X009349Y009619D01*
X009272Y009696D01*
X009119Y009696D01*
X009042Y009619D01*
X009042Y009389D01*
X009042Y009542D02*
X008889Y009696D01*
X009119Y009849D02*
X009119Y010156D01*
X008889Y010079D02*
X009349Y010079D01*
X009119Y009849D01*
X009858Y009042D02*
X009781Y008965D01*
X009781Y008812D01*
X009858Y008735D01*
X010012Y008888D02*
X010012Y008965D01*
X009935Y009042D01*
X009858Y009042D01*
X010012Y008965D02*
X010088Y009042D01*
X010165Y009042D01*
X010242Y008965D01*
X010242Y008812D01*
X010165Y008735D01*
X010165Y008581D02*
X010242Y008505D01*
X010242Y008351D01*
X010165Y008275D01*
X009858Y008275D01*
X009781Y008351D01*
X009781Y008505D01*
X009858Y008581D01*
X013356Y008621D02*
X013356Y008314D01*
X013356Y008468D02*
X013817Y008468D01*
X013663Y008314D01*
X013817Y008161D02*
X013433Y008161D01*
X013356Y008084D01*
X013356Y007930D01*
X013433Y007854D01*
X013817Y007854D01*
X013665Y007042D02*
X013588Y007042D01*
X013281Y006735D01*
X013281Y007042D01*
X013665Y007042D02*
X013742Y006965D01*
X013742Y006812D01*
X013665Y006735D01*
X013665Y006581D02*
X013512Y006581D01*
X013435Y006505D01*
X013435Y006275D01*
X013281Y006275D02*
X013742Y006275D01*
X013742Y006505D01*
X013665Y006581D01*
X013435Y006428D02*
X013281Y006581D01*
X014156Y005417D02*
X014156Y005110D01*
X014463Y005417D01*
X014540Y005417D01*
X014617Y005340D01*
X014617Y005187D01*
X014540Y005110D01*
X014617Y004956D02*
X014233Y004956D01*
X014156Y004880D01*
X014156Y004726D01*
X014233Y004650D01*
X014617Y004650D01*
X016031Y002496D02*
X016031Y002189D01*
X016031Y002343D02*
X016492Y002343D01*
X016338Y002189D01*
X016415Y002036D02*
X016492Y001959D01*
X016492Y001805D01*
X016415Y001729D01*
X016108Y001729D01*
X016031Y001805D01*
X016031Y001959D01*
X016108Y002036D01*
X014742Y002187D02*
X014665Y002110D01*
X014742Y002187D02*
X014742Y002340D01*
X014665Y002417D01*
X014588Y002417D01*
X014281Y002110D01*
X014281Y002417D01*
X014358Y001956D02*
X014281Y001880D01*
X014281Y001726D01*
X014358Y001650D01*
X014665Y001650D01*
X014742Y001726D01*
X014742Y001880D01*
X014665Y001956D01*
X010588Y004031D02*
X010588Y004262D01*
X010512Y004338D01*
X010358Y004338D01*
X010281Y004262D01*
X010281Y004031D01*
X010128Y004031D02*
X010588Y004031D01*
X010281Y004185D02*
X010128Y004338D01*
X010205Y004492D02*
X010128Y004569D01*
X010128Y004722D01*
X010205Y004799D01*
X010281Y004799D01*
X010358Y004722D01*
X010358Y004645D01*
X010358Y004722D02*
X010435Y004799D01*
X010512Y004799D01*
X010588Y004722D01*
X010588Y004569D01*
X010512Y004492D01*
X010556Y005039D02*
X010095Y005039D01*
X010249Y005039D02*
X010249Y005269D01*
X010325Y005346D01*
X010479Y005346D01*
X010556Y005269D01*
X010556Y005039D01*
X010249Y005193D02*
X010095Y005346D01*
X010172Y005499D02*
X010095Y005576D01*
X010095Y005730D01*
X010172Y005806D01*
X010249Y005806D01*
X010325Y005730D01*
X010325Y005499D01*
X010172Y005499D01*
X010325Y005499D02*
X010479Y005653D01*
X010556Y005806D01*
X011601Y011159D02*
X011754Y011159D01*
X011831Y011236D01*
X011985Y011159D02*
X012138Y011313D01*
X012061Y011313D02*
X012292Y011313D01*
X012292Y011159D02*
X012292Y011620D01*
X012061Y011620D01*
X011985Y011543D01*
X011985Y011390D01*
X012061Y011313D01*
X011831Y011390D02*
X011678Y011466D01*
X011601Y011466D01*
X011524Y011390D01*
X011524Y011236D01*
X011601Y011159D01*
X011831Y011390D02*
X011831Y011620D01*
X011524Y011620D01*
D12*
X014830Y005917D02*
X017193Y005917D01*
X017193Y004342D01*
X014830Y004342D01*
X014830Y005917D01*
M02*
