G75*
G70*
%OFA0B0*%
%FSLAX24Y24*%
%IPPOS*%
%LPD*%
%AMOC8*
5,1,8,0,0,1.08239X$1,22.5*
%
%ADD10C,0.1261*%
%ADD11R,0.0789X0.0710*%
%ADD12R,0.0316X0.0946*%
%ADD13R,0.0434X0.1261*%
%ADD14C,0.0395*%
%ADD15C,0.0277*%
%ADD16R,0.0790X0.0710*%
%ADD17R,0.0710X0.0790*%
%ADD18C,0.0740*%
%ADD19C,0.1360*%
D10*
X013092Y001576D03*
X005218Y010828D03*
D11*
X010011Y007681D03*
X010011Y006578D03*
X015386Y002681D03*
X015386Y001578D03*
X017136Y001578D03*
X017136Y002681D03*
D12*
X012761Y007231D03*
X012261Y007231D03*
X011761Y007231D03*
X011261Y007231D03*
X011261Y009278D03*
X011761Y009278D03*
X012261Y009278D03*
X012761Y009278D03*
D13*
X015261Y006114D03*
X015761Y006114D03*
X016261Y006114D03*
X016761Y006114D03*
X016761Y004145D03*
X016261Y004145D03*
X015761Y004145D03*
X015261Y004145D03*
D14*
X016761Y004972D03*
X016761Y005287D03*
D15*
X015165Y005326D03*
D16*
X013511Y005689D03*
X013511Y004570D03*
X009119Y007684D03*
X009119Y008804D03*
D17*
X008304Y008244D03*
X007184Y008244D03*
X011377Y010514D03*
X012496Y010514D03*
X012454Y005787D03*
X011334Y005787D03*
X011327Y004880D03*
X012446Y004880D03*
D18*
X007456Y007124D03*
X006456Y007124D03*
X005456Y007124D03*
X004956Y006124D03*
X005956Y006124D03*
X006956Y006124D03*
D19*
X004206Y003624D03*
X008206Y003624D03*
M02*
