G75*
G70*
%OFA0B0*%
%FSLAX24Y24*%
%IPPOS*%
%LPD*%
%AMOC8*
5,1,8,0,0,1.08239X$1,22.5*
%
%ADD10C,0.0040*%
%ADD11R,0.0709X0.0630*%
%ADD12R,0.0236X0.0866*%
%ADD13R,0.0354X0.1181*%
%ADD14R,0.0710X0.0630*%
%ADD15R,0.0630X0.0710*%
%ADD16C,0.0660*%
%ADD17C,0.0160*%
%ADD18C,0.0120*%
D10*
X002399Y005281D02*
X002399Y005628D01*
X002399Y005797D02*
X001879Y006144D01*
X002399Y006144D01*
X002754Y006152D02*
X003014Y006152D01*
X003101Y006065D01*
X003101Y005892D01*
X003014Y005805D01*
X003274Y005805D02*
X002754Y005805D01*
X002399Y005797D02*
X001879Y005797D01*
X001879Y005455D02*
X002399Y005455D01*
X002754Y005463D02*
X003274Y005463D01*
X003274Y005636D02*
X003274Y005289D01*
X003589Y005238D02*
X003589Y005498D01*
X003675Y005585D01*
X004022Y005585D01*
X004109Y005498D01*
X004109Y005238D01*
X003589Y005238D01*
X003589Y005754D02*
X003589Y005927D01*
X003589Y005840D02*
X003935Y005840D01*
X003935Y005754D01*
X004109Y005840D02*
X004196Y005840D01*
X003935Y006184D02*
X003849Y006098D01*
X003675Y006098D01*
X003589Y006184D01*
X003589Y006444D01*
X003502Y006444D02*
X003415Y006358D01*
X003415Y006271D01*
X003502Y006444D02*
X003935Y006444D01*
X003935Y006184D01*
X003935Y006613D02*
X003935Y006700D01*
X003589Y006700D01*
X003589Y006613D02*
X003589Y006787D01*
X003675Y007044D02*
X003589Y007130D01*
X003675Y007044D02*
X004022Y007044D01*
X003935Y007130D02*
X003935Y006957D01*
X004109Y006700D02*
X004196Y006700D01*
X003675Y007301D02*
X003762Y007387D01*
X003762Y007648D01*
X003849Y007648D02*
X003589Y007648D01*
X003589Y007387D01*
X003675Y007301D01*
X003935Y007387D02*
X003935Y007561D01*
X003849Y007648D01*
X003589Y007816D02*
X003589Y007990D01*
X003589Y007903D02*
X004109Y007903D01*
X004109Y007816D01*
X003101Y007954D02*
X003101Y008214D01*
X002927Y008128D02*
X002927Y007954D01*
X003014Y007867D01*
X003101Y007954D01*
X002927Y008128D02*
X002841Y008214D01*
X002754Y008128D01*
X002754Y007867D01*
X002754Y007699D02*
X002754Y007438D01*
X002841Y007352D01*
X002927Y007438D01*
X002927Y007699D01*
X003014Y007699D02*
X003101Y007612D01*
X003101Y007438D01*
X003014Y007183D02*
X002754Y007183D01*
X002754Y007010D02*
X003014Y007010D01*
X003101Y007096D01*
X003014Y007183D01*
X003014Y007010D02*
X003101Y006923D01*
X003101Y006836D01*
X002754Y006836D01*
X002841Y006667D02*
X003014Y006667D01*
X003101Y006581D01*
X003101Y006407D01*
X003014Y006320D01*
X002841Y006320D01*
X002754Y006407D01*
X002754Y006581D01*
X002841Y006667D01*
X002399Y006486D02*
X002226Y006660D01*
X001879Y006660D01*
X002139Y006660D02*
X002139Y006313D01*
X002226Y006313D02*
X001879Y006313D01*
X002226Y006313D02*
X002399Y006486D01*
X001524Y006619D02*
X001351Y006792D01*
X001004Y006792D01*
X001264Y006792D02*
X001264Y006445D01*
X001351Y006445D02*
X001004Y006445D01*
X001004Y006277D02*
X001004Y005930D01*
X001351Y006277D01*
X001438Y006277D01*
X001524Y006190D01*
X001524Y006017D01*
X001438Y005930D01*
X001438Y005761D02*
X001264Y005761D01*
X001177Y005674D01*
X001177Y005414D01*
X001004Y005414D02*
X001524Y005414D01*
X001524Y005674D01*
X001438Y005761D01*
X001177Y005588D02*
X001004Y005761D01*
X001351Y006445D02*
X001524Y006619D01*
X001264Y006961D02*
X001264Y007308D01*
X001438Y007477D02*
X001524Y007563D01*
X001524Y007737D01*
X001438Y007824D01*
X001351Y007824D01*
X001004Y007477D01*
X001004Y007824D01*
X001091Y007992D02*
X001438Y008339D01*
X001091Y008339D01*
X001004Y008253D01*
X001004Y008079D01*
X001091Y007992D01*
X001438Y007992D01*
X001524Y008079D01*
X001524Y008253D01*
X001438Y008339D01*
X001351Y008508D02*
X001524Y008681D01*
X001004Y008681D01*
X001004Y008508D02*
X001004Y008855D01*
X001264Y009024D02*
X001264Y009371D01*
X001004Y009284D02*
X001524Y009284D01*
X001264Y009024D01*
X001879Y009149D02*
X001966Y009063D01*
X002226Y009063D01*
X002226Y008892D02*
X002226Y008719D01*
X002313Y008806D02*
X001966Y008806D01*
X001879Y008892D01*
X001879Y009149D02*
X001966Y009236D01*
X001879Y009323D01*
X001966Y009410D01*
X002226Y009410D01*
X002226Y009665D02*
X002226Y009839D01*
X002139Y009925D01*
X001879Y009925D01*
X001879Y009665D01*
X001966Y009578D01*
X002052Y009665D01*
X002052Y009925D01*
X002052Y010094D02*
X002226Y010267D01*
X002226Y010354D01*
X002139Y010524D02*
X002226Y010610D01*
X002226Y010784D01*
X002139Y010871D01*
X002052Y010871D01*
X002052Y010524D01*
X001966Y010524D02*
X002139Y010524D01*
X001966Y010524D02*
X001879Y010610D01*
X001879Y010784D01*
X001879Y010094D02*
X002226Y010094D01*
X002754Y009246D02*
X003274Y009246D01*
X003014Y009246D02*
X003014Y008899D01*
X002754Y008899D02*
X003274Y008899D01*
X003589Y008936D02*
X003589Y008676D01*
X003762Y008762D02*
X003849Y008676D01*
X003935Y008762D01*
X003935Y009023D01*
X003849Y009191D02*
X003935Y009278D01*
X003935Y009452D01*
X003849Y009538D01*
X003762Y009538D01*
X003762Y009191D01*
X003675Y009191D02*
X003849Y009191D01*
X003675Y009191D02*
X003589Y009278D01*
X003589Y009452D01*
X003589Y009707D02*
X003935Y009707D01*
X003935Y009967D01*
X003849Y010054D01*
X003589Y010054D01*
X003589Y010223D02*
X003589Y010483D01*
X003675Y010570D01*
X003762Y010483D01*
X003762Y010309D01*
X003849Y010223D01*
X003935Y010309D01*
X003935Y010570D01*
X003849Y010738D02*
X003675Y010738D01*
X003589Y010825D01*
X003589Y010998D01*
X003675Y011085D01*
X003849Y011085D01*
X003935Y010998D01*
X003935Y010825D01*
X003849Y010738D01*
X003935Y011254D02*
X003589Y011254D01*
X003762Y011254D02*
X003935Y011427D01*
X003935Y011514D01*
X003675Y009023D02*
X003762Y008936D01*
X003762Y008762D01*
X003589Y008936D02*
X003675Y009023D01*
X002399Y008549D02*
X002313Y008462D01*
X001879Y008462D01*
X002139Y008375D02*
X002139Y008549D01*
X002139Y008206D02*
X001966Y008206D01*
X001879Y008120D01*
X001879Y007946D01*
X001966Y007860D01*
X002139Y007860D01*
X002226Y007946D01*
X002226Y008120D01*
X002139Y008206D01*
X002052Y007691D02*
X001966Y007691D01*
X001879Y007604D01*
X001879Y007431D01*
X001966Y007344D01*
X002139Y007431D02*
X002139Y007604D01*
X002052Y007691D01*
X002313Y007691D02*
X002399Y007604D01*
X002399Y007431D01*
X002313Y007344D01*
X002226Y007344D01*
X002139Y007431D01*
X002754Y007699D02*
X003014Y007699D01*
D11*
X010011Y007681D03*
X010011Y006578D03*
X015386Y002681D03*
X015386Y001578D03*
X017136Y001578D03*
X017136Y002681D03*
D12*
X012761Y007231D03*
X012261Y007231D03*
X011761Y007231D03*
X011261Y007231D03*
X011261Y009278D03*
X011761Y009278D03*
X012261Y009278D03*
X012761Y009278D03*
D13*
X015261Y006114D03*
X015761Y006114D03*
X016261Y006114D03*
X016761Y006114D03*
X016761Y004145D03*
X016261Y004145D03*
X015761Y004145D03*
X015261Y004145D03*
D14*
X013511Y004570D03*
X013511Y005689D03*
X009119Y007684D03*
X009119Y008804D03*
D15*
X008304Y008244D03*
X007184Y008244D03*
X011377Y010514D03*
X012496Y010514D03*
X012454Y005787D03*
X011334Y005787D03*
X011327Y004880D03*
X012446Y004880D03*
D16*
X007456Y007124D03*
X006456Y007124D03*
X005456Y007124D03*
X004956Y006124D03*
X005956Y006124D03*
X006956Y006124D03*
D17*
X003274Y001971D02*
X003274Y000814D01*
X012567Y000814D01*
X012320Y001061D01*
X012182Y001395D01*
X012182Y001757D01*
X012320Y002092D01*
X012576Y002348D01*
X012911Y002487D01*
X013273Y002487D01*
X013608Y002348D01*
X013864Y002092D01*
X014003Y001757D01*
X014003Y001395D01*
X013864Y001061D01*
X013617Y000814D01*
X017497Y000814D01*
X017497Y001083D01*
X017214Y001083D01*
X017214Y001501D01*
X017059Y001501D01*
X016602Y001501D01*
X016602Y001240D01*
X016614Y001194D01*
X016638Y001153D01*
X016672Y001119D01*
X016713Y001096D01*
X016758Y001083D01*
X017059Y001083D01*
X017059Y001501D01*
X017059Y001656D01*
X016602Y001656D01*
X016602Y001917D01*
X016614Y001963D01*
X016638Y002004D01*
X016672Y002037D01*
X016700Y002054D01*
X016601Y002094D01*
X016511Y002184D01*
X016462Y002302D01*
X016462Y003059D01*
X016469Y003077D01*
X016422Y003124D01*
X016361Y003271D01*
X016361Y003325D01*
X016313Y003373D01*
X016312Y003375D01*
X016270Y003375D01*
X016270Y003477D01*
X016264Y003491D01*
X016264Y003997D01*
X016259Y003997D01*
X016259Y003491D01*
X016253Y003477D01*
X016253Y003375D01*
X016210Y003375D01*
X016210Y003373D01*
X016161Y003325D01*
X016161Y002561D01*
X016168Y002538D01*
X016161Y002482D01*
X016161Y002425D01*
X016152Y002403D01*
X016150Y002380D01*
X016122Y002330D01*
X016101Y002278D01*
X016084Y002261D01*
X016072Y002241D01*
X016028Y002205D01*
X016016Y002193D01*
X016012Y002184D01*
X015922Y002094D01*
X015823Y002054D01*
X015851Y002037D01*
X015885Y002004D01*
X015908Y001963D01*
X015921Y001917D01*
X015921Y001656D01*
X015464Y001656D01*
X015464Y001501D01*
X015921Y001501D01*
X015921Y001240D01*
X015908Y001194D01*
X015885Y001153D01*
X015851Y001119D01*
X015810Y001096D01*
X015764Y001083D01*
X015464Y001083D01*
X015464Y001501D01*
X015309Y001501D01*
X014852Y001501D01*
X014852Y001240D01*
X014864Y001194D01*
X014888Y001153D01*
X014922Y001119D01*
X014963Y001096D01*
X015008Y001083D01*
X015309Y001083D01*
X015309Y001501D01*
X015309Y001656D01*
X014852Y001656D01*
X014852Y001917D01*
X014864Y001963D01*
X014888Y002004D01*
X014922Y002037D01*
X014950Y002054D01*
X014851Y002094D01*
X014761Y002184D01*
X014712Y002302D01*
X014712Y002630D01*
X014474Y002762D01*
X014433Y002776D01*
X014405Y002801D01*
X014373Y002819D01*
X014346Y002852D01*
X013486Y003605D01*
X010432Y003605D01*
X010285Y003665D01*
X010172Y003778D01*
X010111Y003925D01*
X010111Y006083D01*
X010089Y006083D01*
X010089Y006094D01*
X009934Y006091D01*
X009934Y006083D01*
X009633Y006083D01*
X009633Y006083D01*
X009617Y006083D01*
X009613Y006085D01*
X008245Y006078D01*
X008241Y006077D01*
X008165Y006078D01*
X008090Y006078D01*
X008086Y006079D01*
X007466Y006090D01*
X007466Y006083D01*
X007454Y006004D01*
X007429Y005928D01*
X007392Y005856D01*
X007345Y005791D01*
X007289Y005735D01*
X007224Y005687D01*
X007152Y005651D01*
X007076Y005626D01*
X006996Y005614D01*
X006965Y005614D01*
X006965Y006098D01*
X006948Y006098D01*
X006948Y005614D01*
X006916Y005614D01*
X006837Y005626D01*
X006761Y005651D01*
X006689Y005687D01*
X006624Y005735D01*
X006567Y005791D01*
X006520Y005856D01*
X006484Y005928D01*
X006459Y006004D01*
X006456Y006020D01*
X006454Y006004D01*
X006429Y005928D01*
X006392Y005856D01*
X006345Y005791D01*
X006289Y005735D01*
X006224Y005687D01*
X006152Y005651D01*
X006076Y005626D01*
X005996Y005614D01*
X005965Y005614D01*
X005965Y006115D01*
X005948Y006115D01*
X005948Y005614D01*
X005916Y005614D01*
X005837Y005626D01*
X005761Y005651D01*
X005689Y005687D01*
X005624Y005735D01*
X005567Y005791D01*
X005520Y005856D01*
X005484Y005928D01*
X005459Y006004D01*
X005456Y006020D01*
X005454Y006004D01*
X005429Y005928D01*
X005392Y005856D01*
X005345Y005791D01*
X005289Y005735D01*
X005224Y005687D01*
X005152Y005651D01*
X005076Y005626D01*
X004996Y005614D01*
X004965Y005614D01*
X004965Y006115D01*
X004965Y006132D01*
X005466Y006132D01*
X005948Y006132D01*
X005948Y006115D01*
X004965Y006115D01*
X004948Y006115D01*
X004948Y005614D01*
X004916Y005614D01*
X004837Y005626D01*
X004761Y005651D01*
X004689Y005687D01*
X004624Y005735D01*
X004567Y005791D01*
X004536Y005835D01*
X004536Y005773D01*
X004484Y005648D01*
X004435Y005599D01*
X004449Y005566D01*
X004449Y005170D01*
X004397Y005046D01*
X004302Y004950D01*
X004177Y004898D01*
X003521Y004898D01*
X003396Y004950D01*
X003381Y004965D01*
X003342Y004949D01*
X003207Y004949D01*
X003082Y005001D01*
X002986Y005097D01*
X002975Y005123D01*
X002702Y005123D01*
X002688Y005089D01*
X002592Y004993D01*
X002467Y004941D01*
X002332Y004941D01*
X002207Y004993D01*
X002111Y005089D01*
X002100Y005115D01*
X001811Y005115D01*
X001737Y005146D01*
X001717Y005126D01*
X001592Y005074D01*
X000936Y005074D01*
X000814Y005125D01*
X000814Y003274D01*
X001971Y003274D01*
X002353Y003172D01*
X002353Y003172D01*
X002695Y002974D01*
X002695Y002974D01*
X002974Y002695D01*
X002974Y002695D01*
X003172Y002353D01*
X003172Y002353D01*
X003274Y001971D01*
X003274Y001920D02*
X012249Y001920D01*
X012183Y001762D02*
X003274Y001762D01*
X003274Y001603D02*
X012182Y001603D01*
X012182Y001445D02*
X003274Y001445D01*
X003274Y001286D02*
X012227Y001286D01*
X012292Y001128D02*
X003274Y001128D01*
X003274Y000969D02*
X012412Y000969D01*
X013773Y000969D02*
X017497Y000969D01*
X017214Y001128D02*
X017059Y001128D01*
X017059Y001286D02*
X017214Y001286D01*
X017214Y001445D02*
X017059Y001445D01*
X017059Y001603D02*
X015464Y001603D01*
X015309Y001603D02*
X014003Y001603D01*
X014001Y001762D02*
X014852Y001762D01*
X014853Y001920D02*
X013935Y001920D01*
X013870Y002079D02*
X014889Y002079D01*
X014739Y002237D02*
X013719Y002237D01*
X013493Y002396D02*
X014712Y002396D01*
X014712Y002554D02*
X003056Y002554D01*
X002957Y002713D02*
X003897Y002713D01*
X004015Y002664D02*
X004397Y002664D01*
X004750Y002810D01*
X005020Y003080D01*
X005166Y003433D01*
X005166Y003815D01*
X005020Y004167D01*
X004750Y004437D01*
X004397Y004584D01*
X004015Y004584D01*
X003663Y004437D01*
X003392Y004167D01*
X003246Y003815D01*
X003246Y003433D01*
X003392Y003080D01*
X003663Y002810D01*
X004015Y002664D01*
X003601Y002871D02*
X002798Y002871D01*
X002599Y003030D02*
X003443Y003030D01*
X003348Y003188D02*
X002292Y003188D01*
X003282Y003347D02*
X000814Y003347D01*
X000814Y003505D02*
X003246Y003505D01*
X003246Y003664D02*
X000814Y003664D01*
X000814Y003822D02*
X003249Y003822D01*
X003315Y003981D02*
X000814Y003981D01*
X000814Y004139D02*
X003381Y004139D01*
X003523Y004298D02*
X000814Y004298D01*
X000814Y004456D02*
X003708Y004456D01*
X003440Y004932D02*
X000814Y004932D01*
X000814Y004773D02*
X010111Y004773D01*
X010111Y004615D02*
X000814Y004615D01*
X000814Y005090D02*
X000898Y005090D01*
X001631Y005090D02*
X002110Y005090D01*
X002688Y005090D02*
X002992Y005090D01*
X004258Y004932D02*
X010111Y004932D01*
X010111Y005090D02*
X004416Y005090D01*
X004449Y005249D02*
X010111Y005249D01*
X010111Y005407D02*
X004449Y005407D01*
X004449Y005566D02*
X010111Y005566D01*
X010111Y005724D02*
X007274Y005724D01*
X007406Y005883D02*
X010111Y005883D01*
X010011Y005761D02*
X009994Y005744D01*
X009119Y005744D01*
X008369Y004994D01*
X008397Y004584D02*
X008015Y004584D01*
X007663Y004437D01*
X007392Y004167D01*
X007246Y003815D01*
X007246Y003433D01*
X007392Y003080D01*
X007663Y002810D01*
X008015Y002664D01*
X008397Y002664D01*
X008750Y002810D01*
X009020Y003080D01*
X009166Y003433D01*
X009166Y003815D01*
X009020Y004167D01*
X008750Y004437D01*
X008397Y004584D01*
X008705Y004456D02*
X010111Y004456D01*
X010111Y004298D02*
X008890Y004298D01*
X009032Y004139D02*
X010111Y004139D01*
X010111Y003981D02*
X009097Y003981D01*
X009163Y003822D02*
X010154Y003822D01*
X010289Y003664D02*
X009166Y003664D01*
X009166Y003505D02*
X013600Y003505D01*
X013781Y003347D02*
X009131Y003347D01*
X009065Y003188D02*
X013962Y003188D01*
X014143Y003030D02*
X008970Y003030D01*
X008812Y002871D02*
X014324Y002871D01*
X014563Y002713D02*
X008516Y002713D01*
X007897Y002713D02*
X004516Y002713D01*
X004812Y002871D02*
X007601Y002871D01*
X007443Y003030D02*
X004970Y003030D01*
X005065Y003188D02*
X007348Y003188D01*
X007282Y003347D02*
X005131Y003347D01*
X005166Y003505D02*
X007246Y003505D01*
X007246Y003664D02*
X005166Y003664D01*
X005163Y003822D02*
X007249Y003822D01*
X007315Y003981D02*
X005097Y003981D01*
X005032Y004139D02*
X007381Y004139D01*
X007523Y004298D02*
X004890Y004298D01*
X004705Y004456D02*
X007708Y004456D01*
X006965Y005724D02*
X006948Y005724D01*
X006948Y005883D02*
X006965Y005883D01*
X006948Y006041D02*
X006965Y006041D01*
X006638Y005724D02*
X006274Y005724D01*
X006406Y005883D02*
X006507Y005883D01*
X005965Y005883D02*
X005948Y005883D01*
X005948Y006041D02*
X005965Y006041D01*
X005948Y005724D02*
X005965Y005724D01*
X005638Y005724D02*
X005274Y005724D01*
X005406Y005883D02*
X005507Y005883D01*
X004965Y005883D02*
X004948Y005883D01*
X004948Y006041D02*
X004965Y006041D01*
X004948Y006115D02*
X004446Y006115D01*
X004446Y006083D01*
X004449Y006068D01*
X004388Y006129D01*
X004275Y006175D01*
X004275Y006365D01*
X004388Y006412D01*
X004484Y006507D01*
X004536Y006632D01*
X004536Y006768D01*
X004484Y006892D01*
X004388Y006988D01*
X004362Y006999D01*
X004362Y007111D01*
X004310Y007236D01*
X004261Y007285D01*
X004275Y007320D01*
X004275Y007517D01*
X004302Y007528D01*
X004397Y007624D01*
X004449Y007749D01*
X004449Y007971D01*
X004397Y008096D01*
X004302Y008191D01*
X004177Y008243D01*
X003816Y008243D01*
X003781Y008278D01*
X003656Y008330D01*
X003521Y008330D01*
X003436Y008294D01*
X003397Y008387D01*
X003521Y008336D01*
X003656Y008336D01*
X003719Y008362D01*
X003781Y008336D01*
X003916Y008336D01*
X004002Y008371D01*
X004041Y008387D01*
X004041Y008387D01*
X004041Y008387D01*
X004087Y008433D01*
X004128Y008474D01*
X004134Y008480D01*
X004224Y008570D01*
X004233Y008593D01*
X004275Y008695D01*
X004275Y009090D01*
X004251Y009150D01*
X004275Y009210D01*
X004275Y009519D01*
X004251Y009579D01*
X004275Y009639D01*
X004275Y010035D01*
X004233Y010138D01*
X004233Y010140D01*
X004275Y010242D01*
X004275Y010637D01*
X004251Y010697D01*
X004275Y010757D01*
X004275Y011066D01*
X004251Y011126D01*
X004275Y011186D01*
X004275Y011322D01*
X004268Y011341D01*
X004275Y011360D01*
X004275Y011582D01*
X004272Y011591D01*
X004693Y011591D01*
X004446Y011344D01*
X004308Y011009D01*
X004308Y010647D01*
X004446Y010313D01*
X004702Y010056D01*
X005037Y009918D01*
X005399Y009918D01*
X005734Y010056D01*
X005990Y010313D01*
X006129Y010647D01*
X006129Y011009D01*
X005990Y011344D01*
X005743Y011591D01*
X015036Y011591D01*
X015036Y010434D01*
X015138Y010052D01*
X015336Y009710D01*
X015336Y009710D01*
X015615Y009430D01*
X015615Y009430D01*
X015958Y009233D01*
X016339Y009130D01*
X017497Y009130D01*
X017497Y006084D01*
X017485Y006112D01*
X017388Y006209D01*
X017261Y006262D01*
X017259Y006262D01*
X017259Y006768D01*
X017210Y006886D01*
X017161Y006934D01*
X017161Y006959D01*
X017101Y007106D01*
X016738Y007469D01*
X016591Y007530D01*
X014177Y007530D01*
X013911Y007795D01*
X013911Y008209D01*
X013851Y008356D01*
X013499Y008708D01*
X013352Y008769D01*
X013043Y008769D01*
X013047Y008776D01*
X013060Y008821D01*
X013060Y009278D01*
X012761Y009278D01*
X012761Y009278D01*
X013060Y009278D01*
X013060Y009735D01*
X013047Y009781D01*
X013024Y009822D01*
X012990Y009855D01*
X012958Y009874D01*
X012993Y009888D01*
X013083Y009978D01*
X013131Y010096D01*
X013131Y010933D01*
X013083Y011051D01*
X012993Y011141D01*
X012875Y011189D01*
X012118Y011189D01*
X012000Y011141D01*
X011937Y011077D01*
X011873Y011141D01*
X011755Y011189D01*
X010998Y011189D01*
X010881Y011141D01*
X010791Y011051D01*
X010742Y010933D01*
X010742Y010874D01*
X010642Y010833D01*
X010530Y010720D01*
X010405Y010595D01*
X010344Y010448D01*
X010344Y009204D01*
X009785Y009204D01*
X009745Y009300D01*
X009655Y009390D01*
X009537Y009439D01*
X008740Y009439D01*
X008470Y009708D01*
X008323Y009769D01*
X006539Y009769D01*
X006392Y009708D01*
X005892Y009208D01*
X005780Y009095D01*
X005719Y008948D01*
X005719Y007952D01*
X005541Y007774D01*
X005327Y007774D01*
X005088Y007675D01*
X004905Y007492D01*
X004806Y007253D01*
X004806Y006994D01*
X004905Y006755D01*
X005033Y006628D01*
X004996Y006634D01*
X004965Y006634D01*
X004965Y006132D01*
X004948Y006132D01*
X004948Y006634D01*
X004916Y006634D01*
X004837Y006621D01*
X004761Y006596D01*
X004689Y006560D01*
X004624Y006513D01*
X004567Y006456D01*
X004520Y006391D01*
X004484Y006319D01*
X004459Y006243D01*
X004446Y006164D01*
X004446Y006132D01*
X004948Y006132D01*
X004948Y006115D01*
X004948Y006200D02*
X004965Y006200D01*
X004948Y006358D02*
X004965Y006358D01*
X004948Y006517D02*
X004965Y006517D01*
X004630Y006517D02*
X004488Y006517D01*
X004503Y006358D02*
X004275Y006358D01*
X004275Y006200D02*
X004452Y006200D01*
X004516Y005724D02*
X004638Y005724D01*
X004948Y005724D02*
X004965Y005724D01*
X004985Y006675D02*
X004536Y006675D01*
X004508Y006834D02*
X004873Y006834D01*
X004807Y006992D02*
X004378Y006992D01*
X004346Y007151D02*
X004806Y007151D01*
X004830Y007309D02*
X004271Y007309D01*
X004275Y007468D02*
X004895Y007468D01*
X005040Y007626D02*
X004398Y007626D01*
X004449Y007785D02*
X005552Y007785D01*
X005710Y007943D02*
X004449Y007943D01*
X004391Y008102D02*
X005719Y008102D01*
X005719Y008260D02*
X003799Y008260D01*
X004073Y008419D02*
X005719Y008419D01*
X005719Y008577D02*
X004227Y008577D01*
X004224Y008570D02*
X004224Y008570D01*
X004224Y008570D01*
X004128Y008474D02*
X004128Y008474D01*
X004275Y008736D02*
X005719Y008736D01*
X005719Y008894D02*
X004275Y008894D01*
X004275Y009053D02*
X005762Y009053D01*
X005896Y009211D02*
X004275Y009211D01*
X004275Y009370D02*
X006054Y009370D01*
X006213Y009528D02*
X004272Y009528D01*
X004275Y009687D02*
X006371Y009687D01*
X006619Y009369D02*
X006119Y008869D01*
X006119Y007786D01*
X005456Y007124D01*
X006434Y007124D02*
X006434Y008684D01*
X006744Y008994D01*
X008119Y008994D01*
X008304Y008809D01*
X008304Y008244D01*
X011494Y008244D01*
X011744Y007994D01*
X011744Y007249D01*
X011761Y007231D01*
X011761Y006511D01*
X011619Y006369D01*
X011494Y006369D01*
X011334Y006209D01*
X011334Y005787D01*
X010779Y005724D02*
X010511Y005724D01*
X010511Y005883D02*
X010779Y005883D01*
X010779Y006041D02*
X010511Y006041D01*
X010511Y006070D02*
X010569Y006127D01*
X010606Y006216D01*
X010606Y006941D01*
X010569Y007029D01*
X010502Y007097D01*
X010413Y007133D01*
X009609Y007133D01*
X009521Y007097D01*
X009454Y007029D01*
X009417Y006941D01*
X009417Y006484D01*
X008168Y006478D01*
X007395Y006491D01*
X007279Y006607D01*
X007070Y006694D01*
X006843Y006694D01*
X006825Y006686D01*
X006940Y006801D01*
X006988Y006919D01*
X007020Y006856D01*
X007067Y006791D01*
X007124Y006735D01*
X007189Y006687D01*
X007261Y006651D01*
X007337Y006626D01*
X007416Y006614D01*
X007448Y006614D01*
X007448Y007115D01*
X007465Y007115D01*
X007465Y007132D01*
X007966Y007132D01*
X007966Y007164D01*
X007954Y007243D01*
X007929Y007319D01*
X007892Y007391D01*
X007845Y007456D01*
X007789Y007513D01*
X007724Y007560D01*
X007652Y007596D01*
X007576Y007621D01*
X007496Y007634D01*
X007465Y007634D01*
X007465Y007132D01*
X007448Y007132D01*
X007448Y007634D01*
X007416Y007634D01*
X007337Y007621D01*
X007261Y007596D01*
X007189Y007560D01*
X007124Y007513D01*
X007067Y007456D01*
X007020Y007391D01*
X006988Y007329D01*
X006940Y007447D01*
X006779Y007607D01*
X006754Y007617D01*
X006754Y007749D01*
X006758Y007745D01*
X006799Y007721D01*
X006845Y007709D01*
X007106Y007709D01*
X007106Y008130D01*
X007261Y008130D01*
X007261Y007709D01*
X007523Y007709D01*
X007568Y007721D01*
X007609Y007745D01*
X007643Y007778D01*
X007667Y007819D01*
X007679Y007865D01*
X007679Y008130D01*
X007749Y008130D01*
X007749Y007841D01*
X007785Y007753D01*
X007853Y007685D01*
X007941Y007649D01*
X008666Y007649D01*
X008754Y007685D01*
X008822Y007753D01*
X008825Y007761D01*
X009041Y007761D01*
X009041Y007606D01*
X009196Y007606D01*
X009196Y007189D01*
X009497Y007189D01*
X009543Y007201D01*
X009563Y007212D01*
X009588Y007198D01*
X009633Y007186D01*
X009934Y007186D01*
X009934Y007603D01*
X010089Y007603D01*
X010089Y007186D01*
X010389Y007186D01*
X010435Y007198D01*
X010476Y007222D01*
X010510Y007255D01*
X010533Y007296D01*
X010546Y007342D01*
X010546Y007603D01*
X010089Y007603D01*
X010089Y007758D01*
X010546Y007758D01*
X010546Y007924D01*
X011361Y007924D01*
X011424Y007861D01*
X011424Y007838D01*
X011403Y007844D01*
X011261Y007844D01*
X011120Y007844D01*
X011074Y007832D01*
X011033Y007808D01*
X010999Y007774D01*
X010976Y007733D01*
X010963Y007688D01*
X010963Y007231D01*
X011261Y007231D01*
X011261Y007231D01*
X010963Y007231D01*
X010963Y006774D01*
X010976Y006728D01*
X010999Y006687D01*
X011033Y006654D01*
X011074Y006630D01*
X011120Y006618D01*
X011261Y006618D01*
X011261Y007231D01*
X011261Y007844D01*
X011261Y007231D01*
X011261Y007231D01*
X011261Y007231D01*
X011238Y007630D01*
X011261Y007626D02*
X011261Y007626D01*
X011261Y007785D02*
X011261Y007785D01*
X011009Y007785D02*
X010546Y007785D01*
X010963Y007626D02*
X010089Y007626D01*
X010063Y007630D02*
X010011Y007681D01*
X009934Y007626D02*
X009196Y007626D01*
X009196Y007606D02*
X009196Y007761D01*
X009477Y007761D01*
X009477Y007758D01*
X009934Y007758D01*
X009934Y007603D01*
X009654Y007603D01*
X009654Y007606D01*
X009196Y007606D01*
X009196Y007468D02*
X009041Y007468D01*
X009041Y007606D02*
X009041Y007189D01*
X008740Y007189D01*
X008694Y007201D01*
X008653Y007225D01*
X008620Y007258D01*
X008596Y007299D01*
X008584Y007345D01*
X008584Y007606D01*
X009041Y007606D01*
X009041Y007626D02*
X007543Y007626D01*
X007465Y007626D02*
X007448Y007626D01*
X007369Y007626D02*
X006754Y007626D01*
X006918Y007468D02*
X007079Y007468D01*
X007448Y007468D02*
X007465Y007468D01*
X007448Y007309D02*
X007465Y007309D01*
X007448Y007151D02*
X007465Y007151D01*
X007465Y007115D02*
X007966Y007115D01*
X007966Y007083D01*
X007954Y007004D01*
X007929Y006928D01*
X007892Y006856D01*
X007845Y006791D01*
X007789Y006735D01*
X007724Y006687D01*
X007652Y006651D01*
X007576Y006626D01*
X007496Y006614D01*
X007465Y006614D01*
X007465Y007115D01*
X007465Y006992D02*
X007448Y006992D01*
X007448Y006834D02*
X007465Y006834D01*
X007448Y006675D02*
X007465Y006675D01*
X007700Y006675D02*
X009417Y006675D01*
X009417Y006834D02*
X007876Y006834D01*
X007950Y006992D02*
X009438Y006992D01*
X009196Y007309D02*
X009041Y007309D01*
X008593Y007309D02*
X007932Y007309D01*
X007966Y007151D02*
X010963Y007151D01*
X010963Y007309D02*
X010537Y007309D01*
X010546Y007468D02*
X010963Y007468D01*
X011261Y007468D02*
X011261Y007468D01*
X011261Y007309D02*
X011261Y007309D01*
X011261Y007231D02*
X011261Y006618D01*
X011290Y006618D01*
X011222Y006550D01*
X011063Y006390D01*
X011059Y006382D01*
X010972Y006382D01*
X010883Y006346D01*
X010816Y006278D01*
X010779Y006190D01*
X010779Y005384D01*
X010816Y005296D01*
X010836Y005276D01*
X010832Y005258D01*
X010832Y004957D01*
X011249Y004957D01*
X011249Y004802D01*
X010832Y004802D01*
X010832Y004501D01*
X010844Y004455D01*
X010868Y004414D01*
X010901Y004381D01*
X010942Y004357D01*
X010988Y004345D01*
X011249Y004345D01*
X011249Y004802D01*
X011404Y004802D01*
X011404Y004345D01*
X011665Y004345D01*
X011711Y004357D01*
X011752Y004381D01*
X011786Y004414D01*
X011809Y004455D01*
X011822Y004501D01*
X011822Y004802D01*
X011404Y004802D01*
X011404Y004957D01*
X011822Y004957D01*
X011822Y005258D01*
X011820Y005264D01*
X011853Y005296D01*
X011889Y005384D01*
X011889Y005502D01*
X011899Y005492D01*
X011899Y005384D01*
X011916Y005343D01*
X011891Y005282D01*
X011891Y004477D01*
X011928Y004389D01*
X011995Y004321D01*
X012084Y004285D01*
X012809Y004285D01*
X012897Y004321D01*
X012965Y004389D01*
X012976Y004417D01*
X012976Y004231D01*
X012989Y004185D01*
X013012Y004144D01*
X013046Y004111D01*
X013087Y004087D01*
X013133Y004075D01*
X013434Y004075D01*
X013434Y004492D01*
X013589Y004492D01*
X013589Y004075D01*
X013890Y004075D01*
X013936Y004087D01*
X013977Y004111D01*
X014010Y004144D01*
X014034Y004185D01*
X014046Y004231D01*
X014046Y004492D01*
X013589Y004492D01*
X013589Y004630D01*
X014525Y004630D01*
X014525Y004281D01*
X014572Y004169D01*
X014658Y004084D01*
X014770Y004037D01*
X014844Y004037D01*
X014844Y003507D01*
X014881Y003419D01*
X014948Y003351D01*
X015037Y003315D01*
X015486Y003315D01*
X015575Y003351D01*
X015598Y003375D01*
X015753Y003375D01*
X015753Y003888D01*
X015761Y003880D01*
X015761Y003176D01*
X015464Y003176D01*
X015464Y002758D01*
X015309Y002758D01*
X015309Y003176D01*
X015008Y003176D01*
X014963Y003163D01*
X014922Y003140D01*
X014888Y003106D01*
X014864Y003065D01*
X014852Y003019D01*
X014852Y003010D01*
X014636Y003130D01*
X013636Y004005D01*
X010511Y004005D01*
X010511Y006070D01*
X010599Y006200D02*
X010783Y006200D01*
X010914Y006358D02*
X010606Y006358D01*
X010606Y006517D02*
X011189Y006517D01*
X011261Y006675D02*
X011261Y006675D01*
X011261Y006834D02*
X011261Y006834D01*
X011261Y006992D02*
X011261Y006992D01*
X011261Y007151D02*
X011261Y007151D01*
X010963Y006992D02*
X010585Y006992D01*
X010606Y006834D02*
X010963Y006834D01*
X011011Y006675D02*
X010606Y006675D01*
X010011Y006578D02*
X010011Y005761D01*
X010111Y006041D02*
X007460Y006041D01*
X007369Y006517D02*
X009417Y006517D01*
X009934Y007309D02*
X010089Y007309D01*
X010089Y007468D02*
X009934Y007468D01*
X008584Y007468D02*
X007833Y007468D01*
X007772Y007785D02*
X007647Y007785D01*
X007679Y007943D02*
X007749Y007943D01*
X007749Y008102D02*
X007679Y008102D01*
X007261Y008102D02*
X007106Y008102D01*
X007106Y007943D02*
X007261Y007943D01*
X007261Y007785D02*
X007106Y007785D01*
X007037Y006834D02*
X006953Y006834D01*
X007114Y006675D02*
X007213Y006675D01*
X009119Y008804D02*
X010554Y008804D01*
X010744Y008994D01*
X010744Y010369D01*
X010869Y010494D01*
X011356Y010494D01*
X011377Y010514D01*
X011494Y010397D01*
X011494Y009994D01*
X011761Y009726D01*
X011761Y009278D01*
X011744Y009635D01*
X012261Y009761D02*
X012261Y009278D01*
X012261Y008601D01*
X012494Y008369D01*
X013272Y008369D01*
X013511Y008130D01*
X013511Y007630D01*
X014011Y007130D01*
X013511Y006630D01*
X013511Y005689D01*
X012630Y005130D02*
X012494Y004994D01*
X012494Y005079D01*
X012454Y005119D01*
X012454Y004887D01*
X012446Y004880D01*
X012494Y004994D02*
X012560Y004994D01*
X012630Y005130D02*
X014636Y005130D01*
X014525Y004615D02*
X013589Y004615D01*
X013589Y004456D02*
X013434Y004456D01*
X013434Y004298D02*
X013589Y004298D01*
X013589Y004139D02*
X013434Y004139D01*
X013664Y003981D02*
X014844Y003981D01*
X014844Y003822D02*
X013845Y003822D01*
X014026Y003664D02*
X014844Y003664D01*
X014845Y003505D02*
X014207Y003505D01*
X014388Y003347D02*
X014959Y003347D01*
X014855Y003030D02*
X014816Y003030D01*
X014569Y003188D02*
X015761Y003188D01*
X015761Y003347D02*
X015564Y003347D01*
X015753Y003505D02*
X015761Y003505D01*
X015753Y003664D02*
X015761Y003664D01*
X015753Y003822D02*
X015761Y003822D01*
X016259Y003822D02*
X016264Y003822D01*
X016259Y003664D02*
X016264Y003664D01*
X016259Y003505D02*
X016264Y003505D01*
X016340Y003347D02*
X016183Y003347D01*
X016161Y003188D02*
X016396Y003188D01*
X016462Y003030D02*
X016161Y003030D01*
X016161Y002871D02*
X016462Y002871D01*
X016462Y002713D02*
X016161Y002713D01*
X016163Y002554D02*
X016462Y002554D01*
X016462Y002396D02*
X016152Y002396D01*
X016068Y002237D02*
X016489Y002237D01*
X016639Y002079D02*
X015884Y002079D01*
X015920Y001920D02*
X016603Y001920D01*
X016602Y001762D02*
X015921Y001762D01*
X015921Y001445D02*
X016602Y001445D01*
X016602Y001286D02*
X015921Y001286D01*
X015860Y001128D02*
X016663Y001128D01*
X015464Y001128D02*
X015309Y001128D01*
X015309Y001286D02*
X015464Y001286D01*
X015464Y001445D02*
X015309Y001445D01*
X014852Y001445D02*
X014003Y001445D01*
X013958Y001286D02*
X014852Y001286D01*
X014913Y001128D02*
X013892Y001128D01*
X012465Y002237D02*
X003203Y002237D01*
X003245Y002079D02*
X012315Y002079D01*
X012691Y002396D02*
X003147Y002396D01*
X010511Y004139D02*
X013017Y004139D01*
X012976Y004298D02*
X012841Y004298D01*
X012052Y004298D02*
X010511Y004298D01*
X010511Y004456D02*
X010844Y004456D01*
X010832Y004615D02*
X010511Y004615D01*
X010511Y004773D02*
X010832Y004773D01*
X010511Y004932D02*
X011249Y004932D01*
X011404Y004932D02*
X011891Y004932D01*
X011891Y004773D02*
X011822Y004773D01*
X011822Y004615D02*
X011891Y004615D01*
X011900Y004456D02*
X011810Y004456D01*
X011404Y004456D02*
X011249Y004456D01*
X011249Y004615D02*
X011404Y004615D01*
X011404Y004773D02*
X011249Y004773D01*
X010832Y005090D02*
X010511Y005090D01*
X010511Y005249D02*
X010832Y005249D01*
X010779Y005407D02*
X010511Y005407D01*
X010511Y005566D02*
X010779Y005566D01*
X011822Y005249D02*
X011891Y005249D01*
X011889Y005407D02*
X011899Y005407D01*
X011891Y005090D02*
X011822Y005090D01*
X012454Y005119D02*
X012454Y005787D01*
X012454Y006409D01*
X012261Y006601D01*
X012261Y007231D01*
X011761Y007231D02*
X011744Y007624D01*
X013431Y008736D02*
X017497Y008736D01*
X017497Y008894D02*
X013060Y008894D01*
X013060Y009053D02*
X017497Y009053D01*
X017497Y008577D02*
X013629Y008577D01*
X013788Y008419D02*
X017497Y008419D01*
X017497Y008260D02*
X013890Y008260D01*
X013911Y008102D02*
X017497Y008102D01*
X017497Y007943D02*
X013911Y007943D01*
X013922Y007785D02*
X017497Y007785D01*
X017497Y007626D02*
X014080Y007626D01*
X014011Y007130D02*
X016511Y007130D01*
X016761Y006880D01*
X016761Y006114D01*
X016261Y006114D02*
X016261Y005380D01*
X016011Y005130D01*
X015511Y005130D01*
X014525Y004456D02*
X014046Y004456D01*
X014046Y004298D02*
X014525Y004298D01*
X014602Y004139D02*
X014005Y004139D01*
X015309Y003030D02*
X015464Y003030D01*
X015464Y002871D02*
X015309Y002871D01*
X016761Y003351D02*
X016869Y003244D01*
X016994Y003244D01*
X017119Y003119D01*
X017119Y002698D01*
X017136Y002681D01*
X016761Y003351D02*
X016761Y004145D01*
X016264Y003981D02*
X016259Y003981D01*
X017398Y006200D02*
X017497Y006200D01*
X017497Y006358D02*
X017259Y006358D01*
X017259Y006517D02*
X017497Y006517D01*
X017497Y006675D02*
X017259Y006675D01*
X017231Y006834D02*
X017497Y006834D01*
X017497Y006992D02*
X017148Y006992D01*
X017056Y007151D02*
X017497Y007151D01*
X017497Y007309D02*
X016897Y007309D01*
X016739Y007468D02*
X017497Y007468D01*
X016038Y009211D02*
X013060Y009211D01*
X013060Y009370D02*
X015720Y009370D01*
X015517Y009528D02*
X013060Y009528D01*
X013060Y009687D02*
X015359Y009687D01*
X015258Y009845D02*
X013000Y009845D01*
X013093Y010004D02*
X015166Y010004D01*
X015138Y010052D02*
X015138Y010052D01*
X015109Y010162D02*
X013131Y010162D01*
X013131Y010321D02*
X015066Y010321D01*
X015036Y010479D02*
X013131Y010479D01*
X013131Y010638D02*
X015036Y010638D01*
X015036Y010796D02*
X013131Y010796D01*
X013122Y010955D02*
X015036Y010955D01*
X015036Y011113D02*
X013020Y011113D01*
X012496Y010514D02*
X012494Y010512D01*
X012494Y009994D01*
X012261Y009761D01*
X010606Y010796D02*
X006129Y010796D01*
X006129Y010955D02*
X010751Y010955D01*
X010853Y011113D02*
X006086Y011113D01*
X006020Y011272D02*
X015036Y011272D01*
X015036Y011430D02*
X005904Y011430D01*
X005745Y011589D02*
X015036Y011589D01*
X011973Y011113D02*
X011900Y011113D01*
X010447Y010638D02*
X006125Y010638D01*
X006059Y010479D02*
X010357Y010479D01*
X010344Y010321D02*
X005993Y010321D01*
X005840Y010162D02*
X010344Y010162D01*
X010344Y010004D02*
X005607Y010004D01*
X004830Y010004D02*
X004275Y010004D01*
X004275Y009845D02*
X010344Y009845D01*
X010344Y009687D02*
X008491Y009687D01*
X008650Y009528D02*
X010344Y009528D01*
X010344Y009370D02*
X009675Y009370D01*
X009782Y009211D02*
X010344Y009211D01*
X009119Y008804D02*
X009054Y008869D01*
X008744Y008869D01*
X008244Y009369D01*
X006619Y009369D01*
X004597Y010162D02*
X004243Y010162D01*
X004275Y010321D02*
X004443Y010321D01*
X004377Y010479D02*
X004275Y010479D01*
X004275Y010638D02*
X004311Y010638D01*
X004308Y010796D02*
X004275Y010796D01*
X004275Y010955D02*
X004308Y010955D01*
X004351Y011113D02*
X004256Y011113D01*
X004275Y011272D02*
X004416Y011272D01*
X004532Y011430D02*
X004275Y011430D01*
X004273Y011589D02*
X004691Y011589D01*
X015958Y009233D02*
X015958Y009233D01*
D18*
X015511Y005130D02*
X015386Y005005D01*
X014886Y005005D01*
X014636Y005130D01*
M02*
