G75*
%MOIN*%
%OFA0B0*%
%FSLAX24Y24*%
%IPPOS*%
%LPD*%
%AMOC8*
5,1,8,0,0,1.08239X$1,22.5*
%
%ADD10R,0.0630X0.0709*%
%ADD11R,0.0236X0.0866*%
%ADD12R,0.1181X0.0354*%
%ADD13R,0.0709X0.0630*%
%ADD14R,0.0710X0.0630*%
%ADD15R,0.0630X0.0710*%
%ADD16C,0.0660*%
%ADD17R,0.0394X0.0394*%
%ADD18C,0.0250*%
%ADD19C,0.0320*%
%ADD20C,0.0396*%
%ADD21C,0.0400*%
%ADD22C,0.0240*%
%ADD23C,0.0160*%
D10*
X011691Y008693D03*
X012793Y008693D03*
D11*
X004713Y008051D03*
X004213Y008051D03*
X003713Y008051D03*
X003213Y008051D03*
X003213Y010099D03*
X003713Y010099D03*
X004213Y010099D03*
X004713Y010099D03*
D12*
X011361Y010104D03*
X011361Y010604D03*
X011361Y011104D03*
X013330Y011104D03*
X013330Y010604D03*
X013330Y010104D03*
X013330Y009604D03*
X011361Y009604D03*
D13*
X009356Y008887D03*
X009356Y007785D03*
X014499Y010046D03*
X014499Y011148D03*
X002463Y010501D03*
X002463Y009399D03*
D14*
X006117Y009003D03*
X006999Y009003D03*
X006999Y007883D03*
X006117Y007883D03*
X003606Y005646D03*
X002731Y005646D03*
X002731Y004526D03*
X003606Y004526D03*
X010481Y004651D03*
X010481Y005771D03*
D15*
X003848Y006878D03*
X002728Y006878D03*
X003396Y011042D03*
X004516Y011042D03*
D16*
X005731Y006745D03*
X006731Y006745D03*
X007731Y006745D03*
X008731Y006745D03*
X008231Y005745D03*
X007231Y005745D03*
X006231Y005745D03*
X005231Y005745D03*
X012606Y006711D03*
X013606Y006711D03*
X014606Y006711D03*
X014106Y005711D03*
X013106Y005711D03*
X015106Y005711D03*
D17*
X009375Y009567D03*
X008587Y009567D03*
X008587Y010355D03*
X009375Y010355D03*
D18*
X017610Y010836D03*
X002735Y001336D03*
D19*
X002731Y004526D02*
X002546Y004586D01*
X002231Y004586D01*
X002106Y004711D01*
X002106Y007961D01*
X002463Y008443D01*
X002463Y009399D01*
X002463Y010501D02*
X002463Y011068D01*
X002481Y011086D01*
X009356Y008887D02*
X010055Y008887D01*
X010981Y007961D01*
X014106Y007961D01*
X015231Y009086D01*
X015231Y010961D01*
X015044Y011148D01*
X014499Y011148D01*
X013330Y009604D02*
X013330Y008809D01*
X013231Y008711D01*
X012811Y008711D01*
X012793Y008693D01*
X011691Y008693D02*
X011124Y008693D01*
X010981Y008836D01*
D20*
X010981Y008836D03*
X009981Y009836D03*
X007981Y009836D03*
X008106Y008961D03*
X009981Y007711D03*
X009481Y005711D03*
X003606Y006211D03*
X002606Y007711D03*
X005481Y009711D03*
X002481Y011086D03*
X009856Y011086D03*
X014481Y009461D03*
D21*
X013481Y007086D02*
X013569Y006998D01*
X009981Y007711D02*
X009907Y007785D01*
X009356Y007785D01*
X008731Y007586D02*
X008481Y007836D01*
X007046Y007836D01*
X006999Y007883D01*
X006117Y007883D01*
X008106Y008961D02*
X008587Y009442D01*
X008587Y009567D01*
X009375Y009567D02*
X009375Y008906D01*
X009356Y008887D01*
X008907Y008887D01*
X008731Y008711D01*
X008731Y006745D01*
X008731Y007586D01*
X007231Y005745D02*
X007231Y005336D01*
X006231Y005336D02*
X006231Y005745D01*
D22*
X004356Y004336D02*
X004166Y004526D01*
X003606Y004526D01*
X002731Y004526D01*
X004356Y004336D02*
X008231Y004336D01*
X008981Y005086D01*
X008981Y006495D01*
X008731Y006745D01*
X003231Y009586D02*
X003231Y010081D01*
X003213Y010099D01*
X003231Y009586D02*
X003044Y009399D01*
X002463Y009399D01*
X013330Y010104D02*
X014441Y010104D01*
X014499Y010046D01*
X014499Y009479D01*
X014481Y009461D01*
X014374Y010604D02*
X013330Y010604D01*
X014374Y010604D02*
X014481Y010711D01*
X014481Y011130D01*
X014499Y011148D01*
D23*
X000430Y011433D02*
X000430Y000656D01*
X018215Y000656D01*
X018215Y011433D01*
X015438Y011433D01*
X015638Y011233D01*
X015711Y011056D01*
X015711Y010865D01*
X015711Y008990D01*
X015638Y008814D01*
X014513Y007689D01*
X014513Y007689D01*
X014378Y007554D01*
X014202Y007481D01*
X013854Y007481D01*
X013877Y007425D01*
X014010Y007293D01*
X014056Y007180D01*
X014106Y007130D01*
X014238Y007262D01*
X014477Y007361D01*
X014735Y007361D01*
X014974Y007262D01*
X015157Y007079D01*
X015256Y006840D01*
X015256Y006582D01*
X015165Y006361D01*
X015235Y006361D01*
X015474Y006262D01*
X015657Y006079D01*
X015756Y005840D01*
X015756Y005582D01*
X015657Y005343D01*
X015474Y005160D01*
X015235Y005061D01*
X014977Y005061D01*
X014738Y005160D01*
X014555Y005343D01*
X014524Y005418D01*
X014495Y005379D01*
X014438Y005322D01*
X014373Y005275D01*
X014302Y005238D01*
X014226Y005213D01*
X014146Y005201D01*
X014115Y005201D01*
X014115Y005702D01*
X014098Y005702D01*
X014098Y005201D01*
X014066Y005201D01*
X013987Y005213D01*
X013910Y005238D01*
X013839Y005275D01*
X013774Y005322D01*
X013717Y005379D01*
X013688Y005418D01*
X013657Y005343D01*
X013474Y005160D01*
X013235Y005061D01*
X012977Y005061D01*
X012738Y005160D01*
X012555Y005343D01*
X012456Y005582D01*
X012456Y005840D01*
X012548Y006061D01*
X012477Y006061D01*
X012238Y006160D01*
X012055Y006343D01*
X011956Y006582D01*
X011956Y006840D01*
X012048Y007061D01*
X011647Y007061D01*
X010965Y006379D01*
X011017Y006357D01*
X011107Y006267D01*
X011156Y006149D01*
X011156Y005392D01*
X011107Y005274D01*
X011044Y005211D01*
X011107Y005147D01*
X011156Y005030D01*
X011156Y004272D01*
X011107Y004155D01*
X011017Y004065D01*
X010900Y004016D01*
X010063Y004016D01*
X009945Y004065D01*
X009855Y004155D01*
X009815Y004251D01*
X009336Y004251D01*
X009189Y004312D01*
X009009Y004492D01*
X008675Y004158D01*
X008790Y004205D01*
X009172Y004205D01*
X009525Y004059D01*
X009795Y003789D01*
X009941Y003436D01*
X009941Y003054D01*
X009795Y002702D01*
X009525Y002431D01*
X009172Y002285D01*
X008790Y002285D01*
X008437Y002431D01*
X008167Y002702D01*
X008021Y003054D01*
X008021Y003436D01*
X008167Y003789D01*
X008274Y003896D01*
X005688Y003896D01*
X005795Y003789D01*
X005941Y003436D01*
X005941Y003054D01*
X005795Y002702D01*
X005525Y002431D01*
X005172Y002285D01*
X004790Y002285D01*
X004437Y002431D01*
X004167Y002702D01*
X004021Y003054D01*
X004021Y003436D01*
X004167Y003789D01*
X004274Y003896D01*
X004269Y003896D01*
X004148Y003946D01*
X004142Y003940D01*
X004025Y003891D01*
X003188Y003891D01*
X003169Y003899D01*
X003150Y003891D01*
X002313Y003891D01*
X002195Y003940D01*
X002105Y004030D01*
X002061Y004137D01*
X001959Y004179D01*
X001699Y004439D01*
X001626Y004615D01*
X000430Y004615D01*
X000430Y004457D02*
X001692Y004457D01*
X001626Y004615D02*
X001626Y007925D01*
X001617Y007985D01*
X001626Y008020D01*
X001626Y008056D01*
X001649Y008112D01*
X001664Y008170D01*
X001685Y008199D01*
X001699Y008233D01*
X001742Y008275D01*
X001983Y008602D01*
X001983Y008790D01*
X001928Y008813D01*
X001838Y008903D01*
X001789Y009020D01*
X001789Y009777D01*
X001838Y009895D01*
X001928Y009985D01*
X002027Y010026D01*
X001999Y010042D01*
X001965Y010076D01*
X001941Y010117D01*
X001929Y010163D01*
X000430Y010163D01*
X000430Y010321D02*
X001929Y010321D01*
X001929Y010424D02*
X001929Y010163D01*
X001974Y010004D02*
X000430Y010004D01*
X000430Y009846D02*
X001817Y009846D01*
X001789Y009687D02*
X000430Y009687D01*
X000430Y009529D02*
X001789Y009529D01*
X001789Y009370D02*
X000430Y009370D01*
X000430Y009212D02*
X001789Y009212D01*
X001789Y009053D02*
X000430Y009053D01*
X000430Y008895D02*
X001846Y008895D01*
X001983Y008736D02*
X000430Y008736D01*
X000430Y008578D02*
X001966Y008578D01*
X001848Y008419D02*
X000430Y008419D01*
X000430Y008261D02*
X001727Y008261D01*
X001645Y008102D02*
X000430Y008102D01*
X000430Y007944D02*
X001623Y007944D01*
X001626Y007785D02*
X000430Y007785D01*
X000430Y007627D02*
X001626Y007627D01*
X001626Y007468D02*
X000430Y007468D01*
X000430Y007310D02*
X001626Y007310D01*
X001626Y007151D02*
X000430Y007151D01*
X000430Y006993D02*
X001626Y006993D01*
X001626Y006834D02*
X000430Y006834D01*
X000430Y006676D02*
X001626Y006676D01*
X001626Y006517D02*
X000430Y006517D01*
X000430Y006359D02*
X001626Y006359D01*
X001626Y006200D02*
X000430Y006200D01*
X000430Y006042D02*
X001626Y006042D01*
X001626Y005883D02*
X000430Y005883D01*
X000430Y005725D02*
X001626Y005725D01*
X001626Y005566D02*
X000430Y005566D01*
X000430Y005408D02*
X001626Y005408D01*
X001626Y005249D02*
X000430Y005249D01*
X000430Y005091D02*
X001626Y005091D01*
X001626Y004932D02*
X000430Y004932D01*
X000430Y004774D02*
X001626Y004774D01*
X001840Y004298D02*
X000430Y004298D01*
X000430Y004140D02*
X002054Y004140D01*
X002153Y003981D02*
X000430Y003981D01*
X000430Y003823D02*
X004201Y003823D01*
X004116Y003664D02*
X000430Y003664D01*
X000430Y003506D02*
X004050Y003506D01*
X004021Y003347D02*
X000430Y003347D01*
X000430Y003189D02*
X004021Y003189D01*
X004031Y003030D02*
X000430Y003030D01*
X000430Y002872D02*
X004097Y002872D01*
X004162Y002713D02*
X000430Y002713D01*
X000430Y002555D02*
X004314Y002555D01*
X004522Y002396D02*
X000430Y002396D01*
X000430Y002238D02*
X018215Y002238D01*
X018215Y002396D02*
X016398Y002396D01*
X016400Y002397D02*
X016670Y002667D01*
X016816Y003020D01*
X016816Y003402D01*
X016670Y003755D01*
X016400Y004025D01*
X016047Y004171D01*
X015665Y004171D01*
X015312Y004025D01*
X015042Y003755D01*
X014896Y003402D01*
X014896Y003020D01*
X015042Y002667D01*
X015312Y002397D01*
X015665Y002251D01*
X016047Y002251D01*
X016400Y002397D01*
X016558Y002555D02*
X018215Y002555D01*
X018215Y002713D02*
X016689Y002713D01*
X016755Y002872D02*
X018215Y002872D01*
X018215Y003030D02*
X016816Y003030D01*
X016816Y003189D02*
X018215Y003189D01*
X018215Y003347D02*
X016816Y003347D01*
X016773Y003506D02*
X018215Y003506D01*
X018215Y003664D02*
X016707Y003664D01*
X016602Y003823D02*
X018215Y003823D01*
X018215Y003981D02*
X016443Y003981D01*
X016122Y004140D02*
X018215Y004140D01*
X018215Y004298D02*
X011156Y004298D01*
X011092Y004140D02*
X011590Y004140D01*
X011665Y004171D02*
X011312Y004025D01*
X011042Y003755D01*
X010896Y003402D01*
X010896Y003020D01*
X011042Y002667D01*
X011312Y002397D01*
X011665Y002251D01*
X012047Y002251D01*
X012400Y002397D01*
X012670Y002667D01*
X012816Y003020D01*
X012816Y003402D01*
X012670Y003755D01*
X012400Y004025D01*
X012047Y004171D01*
X011665Y004171D01*
X011269Y003981D02*
X009603Y003981D01*
X009761Y003823D02*
X011111Y003823D01*
X011005Y003664D02*
X009847Y003664D01*
X009912Y003506D02*
X010939Y003506D01*
X010896Y003347D02*
X009941Y003347D01*
X009941Y003189D02*
X010896Y003189D01*
X010896Y003030D02*
X009931Y003030D01*
X009866Y002872D02*
X010958Y002872D01*
X011023Y002713D02*
X009800Y002713D01*
X009648Y002555D02*
X011155Y002555D01*
X011314Y002396D02*
X009440Y002396D01*
X008522Y002396D02*
X005440Y002396D01*
X005648Y002555D02*
X008314Y002555D01*
X008162Y002713D02*
X005800Y002713D01*
X005866Y002872D02*
X008097Y002872D01*
X008031Y003030D02*
X005931Y003030D01*
X005941Y003189D02*
X008021Y003189D01*
X008021Y003347D02*
X005941Y003347D01*
X005912Y003506D02*
X008050Y003506D01*
X008116Y003664D02*
X005847Y003664D01*
X005761Y003823D02*
X008201Y003823D01*
X008816Y004298D02*
X009222Y004298D01*
X009330Y004140D02*
X009870Y004140D01*
X009044Y004457D02*
X008974Y004457D01*
X009416Y004651D02*
X008981Y005086D01*
X009416Y004651D02*
X010481Y004651D01*
X011156Y004615D02*
X018215Y004615D01*
X018215Y004457D02*
X011156Y004457D01*
X011156Y004774D02*
X018215Y004774D01*
X018215Y004932D02*
X011156Y004932D01*
X011131Y005091D02*
X012904Y005091D01*
X013308Y005091D02*
X014904Y005091D01*
X014648Y005249D02*
X014324Y005249D01*
X014115Y005249D02*
X014098Y005249D01*
X014098Y005408D02*
X014115Y005408D01*
X014098Y005566D02*
X014115Y005566D01*
X013889Y005249D02*
X013564Y005249D01*
X013684Y005408D02*
X013696Y005408D01*
X014516Y005408D02*
X014528Y005408D01*
X015308Y005091D02*
X018215Y005091D01*
X018215Y005249D02*
X015564Y005249D01*
X015684Y005408D02*
X018215Y005408D01*
X018215Y005566D02*
X015750Y005566D01*
X015756Y005725D02*
X018215Y005725D01*
X018215Y005883D02*
X015738Y005883D01*
X015673Y006042D02*
X018215Y006042D01*
X018215Y006200D02*
X015536Y006200D01*
X015240Y006359D02*
X018215Y006359D01*
X018215Y006517D02*
X015230Y006517D01*
X015256Y006676D02*
X018215Y006676D01*
X018215Y006834D02*
X015256Y006834D01*
X015193Y006993D02*
X018215Y006993D01*
X018215Y007151D02*
X015085Y007151D01*
X014859Y007310D02*
X018215Y007310D01*
X018215Y007468D02*
X013859Y007468D01*
X013993Y007310D02*
X014354Y007310D01*
X014127Y007151D02*
X014085Y007151D01*
X013606Y006998D02*
X013606Y006711D01*
X013606Y006998D02*
X013569Y006998D01*
X013481Y007086D02*
X013481Y007336D01*
X013356Y007461D01*
X011481Y007461D01*
X010481Y006461D01*
X010481Y005771D01*
X010421Y005711D01*
X009481Y005711D01*
X009806Y006119D02*
X009775Y006150D01*
X009584Y006229D01*
X009421Y006229D01*
X009421Y006583D01*
X009381Y006679D01*
X009381Y006875D01*
X009282Y007114D01*
X009251Y007145D01*
X009251Y007290D01*
X009279Y007290D01*
X009279Y007707D01*
X009434Y007707D01*
X009434Y007862D01*
X009891Y007862D01*
X009891Y008123D01*
X009878Y008169D01*
X009855Y008210D01*
X009821Y008244D01*
X009793Y008260D01*
X009892Y008301D01*
X009927Y008336D01*
X010709Y007554D01*
X010886Y007481D01*
X010935Y007481D01*
X010255Y006800D01*
X010142Y006687D01*
X010081Y006540D01*
X010081Y006406D01*
X010063Y006406D01*
X009945Y006357D01*
X009855Y006267D01*
X009806Y006149D01*
X009806Y006119D01*
X009827Y006200D02*
X009653Y006200D01*
X009421Y006359D02*
X009950Y006359D01*
X010081Y006517D02*
X009421Y006517D01*
X009383Y006676D02*
X010137Y006676D01*
X010289Y006834D02*
X009381Y006834D01*
X009332Y006993D02*
X010448Y006993D01*
X010606Y007151D02*
X009251Y007151D01*
X009279Y007310D02*
X009434Y007310D01*
X009434Y007290D02*
X009734Y007290D01*
X009780Y007302D01*
X009821Y007326D01*
X009855Y007359D01*
X009878Y007400D01*
X009891Y007446D01*
X009891Y007707D01*
X009434Y007707D01*
X009434Y007290D01*
X009434Y007468D02*
X009279Y007468D01*
X009279Y007627D02*
X009434Y007627D01*
X009434Y007785D02*
X010478Y007785D01*
X010636Y007627D02*
X009891Y007627D01*
X009891Y007468D02*
X010923Y007468D01*
X010765Y007310D02*
X009794Y007310D01*
X009891Y007944D02*
X010319Y007944D01*
X010161Y008102D02*
X009891Y008102D01*
X009795Y008261D02*
X010002Y008261D01*
X010884Y008736D02*
X011613Y008736D01*
X011613Y008771D02*
X011613Y008616D01*
X011196Y008616D01*
X011196Y008441D01*
X011180Y008441D01*
X010462Y009159D01*
X010417Y009204D01*
X010541Y009204D01*
X010589Y009155D01*
X010707Y009106D01*
X011205Y009106D01*
X011196Y009071D01*
X011196Y008771D01*
X011613Y008771D01*
X011196Y008895D02*
X010726Y008895D01*
X010567Y009053D02*
X011196Y009053D01*
X011196Y008578D02*
X011043Y008578D01*
X012143Y009165D02*
X012223Y009245D01*
X012272Y009363D01*
X012272Y009844D01*
X012268Y009854D01*
X012272Y009863D01*
X012272Y010344D01*
X012268Y010354D01*
X012272Y010363D01*
X012272Y010844D01*
X012268Y010854D01*
X012272Y010863D01*
X012272Y011344D01*
X012235Y011433D01*
X012456Y011433D01*
X012419Y011344D01*
X012419Y010863D01*
X012423Y010854D01*
X012419Y010844D01*
X012419Y010363D01*
X012468Y010245D01*
X012558Y010155D01*
X012559Y010155D01*
X012559Y010112D01*
X012662Y010112D01*
X012675Y010106D01*
X013321Y010106D01*
X013321Y010101D01*
X012675Y010101D01*
X012662Y010095D01*
X012559Y010095D01*
X012559Y010053D01*
X012558Y010052D01*
X012468Y009962D01*
X012419Y009844D01*
X012419Y009367D01*
X012415Y009367D01*
X012297Y009319D01*
X012207Y009229D01*
X012166Y009130D01*
X012150Y009158D01*
X012143Y009165D01*
X012190Y009212D02*
X012200Y009212D01*
X012272Y009370D02*
X012419Y009370D01*
X012419Y009529D02*
X012272Y009529D01*
X012272Y009687D02*
X012419Y009687D01*
X012420Y009846D02*
X012271Y009846D01*
X012272Y010004D02*
X012510Y010004D01*
X012550Y010163D02*
X012272Y010163D01*
X012272Y010321D02*
X012436Y010321D01*
X012419Y010480D02*
X012272Y010480D01*
X012272Y010638D02*
X012419Y010638D01*
X012419Y010797D02*
X012272Y010797D01*
X012272Y010955D02*
X012419Y010955D01*
X012419Y011114D02*
X012272Y011114D01*
X012272Y011272D02*
X012419Y011272D01*
X012455Y011431D02*
X012236Y011431D01*
X010487Y011433D02*
X010451Y011344D01*
X010451Y010863D01*
X010454Y010854D01*
X010451Y010844D01*
X010451Y010504D01*
X010379Y010504D01*
X010320Y010562D01*
X010208Y010675D01*
X010061Y010736D01*
X009840Y010736D01*
X009753Y010823D01*
X009741Y010828D01*
X009695Y010937D01*
X009583Y011050D01*
X009458Y011175D01*
X009311Y011236D01*
X008152Y011236D01*
X008005Y011175D01*
X006815Y009986D01*
X006277Y009986D01*
X006130Y009925D01*
X006017Y009812D01*
X005843Y009638D01*
X005698Y009638D01*
X005581Y009589D01*
X005491Y009499D01*
X005451Y009403D01*
X005022Y009403D01*
X005103Y009484D01*
X005152Y009602D01*
X005152Y010595D01*
X005145Y010611D01*
X005151Y010624D01*
X005151Y011433D01*
X010487Y011433D01*
X010486Y011431D02*
X005151Y011431D01*
X005151Y011272D02*
X010451Y011272D01*
X010451Y011114D02*
X009519Y011114D01*
X009677Y010955D02*
X010451Y010955D01*
X010451Y010797D02*
X009779Y010797D01*
X009356Y010711D02*
X009356Y010373D01*
X009375Y010355D01*
X009394Y010336D01*
X009981Y010336D01*
X010213Y010104D01*
X011361Y010104D01*
X011361Y009604D02*
X010213Y009604D01*
X009981Y009836D01*
X008606Y009549D02*
X008606Y009321D01*
X008569Y009284D01*
X008569Y009549D01*
X008606Y009549D01*
X008606Y009529D02*
X008569Y009529D01*
X008569Y009370D02*
X008606Y009370D01*
X008475Y009190D02*
X008367Y009190D01*
X008321Y009203D01*
X008280Y009226D01*
X008247Y009260D01*
X008237Y009276D01*
X008208Y009247D01*
X007674Y008713D01*
X007674Y008624D01*
X007625Y008507D01*
X007561Y008443D01*
X007625Y008380D01*
X007635Y008356D01*
X008211Y008356D01*
X008211Y008814D01*
X008290Y009005D01*
X008437Y009152D01*
X008475Y009190D01*
X008305Y009212D02*
X008173Y009212D01*
X008014Y009053D02*
X008338Y009053D01*
X008245Y008895D02*
X007856Y008895D01*
X007697Y008736D02*
X008211Y008736D01*
X008211Y008578D02*
X007655Y008578D01*
X007585Y008419D02*
X008211Y008419D01*
X007398Y009003D02*
X007981Y009586D01*
X007981Y009836D01*
X007981Y010086D01*
X008231Y010336D01*
X008569Y010336D01*
X008587Y010355D01*
X008231Y010836D02*
X006981Y009586D01*
X006356Y009586D01*
X006117Y009347D01*
X006117Y009003D01*
X004564Y009003D01*
X004213Y009354D01*
X004213Y010099D01*
X004213Y010740D01*
X004516Y011042D01*
X005151Y011114D02*
X007944Y011114D01*
X007785Y010955D02*
X005151Y010955D01*
X005151Y010797D02*
X007627Y010797D01*
X007468Y010638D02*
X005151Y010638D01*
X005152Y010480D02*
X007310Y010480D01*
X007151Y010321D02*
X005152Y010321D01*
X005152Y010163D02*
X006993Y010163D01*
X006834Y010004D02*
X005152Y010004D01*
X005152Y009846D02*
X006051Y009846D01*
X006017Y009812D02*
X006017Y009812D01*
X005892Y009687D02*
X005152Y009687D01*
X005121Y009529D02*
X005520Y009529D01*
X005231Y008711D02*
X004356Y008711D01*
X004213Y008568D01*
X004213Y008051D01*
X004213Y007568D01*
X004106Y007461D01*
X003981Y007461D01*
X003856Y007336D01*
X003856Y006886D01*
X003848Y006878D01*
X004483Y006834D02*
X005229Y006834D01*
X005234Y006865D02*
X005221Y006785D01*
X005221Y006754D01*
X005723Y006754D01*
X005723Y006737D01*
X005740Y006737D01*
X005740Y006754D01*
X006221Y006754D01*
X006723Y006754D01*
X006723Y006737D01*
X005740Y006737D01*
X005740Y006235D01*
X005771Y006235D01*
X005808Y006241D01*
X005680Y006114D01*
X005649Y006038D01*
X005620Y006078D01*
X005563Y006134D01*
X005498Y006182D01*
X005427Y006218D01*
X005351Y006243D01*
X005271Y006255D01*
X005240Y006255D01*
X005240Y005754D01*
X005223Y005754D01*
X005223Y006255D01*
X005191Y006255D01*
X005112Y006243D01*
X005035Y006218D01*
X004964Y006182D01*
X004899Y006134D01*
X004842Y006078D01*
X004795Y006013D01*
X004759Y005941D01*
X004734Y005865D01*
X004721Y005785D01*
X004721Y005754D01*
X005223Y005754D01*
X005223Y005737D01*
X004721Y005737D01*
X004721Y005705D01*
X004729Y005653D01*
X004510Y005872D01*
X004398Y005985D01*
X004277Y006035D01*
X004232Y006142D01*
X004172Y006203D01*
X004227Y006203D01*
X004344Y006251D01*
X004434Y006342D01*
X004483Y006459D01*
X004483Y007272D01*
X004553Y007342D01*
X004585Y007419D01*
X004603Y007437D01*
X004603Y007438D01*
X004713Y007438D01*
X004713Y008051D01*
X004713Y008051D01*
X004713Y007438D01*
X004855Y007438D01*
X004901Y007451D01*
X004942Y007474D01*
X004976Y007508D01*
X004999Y007549D01*
X005012Y007595D01*
X005012Y008051D01*
X004713Y008051D01*
X004713Y008051D01*
X005012Y008051D01*
X005012Y008311D01*
X005065Y008311D01*
X005255Y008122D01*
X005402Y008061D01*
X005442Y008061D01*
X005442Y007505D01*
X005491Y007387D01*
X005581Y007297D01*
X005684Y007254D01*
X005612Y007243D01*
X005535Y007218D01*
X005464Y007182D01*
X005399Y007134D01*
X005342Y007078D01*
X005295Y007013D01*
X005259Y006941D01*
X005234Y006865D01*
X005221Y006737D02*
X005221Y006705D01*
X005234Y006626D01*
X005259Y006550D01*
X005295Y006478D01*
X005342Y006413D01*
X005399Y006356D01*
X005464Y006309D01*
X005535Y006273D01*
X005612Y006248D01*
X005691Y006235D01*
X005723Y006235D01*
X005723Y006737D01*
X005221Y006737D01*
X005226Y006676D02*
X004483Y006676D01*
X004483Y006517D02*
X005275Y006517D01*
X005396Y006359D02*
X004442Y006359D01*
X004174Y006200D02*
X005001Y006200D01*
X005223Y006200D02*
X005240Y006200D01*
X005223Y006042D02*
X005240Y006042D01*
X005223Y005883D02*
X005240Y005883D01*
X005646Y006042D02*
X005650Y006042D01*
X005767Y006200D02*
X005461Y006200D01*
X005723Y006359D02*
X005740Y006359D01*
X005723Y006517D02*
X005740Y006517D01*
X005723Y006676D02*
X005740Y006676D01*
X005285Y006993D02*
X004483Y006993D01*
X004483Y007151D02*
X005422Y007151D01*
X005568Y007310D02*
X004521Y007310D01*
X004713Y007468D02*
X004713Y007468D01*
X004713Y007627D02*
X004713Y007627D01*
X004713Y007785D02*
X004713Y007785D01*
X004713Y007944D02*
X004713Y007944D01*
X005012Y007944D02*
X005442Y007944D01*
X005442Y007785D02*
X005012Y007785D01*
X005012Y007627D02*
X005442Y007627D01*
X005457Y007468D02*
X004932Y007468D01*
X005012Y008102D02*
X005301Y008102D01*
X005115Y008261D02*
X005012Y008261D01*
X005231Y008711D02*
X005481Y008461D01*
X006856Y008461D01*
X006981Y008586D01*
X006981Y008985D01*
X006999Y009003D01*
X007398Y009003D01*
X009231Y010836D02*
X009356Y010711D01*
X009231Y010836D02*
X008231Y010836D01*
X010244Y010638D02*
X010451Y010638D01*
X013338Y010106D02*
X013984Y010106D01*
X013998Y010112D01*
X014100Y010112D01*
X014100Y010123D01*
X014421Y010123D01*
X014421Y009968D01*
X014185Y009968D01*
X014101Y010052D01*
X014100Y010053D01*
X014100Y010095D01*
X013998Y010095D01*
X013984Y010101D01*
X013338Y010101D01*
X013338Y010106D01*
X014149Y010004D02*
X014421Y010004D01*
X014421Y009968D02*
X014576Y009968D01*
X014576Y009551D01*
X014751Y009551D01*
X014751Y009285D01*
X013907Y008441D01*
X013640Y008441D01*
X013737Y008537D01*
X013810Y008714D01*
X013810Y009106D01*
X013984Y009106D01*
X014101Y009155D01*
X014191Y009245D01*
X014240Y009363D01*
X014240Y009551D01*
X014421Y009551D01*
X014421Y009968D01*
X014421Y009846D02*
X014576Y009846D01*
X014576Y009687D02*
X014421Y009687D01*
X014240Y009529D02*
X014751Y009529D01*
X014751Y009370D02*
X014240Y009370D01*
X014158Y009212D02*
X014678Y009212D01*
X014520Y009053D02*
X013810Y009053D01*
X013810Y008895D02*
X014361Y008895D01*
X014203Y008736D02*
X013810Y008736D01*
X013753Y008578D02*
X014044Y008578D01*
X014927Y008102D02*
X018215Y008102D01*
X018215Y008261D02*
X015085Y008261D01*
X015244Y008419D02*
X018215Y008419D01*
X018215Y008578D02*
X015402Y008578D01*
X015561Y008736D02*
X018215Y008736D01*
X018215Y008895D02*
X015672Y008895D01*
X015711Y009053D02*
X018215Y009053D01*
X018215Y009212D02*
X015711Y009212D01*
X015711Y009370D02*
X018215Y009370D01*
X018215Y009529D02*
X015711Y009529D01*
X015711Y009687D02*
X018215Y009687D01*
X018215Y009846D02*
X015711Y009846D01*
X015711Y010004D02*
X018215Y010004D01*
X018215Y010163D02*
X015711Y010163D01*
X015711Y010321D02*
X018215Y010321D01*
X018215Y010480D02*
X017883Y010480D01*
X017862Y010459D02*
X017987Y010584D01*
X018055Y010747D01*
X018055Y010924D01*
X017987Y011088D01*
X017862Y011213D01*
X017699Y011281D01*
X017522Y011281D01*
X017358Y011213D01*
X017233Y011088D01*
X017165Y010924D01*
X017165Y010747D01*
X017233Y010584D01*
X017358Y010459D01*
X017522Y010391D01*
X017699Y010391D01*
X017862Y010459D01*
X018010Y010638D02*
X018215Y010638D01*
X018215Y010797D02*
X018055Y010797D01*
X018042Y010955D02*
X018215Y010955D01*
X018215Y011114D02*
X017961Y011114D01*
X017719Y011272D02*
X018215Y011272D01*
X018215Y011431D02*
X015440Y011431D01*
X015598Y011272D02*
X017501Y011272D01*
X017259Y011114D02*
X015687Y011114D01*
X015711Y010955D02*
X017178Y010955D01*
X017165Y010797D02*
X015711Y010797D01*
X015711Y010638D02*
X017210Y010638D01*
X017337Y010480D02*
X015711Y010480D01*
X014768Y007944D02*
X018215Y007944D01*
X018215Y007785D02*
X014610Y007785D01*
X014451Y007627D02*
X018215Y007627D01*
X012540Y006042D02*
X011156Y006042D01*
X011156Y005883D02*
X012474Y005883D01*
X012456Y005725D02*
X011156Y005725D01*
X011156Y005566D02*
X012462Y005566D01*
X012528Y005408D02*
X011156Y005408D01*
X011082Y005249D02*
X012648Y005249D01*
X012197Y006200D02*
X011135Y006200D01*
X011013Y006359D02*
X012048Y006359D01*
X011983Y006517D02*
X011103Y006517D01*
X011262Y006676D02*
X011956Y006676D01*
X011956Y006834D02*
X011420Y006834D01*
X011579Y006993D02*
X012019Y006993D01*
X008211Y007145D02*
X008180Y007114D01*
X008149Y007038D01*
X008120Y007078D01*
X008063Y007134D01*
X007998Y007182D01*
X007927Y007218D01*
X007851Y007243D01*
X007771Y007255D01*
X007740Y007255D01*
X007740Y006754D01*
X007723Y006754D01*
X007723Y007255D01*
X007691Y007255D01*
X007612Y007243D01*
X007535Y007218D01*
X007464Y007182D01*
X007399Y007134D01*
X007342Y007078D01*
X007295Y007013D01*
X007259Y006941D01*
X007234Y006865D01*
X007231Y006849D01*
X007229Y006865D01*
X007204Y006941D01*
X007167Y007013D01*
X007120Y007078D01*
X007063Y007134D01*
X006998Y007182D01*
X006927Y007218D01*
X006851Y007243D01*
X006815Y007248D01*
X007417Y007248D01*
X007535Y007297D01*
X007554Y007316D01*
X008211Y007316D01*
X008211Y007145D01*
X008211Y007151D02*
X008040Y007151D01*
X008211Y007310D02*
X007548Y007310D01*
X007422Y007151D02*
X007040Y007151D01*
X007177Y006993D02*
X007285Y006993D01*
X007221Y006737D02*
X006740Y006737D01*
X006740Y006754D01*
X007723Y006754D01*
X007723Y006737D01*
X007221Y006737D01*
X007723Y006834D02*
X007740Y006834D01*
X007723Y006993D02*
X007740Y006993D01*
X007723Y007151D02*
X007740Y007151D01*
X007231Y005336D02*
X007231Y005211D01*
X006731Y004711D01*
X004606Y004711D01*
X004231Y005086D01*
X002856Y005086D01*
X002731Y005211D01*
X002731Y005646D01*
X002731Y006812D01*
X002728Y006878D01*
X002728Y007208D01*
X002919Y007398D01*
X003544Y007398D01*
X003713Y007568D01*
X003713Y008051D01*
X002856Y008211D02*
X002856Y008586D01*
X003713Y009443D01*
X003713Y010099D01*
X003713Y010604D01*
X003606Y010711D01*
X003606Y010832D01*
X003396Y011042D01*
X002761Y010996D02*
X002761Y011433D01*
X000430Y011433D01*
X000430Y011431D02*
X002761Y011431D01*
X002761Y011272D02*
X000430Y011272D01*
X000430Y011114D02*
X002761Y011114D01*
X002761Y010996D02*
X002541Y010996D01*
X002541Y010579D01*
X002386Y010579D01*
X002386Y010996D01*
X002085Y010996D01*
X002040Y010984D01*
X001999Y010960D01*
X001965Y010927D01*
X001941Y010886D01*
X001929Y010840D01*
X001929Y010579D01*
X002386Y010579D01*
X002386Y010424D01*
X001929Y010424D01*
X001929Y010638D02*
X000430Y010638D01*
X000430Y010797D02*
X001929Y010797D01*
X001994Y010955D02*
X000430Y010955D01*
X000430Y010480D02*
X002386Y010480D01*
X002386Y010638D02*
X002541Y010638D01*
X002541Y010797D02*
X002386Y010797D01*
X002386Y010955D02*
X002541Y010955D01*
X002856Y008211D02*
X002606Y007961D01*
X002606Y007711D01*
X003606Y006211D02*
X003606Y005646D01*
X004171Y005646D01*
X004731Y005086D01*
X005981Y005086D01*
X006231Y005336D01*
X004816Y006042D02*
X004274Y006042D01*
X004499Y005883D02*
X004740Y005883D01*
X004721Y005725D02*
X004658Y005725D01*
X000430Y002079D02*
X018215Y002079D01*
X018215Y001921D02*
X000430Y001921D01*
X000430Y001762D02*
X002602Y001762D01*
X002647Y001781D02*
X002483Y001713D01*
X002358Y001588D01*
X002290Y001424D01*
X002290Y001247D01*
X002358Y001084D01*
X002483Y000959D01*
X002647Y000891D01*
X002824Y000891D01*
X002987Y000959D01*
X003112Y001084D01*
X003180Y001247D01*
X003180Y001424D01*
X003112Y001588D01*
X002987Y001713D01*
X002824Y001781D01*
X002647Y001781D01*
X002868Y001762D02*
X018215Y001762D01*
X018215Y001604D02*
X003096Y001604D01*
X003171Y001445D02*
X018215Y001445D01*
X018215Y001287D02*
X003180Y001287D01*
X003131Y001128D02*
X018215Y001128D01*
X018215Y000970D02*
X002998Y000970D01*
X002472Y000970D02*
X000430Y000970D01*
X000430Y001128D02*
X002339Y001128D01*
X002290Y001287D02*
X000430Y001287D01*
X000430Y001445D02*
X002299Y001445D01*
X002374Y001604D02*
X000430Y001604D01*
X000430Y000811D02*
X018215Y000811D01*
X015314Y002396D02*
X012398Y002396D01*
X012558Y002555D02*
X015155Y002555D01*
X015023Y002713D02*
X012689Y002713D01*
X012755Y002872D02*
X014958Y002872D01*
X014896Y003030D02*
X012816Y003030D01*
X012816Y003189D02*
X014896Y003189D01*
X014896Y003347D02*
X012816Y003347D01*
X012773Y003506D02*
X014939Y003506D01*
X015005Y003664D02*
X012707Y003664D01*
X012602Y003823D02*
X015111Y003823D01*
X015269Y003981D02*
X012443Y003981D01*
X012122Y004140D02*
X015590Y004140D01*
M02*
