G75*
%MOIN*%
%OFA0B0*%
%FSLAX24Y24*%
%IPPOS*%
%LPD*%
%AMOC8*
5,1,8,0,0,1.08239X$1,22.5*
%
%ADD10C,0.0040*%
%ADD11C,0.0660*%
%ADD12C,0.0160*%
%ADD13C,0.0396*%
%ADD14C,0.0400*%
D10*
X008316Y000721D02*
X008490Y000721D01*
X008576Y000808D01*
X008576Y000981D01*
X008490Y001068D01*
X008316Y001068D01*
X008229Y000981D01*
X008229Y000895D01*
X008576Y000895D01*
X008746Y001068D02*
X008832Y001068D01*
X009006Y000895D01*
X009175Y000895D02*
X009435Y000895D01*
X009522Y000808D01*
X009435Y000721D01*
X009175Y000721D01*
X009175Y000981D01*
X009261Y001068D01*
X009435Y001068D01*
X009690Y001068D02*
X009690Y000808D01*
X009777Y000721D01*
X009864Y000808D01*
X009950Y000721D01*
X010037Y000808D01*
X010037Y001068D01*
X010207Y001068D02*
X010381Y001068D01*
X010294Y001155D02*
X010294Y000808D01*
X010207Y000721D01*
X010638Y000721D02*
X010638Y001155D01*
X010551Y001242D01*
X010551Y000981D02*
X010725Y000981D01*
X010893Y000981D02*
X010893Y000808D01*
X010980Y000721D01*
X011154Y000721D01*
X011240Y000808D01*
X011240Y000981D01*
X011154Y001068D01*
X010980Y001068D01*
X010893Y000981D01*
X011409Y000895D02*
X011409Y000808D01*
X011496Y000721D01*
X011669Y000721D01*
X011756Y000808D01*
X011669Y000981D02*
X011496Y000981D01*
X011409Y000895D01*
X011669Y000981D02*
X011756Y001068D01*
X011756Y001155D01*
X011669Y001242D01*
X011496Y001242D01*
X011409Y001155D01*
X011432Y001721D02*
X011432Y002068D01*
X011606Y002242D01*
X011779Y002068D01*
X011779Y001721D01*
X011948Y001808D02*
X012035Y001721D01*
X012208Y001721D01*
X012295Y001808D01*
X012464Y001721D02*
X012637Y001895D01*
X012550Y001895D02*
X012811Y001895D01*
X012811Y001721D02*
X012811Y002242D01*
X012550Y002242D01*
X012464Y002155D01*
X012464Y001981D01*
X012550Y001895D01*
X012122Y001981D02*
X012035Y001981D01*
X011948Y001895D01*
X011948Y001808D01*
X012035Y001981D02*
X011948Y002068D01*
X011948Y002155D01*
X012035Y002242D01*
X012208Y002242D01*
X012295Y002155D01*
X011779Y001981D02*
X011432Y001981D01*
X011264Y001981D02*
X010917Y001981D01*
X010748Y002155D02*
X010661Y002242D01*
X010488Y002242D01*
X010401Y002155D01*
X010401Y002068D01*
X010748Y001721D01*
X010401Y001721D01*
X010233Y001808D02*
X009886Y002155D01*
X009886Y001808D01*
X009972Y001721D01*
X010146Y001721D01*
X010233Y001808D01*
X010233Y002155D01*
X010146Y002242D01*
X009972Y002242D01*
X009886Y002155D01*
X009717Y002068D02*
X009543Y002242D01*
X009543Y001721D01*
X009370Y001721D02*
X009717Y001721D01*
X009201Y001808D02*
X009114Y001721D01*
X008941Y001721D01*
X008854Y001808D01*
X008854Y001981D01*
X008941Y002068D01*
X009028Y002068D01*
X009201Y001981D01*
X009201Y002242D01*
X008854Y002242D01*
X009006Y001068D02*
X009006Y000721D01*
X012440Y000721D02*
X012440Y001068D01*
X012614Y001242D01*
X012787Y001068D01*
X012787Y000721D01*
X012956Y000721D02*
X012956Y001242D01*
X013303Y001242D02*
X012956Y000721D01*
X013303Y000721D02*
X013303Y001242D01*
X013472Y001242D02*
X013819Y001242D01*
X013645Y001242D02*
X013645Y000721D01*
X012787Y000981D02*
X012440Y000981D01*
D11*
X013106Y005711D03*
X014106Y005711D03*
X015106Y005711D03*
X014606Y006711D03*
X013606Y006711D03*
X012606Y006711D03*
X008731Y006745D03*
X007731Y006745D03*
X006731Y006745D03*
X005731Y006745D03*
X005231Y005745D03*
X006231Y005745D03*
X007231Y005745D03*
X008231Y005745D03*
D12*
X000430Y000656D02*
X000430Y011433D01*
X018215Y011433D01*
X018215Y000656D01*
X013985Y000656D01*
X013985Y000942D01*
X014011Y000953D01*
X014107Y001049D01*
X014159Y001174D01*
X014159Y001309D01*
X014107Y001434D01*
X014011Y001530D01*
X013886Y001582D01*
X013404Y001582D01*
X013387Y001575D01*
X013371Y001582D01*
X013336Y001582D01*
X013303Y001588D01*
X013269Y001582D01*
X013235Y001582D01*
X013204Y001568D01*
X013170Y001562D01*
X013142Y001543D01*
X013129Y001538D01*
X013107Y001547D01*
X013151Y001653D01*
X013151Y002309D01*
X013099Y002434D01*
X013003Y002530D01*
X012878Y002582D01*
X012584Y002582D01*
X012670Y002667D01*
X012816Y003020D01*
X012816Y003402D01*
X012670Y003755D01*
X012400Y004025D01*
X012047Y004171D01*
X011665Y004171D01*
X011312Y004025D01*
X011042Y003755D01*
X010896Y003402D01*
X010896Y003020D01*
X011042Y002667D01*
X011297Y002413D01*
X011240Y002356D01*
X011205Y002321D01*
X011047Y002321D01*
X011036Y002347D01*
X010950Y002434D01*
X010947Y002437D01*
X010854Y002530D01*
X010834Y002538D01*
X010729Y002582D01*
X010420Y002582D01*
X010317Y002539D01*
X010315Y002539D01*
X010213Y002582D01*
X009905Y002582D01*
X009780Y002530D01*
X009758Y002508D01*
X009736Y002530D01*
X009656Y002563D01*
X009795Y002702D01*
X009941Y003054D01*
X009941Y003436D01*
X009795Y003789D01*
X009525Y004059D01*
X009172Y004205D01*
X008790Y004205D01*
X008437Y004059D01*
X008167Y003789D01*
X008021Y003436D01*
X008021Y003054D01*
X008167Y002702D01*
X008437Y002431D01*
X008546Y002386D01*
X008514Y002309D01*
X008514Y002174D01*
X008540Y002111D01*
X008514Y002049D01*
X008514Y001740D01*
X008558Y001635D01*
X008566Y001615D01*
X008659Y001523D01*
X008662Y001520D01*
X008747Y001434D01*
X008748Y001433D01*
X008748Y001433D01*
X008799Y001412D01*
X008808Y001408D01*
X008678Y001408D01*
X008618Y001383D01*
X008557Y001408D01*
X008248Y001408D01*
X008123Y001356D01*
X008037Y001270D01*
X007941Y001174D01*
X007889Y001049D01*
X007889Y000827D01*
X007941Y000702D01*
X007976Y000667D01*
X007976Y000656D01*
X000430Y000656D01*
X000430Y000811D02*
X007896Y000811D01*
X007889Y000970D02*
X000430Y000970D01*
X000430Y001128D02*
X007922Y001128D01*
X008054Y001287D02*
X000430Y001287D01*
X000430Y001445D02*
X008736Y001445D01*
X008748Y001433D02*
X008748Y001433D01*
X008662Y001520D02*
X008662Y001520D01*
X008577Y001604D02*
X000430Y001604D01*
X000430Y001762D02*
X008514Y001762D01*
X008566Y001615D02*
X008566Y001615D01*
X008566Y001615D01*
X008514Y001921D02*
X000430Y001921D01*
X000430Y002079D02*
X008527Y002079D01*
X008514Y002238D02*
X000430Y002238D01*
X000430Y002396D02*
X004522Y002396D01*
X004437Y002431D02*
X004790Y002285D01*
X005172Y002285D01*
X005525Y002431D01*
X005795Y002702D01*
X005941Y003054D01*
X005941Y003436D01*
X005795Y003789D01*
X005525Y004059D01*
X005172Y004205D01*
X004790Y004205D01*
X004437Y004059D01*
X004167Y003789D01*
X004021Y003436D01*
X004021Y003054D01*
X004167Y002702D01*
X004437Y002431D01*
X004314Y002555D02*
X000430Y002555D01*
X000430Y002713D02*
X004162Y002713D01*
X004097Y002872D02*
X000430Y002872D01*
X000430Y003030D02*
X004031Y003030D01*
X004021Y003189D02*
X000430Y003189D01*
X000430Y003347D02*
X004021Y003347D01*
X004050Y003506D02*
X000430Y003506D01*
X000430Y003664D02*
X004116Y003664D01*
X004201Y003823D02*
X000430Y003823D01*
X000430Y003981D02*
X004360Y003981D01*
X004632Y004140D02*
X000430Y004140D01*
X000430Y004298D02*
X018215Y004298D01*
X018215Y004140D02*
X016122Y004140D01*
X016047Y004171D02*
X016400Y004025D01*
X016670Y003755D01*
X016816Y003402D01*
X016816Y003020D01*
X016670Y002667D01*
X016400Y002397D01*
X016047Y002251D01*
X015665Y002251D01*
X015312Y002397D01*
X015042Y002667D01*
X014896Y003020D01*
X014896Y003402D01*
X015042Y003755D01*
X015312Y004025D01*
X015665Y004171D01*
X016047Y004171D01*
X016443Y003981D02*
X018215Y003981D01*
X018215Y003823D02*
X016602Y003823D01*
X016707Y003664D02*
X018215Y003664D01*
X018215Y003506D02*
X016773Y003506D01*
X016816Y003347D02*
X018215Y003347D01*
X018215Y003189D02*
X016816Y003189D01*
X016816Y003030D02*
X018215Y003030D01*
X018215Y002872D02*
X016755Y002872D01*
X016689Y002713D02*
X018215Y002713D01*
X018215Y002555D02*
X016558Y002555D01*
X016398Y002396D02*
X018215Y002396D01*
X018215Y002238D02*
X013151Y002238D01*
X013151Y002079D02*
X018215Y002079D01*
X018215Y001921D02*
X013151Y001921D01*
X013151Y001762D02*
X018215Y001762D01*
X018215Y001604D02*
X013130Y001604D01*
X014096Y001445D02*
X018215Y001445D01*
X018215Y001287D02*
X014159Y001287D01*
X014140Y001128D02*
X018215Y001128D01*
X018215Y000970D02*
X014028Y000970D01*
X013985Y000811D02*
X018215Y000811D01*
X015314Y002396D02*
X013115Y002396D01*
X012943Y002555D02*
X015155Y002555D01*
X015023Y002713D02*
X012689Y002713D01*
X012755Y002872D02*
X014958Y002872D01*
X014896Y003030D02*
X012816Y003030D01*
X012816Y003189D02*
X014896Y003189D01*
X014896Y003347D02*
X012816Y003347D01*
X012773Y003506D02*
X014939Y003506D01*
X015005Y003664D02*
X012707Y003664D01*
X012602Y003823D02*
X015111Y003823D01*
X015269Y003981D02*
X012443Y003981D01*
X012122Y004140D02*
X015590Y004140D01*
X015235Y005061D02*
X014977Y005061D01*
X014738Y005160D01*
X014555Y005343D01*
X014524Y005418D01*
X014495Y005379D01*
X014438Y005322D01*
X014373Y005275D01*
X014302Y005238D01*
X014226Y005213D01*
X014146Y005201D01*
X014115Y005201D01*
X014115Y005702D01*
X014098Y005702D01*
X014098Y005201D01*
X014066Y005201D01*
X013987Y005213D01*
X013910Y005238D01*
X013839Y005275D01*
X013774Y005322D01*
X013717Y005379D01*
X013688Y005418D01*
X013657Y005343D01*
X013474Y005160D01*
X013235Y005061D01*
X012977Y005061D01*
X012738Y005160D01*
X012555Y005343D01*
X012456Y005582D01*
X012456Y005840D01*
X012548Y006061D01*
X012477Y006061D01*
X012238Y006160D01*
X012055Y006343D01*
X011956Y006582D01*
X011956Y006840D01*
X012055Y007079D01*
X012238Y007262D01*
X012477Y007361D01*
X012735Y007361D01*
X012974Y007262D01*
X013106Y007130D01*
X013238Y007262D01*
X013477Y007361D01*
X013735Y007361D01*
X013974Y007262D01*
X014106Y007130D01*
X014238Y007262D01*
X014477Y007361D01*
X014735Y007361D01*
X014974Y007262D01*
X015157Y007079D01*
X015256Y006840D01*
X015256Y006582D01*
X015165Y006361D01*
X015235Y006361D01*
X015474Y006262D01*
X015657Y006079D01*
X015756Y005840D01*
X015756Y005582D01*
X015657Y005343D01*
X015474Y005160D01*
X015235Y005061D01*
X015308Y005091D02*
X018215Y005091D01*
X018215Y005249D02*
X015564Y005249D01*
X015684Y005408D02*
X018215Y005408D01*
X018215Y005566D02*
X015750Y005566D01*
X015756Y005725D02*
X018215Y005725D01*
X018215Y005883D02*
X015738Y005883D01*
X015673Y006042D02*
X018215Y006042D01*
X018215Y006200D02*
X015536Y006200D01*
X015240Y006359D02*
X018215Y006359D01*
X018215Y006517D02*
X015230Y006517D01*
X015256Y006676D02*
X018215Y006676D01*
X018215Y006834D02*
X015256Y006834D01*
X015193Y006993D02*
X018215Y006993D01*
X018215Y007151D02*
X015085Y007151D01*
X014859Y007310D02*
X018215Y007310D01*
X018215Y007468D02*
X003067Y007468D01*
X003045Y007417D02*
X003006Y007378D01*
X003006Y006611D01*
X003273Y006611D01*
X003313Y006650D01*
X003503Y006729D01*
X003709Y006729D01*
X003900Y006650D01*
X004045Y006504D01*
X004124Y006314D01*
X004124Y006108D01*
X004045Y005917D01*
X003900Y005772D01*
X003709Y005693D01*
X003503Y005693D01*
X003313Y005772D01*
X003273Y005811D01*
X002652Y005811D01*
X002505Y005872D01*
X002380Y005997D01*
X002267Y006109D01*
X002206Y006256D01*
X002206Y007378D01*
X002167Y007417D01*
X002088Y007608D01*
X002088Y007814D01*
X002167Y008004D01*
X002313Y008150D01*
X002503Y008229D01*
X002709Y008229D01*
X002900Y008150D01*
X003045Y008004D01*
X003124Y007814D01*
X003124Y007608D01*
X003045Y007417D01*
X003006Y007310D02*
X008396Y007310D01*
X008363Y007296D02*
X008180Y007114D01*
X008149Y007038D01*
X008120Y007078D01*
X008063Y007134D01*
X007998Y007182D01*
X007927Y007218D01*
X007851Y007243D01*
X007771Y007255D01*
X007740Y007255D01*
X007740Y006754D01*
X007723Y006754D01*
X007723Y007255D01*
X007691Y007255D01*
X007612Y007243D01*
X007535Y007218D01*
X007464Y007182D01*
X007399Y007134D01*
X007342Y007078D01*
X007295Y007013D01*
X007259Y006941D01*
X007234Y006865D01*
X007231Y006849D01*
X007229Y006865D01*
X007204Y006941D01*
X007167Y007013D01*
X007120Y007078D01*
X007063Y007134D01*
X006998Y007182D01*
X006927Y007218D01*
X006851Y007243D01*
X006771Y007255D01*
X006740Y007255D01*
X006740Y006754D01*
X007723Y006754D01*
X007723Y006737D01*
X007221Y006737D01*
X006740Y006737D01*
X006740Y006754D01*
X006723Y006754D01*
X006723Y007255D01*
X006691Y007255D01*
X006612Y007243D01*
X006535Y007218D01*
X006464Y007182D01*
X006399Y007134D01*
X006342Y007078D01*
X006295Y007013D01*
X006259Y006941D01*
X006234Y006865D01*
X006231Y006849D01*
X006229Y006865D01*
X006204Y006941D01*
X006167Y007013D01*
X006120Y007078D01*
X006063Y007134D01*
X005998Y007182D01*
X005927Y007218D01*
X005851Y007243D01*
X005771Y007255D01*
X005740Y007255D01*
X005740Y006754D01*
X006241Y006754D01*
X006723Y006754D01*
X006723Y006737D01*
X005740Y006737D01*
X005740Y006754D01*
X005723Y006754D01*
X005723Y007255D01*
X005691Y007255D01*
X005612Y007243D01*
X005535Y007218D01*
X005464Y007182D01*
X005399Y007134D01*
X005342Y007078D01*
X005295Y007013D01*
X005259Y006941D01*
X005234Y006865D01*
X005221Y006785D01*
X005221Y006754D01*
X005723Y006754D01*
X005723Y006737D01*
X005740Y006737D01*
X005740Y006235D01*
X005771Y006235D01*
X005808Y006241D01*
X005680Y006114D01*
X005649Y006038D01*
X005620Y006078D01*
X005563Y006134D01*
X005498Y006182D01*
X005427Y006218D01*
X005351Y006243D01*
X005271Y006255D01*
X005240Y006255D01*
X005240Y005754D01*
X005223Y005754D01*
X005223Y006255D01*
X005191Y006255D01*
X005112Y006243D01*
X005035Y006218D01*
X004964Y006182D01*
X004899Y006134D01*
X004842Y006078D01*
X004795Y006013D01*
X004759Y005941D01*
X004734Y005865D01*
X004721Y005785D01*
X004721Y005754D01*
X005223Y005754D01*
X005223Y005737D01*
X005240Y005737D01*
X005240Y005235D01*
X005271Y005235D01*
X005351Y005248D01*
X005427Y005273D01*
X005498Y005309D01*
X005563Y005356D01*
X005620Y005413D01*
X005649Y005453D01*
X005680Y005377D01*
X005863Y005194D01*
X006102Y005095D01*
X006360Y005095D01*
X006599Y005194D01*
X006731Y005326D01*
X006863Y005194D01*
X007102Y005095D01*
X007360Y005095D01*
X007599Y005194D01*
X007731Y005326D01*
X007863Y005194D01*
X008102Y005095D01*
X008360Y005095D01*
X008591Y005191D01*
X008710Y005191D01*
X008901Y005270D01*
X008942Y005311D01*
X009148Y005311D01*
X009188Y005272D01*
X009378Y005193D01*
X009584Y005193D01*
X009775Y005272D01*
X009920Y005417D01*
X009999Y005608D01*
X009999Y005814D01*
X009920Y006004D01*
X009775Y006150D01*
X009584Y006229D01*
X009378Y006229D01*
X009188Y006150D01*
X009148Y006111D01*
X008942Y006111D01*
X008929Y006124D01*
X009099Y006194D01*
X009282Y006377D01*
X009381Y006616D01*
X009381Y006875D01*
X009282Y007114D01*
X009099Y007296D01*
X008860Y007395D01*
X008602Y007395D01*
X008363Y007296D01*
X008218Y007151D02*
X008040Y007151D01*
X007740Y007151D02*
X007723Y007151D01*
X007723Y006993D02*
X007740Y006993D01*
X007723Y006834D02*
X007740Y006834D01*
X007422Y007151D02*
X007040Y007151D01*
X007177Y006993D02*
X007285Y006993D01*
X006740Y006993D02*
X006723Y006993D01*
X006723Y007151D02*
X006740Y007151D01*
X006723Y006834D02*
X006740Y006834D01*
X006422Y007151D02*
X006040Y007151D01*
X006177Y006993D02*
X006285Y006993D01*
X005740Y006993D02*
X005723Y006993D01*
X005723Y007151D02*
X005740Y007151D01*
X005422Y007151D02*
X003006Y007151D01*
X003006Y006993D02*
X005285Y006993D01*
X005229Y006834D02*
X003006Y006834D01*
X003006Y006676D02*
X003375Y006676D01*
X003837Y006676D02*
X005226Y006676D01*
X005221Y006705D02*
X005234Y006626D01*
X005259Y006550D01*
X005295Y006478D01*
X005342Y006413D01*
X005399Y006356D01*
X005464Y006309D01*
X005535Y006273D01*
X005612Y006248D01*
X005691Y006235D01*
X005723Y006235D01*
X005723Y006737D01*
X005221Y006737D01*
X005221Y006705D01*
X005275Y006517D02*
X004032Y006517D01*
X004106Y006359D02*
X005396Y006359D01*
X005461Y006200D02*
X005767Y006200D01*
X005650Y006042D02*
X005646Y006042D01*
X005240Y006042D02*
X005223Y006042D01*
X005223Y005883D02*
X005240Y005883D01*
X005223Y005737D02*
X004721Y005737D01*
X004721Y005705D01*
X004734Y005626D01*
X004759Y005550D01*
X004795Y005478D01*
X004842Y005413D01*
X004899Y005356D01*
X004964Y005309D01*
X005035Y005273D01*
X005112Y005248D01*
X005191Y005235D01*
X005223Y005235D01*
X005223Y005737D01*
X005223Y005725D02*
X005240Y005725D01*
X005223Y005566D02*
X005240Y005566D01*
X005223Y005408D02*
X005240Y005408D01*
X005223Y005249D02*
X005240Y005249D01*
X005355Y005249D02*
X005808Y005249D01*
X005667Y005408D02*
X005615Y005408D01*
X005107Y005249D02*
X000430Y005249D01*
X000430Y005091D02*
X012904Y005091D01*
X013308Y005091D02*
X014904Y005091D01*
X014648Y005249D02*
X014324Y005249D01*
X014115Y005249D02*
X014098Y005249D01*
X014098Y005408D02*
X014115Y005408D01*
X014098Y005566D02*
X014115Y005566D01*
X013889Y005249D02*
X013564Y005249D01*
X013684Y005408D02*
X013696Y005408D01*
X014516Y005408D02*
X014528Y005408D01*
X012648Y005249D02*
X009721Y005249D01*
X009911Y005408D02*
X012528Y005408D01*
X012462Y005566D02*
X009982Y005566D01*
X009999Y005725D02*
X012456Y005725D01*
X012474Y005883D02*
X009971Y005883D01*
X009883Y006042D02*
X012540Y006042D01*
X012197Y006200D02*
X009653Y006200D01*
X009309Y006200D02*
X009105Y006200D01*
X009264Y006359D02*
X012048Y006359D01*
X011983Y006517D02*
X009340Y006517D01*
X009381Y006676D02*
X011956Y006676D01*
X011956Y006834D02*
X009381Y006834D01*
X009332Y006993D02*
X012019Y006993D01*
X012127Y007151D02*
X009244Y007151D01*
X009067Y007310D02*
X012354Y007310D01*
X012859Y007310D02*
X013354Y007310D01*
X013127Y007151D02*
X013085Y007151D01*
X013859Y007310D02*
X014354Y007310D01*
X014127Y007151D02*
X014085Y007151D01*
X010420Y009542D02*
X010275Y009397D01*
X010084Y009318D01*
X009878Y009318D01*
X009688Y009397D01*
X009648Y009436D01*
X008314Y009436D01*
X008275Y009397D01*
X008084Y009318D01*
X007878Y009318D01*
X007688Y009397D01*
X007542Y009542D01*
X007463Y009733D01*
X007463Y009939D01*
X007542Y010129D01*
X007688Y010275D01*
X007878Y010354D01*
X008084Y010354D01*
X008275Y010275D01*
X008314Y010236D01*
X009648Y010236D01*
X009688Y010275D01*
X009878Y010354D01*
X010084Y010354D01*
X010275Y010275D01*
X010420Y010129D01*
X010499Y009939D01*
X010499Y009733D01*
X010420Y009542D01*
X010407Y009529D02*
X018215Y009529D01*
X018215Y009687D02*
X010480Y009687D01*
X010499Y009846D02*
X018215Y009846D01*
X018215Y010004D02*
X010472Y010004D01*
X010387Y010163D02*
X018215Y010163D01*
X018215Y010321D02*
X010163Y010321D01*
X009799Y010321D02*
X008163Y010321D01*
X007799Y010321D02*
X000430Y010321D01*
X000430Y010163D02*
X007575Y010163D01*
X007490Y010004D02*
X000430Y010004D01*
X000430Y009846D02*
X007463Y009846D01*
X007482Y009687D02*
X000430Y009687D01*
X000430Y009529D02*
X007555Y009529D01*
X007751Y009370D02*
X000430Y009370D01*
X000430Y009212D02*
X018215Y009212D01*
X018215Y009053D02*
X000430Y009053D01*
X000430Y008895D02*
X018215Y008895D01*
X018215Y008736D02*
X000430Y008736D01*
X000430Y008578D02*
X018215Y008578D01*
X018215Y008419D02*
X000430Y008419D01*
X000430Y008261D02*
X018215Y008261D01*
X018215Y008102D02*
X002947Y008102D01*
X003070Y007944D02*
X018215Y007944D01*
X018215Y007785D02*
X003124Y007785D01*
X003124Y007627D02*
X018215Y007627D01*
X018215Y009370D02*
X010211Y009370D01*
X009751Y009370D02*
X008211Y009370D01*
X007981Y009836D02*
X009981Y009836D01*
X005740Y006834D02*
X005723Y006834D01*
X005723Y006676D02*
X005740Y006676D01*
X005723Y006517D02*
X005740Y006517D01*
X005723Y006359D02*
X005740Y006359D01*
X005240Y006200D02*
X005223Y006200D01*
X005001Y006200D02*
X004124Y006200D01*
X004097Y006042D02*
X004816Y006042D01*
X004740Y005883D02*
X004011Y005883D01*
X003787Y005725D02*
X004721Y005725D01*
X004753Y005566D02*
X000430Y005566D01*
X000430Y005408D02*
X004847Y005408D01*
X003426Y005725D02*
X000430Y005725D01*
X000430Y005883D02*
X002493Y005883D01*
X002334Y006042D02*
X000430Y006042D01*
X000430Y006200D02*
X002229Y006200D01*
X002206Y006359D02*
X000430Y006359D01*
X000430Y006517D02*
X002206Y006517D01*
X002206Y006676D02*
X000430Y006676D01*
X000430Y006834D02*
X002206Y006834D01*
X002206Y006993D02*
X000430Y006993D01*
X000430Y007151D02*
X002206Y007151D01*
X002206Y007310D02*
X000430Y007310D01*
X000430Y007468D02*
X002146Y007468D01*
X002088Y007627D02*
X000430Y007627D01*
X000430Y007785D02*
X002088Y007785D01*
X002142Y007944D02*
X000430Y007944D01*
X000430Y008102D02*
X002265Y008102D01*
X002606Y007711D02*
X002606Y006336D01*
X002731Y006211D01*
X003606Y006211D01*
X006654Y005249D02*
X006808Y005249D01*
X007654Y005249D02*
X007808Y005249D01*
X008606Y005711D02*
X009481Y005711D01*
X009241Y005249D02*
X008851Y005249D01*
X008632Y004140D02*
X005330Y004140D01*
X005603Y003981D02*
X008360Y003981D01*
X008201Y003823D02*
X005761Y003823D01*
X005847Y003664D02*
X008116Y003664D01*
X008050Y003506D02*
X005912Y003506D01*
X005941Y003347D02*
X008021Y003347D01*
X008021Y003189D02*
X005941Y003189D01*
X005931Y003030D02*
X008031Y003030D01*
X008097Y002872D02*
X005866Y002872D01*
X005800Y002713D02*
X008162Y002713D01*
X008314Y002555D02*
X005648Y002555D01*
X005440Y002396D02*
X008522Y002396D01*
X009675Y002555D02*
X009840Y002555D01*
X009800Y002713D02*
X011023Y002713D01*
X010958Y002872D02*
X009866Y002872D01*
X009931Y003030D02*
X010896Y003030D01*
X010896Y003189D02*
X009941Y003189D01*
X009941Y003347D02*
X010896Y003347D01*
X010939Y003506D02*
X009912Y003506D01*
X009847Y003664D02*
X011005Y003664D01*
X011111Y003823D02*
X009761Y003823D01*
X009603Y003981D02*
X011269Y003981D01*
X011590Y004140D02*
X009330Y004140D01*
X010278Y002555D02*
X010356Y002555D01*
X010793Y002555D02*
X011155Y002555D01*
X010854Y002530D02*
X010854Y002530D01*
X010854Y002530D01*
X010987Y002396D02*
X011280Y002396D01*
X018215Y004457D02*
X000430Y004457D01*
X000430Y004615D02*
X018215Y004615D01*
X018215Y004774D02*
X000430Y004774D01*
X000430Y004932D02*
X018215Y004932D01*
X018215Y010480D02*
X000430Y010480D01*
X000430Y010638D02*
X018215Y010638D01*
X018215Y010797D02*
X000430Y010797D01*
X000430Y010955D02*
X018215Y010955D01*
X018215Y011114D02*
X000430Y011114D01*
X000430Y011272D02*
X018215Y011272D01*
X018215Y011431D02*
X000430Y011431D01*
D13*
X002481Y011086D03*
X005481Y009711D03*
X007981Y009836D03*
X008106Y008961D03*
X009981Y009836D03*
X010981Y008836D03*
X009981Y007711D03*
X009481Y005711D03*
X003606Y006211D03*
X002606Y007711D03*
X009856Y011086D03*
X014481Y009461D03*
D14*
X008606Y005711D02*
X008572Y005745D01*
X008231Y005745D01*
M02*
