G75*
%MOIN*%
%OFA0B0*%
%FSLAX24Y24*%
%IPPOS*%
%LPD*%
%AMOC8*
5,1,8,0,0,1.08239X$1,22.5*
%
%ADD10C,0.0000*%
%ADD11C,0.0040*%
%ADD12C,0.0050*%
%ADD13C,0.0500*%
%ADD14C,0.0080*%
%ADD15C,0.0060*%
%ADD16C,0.0200*%
D10*
X000110Y000336D02*
X000110Y011753D01*
X018535Y011753D01*
X018535Y000336D01*
X000110Y000336D01*
X004341Y003245D02*
X004343Y003295D01*
X004349Y003345D01*
X004359Y003394D01*
X004372Y003443D01*
X004390Y003490D01*
X004411Y003536D01*
X004435Y003579D01*
X004463Y003621D01*
X004494Y003661D01*
X004528Y003698D01*
X004565Y003732D01*
X004605Y003763D01*
X004647Y003791D01*
X004690Y003815D01*
X004736Y003836D01*
X004783Y003854D01*
X004832Y003867D01*
X004881Y003877D01*
X004931Y003883D01*
X004981Y003885D01*
X005031Y003883D01*
X005081Y003877D01*
X005130Y003867D01*
X005179Y003854D01*
X005226Y003836D01*
X005272Y003815D01*
X005315Y003791D01*
X005357Y003763D01*
X005397Y003732D01*
X005434Y003698D01*
X005468Y003661D01*
X005499Y003621D01*
X005527Y003579D01*
X005551Y003536D01*
X005572Y003490D01*
X005590Y003443D01*
X005603Y003394D01*
X005613Y003345D01*
X005619Y003295D01*
X005621Y003245D01*
X005619Y003195D01*
X005613Y003145D01*
X005603Y003096D01*
X005590Y003047D01*
X005572Y003000D01*
X005551Y002954D01*
X005527Y002911D01*
X005499Y002869D01*
X005468Y002829D01*
X005434Y002792D01*
X005397Y002758D01*
X005357Y002727D01*
X005315Y002699D01*
X005272Y002675D01*
X005226Y002654D01*
X005179Y002636D01*
X005130Y002623D01*
X005081Y002613D01*
X005031Y002607D01*
X004981Y002605D01*
X004931Y002607D01*
X004881Y002613D01*
X004832Y002623D01*
X004783Y002636D01*
X004736Y002654D01*
X004690Y002675D01*
X004647Y002699D01*
X004605Y002727D01*
X004565Y002758D01*
X004528Y002792D01*
X004494Y002829D01*
X004463Y002869D01*
X004435Y002911D01*
X004411Y002954D01*
X004390Y003000D01*
X004372Y003047D01*
X004359Y003096D01*
X004349Y003145D01*
X004343Y003195D01*
X004341Y003245D01*
X008341Y003245D02*
X008343Y003295D01*
X008349Y003345D01*
X008359Y003394D01*
X008372Y003443D01*
X008390Y003490D01*
X008411Y003536D01*
X008435Y003579D01*
X008463Y003621D01*
X008494Y003661D01*
X008528Y003698D01*
X008565Y003732D01*
X008605Y003763D01*
X008647Y003791D01*
X008690Y003815D01*
X008736Y003836D01*
X008783Y003854D01*
X008832Y003867D01*
X008881Y003877D01*
X008931Y003883D01*
X008981Y003885D01*
X009031Y003883D01*
X009081Y003877D01*
X009130Y003867D01*
X009179Y003854D01*
X009226Y003836D01*
X009272Y003815D01*
X009315Y003791D01*
X009357Y003763D01*
X009397Y003732D01*
X009434Y003698D01*
X009468Y003661D01*
X009499Y003621D01*
X009527Y003579D01*
X009551Y003536D01*
X009572Y003490D01*
X009590Y003443D01*
X009603Y003394D01*
X009613Y003345D01*
X009619Y003295D01*
X009621Y003245D01*
X009619Y003195D01*
X009613Y003145D01*
X009603Y003096D01*
X009590Y003047D01*
X009572Y003000D01*
X009551Y002954D01*
X009527Y002911D01*
X009499Y002869D01*
X009468Y002829D01*
X009434Y002792D01*
X009397Y002758D01*
X009357Y002727D01*
X009315Y002699D01*
X009272Y002675D01*
X009226Y002654D01*
X009179Y002636D01*
X009130Y002623D01*
X009081Y002613D01*
X009031Y002607D01*
X008981Y002605D01*
X008931Y002607D01*
X008881Y002613D01*
X008832Y002623D01*
X008783Y002636D01*
X008736Y002654D01*
X008690Y002675D01*
X008647Y002699D01*
X008605Y002727D01*
X008565Y002758D01*
X008528Y002792D01*
X008494Y002829D01*
X008463Y002869D01*
X008435Y002911D01*
X008411Y002954D01*
X008390Y003000D01*
X008372Y003047D01*
X008359Y003096D01*
X008349Y003145D01*
X008343Y003195D01*
X008341Y003245D01*
X011216Y003211D02*
X011218Y003261D01*
X011224Y003311D01*
X011234Y003360D01*
X011247Y003409D01*
X011265Y003456D01*
X011286Y003502D01*
X011310Y003545D01*
X011338Y003587D01*
X011369Y003627D01*
X011403Y003664D01*
X011440Y003698D01*
X011480Y003729D01*
X011522Y003757D01*
X011565Y003781D01*
X011611Y003802D01*
X011658Y003820D01*
X011707Y003833D01*
X011756Y003843D01*
X011806Y003849D01*
X011856Y003851D01*
X011906Y003849D01*
X011956Y003843D01*
X012005Y003833D01*
X012054Y003820D01*
X012101Y003802D01*
X012147Y003781D01*
X012190Y003757D01*
X012232Y003729D01*
X012272Y003698D01*
X012309Y003664D01*
X012343Y003627D01*
X012374Y003587D01*
X012402Y003545D01*
X012426Y003502D01*
X012447Y003456D01*
X012465Y003409D01*
X012478Y003360D01*
X012488Y003311D01*
X012494Y003261D01*
X012496Y003211D01*
X012494Y003161D01*
X012488Y003111D01*
X012478Y003062D01*
X012465Y003013D01*
X012447Y002966D01*
X012426Y002920D01*
X012402Y002877D01*
X012374Y002835D01*
X012343Y002795D01*
X012309Y002758D01*
X012272Y002724D01*
X012232Y002693D01*
X012190Y002665D01*
X012147Y002641D01*
X012101Y002620D01*
X012054Y002602D01*
X012005Y002589D01*
X011956Y002579D01*
X011906Y002573D01*
X011856Y002571D01*
X011806Y002573D01*
X011756Y002579D01*
X011707Y002589D01*
X011658Y002602D01*
X011611Y002620D01*
X011565Y002641D01*
X011522Y002665D01*
X011480Y002693D01*
X011440Y002724D01*
X011403Y002758D01*
X011369Y002795D01*
X011338Y002835D01*
X011310Y002877D01*
X011286Y002920D01*
X011265Y002966D01*
X011247Y003013D01*
X011234Y003062D01*
X011224Y003111D01*
X011218Y003161D01*
X011216Y003211D01*
X015216Y003211D02*
X015218Y003261D01*
X015224Y003311D01*
X015234Y003360D01*
X015247Y003409D01*
X015265Y003456D01*
X015286Y003502D01*
X015310Y003545D01*
X015338Y003587D01*
X015369Y003627D01*
X015403Y003664D01*
X015440Y003698D01*
X015480Y003729D01*
X015522Y003757D01*
X015565Y003781D01*
X015611Y003802D01*
X015658Y003820D01*
X015707Y003833D01*
X015756Y003843D01*
X015806Y003849D01*
X015856Y003851D01*
X015906Y003849D01*
X015956Y003843D01*
X016005Y003833D01*
X016054Y003820D01*
X016101Y003802D01*
X016147Y003781D01*
X016190Y003757D01*
X016232Y003729D01*
X016272Y003698D01*
X016309Y003664D01*
X016343Y003627D01*
X016374Y003587D01*
X016402Y003545D01*
X016426Y003502D01*
X016447Y003456D01*
X016465Y003409D01*
X016478Y003360D01*
X016488Y003311D01*
X016494Y003261D01*
X016496Y003211D01*
X016494Y003161D01*
X016488Y003111D01*
X016478Y003062D01*
X016465Y003013D01*
X016447Y002966D01*
X016426Y002920D01*
X016402Y002877D01*
X016374Y002835D01*
X016343Y002795D01*
X016309Y002758D01*
X016272Y002724D01*
X016232Y002693D01*
X016190Y002665D01*
X016147Y002641D01*
X016101Y002620D01*
X016054Y002602D01*
X016005Y002589D01*
X015956Y002579D01*
X015906Y002573D01*
X015856Y002571D01*
X015806Y002573D01*
X015756Y002579D01*
X015707Y002589D01*
X015658Y002602D01*
X015611Y002620D01*
X015565Y002641D01*
X015522Y002665D01*
X015480Y002693D01*
X015440Y002724D01*
X015403Y002758D01*
X015369Y002795D01*
X015338Y002835D01*
X015310Y002877D01*
X015286Y002920D01*
X015265Y002966D01*
X015247Y003013D01*
X015234Y003062D01*
X015224Y003111D01*
X015218Y003161D01*
X015216Y003211D01*
D11*
X010723Y003990D02*
X010416Y003683D01*
X010416Y003606D01*
X010262Y003606D02*
X010109Y003759D01*
X010186Y003759D02*
X009955Y003759D01*
X009955Y003606D02*
X009955Y004066D01*
X010186Y004066D01*
X010262Y003990D01*
X010262Y003836D01*
X010186Y003759D01*
X010723Y003990D02*
X010723Y004066D01*
X010416Y004066D01*
X011918Y007588D02*
X012071Y007588D01*
X012148Y007665D01*
X012302Y007588D02*
X012609Y007588D01*
X012455Y007588D02*
X012455Y008049D01*
X012302Y007895D01*
X012148Y007972D02*
X012071Y008049D01*
X011918Y008049D01*
X011841Y007972D01*
X011841Y007665D01*
X011918Y007588D01*
X013320Y008075D02*
X013320Y008459D01*
X013626Y008459D02*
X013626Y008075D01*
X013550Y007999D01*
X013396Y007999D01*
X013320Y008075D01*
X013780Y007999D02*
X014087Y008306D01*
X014087Y008382D01*
X014010Y008459D01*
X013857Y008459D01*
X013780Y008382D01*
X013780Y007999D02*
X014087Y007999D01*
X015220Y010117D02*
X015527Y010117D01*
X015604Y010193D01*
X015604Y010347D01*
X015527Y010424D01*
X015604Y010577D02*
X015297Y010884D01*
X015220Y010884D01*
X015144Y010807D01*
X015144Y010654D01*
X015220Y010577D01*
X015220Y010424D02*
X015144Y010347D01*
X015144Y010193D01*
X015220Y010117D01*
X015604Y010577D02*
X015604Y010884D01*
X010336Y008796D02*
X009876Y008796D01*
X010106Y008566D01*
X010106Y008873D01*
X010259Y008413D02*
X010336Y008336D01*
X010336Y008183D01*
X010259Y008106D01*
X009953Y008106D01*
X009876Y008183D01*
X009876Y008336D01*
X009953Y008413D01*
X007979Y008299D02*
X007672Y008605D01*
X007595Y008605D01*
X007519Y008529D01*
X007519Y008375D01*
X007595Y008299D01*
X007595Y008145D02*
X007749Y008145D01*
X007825Y008068D01*
X007825Y007838D01*
X007979Y007838D02*
X007519Y007838D01*
X007519Y008068D01*
X007595Y008145D01*
X007825Y007992D02*
X007979Y008145D01*
X007979Y008299D02*
X007979Y008605D01*
X005632Y008536D02*
X005556Y008459D01*
X005632Y008536D02*
X005632Y008689D01*
X005556Y008766D01*
X005479Y008766D01*
X005402Y008689D01*
X005402Y008612D01*
X005402Y008689D02*
X005326Y008766D01*
X005249Y008766D01*
X005172Y008689D01*
X005172Y008536D01*
X005249Y008459D01*
X005249Y008306D02*
X005402Y008306D01*
X005479Y008229D01*
X005479Y007999D01*
X005479Y008152D02*
X005632Y008306D01*
X005632Y007999D02*
X005172Y007999D01*
X005172Y008229D01*
X005249Y008306D01*
X002693Y008154D02*
X002693Y008001D01*
X002617Y007924D01*
X002310Y007924D01*
X002233Y008001D01*
X002233Y008154D01*
X002310Y008231D01*
X002310Y008385D02*
X002233Y008461D01*
X002233Y008615D01*
X002310Y008692D01*
X002387Y008692D01*
X002463Y008615D01*
X002540Y008692D01*
X002617Y008692D01*
X002693Y008615D01*
X002693Y008461D01*
X002617Y008385D01*
X002617Y008231D02*
X002693Y008154D01*
X002463Y008538D02*
X002463Y008615D01*
X001100Y008329D02*
X000753Y008329D01*
X000579Y008156D01*
X000753Y007982D01*
X001100Y007982D01*
X001013Y007814D02*
X001100Y007727D01*
X001100Y007554D01*
X001013Y007467D01*
X000840Y007640D02*
X000840Y007727D01*
X000926Y007814D01*
X001013Y007814D01*
X000840Y007727D02*
X000753Y007814D01*
X000666Y007814D01*
X000579Y007727D01*
X000579Y007554D01*
X000666Y007467D01*
X000666Y007298D02*
X000840Y007298D01*
X000926Y007211D01*
X000926Y006951D01*
X001100Y006951D02*
X000579Y006951D01*
X000579Y007211D01*
X000666Y007298D01*
X000926Y007125D02*
X001100Y007298D01*
X001834Y007197D02*
X001834Y006890D01*
X002064Y006890D01*
X001987Y007044D01*
X001987Y007120D01*
X002064Y007197D01*
X002218Y007197D01*
X002294Y007120D01*
X002294Y006967D01*
X002218Y006890D01*
X002294Y006737D02*
X002141Y006583D01*
X002141Y006660D02*
X002141Y006430D01*
X002294Y006430D02*
X001834Y006430D01*
X001834Y006660D01*
X001911Y006737D01*
X002064Y006737D01*
X002141Y006660D01*
X001100Y006196D02*
X001100Y006022D01*
X001013Y005936D01*
X000840Y005936D01*
X000753Y006022D01*
X000753Y006196D01*
X000840Y006283D01*
X000926Y006283D01*
X000926Y005936D01*
X000753Y005766D02*
X000753Y005679D01*
X000926Y005506D01*
X000926Y005337D02*
X000926Y005077D01*
X001013Y004990D01*
X001100Y005077D01*
X001100Y005337D01*
X000840Y005337D01*
X000753Y005251D01*
X000753Y005077D01*
X000753Y004822D02*
X001013Y004822D01*
X001100Y004735D01*
X001013Y004648D01*
X001100Y004561D01*
X001013Y004475D01*
X000753Y004475D01*
X000753Y004304D02*
X000753Y004131D01*
X000666Y004218D02*
X001013Y004218D01*
X001100Y004304D01*
X000840Y003961D02*
X000840Y003787D01*
X000840Y003619D02*
X000753Y003532D01*
X000753Y003358D01*
X000840Y003272D01*
X001013Y003272D01*
X001100Y003358D01*
X001100Y003532D01*
X001013Y003619D01*
X000840Y003619D01*
X000666Y003874D02*
X000579Y003961D01*
X000666Y003874D02*
X001100Y003874D01*
X001013Y003103D02*
X001100Y003016D01*
X001100Y002843D01*
X001013Y002756D01*
X000840Y002843D02*
X000840Y003016D01*
X000926Y003103D01*
X001013Y003103D01*
X000666Y003103D02*
X000579Y003016D01*
X000579Y002843D01*
X000666Y002756D01*
X000753Y002756D01*
X000840Y002843D01*
X000840Y002072D02*
X000840Y001725D01*
X000753Y001725D02*
X000579Y001898D01*
X000753Y002072D01*
X001100Y002072D01*
X001100Y001725D02*
X000753Y001725D01*
X000579Y001556D02*
X001100Y001556D01*
X000579Y001209D01*
X001100Y001209D01*
X001100Y000867D02*
X000579Y000867D01*
X000579Y001040D02*
X000579Y000693D01*
X002501Y003231D02*
X002501Y003461D01*
X002578Y003538D01*
X002731Y003538D01*
X002808Y003461D01*
X002808Y003231D01*
X002961Y003231D02*
X002501Y003231D01*
X002808Y003384D02*
X002961Y003538D01*
X002731Y003691D02*
X002731Y003998D01*
X002961Y003921D02*
X002501Y003921D01*
X002731Y003691D01*
X003376Y003845D02*
X003836Y003845D01*
X003836Y003998D02*
X003836Y003691D01*
X003529Y003691D02*
X003376Y003845D01*
X003453Y003538D02*
X003376Y003461D01*
X003376Y003231D01*
X003836Y003231D01*
X003683Y003231D02*
X003683Y003461D01*
X003606Y003538D01*
X003453Y003538D01*
X003683Y003384D02*
X003836Y003538D01*
X001100Y005506D02*
X000753Y005506D01*
X000840Y007982D02*
X000840Y008329D01*
X000840Y008498D02*
X000840Y008845D01*
X000666Y009014D02*
X000579Y009101D01*
X000579Y009274D01*
X000666Y009361D01*
X000753Y009361D01*
X001100Y009014D01*
X001100Y009361D01*
X001013Y009529D02*
X000666Y009529D01*
X000579Y009616D01*
X000579Y009790D01*
X000666Y009876D01*
X001013Y009529D01*
X001100Y009616D01*
X001100Y009790D01*
X001013Y009876D01*
X000666Y009876D01*
X000753Y010045D02*
X000579Y010219D01*
X001100Y010219D01*
X001100Y010392D02*
X001100Y010045D01*
X001013Y010561D02*
X001100Y010647D01*
X001100Y010821D01*
X001013Y010908D01*
X000840Y010908D01*
X000753Y010821D01*
X000753Y010734D01*
X000840Y010561D01*
X000579Y010561D01*
X000579Y010908D01*
X004902Y010949D02*
X004902Y011410D01*
X005132Y011410D01*
X005208Y011333D01*
X005208Y011179D01*
X005132Y011103D01*
X004902Y011103D01*
X005055Y011103D02*
X005208Y010949D01*
X005362Y011026D02*
X005439Y010949D01*
X005592Y010949D01*
X005669Y011026D01*
X005669Y011103D01*
X005592Y011179D01*
X005362Y011179D01*
X005362Y011026D01*
X005362Y011179D02*
X005515Y011333D01*
X005669Y011410D01*
X005456Y010737D02*
X005456Y010430D01*
X005456Y010584D02*
X004996Y010584D01*
X005149Y010430D01*
X004996Y010277D02*
X005379Y010277D01*
X005456Y010200D01*
X005456Y010047D01*
X005379Y009970D01*
X004996Y009970D01*
X008485Y010895D02*
X008562Y010818D01*
X008715Y010818D01*
X008792Y010895D01*
X008792Y011279D01*
X008945Y011202D02*
X009022Y011279D01*
X009176Y011279D01*
X009252Y011202D01*
X009252Y011125D01*
X009176Y011049D01*
X009252Y010972D01*
X009252Y010895D01*
X009176Y010818D01*
X009022Y010818D01*
X008945Y010895D01*
X009099Y011049D02*
X009176Y011049D01*
X008485Y010895D02*
X008485Y011279D01*
D12*
X008292Y010650D02*
X009670Y010650D01*
X009670Y009272D01*
X008292Y009272D01*
X008292Y010650D01*
X011558Y011535D02*
X013133Y011535D01*
X013133Y009172D02*
X011558Y009172D01*
D13*
X013520Y008954D02*
X013522Y008964D01*
X013527Y008972D01*
X013535Y008977D01*
X013545Y008979D01*
X013555Y008977D01*
X013563Y008972D01*
X013568Y008964D01*
X013570Y008954D01*
X013568Y008944D01*
X013563Y008936D01*
X013555Y008931D01*
X013545Y008929D01*
X013535Y008931D01*
X013527Y008936D01*
X013522Y008944D01*
X013520Y008954D01*
D14*
X011149Y007266D02*
X011149Y000140D01*
X016564Y000140D01*
X016564Y007266D01*
X011149Y007266D01*
X009689Y007300D02*
X009689Y000174D01*
X004274Y000174D01*
X004274Y007300D01*
X009689Y007300D01*
D15*
X008634Y007541D02*
X008207Y007541D01*
X008634Y007968D01*
X008634Y008075D01*
X008527Y008181D01*
X008314Y008181D01*
X008207Y008075D01*
X007990Y008181D02*
X007776Y008181D01*
X007883Y008181D02*
X007883Y007648D01*
X007776Y007541D01*
X007669Y007541D01*
X007563Y007648D01*
X015222Y007648D02*
X015329Y007541D01*
X015436Y007541D01*
X015542Y007648D01*
X015542Y008181D01*
X015436Y008181D02*
X015649Y008181D01*
X015867Y007968D02*
X016080Y008181D01*
X016080Y007541D01*
X015867Y007541D02*
X016294Y007541D01*
D16*
X009931Y009461D02*
X009933Y009474D01*
X009938Y009487D01*
X009947Y009498D01*
X009958Y009505D01*
X009971Y009510D01*
X009984Y009511D01*
X009998Y009508D01*
X010010Y009502D01*
X010020Y009493D01*
X010027Y009481D01*
X010031Y009468D01*
X010031Y009454D01*
X010027Y009441D01*
X010020Y009429D01*
X010010Y009420D01*
X009998Y009414D01*
X009984Y009411D01*
X009971Y009412D01*
X009958Y009417D01*
X009947Y009424D01*
X009938Y009435D01*
X009933Y009448D01*
X009931Y009461D01*
M02*
