%
M48
M72
T01C0.0236
T02C0.0354
T03C0.1280
%
T01
X9481Y5711
X9981Y7711
X10981Y8836
X9981Y9836
X7981Y9836
X8106Y8961
X5481Y9711
X2481Y11086
X2606Y7711
X3606Y6211
X9856Y11086
X14481Y9461
T02
X14606Y6711
X13606Y6711
X12606Y6711
X13106Y5711
X14106Y5711
X15106Y5711
X8731Y6745
X7731Y6745
X6731Y6745
X5731Y6745
X5231Y5745
X6231Y5745
X7231Y5745
X8231Y5745
T03
X4981Y3245
X8981Y3245
X11856Y3211
X15856Y3211
M30
