G75*
%MOIN*%
%OFA0B0*%
%FSLAX24Y24*%
%IPPOS*%
%LPD*%
%AMOC8*
5,1,8,0,0,1.08239X$1,22.5*
%
%ADD10R,0.0710X0.0790*%
%ADD11R,0.0789X0.0710*%
%ADD12R,0.0710X0.0789*%
%ADD13C,0.0740*%
%ADD14C,0.0600*%
%ADD15C,0.0680*%
%ADD16R,0.0946X0.0316*%
%ADD17R,0.0790X0.0710*%
%ADD18C,0.1580*%
%ADD19C,0.1261*%
%ADD20C,0.1655*%
%ADD21C,0.0867*%
%ADD22R,0.0631X0.0474*%
%ADD23C,0.0630*%
%ADD24R,0.1261X0.0434*%
%ADD25R,0.0950X0.0320*%
%ADD26R,0.0848X0.1064*%
%ADD27R,0.0167X0.0474*%
%ADD28R,0.0474X0.0167*%
%ADD29R,0.0552X0.0631*%
%ADD30R,0.0631X0.0552*%
%ADD31C,0.0190*%
%ADD32R,0.0741X0.0741*%
%ADD33R,0.0434X0.0395*%
%ADD34R,0.0356X0.0356*%
%ADD35R,0.0580X0.0659*%
%ADD36R,0.0474X0.0789*%
%ADD37R,0.0926X0.2245*%
%ADD38R,0.0631X0.0237*%
%ADD39R,0.0828X0.0867*%
%ADD40R,0.0828X0.0946*%
%ADD41R,0.0237X0.0513*%
%ADD42C,0.0330*%
%ADD43C,0.0820*%
%ADD44C,0.1360*%
%ADD45R,0.0474X0.0631*%
%ADD46R,0.0513X0.0474*%
%ADD47C,0.0476*%
%ADD48C,0.0440*%
%ADD49C,0.1661*%
D10*
X028234Y015256D03*
X029354Y015256D03*
X040203Y020412D03*
X041323Y020412D03*
X041323Y021273D03*
X040203Y021273D03*
X044358Y022867D03*
X045478Y022867D03*
X041223Y025162D03*
X040103Y025162D03*
X040103Y026117D03*
X041223Y026117D03*
X041073Y030523D03*
X039953Y030523D03*
X042279Y031398D03*
X043398Y031398D03*
X043368Y032318D03*
X042248Y032318D03*
X042248Y033318D03*
X043368Y033318D03*
X057608Y028117D03*
X058728Y028117D03*
X062366Y027405D03*
X063485Y027405D03*
X063485Y026467D03*
X062366Y026467D03*
X062366Y025530D03*
X063485Y025530D03*
X063618Y019318D03*
X062498Y019318D03*
X063953Y016787D03*
X065073Y016787D03*
X067748Y015568D03*
X068868Y015568D03*
X046228Y017867D03*
X045108Y017867D03*
D11*
X053926Y021479D03*
X053926Y022581D03*
X048013Y022111D03*
X048013Y023213D03*
X046433Y026267D03*
X046433Y027369D03*
X040058Y028517D03*
X040058Y029619D03*
X052613Y031916D03*
X052613Y033019D03*
X052418Y034566D03*
X052418Y035668D03*
X058918Y035668D03*
X058918Y034566D03*
X059113Y033019D03*
X059113Y031916D03*
X058713Y026824D03*
X058713Y025721D03*
X062263Y023963D03*
X062263Y022861D03*
X059513Y019463D03*
X059513Y018361D03*
X056763Y018361D03*
X056763Y019463D03*
X045918Y038721D03*
X045918Y039824D03*
D12*
X041359Y033568D03*
X040257Y033568D03*
X040211Y032662D03*
X041314Y032662D03*
X049617Y032617D03*
X050719Y032617D03*
X056117Y032617D03*
X057219Y032617D03*
X062617Y032617D03*
X063719Y032617D03*
X065624Y033530D03*
X066727Y033530D03*
X066515Y034523D03*
X065412Y034523D03*
X065412Y035523D03*
X066515Y035523D03*
X066867Y038867D03*
X067969Y038867D03*
X043359Y026318D03*
X042257Y026318D03*
X054319Y024130D03*
X055422Y024130D03*
X067867Y019492D03*
X068969Y019492D03*
X070132Y017193D03*
X071234Y017193D03*
D13*
X030918Y033867D03*
X030918Y037867D03*
X041418Y035617D03*
X042418Y035617D03*
X043418Y035617D03*
X042918Y034617D03*
X041918Y034617D03*
X043918Y034617D03*
X047418Y034617D03*
X048418Y034617D03*
X049418Y034617D03*
X050418Y034617D03*
X049918Y035617D03*
X048918Y035617D03*
X047918Y035617D03*
X050918Y035617D03*
X053918Y034617D03*
X054918Y034617D03*
X055918Y034617D03*
X056918Y034617D03*
X056418Y035617D03*
X055418Y035617D03*
X054418Y035617D03*
X057418Y035617D03*
X060418Y034617D03*
X061418Y034617D03*
X062418Y034617D03*
X063418Y034617D03*
X062918Y035617D03*
X061918Y035617D03*
X060918Y035617D03*
X063918Y035617D03*
D14*
X037463Y027283D02*
X037463Y026763D01*
X037463Y024283D02*
X037463Y023763D01*
X037471Y023127D02*
X037471Y022607D01*
X037471Y020127D02*
X037471Y019607D01*
D15*
X050963Y025473D02*
X050963Y026073D01*
X051963Y026073D02*
X051963Y025473D01*
X052963Y025473D02*
X052963Y026073D01*
X053963Y026073D02*
X053963Y025473D01*
X054963Y025473D02*
X054963Y026073D01*
X055963Y026073D02*
X055963Y025473D01*
X071868Y025617D02*
X072468Y025617D01*
X072468Y024617D02*
X071868Y024617D01*
X071868Y023617D02*
X072468Y023617D01*
X072468Y022617D02*
X071868Y022617D01*
X071868Y027617D02*
X072468Y027617D01*
X072468Y028617D02*
X071868Y028617D01*
X071868Y029617D02*
X072468Y029617D01*
X072468Y030617D02*
X071868Y030617D01*
X071868Y032617D02*
X072468Y032617D01*
X072468Y033617D02*
X071868Y033617D01*
X071868Y034617D02*
X072468Y034617D01*
X072468Y035617D02*
X071868Y035617D01*
D16*
X063442Y031867D03*
X063442Y031367D03*
X063442Y030867D03*
X063442Y030367D03*
X061395Y030367D03*
X061395Y030867D03*
X061395Y031367D03*
X061395Y031867D03*
X056942Y031867D03*
X056942Y031367D03*
X056942Y030867D03*
X056942Y030367D03*
X054895Y030367D03*
X054895Y030867D03*
X054895Y031367D03*
X054895Y031867D03*
X050442Y031867D03*
X050442Y031367D03*
X050442Y030867D03*
X050442Y030367D03*
X048395Y030367D03*
X048395Y030867D03*
X048395Y031367D03*
X048395Y031867D03*
D17*
X047168Y031677D03*
X047418Y032557D03*
X047418Y033677D03*
X045918Y034158D03*
X045918Y035277D03*
X051668Y033427D03*
X053918Y033677D03*
X053918Y032557D03*
X053668Y031677D03*
X051668Y031427D03*
X051668Y032307D03*
X052613Y030777D03*
X051668Y030307D03*
X052613Y029658D03*
X053668Y030557D03*
X058168Y030307D03*
X059113Y030527D03*
X060168Y030557D03*
X058168Y031427D03*
X058168Y032307D03*
X060168Y031677D03*
X060668Y032557D03*
X060668Y033677D03*
X058168Y033427D03*
X064668Y033427D03*
X065613Y032527D03*
X064668Y032307D03*
X064668Y031427D03*
X065613Y031408D03*
X064668Y030307D03*
X069213Y028582D03*
X069213Y027463D03*
X070713Y027463D03*
X070713Y028582D03*
X070713Y032463D03*
X069213Y032463D03*
X069213Y033582D03*
X070713Y033582D03*
X059113Y029408D03*
X059563Y028222D03*
X059563Y027102D03*
X055426Y023340D03*
X055426Y022220D03*
X048713Y019082D03*
X048713Y017963D03*
X044263Y017852D03*
X044263Y018972D03*
X041043Y028508D03*
X041043Y029627D03*
X047168Y030557D03*
X069213Y023582D03*
X069213Y022463D03*
X070713Y022463D03*
X070713Y023582D03*
X070263Y019597D03*
X070263Y018477D03*
D18*
X027668Y024946D03*
X027668Y026914D03*
X027668Y028883D03*
X027668Y030851D03*
X027668Y032820D03*
X027668Y034788D03*
D19*
X033078Y037198D02*
X034259Y037198D01*
X037078Y037198D02*
X038259Y037198D01*
X038259Y028536D02*
X037078Y028536D01*
X034259Y028536D02*
X033078Y028536D01*
D20*
X028400Y036963D03*
X029562Y038814D03*
X027200Y038814D03*
D21*
X030521Y026154D03*
X030521Y023654D03*
X030440Y022054D03*
X030440Y019554D03*
X036440Y019054D03*
X036440Y022054D03*
X036521Y023154D03*
X036521Y026154D03*
D22*
X038280Y025773D03*
X039147Y026147D03*
X039147Y025399D03*
X039196Y021286D03*
X038330Y020912D03*
X039196Y020538D03*
D23*
X031068Y032092D02*
X031068Y032642D01*
X030268Y032642D02*
X030268Y032092D01*
D24*
X066434Y036367D03*
X066434Y036867D03*
X066434Y037367D03*
X066434Y037867D03*
X068402Y037867D03*
X068402Y037367D03*
X068402Y036867D03*
X068402Y036367D03*
D25*
X069088Y018818D03*
X069088Y018318D03*
X069088Y017818D03*
X069088Y017318D03*
X067028Y017318D03*
X067028Y017818D03*
X067028Y018318D03*
X067028Y018818D03*
D26*
X066769Y015617D03*
X065568Y015617D03*
D27*
X060534Y020554D03*
X060337Y020554D03*
X060141Y020554D03*
X059944Y020554D03*
X059747Y020554D03*
X059550Y020554D03*
X059353Y020554D03*
X059156Y020554D03*
X058960Y020554D03*
X058763Y020554D03*
X058566Y020554D03*
X058369Y020554D03*
X058172Y020554D03*
X057975Y020554D03*
X057778Y020554D03*
X057582Y020554D03*
X057582Y025082D03*
X057778Y025082D03*
X057975Y025082D03*
X058172Y025082D03*
X058369Y025082D03*
X058566Y025082D03*
X058763Y025082D03*
X058960Y025082D03*
X059156Y025082D03*
X059353Y025082D03*
X059550Y025082D03*
X059747Y025082D03*
X059944Y025082D03*
X060141Y025082D03*
X060337Y025082D03*
X060534Y025082D03*
D28*
X061322Y024294D03*
X061322Y024097D03*
X061322Y023900D03*
X061322Y023704D03*
X061322Y023507D03*
X061322Y023310D03*
X061322Y023113D03*
X061322Y022916D03*
X061322Y022719D03*
X061322Y022523D03*
X061322Y022326D03*
X061322Y022129D03*
X061322Y021932D03*
X061322Y021735D03*
X061322Y021538D03*
X061322Y021341D03*
X056794Y021341D03*
X056794Y021538D03*
X056794Y021735D03*
X056794Y021932D03*
X056794Y022129D03*
X056794Y022326D03*
X056794Y022523D03*
X056794Y022719D03*
X056794Y022916D03*
X056794Y023113D03*
X056794Y023310D03*
X056794Y023507D03*
X056794Y023704D03*
X056794Y023900D03*
X056794Y024097D03*
X056794Y024294D03*
D29*
X060467Y019318D03*
X061649Y019318D03*
D30*
X045463Y023932D03*
X045463Y025113D03*
D31*
X044509Y026580D02*
X044509Y026804D01*
X044312Y026804D02*
X044312Y026580D01*
X044115Y026580D02*
X044115Y026804D01*
X043918Y026804D02*
X043918Y026580D01*
X043745Y026977D02*
X043521Y026977D01*
X043521Y027174D02*
X043745Y027174D01*
X043745Y027371D02*
X043521Y027371D01*
X043521Y027568D02*
X043745Y027568D01*
X043918Y027741D02*
X043918Y027965D01*
X044115Y027965D02*
X044115Y027741D01*
X044312Y027741D02*
X044312Y027965D01*
X044509Y027965D02*
X044509Y027741D01*
X044682Y027568D02*
X044906Y027568D01*
X044906Y027371D02*
X044682Y027371D01*
X044682Y027174D02*
X044906Y027174D01*
X044906Y026977D02*
X044682Y026977D01*
D32*
X044213Y027273D03*
D33*
X043357Y018647D03*
X042530Y018273D03*
X043357Y017899D03*
D34*
X047099Y018023D03*
X047828Y018278D03*
X047828Y017767D03*
D35*
X041515Y018367D03*
X039822Y018367D03*
D36*
X039064Y018412D03*
X037961Y018412D03*
D37*
X042662Y024617D03*
X044174Y024617D03*
D38*
X027540Y017879D03*
X027540Y017623D03*
X027540Y017367D03*
X027540Y017111D03*
X027540Y016855D03*
D39*
X026418Y016875D03*
X026418Y017859D03*
D40*
X026418Y018942D03*
X026418Y015792D03*
D41*
X046580Y021887D03*
X046836Y021887D03*
X047091Y021887D03*
X047347Y021887D03*
X047347Y023658D03*
X047091Y023658D03*
X046836Y023658D03*
X046580Y023658D03*
D42*
X026991Y014452D03*
X070889Y040239D03*
D43*
X066058Y019568D03*
X065058Y019568D03*
X061668Y017867D03*
X060668Y017867D03*
D44*
X060168Y038117D03*
X057668Y038117D03*
X053668Y038117D03*
X051168Y038117D03*
X047168Y038117D03*
X044668Y038117D03*
X040668Y038117D03*
X064168Y038117D03*
D45*
X045237Y032784D03*
X044489Y032784D03*
X044863Y033650D03*
D46*
X045918Y036008D03*
X045918Y036677D03*
X045918Y037383D03*
X045918Y038052D03*
D47*
X049356Y037242D03*
X055668Y037305D03*
X062231Y037242D03*
X065293Y037680D03*
X067231Y035492D03*
X071731Y036430D03*
X067481Y033492D03*
X066363Y032717D03*
X061981Y032992D03*
X061363Y032342D03*
X059113Y031217D03*
X057231Y029742D03*
X056926Y029155D03*
X055801Y029155D03*
X053731Y029742D03*
X052613Y031342D03*
X054613Y032467D03*
X055481Y032992D03*
X052481Y033742D03*
X048981Y032992D03*
X048113Y032467D03*
X045426Y031655D03*
X044481Y031242D03*
X041363Y031717D03*
X045551Y033530D03*
X042481Y029242D03*
X044231Y028742D03*
X042356Y027492D03*
X039856Y027492D03*
X045231Y026992D03*
X045731Y026992D03*
X045731Y026492D03*
X045731Y025992D03*
X045231Y025992D03*
X045231Y026492D03*
X049238Y024967D03*
X056113Y023780D03*
X057356Y023492D03*
X057356Y022992D03*
X054668Y022242D03*
X053106Y022242D03*
X049231Y020992D03*
X046606Y019242D03*
X048356Y016492D03*
X051606Y016492D03*
X055106Y016492D03*
X055106Y014867D03*
X051606Y014867D03*
X048356Y014867D03*
X044606Y014867D03*
X041356Y014867D03*
X041356Y016492D03*
X044606Y016492D03*
X037856Y016492D03*
X037731Y017492D03*
X034106Y016492D03*
X031231Y017242D03*
X029981Y015742D03*
X027231Y015492D03*
X034106Y014867D03*
X037856Y014867D03*
X027981Y018992D03*
X039981Y022492D03*
X043481Y021742D03*
X050731Y028242D03*
X048606Y028367D03*
X058731Y027430D03*
X061418Y029867D03*
X065926Y030780D03*
X066988Y030780D03*
X068231Y029992D03*
X058981Y033742D03*
X062231Y024742D03*
X060356Y023992D03*
X059606Y022992D03*
X059356Y021742D03*
X063481Y021492D03*
X066981Y019680D03*
X071231Y017930D03*
X037731Y039492D03*
D48*
X048613Y032467D03*
X055113Y032467D03*
X061863Y032467D03*
X065613Y030280D03*
X066988Y030280D03*
X061363Y028217D03*
X058113Y028967D03*
X057613Y027467D03*
X057613Y027092D03*
X057613Y026717D03*
X057613Y026342D03*
X057488Y025592D03*
X058238Y024467D03*
X056176Y023280D03*
X057363Y022217D03*
X057863Y022217D03*
X057901Y021467D03*
X057113Y020280D03*
X056613Y020467D03*
X056176Y021380D03*
X056176Y021842D03*
X054926Y020617D03*
X054926Y020155D03*
X054926Y019655D03*
X055613Y018717D03*
X056113Y018467D03*
X060926Y020405D03*
X061426Y020155D03*
X060113Y021155D03*
X060113Y021780D03*
X064551Y021467D03*
X066176Y018342D03*
X067113Y016717D03*
X051113Y022967D03*
X050613Y022967D03*
X049113Y023467D03*
X049113Y023967D03*
X049113Y024467D03*
X041113Y024467D03*
X041113Y023217D03*
X055863Y027717D03*
X070113Y034717D03*
D49*
X072070Y039058D03*
X033487Y039058D03*
X027582Y021341D03*
X072070Y015436D03*
M02*
