%
M48
M72
T01C0.0200
T02C0.0236
T03C0.0320
T04C0.0354
T05C0.0394
T06C0.0400
T07C0.0440
T08C0.0551
T09C0.0591
T10C0.1063
T11C0.1181
T12C0.1280
%
T01
X54926Y19655
X54926Y20155
X54926Y20617
X56176Y21380
X56176Y21842
X57363Y22217
X57863Y22217
X57901Y21467
X57113Y20280
X56613Y20467
X60113Y21155
X60113Y21780
X60926Y20405
X61426Y20155
X64551Y21467
X66176Y18342
X67113Y16717
X56113Y18467
X55613Y18717
X51113Y22967
X50613Y22967
X49113Y23467
X49113Y23967
X49113Y24467
X56176Y23280
X58238Y24467
X57488Y25592
X57613Y26342
X57613Y26717
X57613Y27092
X57613Y27467
X55863Y27717
X58113Y28967
X61363Y28217
X65613Y30280
X66988Y30280
X61863Y32467
X55113Y32467
X48613Y32467
X41113Y24467
X41113Y23217
X70113Y34717
T02
X34106Y14867
X37856Y14867
X37856Y16492
X37731Y17492
X34106Y16492
X31231Y17242
X29981Y15742
X27231Y15492
X27981Y18992
X39981Y22492
X43481Y21742
X46606Y19242
X49231Y20992
X53106Y22242
X54668Y22242
X57356Y22992
X57356Y23492
X56113Y23780
X59606Y22992
X60356Y23992
X62231Y24742
X58731Y27430
X56926Y29155
X57231Y29742
X55801Y29155
X53731Y29742
X52613Y31342
X54613Y32467
X55481Y32992
X52481Y33742
X48981Y32992
X48113Y32467
X45426Y31655
X44481Y31242
X41363Y31717
X45551Y33530
X49356Y37242
X55668Y37305
X62231Y37242
X65293Y37680
X67231Y35492
X71731Y36430
X67481Y33492
X66363Y32717
X61981Y32992
X61363Y32342
X59113Y31217
X61418Y29867
X65926Y30780
X66988Y30780
X68231Y29992
X58981Y33742
X48606Y28367
X50731Y28242
X45731Y26992
X45731Y26492
X45731Y25992
X45231Y25992
X45231Y26492
X45231Y26992
X42356Y27492
X44231Y28742
X42481Y29242
X39856Y27492
X49238Y24967
X59356Y21742
X63481Y21492
X66981Y19680
X71231Y17930
X55106Y16492
X51606Y16492
X48356Y16492
X48356Y14867
X51606Y14867
X55106Y14867
X44606Y14867
X41356Y14867
X41356Y16492
X44606Y16492
X37731Y39492
T03
X31068Y32367
X30268Y32367
X37463Y27023
X37463Y24023
X37471Y22867
X37471Y19867
T04
X41918Y34617
X42918Y34617
X43918Y34617
X43418Y35617
X42418Y35617
X41418Y35617
X47418Y34617
X48418Y34617
X49418Y34617
X50418Y34617
X49918Y35617
X48918Y35617
X47918Y35617
X50918Y35617
X53918Y34617
X54918Y34617
X55918Y34617
X56918Y34617
X56418Y35617
X55418Y35617
X54418Y35617
X57418Y35617
X60418Y34617
X61418Y34617
X62418Y34617
X63418Y34617
X62918Y35617
X61918Y35617
X60918Y35617
X63918Y35617
T05
X36521Y26154
X30521Y26154
X30521Y23654
X30440Y22054
X30440Y19554
X36440Y19054
X36440Y22054
X36521Y23154
T06
X50963Y25773
X51963Y25773
X52963Y25773
X53963Y25773
X54963Y25773
X55963Y25773
X65058Y19568
X66058Y19568
X61668Y17867
X60668Y17867
X72168Y22617
X72168Y23617
X72168Y24617
X72168Y25617
X72168Y27617
X72168Y28617
X72168Y29617
X72168Y30617
X72168Y32617
X72168Y33617
X72168Y34617
X72168Y35617
T07
X30918Y33867
X30918Y37867
T08
X27668Y34788
X27668Y32820
X27668Y30851
X27668Y28883
X27668Y26914
X27668Y24946
T09
X33668Y28536
X37668Y28536
X37668Y37198
X33668Y37198
T10
X29562Y38814
X27200Y38814
X28400Y36963
T11
X33487Y39058
X72070Y39058
X27582Y21341
X72070Y15436
T12
X64168Y38117
X60168Y38117
X57668Y38117
X53668Y38117
X51168Y38117
X47168Y38117
X44668Y38117
X40668Y38117
M30
