G75*
%MOIN*%
%OFA0B0*%
%FSLAX24Y24*%
%IPPOS*%
%LPD*%
%AMOC8*
5,1,8,0,0,1.08239X$1,22.5*
%
%ADD10C,0.0000*%
%ADD11C,0.0040*%
%ADD12C,0.0030*%
%ADD13C,0.0100*%
%ADD14C,0.0060*%
%ADD15R,0.1000X0.0200*%
%ADD16R,0.0300X0.0750*%
%ADD17C,0.0050*%
%ADD18R,0.0800X0.0200*%
%ADD19R,0.0200X0.0250*%
%ADD20C,0.0020*%
%ADD21R,0.0450X0.0250*%
%ADD22R,0.1600X0.0250*%
%ADD23R,0.0200X0.4000*%
%ADD24C,0.0070*%
%ADD25C,0.0080*%
%ADD26C,0.0500*%
%ADD27C,0.0006*%
D10*
X025613Y013467D02*
X025613Y041026D01*
X074038Y041026D01*
X074038Y013467D01*
X025613Y013467D01*
X040028Y038117D02*
X040030Y038167D01*
X040036Y038217D01*
X040046Y038266D01*
X040059Y038315D01*
X040077Y038362D01*
X040098Y038408D01*
X040122Y038451D01*
X040150Y038493D01*
X040181Y038533D01*
X040215Y038570D01*
X040252Y038604D01*
X040292Y038635D01*
X040334Y038663D01*
X040377Y038687D01*
X040423Y038708D01*
X040470Y038726D01*
X040519Y038739D01*
X040568Y038749D01*
X040618Y038755D01*
X040668Y038757D01*
X040718Y038755D01*
X040768Y038749D01*
X040817Y038739D01*
X040866Y038726D01*
X040913Y038708D01*
X040959Y038687D01*
X041002Y038663D01*
X041044Y038635D01*
X041084Y038604D01*
X041121Y038570D01*
X041155Y038533D01*
X041186Y038493D01*
X041214Y038451D01*
X041238Y038408D01*
X041259Y038362D01*
X041277Y038315D01*
X041290Y038266D01*
X041300Y038217D01*
X041306Y038167D01*
X041308Y038117D01*
X041306Y038067D01*
X041300Y038017D01*
X041290Y037968D01*
X041277Y037919D01*
X041259Y037872D01*
X041238Y037826D01*
X041214Y037783D01*
X041186Y037741D01*
X041155Y037701D01*
X041121Y037664D01*
X041084Y037630D01*
X041044Y037599D01*
X041002Y037571D01*
X040959Y037547D01*
X040913Y037526D01*
X040866Y037508D01*
X040817Y037495D01*
X040768Y037485D01*
X040718Y037479D01*
X040668Y037477D01*
X040618Y037479D01*
X040568Y037485D01*
X040519Y037495D01*
X040470Y037508D01*
X040423Y037526D01*
X040377Y037547D01*
X040334Y037571D01*
X040292Y037599D01*
X040252Y037630D01*
X040215Y037664D01*
X040181Y037701D01*
X040150Y037741D01*
X040122Y037783D01*
X040098Y037826D01*
X040077Y037872D01*
X040059Y037919D01*
X040046Y037968D01*
X040036Y038017D01*
X040030Y038067D01*
X040028Y038117D01*
X044028Y038117D02*
X044030Y038167D01*
X044036Y038217D01*
X044046Y038266D01*
X044059Y038315D01*
X044077Y038362D01*
X044098Y038408D01*
X044122Y038451D01*
X044150Y038493D01*
X044181Y038533D01*
X044215Y038570D01*
X044252Y038604D01*
X044292Y038635D01*
X044334Y038663D01*
X044377Y038687D01*
X044423Y038708D01*
X044470Y038726D01*
X044519Y038739D01*
X044568Y038749D01*
X044618Y038755D01*
X044668Y038757D01*
X044718Y038755D01*
X044768Y038749D01*
X044817Y038739D01*
X044866Y038726D01*
X044913Y038708D01*
X044959Y038687D01*
X045002Y038663D01*
X045044Y038635D01*
X045084Y038604D01*
X045121Y038570D01*
X045155Y038533D01*
X045186Y038493D01*
X045214Y038451D01*
X045238Y038408D01*
X045259Y038362D01*
X045277Y038315D01*
X045290Y038266D01*
X045300Y038217D01*
X045306Y038167D01*
X045308Y038117D01*
X045306Y038067D01*
X045300Y038017D01*
X045290Y037968D01*
X045277Y037919D01*
X045259Y037872D01*
X045238Y037826D01*
X045214Y037783D01*
X045186Y037741D01*
X045155Y037701D01*
X045121Y037664D01*
X045084Y037630D01*
X045044Y037599D01*
X045002Y037571D01*
X044959Y037547D01*
X044913Y037526D01*
X044866Y037508D01*
X044817Y037495D01*
X044768Y037485D01*
X044718Y037479D01*
X044668Y037477D01*
X044618Y037479D01*
X044568Y037485D01*
X044519Y037495D01*
X044470Y037508D01*
X044423Y037526D01*
X044377Y037547D01*
X044334Y037571D01*
X044292Y037599D01*
X044252Y037630D01*
X044215Y037664D01*
X044181Y037701D01*
X044150Y037741D01*
X044122Y037783D01*
X044098Y037826D01*
X044077Y037872D01*
X044059Y037919D01*
X044046Y037968D01*
X044036Y038017D01*
X044030Y038067D01*
X044028Y038117D01*
X046528Y038117D02*
X046530Y038167D01*
X046536Y038217D01*
X046546Y038266D01*
X046559Y038315D01*
X046577Y038362D01*
X046598Y038408D01*
X046622Y038451D01*
X046650Y038493D01*
X046681Y038533D01*
X046715Y038570D01*
X046752Y038604D01*
X046792Y038635D01*
X046834Y038663D01*
X046877Y038687D01*
X046923Y038708D01*
X046970Y038726D01*
X047019Y038739D01*
X047068Y038749D01*
X047118Y038755D01*
X047168Y038757D01*
X047218Y038755D01*
X047268Y038749D01*
X047317Y038739D01*
X047366Y038726D01*
X047413Y038708D01*
X047459Y038687D01*
X047502Y038663D01*
X047544Y038635D01*
X047584Y038604D01*
X047621Y038570D01*
X047655Y038533D01*
X047686Y038493D01*
X047714Y038451D01*
X047738Y038408D01*
X047759Y038362D01*
X047777Y038315D01*
X047790Y038266D01*
X047800Y038217D01*
X047806Y038167D01*
X047808Y038117D01*
X047806Y038067D01*
X047800Y038017D01*
X047790Y037968D01*
X047777Y037919D01*
X047759Y037872D01*
X047738Y037826D01*
X047714Y037783D01*
X047686Y037741D01*
X047655Y037701D01*
X047621Y037664D01*
X047584Y037630D01*
X047544Y037599D01*
X047502Y037571D01*
X047459Y037547D01*
X047413Y037526D01*
X047366Y037508D01*
X047317Y037495D01*
X047268Y037485D01*
X047218Y037479D01*
X047168Y037477D01*
X047118Y037479D01*
X047068Y037485D01*
X047019Y037495D01*
X046970Y037508D01*
X046923Y037526D01*
X046877Y037547D01*
X046834Y037571D01*
X046792Y037599D01*
X046752Y037630D01*
X046715Y037664D01*
X046681Y037701D01*
X046650Y037741D01*
X046622Y037783D01*
X046598Y037826D01*
X046577Y037872D01*
X046559Y037919D01*
X046546Y037968D01*
X046536Y038017D01*
X046530Y038067D01*
X046528Y038117D01*
X050528Y038117D02*
X050530Y038167D01*
X050536Y038217D01*
X050546Y038266D01*
X050559Y038315D01*
X050577Y038362D01*
X050598Y038408D01*
X050622Y038451D01*
X050650Y038493D01*
X050681Y038533D01*
X050715Y038570D01*
X050752Y038604D01*
X050792Y038635D01*
X050834Y038663D01*
X050877Y038687D01*
X050923Y038708D01*
X050970Y038726D01*
X051019Y038739D01*
X051068Y038749D01*
X051118Y038755D01*
X051168Y038757D01*
X051218Y038755D01*
X051268Y038749D01*
X051317Y038739D01*
X051366Y038726D01*
X051413Y038708D01*
X051459Y038687D01*
X051502Y038663D01*
X051544Y038635D01*
X051584Y038604D01*
X051621Y038570D01*
X051655Y038533D01*
X051686Y038493D01*
X051714Y038451D01*
X051738Y038408D01*
X051759Y038362D01*
X051777Y038315D01*
X051790Y038266D01*
X051800Y038217D01*
X051806Y038167D01*
X051808Y038117D01*
X051806Y038067D01*
X051800Y038017D01*
X051790Y037968D01*
X051777Y037919D01*
X051759Y037872D01*
X051738Y037826D01*
X051714Y037783D01*
X051686Y037741D01*
X051655Y037701D01*
X051621Y037664D01*
X051584Y037630D01*
X051544Y037599D01*
X051502Y037571D01*
X051459Y037547D01*
X051413Y037526D01*
X051366Y037508D01*
X051317Y037495D01*
X051268Y037485D01*
X051218Y037479D01*
X051168Y037477D01*
X051118Y037479D01*
X051068Y037485D01*
X051019Y037495D01*
X050970Y037508D01*
X050923Y037526D01*
X050877Y037547D01*
X050834Y037571D01*
X050792Y037599D01*
X050752Y037630D01*
X050715Y037664D01*
X050681Y037701D01*
X050650Y037741D01*
X050622Y037783D01*
X050598Y037826D01*
X050577Y037872D01*
X050559Y037919D01*
X050546Y037968D01*
X050536Y038017D01*
X050530Y038067D01*
X050528Y038117D01*
X053028Y038117D02*
X053030Y038167D01*
X053036Y038217D01*
X053046Y038266D01*
X053059Y038315D01*
X053077Y038362D01*
X053098Y038408D01*
X053122Y038451D01*
X053150Y038493D01*
X053181Y038533D01*
X053215Y038570D01*
X053252Y038604D01*
X053292Y038635D01*
X053334Y038663D01*
X053377Y038687D01*
X053423Y038708D01*
X053470Y038726D01*
X053519Y038739D01*
X053568Y038749D01*
X053618Y038755D01*
X053668Y038757D01*
X053718Y038755D01*
X053768Y038749D01*
X053817Y038739D01*
X053866Y038726D01*
X053913Y038708D01*
X053959Y038687D01*
X054002Y038663D01*
X054044Y038635D01*
X054084Y038604D01*
X054121Y038570D01*
X054155Y038533D01*
X054186Y038493D01*
X054214Y038451D01*
X054238Y038408D01*
X054259Y038362D01*
X054277Y038315D01*
X054290Y038266D01*
X054300Y038217D01*
X054306Y038167D01*
X054308Y038117D01*
X054306Y038067D01*
X054300Y038017D01*
X054290Y037968D01*
X054277Y037919D01*
X054259Y037872D01*
X054238Y037826D01*
X054214Y037783D01*
X054186Y037741D01*
X054155Y037701D01*
X054121Y037664D01*
X054084Y037630D01*
X054044Y037599D01*
X054002Y037571D01*
X053959Y037547D01*
X053913Y037526D01*
X053866Y037508D01*
X053817Y037495D01*
X053768Y037485D01*
X053718Y037479D01*
X053668Y037477D01*
X053618Y037479D01*
X053568Y037485D01*
X053519Y037495D01*
X053470Y037508D01*
X053423Y037526D01*
X053377Y037547D01*
X053334Y037571D01*
X053292Y037599D01*
X053252Y037630D01*
X053215Y037664D01*
X053181Y037701D01*
X053150Y037741D01*
X053122Y037783D01*
X053098Y037826D01*
X053077Y037872D01*
X053059Y037919D01*
X053046Y037968D01*
X053036Y038017D01*
X053030Y038067D01*
X053028Y038117D01*
X057028Y038117D02*
X057030Y038167D01*
X057036Y038217D01*
X057046Y038266D01*
X057059Y038315D01*
X057077Y038362D01*
X057098Y038408D01*
X057122Y038451D01*
X057150Y038493D01*
X057181Y038533D01*
X057215Y038570D01*
X057252Y038604D01*
X057292Y038635D01*
X057334Y038663D01*
X057377Y038687D01*
X057423Y038708D01*
X057470Y038726D01*
X057519Y038739D01*
X057568Y038749D01*
X057618Y038755D01*
X057668Y038757D01*
X057718Y038755D01*
X057768Y038749D01*
X057817Y038739D01*
X057866Y038726D01*
X057913Y038708D01*
X057959Y038687D01*
X058002Y038663D01*
X058044Y038635D01*
X058084Y038604D01*
X058121Y038570D01*
X058155Y038533D01*
X058186Y038493D01*
X058214Y038451D01*
X058238Y038408D01*
X058259Y038362D01*
X058277Y038315D01*
X058290Y038266D01*
X058300Y038217D01*
X058306Y038167D01*
X058308Y038117D01*
X058306Y038067D01*
X058300Y038017D01*
X058290Y037968D01*
X058277Y037919D01*
X058259Y037872D01*
X058238Y037826D01*
X058214Y037783D01*
X058186Y037741D01*
X058155Y037701D01*
X058121Y037664D01*
X058084Y037630D01*
X058044Y037599D01*
X058002Y037571D01*
X057959Y037547D01*
X057913Y037526D01*
X057866Y037508D01*
X057817Y037495D01*
X057768Y037485D01*
X057718Y037479D01*
X057668Y037477D01*
X057618Y037479D01*
X057568Y037485D01*
X057519Y037495D01*
X057470Y037508D01*
X057423Y037526D01*
X057377Y037547D01*
X057334Y037571D01*
X057292Y037599D01*
X057252Y037630D01*
X057215Y037664D01*
X057181Y037701D01*
X057150Y037741D01*
X057122Y037783D01*
X057098Y037826D01*
X057077Y037872D01*
X057059Y037919D01*
X057046Y037968D01*
X057036Y038017D01*
X057030Y038067D01*
X057028Y038117D01*
X059528Y038117D02*
X059530Y038167D01*
X059536Y038217D01*
X059546Y038266D01*
X059559Y038315D01*
X059577Y038362D01*
X059598Y038408D01*
X059622Y038451D01*
X059650Y038493D01*
X059681Y038533D01*
X059715Y038570D01*
X059752Y038604D01*
X059792Y038635D01*
X059834Y038663D01*
X059877Y038687D01*
X059923Y038708D01*
X059970Y038726D01*
X060019Y038739D01*
X060068Y038749D01*
X060118Y038755D01*
X060168Y038757D01*
X060218Y038755D01*
X060268Y038749D01*
X060317Y038739D01*
X060366Y038726D01*
X060413Y038708D01*
X060459Y038687D01*
X060502Y038663D01*
X060544Y038635D01*
X060584Y038604D01*
X060621Y038570D01*
X060655Y038533D01*
X060686Y038493D01*
X060714Y038451D01*
X060738Y038408D01*
X060759Y038362D01*
X060777Y038315D01*
X060790Y038266D01*
X060800Y038217D01*
X060806Y038167D01*
X060808Y038117D01*
X060806Y038067D01*
X060800Y038017D01*
X060790Y037968D01*
X060777Y037919D01*
X060759Y037872D01*
X060738Y037826D01*
X060714Y037783D01*
X060686Y037741D01*
X060655Y037701D01*
X060621Y037664D01*
X060584Y037630D01*
X060544Y037599D01*
X060502Y037571D01*
X060459Y037547D01*
X060413Y037526D01*
X060366Y037508D01*
X060317Y037495D01*
X060268Y037485D01*
X060218Y037479D01*
X060168Y037477D01*
X060118Y037479D01*
X060068Y037485D01*
X060019Y037495D01*
X059970Y037508D01*
X059923Y037526D01*
X059877Y037547D01*
X059834Y037571D01*
X059792Y037599D01*
X059752Y037630D01*
X059715Y037664D01*
X059681Y037701D01*
X059650Y037741D01*
X059622Y037783D01*
X059598Y037826D01*
X059577Y037872D01*
X059559Y037919D01*
X059546Y037968D01*
X059536Y038017D01*
X059530Y038067D01*
X059528Y038117D01*
X063528Y038117D02*
X063530Y038167D01*
X063536Y038217D01*
X063546Y038266D01*
X063559Y038315D01*
X063577Y038362D01*
X063598Y038408D01*
X063622Y038451D01*
X063650Y038493D01*
X063681Y038533D01*
X063715Y038570D01*
X063752Y038604D01*
X063792Y038635D01*
X063834Y038663D01*
X063877Y038687D01*
X063923Y038708D01*
X063970Y038726D01*
X064019Y038739D01*
X064068Y038749D01*
X064118Y038755D01*
X064168Y038757D01*
X064218Y038755D01*
X064268Y038749D01*
X064317Y038739D01*
X064366Y038726D01*
X064413Y038708D01*
X064459Y038687D01*
X064502Y038663D01*
X064544Y038635D01*
X064584Y038604D01*
X064621Y038570D01*
X064655Y038533D01*
X064686Y038493D01*
X064714Y038451D01*
X064738Y038408D01*
X064759Y038362D01*
X064777Y038315D01*
X064790Y038266D01*
X064800Y038217D01*
X064806Y038167D01*
X064808Y038117D01*
X064806Y038067D01*
X064800Y038017D01*
X064790Y037968D01*
X064777Y037919D01*
X064759Y037872D01*
X064738Y037826D01*
X064714Y037783D01*
X064686Y037741D01*
X064655Y037701D01*
X064621Y037664D01*
X064584Y037630D01*
X064544Y037599D01*
X064502Y037571D01*
X064459Y037547D01*
X064413Y037526D01*
X064366Y037508D01*
X064317Y037495D01*
X064268Y037485D01*
X064218Y037479D01*
X064168Y037477D01*
X064118Y037479D01*
X064068Y037485D01*
X064019Y037495D01*
X063970Y037508D01*
X063923Y037526D01*
X063877Y037547D01*
X063834Y037571D01*
X063792Y037599D01*
X063752Y037630D01*
X063715Y037664D01*
X063681Y037701D01*
X063650Y037741D01*
X063622Y037783D01*
X063598Y037826D01*
X063577Y037872D01*
X063559Y037919D01*
X063546Y037968D01*
X063536Y038017D01*
X063530Y038067D01*
X063528Y038117D01*
D11*
X063884Y039887D02*
X064058Y039887D01*
X064145Y039974D01*
X063884Y039887D02*
X063798Y039974D01*
X063798Y040321D01*
X063884Y040407D01*
X064058Y040407D01*
X064145Y040321D01*
X063113Y040321D02*
X063113Y040147D01*
X063027Y040060D01*
X062766Y040060D01*
X062766Y039887D02*
X062766Y040407D01*
X063027Y040407D01*
X063113Y040321D01*
X062940Y040060D02*
X063113Y039887D01*
X062598Y039974D02*
X062598Y040321D01*
X062511Y040407D01*
X062337Y040407D01*
X062251Y040321D01*
X062251Y039974D01*
X062337Y039887D01*
X062511Y039887D01*
X062598Y039974D01*
X062082Y039974D02*
X061995Y039887D01*
X061822Y039887D01*
X061735Y039974D01*
X061566Y039887D02*
X061566Y040407D01*
X061735Y040321D02*
X061735Y040234D01*
X061822Y040147D01*
X061995Y040147D01*
X062082Y040060D01*
X062082Y039974D01*
X062082Y040321D02*
X061995Y040407D01*
X061822Y040407D01*
X061735Y040321D01*
X061566Y039887D02*
X061219Y040407D01*
X061219Y039887D01*
X061051Y039887D02*
X060704Y039887D01*
X060704Y040407D01*
X061051Y040407D01*
X060877Y040147D02*
X060704Y040147D01*
X060535Y040060D02*
X060535Y039974D01*
X060448Y039887D01*
X060275Y039887D01*
X060188Y039974D01*
X060275Y040147D02*
X060448Y040147D01*
X060535Y040060D01*
X060535Y040321D02*
X060448Y040407D01*
X060275Y040407D01*
X060188Y040321D01*
X060188Y040234D01*
X060275Y040147D01*
X057895Y040060D02*
X057895Y039974D01*
X057808Y039887D01*
X057548Y039887D01*
X057548Y040407D01*
X057808Y040407D01*
X057895Y040321D01*
X057895Y040234D01*
X057808Y040147D01*
X057548Y040147D01*
X057808Y040147D02*
X057895Y040060D01*
X056863Y040147D02*
X056777Y040060D01*
X056516Y040060D01*
X056516Y039887D02*
X056516Y040407D01*
X056777Y040407D01*
X056863Y040321D01*
X056863Y040147D01*
X056690Y040060D02*
X056863Y039887D01*
X056348Y039974D02*
X056348Y040321D01*
X056261Y040407D01*
X056087Y040407D01*
X056001Y040321D01*
X056001Y039974D01*
X056087Y039887D01*
X056261Y039887D01*
X056348Y039974D01*
X055832Y039974D02*
X055745Y039887D01*
X055572Y039887D01*
X055485Y039974D01*
X055316Y039887D02*
X055316Y040407D01*
X055485Y040321D02*
X055485Y040234D01*
X055572Y040147D01*
X055745Y040147D01*
X055832Y040060D01*
X055832Y039974D01*
X055832Y040321D02*
X055745Y040407D01*
X055572Y040407D01*
X055485Y040321D01*
X055316Y039887D02*
X054969Y040407D01*
X054969Y039887D01*
X054801Y039887D02*
X054454Y039887D01*
X054454Y040407D01*
X054801Y040407D01*
X054627Y040147D02*
X054454Y040147D01*
X054285Y040060D02*
X054285Y039974D01*
X054198Y039887D01*
X054025Y039887D01*
X053938Y039974D01*
X054025Y040147D02*
X054198Y040147D01*
X054285Y040060D01*
X054285Y040321D02*
X054198Y040407D01*
X054025Y040407D01*
X053938Y040321D01*
X053938Y040234D01*
X054025Y040147D01*
X051145Y040147D02*
X050798Y040147D01*
X050798Y040234D02*
X050971Y040407D01*
X051145Y040234D01*
X051145Y039887D01*
X050798Y039887D02*
X050798Y040234D01*
X050113Y040321D02*
X050113Y040147D01*
X050027Y040060D01*
X049766Y040060D01*
X049766Y039887D02*
X049766Y040407D01*
X050027Y040407D01*
X050113Y040321D01*
X049940Y040060D02*
X050113Y039887D01*
X049598Y039974D02*
X049598Y040321D01*
X049511Y040407D01*
X049337Y040407D01*
X049251Y040321D01*
X049251Y039974D01*
X049337Y039887D01*
X049511Y039887D01*
X049598Y039974D01*
X049082Y039974D02*
X048995Y039887D01*
X048822Y039887D01*
X048735Y039974D01*
X048566Y039887D02*
X048566Y040407D01*
X048735Y040321D02*
X048735Y040234D01*
X048822Y040147D01*
X048995Y040147D01*
X049082Y040060D01*
X049082Y039974D01*
X049082Y040321D02*
X048995Y040407D01*
X048822Y040407D01*
X048735Y040321D01*
X048566Y039887D02*
X048219Y040407D01*
X048219Y039887D01*
X048051Y039887D02*
X047704Y039887D01*
X047704Y040407D01*
X048051Y040407D01*
X047877Y040147D02*
X047704Y040147D01*
X047535Y040060D02*
X047448Y040147D01*
X047275Y040147D01*
X047188Y040234D01*
X047188Y040321D01*
X047275Y040407D01*
X047448Y040407D01*
X047535Y040321D01*
X047535Y040060D02*
X047535Y039974D01*
X047448Y039887D01*
X047275Y039887D01*
X047188Y039974D01*
X046345Y040418D02*
X046038Y040418D01*
X046192Y040418D02*
X046192Y040878D01*
X046038Y040724D01*
X045885Y040801D02*
X045808Y040878D01*
X045655Y040878D01*
X045578Y040801D01*
X045578Y040494D01*
X045655Y040418D01*
X045808Y040418D01*
X045885Y040494D01*
X045176Y040321D02*
X045176Y040147D01*
X045089Y040060D01*
X044829Y040060D01*
X044829Y039887D02*
X044829Y040407D01*
X045089Y040407D01*
X045176Y040321D01*
X045002Y040060D02*
X045176Y039887D01*
X044660Y039887D02*
X044313Y039887D01*
X044313Y040407D01*
X044660Y040407D01*
X044487Y040147D02*
X044313Y040147D01*
X044145Y040407D02*
X043798Y040407D01*
X043629Y040407D02*
X043282Y040407D01*
X043282Y039887D01*
X043629Y039887D01*
X043456Y040147D02*
X043282Y040147D01*
X043113Y040407D02*
X043113Y039887D01*
X042766Y039887D02*
X042766Y040407D01*
X042940Y040234D01*
X043113Y040407D01*
X042598Y040321D02*
X042598Y039974D01*
X042511Y039887D01*
X042337Y039887D01*
X042251Y039974D01*
X042251Y040321D01*
X042337Y040407D01*
X042511Y040407D01*
X042598Y040321D01*
X042082Y040407D02*
X042082Y039887D01*
X041735Y039887D02*
X041735Y040407D01*
X041909Y040234D01*
X042082Y040407D01*
X041566Y040407D02*
X041219Y040407D01*
X041219Y039887D01*
X041566Y039887D01*
X041393Y040147D02*
X041219Y040147D01*
X041051Y039887D02*
X041051Y040407D01*
X040704Y040407D02*
X040704Y039887D01*
X040535Y039887D02*
X040535Y040234D01*
X040362Y040407D01*
X040188Y040234D01*
X040188Y039887D01*
X040188Y040147D02*
X040535Y040147D01*
X040704Y040407D02*
X041051Y039887D01*
X043971Y039887D02*
X043971Y040407D01*
X038660Y038734D02*
X038660Y038387D01*
X038660Y038647D02*
X038313Y038647D01*
X038313Y038734D02*
X038487Y038907D01*
X038660Y038734D01*
X038313Y038734D02*
X038313Y038387D01*
X038145Y038474D02*
X038058Y038387D01*
X037884Y038387D01*
X037798Y038474D01*
X037627Y038474D02*
X037541Y038474D01*
X037541Y038387D01*
X037627Y038387D01*
X037627Y038474D01*
X037627Y038387D02*
X037454Y038214D01*
X037198Y038387D02*
X037025Y038387D01*
X036938Y038474D01*
X037285Y038821D01*
X037285Y038474D01*
X037198Y038387D01*
X036938Y038474D02*
X036938Y038821D01*
X037025Y038907D01*
X037198Y038907D01*
X037285Y038821D01*
X037798Y038907D02*
X037798Y038647D01*
X037971Y038734D01*
X038058Y038734D01*
X038145Y038647D01*
X038145Y038474D01*
X038145Y038907D02*
X037798Y038907D01*
X035270Y040240D02*
X035270Y040674D01*
X035009Y040674D01*
X034923Y040587D01*
X034923Y040414D01*
X035009Y040327D01*
X035270Y040327D01*
X035270Y040240D02*
X035183Y040154D01*
X035096Y040154D01*
X034754Y040327D02*
X034754Y040587D01*
X034667Y040674D01*
X034494Y040674D01*
X034494Y040500D02*
X034754Y040500D01*
X034754Y040327D02*
X034494Y040327D01*
X034407Y040414D01*
X034494Y040500D01*
X034237Y040327D02*
X034063Y040327D01*
X034150Y040327D02*
X034150Y040847D01*
X034063Y040847D01*
X033379Y040587D02*
X033379Y040500D01*
X033032Y040500D01*
X033032Y040414D02*
X033032Y040587D01*
X033119Y040674D01*
X033292Y040674D01*
X033379Y040587D01*
X033292Y040327D02*
X033119Y040327D01*
X033032Y040414D01*
X032863Y040327D02*
X032863Y040587D01*
X032776Y040674D01*
X032690Y040587D01*
X032690Y040327D01*
X032516Y040327D02*
X032516Y040674D01*
X032603Y040674D01*
X032690Y040587D01*
X032346Y040327D02*
X032172Y040327D01*
X032259Y040327D02*
X032259Y040674D01*
X032172Y040674D01*
X032002Y040674D02*
X031829Y040674D01*
X031915Y040761D02*
X031915Y040414D01*
X032002Y040327D01*
X032259Y040847D02*
X032259Y040934D01*
X031144Y040674D02*
X031144Y040327D01*
X031144Y040587D02*
X030797Y040587D01*
X030797Y040674D02*
X030971Y040847D01*
X031144Y040674D01*
X030797Y040674D02*
X030797Y040327D01*
X030629Y040327D02*
X030282Y040327D01*
X030629Y040674D01*
X030629Y040761D01*
X030542Y040847D01*
X030369Y040847D01*
X030282Y040761D01*
X030277Y040097D02*
X030451Y040097D01*
X030364Y040097D02*
X030364Y039664D01*
X030277Y039577D01*
X030190Y039577D01*
X030104Y039664D01*
X030619Y039664D02*
X030706Y039577D01*
X030880Y039577D01*
X030966Y039664D01*
X030966Y039750D01*
X030880Y039837D01*
X030793Y039837D01*
X030880Y039837D02*
X030966Y039924D01*
X030966Y040011D01*
X030880Y040097D01*
X030706Y040097D01*
X030619Y040011D01*
X044688Y037255D02*
X044688Y036948D01*
X044918Y036948D01*
X044841Y037101D01*
X044841Y037178D01*
X044918Y037255D01*
X045071Y037255D01*
X045148Y037178D01*
X045148Y037025D01*
X045071Y036948D01*
X045071Y036794D02*
X044765Y036794D01*
X044688Y036718D01*
X044688Y036487D01*
X045148Y036487D01*
X045148Y036718D01*
X045071Y036794D01*
X045071Y036380D02*
X044995Y036380D01*
X044918Y036303D01*
X044918Y036073D01*
X045071Y036073D01*
X045148Y036150D01*
X045148Y036303D01*
X045071Y036380D01*
X044765Y036226D02*
X044688Y036380D01*
X044765Y036226D02*
X044918Y036073D01*
X045071Y035919D02*
X044765Y035919D01*
X044688Y035843D01*
X044688Y035612D01*
X045148Y035612D01*
X045148Y035843D01*
X045071Y035919D01*
X045952Y033584D02*
X045875Y033507D01*
X045875Y033354D01*
X045952Y033277D01*
X046029Y033277D01*
X046105Y033354D01*
X046105Y033584D01*
X045952Y033584D02*
X046259Y033584D01*
X046336Y033507D01*
X046336Y033354D01*
X046259Y033277D01*
X046259Y033124D02*
X046336Y033047D01*
X046336Y032893D01*
X046259Y032817D01*
X046336Y032663D02*
X046182Y032510D01*
X046182Y032586D02*
X046182Y032356D01*
X046336Y032356D02*
X045875Y032356D01*
X045875Y032586D01*
X045952Y032663D01*
X046105Y032663D01*
X046182Y032586D01*
X045952Y032817D02*
X045875Y032893D01*
X045875Y033047D01*
X045952Y033124D01*
X046029Y033124D01*
X046105Y033047D01*
X046182Y033124D01*
X046259Y033124D01*
X046105Y033047D02*
X046105Y032970D01*
X046483Y032812D02*
X046713Y032582D01*
X046713Y032889D01*
X046943Y032812D02*
X046483Y032812D01*
X046560Y032429D02*
X046713Y032429D01*
X046790Y032352D01*
X046790Y032122D01*
X046790Y032275D02*
X046943Y032429D01*
X046943Y032122D02*
X046483Y032122D01*
X046483Y032352D01*
X046560Y032429D01*
X046446Y031615D02*
X046523Y031538D01*
X046523Y031385D01*
X046446Y031308D01*
X046140Y031615D01*
X046446Y031615D01*
X046140Y031615D02*
X046063Y031538D01*
X046063Y031385D01*
X046140Y031308D01*
X046446Y031308D01*
X046523Y031154D02*
X046523Y030847D01*
X046523Y030694D02*
X046370Y030540D01*
X046370Y030617D02*
X046370Y030387D01*
X046523Y030387D02*
X046063Y030387D01*
X046063Y030617D01*
X046140Y030694D01*
X046293Y030694D01*
X046370Y030617D01*
X046216Y030847D02*
X046063Y031001D01*
X046523Y031001D01*
X044900Y031737D02*
X044593Y031737D01*
X044440Y031737D02*
X044287Y031891D01*
X044440Y031814D02*
X044363Y031737D01*
X044210Y031737D01*
X044133Y031814D01*
X044133Y032121D01*
X044210Y032198D01*
X044363Y032198D01*
X044440Y032121D01*
X044440Y031814D01*
X044593Y032044D02*
X044747Y032198D01*
X044747Y031737D01*
X044692Y030736D02*
X044692Y030275D01*
X044845Y030275D02*
X044538Y030275D01*
X044523Y030128D02*
X044523Y029898D01*
X044677Y029974D01*
X044753Y029974D01*
X044830Y029898D01*
X044830Y029744D01*
X044753Y029668D01*
X044600Y029668D01*
X044523Y029744D01*
X044370Y029668D02*
X044216Y029821D01*
X044293Y029821D02*
X044063Y029821D01*
X044063Y029668D02*
X044063Y030128D01*
X044293Y030128D01*
X044370Y030051D01*
X044370Y029898D01*
X044293Y029821D01*
X044239Y029548D02*
X044009Y029548D01*
X044009Y029088D01*
X044009Y029241D02*
X044239Y029241D01*
X044316Y029318D01*
X044316Y029471D01*
X044239Y029548D01*
X044470Y029395D02*
X044623Y029548D01*
X044623Y029088D01*
X044470Y029088D02*
X044777Y029088D01*
X044930Y029088D02*
X045237Y029395D01*
X045237Y029471D01*
X045160Y029548D01*
X045007Y029548D01*
X044930Y029471D01*
X044930Y029088D02*
X045237Y029088D01*
X045118Y028448D02*
X045118Y028218D01*
X045271Y028295D01*
X045348Y028295D01*
X045424Y028218D01*
X045424Y028065D01*
X045348Y027988D01*
X045194Y027988D01*
X045118Y028065D01*
X044964Y028065D02*
X044964Y028448D01*
X045118Y028448D02*
X045424Y028448D01*
X044964Y028065D02*
X044887Y027988D01*
X044734Y027988D01*
X044657Y028065D01*
X044657Y028448D01*
X044316Y029088D02*
X044163Y029241D01*
X044523Y030128D02*
X044830Y030128D01*
X044385Y030275D02*
X044231Y030429D01*
X044308Y030429D02*
X044078Y030429D01*
X044078Y030275D02*
X044078Y030736D01*
X044308Y030736D01*
X044385Y030659D01*
X044385Y030505D01*
X044308Y030429D01*
X044538Y030582D02*
X044692Y030736D01*
X042961Y030768D02*
X042961Y030691D01*
X042654Y030384D01*
X042654Y030307D01*
X042500Y030307D02*
X042193Y030307D01*
X042040Y030307D02*
X041887Y030461D01*
X041963Y030461D02*
X041733Y030461D01*
X041733Y030307D02*
X041733Y030768D01*
X041963Y030768D01*
X042040Y030691D01*
X042040Y030537D01*
X041963Y030461D01*
X042193Y030614D02*
X042347Y030768D01*
X042347Y030307D01*
X042654Y030768D02*
X042961Y030768D01*
X040595Y031165D02*
X040595Y031241D01*
X040519Y031318D01*
X040288Y031318D01*
X040288Y031165D01*
X040365Y031088D01*
X040519Y031088D01*
X040595Y031165D01*
X040442Y031471D02*
X040288Y031318D01*
X040135Y031471D02*
X040058Y031548D01*
X039905Y031548D01*
X039828Y031471D01*
X039828Y031165D01*
X039905Y031088D01*
X040058Y031088D01*
X040135Y031165D01*
X040442Y031471D02*
X040595Y031548D01*
X040273Y031668D02*
X040273Y031744D01*
X040580Y032051D01*
X040580Y032128D01*
X040273Y032128D01*
X040120Y032051D02*
X040043Y032128D01*
X039889Y032128D01*
X039813Y032051D01*
X039813Y031744D01*
X039889Y031668D01*
X040043Y031668D01*
X040120Y031744D01*
X042015Y028472D02*
X041938Y028396D01*
X041938Y028089D01*
X042015Y028012D01*
X042168Y028012D01*
X042245Y028089D01*
X042399Y028012D02*
X042706Y028012D01*
X042552Y028012D02*
X042552Y028472D01*
X042399Y028319D01*
X042245Y028396D02*
X042168Y028472D01*
X042015Y028472D01*
X041461Y027863D02*
X041384Y027940D01*
X041307Y027940D01*
X041230Y027863D01*
X041230Y027633D01*
X041384Y027633D01*
X041461Y027710D01*
X041461Y027863D01*
X041230Y027633D02*
X041077Y027787D01*
X041000Y027940D01*
X040773Y027927D02*
X040773Y027620D01*
X040773Y027467D02*
X040773Y027160D01*
X040773Y027313D02*
X040313Y027313D01*
X040466Y027160D01*
X040390Y027006D02*
X040313Y026930D01*
X040313Y026776D01*
X040390Y026700D01*
X040696Y026700D01*
X040773Y026776D01*
X040773Y026930D01*
X040696Y027006D01*
X041000Y026943D02*
X041077Y027019D01*
X041230Y027019D01*
X041307Y026943D01*
X041307Y026712D01*
X041461Y026712D02*
X041000Y026712D01*
X041000Y026943D01*
X041154Y027173D02*
X041000Y027326D01*
X041461Y027326D01*
X041461Y027173D02*
X041461Y027480D01*
X040773Y027774D02*
X040313Y027774D01*
X040466Y027620D01*
X039052Y027097D02*
X039052Y026637D01*
X038899Y026637D02*
X039206Y026637D01*
X038899Y026944D02*
X039052Y027097D01*
X038745Y027097D02*
X038438Y027097D01*
X038592Y027097D02*
X038592Y026637D01*
X041307Y026866D02*
X041461Y027019D01*
X042859Y028089D02*
X042936Y028012D01*
X043089Y028012D01*
X043166Y028089D01*
X043166Y028165D01*
X043089Y028242D01*
X042859Y028242D01*
X042859Y028089D01*
X042859Y028242D02*
X043012Y028396D01*
X043166Y028472D01*
X047140Y027301D02*
X047140Y027148D01*
X047217Y027071D01*
X047140Y027301D02*
X047217Y027378D01*
X047294Y027378D01*
X047600Y027071D01*
X047600Y027378D01*
X047600Y026918D02*
X047600Y026611D01*
X047600Y026764D02*
X047140Y026764D01*
X047294Y026611D01*
X047217Y026457D02*
X047140Y026380D01*
X047140Y026227D01*
X047217Y026150D01*
X047524Y026150D01*
X047600Y026227D01*
X047600Y026380D01*
X047524Y026457D01*
X051133Y026646D02*
X051286Y026799D01*
X051133Y026953D01*
X051593Y026953D01*
X051516Y027106D02*
X051209Y027106D01*
X051133Y027183D01*
X051133Y027336D01*
X051209Y027413D01*
X051133Y027567D02*
X051593Y027567D01*
X051593Y027874D01*
X051593Y028027D02*
X051133Y028027D01*
X051133Y028257D01*
X051209Y028334D01*
X051363Y028334D01*
X051440Y028257D01*
X051440Y028027D01*
X051440Y028180D02*
X051593Y028334D01*
X051745Y028568D02*
X051745Y028799D01*
X051668Y028875D01*
X051515Y028875D01*
X051438Y028799D01*
X051438Y028568D01*
X051898Y028568D01*
X051745Y028722D02*
X051898Y028875D01*
X051898Y029029D02*
X051898Y029336D01*
X051898Y029489D02*
X051898Y029796D01*
X051898Y029643D02*
X051438Y029643D01*
X051591Y029489D01*
X051438Y029182D02*
X051898Y029182D01*
X051591Y029029D02*
X051438Y029182D01*
X051006Y029122D02*
X051006Y029429D01*
X051006Y029275D02*
X050546Y029275D01*
X050699Y029122D01*
X050622Y028968D02*
X050776Y028968D01*
X050853Y028892D01*
X050853Y028661D01*
X051006Y028661D02*
X050546Y028661D01*
X050546Y028892D01*
X050622Y028968D01*
X050853Y028815D02*
X051006Y028968D01*
X049956Y029514D02*
X049879Y029437D01*
X049725Y029437D01*
X049649Y029514D01*
X049495Y029514D02*
X049495Y029897D01*
X049649Y029821D02*
X049725Y029897D01*
X049879Y029897D01*
X049956Y029821D01*
X049956Y029744D01*
X049879Y029667D01*
X049956Y029590D01*
X049956Y029514D01*
X049879Y029667D02*
X049802Y029667D01*
X049495Y029514D02*
X049418Y029437D01*
X049265Y029437D01*
X049188Y029514D01*
X049188Y029897D01*
X050546Y029889D02*
X050546Y029582D01*
X050776Y029582D01*
X050699Y029736D01*
X050699Y029812D01*
X050776Y029889D01*
X050929Y029889D01*
X051006Y029812D01*
X051006Y029659D01*
X050929Y029582D01*
X052383Y029138D02*
X052383Y028985D01*
X052459Y028908D01*
X052766Y028908D01*
X052459Y029215D01*
X052766Y029215D01*
X052843Y029138D01*
X052843Y028985D01*
X052766Y028908D01*
X052613Y028755D02*
X052613Y028448D01*
X052383Y028678D01*
X052843Y028678D01*
X053188Y028637D02*
X053188Y028867D01*
X053265Y028944D01*
X053418Y028944D01*
X053495Y028867D01*
X053495Y028637D01*
X053648Y028637D02*
X053188Y028637D01*
X053495Y028790D02*
X053648Y028944D01*
X053571Y029097D02*
X053648Y029174D01*
X053648Y029328D01*
X053571Y029404D01*
X053495Y029404D01*
X053418Y029328D01*
X053418Y029097D01*
X053571Y029097D01*
X053418Y029097D02*
X053265Y029251D01*
X053188Y029404D01*
X053883Y029326D02*
X053883Y029096D01*
X054343Y029096D01*
X054190Y029096D02*
X054190Y029326D01*
X054113Y029403D01*
X053959Y029403D01*
X053883Y029326D01*
X053959Y029557D02*
X054266Y029557D01*
X054343Y029633D01*
X054343Y029787D01*
X054266Y029864D01*
X054113Y029864D01*
X054113Y029710D01*
X053959Y029557D02*
X053883Y029633D01*
X053883Y029787D01*
X053959Y029864D01*
X053883Y030017D02*
X053883Y030247D01*
X053959Y030324D01*
X054266Y030324D01*
X054343Y030247D01*
X054343Y030017D01*
X053883Y030017D01*
X054883Y030094D02*
X054959Y030017D01*
X055266Y030017D01*
X055343Y030094D01*
X055343Y030247D01*
X055266Y030324D01*
X054959Y030324D02*
X054883Y030247D01*
X054883Y030094D01*
X054959Y029864D02*
X054883Y029787D01*
X054883Y029633D01*
X054959Y029557D01*
X055266Y029557D01*
X055343Y029633D01*
X055343Y029787D01*
X055266Y029864D01*
X055113Y029864D01*
X055113Y029710D01*
X055113Y029403D02*
X055190Y029326D01*
X055190Y029096D01*
X055343Y029096D02*
X054883Y029096D01*
X054883Y029326D01*
X054959Y029403D01*
X055113Y029403D01*
X054883Y028943D02*
X055343Y028636D01*
X055697Y028548D02*
X055927Y028548D01*
X056004Y028471D01*
X056004Y028318D01*
X055927Y028241D01*
X055697Y028241D01*
X055697Y028088D02*
X055697Y028548D01*
X055850Y028241D02*
X056004Y028088D01*
X056157Y028165D02*
X056234Y028088D01*
X056387Y028088D01*
X056464Y028165D01*
X056464Y028241D01*
X056387Y028318D01*
X056311Y028318D01*
X056387Y028318D02*
X056464Y028395D01*
X056464Y028471D01*
X056387Y028548D01*
X056234Y028548D01*
X056157Y028471D01*
X056618Y028548D02*
X056618Y028318D01*
X056771Y028395D01*
X056848Y028395D01*
X056924Y028318D01*
X056924Y028165D01*
X056848Y028088D01*
X056694Y028088D01*
X056618Y028165D01*
X056618Y028548D02*
X056924Y028548D01*
X055343Y028176D02*
X055266Y028176D01*
X054959Y028482D01*
X054883Y028482D01*
X054883Y028176D01*
X054959Y028022D02*
X055036Y028022D01*
X055113Y027945D01*
X055190Y028022D01*
X055266Y028022D01*
X055343Y027945D01*
X055343Y027792D01*
X055266Y027715D01*
X055343Y027562D02*
X054883Y027562D01*
X054959Y027715D02*
X054883Y027792D01*
X054883Y027945D01*
X054959Y028022D01*
X055113Y027945D02*
X055113Y027869D01*
X055343Y027562D02*
X054883Y027255D01*
X055343Y027255D01*
X055343Y027101D02*
X055343Y026948D01*
X055343Y027025D02*
X054883Y027025D01*
X054883Y027101D02*
X054883Y026948D01*
X054959Y026794D02*
X055113Y026794D01*
X055190Y026718D01*
X055190Y026487D01*
X055343Y026487D02*
X054883Y026487D01*
X054883Y026718D01*
X054959Y026794D01*
X054343Y026948D02*
X054343Y027101D01*
X054343Y027025D02*
X053883Y027025D01*
X053883Y027101D02*
X053883Y026948D01*
X053959Y026794D02*
X054113Y026794D01*
X054190Y026718D01*
X054190Y026487D01*
X054343Y026487D02*
X053883Y026487D01*
X053883Y026718D01*
X053959Y026794D01*
X053883Y027255D02*
X054343Y027562D01*
X053883Y027562D01*
X053959Y027715D02*
X053883Y027792D01*
X053883Y027945D01*
X053959Y028022D01*
X054036Y028022D01*
X054113Y027945D01*
X054190Y028022D01*
X054266Y028022D01*
X054343Y027945D01*
X054343Y027792D01*
X054266Y027715D01*
X054113Y027869D02*
X054113Y027945D01*
X054190Y028176D02*
X054113Y028252D01*
X054113Y028406D01*
X054190Y028482D01*
X054266Y028482D01*
X054343Y028406D01*
X054343Y028252D01*
X054266Y028176D01*
X054190Y028176D01*
X054113Y028252D02*
X054036Y028176D01*
X053959Y028176D01*
X053883Y028252D01*
X053883Y028406D01*
X053959Y028482D01*
X054036Y028482D01*
X054113Y028406D01*
X054343Y028636D02*
X053883Y028943D01*
X052843Y028294D02*
X052690Y028141D01*
X052690Y028218D02*
X052690Y027987D01*
X052843Y027987D02*
X052383Y027987D01*
X052383Y028218D01*
X052459Y028294D01*
X052613Y028294D01*
X052690Y028218D01*
X052959Y027834D02*
X052883Y027757D01*
X052883Y027527D01*
X053343Y027527D01*
X053343Y027757D01*
X053266Y027834D01*
X052959Y027834D01*
X052883Y027374D02*
X053343Y027374D01*
X052883Y027067D01*
X053343Y027067D01*
X053266Y026913D02*
X053113Y026913D01*
X053113Y026760D01*
X053266Y026913D02*
X053343Y026836D01*
X053343Y026683D01*
X053266Y026606D01*
X052959Y026606D01*
X052883Y026683D01*
X052883Y026836D01*
X052959Y026913D01*
X052343Y026760D02*
X052190Y026913D01*
X051883Y026913D01*
X051959Y027067D02*
X052266Y027067D01*
X052343Y027143D01*
X052343Y027297D01*
X052266Y027374D01*
X052266Y027527D02*
X051959Y027527D01*
X051883Y027604D01*
X051883Y027757D01*
X051959Y027834D01*
X052266Y027834D02*
X052343Y027757D01*
X052343Y027604D01*
X052266Y027527D01*
X051959Y027374D02*
X051883Y027297D01*
X051883Y027143D01*
X051959Y027067D01*
X051593Y027183D02*
X051593Y027336D01*
X051516Y027413D01*
X051593Y027183D02*
X051516Y027106D01*
X051593Y026646D02*
X051133Y026646D01*
X051883Y026606D02*
X052190Y026606D01*
X052343Y026760D01*
X053883Y027255D02*
X054343Y027255D01*
X059282Y026375D02*
X059743Y026375D01*
X059743Y026222D02*
X059743Y026529D01*
X059436Y026222D02*
X059282Y026375D01*
X059359Y026068D02*
X059282Y025992D01*
X059282Y025838D01*
X059359Y025761D01*
X059359Y025608D02*
X059282Y025531D01*
X059282Y025378D01*
X059359Y025301D01*
X059666Y025301D01*
X059743Y025378D01*
X059743Y025531D01*
X059666Y025608D01*
X059743Y025761D02*
X059436Y026068D01*
X059359Y026068D01*
X059743Y026068D02*
X059743Y025761D01*
X060082Y026926D02*
X060082Y027156D01*
X060159Y027233D01*
X060312Y027233D01*
X060389Y027156D01*
X060389Y026926D01*
X060389Y027080D02*
X060543Y027233D01*
X060466Y027386D02*
X060543Y027463D01*
X060543Y027617D01*
X060466Y027693D01*
X060389Y027693D01*
X060312Y027617D01*
X060312Y027540D01*
X060312Y027617D02*
X060236Y027693D01*
X060159Y027693D01*
X060082Y027617D01*
X060082Y027463D01*
X060159Y027386D01*
X060082Y026926D02*
X060543Y026926D01*
X060466Y027847D02*
X060312Y027847D01*
X060312Y028077D01*
X060389Y028154D01*
X060466Y028154D01*
X060543Y028077D01*
X060543Y027924D01*
X060466Y027847D01*
X060312Y027847D02*
X060159Y028000D01*
X060082Y028154D01*
X060093Y028800D02*
X059633Y028800D01*
X059633Y029030D01*
X059709Y029107D01*
X059863Y029107D01*
X059940Y029030D01*
X059940Y028800D01*
X059940Y028953D02*
X060093Y029107D01*
X060188Y029137D02*
X060188Y029367D01*
X060265Y029444D01*
X060418Y029444D01*
X060495Y029367D01*
X060495Y029137D01*
X060648Y029137D02*
X060188Y029137D01*
X060495Y029290D02*
X060648Y029444D01*
X060571Y029597D02*
X060495Y029597D01*
X060418Y029674D01*
X060418Y029828D01*
X060495Y029904D01*
X060571Y029904D01*
X060648Y029828D01*
X060648Y029674D01*
X060571Y029597D01*
X060418Y029674D02*
X060341Y029597D01*
X060265Y029597D01*
X060188Y029674D01*
X060188Y029828D01*
X060265Y029904D01*
X060341Y029904D01*
X060418Y029828D01*
X060093Y029721D02*
X059786Y030028D01*
X059709Y030028D01*
X059633Y029951D01*
X059633Y029797D01*
X059709Y029721D01*
X059863Y029567D02*
X059863Y029260D01*
X059633Y029490D01*
X060093Y029490D01*
X060093Y029721D02*
X060093Y030028D01*
X058455Y029815D02*
X058455Y029739D01*
X058148Y029432D01*
X058148Y029355D01*
X057995Y029355D02*
X057841Y029508D01*
X057918Y029508D02*
X057688Y029508D01*
X057688Y029355D02*
X057688Y029815D01*
X057918Y029815D01*
X057995Y029739D01*
X057995Y029585D01*
X057918Y029508D01*
X058148Y029815D02*
X058455Y029815D01*
X056456Y029437D02*
X056149Y029437D01*
X056302Y029437D02*
X056302Y029897D01*
X056149Y029744D01*
X055995Y029897D02*
X055995Y029514D01*
X055918Y029437D01*
X055765Y029437D01*
X055688Y029514D01*
X055688Y029897D01*
X052459Y029215D02*
X052383Y029138D01*
X053111Y032106D02*
X053418Y032106D01*
X053495Y032183D01*
X053495Y032336D01*
X053418Y032413D01*
X053495Y032567D02*
X053188Y032874D01*
X053111Y032874D01*
X053034Y032797D01*
X053034Y032643D01*
X053111Y032567D01*
X053111Y032413D02*
X053034Y032336D01*
X053034Y032183D01*
X053111Y032106D01*
X053495Y032567D02*
X053495Y032874D01*
X053418Y033027D02*
X053264Y033027D01*
X053264Y033257D01*
X053341Y033334D01*
X053418Y033334D01*
X053495Y033257D01*
X053495Y033104D01*
X053418Y033027D01*
X053264Y033027D02*
X053111Y033180D01*
X053034Y033334D01*
X054438Y033407D02*
X054438Y033253D01*
X054515Y033177D01*
X054515Y033023D02*
X054668Y033023D01*
X054745Y032946D01*
X054745Y032716D01*
X054898Y032716D02*
X054438Y032716D01*
X054438Y032946D01*
X054515Y033023D01*
X054745Y032870D02*
X054898Y033023D01*
X054898Y033177D02*
X054591Y033484D01*
X054515Y033484D01*
X054438Y033407D01*
X054898Y033484D02*
X054898Y033177D01*
X055251Y033526D02*
X055327Y033450D01*
X055481Y033450D01*
X055558Y033526D01*
X055711Y033526D02*
X055711Y033603D01*
X055788Y033680D01*
X055941Y033680D01*
X056018Y033603D01*
X056018Y033526D01*
X055941Y033450D01*
X055788Y033450D01*
X055711Y033526D01*
X055788Y033680D02*
X055711Y033756D01*
X055711Y033833D01*
X055788Y033910D01*
X055941Y033910D01*
X056018Y033833D01*
X056018Y033756D01*
X055941Y033680D01*
X055558Y033833D02*
X055481Y033910D01*
X055327Y033910D01*
X055251Y033833D01*
X055251Y033526D01*
X056515Y033463D02*
X056515Y033923D01*
X056746Y033923D01*
X056822Y033846D01*
X056822Y033693D01*
X056746Y033616D01*
X056515Y033616D01*
X056669Y033616D02*
X056822Y033463D01*
X056976Y033463D02*
X057283Y033463D01*
X057129Y033463D02*
X057129Y033923D01*
X056976Y033770D01*
X057436Y033846D02*
X057513Y033923D01*
X057666Y033923D01*
X057743Y033846D01*
X057743Y033770D01*
X057666Y033693D01*
X057743Y033616D01*
X057743Y033540D01*
X057666Y033463D01*
X057513Y033463D01*
X057436Y033540D01*
X057590Y033693D02*
X057666Y033693D01*
X059633Y033257D02*
X059709Y033334D01*
X059786Y033334D01*
X059863Y033257D01*
X059863Y033104D01*
X059786Y033027D01*
X059709Y033027D01*
X059633Y033104D01*
X059633Y033257D01*
X059863Y033257D02*
X059940Y033334D01*
X060016Y033334D01*
X060093Y033257D01*
X060093Y033104D01*
X060016Y033027D01*
X059940Y033027D01*
X059863Y033104D01*
X059786Y032874D02*
X059709Y032874D01*
X059633Y032797D01*
X059633Y032643D01*
X059709Y032567D01*
X059709Y032413D02*
X059633Y032336D01*
X059633Y032183D01*
X059709Y032106D01*
X060016Y032106D01*
X060093Y032183D01*
X060093Y032336D01*
X060016Y032413D01*
X060093Y032567D02*
X059786Y032874D01*
X060093Y032874D02*
X060093Y032567D01*
X061125Y032716D02*
X061125Y032946D01*
X061202Y033023D01*
X061355Y033023D01*
X061432Y032946D01*
X061432Y032716D01*
X061432Y032870D02*
X061586Y033023D01*
X061509Y033177D02*
X061586Y033253D01*
X061586Y033407D01*
X061509Y033484D01*
X061432Y033484D01*
X061355Y033407D01*
X061355Y033330D01*
X061355Y033407D02*
X061279Y033484D01*
X061202Y033484D01*
X061125Y033407D01*
X061125Y033253D01*
X061202Y033177D01*
X061125Y032716D02*
X061586Y032716D01*
X061873Y033480D02*
X062026Y033480D01*
X062103Y033557D01*
X062256Y033557D02*
X062333Y033480D01*
X062487Y033480D01*
X062563Y033557D01*
X062563Y033864D01*
X062487Y033940D01*
X062333Y033940D01*
X062256Y033864D01*
X062256Y033787D01*
X062333Y033710D01*
X062563Y033710D01*
X062983Y033633D02*
X063214Y033633D01*
X063290Y033710D01*
X063290Y033864D01*
X063214Y033940D01*
X062983Y033940D01*
X062983Y033480D01*
X063137Y033633D02*
X063290Y033480D01*
X063444Y033480D02*
X063751Y033480D01*
X063597Y033480D02*
X063597Y033940D01*
X063444Y033787D01*
X063904Y033710D02*
X064211Y033710D01*
X064134Y033480D02*
X064134Y033940D01*
X063904Y033710D01*
X062103Y033864D02*
X062026Y033940D01*
X061873Y033940D01*
X061796Y033864D01*
X061796Y033557D01*
X061873Y033480D01*
X066195Y032374D02*
X066656Y032374D01*
X066656Y032221D02*
X066656Y032528D01*
X066641Y032550D02*
X066795Y032550D01*
X066871Y032627D01*
X067025Y032550D02*
X067332Y032857D01*
X067332Y032934D01*
X067255Y033010D01*
X067102Y033010D01*
X067025Y032934D01*
X066871Y032934D02*
X066795Y033010D01*
X066641Y033010D01*
X066564Y032934D01*
X066564Y032627D01*
X066641Y032550D01*
X067025Y032550D02*
X067332Y032550D01*
X067485Y032550D02*
X067485Y032627D01*
X067792Y032934D01*
X067792Y033010D01*
X067485Y033010D01*
X068233Y032983D02*
X068233Y032830D01*
X068310Y032753D01*
X068310Y032599D02*
X068463Y032599D01*
X068540Y032523D01*
X068540Y032293D01*
X068540Y032446D02*
X068693Y032599D01*
X068693Y032753D02*
X068387Y033060D01*
X068310Y033060D01*
X068233Y032983D01*
X068310Y033213D02*
X068387Y033213D01*
X068463Y033290D01*
X068463Y033520D01*
X068310Y033520D02*
X068233Y033444D01*
X068233Y033290D01*
X068310Y033213D01*
X068617Y033213D02*
X068693Y033290D01*
X068693Y033444D01*
X068617Y033520D01*
X068310Y033520D01*
X068693Y033060D02*
X068693Y032753D01*
X068310Y032599D02*
X068233Y032523D01*
X068233Y032293D01*
X068693Y032293D01*
X069733Y032355D02*
X069733Y032585D01*
X069810Y032662D01*
X069963Y032662D01*
X070040Y032585D01*
X070040Y032355D01*
X070193Y032355D02*
X069733Y032355D01*
X070040Y032508D02*
X070193Y032662D01*
X070117Y032815D02*
X070193Y032892D01*
X070193Y033046D01*
X070117Y033122D01*
X070040Y033122D01*
X069963Y033046D01*
X069963Y032969D01*
X069963Y033046D02*
X069887Y033122D01*
X069810Y033122D01*
X069733Y033046D01*
X069733Y032892D01*
X069810Y032815D01*
X069810Y033276D02*
X069733Y033353D01*
X069733Y033506D01*
X069810Y033583D01*
X069887Y033583D01*
X070193Y033276D01*
X070193Y033583D01*
X070688Y034239D02*
X070688Y034392D01*
X070688Y034315D02*
X071148Y034315D01*
X071148Y034239D02*
X071148Y034392D01*
X071148Y034545D02*
X070841Y034852D01*
X070765Y034852D01*
X070688Y034776D01*
X070688Y034622D01*
X070765Y034545D01*
X071148Y034545D02*
X071148Y034852D01*
X071071Y035006D02*
X071148Y035083D01*
X071148Y035236D01*
X071071Y035313D01*
X071225Y035466D02*
X071225Y035773D01*
X071148Y035927D02*
X070841Y035927D01*
X070688Y036080D01*
X070841Y036234D01*
X071148Y036234D01*
X070918Y036234D02*
X070918Y035927D01*
X070765Y035313D02*
X070688Y035236D01*
X070688Y035083D01*
X070765Y035006D01*
X071071Y035006D01*
X068806Y035327D02*
X068806Y035480D01*
X068729Y035557D01*
X068652Y035557D01*
X068499Y035480D01*
X068499Y035711D01*
X068806Y035711D01*
X068806Y035327D02*
X068729Y035250D01*
X068575Y035250D01*
X068499Y035327D01*
X068345Y035250D02*
X068038Y035250D01*
X068192Y035250D02*
X068192Y035711D01*
X068038Y035557D01*
X067885Y035634D02*
X067808Y035711D01*
X067655Y035711D01*
X067578Y035634D01*
X067578Y035327D01*
X067655Y035250D01*
X067808Y035250D01*
X067885Y035327D01*
X067730Y034753D02*
X067577Y034753D01*
X067500Y034676D01*
X067500Y034369D01*
X067577Y034293D01*
X067730Y034293D01*
X067807Y034369D01*
X067961Y034523D02*
X068267Y034523D01*
X068191Y034753D02*
X067961Y034523D01*
X067807Y034676D02*
X067730Y034753D01*
X068191Y034753D02*
X068191Y034293D01*
X066195Y032374D02*
X066349Y032221D01*
X066425Y032067D02*
X066425Y031760D01*
X066195Y031990D01*
X066656Y031990D01*
X066656Y031607D02*
X066502Y031453D01*
X066502Y031530D02*
X066502Y031300D01*
X066656Y031300D02*
X066195Y031300D01*
X066195Y031530D01*
X066272Y031607D01*
X066425Y031607D01*
X066502Y031530D01*
X062706Y030071D02*
X062629Y030147D01*
X062475Y030147D01*
X062399Y030071D01*
X062245Y030147D02*
X062245Y029764D01*
X062168Y029687D01*
X062015Y029687D01*
X061938Y029764D01*
X061938Y030147D01*
X062399Y029687D02*
X062706Y029994D01*
X062706Y030071D01*
X062706Y029687D02*
X062399Y029687D01*
X064438Y029640D02*
X064438Y029487D01*
X064515Y029410D01*
X064591Y029410D01*
X064668Y029487D01*
X064668Y029717D01*
X064821Y029717D02*
X064515Y029717D01*
X064438Y029640D01*
X064821Y029717D02*
X064898Y029640D01*
X064898Y029487D01*
X064821Y029410D01*
X064898Y029256D02*
X064745Y029103D01*
X064745Y029180D02*
X064745Y028950D01*
X064898Y028950D02*
X064438Y028950D01*
X064438Y029180D01*
X064515Y029256D01*
X064668Y029256D01*
X064745Y029180D01*
X067233Y028694D02*
X067310Y028770D01*
X067387Y028770D01*
X067463Y028694D01*
X067540Y028770D01*
X067617Y028770D01*
X067693Y028694D01*
X067693Y028540D01*
X067617Y028463D01*
X067617Y028310D02*
X067693Y028233D01*
X067693Y028080D01*
X067617Y028003D01*
X067693Y027849D02*
X067540Y027696D01*
X067540Y027773D02*
X067540Y027543D01*
X067693Y027543D02*
X067233Y027543D01*
X067233Y027773D01*
X067310Y027849D01*
X067463Y027849D01*
X067540Y027773D01*
X067310Y028003D02*
X067233Y028080D01*
X067233Y028233D01*
X067310Y028310D01*
X067387Y028310D01*
X067463Y028233D01*
X067540Y028310D01*
X067617Y028310D01*
X067463Y028233D02*
X067463Y028156D01*
X067310Y028463D02*
X067233Y028540D01*
X067233Y028694D01*
X067463Y028694D02*
X067463Y028617D01*
X067983Y028694D02*
X068060Y028770D01*
X068367Y028463D01*
X068443Y028540D01*
X068443Y028694D01*
X068367Y028770D01*
X068060Y028770D01*
X067983Y028694D02*
X067983Y028540D01*
X068060Y028463D01*
X068367Y028463D01*
X068367Y028310D02*
X068443Y028233D01*
X068443Y028080D01*
X068367Y028003D01*
X068443Y027849D02*
X068290Y027696D01*
X068290Y027773D02*
X068290Y027543D01*
X068443Y027543D02*
X067983Y027543D01*
X067983Y027773D01*
X068060Y027849D01*
X068213Y027849D01*
X068290Y027773D01*
X068060Y028003D02*
X067983Y028080D01*
X067983Y028233D01*
X068060Y028310D01*
X068137Y028310D01*
X068213Y028233D01*
X068290Y028310D01*
X068367Y028310D01*
X068213Y028233D02*
X068213Y028156D01*
X070688Y029231D02*
X070688Y029404D01*
X070688Y029317D02*
X071208Y029317D01*
X071208Y029231D02*
X071208Y029404D01*
X071208Y029574D02*
X070861Y029921D01*
X070774Y029921D01*
X070688Y029835D01*
X070688Y029661D01*
X070774Y029574D01*
X071208Y029574D02*
X071208Y029921D01*
X071121Y030090D02*
X071208Y030177D01*
X071208Y030350D01*
X071121Y030437D01*
X071295Y030606D02*
X071295Y030953D01*
X071208Y031121D02*
X071208Y031382D01*
X071121Y031468D01*
X071035Y031468D01*
X070948Y031382D01*
X070948Y031121D01*
X071208Y031121D02*
X070688Y031121D01*
X070688Y031382D01*
X070774Y031468D01*
X070861Y031468D01*
X070948Y031382D01*
X070774Y030437D02*
X070688Y030350D01*
X070688Y030177D01*
X070774Y030090D01*
X071121Y030090D01*
X065423Y027635D02*
X065116Y027635D01*
X065116Y027405D01*
X065270Y027482D01*
X065347Y027482D01*
X065423Y027405D01*
X065423Y027252D01*
X065347Y027175D01*
X065193Y027175D01*
X065116Y027252D01*
X064963Y027405D02*
X064656Y027405D01*
X064886Y027635D01*
X064886Y027175D01*
X064502Y027175D02*
X064349Y027328D01*
X064426Y027328D02*
X064196Y027328D01*
X064196Y027175D02*
X064196Y027635D01*
X064426Y027635D01*
X064502Y027559D01*
X064502Y027405D01*
X064426Y027328D01*
X064426Y026698D02*
X064502Y026621D01*
X064502Y026468D01*
X064426Y026391D01*
X064196Y026391D01*
X064349Y026391D02*
X064502Y026237D01*
X064656Y026468D02*
X064886Y026698D01*
X064886Y026237D01*
X064963Y026468D02*
X064656Y026468D01*
X064426Y026698D02*
X064196Y026698D01*
X064196Y026237D01*
X064196Y025760D02*
X064426Y025760D01*
X064502Y025684D01*
X064502Y025530D01*
X064426Y025453D01*
X064196Y025453D01*
X064349Y025453D02*
X064502Y025300D01*
X064656Y025530D02*
X064963Y025530D01*
X065116Y025377D02*
X065193Y025300D01*
X065347Y025300D01*
X065423Y025377D01*
X065423Y025453D01*
X065347Y025530D01*
X065270Y025530D01*
X065347Y025530D02*
X065423Y025607D01*
X065423Y025684D01*
X065347Y025760D01*
X065193Y025760D01*
X065116Y025684D01*
X064886Y025760D02*
X064656Y025530D01*
X064886Y025300D02*
X064886Y025760D01*
X065347Y026237D02*
X065347Y026698D01*
X065116Y026468D01*
X065423Y026468D01*
X065883Y026529D02*
X065883Y026223D01*
X065883Y026376D02*
X066343Y026376D01*
X066343Y026069D02*
X066343Y025762D01*
X065883Y025762D01*
X065883Y026069D01*
X066113Y025916D02*
X066113Y025762D01*
X066190Y025609D02*
X066266Y025609D01*
X066343Y025532D01*
X066343Y025378D01*
X066266Y025302D01*
X066113Y025378D02*
X066036Y025302D01*
X065959Y025302D01*
X065883Y025378D01*
X065883Y025532D01*
X065959Y025609D01*
X066113Y025532D02*
X066190Y025609D01*
X066113Y025532D02*
X066113Y025378D01*
X066343Y025148D02*
X066343Y024841D01*
X065883Y024841D01*
X065883Y025148D01*
X066113Y024995D02*
X066113Y024841D01*
X066113Y024688D02*
X066190Y024611D01*
X066190Y024381D01*
X066343Y024381D02*
X065883Y024381D01*
X065883Y024611D01*
X065959Y024688D01*
X066113Y024688D01*
X066190Y024534D02*
X066343Y024688D01*
X066266Y023767D02*
X066113Y023767D01*
X066113Y023614D01*
X066266Y023767D02*
X066343Y023690D01*
X066343Y023537D01*
X066266Y023460D01*
X065959Y023460D01*
X065883Y023537D01*
X065883Y023690D01*
X065959Y023767D01*
X065959Y023307D02*
X065883Y023230D01*
X065883Y023076D01*
X065959Y023000D01*
X066266Y023000D01*
X066343Y023076D01*
X066343Y023230D01*
X066266Y023307D01*
X065959Y023307D01*
X065959Y022846D02*
X065883Y022770D01*
X065883Y022539D01*
X066343Y022539D01*
X066343Y022770D01*
X066266Y022846D01*
X065959Y022846D01*
X065883Y022386D02*
X066343Y022386D01*
X066113Y022386D02*
X066113Y022079D01*
X066266Y021926D02*
X066343Y021849D01*
X066343Y021695D01*
X066266Y021619D01*
X065959Y021619D01*
X065883Y021695D01*
X065883Y021849D01*
X065959Y021926D01*
X065883Y022079D02*
X066343Y022079D01*
X065343Y022084D02*
X065190Y021930D01*
X065190Y022007D02*
X065190Y021777D01*
X065343Y021777D02*
X064883Y021777D01*
X064883Y022007D01*
X064959Y022084D01*
X065113Y022084D01*
X065190Y022007D01*
X065343Y021624D02*
X065343Y021317D01*
X064883Y021317D01*
X064959Y021163D02*
X064883Y021086D01*
X064883Y020933D01*
X064959Y020856D01*
X065266Y020856D01*
X065343Y020933D01*
X065343Y021086D01*
X065266Y021163D01*
X065343Y020703D02*
X064883Y020703D01*
X065036Y020549D01*
X064883Y020396D01*
X065343Y020396D01*
X065883Y020544D02*
X066343Y020544D01*
X066190Y020391D01*
X066343Y020237D01*
X065883Y020237D01*
X067557Y020276D02*
X067634Y020200D01*
X067787Y020200D01*
X067864Y020276D01*
X068017Y020200D02*
X068324Y020200D01*
X068171Y020200D02*
X068171Y020660D01*
X068017Y020506D01*
X067864Y020583D02*
X067787Y020660D01*
X067634Y020660D01*
X067557Y020583D01*
X067557Y020276D01*
X068478Y020276D02*
X068555Y020200D01*
X068708Y020200D01*
X068785Y020276D01*
X068785Y020353D01*
X068708Y020430D01*
X068555Y020430D01*
X068478Y020506D01*
X068478Y020583D01*
X068555Y020660D01*
X068708Y020660D01*
X068785Y020583D01*
X068785Y020506D01*
X068708Y020430D01*
X068555Y020430D02*
X068478Y020353D01*
X068478Y020276D01*
X066343Y020698D02*
X066036Y020698D01*
X065883Y020851D01*
X066036Y021005D01*
X066343Y021005D01*
X066113Y021005D02*
X066113Y020698D01*
X065883Y021158D02*
X065883Y021465D01*
X065883Y021312D02*
X066343Y021312D01*
X067233Y022543D02*
X067233Y022773D01*
X067310Y022849D01*
X067463Y022849D01*
X067540Y022773D01*
X067540Y022543D01*
X067540Y022696D02*
X067693Y022849D01*
X067617Y023003D02*
X067693Y023080D01*
X067693Y023233D01*
X067617Y023310D01*
X067540Y023310D01*
X067463Y023233D01*
X067463Y023156D01*
X067463Y023233D02*
X067387Y023310D01*
X067310Y023310D01*
X067233Y023233D01*
X067233Y023080D01*
X067310Y023003D01*
X067233Y022543D02*
X067693Y022543D01*
X067983Y022543D02*
X067983Y022773D01*
X068060Y022849D01*
X068213Y022849D01*
X068290Y022773D01*
X068290Y022543D01*
X068290Y022696D02*
X068443Y022849D01*
X068367Y023003D02*
X068443Y023080D01*
X068443Y023233D01*
X068367Y023310D01*
X068290Y023310D01*
X068213Y023233D01*
X068213Y023156D01*
X068213Y023233D02*
X068137Y023310D01*
X068060Y023310D01*
X067983Y023233D01*
X067983Y023080D01*
X068060Y023003D01*
X068137Y023463D02*
X067983Y023617D01*
X068443Y023617D01*
X068443Y023770D02*
X068443Y023463D01*
X067693Y023694D02*
X067233Y023694D01*
X067463Y023463D01*
X067463Y023770D01*
X067983Y022543D02*
X068443Y022543D01*
X070688Y024231D02*
X070688Y024404D01*
X070688Y024317D02*
X071208Y024317D01*
X071208Y024231D02*
X071208Y024404D01*
X071208Y024574D02*
X070861Y024921D01*
X070774Y024921D01*
X070688Y024835D01*
X070688Y024661D01*
X070774Y024574D01*
X071208Y024574D02*
X071208Y024921D01*
X071121Y025090D02*
X071208Y025177D01*
X071208Y025350D01*
X071121Y025437D01*
X071295Y025606D02*
X071295Y025953D01*
X071121Y026121D02*
X071208Y026208D01*
X071208Y026382D01*
X071121Y026468D01*
X070774Y026468D02*
X070688Y026382D01*
X070688Y026208D01*
X070774Y026121D01*
X071121Y026121D01*
X070774Y025437D02*
X070688Y025350D01*
X070688Y025177D01*
X070774Y025090D01*
X071121Y025090D01*
X064196Y025300D02*
X064196Y025760D01*
X061793Y025117D02*
X061793Y025040D01*
X061486Y024733D01*
X061486Y024657D01*
X061333Y024733D02*
X061333Y025117D01*
X061486Y025117D02*
X061793Y025117D01*
X061333Y024733D02*
X061256Y024657D01*
X061103Y024657D01*
X061026Y024733D01*
X061026Y025117D01*
X063032Y023702D02*
X063262Y023472D01*
X063262Y023779D01*
X063032Y023702D02*
X063493Y023702D01*
X063493Y023318D02*
X063493Y023011D01*
X063186Y023318D01*
X063109Y023318D01*
X063032Y023242D01*
X063032Y023088D01*
X063109Y023011D01*
X063109Y022858D02*
X063032Y022781D01*
X063032Y022628D01*
X063109Y022551D01*
X063416Y022551D01*
X063493Y022628D01*
X063493Y022781D01*
X063416Y022858D01*
X063423Y020573D02*
X063269Y020573D01*
X063193Y020496D01*
X063039Y020496D02*
X062962Y020573D01*
X062732Y020573D01*
X062732Y020113D01*
X062962Y020113D01*
X063039Y020190D01*
X063039Y020496D01*
X063423Y020573D02*
X063499Y020496D01*
X063499Y020420D01*
X063193Y020113D01*
X063499Y020113D01*
X062579Y020113D02*
X062272Y020113D01*
X062272Y020573D01*
X062579Y020573D01*
X062425Y020343D02*
X062272Y020343D01*
X062118Y020113D02*
X061811Y020113D01*
X061811Y020573D01*
X058743Y019279D02*
X058743Y018972D01*
X058436Y019279D01*
X058359Y019279D01*
X058282Y019202D01*
X058282Y019049D01*
X058359Y018972D01*
X058359Y018818D02*
X058282Y018742D01*
X058282Y018588D01*
X058359Y018511D01*
X058359Y018358D02*
X058282Y018281D01*
X058282Y018128D01*
X058359Y018051D01*
X058666Y018051D01*
X058743Y018128D01*
X058743Y018281D01*
X058666Y018358D01*
X058743Y018511D02*
X058436Y018818D01*
X058359Y018818D01*
X057993Y018818D02*
X057993Y018511D01*
X057686Y018818D01*
X057609Y018818D01*
X057532Y018742D01*
X057532Y018588D01*
X057609Y018511D01*
X057609Y018358D02*
X057532Y018281D01*
X057532Y018128D01*
X057609Y018051D01*
X057916Y018051D01*
X057993Y018128D01*
X057993Y018281D01*
X057916Y018358D01*
X057916Y018972D02*
X057993Y019049D01*
X057993Y019202D01*
X057916Y019279D01*
X057762Y019279D01*
X057686Y019202D01*
X057686Y019125D01*
X057762Y018972D01*
X057532Y018972D01*
X057532Y019279D01*
X058743Y018818D02*
X058743Y018511D01*
X060383Y016926D02*
X060383Y016619D01*
X060383Y016772D02*
X060843Y016772D01*
X060766Y016465D02*
X060459Y016465D01*
X060383Y016388D01*
X060383Y016235D01*
X060459Y016158D01*
X060766Y016158D01*
X060843Y016235D01*
X060843Y016388D01*
X060766Y016465D01*
X060766Y016005D02*
X060459Y016005D01*
X060383Y015928D01*
X060383Y015775D01*
X060459Y015698D01*
X060766Y015698D01*
X060843Y015775D01*
X060843Y015928D01*
X060766Y016005D01*
X060766Y015544D02*
X060843Y015468D01*
X060843Y015237D01*
X060383Y015237D01*
X060383Y015468D01*
X060459Y015544D01*
X060536Y015544D01*
X060613Y015468D01*
X060613Y015237D01*
X060613Y015468D02*
X060690Y015544D01*
X060766Y015544D01*
X061383Y015564D02*
X061459Y015487D01*
X061766Y015487D01*
X061843Y015564D01*
X061843Y015718D01*
X061766Y015794D01*
X061613Y015794D01*
X061613Y015641D01*
X061459Y015794D02*
X061383Y015718D01*
X061383Y015564D01*
X061383Y015948D02*
X061843Y016255D01*
X061383Y016255D01*
X061383Y016408D02*
X061383Y016638D01*
X061459Y016715D01*
X061766Y016715D01*
X061843Y016638D01*
X061843Y016408D01*
X061383Y016408D01*
X061383Y015948D02*
X061843Y015948D01*
X063901Y017557D02*
X063901Y018018D01*
X064132Y018018D01*
X064208Y017941D01*
X064208Y017787D01*
X064132Y017711D01*
X063901Y017711D01*
X064055Y017711D02*
X064208Y017557D01*
X064362Y017557D02*
X064669Y017864D01*
X064669Y017941D01*
X064592Y018018D01*
X064439Y018018D01*
X064362Y017941D01*
X064362Y017557D02*
X064669Y017557D01*
X064822Y017634D02*
X064899Y017557D01*
X065052Y017557D01*
X065129Y017634D01*
X065129Y017711D01*
X065052Y017787D01*
X064822Y017787D01*
X064822Y017634D01*
X064822Y017787D02*
X064976Y017941D01*
X065129Y018018D01*
X063487Y018290D02*
X063410Y018213D01*
X063257Y018213D01*
X063180Y018290D01*
X063180Y018366D01*
X063257Y018443D01*
X063410Y018443D01*
X063487Y018366D01*
X063487Y018290D01*
X063410Y018443D02*
X063487Y018520D01*
X063487Y018596D01*
X063410Y018673D01*
X063257Y018673D01*
X063180Y018596D01*
X063180Y018520D01*
X063257Y018443D01*
X063027Y018520D02*
X062950Y018443D01*
X063027Y018366D01*
X063027Y018290D01*
X062950Y018213D01*
X062796Y018213D01*
X062720Y018290D01*
X062566Y018213D02*
X062413Y018366D01*
X062489Y018366D02*
X062259Y018366D01*
X062259Y018213D02*
X062259Y018673D01*
X062489Y018673D01*
X062566Y018596D01*
X062566Y018443D01*
X062489Y018366D01*
X062720Y018596D02*
X062796Y018673D01*
X062950Y018673D01*
X063027Y018596D01*
X063027Y018520D01*
X062950Y018443D02*
X062873Y018443D01*
X067657Y016798D02*
X067657Y016415D01*
X067734Y016338D01*
X067887Y016338D01*
X067964Y016415D01*
X067964Y016798D01*
X068118Y016721D02*
X068118Y016645D01*
X068194Y016568D01*
X068348Y016568D01*
X068424Y016491D01*
X068424Y016415D01*
X068348Y016338D01*
X068194Y016338D01*
X068118Y016415D01*
X068118Y016491D01*
X068194Y016568D01*
X068348Y016568D02*
X068424Y016645D01*
X068424Y016721D01*
X068348Y016798D01*
X068194Y016798D01*
X068118Y016721D01*
X069822Y016409D02*
X069822Y016102D01*
X069899Y016025D01*
X070052Y016025D01*
X070129Y016102D01*
X070282Y016025D02*
X070589Y016025D01*
X070436Y016025D02*
X070436Y016486D01*
X070282Y016332D01*
X070129Y016409D02*
X070052Y016486D01*
X069899Y016486D01*
X069822Y016409D01*
X070743Y016409D02*
X070819Y016486D01*
X070973Y016486D01*
X071049Y016409D01*
X071049Y016102D01*
X070973Y016025D01*
X070819Y016025D01*
X070743Y016102D01*
X070819Y016255D02*
X071049Y016255D01*
X070819Y016255D02*
X070743Y016332D01*
X070743Y016409D01*
X068799Y014923D02*
X068493Y014923D01*
X068339Y014846D02*
X068262Y014923D01*
X068109Y014923D01*
X068032Y014846D01*
X067879Y014846D02*
X067879Y014693D01*
X067802Y014616D01*
X067572Y014616D01*
X067572Y014463D02*
X067572Y014923D01*
X067802Y014923D01*
X067879Y014846D01*
X067725Y014616D02*
X067879Y014463D01*
X068032Y014463D02*
X068339Y014770D01*
X068339Y014846D01*
X068493Y014540D02*
X068493Y014463D01*
X068493Y014540D02*
X068799Y014846D01*
X068799Y014923D01*
X068339Y014463D02*
X068032Y014463D01*
X066898Y014776D02*
X066898Y014852D01*
X066591Y014852D01*
X066284Y014852D02*
X066284Y014392D01*
X066131Y014392D02*
X066438Y014392D01*
X066591Y014392D02*
X066591Y014469D01*
X066898Y014776D01*
X066284Y014852D02*
X066131Y014699D01*
X065977Y014776D02*
X065901Y014852D01*
X065747Y014852D01*
X065670Y014776D01*
X065670Y014469D01*
X065747Y014392D01*
X065901Y014392D01*
X065977Y014469D01*
X057668Y014407D02*
X057321Y014407D01*
X057321Y014147D01*
X057495Y014234D01*
X057582Y014234D01*
X057668Y014147D01*
X057668Y013974D01*
X057582Y013887D01*
X057408Y013887D01*
X057321Y013974D01*
X057153Y013887D02*
X056806Y013887D01*
X056979Y013887D02*
X056979Y014407D01*
X056806Y014234D01*
X056637Y014321D02*
X056290Y013974D01*
X056377Y013887D01*
X056550Y013887D01*
X056637Y013974D01*
X056637Y014321D01*
X056550Y014407D01*
X056377Y014407D01*
X056290Y014321D01*
X056290Y013974D01*
X056121Y013887D02*
X055774Y013887D01*
X056121Y014234D01*
X056121Y014321D01*
X056035Y014407D01*
X055861Y014407D01*
X055774Y014321D01*
X055606Y014147D02*
X055259Y014147D01*
X055090Y014147D02*
X054743Y014147D01*
X054743Y014234D02*
X054917Y014407D01*
X055090Y014234D01*
X055090Y013887D01*
X054743Y013887D02*
X054743Y014234D01*
X054574Y014147D02*
X054227Y014147D01*
X054488Y014407D01*
X054488Y013887D01*
X054059Y013887D02*
X053885Y014060D01*
X053972Y014060D02*
X053712Y014060D01*
X053712Y013887D02*
X053712Y014407D01*
X053972Y014407D01*
X054059Y014321D01*
X054059Y014147D01*
X053972Y014060D01*
X053027Y014060D02*
X052681Y014060D01*
X052681Y013974D02*
X052681Y014147D01*
X052767Y014234D01*
X052941Y014234D01*
X053027Y014147D01*
X053027Y014060D01*
X052941Y013887D02*
X052767Y013887D01*
X052681Y013974D01*
X052511Y014234D02*
X052424Y014234D01*
X052251Y014060D01*
X052082Y014060D02*
X051822Y014060D01*
X051735Y013974D01*
X051822Y013887D01*
X052082Y013887D01*
X052082Y014147D01*
X051995Y014234D01*
X051822Y014234D01*
X051567Y014234D02*
X051567Y013974D01*
X051480Y013887D01*
X051393Y013974D01*
X051306Y013887D01*
X051220Y013974D01*
X051220Y014234D01*
X051049Y014234D02*
X050876Y014234D01*
X050963Y014321D02*
X050963Y013974D01*
X051049Y013887D01*
X050619Y013887D02*
X050619Y014321D01*
X050706Y014407D01*
X050706Y014147D02*
X050532Y014147D01*
X050363Y014147D02*
X050277Y014234D01*
X050103Y014234D01*
X050016Y014147D01*
X050016Y013974D01*
X050103Y013887D01*
X050277Y013887D01*
X050363Y013974D01*
X050363Y014147D01*
X049848Y014060D02*
X049848Y013974D01*
X049761Y013887D01*
X049587Y013887D01*
X049501Y013974D01*
X049587Y014147D02*
X049761Y014147D01*
X049848Y014060D01*
X049848Y014321D02*
X049761Y014407D01*
X049587Y014407D01*
X049501Y014321D01*
X049501Y014234D01*
X049587Y014147D01*
X048816Y014147D02*
X048469Y014147D01*
X048469Y014234D02*
X048643Y014407D01*
X048816Y014234D01*
X048816Y013887D01*
X048469Y013887D02*
X048469Y014234D01*
X048301Y014407D02*
X048301Y013887D01*
X047954Y014407D01*
X047954Y013887D01*
X047612Y013887D02*
X047612Y014407D01*
X047785Y014407D02*
X047438Y014407D01*
X052251Y014234D02*
X052251Y013887D01*
X047791Y016848D02*
X047791Y017309D01*
X047561Y017079D01*
X047868Y017079D01*
X047407Y017309D02*
X047100Y017309D01*
X047254Y017309D02*
X047254Y016848D01*
X046541Y016700D02*
X046234Y016700D01*
X046387Y016700D02*
X046387Y017160D01*
X046234Y017006D01*
X046081Y017006D02*
X045774Y016700D01*
X046081Y016700D01*
X046081Y017006D02*
X046081Y017083D01*
X046004Y017160D01*
X045850Y017160D01*
X045774Y017083D01*
X045620Y017083D02*
X045620Y016930D01*
X045543Y016853D01*
X045313Y016853D01*
X045313Y016700D02*
X045313Y017160D01*
X045543Y017160D01*
X045620Y017083D01*
X045467Y016853D02*
X045620Y016700D01*
X043224Y017090D02*
X043148Y017013D01*
X042994Y017013D01*
X042918Y017090D01*
X043071Y017243D02*
X043148Y017243D01*
X043224Y017166D01*
X043224Y017090D01*
X043148Y017243D02*
X043224Y017320D01*
X043224Y017396D01*
X043148Y017473D01*
X042994Y017473D01*
X042918Y017396D01*
X042764Y017473D02*
X042457Y017473D01*
X042611Y017473D02*
X042611Y017013D01*
X041056Y017114D02*
X040979Y017037D01*
X040825Y017037D01*
X040749Y017114D01*
X040595Y017114D02*
X040595Y017421D01*
X040518Y017497D01*
X040288Y017497D01*
X040288Y017037D01*
X040518Y017037D01*
X040595Y017114D01*
X040749Y017421D02*
X040825Y017497D01*
X040979Y017497D01*
X041056Y017421D01*
X041056Y017344D01*
X040979Y017267D01*
X041056Y017190D01*
X041056Y017114D01*
X040979Y017267D02*
X040902Y017267D01*
X039200Y017509D02*
X039123Y017432D01*
X038970Y017432D01*
X038893Y017509D01*
X039047Y017662D02*
X039123Y017662D01*
X039200Y017586D01*
X039200Y017509D01*
X039123Y017662D02*
X039200Y017739D01*
X039200Y017816D01*
X039123Y017893D01*
X038970Y017893D01*
X038893Y017816D01*
X038740Y017893D02*
X038433Y017893D01*
X038433Y017432D01*
X038433Y017662D02*
X038586Y017662D01*
X044032Y019301D02*
X044032Y019531D01*
X044109Y019608D01*
X044262Y019608D01*
X044339Y019531D01*
X044339Y019301D01*
X044339Y019455D02*
X044493Y019608D01*
X044493Y019761D02*
X044186Y020068D01*
X044109Y020068D01*
X044032Y019992D01*
X044032Y019838D01*
X044109Y019761D01*
X044493Y019761D02*
X044493Y020068D01*
X044416Y020222D02*
X044109Y020529D01*
X044416Y020529D01*
X044493Y020452D01*
X044493Y020299D01*
X044416Y020222D01*
X044109Y020222D01*
X044032Y020299D01*
X044032Y020452D01*
X044109Y020529D01*
X043130Y020566D02*
X043053Y020643D01*
X042899Y020643D01*
X042823Y020566D01*
X042669Y020566D02*
X042592Y020643D01*
X042439Y020643D01*
X042362Y020566D01*
X042209Y020566D02*
X042209Y020412D01*
X042132Y020336D01*
X041902Y020336D01*
X042055Y020336D02*
X042209Y020182D01*
X042362Y020182D02*
X042669Y020489D01*
X042669Y020566D01*
X042669Y020182D02*
X042362Y020182D01*
X042209Y020566D02*
X042132Y020643D01*
X041902Y020643D01*
X041902Y020182D01*
X042823Y020182D02*
X043130Y020489D01*
X043130Y020566D01*
X043130Y020182D02*
X042823Y020182D01*
X042800Y021043D02*
X042493Y021043D01*
X042800Y021349D01*
X042800Y021426D01*
X042724Y021503D01*
X042570Y021503D01*
X042493Y021426D01*
X042340Y021426D02*
X042340Y021273D01*
X042263Y021196D01*
X042033Y021196D01*
X042033Y021043D02*
X042033Y021503D01*
X042263Y021503D01*
X042340Y021426D01*
X042187Y021196D02*
X042340Y021043D01*
X042954Y021273D02*
X043261Y021273D01*
X043184Y021503D02*
X042954Y021273D01*
X043184Y021043D02*
X043184Y021503D01*
X044438Y021700D02*
X044438Y022160D01*
X044668Y022160D01*
X044745Y022083D01*
X044745Y021930D01*
X044668Y021853D01*
X044438Y021853D01*
X044592Y021853D02*
X044745Y021700D01*
X044899Y021700D02*
X045206Y022006D01*
X045206Y022083D01*
X045129Y022160D01*
X044975Y022160D01*
X044899Y022083D01*
X044899Y021700D02*
X045206Y021700D01*
X045359Y021776D02*
X045436Y021700D01*
X045589Y021700D01*
X045666Y021776D01*
X045666Y021930D01*
X045589Y022006D01*
X045512Y022006D01*
X045359Y021930D01*
X045359Y022160D01*
X045666Y022160D01*
X046407Y021298D02*
X046407Y020915D01*
X046484Y020838D01*
X046637Y020838D01*
X046714Y020915D01*
X046714Y021298D01*
X046868Y021068D02*
X047098Y021298D01*
X047098Y020838D01*
X047174Y021068D02*
X046868Y021068D01*
X048720Y021753D02*
X048797Y021676D01*
X049103Y021676D01*
X049180Y021753D01*
X049180Y021906D01*
X049103Y021983D01*
X049180Y022136D02*
X049180Y022443D01*
X049180Y022290D02*
X048720Y022290D01*
X048873Y022136D01*
X048797Y021983D02*
X048720Y021906D01*
X048720Y021753D01*
X048797Y022597D02*
X048720Y022674D01*
X048720Y022827D01*
X048797Y022904D01*
X048873Y022904D01*
X048950Y022827D01*
X049027Y022904D01*
X049103Y022904D01*
X049180Y022827D01*
X049180Y022674D01*
X049103Y022597D01*
X048950Y022750D02*
X048950Y022827D01*
X047524Y024288D02*
X047218Y024288D01*
X047371Y024288D02*
X047371Y024748D01*
X047218Y024595D01*
X047064Y024671D02*
X047064Y024365D01*
X046987Y024288D01*
X046757Y024288D01*
X046757Y024748D01*
X046987Y024748D01*
X047064Y024671D01*
X046604Y024748D02*
X046297Y024748D01*
X046297Y024288D01*
X046604Y024288D01*
X046450Y024518D02*
X046297Y024518D01*
X046143Y024288D02*
X045836Y024288D01*
X045836Y024748D01*
X042847Y023253D02*
X042847Y022793D01*
X042694Y022793D02*
X043001Y022793D01*
X042694Y023099D02*
X042847Y023253D01*
X042233Y023253D02*
X042233Y022793D01*
X042540Y022793D01*
X040530Y023259D02*
X040453Y023182D01*
X040299Y023182D01*
X040223Y023259D01*
X040223Y023336D01*
X040299Y023412D01*
X040453Y023412D01*
X040530Y023336D01*
X040530Y023259D01*
X040453Y023412D02*
X040530Y023489D01*
X040530Y023566D01*
X040453Y023643D01*
X040299Y023643D01*
X040223Y023566D01*
X040223Y023489D01*
X040299Y023412D01*
X040069Y023182D02*
X039762Y023182D01*
X039609Y023182D02*
X039455Y023336D01*
X039532Y023336D02*
X039302Y023336D01*
X039302Y023182D02*
X039302Y023643D01*
X039532Y023643D01*
X039609Y023566D01*
X039609Y023412D01*
X039532Y023336D01*
X039762Y023489D02*
X039916Y023643D01*
X039916Y023182D01*
X039893Y023887D02*
X040200Y023887D01*
X040047Y023887D02*
X040047Y024347D01*
X039893Y024194D01*
X039740Y024271D02*
X039740Y024117D01*
X039663Y024040D01*
X039433Y024040D01*
X039433Y023887D02*
X039433Y024347D01*
X039663Y024347D01*
X039740Y024271D01*
X039587Y024040D02*
X039740Y023887D01*
X040354Y023964D02*
X040431Y023887D01*
X040584Y023887D01*
X040661Y023964D01*
X040661Y024271D01*
X040584Y024347D01*
X040431Y024347D01*
X040354Y024271D01*
X040354Y024194D01*
X040431Y024117D01*
X040661Y024117D01*
X039473Y022143D02*
X039320Y022143D01*
X039243Y022066D01*
X039090Y022143D02*
X038783Y022143D01*
X038936Y022143D02*
X038936Y021682D01*
X039243Y021682D02*
X039550Y021989D01*
X039550Y022066D01*
X039473Y022143D01*
X039550Y021682D02*
X039243Y021682D01*
X034080Y020676D02*
X034003Y020753D01*
X033850Y020753D01*
X033773Y020676D01*
X033620Y020753D02*
X033313Y020446D01*
X033389Y020523D02*
X033620Y020293D01*
X033773Y020293D02*
X034080Y020599D01*
X034080Y020676D01*
X034080Y020293D02*
X033773Y020293D01*
X033313Y020293D02*
X033313Y020753D01*
X027956Y020197D02*
X027956Y020121D01*
X027649Y019814D01*
X027649Y019737D01*
X027418Y019814D02*
X027418Y020197D01*
X027342Y020197D02*
X027495Y020197D01*
X027649Y020197D02*
X027956Y020197D01*
X027418Y019814D02*
X027342Y019737D01*
X027265Y019737D01*
X027188Y019814D01*
X033143Y024393D02*
X033143Y024853D01*
X033220Y024623D02*
X033450Y024393D01*
X033604Y024393D02*
X033911Y024393D01*
X033757Y024393D02*
X033757Y024853D01*
X033604Y024700D01*
X033450Y024853D02*
X033143Y024546D01*
X044032Y019301D02*
X044493Y019301D01*
X049233Y018944D02*
X049310Y019020D01*
X049387Y019020D01*
X049463Y018944D01*
X049540Y019020D01*
X049617Y019020D01*
X049693Y018944D01*
X049693Y018790D01*
X049617Y018713D01*
X049693Y018560D02*
X049693Y018253D01*
X049387Y018560D01*
X049310Y018560D01*
X049233Y018483D01*
X049233Y018330D01*
X049310Y018253D01*
X049310Y018099D02*
X049463Y018099D01*
X049540Y018023D01*
X049540Y017793D01*
X049540Y017946D02*
X049693Y018099D01*
X049693Y017793D02*
X049233Y017793D01*
X049233Y018023D01*
X049310Y018099D01*
X049310Y018713D02*
X049233Y018790D01*
X049233Y018944D01*
X049463Y018944D02*
X049463Y018867D01*
X053695Y019627D02*
X053772Y019550D01*
X054079Y019550D01*
X054156Y019627D01*
X054156Y019780D01*
X054079Y019857D01*
X054156Y020010D02*
X053849Y020317D01*
X053772Y020317D01*
X053695Y020240D01*
X053695Y020087D01*
X053772Y020010D01*
X053772Y019857D02*
X053695Y019780D01*
X053695Y019627D01*
X054156Y020010D02*
X054156Y020317D01*
X054079Y020471D02*
X054156Y020547D01*
X054156Y020701D01*
X054079Y020778D01*
X054002Y020778D01*
X053925Y020701D01*
X053925Y020624D01*
X053925Y020701D02*
X053849Y020778D01*
X053772Y020778D01*
X053695Y020701D01*
X053695Y020547D01*
X053772Y020471D01*
X053213Y022925D02*
X052906Y022925D01*
X053213Y023232D01*
X053213Y023309D01*
X053136Y023385D01*
X052983Y023385D01*
X052906Y023309D01*
X053027Y023650D02*
X052720Y023650D01*
X053027Y023957D01*
X053027Y024034D01*
X052950Y024111D01*
X052796Y024111D01*
X052720Y024034D01*
X052566Y024034D02*
X052489Y024111D01*
X052336Y024111D01*
X052259Y024034D01*
X052259Y023727D01*
X052336Y023650D01*
X052489Y023650D01*
X052566Y023727D01*
X052446Y023385D02*
X052446Y022925D01*
X052752Y022925D01*
X053257Y023650D02*
X053180Y023727D01*
X053487Y024034D01*
X053487Y023727D01*
X053410Y023650D01*
X053257Y023650D01*
X053180Y023727D02*
X053180Y024034D01*
X053257Y024111D01*
X053410Y024111D01*
X053487Y024034D01*
X071032Y019452D02*
X071032Y019299D01*
X071109Y019222D01*
X071186Y019222D01*
X071262Y019299D01*
X071262Y019452D01*
X071339Y019529D01*
X071416Y019529D01*
X071493Y019452D01*
X071493Y019299D01*
X071416Y019222D01*
X071339Y019222D01*
X071262Y019299D01*
X071262Y019452D02*
X071186Y019529D01*
X071109Y019529D01*
X071032Y019452D01*
X071109Y019068D02*
X071032Y018992D01*
X071032Y018838D01*
X071109Y018761D01*
X071109Y018608D02*
X071262Y018608D01*
X071339Y018531D01*
X071339Y018301D01*
X071339Y018455D02*
X071493Y018608D01*
X071493Y018761D02*
X071186Y019068D01*
X071109Y019068D01*
X071493Y019068D02*
X071493Y018761D01*
X071109Y018608D02*
X071032Y018531D01*
X071032Y018301D01*
X071493Y018301D01*
X050836Y033244D02*
X050759Y033168D01*
X050606Y033168D01*
X050529Y033244D01*
X050836Y033551D01*
X050836Y033244D01*
X050529Y033244D02*
X050529Y033551D01*
X050606Y033628D01*
X050759Y033628D01*
X050836Y033551D01*
X050376Y033168D02*
X050069Y033168D01*
X050222Y033168D02*
X050222Y033628D01*
X050069Y033474D01*
X049915Y033551D02*
X049839Y033628D01*
X049685Y033628D01*
X049608Y033551D01*
X049608Y033244D01*
X049685Y033168D01*
X049839Y033168D01*
X049915Y033244D01*
X052265Y036216D02*
X052188Y036293D01*
X052188Y036446D01*
X052265Y036523D01*
X052265Y036677D02*
X052188Y036753D01*
X052188Y036907D01*
X052265Y036984D01*
X052341Y036984D01*
X052418Y036907D01*
X052495Y036984D01*
X052571Y036984D01*
X052648Y036907D01*
X052648Y036753D01*
X052571Y036677D01*
X052571Y036523D02*
X052648Y036446D01*
X052648Y036293D01*
X052571Y036216D01*
X052265Y036216D01*
X052418Y036830D02*
X052418Y036907D01*
X058688Y036907D02*
X058688Y036753D01*
X058765Y036677D01*
X058765Y036523D02*
X058688Y036446D01*
X058688Y036293D01*
X058765Y036216D01*
X059071Y036216D01*
X059148Y036293D01*
X059148Y036446D01*
X059071Y036523D01*
X059148Y036677D02*
X058841Y036984D01*
X058765Y036984D01*
X058688Y036907D01*
X059148Y036984D02*
X059148Y036677D01*
X068438Y038714D02*
X068515Y038637D01*
X068668Y038637D01*
X068745Y038714D01*
X068899Y038637D02*
X069206Y038637D01*
X069052Y038637D02*
X069052Y039097D01*
X068899Y038944D01*
X068745Y039021D02*
X068668Y039097D01*
X068515Y039097D01*
X068438Y039021D01*
X068438Y038714D01*
X069359Y038867D02*
X069666Y038867D01*
X069589Y038637D02*
X069589Y039097D01*
X069359Y038867D01*
X069495Y037847D02*
X069495Y037464D01*
X069418Y037387D01*
X069265Y037387D01*
X069188Y037464D01*
X069188Y037847D01*
X069649Y037617D02*
X069879Y037617D01*
X069956Y037540D01*
X069956Y037464D01*
X069879Y037387D01*
X069725Y037387D01*
X069649Y037464D01*
X069649Y037617D01*
X069802Y037771D01*
X069956Y037847D01*
X029161Y014486D02*
X029161Y014409D01*
X028854Y014103D01*
X028854Y014026D01*
X028700Y014103D02*
X028624Y014026D01*
X028470Y014026D01*
X028393Y014103D01*
X028240Y014026D02*
X028086Y014179D01*
X028163Y014179D02*
X027933Y014179D01*
X027933Y014026D02*
X027933Y014486D01*
X028163Y014486D01*
X028240Y014409D01*
X028240Y014256D01*
X028163Y014179D01*
X028393Y014409D02*
X028470Y014486D01*
X028624Y014486D01*
X028700Y014409D01*
X028700Y014333D01*
X028624Y014256D01*
X028700Y014179D01*
X028700Y014103D01*
X028624Y014256D02*
X028547Y014256D01*
X028854Y014486D02*
X029161Y014486D01*
D12*
X026105Y024382D02*
X026153Y024430D01*
X026153Y024527D01*
X026105Y024576D01*
X025911Y024576D01*
X025863Y024527D01*
X025863Y024430D01*
X025911Y024382D01*
X026105Y024382D01*
X026105Y024677D02*
X026153Y024725D01*
X026153Y024870D01*
X025960Y024870D01*
X025960Y024971D02*
X025960Y025068D01*
X025911Y025020D02*
X026105Y025020D01*
X026153Y025068D01*
X026153Y025168D02*
X025960Y025361D01*
X025911Y025361D01*
X025863Y025313D01*
X025863Y025216D01*
X025911Y025168D01*
X026153Y025168D02*
X026153Y025361D01*
X026008Y025462D02*
X026008Y025656D01*
X025911Y026382D02*
X026105Y026382D01*
X026153Y026430D01*
X026153Y026527D01*
X026105Y026576D01*
X025911Y026576D01*
X025863Y026527D01*
X025863Y026430D01*
X025911Y026382D01*
X025960Y026677D02*
X026105Y026677D01*
X026153Y026725D01*
X026153Y026870D01*
X025960Y026870D01*
X025960Y026971D02*
X025960Y027068D01*
X025911Y027020D02*
X026105Y027020D01*
X026153Y027068D01*
X026153Y027168D02*
X025960Y027361D01*
X025911Y027361D01*
X025863Y027313D01*
X025863Y027216D01*
X025911Y027168D01*
X026153Y027168D02*
X026153Y027361D01*
X026008Y027462D02*
X026008Y027656D01*
X025911Y027559D02*
X026105Y027559D01*
X026105Y028382D02*
X026153Y028430D01*
X026153Y028527D01*
X026105Y028576D01*
X025911Y028576D01*
X025863Y028527D01*
X025863Y028430D01*
X025911Y028382D01*
X026105Y028382D01*
X026105Y028677D02*
X026153Y028725D01*
X026153Y028870D01*
X025960Y028870D01*
X025960Y028971D02*
X025960Y029068D01*
X025911Y029020D02*
X026105Y029020D01*
X026153Y029068D01*
X026153Y029168D02*
X026153Y029361D01*
X026153Y029264D02*
X025863Y029264D01*
X025960Y029168D01*
X026008Y029462D02*
X026008Y029656D01*
X025911Y030132D02*
X026105Y030132D01*
X026153Y030180D01*
X026153Y030277D01*
X026105Y030326D01*
X025911Y030326D01*
X025863Y030277D01*
X025863Y030180D01*
X025911Y030132D01*
X025960Y030427D02*
X026105Y030427D01*
X026153Y030475D01*
X026153Y030620D01*
X025960Y030620D01*
X025960Y030721D02*
X025960Y030818D01*
X025911Y030770D02*
X026105Y030770D01*
X026153Y030818D01*
X026153Y030918D02*
X026153Y031111D01*
X026153Y031014D02*
X025863Y031014D01*
X025960Y030918D01*
X026008Y031212D02*
X026008Y031406D01*
X025911Y031309D02*
X026105Y031309D01*
X026056Y032382D02*
X026153Y032479D01*
X026056Y032576D01*
X025863Y032576D01*
X025960Y032677D02*
X025960Y032725D01*
X026153Y032725D01*
X026153Y032677D02*
X026153Y032773D01*
X026153Y032873D02*
X025960Y032873D01*
X025960Y033018D01*
X026008Y033067D01*
X026153Y033067D01*
X026008Y033168D02*
X026008Y033361D01*
X025863Y032725D02*
X025815Y032725D01*
X025863Y032382D02*
X026056Y032382D01*
X029683Y030752D02*
X029683Y030505D01*
X029807Y030382D01*
X029930Y030505D01*
X029930Y030752D01*
X030052Y030629D02*
X030113Y030629D01*
X030113Y030382D01*
X030052Y030382D02*
X030175Y030382D01*
X030297Y030382D02*
X030297Y030629D01*
X030482Y030629D01*
X030544Y030567D01*
X030544Y030382D01*
X030665Y030567D02*
X030912Y030567D01*
X030789Y030444D02*
X030789Y030691D01*
X030113Y030752D02*
X030113Y030814D01*
X030152Y030115D02*
X030152Y030053D01*
X030152Y029930D02*
X030152Y029683D01*
X030091Y029683D02*
X030214Y029683D01*
X030336Y029683D02*
X030336Y029930D01*
X030521Y029930D01*
X030583Y029868D01*
X030583Y029683D01*
X030513Y029541D02*
X030513Y029294D01*
X030574Y029232D01*
X030697Y029232D02*
X030943Y029232D01*
X030820Y029232D02*
X030820Y029602D01*
X030697Y029479D01*
X030574Y029479D02*
X030451Y029479D01*
X030330Y029479D02*
X030330Y029232D01*
X030144Y029232D01*
X030083Y029294D01*
X030083Y029479D01*
X029961Y029541D02*
X029900Y029602D01*
X029776Y029602D01*
X029714Y029541D01*
X029714Y029294D01*
X029776Y029232D01*
X029900Y029232D01*
X029961Y029294D01*
X029961Y029541D01*
X029846Y029683D02*
X029969Y029806D01*
X029969Y030053D01*
X030091Y029930D02*
X030152Y029930D01*
X029846Y029683D02*
X029722Y029806D01*
X029722Y030053D01*
X030705Y029868D02*
X030952Y029868D01*
X031188Y029541D02*
X031188Y029294D01*
X031065Y029417D02*
X031312Y029417D01*
X031312Y028917D02*
X031065Y028917D01*
X030943Y028732D02*
X030697Y028732D01*
X030574Y028732D02*
X030513Y028794D01*
X030513Y029041D01*
X030574Y028979D02*
X030451Y028979D01*
X030330Y028979D02*
X030330Y028732D01*
X030144Y028732D01*
X030083Y028794D01*
X030083Y028979D01*
X029961Y029041D02*
X029900Y029102D01*
X029776Y029102D01*
X029714Y029041D01*
X029714Y028794D01*
X029776Y028732D01*
X029900Y028732D01*
X029961Y028794D01*
X029961Y029041D01*
X029900Y028602D02*
X029961Y028541D01*
X029961Y028294D01*
X029900Y028232D01*
X029776Y028232D01*
X029714Y028294D01*
X029714Y028541D01*
X029776Y028602D01*
X029900Y028602D01*
X030083Y028479D02*
X030083Y028294D01*
X030144Y028232D01*
X030330Y028232D01*
X030330Y028479D01*
X030451Y028479D02*
X030574Y028479D01*
X030513Y028541D02*
X030513Y028294D01*
X030574Y028232D01*
X030697Y028232D02*
X030943Y028479D01*
X030943Y028541D01*
X030882Y028602D01*
X030758Y028602D01*
X030697Y028541D01*
X030820Y028732D02*
X030820Y029102D01*
X030697Y028979D01*
X031188Y028541D02*
X031188Y028294D01*
X031065Y028417D02*
X031312Y028417D01*
X030943Y028232D02*
X030697Y028232D01*
X030758Y028102D02*
X030697Y028041D01*
X030758Y028102D02*
X030882Y028102D01*
X030943Y028041D01*
X030943Y027979D01*
X030697Y027732D01*
X030943Y027732D01*
X031065Y027917D02*
X031312Y027917D01*
X030574Y027979D02*
X030451Y027979D01*
X030513Y028041D02*
X030513Y027794D01*
X030574Y027732D01*
X030330Y027732D02*
X030330Y027979D01*
X030330Y027732D02*
X030144Y027732D01*
X030083Y027794D01*
X030083Y027979D01*
X029961Y028041D02*
X029900Y028102D01*
X029776Y028102D01*
X029714Y028041D01*
X029714Y027794D01*
X029776Y027732D01*
X029900Y027732D01*
X029961Y027794D01*
X029961Y028041D01*
X026105Y028677D02*
X025960Y028677D01*
X025960Y024677D02*
X026105Y024677D01*
X026056Y034382D02*
X026153Y034479D01*
X026056Y034576D01*
X025863Y034576D01*
X025960Y034677D02*
X025960Y034725D01*
X026153Y034725D01*
X026153Y034677D02*
X026153Y034773D01*
X026153Y034873D02*
X025960Y034873D01*
X025960Y035018D01*
X026008Y035067D01*
X026153Y035067D01*
X026008Y035168D02*
X026008Y035361D01*
X025911Y035264D02*
X026105Y035264D01*
X025863Y034725D02*
X025815Y034725D01*
X025863Y034382D02*
X026056Y034382D01*
X073113Y034430D02*
X073161Y034382D01*
X073210Y034382D01*
X073258Y034430D01*
X073258Y034527D01*
X073306Y034576D01*
X073355Y034576D01*
X073403Y034527D01*
X073403Y034430D01*
X073355Y034382D01*
X073113Y034430D02*
X073113Y034527D01*
X073161Y034576D01*
X073113Y034677D02*
X073113Y034822D01*
X073161Y034870D01*
X073355Y034870D01*
X073403Y034822D01*
X073403Y034677D01*
X073113Y034677D01*
X073210Y034971D02*
X073113Y035068D01*
X073210Y035165D01*
X073403Y035165D01*
X073258Y035165D02*
X073258Y034971D01*
X073210Y034971D02*
X073403Y034971D01*
X073306Y035632D02*
X073403Y035729D01*
X073306Y035826D01*
X073113Y035826D01*
X073258Y035927D02*
X073258Y036120D01*
X073306Y035632D02*
X073113Y035632D01*
X073403Y033915D02*
X073403Y033721D01*
X073113Y033721D01*
X073161Y033620D02*
X073113Y033572D01*
X073113Y033475D01*
X073161Y033427D01*
X073355Y033427D01*
X073403Y033475D01*
X073403Y033572D01*
X073355Y033620D01*
X073355Y033326D02*
X073403Y033277D01*
X073403Y033180D01*
X073355Y033132D01*
X073258Y033180D02*
X073258Y033277D01*
X073306Y033326D01*
X073355Y033326D01*
X073258Y033180D02*
X073210Y033132D01*
X073161Y033132D01*
X073113Y033180D01*
X073113Y033277D01*
X073161Y033326D01*
X073258Y032870D02*
X073258Y032677D01*
X073306Y032576D02*
X073113Y032576D01*
X073306Y032576D02*
X073403Y032479D01*
X073306Y032382D01*
X073113Y032382D01*
X073161Y032773D02*
X073355Y032773D01*
X073258Y031120D02*
X073258Y030927D01*
X073306Y030826D02*
X073113Y030826D01*
X073306Y030826D02*
X073403Y030729D01*
X073306Y030632D01*
X073113Y030632D01*
X073210Y030165D02*
X073403Y030165D01*
X073258Y030165D02*
X073258Y029971D01*
X073210Y029971D02*
X073113Y030068D01*
X073210Y030165D01*
X073210Y029971D02*
X073403Y029971D01*
X073355Y029870D02*
X073161Y029870D01*
X073113Y029822D01*
X073113Y029677D01*
X073403Y029677D01*
X073403Y029822D01*
X073355Y029870D01*
X073355Y029576D02*
X073403Y029527D01*
X073403Y029430D01*
X073355Y029382D01*
X073258Y029430D02*
X073258Y029527D01*
X073306Y029576D01*
X073355Y029576D01*
X073258Y029430D02*
X073210Y029382D01*
X073161Y029382D01*
X073113Y029430D01*
X073113Y029527D01*
X073161Y029576D01*
X073403Y028915D02*
X073403Y028721D01*
X073113Y028721D01*
X073161Y028620D02*
X073113Y028572D01*
X073113Y028475D01*
X073161Y028427D01*
X073355Y028427D01*
X073403Y028475D01*
X073403Y028572D01*
X073355Y028620D01*
X073355Y028326D02*
X073403Y028277D01*
X073403Y028180D01*
X073355Y028132D01*
X073258Y028180D02*
X073258Y028277D01*
X073306Y028326D01*
X073355Y028326D01*
X073258Y028180D02*
X073210Y028132D01*
X073161Y028132D01*
X073113Y028180D01*
X073113Y028277D01*
X073161Y028326D01*
X073258Y027870D02*
X073258Y027677D01*
X073306Y027576D02*
X073113Y027576D01*
X073306Y027576D02*
X073403Y027479D01*
X073306Y027382D01*
X073113Y027382D01*
X073161Y027773D02*
X073355Y027773D01*
X073258Y026120D02*
X073258Y025927D01*
X073306Y025826D02*
X073113Y025826D01*
X073306Y025826D02*
X073403Y025729D01*
X073306Y025632D01*
X073113Y025632D01*
X073210Y025165D02*
X073403Y025165D01*
X073258Y025165D02*
X073258Y024971D01*
X073210Y024971D02*
X073113Y025068D01*
X073210Y025165D01*
X073210Y024971D02*
X073403Y024971D01*
X073355Y024870D02*
X073161Y024870D01*
X073113Y024822D01*
X073113Y024677D01*
X073403Y024677D01*
X073403Y024822D01*
X073355Y024870D01*
X073355Y024576D02*
X073403Y024527D01*
X073403Y024430D01*
X073355Y024382D01*
X073258Y024430D02*
X073258Y024527D01*
X073306Y024576D01*
X073355Y024576D01*
X073258Y024430D02*
X073210Y024382D01*
X073161Y024382D01*
X073113Y024430D01*
X073113Y024527D01*
X073161Y024576D01*
X073403Y023915D02*
X073403Y023721D01*
X073113Y023721D01*
X073161Y023620D02*
X073113Y023572D01*
X073113Y023475D01*
X073161Y023427D01*
X073355Y023427D01*
X073403Y023475D01*
X073403Y023572D01*
X073355Y023620D01*
X073355Y023326D02*
X073403Y023277D01*
X073403Y023180D01*
X073355Y023132D01*
X073258Y023180D02*
X073258Y023277D01*
X073306Y023326D01*
X073355Y023326D01*
X073258Y023180D02*
X073210Y023132D01*
X073161Y023132D01*
X073113Y023180D01*
X073113Y023277D01*
X073161Y023326D01*
X073258Y022870D02*
X073258Y022677D01*
X073306Y022576D02*
X073113Y022576D01*
X073306Y022576D02*
X073403Y022479D01*
X073306Y022382D01*
X073113Y022382D01*
X073161Y022773D02*
X073355Y022773D01*
D13*
X063613Y019967D02*
X061863Y019967D01*
X061738Y019842D01*
X054863Y023217D02*
X053363Y023217D01*
X046580Y022517D02*
X046582Y022539D01*
X046588Y022561D01*
X046597Y022581D01*
X046610Y022599D01*
X046626Y022615D01*
X046644Y022628D01*
X046664Y022637D01*
X046686Y022643D01*
X046708Y022645D01*
X046730Y022643D01*
X046752Y022637D01*
X046772Y022628D01*
X046790Y022615D01*
X046806Y022599D01*
X046819Y022581D01*
X046828Y022561D01*
X046834Y022539D01*
X046836Y022517D01*
X046834Y022495D01*
X046828Y022473D01*
X046819Y022453D01*
X046806Y022435D01*
X046790Y022419D01*
X046772Y022406D01*
X046752Y022397D01*
X046730Y022391D01*
X046708Y022389D01*
X046686Y022391D01*
X046664Y022397D01*
X046644Y022406D01*
X046626Y022419D01*
X046610Y022435D01*
X046597Y022453D01*
X046588Y022473D01*
X046582Y022495D01*
X046580Y022517D01*
X037044Y022623D02*
X030169Y022623D01*
X030154Y022623D01*
X030963Y022023D02*
X031213Y022023D01*
X031213Y020773D01*
X030963Y020773D02*
X031213Y020023D01*
X031213Y019523D01*
X030963Y019523D01*
X030088Y018523D02*
X030074Y018523D01*
X030088Y018523D02*
X036963Y018523D01*
X036963Y018586D02*
X036963Y022523D01*
X037044Y022686D02*
X037044Y026623D01*
X036044Y025123D02*
X036044Y024873D01*
X036544Y024873D01*
X036544Y024373D01*
X036294Y024373D01*
X035794Y024873D01*
X036044Y024873D01*
X035794Y024873D02*
X035544Y024873D01*
X035544Y024373D01*
X036044Y024373D01*
X036044Y024123D01*
X036044Y024373D02*
X036294Y024373D01*
X036344Y024123D02*
X036346Y024136D01*
X036351Y024149D01*
X036360Y024160D01*
X036371Y024167D01*
X036384Y024172D01*
X036397Y024173D01*
X036411Y024170D01*
X036423Y024164D01*
X036433Y024155D01*
X036440Y024143D01*
X036444Y024130D01*
X036444Y024116D01*
X036440Y024103D01*
X036433Y024091D01*
X036423Y024082D01*
X036411Y024076D01*
X036397Y024073D01*
X036384Y024074D01*
X036371Y024079D01*
X036360Y024086D01*
X036351Y024097D01*
X036346Y024110D01*
X036344Y024123D01*
X031294Y024123D02*
X031294Y023623D01*
X031044Y023623D01*
X031294Y024123D02*
X031044Y024873D01*
X031294Y024873D02*
X031294Y026123D01*
X031044Y026123D01*
X042863Y026967D02*
X042863Y027717D01*
X043988Y029155D02*
X043988Y030342D01*
X043488Y030842D01*
X051113Y032092D02*
X051113Y028780D01*
X051113Y032092D02*
X051176Y032155D01*
X055301Y033342D02*
X056426Y033342D01*
X056676Y033092D01*
X061926Y033342D02*
X062863Y033342D01*
X063176Y033030D01*
X046168Y035712D02*
X045668Y035712D01*
X045668Y037087D02*
X046168Y037087D01*
X034863Y038967D02*
X034363Y038467D01*
X034863Y038967D02*
X034863Y039967D01*
X035963Y021023D02*
X035963Y020773D01*
X036463Y020773D01*
X036463Y020273D01*
X036213Y020273D01*
X035713Y020773D01*
X035963Y020773D01*
X035713Y020773D02*
X035463Y020773D01*
X035463Y020273D01*
X035963Y020273D01*
X035963Y020023D01*
X035963Y020273D02*
X036213Y020273D01*
X036263Y020023D02*
X036265Y020036D01*
X036270Y020049D01*
X036279Y020060D01*
X036290Y020067D01*
X036303Y020072D01*
X036316Y020073D01*
X036330Y020070D01*
X036342Y020064D01*
X036352Y020055D01*
X036359Y020043D01*
X036363Y020030D01*
X036363Y020016D01*
X036359Y020003D01*
X036352Y019991D01*
X036342Y019982D01*
X036330Y019976D01*
X036316Y019973D01*
X036303Y019974D01*
X036290Y019979D01*
X036279Y019986D01*
X036270Y019997D01*
X036265Y020010D01*
X036263Y020023D01*
X027599Y018981D02*
X027599Y018076D01*
X027599Y018981D02*
X026891Y018981D01*
X025946Y018981D02*
X025670Y018981D01*
X027599Y016658D02*
X027599Y015753D01*
X026891Y015753D01*
X025946Y015753D02*
X025670Y015753D01*
D14*
X037071Y020567D02*
X037071Y022167D01*
X037073Y022184D01*
X037077Y022201D01*
X037084Y022217D01*
X037094Y022231D01*
X037107Y022244D01*
X037121Y022254D01*
X037137Y022261D01*
X037154Y022265D01*
X037171Y022267D01*
X037771Y022267D01*
X037788Y022265D01*
X037805Y022261D01*
X037821Y022254D01*
X037835Y022244D01*
X037848Y022231D01*
X037858Y022217D01*
X037865Y022201D01*
X037869Y022184D01*
X037871Y022167D01*
X037871Y020567D01*
X037869Y020550D01*
X037865Y020533D01*
X037858Y020517D01*
X037848Y020503D01*
X037835Y020490D01*
X037821Y020480D01*
X037805Y020473D01*
X037788Y020469D01*
X037771Y020467D01*
X037171Y020467D01*
X037154Y020469D01*
X037137Y020473D01*
X037121Y020480D01*
X037107Y020490D01*
X037094Y020503D01*
X037084Y020517D01*
X037077Y020533D01*
X037073Y020550D01*
X037071Y020567D01*
X037471Y021117D02*
X037471Y021367D01*
X037721Y021367D01*
X037471Y021367D02*
X037221Y021367D01*
X037471Y021367D02*
X037221Y021767D01*
X037721Y021767D01*
X037471Y021367D01*
X037471Y021967D01*
X037763Y024623D02*
X037163Y024623D01*
X037146Y024625D01*
X037129Y024629D01*
X037113Y024636D01*
X037099Y024646D01*
X037086Y024659D01*
X037076Y024673D01*
X037069Y024689D01*
X037065Y024706D01*
X037063Y024723D01*
X037063Y026323D01*
X037065Y026340D01*
X037069Y026357D01*
X037076Y026373D01*
X037086Y026387D01*
X037099Y026400D01*
X037113Y026410D01*
X037129Y026417D01*
X037146Y026421D01*
X037163Y026423D01*
X037763Y026423D01*
X037780Y026421D01*
X037797Y026417D01*
X037813Y026410D01*
X037827Y026400D01*
X037840Y026387D01*
X037850Y026373D01*
X037857Y026357D01*
X037861Y026340D01*
X037863Y026323D01*
X037863Y024723D01*
X037861Y024706D01*
X037857Y024689D01*
X037850Y024673D01*
X037840Y024659D01*
X037827Y024646D01*
X037813Y024636D01*
X037797Y024629D01*
X037780Y024625D01*
X037763Y024623D01*
X037463Y025273D02*
X037463Y025523D01*
X037713Y025523D01*
X037463Y025523D02*
X037213Y025523D01*
X037463Y025523D02*
X037213Y025923D01*
X037713Y025923D01*
X037463Y025523D01*
X037463Y026123D01*
X035798Y027650D02*
X039538Y027650D01*
X039538Y038084D01*
X035798Y038084D01*
X035798Y027650D01*
X035538Y027650D02*
X031798Y027650D01*
X031798Y038084D01*
X035538Y038084D01*
X035538Y027650D01*
X035118Y028367D02*
X035118Y028617D01*
X035118Y030617D01*
X034668Y030617D01*
X036218Y030617D02*
X036668Y030617D01*
X036218Y030617D02*
X036218Y028617D01*
X039118Y028617D02*
X039118Y028367D01*
X039118Y028617D02*
X039118Y030617D01*
X038668Y030617D01*
X032668Y030617D02*
X032218Y030617D01*
X032218Y028617D01*
X029668Y032367D02*
X029670Y032430D01*
X029676Y032492D01*
X029686Y032554D01*
X029699Y032616D01*
X029717Y032676D01*
X029738Y032735D01*
X029763Y032793D01*
X029792Y032849D01*
X029824Y032903D01*
X029859Y032955D01*
X029897Y033004D01*
X029939Y033052D01*
X029983Y033096D01*
X030031Y033138D01*
X030080Y033176D01*
X030132Y033211D01*
X030186Y033243D01*
X030242Y033272D01*
X030300Y033297D01*
X030359Y033318D01*
X030419Y033336D01*
X030481Y033349D01*
X030543Y033359D01*
X030605Y033365D01*
X030668Y033367D01*
X030731Y033365D01*
X030793Y033359D01*
X030855Y033349D01*
X030917Y033336D01*
X030977Y033318D01*
X031036Y033297D01*
X031094Y033272D01*
X031150Y033243D01*
X031204Y033211D01*
X031256Y033176D01*
X031305Y033138D01*
X031353Y033096D01*
X031397Y033052D01*
X031439Y033004D01*
X031477Y032955D01*
X031512Y032903D01*
X031544Y032849D01*
X031573Y032793D01*
X031598Y032735D01*
X031619Y032676D01*
X031637Y032616D01*
X031650Y032554D01*
X031660Y032492D01*
X031666Y032430D01*
X031668Y032367D01*
X031666Y032304D01*
X031660Y032242D01*
X031650Y032180D01*
X031637Y032118D01*
X031619Y032058D01*
X031598Y031999D01*
X031573Y031941D01*
X031544Y031885D01*
X031512Y031831D01*
X031477Y031779D01*
X031439Y031730D01*
X031397Y031682D01*
X031353Y031638D01*
X031305Y031596D01*
X031256Y031558D01*
X031204Y031523D01*
X031150Y031491D01*
X031094Y031462D01*
X031036Y031437D01*
X030977Y031416D01*
X030917Y031398D01*
X030855Y031385D01*
X030793Y031375D01*
X030731Y031369D01*
X030668Y031367D01*
X030605Y031369D01*
X030543Y031375D01*
X030481Y031385D01*
X030419Y031398D01*
X030359Y031416D01*
X030300Y031437D01*
X030242Y031462D01*
X030186Y031491D01*
X030132Y031523D01*
X030080Y031558D01*
X030031Y031596D01*
X029983Y031638D01*
X029939Y031682D01*
X029897Y031730D01*
X029859Y031779D01*
X029824Y031831D01*
X029792Y031885D01*
X029763Y031941D01*
X029738Y031999D01*
X029717Y032058D01*
X029699Y032118D01*
X029686Y032180D01*
X029676Y032242D01*
X029670Y032304D01*
X029668Y032367D01*
X030268Y032967D02*
X030268Y033167D01*
X030168Y033067D02*
X030368Y033067D01*
X030418Y035067D02*
X031418Y035067D01*
X031418Y036667D01*
X030418Y036667D01*
X030418Y035067D01*
X030918Y035617D02*
X030918Y035867D01*
X031168Y035867D01*
X030918Y035867D02*
X030668Y035867D01*
X030918Y035867D02*
X030668Y036267D01*
X031168Y036267D01*
X030918Y035867D01*
X030918Y036467D01*
X032218Y037117D02*
X032218Y035117D01*
X032668Y035117D01*
X034668Y035117D02*
X035118Y035117D01*
X035118Y037117D01*
X036218Y037117D02*
X036218Y035117D01*
X036668Y035117D01*
X038668Y035117D02*
X039118Y035117D01*
X039118Y037117D01*
X042198Y038504D02*
X042305Y038397D01*
X042412Y038397D01*
X042518Y038504D01*
X042518Y039038D01*
X042412Y039038D02*
X042625Y039038D01*
X042843Y038931D02*
X042949Y039038D01*
X043163Y039038D01*
X043270Y038931D01*
X043270Y038824D01*
X042843Y038397D01*
X043270Y038397D01*
X048504Y037849D02*
X048610Y037742D01*
X048717Y037742D01*
X048824Y037849D01*
X048824Y038383D01*
X048717Y038383D02*
X048931Y038383D01*
X049148Y038063D02*
X049468Y038063D01*
X049575Y037956D01*
X049575Y037849D01*
X049468Y037742D01*
X049255Y037742D01*
X049148Y037849D01*
X049148Y038063D01*
X049362Y038276D01*
X049575Y038383D01*
X055004Y037849D02*
X055110Y037742D01*
X055217Y037742D01*
X055324Y037849D01*
X055324Y038383D01*
X055217Y038383D02*
X055431Y038383D01*
X055648Y038063D02*
X056075Y038063D01*
X055968Y038383D02*
X055648Y038063D01*
X055968Y038383D02*
X055968Y037742D01*
X061504Y037849D02*
X061610Y037742D01*
X061717Y037742D01*
X061824Y037849D01*
X061824Y038383D01*
X061717Y038383D02*
X061931Y038383D01*
X062148Y038383D02*
X062148Y038063D01*
X062362Y038169D01*
X062468Y038169D01*
X062575Y038063D01*
X062575Y037849D01*
X062468Y037742D01*
X062255Y037742D01*
X062148Y037849D01*
X062148Y038383D02*
X062575Y038383D01*
X071668Y035867D02*
X071668Y035367D01*
X071918Y035117D01*
X071668Y034867D01*
X071668Y034367D01*
X071918Y034117D01*
X071668Y033867D01*
X071668Y033367D01*
X071918Y033117D01*
X071668Y032867D01*
X071668Y032367D01*
X071918Y032117D01*
X072418Y032117D01*
X072668Y032367D01*
X072668Y032867D01*
X072418Y033117D01*
X072668Y033367D01*
X072668Y033867D01*
X072418Y034117D01*
X072668Y034367D01*
X072668Y034867D01*
X072418Y035117D01*
X072668Y035367D01*
X072668Y035867D01*
X072418Y036117D01*
X071918Y036117D01*
X071668Y035867D01*
X071918Y031117D02*
X071668Y030867D01*
X071668Y030367D01*
X071918Y030117D01*
X071668Y029867D01*
X071668Y029367D01*
X071918Y029117D01*
X071668Y028867D01*
X071668Y028367D01*
X071918Y028117D01*
X071668Y027867D01*
X071668Y027367D01*
X071918Y027117D01*
X072418Y027117D01*
X072668Y027367D01*
X072668Y027867D01*
X072418Y028117D01*
X072668Y028367D01*
X072668Y028867D01*
X072418Y029117D01*
X072668Y029367D01*
X072668Y029867D01*
X072418Y030117D01*
X072668Y030367D01*
X072668Y030867D01*
X072418Y031117D01*
X071918Y031117D01*
X071918Y026117D02*
X071668Y025867D01*
X071668Y025367D01*
X071918Y025117D01*
X071668Y024867D01*
X071668Y024367D01*
X071918Y024117D01*
X071668Y023867D01*
X071668Y023367D01*
X071918Y023117D01*
X071668Y022867D01*
X071668Y022367D01*
X071918Y022117D01*
X072418Y022117D01*
X072668Y022367D01*
X072668Y022867D01*
X072418Y023117D01*
X072668Y023367D01*
X072668Y023867D01*
X072418Y024117D01*
X072668Y024367D01*
X072668Y024867D01*
X072418Y025117D01*
X072668Y025367D01*
X072668Y025867D01*
X072418Y026117D01*
X071918Y026117D01*
X056463Y026023D02*
X056463Y025523D01*
X056213Y025273D01*
X055713Y025273D01*
X055463Y025523D01*
X055213Y025273D01*
X054713Y025273D01*
X054463Y025523D01*
X054213Y025273D01*
X053713Y025273D01*
X053463Y025523D01*
X053213Y025273D01*
X052713Y025273D01*
X052463Y025523D01*
X052213Y025273D01*
X051713Y025273D01*
X051463Y025523D01*
X051213Y025273D01*
X050713Y025273D01*
X050463Y025523D01*
X050463Y026023D01*
X050713Y026273D01*
X051213Y026273D01*
X051463Y026023D01*
X051713Y026273D01*
X052213Y026273D01*
X052463Y026023D01*
X052713Y026273D01*
X053213Y026273D01*
X053463Y026023D01*
X053713Y026273D01*
X054213Y026273D01*
X054463Y026023D01*
X054713Y026273D01*
X055213Y026273D01*
X055463Y026023D01*
X055713Y026273D01*
X056213Y026273D01*
X056463Y026023D01*
X047546Y023257D02*
X047546Y022284D01*
X047545Y022267D01*
X047540Y022250D01*
X047533Y022235D01*
X047523Y022221D01*
X047511Y022209D01*
X047497Y022199D01*
X047482Y022192D01*
X047465Y022187D01*
X047448Y022186D01*
X047452Y022186D02*
X046483Y022186D01*
X046381Y022288D02*
X046381Y023257D01*
X046483Y023355D02*
X047452Y023355D01*
X047448Y023355D02*
X047465Y023354D01*
X047482Y023349D01*
X047497Y023342D01*
X047511Y023332D01*
X047523Y023320D01*
X047533Y023306D01*
X047540Y023291D01*
X047545Y023274D01*
X047546Y023257D01*
X067348Y018998D02*
X068768Y018998D01*
X068768Y017138D02*
X067348Y017138D01*
D15*
X030918Y035317D03*
D16*
X030918Y034692D03*
X030918Y037042D03*
D17*
X030243Y036103D02*
X030243Y035802D01*
X030243Y035953D02*
X029793Y035953D01*
X029943Y035802D01*
X029868Y035642D02*
X029793Y035567D01*
X029793Y035342D01*
X030243Y035342D01*
X030243Y035567D01*
X030168Y035642D01*
X029868Y035642D01*
X029538Y035773D02*
X029538Y023961D01*
X026290Y023961D01*
X026290Y025930D01*
X025798Y025930D01*
X025798Y023961D01*
X026290Y023961D01*
X029838Y022648D02*
X029838Y018523D01*
X030088Y018523D01*
X037996Y019542D02*
X037996Y019767D01*
X038071Y019842D01*
X038371Y019842D01*
X038446Y019767D01*
X038446Y019542D01*
X037996Y019542D01*
X038221Y020002D02*
X038221Y020303D01*
X037996Y020228D02*
X038221Y020002D01*
X038446Y020228D02*
X037996Y020228D01*
X036963Y022523D02*
X036963Y022648D01*
X029838Y022648D01*
X029919Y022623D02*
X030169Y022623D01*
X029919Y022623D02*
X029919Y026748D01*
X037044Y026748D01*
X037044Y026623D01*
X038063Y024408D02*
X037988Y024333D01*
X037988Y024183D01*
X038063Y024108D01*
X038063Y023948D02*
X037988Y023873D01*
X037988Y023648D01*
X038438Y023648D01*
X038438Y023873D01*
X038363Y023948D01*
X038063Y023948D01*
X038438Y024108D02*
X038138Y024408D01*
X038063Y024408D01*
X038438Y024408D02*
X038438Y024108D01*
X026290Y025930D02*
X026290Y027899D01*
X025798Y027899D01*
X025798Y025930D01*
X025798Y027899D02*
X025798Y029867D01*
X026290Y029867D01*
X026290Y027899D01*
X026290Y029867D02*
X026290Y031836D01*
X025798Y031836D01*
X025798Y029867D01*
X025798Y031836D02*
X025798Y033804D01*
X026290Y033804D01*
X026290Y031836D01*
X029693Y033617D02*
X029768Y033542D01*
X029918Y033542D01*
X029993Y033617D01*
X030154Y033617D02*
X030229Y033542D01*
X030379Y033542D01*
X030454Y033617D01*
X030454Y033767D01*
X030379Y033842D01*
X030304Y033842D01*
X030154Y033767D01*
X030154Y033992D01*
X030454Y033992D01*
X029993Y033917D02*
X029918Y033992D01*
X029768Y033992D01*
X029693Y033917D01*
X029693Y033617D01*
X026290Y033804D02*
X026290Y035773D01*
X029538Y035773D01*
X026290Y035773D02*
X025798Y035773D01*
X025798Y033804D01*
X050738Y024948D02*
X050889Y025098D01*
X050889Y024648D01*
X051039Y024648D02*
X050738Y024648D01*
X051738Y024523D02*
X051814Y024448D01*
X051889Y024448D01*
X051964Y024523D01*
X051964Y024898D01*
X051889Y024898D02*
X052039Y024898D01*
X052199Y024898D02*
X052424Y024898D01*
X052499Y024823D01*
X052499Y024673D01*
X052424Y024598D01*
X052199Y024598D01*
X052199Y024448D02*
X052199Y024898D01*
X052659Y024673D02*
X052960Y024673D01*
X052884Y024898D02*
X052659Y024673D01*
X052884Y024448D02*
X052884Y024898D01*
X055738Y026523D02*
X055814Y026448D01*
X055964Y026448D01*
X056039Y026523D01*
X056039Y026598D01*
X055964Y026673D01*
X055738Y026673D01*
X055738Y026523D01*
X055738Y026673D02*
X055889Y026823D01*
X056039Y026898D01*
X069843Y029336D02*
X069918Y029261D01*
X069993Y029261D01*
X070068Y029336D01*
X070068Y029486D01*
X070143Y029561D01*
X070218Y029561D01*
X070293Y029486D01*
X070293Y029336D01*
X070218Y029261D01*
X069843Y029336D02*
X069843Y029486D01*
X069918Y029561D01*
X069843Y029721D02*
X070143Y029721D01*
X070293Y029871D01*
X070143Y030021D01*
X069843Y030021D01*
X069993Y030182D02*
X069843Y030332D01*
X070293Y030332D01*
X070293Y030182D02*
X070293Y030482D01*
X071943Y031282D02*
X072393Y031282D01*
X072393Y031132D02*
X072393Y031432D01*
X072168Y031582D02*
X072168Y031882D01*
X072393Y031807D02*
X071943Y031807D01*
X072168Y031582D01*
X071943Y031282D02*
X072093Y031132D01*
X072168Y026882D02*
X072168Y026582D01*
X071943Y026807D01*
X072393Y026807D01*
X072393Y026432D02*
X072393Y026132D01*
X072393Y026282D02*
X071943Y026282D01*
X072093Y026132D01*
X070543Y025407D02*
X070543Y025257D01*
X070468Y025182D01*
X070393Y025021D02*
X070093Y025021D01*
X070168Y025182D02*
X070093Y025257D01*
X070093Y025407D01*
X070168Y025482D01*
X070243Y025482D01*
X070318Y025407D01*
X070393Y025482D01*
X070468Y025482D01*
X070543Y025407D01*
X070318Y025407D02*
X070318Y025332D01*
X070393Y025021D02*
X070543Y024871D01*
X070393Y024721D01*
X070093Y024721D01*
X070168Y024561D02*
X070093Y024486D01*
X070093Y024336D01*
X070168Y024261D01*
X070243Y024261D01*
X070318Y024336D01*
X070318Y024486D01*
X070393Y024561D01*
X070468Y024561D01*
X070543Y024486D01*
X070543Y024336D01*
X070468Y024261D01*
X071943Y021807D02*
X072168Y021582D01*
X072168Y021882D01*
X072393Y021807D02*
X071943Y021807D01*
X065453Y018748D02*
X065453Y018673D01*
X065378Y018598D01*
X065453Y018523D01*
X065453Y018448D01*
X065378Y018373D01*
X065228Y018373D01*
X065153Y018448D01*
X065303Y018598D02*
X065378Y018598D01*
X065453Y018748D02*
X065378Y018823D01*
X065228Y018823D01*
X065153Y018748D01*
X064992Y018748D02*
X064992Y018598D01*
X064917Y018523D01*
X064692Y018523D01*
X064692Y018373D02*
X064692Y018823D01*
X064917Y018823D01*
X064992Y018748D01*
X064532Y018823D02*
X064382Y018823D01*
X064457Y018823D02*
X064457Y018448D01*
X064382Y018373D01*
X064307Y018373D01*
X064232Y018448D01*
X063634Y018062D02*
X063334Y018062D01*
X063334Y017837D01*
X063484Y017912D01*
X063559Y017912D01*
X063634Y017837D01*
X063634Y017687D01*
X063559Y017612D01*
X063409Y017612D01*
X063334Y017687D01*
X063174Y017837D02*
X063099Y017762D01*
X062874Y017762D01*
X062874Y017612D02*
X062874Y018062D01*
X063099Y018062D01*
X063174Y017987D01*
X063174Y017837D01*
X062713Y018062D02*
X062563Y018062D01*
X062638Y018062D02*
X062638Y017687D01*
X062563Y017612D01*
X062488Y017612D01*
X062413Y017687D01*
X066631Y035936D02*
X068206Y035936D01*
X071943Y036282D02*
X072393Y036282D01*
X072393Y036132D02*
X072393Y036432D01*
X072093Y036132D02*
X071943Y036282D01*
X072843Y036336D02*
X072918Y036261D01*
X072993Y036261D01*
X073068Y036336D01*
X073068Y036486D01*
X073143Y036561D01*
X073218Y036561D01*
X073293Y036486D01*
X073293Y036336D01*
X073218Y036261D01*
X072843Y036336D02*
X072843Y036486D01*
X072918Y036561D01*
X072843Y036721D02*
X073143Y036721D01*
X073293Y036871D01*
X073143Y037021D01*
X072843Y037021D01*
X072918Y037182D02*
X072843Y037257D01*
X072843Y037407D01*
X072918Y037482D01*
X072993Y037482D01*
X073293Y037182D01*
X073293Y037482D01*
X068206Y038298D02*
X066631Y038298D01*
D18*
X037463Y024873D03*
X037471Y020717D03*
D19*
X037471Y020342D03*
X037471Y022392D03*
X037463Y024498D03*
X037463Y026548D03*
D20*
X037668Y030817D02*
X037668Y034917D01*
X036518Y034867D02*
X036518Y030867D01*
X034818Y030867D02*
X034818Y034867D01*
X033668Y034917D02*
X033668Y030817D01*
X032518Y030867D02*
X032518Y034867D01*
X038818Y034867D02*
X038818Y030867D01*
D21*
X038693Y030742D03*
X036643Y030742D03*
X034693Y030742D03*
X032643Y030742D03*
X032643Y034992D03*
X034693Y034992D03*
X036643Y034992D03*
X038693Y034992D03*
D22*
X037668Y034992D03*
X033668Y034992D03*
X033668Y030742D03*
X037668Y030742D03*
D23*
X036718Y032867D03*
X038618Y032867D03*
X034618Y032867D03*
X032718Y032867D03*
D24*
X033141Y032408D02*
X033561Y032408D01*
X033785Y032197D02*
X033995Y032408D01*
X033995Y031777D01*
X033785Y031777D02*
X034206Y031777D01*
X033351Y032092D02*
X033141Y032092D01*
X033141Y031777D02*
X033141Y032408D01*
X037141Y032533D02*
X037141Y031902D01*
X037141Y032217D02*
X037351Y032217D01*
X037141Y032533D02*
X037561Y032533D01*
X037785Y032427D02*
X037890Y032533D01*
X038101Y032533D01*
X038206Y032427D01*
X038206Y032322D01*
X037785Y031902D01*
X038206Y031902D01*
D25*
X039961Y034062D02*
X039961Y041188D01*
X045376Y041188D01*
X045376Y034062D01*
X039961Y034062D01*
X046461Y034062D02*
X046461Y041188D01*
X051876Y041188D01*
X051876Y034062D01*
X046461Y034062D01*
X052961Y034062D02*
X052961Y041188D01*
X058376Y041188D01*
X058376Y034062D01*
X052961Y034062D01*
X059461Y034062D02*
X059461Y041188D01*
X064876Y041188D01*
X064876Y034062D01*
X059461Y034062D01*
X044843Y027902D02*
X044843Y027706D01*
X044843Y027902D02*
X044647Y027902D01*
X043780Y027902D02*
X043584Y027902D01*
X043584Y027706D01*
X043584Y026839D02*
X043780Y026643D01*
X044647Y026643D02*
X044843Y026643D01*
X044843Y026839D01*
X044618Y025817D02*
X044518Y025817D01*
X042218Y025817D01*
X042118Y025717D01*
X042118Y023517D01*
X042218Y023417D01*
X044618Y023417D01*
X044718Y023517D01*
X044718Y025717D01*
X044618Y025817D01*
X045070Y025467D02*
X045857Y025467D01*
X045857Y024916D01*
X045739Y024641D02*
X045463Y024641D01*
X045700Y024404D01*
X045227Y024404D01*
X045463Y024641D01*
X045188Y024641D01*
X045070Y024916D02*
X045070Y025467D01*
X043568Y024617D02*
X043570Y024630D01*
X043575Y024643D01*
X043584Y024654D01*
X043595Y024661D01*
X043608Y024666D01*
X043621Y024667D01*
X043635Y024664D01*
X043647Y024658D01*
X043657Y024649D01*
X043664Y024637D01*
X043668Y024624D01*
X043668Y024610D01*
X043664Y024597D01*
X043657Y024585D01*
X043647Y024576D01*
X043635Y024570D01*
X043621Y024567D01*
X043608Y024568D01*
X043595Y024573D01*
X043584Y024580D01*
X043575Y024591D01*
X043570Y024604D01*
X043568Y024617D01*
X045070Y024129D02*
X045070Y023578D01*
X045857Y023578D01*
X045857Y024129D01*
X057050Y024432D02*
X057050Y024826D01*
X057444Y024826D01*
X060672Y024826D02*
X061066Y024432D01*
X061066Y021204D02*
X061066Y020810D01*
X060672Y020810D01*
X060664Y019711D02*
X060113Y019711D01*
X060113Y018924D01*
X060664Y018924D01*
X060940Y019042D02*
X060940Y019318D01*
X061176Y019554D01*
X061176Y019082D01*
X060940Y019318D01*
X060940Y019593D01*
X061452Y019711D02*
X062003Y019711D01*
X062003Y018924D01*
X061452Y018924D01*
X061418Y018367D02*
X061918Y018367D01*
X062168Y018117D01*
X062168Y017617D01*
X061918Y017367D01*
X061418Y017367D01*
X061168Y017617D01*
X060918Y017367D01*
X060418Y017367D01*
X060168Y017617D01*
X060168Y018117D01*
X060418Y018367D01*
X060918Y018367D01*
X061168Y018117D01*
X061418Y018367D01*
X064558Y019318D02*
X064558Y019818D01*
X064808Y020068D01*
X065308Y020068D01*
X065558Y019818D01*
X065808Y020068D01*
X066308Y020068D01*
X066558Y019818D01*
X066558Y019318D01*
X066308Y019068D01*
X065808Y019068D01*
X065558Y019318D01*
X065308Y019068D01*
X064808Y019068D01*
X064558Y019318D01*
X067611Y018778D02*
X067613Y018793D01*
X067619Y018806D01*
X067628Y018818D01*
X067639Y018827D01*
X067653Y018833D01*
X067668Y018835D01*
X067683Y018833D01*
X067696Y018827D01*
X067708Y018818D01*
X067717Y018807D01*
X067723Y018793D01*
X067725Y018778D01*
X067723Y018763D01*
X067717Y018750D01*
X067708Y018738D01*
X067697Y018729D01*
X067683Y018723D01*
X067668Y018721D01*
X067653Y018723D01*
X067640Y018729D01*
X067628Y018738D01*
X067619Y018749D01*
X067613Y018763D01*
X067611Y018778D01*
X057444Y020810D02*
X057050Y020810D01*
X057050Y021204D01*
X047503Y018456D02*
X047188Y018456D01*
X047188Y018337D01*
X047188Y017708D02*
X047188Y017589D01*
X047503Y017589D01*
X043003Y017721D02*
X042688Y017721D01*
X042688Y017958D01*
X041574Y017973D02*
X041574Y017796D01*
X039763Y017796D01*
X039763Y017973D01*
X038763Y018112D02*
X038263Y018112D01*
X038263Y018712D02*
X038763Y018712D01*
X039763Y018761D02*
X039763Y018938D01*
X041574Y018938D01*
X041574Y018761D01*
X041062Y018761D02*
X041062Y017973D01*
X042688Y018587D02*
X042688Y018824D01*
X043003Y018824D01*
X029562Y037042D02*
X029286Y037042D01*
X029562Y037042D02*
X029562Y037869D01*
X027436Y037042D02*
X025349Y037042D01*
X025349Y040586D01*
X029562Y040586D01*
X029562Y039759D01*
D26*
X066193Y038517D02*
X066195Y038527D01*
X066200Y038535D01*
X066208Y038540D01*
X066218Y038542D01*
X066228Y038540D01*
X066236Y038535D01*
X066241Y038527D01*
X066243Y038517D01*
X066241Y038507D01*
X066236Y038499D01*
X066228Y038494D01*
X066218Y038492D01*
X066208Y038494D01*
X066200Y038499D01*
X066195Y038507D01*
X066193Y038517D01*
D27*
X046477Y023381D02*
X046477Y023327D01*
X046476Y023328D02*
X046461Y023326D01*
X046447Y023320D01*
X046434Y023312D01*
X046424Y023302D01*
X046416Y023289D01*
X046410Y023275D01*
X046408Y023260D01*
X046355Y023259D01*
X046354Y023260D01*
X046356Y023281D01*
X046362Y023301D01*
X046371Y023320D01*
X046383Y023338D01*
X046398Y023353D01*
X046416Y023365D01*
X046435Y023374D01*
X046455Y023380D01*
X046476Y023382D01*
X046476Y023377D01*
X046456Y023375D01*
X046436Y023369D01*
X046418Y023360D01*
X046402Y023349D01*
X046387Y023334D01*
X046376Y023318D01*
X046367Y023300D01*
X046361Y023280D01*
X046359Y023260D01*
X046364Y023260D01*
X046366Y023279D01*
X046372Y023298D01*
X046380Y023315D01*
X046391Y023331D01*
X046405Y023345D01*
X046421Y023356D01*
X046438Y023364D01*
X046457Y023370D01*
X046476Y023372D01*
X046476Y023367D01*
X046458Y023365D01*
X046440Y023360D01*
X046423Y023352D01*
X046408Y023341D01*
X046395Y023328D01*
X046384Y023313D01*
X046376Y023296D01*
X046371Y023278D01*
X046369Y023260D01*
X046374Y023260D01*
X046376Y023280D01*
X046383Y023299D01*
X046392Y023316D01*
X046405Y023331D01*
X046420Y023344D01*
X046437Y023353D01*
X046456Y023360D01*
X046476Y023362D01*
X046476Y023357D01*
X046457Y023355D01*
X046439Y023349D01*
X046423Y023340D01*
X046408Y023328D01*
X046396Y023313D01*
X046387Y023297D01*
X046381Y023279D01*
X046379Y023260D01*
X046384Y023260D01*
X046386Y023278D01*
X046392Y023295D01*
X046400Y023310D01*
X046412Y023324D01*
X046426Y023336D01*
X046441Y023344D01*
X046458Y023350D01*
X046476Y023352D01*
X046476Y023347D01*
X046459Y023345D01*
X046443Y023340D01*
X046428Y023331D01*
X046415Y023321D01*
X046405Y023308D01*
X046396Y023293D01*
X046391Y023277D01*
X046389Y023260D01*
X046394Y023260D01*
X046396Y023276D01*
X046401Y023291D01*
X046409Y023305D01*
X046419Y023317D01*
X046431Y023327D01*
X046445Y023335D01*
X046460Y023340D01*
X046476Y023342D01*
X046476Y023337D01*
X046459Y023334D01*
X046443Y023329D01*
X046429Y023319D01*
X046417Y023307D01*
X046407Y023293D01*
X046402Y023277D01*
X046399Y023260D01*
X046404Y023260D01*
X046406Y023276D01*
X046412Y023291D01*
X046421Y023304D01*
X046432Y023315D01*
X046445Y023324D01*
X046460Y023330D01*
X046476Y023332D01*
X046355Y022282D02*
X046409Y022282D01*
X046408Y022281D02*
X046410Y022266D01*
X046416Y022252D01*
X046424Y022239D01*
X046434Y022229D01*
X046447Y022221D01*
X046461Y022215D01*
X046476Y022213D01*
X046477Y022160D01*
X046476Y022159D01*
X046455Y022161D01*
X046435Y022167D01*
X046416Y022176D01*
X046398Y022188D01*
X046383Y022203D01*
X046371Y022221D01*
X046362Y022240D01*
X046356Y022260D01*
X046354Y022281D01*
X046359Y022281D01*
X046361Y022261D01*
X046367Y022241D01*
X046376Y022223D01*
X046387Y022207D01*
X046402Y022192D01*
X046418Y022181D01*
X046436Y022172D01*
X046456Y022166D01*
X046476Y022164D01*
X046476Y022169D01*
X046457Y022171D01*
X046438Y022177D01*
X046421Y022185D01*
X046405Y022196D01*
X046391Y022210D01*
X046380Y022226D01*
X046372Y022243D01*
X046366Y022262D01*
X046364Y022281D01*
X046369Y022281D01*
X046371Y022263D01*
X046376Y022245D01*
X046384Y022228D01*
X046395Y022213D01*
X046408Y022200D01*
X046423Y022189D01*
X046440Y022181D01*
X046458Y022176D01*
X046476Y022174D01*
X046476Y022179D01*
X046456Y022181D01*
X046437Y022188D01*
X046420Y022197D01*
X046405Y022210D01*
X046392Y022225D01*
X046383Y022242D01*
X046376Y022261D01*
X046374Y022281D01*
X046379Y022281D01*
X046381Y022262D01*
X046387Y022244D01*
X046396Y022228D01*
X046408Y022213D01*
X046423Y022201D01*
X046439Y022192D01*
X046457Y022186D01*
X046476Y022184D01*
X046476Y022189D01*
X046458Y022191D01*
X046441Y022197D01*
X046426Y022205D01*
X046412Y022217D01*
X046400Y022231D01*
X046392Y022246D01*
X046386Y022263D01*
X046384Y022281D01*
X046389Y022281D01*
X046391Y022264D01*
X046396Y022248D01*
X046405Y022233D01*
X046415Y022220D01*
X046428Y022210D01*
X046443Y022201D01*
X046459Y022196D01*
X046476Y022194D01*
X046476Y022199D01*
X046460Y022201D01*
X046445Y022206D01*
X046431Y022214D01*
X046419Y022224D01*
X046409Y022236D01*
X046401Y022250D01*
X046396Y022265D01*
X046394Y022281D01*
X046399Y022281D01*
X046402Y022264D01*
X046407Y022248D01*
X046417Y022234D01*
X046429Y022222D01*
X046443Y022212D01*
X046459Y022207D01*
X046476Y022204D01*
X046476Y022209D01*
X046460Y022211D01*
X046445Y022217D01*
X046432Y022226D01*
X046421Y022237D01*
X046412Y022250D01*
X046406Y022265D01*
X046404Y022281D01*
M02*
