G75*
%MOIN*%
%OFA0B0*%
%FSLAX24Y24*%
%IPPOS*%
%LPD*%
%AMOC8*
5,1,8,0,0,1.08239X$1,22.5*
%
%ADD10C,0.0100*%
%ADD11R,0.0630X0.0710*%
%ADD12R,0.0709X0.0630*%
%ADD13R,0.0630X0.0709*%
%ADD14C,0.0660*%
%ADD15C,0.0520*%
%ADD16C,0.0600*%
%ADD17R,0.0866X0.0236*%
%ADD18R,0.0710X0.0630*%
%ADD19C,0.1500*%
%ADD20C,0.1181*%
%ADD21C,0.1575*%
%ADD22C,0.0787*%
%ADD23R,0.0551X0.0394*%
%ADD24C,0.0550*%
%ADD25R,0.1181X0.0354*%
%ADD26R,0.0870X0.0240*%
%ADD27R,0.0768X0.0984*%
%ADD28R,0.0087X0.0394*%
%ADD29R,0.0394X0.0087*%
%ADD30R,0.0472X0.0551*%
%ADD31R,0.0551X0.0472*%
%ADD32C,0.0110*%
%ADD33R,0.0661X0.0661*%
%ADD34R,0.0354X0.0315*%
%ADD35R,0.0276X0.0276*%
%ADD36R,0.0500X0.0579*%
%ADD37R,0.0394X0.0709*%
%ADD38R,0.0846X0.2165*%
%ADD39R,0.0551X0.0157*%
%ADD40R,0.0748X0.0787*%
%ADD41R,0.0748X0.0866*%
%ADD42R,0.0157X0.0433*%
%ADD43C,0.0250*%
%ADD44C,0.0740*%
%ADD45R,0.0394X0.0551*%
%ADD46R,0.0433X0.0394*%
%ADD47C,0.0240*%
%ADD48C,0.0396*%
%ADD49C,0.0120*%
%ADD50C,0.0700*%
%ADD51C,0.0160*%
%ADD52C,0.0080*%
%ADD53C,0.0320*%
%ADD54C,0.0500*%
%ADD55C,0.0400*%
%ADD56C,0.0760*%
%ADD57C,0.0560*%
%ADD58C,0.0420*%
%ADD59C,0.0360*%
%ADD60C,0.0660*%
%ADD61C,0.1000*%
%ADD62C,0.1581*%
%ADD63C,0.0079*%
D10*
X026432Y014452D02*
X026434Y014499D01*
X026440Y014545D01*
X026450Y014591D01*
X026463Y014636D01*
X026480Y014679D01*
X026501Y014721D01*
X026525Y014761D01*
X026553Y014799D01*
X026584Y014835D01*
X026617Y014867D01*
X026653Y014897D01*
X026691Y014924D01*
X026732Y014947D01*
X026774Y014967D01*
X026818Y014984D01*
X026863Y014996D01*
X026909Y015005D01*
X026956Y015010D01*
X027003Y015011D01*
X027049Y015008D01*
X027096Y015001D01*
X027141Y014990D01*
X027186Y014976D01*
X027229Y014958D01*
X027270Y014936D01*
X027310Y014911D01*
X027347Y014883D01*
X027382Y014851D01*
X027414Y014817D01*
X027443Y014781D01*
X027469Y014742D01*
X027492Y014701D01*
X027511Y014658D01*
X027526Y014614D01*
X027538Y014568D01*
X027546Y014522D01*
X027550Y014475D01*
X027550Y014429D01*
X027546Y014382D01*
X027538Y014336D01*
X027526Y014290D01*
X027511Y014246D01*
X027492Y014203D01*
X027469Y014162D01*
X027443Y014123D01*
X027414Y014087D01*
X027382Y014053D01*
X027347Y014021D01*
X027310Y013993D01*
X027271Y013968D01*
X027229Y013946D01*
X027186Y013928D01*
X027141Y013914D01*
X027096Y013903D01*
X027049Y013896D01*
X027003Y013893D01*
X026956Y013894D01*
X026909Y013899D01*
X026863Y013908D01*
X026818Y013920D01*
X026774Y013937D01*
X026732Y013957D01*
X026691Y013980D01*
X026653Y014007D01*
X026617Y014037D01*
X026584Y014069D01*
X026553Y014105D01*
X026525Y014143D01*
X026501Y014183D01*
X026480Y014225D01*
X026463Y014268D01*
X026450Y014313D01*
X026440Y014359D01*
X026434Y014405D01*
X026432Y014452D01*
X048363Y024217D02*
X049113Y023467D01*
X049113Y023967D02*
X048988Y024092D01*
X048863Y024092D01*
X048613Y024342D01*
X048613Y024717D01*
X048363Y024717D02*
X048363Y024217D01*
X048863Y024717D02*
X049113Y024467D01*
X050613Y022967D02*
X050988Y023342D01*
X054551Y023342D01*
X054926Y022967D01*
X054926Y022655D02*
X054426Y023155D01*
X051301Y023155D01*
X051113Y022967D01*
X054926Y022655D02*
X054988Y022655D01*
X055426Y022220D02*
X055553Y022217D01*
X056238Y022217D01*
X056543Y022523D01*
X056794Y022523D01*
X057363Y022467D02*
X057863Y022967D01*
X057863Y023717D01*
X056426Y025155D01*
X056426Y027155D01*
X056363Y027217D01*
X056363Y028217D01*
X056113Y028467D01*
X056363Y028717D02*
X056551Y028530D01*
X056551Y027342D01*
X056613Y027280D01*
X056613Y025280D01*
X058051Y023842D01*
X058051Y022842D01*
X057863Y022655D01*
X057863Y022217D01*
X057613Y021967D01*
X057613Y021655D01*
X057300Y021341D01*
X056794Y021341D01*
X056794Y021538D02*
X057184Y021538D01*
X057363Y021717D01*
X057363Y022217D01*
X057363Y022467D01*
X058238Y022842D02*
X058238Y023967D01*
X056801Y025405D01*
X056801Y027405D01*
X056738Y027467D01*
X056738Y028842D01*
X056613Y028967D01*
X056926Y029155D02*
X056926Y027592D01*
X056988Y027530D01*
X056988Y025530D01*
X057436Y025082D01*
X057582Y025082D01*
X057488Y025592D02*
X057176Y025905D01*
X057176Y027655D01*
X057113Y027717D01*
X057113Y028717D01*
X057238Y028842D01*
X059113Y029408D02*
X059116Y029405D01*
X059863Y029405D01*
X060113Y029155D01*
X060113Y026280D01*
X059926Y026092D01*
X059926Y025905D01*
X059747Y025726D01*
X059747Y025082D01*
X059944Y025082D02*
X059944Y024762D01*
X059988Y024717D01*
X060676Y024717D01*
X060738Y024780D01*
X060738Y025780D01*
X060801Y025842D01*
X060801Y028405D01*
X060926Y028530D01*
X060613Y028717D02*
X060613Y025967D01*
X060337Y025692D01*
X060337Y025082D01*
X060141Y025082D02*
X060141Y025995D01*
X060363Y026217D01*
X060363Y028967D01*
X063485Y027405D02*
X063988Y027405D01*
X064176Y027217D01*
X064176Y022467D01*
X063640Y021932D01*
X061322Y021932D01*
X061322Y022129D02*
X063524Y022129D01*
X063988Y022592D01*
X063988Y026405D01*
X063926Y026467D01*
X063485Y026467D01*
X063485Y025530D02*
X063485Y022448D01*
X063363Y022326D01*
X061322Y022326D01*
X060113Y021905D02*
X059676Y022342D01*
X059051Y022342D01*
X058426Y022967D01*
X058426Y024280D01*
X058238Y024467D01*
X058801Y024530D02*
X060363Y022967D01*
X059551Y022155D02*
X058926Y022155D01*
X058238Y022842D01*
X056794Y023310D02*
X056206Y023310D01*
X056176Y023280D01*
X056200Y024130D02*
X055422Y024130D01*
X055926Y024717D02*
X054863Y024717D01*
X054113Y025467D01*
X054113Y025623D01*
X053963Y025773D01*
X054963Y025773D02*
X054963Y025367D01*
X055363Y024967D01*
X056238Y024967D01*
X056794Y024411D01*
X056794Y024294D01*
X056426Y024217D02*
X055926Y024717D01*
X058763Y025082D02*
X058763Y025922D01*
X058713Y025721D01*
X059353Y025708D02*
X059353Y025082D01*
X058801Y024592D02*
X058801Y024530D01*
X059551Y022155D02*
X059738Y021967D01*
X059738Y021467D01*
X060613Y021467D01*
X061113Y020967D01*
X062363Y020967D01*
X062363Y020717D02*
X061051Y020717D01*
X060613Y021155D01*
X060113Y021155D01*
X060113Y021780D02*
X060113Y021905D01*
X058960Y021371D02*
X058960Y020554D01*
X058763Y020554D02*
X058763Y020068D01*
X058813Y020017D01*
X060188Y020017D01*
X060467Y019738D01*
X060467Y019318D01*
X059513Y019463D02*
X059509Y019467D01*
X058863Y019467D01*
X058566Y019765D01*
X058566Y020554D01*
X058566Y021015D01*
X058369Y020554D02*
X058369Y019223D01*
X058363Y019217D01*
X057863Y019217D02*
X057863Y019467D01*
X058172Y019776D01*
X058172Y020554D01*
X057975Y020554D02*
X057975Y020080D01*
X057863Y019967D01*
X056863Y019967D01*
X056763Y019867D01*
X056763Y019463D01*
X057238Y020155D02*
X057113Y020280D01*
X057238Y020155D02*
X057676Y020155D01*
X057778Y020258D01*
X057778Y020554D01*
X057582Y020554D02*
X057543Y020592D01*
X056926Y020592D01*
X056887Y020554D01*
X056700Y020554D01*
X056613Y020467D01*
X056176Y021380D02*
X056506Y021735D01*
X056794Y021735D01*
X056794Y021932D02*
X056265Y021932D01*
X056176Y021842D01*
X060926Y020405D02*
X061051Y020405D01*
X061113Y020467D01*
X062363Y020467D01*
X062363Y020217D02*
X061488Y020217D01*
X061426Y020155D01*
X061322Y021341D02*
X062489Y021341D01*
X044453Y026227D02*
X044312Y026369D01*
X044312Y026692D01*
X044115Y026692D01*
X043918Y026692D02*
X043918Y026202D01*
X043953Y026167D01*
X044123Y026167D01*
X044174Y026116D01*
X043883Y026997D02*
X043393Y026997D01*
X043373Y026977D01*
X043633Y026977D02*
X043633Y026997D01*
X043723Y027087D01*
X043903Y027087D01*
X043903Y027017D01*
X043883Y026997D01*
X043633Y026977D02*
X043633Y027174D01*
X044070Y027174D01*
X044113Y027217D01*
X044158Y027217D01*
X044213Y027273D01*
X044312Y027853D02*
X044115Y027853D01*
X043633Y027627D02*
X043633Y027627D01*
X043633Y027568D01*
X043633Y027371D02*
X043017Y027371D01*
X070330Y040239D02*
X070332Y040286D01*
X070338Y040332D01*
X070348Y040378D01*
X070361Y040423D01*
X070378Y040466D01*
X070399Y040508D01*
X070423Y040548D01*
X070451Y040586D01*
X070482Y040622D01*
X070515Y040654D01*
X070551Y040684D01*
X070589Y040711D01*
X070630Y040734D01*
X070672Y040754D01*
X070716Y040771D01*
X070761Y040783D01*
X070807Y040792D01*
X070854Y040797D01*
X070901Y040798D01*
X070947Y040795D01*
X070994Y040788D01*
X071039Y040777D01*
X071084Y040763D01*
X071127Y040745D01*
X071168Y040723D01*
X071208Y040698D01*
X071245Y040670D01*
X071280Y040638D01*
X071312Y040604D01*
X071341Y040568D01*
X071367Y040529D01*
X071390Y040488D01*
X071409Y040445D01*
X071424Y040401D01*
X071436Y040355D01*
X071444Y040309D01*
X071448Y040262D01*
X071448Y040216D01*
X071444Y040169D01*
X071436Y040123D01*
X071424Y040077D01*
X071409Y040033D01*
X071390Y039990D01*
X071367Y039949D01*
X071341Y039910D01*
X071312Y039874D01*
X071280Y039840D01*
X071245Y039808D01*
X071208Y039780D01*
X071169Y039755D01*
X071127Y039733D01*
X071084Y039715D01*
X071039Y039701D01*
X070994Y039690D01*
X070947Y039683D01*
X070901Y039680D01*
X070854Y039681D01*
X070807Y039686D01*
X070761Y039695D01*
X070716Y039707D01*
X070672Y039724D01*
X070630Y039744D01*
X070589Y039767D01*
X070551Y039794D01*
X070515Y039824D01*
X070482Y039856D01*
X070451Y039892D01*
X070423Y039930D01*
X070399Y039970D01*
X070378Y040012D01*
X070361Y040055D01*
X070348Y040100D01*
X070338Y040146D01*
X070332Y040192D01*
X070330Y040239D01*
D11*
X043368Y033318D03*
X042248Y033318D03*
X042248Y032318D03*
X043368Y032318D03*
X043398Y031398D03*
X042279Y031398D03*
X041073Y030523D03*
X039953Y030523D03*
X040103Y026117D03*
X041223Y026117D03*
X041223Y025162D03*
X040103Y025162D03*
X044358Y022867D03*
X045478Y022867D03*
X041323Y021273D03*
X040203Y021273D03*
X040203Y020412D03*
X041323Y020412D03*
X045108Y017867D03*
X046228Y017867D03*
X062498Y019318D03*
X063618Y019318D03*
X063953Y016787D03*
X065073Y016787D03*
X067748Y015568D03*
X068868Y015568D03*
X063485Y025530D03*
X062366Y025530D03*
X062366Y026467D03*
X063485Y026467D03*
X063485Y027405D03*
X062366Y027405D03*
X058728Y028117D03*
X057608Y028117D03*
X029354Y015256D03*
X028234Y015256D03*
D12*
X048013Y022111D03*
X048013Y023213D03*
X053926Y022581D03*
X053926Y021479D03*
X056763Y019463D03*
X056763Y018361D03*
X059513Y018361D03*
X059513Y019463D03*
X062263Y022861D03*
X062263Y023963D03*
X058713Y025721D03*
X058713Y026824D03*
X059113Y031916D03*
X059113Y033019D03*
X058918Y034566D03*
X058918Y035668D03*
X052418Y035668D03*
X052418Y034566D03*
X052613Y033019D03*
X052613Y031916D03*
X046433Y027369D03*
X046433Y026267D03*
X040058Y028517D03*
X040058Y029619D03*
X045918Y038721D03*
X045918Y039824D03*
D13*
X041359Y033568D03*
X040257Y033568D03*
X040211Y032662D03*
X041314Y032662D03*
X049617Y032617D03*
X050719Y032617D03*
X056117Y032617D03*
X057219Y032617D03*
X062617Y032617D03*
X063719Y032617D03*
X065624Y033530D03*
X066727Y033530D03*
X066515Y034523D03*
X065412Y034523D03*
X065412Y035523D03*
X066515Y035523D03*
X066867Y038867D03*
X067969Y038867D03*
X043359Y026318D03*
X042257Y026318D03*
X054319Y024130D03*
X055422Y024130D03*
X067867Y019492D03*
X068969Y019492D03*
X070132Y017193D03*
X071234Y017193D03*
D14*
X030918Y033867D03*
X030918Y037867D03*
X041418Y035617D03*
X042418Y035617D03*
X043418Y035617D03*
X042918Y034617D03*
X041918Y034617D03*
X043918Y034617D03*
X047418Y034617D03*
X048418Y034617D03*
X049418Y034617D03*
X050418Y034617D03*
X049918Y035617D03*
X048918Y035617D03*
X047918Y035617D03*
X050918Y035617D03*
X053918Y034617D03*
X054918Y034617D03*
X055918Y034617D03*
X056918Y034617D03*
X056418Y035617D03*
X055418Y035617D03*
X054418Y035617D03*
X057418Y035617D03*
X060418Y034617D03*
X061418Y034617D03*
X062418Y034617D03*
X063418Y034617D03*
X062918Y035617D03*
X061918Y035617D03*
X060918Y035617D03*
X063918Y035617D03*
D15*
X037463Y027283D02*
X037463Y026763D01*
X037463Y024283D02*
X037463Y023763D01*
X037471Y023127D02*
X037471Y022607D01*
X037471Y020127D02*
X037471Y019607D01*
D16*
X050963Y025473D02*
X050963Y026073D01*
X051963Y026073D02*
X051963Y025473D01*
X052963Y025473D02*
X052963Y026073D01*
X053963Y026073D02*
X053963Y025473D01*
X054963Y025473D02*
X054963Y026073D01*
X055963Y026073D02*
X055963Y025473D01*
X071868Y025617D02*
X072468Y025617D01*
X072468Y024617D02*
X071868Y024617D01*
X071868Y023617D02*
X072468Y023617D01*
X072468Y022617D02*
X071868Y022617D01*
X071868Y027617D02*
X072468Y027617D01*
X072468Y028617D02*
X071868Y028617D01*
X071868Y029617D02*
X072468Y029617D01*
X072468Y030617D02*
X071868Y030617D01*
X071868Y032617D02*
X072468Y032617D01*
X072468Y033617D02*
X071868Y033617D01*
X071868Y034617D02*
X072468Y034617D01*
X072468Y035617D02*
X071868Y035617D01*
D17*
X063442Y031867D03*
X063442Y031367D03*
X063442Y030867D03*
X063442Y030367D03*
X061395Y030367D03*
X061395Y030867D03*
X061395Y031367D03*
X061395Y031867D03*
X056942Y031867D03*
X056942Y031367D03*
X056942Y030867D03*
X056942Y030367D03*
X054895Y030367D03*
X054895Y030867D03*
X054895Y031367D03*
X054895Y031867D03*
X050442Y031867D03*
X050442Y031367D03*
X050442Y030867D03*
X050442Y030367D03*
X048395Y030367D03*
X048395Y030867D03*
X048395Y031367D03*
X048395Y031867D03*
D18*
X047168Y031677D03*
X047418Y032557D03*
X047418Y033677D03*
X045918Y034158D03*
X045918Y035277D03*
X051668Y033427D03*
X053918Y033677D03*
X053918Y032557D03*
X053668Y031677D03*
X051668Y031427D03*
X051668Y032307D03*
X052613Y030777D03*
X051668Y030307D03*
X052613Y029658D03*
X053668Y030557D03*
X058168Y030307D03*
X059113Y030527D03*
X060168Y030557D03*
X058168Y031427D03*
X058168Y032307D03*
X060168Y031677D03*
X060668Y032557D03*
X060668Y033677D03*
X058168Y033427D03*
X064668Y033427D03*
X065613Y032527D03*
X064668Y032307D03*
X064668Y031427D03*
X065613Y031408D03*
X064668Y030307D03*
X069213Y028582D03*
X069213Y027463D03*
X070713Y027463D03*
X070713Y028582D03*
X070713Y032463D03*
X069213Y032463D03*
X069213Y033582D03*
X070713Y033582D03*
X059113Y029408D03*
X059563Y028222D03*
X059563Y027102D03*
X055426Y023340D03*
X055426Y022220D03*
X048713Y019082D03*
X048713Y017963D03*
X044263Y017852D03*
X044263Y018972D03*
X041043Y028508D03*
X041043Y029627D03*
X047168Y030557D03*
X069213Y023582D03*
X069213Y022463D03*
X070713Y022463D03*
X070713Y023582D03*
X070263Y019597D03*
X070263Y018477D03*
D19*
X027668Y024946D03*
X027668Y026914D03*
X027668Y028883D03*
X027668Y030851D03*
X027668Y032820D03*
X027668Y034788D03*
D20*
X033078Y037198D02*
X034259Y037198D01*
X037078Y037198D02*
X038259Y037198D01*
X038259Y028536D02*
X037078Y028536D01*
X034259Y028536D02*
X033078Y028536D01*
D21*
X028400Y036963D03*
X029562Y038814D03*
X027200Y038814D03*
D22*
X030521Y026154D03*
X030521Y023654D03*
X030440Y022054D03*
X030440Y019554D03*
X036440Y019054D03*
X036440Y022054D03*
X036521Y023154D03*
X036521Y026154D03*
D23*
X038280Y025773D03*
X039147Y026147D03*
X039147Y025399D03*
X039196Y021286D03*
X038330Y020912D03*
X039196Y020538D03*
D24*
X031068Y032092D02*
X031068Y032642D01*
X030268Y032642D02*
X030268Y032092D01*
D25*
X066434Y036367D03*
X066434Y036867D03*
X066434Y037367D03*
X066434Y037867D03*
X068402Y037867D03*
X068402Y037367D03*
X068402Y036867D03*
X068402Y036367D03*
D26*
X069088Y018818D03*
X069088Y018318D03*
X069088Y017818D03*
X069088Y017318D03*
X067028Y017318D03*
X067028Y017818D03*
X067028Y018318D03*
X067028Y018818D03*
D27*
X066769Y015617D03*
X065568Y015617D03*
D28*
X060534Y020554D03*
X060337Y020554D03*
X060141Y020554D03*
X059944Y020554D03*
X059747Y020554D03*
X059550Y020554D03*
X059353Y020554D03*
X059156Y020554D03*
X058960Y020554D03*
X058763Y020554D03*
X058566Y020554D03*
X058369Y020554D03*
X058172Y020554D03*
X057975Y020554D03*
X057778Y020554D03*
X057582Y020554D03*
X057582Y025082D03*
X057778Y025082D03*
X057975Y025082D03*
X058172Y025082D03*
X058369Y025082D03*
X058566Y025082D03*
X058763Y025082D03*
X058960Y025082D03*
X059156Y025082D03*
X059353Y025082D03*
X059550Y025082D03*
X059747Y025082D03*
X059944Y025082D03*
X060141Y025082D03*
X060337Y025082D03*
X060534Y025082D03*
D29*
X061322Y024294D03*
X061322Y024097D03*
X061322Y023900D03*
X061322Y023704D03*
X061322Y023507D03*
X061322Y023310D03*
X061322Y023113D03*
X061322Y022916D03*
X061322Y022719D03*
X061322Y022523D03*
X061322Y022326D03*
X061322Y022129D03*
X061322Y021932D03*
X061322Y021735D03*
X061322Y021538D03*
X061322Y021341D03*
X056794Y021341D03*
X056794Y021538D03*
X056794Y021735D03*
X056794Y021932D03*
X056794Y022129D03*
X056794Y022326D03*
X056794Y022523D03*
X056794Y022719D03*
X056794Y022916D03*
X056794Y023113D03*
X056794Y023310D03*
X056794Y023507D03*
X056794Y023704D03*
X056794Y023900D03*
X056794Y024097D03*
X056794Y024294D03*
D30*
X060467Y019318D03*
X061649Y019318D03*
D31*
X045463Y023932D03*
X045463Y025113D03*
D32*
X044509Y026580D02*
X044509Y026804D01*
X044312Y026804D02*
X044312Y026580D01*
X044115Y026580D02*
X044115Y026804D01*
X043918Y026804D02*
X043918Y026580D01*
X043745Y026977D02*
X043521Y026977D01*
X043521Y027174D02*
X043745Y027174D01*
X043745Y027371D02*
X043521Y027371D01*
X043521Y027568D02*
X043745Y027568D01*
X043918Y027741D02*
X043918Y027965D01*
X044115Y027965D02*
X044115Y027741D01*
X044312Y027741D02*
X044312Y027965D01*
X044509Y027965D02*
X044509Y027741D01*
X044682Y027568D02*
X044906Y027568D01*
X044906Y027371D02*
X044682Y027371D01*
X044682Y027174D02*
X044906Y027174D01*
X044906Y026977D02*
X044682Y026977D01*
D33*
X044213Y027273D03*
D34*
X043357Y018647D03*
X042530Y018273D03*
X043357Y017899D03*
D35*
X047099Y018023D03*
X047828Y018278D03*
X047828Y017767D03*
D36*
X041515Y018367D03*
X039822Y018367D03*
D37*
X039064Y018412D03*
X037961Y018412D03*
D38*
X042662Y024617D03*
X044174Y024617D03*
D39*
X027540Y017879D03*
X027540Y017623D03*
X027540Y017367D03*
X027540Y017111D03*
X027540Y016855D03*
D40*
X026418Y016875D03*
X026418Y017859D03*
D41*
X026418Y018942D03*
X026418Y015792D03*
D42*
X046580Y021887D03*
X046836Y021887D03*
X047091Y021887D03*
X047347Y021887D03*
X047347Y023658D03*
X047091Y023658D03*
X046836Y023658D03*
X046580Y023658D03*
D43*
X026991Y014452D03*
X070889Y040239D03*
D44*
X066058Y019568D03*
X065058Y019568D03*
X061668Y017867D03*
X060668Y017867D03*
D45*
X045237Y032784D03*
X044489Y032784D03*
X044863Y033650D03*
D46*
X045918Y036008D03*
X045918Y036677D03*
X045918Y037383D03*
X045918Y038052D03*
D47*
X027820Y014452D02*
X027751Y014127D01*
X073562Y014127D01*
X073460Y020971D01*
X071731Y019241D01*
X071576Y019177D01*
X070824Y019177D01*
X070709Y019062D01*
X069817Y019062D01*
X069702Y019177D01*
X069504Y019177D01*
X069504Y019158D01*
X069614Y019158D01*
X069743Y019029D01*
X069743Y018939D01*
X069817Y019012D01*
X070709Y019012D01*
X070838Y018884D01*
X070838Y018817D01*
X071671Y018817D01*
X071796Y018766D01*
X072306Y018256D01*
X072401Y018160D01*
X072453Y018035D01*
X072453Y016650D01*
X072401Y016525D01*
X072298Y016421D01*
X072460Y016378D01*
X072690Y016245D01*
X072878Y016056D01*
X073011Y015826D01*
X073080Y015569D01*
X073080Y015303D01*
X073011Y015046D01*
X072878Y014815D01*
X072690Y014627D01*
X072460Y014494D01*
X072203Y014425D01*
X071937Y014425D01*
X071680Y014494D01*
X071449Y014627D01*
X071261Y014815D01*
X071128Y015046D01*
X071059Y015303D01*
X071059Y015569D01*
X071101Y015724D01*
X070752Y015375D01*
X070656Y015280D01*
X070531Y015228D01*
X069403Y015228D01*
X069403Y015122D01*
X069274Y014993D01*
X068462Y014993D01*
X068333Y015122D01*
X068333Y016014D01*
X068462Y016143D01*
X069274Y016143D01*
X069403Y016014D01*
X069403Y015908D01*
X070323Y015908D01*
X071033Y016618D01*
X070890Y016618D01*
X070834Y016633D01*
X070784Y016662D01*
X070743Y016703D01*
X070714Y016754D01*
X070699Y016810D01*
X070699Y017155D01*
X071197Y017155D01*
X071197Y017230D01*
X070699Y017230D01*
X070699Y017576D01*
X070714Y017632D01*
X070743Y017682D01*
X070784Y017723D01*
X070834Y017752D01*
X070890Y017767D01*
X071197Y017767D01*
X071197Y017230D01*
X071272Y017230D01*
X071769Y017230D01*
X071769Y017576D01*
X071754Y017632D01*
X071725Y017682D01*
X071684Y017723D01*
X071634Y017752D01*
X071578Y017767D01*
X071272Y017767D01*
X071272Y017230D01*
X071272Y017155D01*
X071769Y017155D01*
X071769Y016932D01*
X071773Y016932D01*
X071773Y017827D01*
X071462Y018137D01*
X070838Y018137D01*
X070838Y018071D01*
X070709Y017942D01*
X069817Y017942D01*
X069743Y018016D01*
X069743Y017767D01*
X070538Y017767D01*
X070667Y017638D01*
X070667Y016747D01*
X070538Y016618D01*
X069726Y016618D01*
X069597Y016747D01*
X069597Y016978D01*
X068562Y016978D01*
X068458Y017082D01*
X068088Y016712D01*
X068088Y016143D01*
X068154Y016143D01*
X068283Y016014D01*
X068283Y015122D01*
X068154Y014993D01*
X067342Y014993D01*
X067337Y014998D01*
X067244Y014905D01*
X066294Y014905D01*
X066165Y015034D01*
X066165Y015070D01*
X066157Y015040D01*
X066128Y014990D01*
X066087Y014949D01*
X066037Y014920D01*
X065981Y014905D01*
X065640Y014905D01*
X065640Y015545D01*
X065496Y015545D01*
X065496Y014905D01*
X065155Y014905D01*
X065099Y014920D01*
X065049Y014949D01*
X065008Y014990D01*
X064979Y015040D01*
X064964Y015096D01*
X064964Y015545D01*
X065496Y015545D01*
X065496Y015689D01*
X065496Y016230D01*
X065607Y016341D01*
X065607Y016377D01*
X066429Y016377D01*
X066429Y016329D01*
X066294Y016329D01*
X066165Y016200D01*
X066165Y016164D01*
X066157Y016194D01*
X066128Y016244D01*
X066087Y016285D01*
X066037Y016314D01*
X065981Y016329D01*
X065640Y016329D01*
X065640Y015689D01*
X065496Y015689D01*
X064964Y015689D01*
X064964Y016138D01*
X064979Y016194D01*
X064990Y016212D01*
X064666Y016212D01*
X064538Y016341D01*
X064538Y017233D01*
X064666Y017362D01*
X065479Y017362D01*
X065607Y017233D01*
X065607Y017057D01*
X065958Y017057D01*
X065943Y017063D01*
X065859Y017148D01*
X065859Y017148D01*
X064144Y018863D01*
X064024Y018743D01*
X063262Y018743D01*
X064123Y017882D01*
X064207Y017798D01*
X064253Y017687D01*
X064253Y017362D01*
X064359Y017362D01*
X064488Y017233D01*
X064488Y016341D01*
X064359Y016212D01*
X063547Y016212D01*
X063418Y016341D01*
X063418Y017233D01*
X063547Y017362D01*
X063653Y017362D01*
X063653Y017503D01*
X062864Y018292D01*
X062077Y018292D01*
X062118Y018251D01*
X062173Y018176D01*
X062215Y018093D01*
X062244Y018005D01*
X062258Y017913D01*
X062258Y017867D01*
X061668Y017867D01*
X061668Y017867D01*
X061668Y017277D01*
X061622Y017277D01*
X061530Y017292D01*
X061442Y017320D01*
X061359Y017362D01*
X061284Y017417D01*
X061218Y017483D01*
X061173Y017545D01*
X061168Y017533D01*
X061002Y017367D01*
X060786Y017277D01*
X060551Y017277D01*
X060334Y017367D01*
X060168Y017533D01*
X060078Y017750D01*
X060078Y017984D01*
X060072Y017961D01*
X060043Y017911D01*
X060002Y017870D01*
X059952Y017841D01*
X059896Y017826D01*
X059550Y017826D01*
X059550Y018324D01*
X059550Y018399D01*
X059475Y018399D01*
X059475Y018896D01*
X059129Y018896D01*
X059073Y018881D01*
X059023Y018852D01*
X058982Y018811D01*
X058953Y018761D01*
X058938Y018705D01*
X058938Y018399D01*
X059475Y018399D01*
X059475Y018324D01*
X058938Y018324D01*
X058938Y018017D01*
X058953Y017961D01*
X058982Y017911D01*
X059023Y017870D01*
X059073Y017841D01*
X059129Y017826D01*
X059475Y017826D01*
X059475Y018324D01*
X059550Y018324D01*
X060087Y018324D01*
X060087Y018017D01*
X060078Y017985D01*
X060167Y018200D01*
X060167Y018822D01*
X060140Y018822D01*
X060011Y018951D01*
X060011Y018982D01*
X059958Y018929D01*
X059067Y018929D01*
X058938Y019057D01*
X058938Y019197D01*
X058809Y019197D01*
X058793Y019204D01*
X058793Y016132D01*
X058728Y015974D01*
X058607Y015853D01*
X057857Y015103D01*
X057699Y015037D01*
X031278Y015037D01*
X031119Y015103D01*
X030999Y015224D01*
X029435Y016787D01*
X028528Y016787D01*
X028413Y016835D01*
X028413Y016592D01*
X028487Y016517D01*
X029173Y016517D01*
X029283Y016472D01*
X029617Y016137D01*
X029663Y016027D01*
X029663Y015831D01*
X029760Y015831D01*
X029889Y015702D01*
X029889Y014810D01*
X029760Y014681D01*
X028948Y014681D01*
X028819Y014810D01*
X028819Y015702D01*
X028948Y015831D01*
X029063Y015831D01*
X029063Y015843D01*
X028989Y015917D01*
X028303Y015917D01*
X028193Y015963D01*
X028109Y016047D01*
X027859Y016297D01*
X027813Y016408D01*
X027813Y016556D01*
X027540Y016556D01*
X027540Y016811D01*
X027540Y016811D01*
X027540Y016556D01*
X027236Y016556D01*
X027180Y016571D01*
X027130Y016600D01*
X027089Y016641D01*
X027060Y016692D01*
X027045Y016747D01*
X027045Y016811D01*
X027035Y016811D01*
X027012Y016820D01*
X027012Y016390D01*
X026975Y016353D01*
X027012Y016316D01*
X027012Y015268D01*
X027009Y015265D01*
X027247Y015240D01*
X027247Y015240D01*
X027546Y015068D01*
X027546Y015068D01*
X027546Y015068D01*
X027706Y014847D01*
X027699Y014872D01*
X027699Y015218D01*
X028197Y015218D01*
X028272Y015218D01*
X028272Y014681D01*
X028578Y014681D01*
X028634Y014696D01*
X028684Y014725D01*
X028725Y014766D01*
X028754Y014816D01*
X028769Y014872D01*
X028769Y015218D01*
X028272Y015218D01*
X028272Y015293D01*
X028769Y015293D01*
X028769Y015640D01*
X028754Y015696D01*
X028725Y015746D01*
X028684Y015787D01*
X028634Y015816D01*
X028578Y015831D01*
X028272Y015831D01*
X028272Y015293D01*
X028197Y015293D01*
X028197Y015218D01*
X028197Y014681D01*
X027890Y014681D01*
X027834Y014696D01*
X027784Y014725D01*
X027756Y014753D01*
X027820Y014452D01*
X027814Y014421D02*
X073558Y014421D01*
X073561Y014183D02*
X027763Y014183D01*
X027776Y014660D02*
X071417Y014660D01*
X071213Y014898D02*
X029889Y014898D01*
X029889Y015137D02*
X031085Y015137D01*
X030847Y015375D02*
X029889Y015375D01*
X029889Y015614D02*
X030608Y015614D01*
X030370Y015852D02*
X029663Y015852D01*
X029637Y016091D02*
X030131Y016091D01*
X029893Y016329D02*
X029425Y016329D01*
X029654Y016568D02*
X028437Y016568D01*
X028413Y016806D02*
X028482Y016806D01*
X027846Y016329D02*
X026999Y016329D01*
X027012Y016091D02*
X028065Y016091D01*
X028197Y015831D02*
X027890Y015831D01*
X027834Y015816D01*
X027784Y015787D01*
X027743Y015746D01*
X027714Y015696D01*
X027699Y015640D01*
X027699Y015293D01*
X028197Y015293D01*
X028197Y015831D01*
X028197Y015614D02*
X028272Y015614D01*
X028272Y015375D02*
X028197Y015375D01*
X028197Y015137D02*
X028272Y015137D01*
X028272Y014898D02*
X028197Y014898D01*
X027699Y014898D02*
X027669Y014898D01*
X027699Y015137D02*
X027426Y015137D01*
X027699Y015375D02*
X027012Y015375D01*
X027012Y015614D02*
X027699Y015614D01*
X027012Y015852D02*
X029054Y015852D01*
X028819Y015614D02*
X028769Y015614D01*
X028769Y015375D02*
X028819Y015375D01*
X028819Y015137D02*
X028769Y015137D01*
X028769Y014898D02*
X028819Y014898D01*
X031791Y016397D02*
X030107Y018082D01*
X029949Y018147D01*
X029778Y018147D01*
X029753Y018137D01*
X029473Y018137D01*
X029449Y018147D01*
X028717Y018147D01*
X028737Y018167D01*
X030739Y018167D01*
X031484Y017422D01*
X032109Y016797D01*
X032193Y016713D01*
X032303Y016667D01*
X054673Y016667D01*
X054783Y016713D01*
X056137Y018067D01*
X056188Y018067D01*
X056188Y018017D01*
X056203Y017961D01*
X056232Y017911D01*
X056273Y017870D01*
X056323Y017841D01*
X056379Y017826D01*
X056725Y017826D01*
X056725Y018324D01*
X056800Y018324D01*
X056800Y018399D01*
X056725Y018399D01*
X056725Y018896D01*
X056379Y018896D01*
X056323Y018881D01*
X056273Y018852D01*
X056260Y018839D01*
X056193Y018867D01*
X056034Y018867D01*
X055991Y018850D01*
X055952Y018944D01*
X055840Y019057D01*
X055693Y019117D01*
X055534Y019117D01*
X055386Y019057D01*
X055274Y018944D01*
X055213Y018797D01*
X055213Y018742D01*
X053989Y017517D01*
X049249Y017517D01*
X049288Y017557D01*
X049288Y017667D01*
X049673Y017667D01*
X049783Y017713D01*
X049867Y017797D01*
X051425Y019355D01*
X054660Y019355D01*
X054699Y019316D01*
X054846Y019255D01*
X055005Y019255D01*
X055152Y019316D01*
X055265Y019428D01*
X055289Y019486D01*
X055540Y019234D01*
X055750Y019147D01*
X055768Y019147D01*
X055851Y019065D01*
X056024Y018993D01*
X056252Y018993D01*
X056317Y018929D01*
X057208Y018929D01*
X057337Y019057D01*
X057337Y019697D01*
X057711Y019697D01*
X057710Y019696D01*
X057634Y019620D01*
X057617Y019580D01*
X057499Y019461D01*
X057433Y019303D01*
X057433Y016646D01*
X057185Y016397D01*
X031791Y016397D01*
X031621Y016568D02*
X057355Y016568D01*
X057433Y016806D02*
X054876Y016806D01*
X055115Y017045D02*
X057433Y017045D01*
X057433Y017283D02*
X055353Y017283D01*
X055592Y017522D02*
X057433Y017522D01*
X057433Y017760D02*
X055830Y017760D01*
X056069Y017999D02*
X056193Y017999D01*
X056725Y017999D02*
X056800Y017999D01*
X056800Y017826D02*
X057146Y017826D01*
X057202Y017841D01*
X057252Y017870D01*
X057293Y017911D01*
X057322Y017961D01*
X057337Y018017D01*
X057337Y018324D01*
X056800Y018324D01*
X056800Y017826D01*
X056800Y018237D02*
X056725Y018237D01*
X056800Y018399D02*
X057337Y018399D01*
X057337Y018705D01*
X057322Y018761D01*
X057293Y018811D01*
X057252Y018852D01*
X057202Y018881D01*
X057146Y018896D01*
X056800Y018896D01*
X056800Y018399D01*
X056800Y018476D02*
X056725Y018476D01*
X056725Y018714D02*
X056800Y018714D01*
X057233Y018953D02*
X057433Y018953D01*
X057433Y019191D02*
X057337Y019191D01*
X057337Y019430D02*
X057486Y019430D01*
X057337Y019668D02*
X057682Y019668D01*
X058793Y019191D02*
X058938Y019191D01*
X059043Y018953D02*
X058793Y018953D01*
X058793Y018714D02*
X058941Y018714D01*
X058938Y018476D02*
X058793Y018476D01*
X058793Y018237D02*
X058938Y018237D01*
X058943Y017999D02*
X058793Y017999D01*
X058793Y017760D02*
X060078Y017760D01*
X060082Y017999D02*
X060084Y017999D01*
X060087Y018237D02*
X060167Y018237D01*
X060087Y018399D02*
X060087Y018705D01*
X060072Y018761D01*
X060043Y018811D01*
X060002Y018852D01*
X059952Y018881D01*
X059896Y018896D01*
X059550Y018896D01*
X059550Y018399D01*
X060087Y018399D01*
X060087Y018476D02*
X060167Y018476D01*
X060167Y018714D02*
X060084Y018714D01*
X060011Y018953D02*
X059983Y018953D01*
X059550Y018714D02*
X059475Y018714D01*
X059475Y018476D02*
X059550Y018476D01*
X059550Y018237D02*
X059475Y018237D01*
X059475Y017999D02*
X059550Y017999D01*
X060179Y017522D02*
X058793Y017522D01*
X058793Y017283D02*
X060535Y017283D01*
X060801Y017283D02*
X061581Y017283D01*
X061668Y017283D02*
X061668Y017283D01*
X061668Y017277D02*
X061715Y017277D01*
X061806Y017292D01*
X061895Y017320D01*
X061977Y017362D01*
X062053Y017417D01*
X062118Y017483D01*
X062173Y017558D01*
X062215Y017641D01*
X062244Y017729D01*
X062258Y017821D01*
X062258Y017867D01*
X061668Y017867D01*
X061668Y017277D01*
X061755Y017283D02*
X063468Y017283D01*
X063418Y017045D02*
X058793Y017045D01*
X058793Y016806D02*
X063418Y016806D01*
X063418Y016568D02*
X058793Y016568D01*
X058793Y016329D02*
X063430Y016329D01*
X064476Y016329D02*
X064549Y016329D01*
X064538Y016568D02*
X064488Y016568D01*
X064488Y016806D02*
X064538Y016806D01*
X064538Y017045D02*
X064488Y017045D01*
X064438Y017283D02*
X064588Y017283D01*
X064253Y017522D02*
X065485Y017522D01*
X065557Y017283D02*
X065723Y017283D01*
X065224Y016717D02*
X066613Y016717D01*
X066769Y016562D01*
X066769Y015617D01*
X066848Y015537D01*
X067718Y015537D01*
X067748Y015568D01*
X067748Y016717D01*
X067748Y016852D01*
X068363Y017467D01*
X068363Y017717D01*
X068463Y017818D01*
X069088Y017818D01*
X069088Y018318D02*
X069463Y018318D01*
X069613Y018467D01*
X070253Y018467D01*
X070263Y018477D01*
X071603Y018477D01*
X072113Y017967D01*
X072113Y016717D01*
X071988Y016592D01*
X071488Y016592D01*
X070463Y015568D01*
X068868Y015568D01*
X068333Y015614D02*
X068283Y015614D01*
X068283Y015852D02*
X068333Y015852D01*
X068410Y016091D02*
X068206Y016091D01*
X068088Y016329D02*
X070744Y016329D01*
X070506Y016091D02*
X069326Y016091D01*
X069597Y016806D02*
X068183Y016806D01*
X068088Y016568D02*
X070983Y016568D01*
X070700Y016806D02*
X070667Y016806D01*
X070667Y017045D02*
X070699Y017045D01*
X070699Y017283D02*
X070667Y017283D01*
X070667Y017522D02*
X070699Y017522D01*
X070545Y017760D02*
X070865Y017760D01*
X070765Y017999D02*
X071601Y017999D01*
X071603Y017760D02*
X071773Y017760D01*
X071769Y017522D02*
X071773Y017522D01*
X071769Y017283D02*
X071773Y017283D01*
X071769Y017045D02*
X071773Y017045D01*
X071272Y017283D02*
X071197Y017283D01*
X071197Y017522D02*
X071272Y017522D01*
X071272Y017760D02*
X071197Y017760D01*
X072085Y018476D02*
X073497Y018476D01*
X073494Y018714D02*
X071847Y018714D01*
X071611Y019191D02*
X073487Y019191D01*
X073490Y018953D02*
X070768Y018953D01*
X069757Y018953D02*
X069743Y018953D01*
X069088Y018818D02*
X068463Y018818D01*
X067738Y018092D01*
X067738Y017467D01*
X067588Y017318D01*
X067028Y017318D01*
X068421Y017045D02*
X068495Y017045D01*
X069088Y017318D02*
X070007Y017318D01*
X070132Y017193D01*
X069760Y017999D02*
X069743Y017999D01*
X068083Y018918D02*
X067683Y018518D01*
X067683Y018529D01*
X067643Y018569D01*
X067668Y018613D01*
X067683Y018669D01*
X067683Y018818D01*
X067683Y018918D01*
X067830Y018918D01*
X067830Y019455D01*
X067332Y019455D01*
X067332Y019158D01*
X067028Y019158D01*
X067028Y018818D01*
X067028Y018818D01*
X067028Y019158D01*
X066564Y019158D01*
X066508Y019143D01*
X066458Y019114D01*
X066417Y019073D01*
X066388Y019023D01*
X066373Y018967D01*
X066373Y018818D01*
X067028Y018818D01*
X067683Y018818D01*
X067028Y018818D01*
X067028Y018818D01*
X067028Y018818D01*
X066373Y018818D01*
X066373Y018694D01*
X066255Y018742D01*
X066096Y018742D01*
X065949Y018682D01*
X065913Y018646D01*
X065913Y018989D01*
X065941Y018978D01*
X066175Y018978D01*
X066392Y019068D01*
X066558Y019234D01*
X066648Y019450D01*
X066648Y019685D01*
X066558Y019902D01*
X066392Y020068D01*
X066175Y020158D01*
X065941Y020158D01*
X065724Y020068D01*
X065558Y019902D01*
X065508Y019953D01*
X065533Y019963D01*
X065617Y020047D01*
X068300Y022730D01*
X068639Y022730D01*
X068639Y022057D01*
X068767Y021928D01*
X069660Y021928D01*
X069764Y022033D01*
X070162Y022033D01*
X070267Y021928D01*
X071160Y021928D01*
X071264Y022033D01*
X072099Y022033D01*
X072255Y022097D01*
X072572Y022097D01*
X072763Y022176D01*
X072774Y022187D01*
X072818Y022187D01*
X072818Y021516D01*
X071319Y020017D01*
X070824Y020017D01*
X070709Y020132D01*
X069817Y020132D01*
X069702Y020017D01*
X069425Y020017D01*
X069375Y020066D01*
X068563Y020066D01*
X068434Y019937D01*
X068434Y019158D01*
X068402Y019158D01*
X068402Y019455D01*
X067904Y019455D01*
X067904Y018918D01*
X068083Y018918D01*
X067904Y018953D02*
X067830Y018953D01*
X067830Y019191D02*
X067904Y019191D01*
X067904Y019430D02*
X067830Y019430D01*
X067830Y019455D02*
X067904Y019455D01*
X067904Y019529D01*
X067830Y019529D01*
X067830Y019455D01*
X067830Y019529D02*
X067332Y019529D01*
X067332Y019875D01*
X067347Y019931D01*
X067376Y019981D01*
X067417Y020022D01*
X067467Y020051D01*
X067523Y020066D01*
X067830Y020066D01*
X067830Y019529D01*
X067904Y019529D02*
X067904Y020066D01*
X068211Y020066D01*
X068267Y020051D01*
X068317Y020022D01*
X068358Y019981D01*
X068387Y019931D01*
X068402Y019875D01*
X068402Y019529D01*
X067904Y019529D01*
X067904Y019668D02*
X067830Y019668D01*
X067830Y019907D02*
X067904Y019907D01*
X068393Y019907D02*
X068434Y019907D01*
X068434Y019668D02*
X068402Y019668D01*
X068402Y019430D02*
X068434Y019430D01*
X068434Y019191D02*
X068402Y019191D01*
X067879Y018714D02*
X067683Y018714D01*
X067332Y019191D02*
X066516Y019191D01*
X066639Y019430D02*
X067332Y019430D01*
X067332Y019668D02*
X066648Y019668D01*
X066553Y019907D02*
X067341Y019907D01*
X066205Y020145D02*
X071447Y020145D01*
X071686Y020384D02*
X065954Y020384D01*
X065911Y020145D02*
X065715Y020145D01*
X065563Y019907D02*
X065553Y019907D01*
X066192Y020622D02*
X071924Y020622D01*
X072163Y020861D02*
X066431Y020861D01*
X066669Y021099D02*
X072401Y021099D01*
X072640Y021338D02*
X066908Y021338D01*
X067146Y021576D02*
X072818Y021576D01*
X072818Y021815D02*
X067385Y021815D01*
X067623Y022053D02*
X068642Y022053D01*
X068639Y022292D02*
X067862Y022292D01*
X068100Y022530D02*
X068639Y022530D01*
X067229Y023007D02*
X065913Y023007D01*
X065913Y022769D02*
X066990Y022769D01*
X066752Y022530D02*
X065913Y022530D01*
X065913Y022292D02*
X066513Y022292D01*
X066275Y022053D02*
X065913Y022053D01*
X065913Y021815D02*
X066036Y021815D01*
X065913Y021692D02*
X065913Y024843D01*
X068639Y027569D01*
X068639Y027057D01*
X068767Y026928D01*
X069660Y026928D01*
X069764Y027033D01*
X070162Y027033D01*
X070267Y026928D01*
X071160Y026928D01*
X071264Y027033D01*
X072099Y027033D01*
X072255Y027097D01*
X072572Y027097D01*
X072763Y027176D01*
X072774Y027187D01*
X072818Y027187D01*
X072818Y026003D01*
X072807Y026014D01*
X072741Y026062D01*
X072668Y026099D01*
X072590Y026124D01*
X072509Y026137D01*
X072168Y026137D01*
X071827Y026137D01*
X071746Y026124D01*
X071669Y026099D01*
X071596Y026062D01*
X071529Y026014D01*
X071472Y025956D01*
X071423Y025890D01*
X071386Y025817D01*
X071361Y025739D01*
X071348Y025658D01*
X071348Y025617D01*
X071348Y025576D01*
X071361Y025495D01*
X071386Y025417D01*
X071423Y025344D01*
X071472Y025278D01*
X071529Y025220D01*
X071596Y025172D01*
X071669Y025135D01*
X071720Y025118D01*
X071574Y025058D01*
X071433Y024917D01*
X069703Y024917D01*
X069593Y024871D01*
X069044Y024322D01*
X068959Y024238D01*
X068913Y024127D01*
X068913Y024117D01*
X068767Y024117D01*
X068639Y023988D01*
X068639Y023882D01*
X068168Y023882D01*
X068058Y023837D01*
X065913Y021692D01*
X064813Y022092D02*
X064589Y021867D01*
X064471Y021867D01*
X064324Y021807D01*
X064211Y021694D01*
X064151Y021547D01*
X064151Y021388D01*
X064200Y021267D01*
X063033Y021267D01*
X063039Y021282D01*
X063039Y021401D01*
X062993Y021511D01*
X062909Y021596D01*
X062799Y021641D01*
X062429Y021641D01*
X062357Y021611D01*
X061739Y021611D01*
X061739Y021662D01*
X063694Y021662D01*
X063793Y021703D01*
X064404Y022314D01*
X064446Y022414D01*
X064446Y027271D01*
X064404Y027370D01*
X064141Y027634D01*
X064042Y027675D01*
X064020Y027675D01*
X064020Y027851D01*
X063954Y027917D01*
X064239Y027917D01*
X064813Y027343D01*
X064813Y022092D01*
X064775Y022053D02*
X064143Y022053D01*
X064344Y021815D02*
X063905Y021815D01*
X064163Y021576D02*
X062928Y021576D01*
X063039Y021338D02*
X064171Y021338D01*
X064382Y022292D02*
X064813Y022292D01*
X064813Y022530D02*
X064446Y022530D01*
X064446Y022769D02*
X064813Y022769D01*
X064813Y023007D02*
X064446Y023007D01*
X064446Y023246D02*
X064813Y023246D01*
X064813Y023484D02*
X064446Y023484D01*
X064446Y023723D02*
X064813Y023723D01*
X064813Y023961D02*
X064446Y023961D01*
X064446Y024200D02*
X064813Y024200D01*
X064813Y024438D02*
X064446Y024438D01*
X064446Y024677D02*
X064813Y024677D01*
X064813Y024915D02*
X064446Y024915D01*
X064446Y025154D02*
X064813Y025154D01*
X064813Y025392D02*
X064446Y025392D01*
X064446Y025631D02*
X064813Y025631D01*
X064813Y025869D02*
X064446Y025869D01*
X064446Y026108D02*
X064813Y026108D01*
X064813Y026346D02*
X064446Y026346D01*
X064446Y026585D02*
X064813Y026585D01*
X064813Y026823D02*
X064446Y026823D01*
X064446Y027062D02*
X064813Y027062D01*
X064813Y027300D02*
X064433Y027300D01*
X064617Y027539D02*
X064236Y027539D01*
X064379Y027777D02*
X064020Y027777D01*
X064617Y028387D02*
X065283Y027722D01*
X065367Y027637D01*
X065413Y027527D01*
X065413Y025692D01*
X068558Y028837D01*
X068639Y028870D01*
X068639Y028988D01*
X068767Y029117D01*
X068913Y029117D01*
X068913Y029127D01*
X068959Y029238D01*
X069044Y029322D01*
X069593Y029871D01*
X069703Y029917D01*
X071433Y029917D01*
X071574Y030058D01*
X071720Y030118D01*
X071669Y030135D01*
X071596Y030172D01*
X071529Y030220D01*
X071472Y030278D01*
X071423Y030344D01*
X071386Y030417D01*
X071361Y030495D01*
X071348Y030576D01*
X071348Y030617D01*
X072168Y030617D01*
X072168Y030617D01*
X071348Y030617D01*
X071348Y030658D01*
X071361Y030739D01*
X071386Y030817D01*
X071423Y030890D01*
X071472Y030956D01*
X071529Y031014D01*
X071596Y031062D01*
X071669Y031099D01*
X071746Y031124D01*
X071827Y031137D01*
X072168Y031137D01*
X072168Y030617D01*
X072168Y030617D01*
X072168Y031137D01*
X072509Y031137D01*
X072590Y031124D01*
X072668Y031099D01*
X072741Y031062D01*
X072807Y031014D01*
X072818Y031003D01*
X072818Y032187D01*
X072774Y032187D01*
X072763Y032176D01*
X072572Y032097D01*
X072255Y032097D01*
X072099Y032033D01*
X071264Y032033D01*
X071160Y031928D01*
X070267Y031928D01*
X070162Y032033D01*
X069764Y032033D01*
X069660Y031928D01*
X068767Y031928D01*
X068639Y032057D01*
X068639Y032730D01*
X068550Y032730D01*
X067018Y031198D01*
X067071Y031198D01*
X067225Y031134D01*
X067311Y031049D01*
X067346Y031034D01*
X067430Y030950D01*
X067617Y030762D01*
X067663Y030652D01*
X067663Y029908D01*
X067617Y029797D01*
X067533Y029713D01*
X067408Y029588D01*
X067298Y029542D01*
X066612Y029542D01*
X065783Y028713D01*
X065673Y028667D01*
X061487Y028667D01*
X061437Y028617D01*
X061443Y028617D01*
X061590Y028557D01*
X061629Y028517D01*
X064423Y028517D01*
X064533Y028472D01*
X064617Y028387D01*
X064482Y028493D02*
X068214Y028493D01*
X067976Y028254D02*
X064750Y028254D01*
X064989Y028016D02*
X067737Y028016D01*
X067499Y027777D02*
X065227Y027777D01*
X065408Y027539D02*
X067260Y027539D01*
X067022Y027300D02*
X065413Y027300D01*
X065413Y027062D02*
X066783Y027062D01*
X066545Y026823D02*
X065413Y026823D01*
X065413Y026585D02*
X066306Y026585D01*
X066068Y026346D02*
X065413Y026346D01*
X065413Y026108D02*
X065829Y026108D01*
X065591Y025869D02*
X065413Y025869D01*
X066462Y025392D02*
X071399Y025392D01*
X071348Y025617D02*
X072168Y025617D01*
X072168Y025617D01*
X071348Y025617D01*
X071348Y025631D02*
X066701Y025631D01*
X066939Y025869D02*
X071413Y025869D01*
X071696Y026108D02*
X067178Y026108D01*
X067416Y026346D02*
X072818Y026346D01*
X072818Y026108D02*
X072640Y026108D01*
X072168Y026108D02*
X072168Y026108D01*
X072168Y026137D02*
X072168Y025617D01*
X072168Y025617D01*
X072168Y026137D01*
X072168Y025869D02*
X072168Y025869D01*
X072168Y025631D02*
X072168Y025631D01*
X071632Y025154D02*
X066224Y025154D01*
X065985Y024915D02*
X069699Y024915D01*
X069398Y024677D02*
X065913Y024677D01*
X065913Y024438D02*
X069160Y024438D01*
X068943Y024200D02*
X065913Y024200D01*
X065913Y023961D02*
X068639Y023961D01*
X067944Y023723D02*
X065913Y023723D01*
X065913Y023484D02*
X067706Y023484D01*
X067467Y023246D02*
X065913Y023246D01*
X063215Y023246D02*
X062837Y023246D01*
X062837Y023267D02*
X062708Y023396D01*
X061817Y023396D01*
X061739Y023317D01*
X061739Y023507D01*
X061773Y023472D01*
X061823Y023443D01*
X061879Y023429D01*
X062225Y023429D01*
X062225Y023926D01*
X062300Y023926D01*
X062300Y023429D01*
X062646Y023429D01*
X062702Y023443D01*
X062752Y023472D01*
X062793Y023513D01*
X062822Y023564D01*
X062837Y023620D01*
X062837Y023926D01*
X062300Y023926D01*
X062300Y024001D01*
X062225Y024001D01*
X062225Y024498D01*
X061879Y024498D01*
X061823Y024483D01*
X061773Y024454D01*
X061739Y024420D01*
X061739Y024429D01*
X061610Y024557D01*
X061034Y024557D01*
X060905Y024429D01*
X060905Y023176D01*
X060536Y023176D01*
X059071Y024642D01*
X059071Y024646D01*
X059063Y024665D01*
X059692Y024665D01*
X059715Y024609D01*
X059759Y024564D01*
X059835Y024489D01*
X059934Y024447D01*
X060729Y024447D01*
X060829Y024489D01*
X060891Y024551D01*
X060967Y024627D01*
X061008Y024726D01*
X061008Y025668D01*
X061029Y025689D01*
X061071Y025789D01*
X061071Y027944D01*
X061136Y027878D01*
X061284Y027817D01*
X061443Y027817D01*
X061590Y027878D01*
X061629Y027917D01*
X061897Y027917D01*
X061875Y027895D01*
X061846Y027845D01*
X061831Y027789D01*
X061831Y027442D01*
X062328Y027442D01*
X062328Y027367D01*
X062403Y027367D01*
X062403Y026830D01*
X062403Y026505D01*
X062328Y026505D01*
X062328Y026430D01*
X061831Y026430D01*
X061831Y026084D01*
X061846Y026028D01*
X061862Y025999D01*
X061846Y025970D01*
X061831Y025914D01*
X061831Y025567D01*
X062328Y025567D01*
X062328Y025492D01*
X062403Y025492D01*
X062403Y024955D01*
X062710Y024955D01*
X062766Y024970D01*
X062816Y024999D01*
X062857Y025040D01*
X062886Y025090D01*
X062901Y025146D01*
X062901Y025492D01*
X062403Y025492D01*
X062403Y025567D01*
X062901Y025567D01*
X062901Y025914D01*
X062886Y025970D01*
X062869Y025999D01*
X062886Y026028D01*
X062901Y026084D01*
X062901Y026430D01*
X062403Y026430D01*
X062403Y026105D01*
X062403Y025567D01*
X062328Y025567D01*
X062328Y026430D01*
X062403Y026430D01*
X062403Y026505D01*
X062901Y026505D01*
X062901Y026851D01*
X062886Y026907D01*
X062869Y026936D01*
X062886Y026965D01*
X062901Y027021D01*
X062901Y027367D01*
X062403Y027367D01*
X062403Y027442D01*
X062901Y027442D01*
X062901Y027789D01*
X062886Y027845D01*
X062857Y027895D01*
X062834Y027917D01*
X063017Y027917D01*
X062950Y027851D01*
X062950Y026959D01*
X062973Y026936D01*
X062950Y026913D01*
X062950Y026021D01*
X062973Y025999D01*
X062950Y025976D01*
X062950Y025084D01*
X063079Y024955D01*
X063215Y024955D01*
X063215Y022596D01*
X062837Y022596D01*
X062837Y023267D01*
X062764Y023484D02*
X063215Y023484D01*
X063215Y023723D02*
X062837Y023723D01*
X062837Y024001D02*
X062837Y024307D01*
X062822Y024363D01*
X062793Y024414D01*
X062752Y024454D01*
X062702Y024483D01*
X062646Y024498D01*
X062300Y024498D01*
X062300Y024001D01*
X062837Y024001D01*
X062837Y024200D02*
X063215Y024200D01*
X063215Y024438D02*
X062768Y024438D01*
X062300Y024438D02*
X062225Y024438D01*
X062225Y024200D02*
X062300Y024200D01*
X062300Y023961D02*
X063215Y023961D01*
X062300Y023723D02*
X062225Y023723D01*
X062225Y023484D02*
X062300Y023484D01*
X061761Y023484D02*
X061739Y023484D01*
X060905Y023484D02*
X060228Y023484D01*
X060466Y023246D02*
X060905Y023246D01*
X060905Y023723D02*
X059989Y023723D01*
X059751Y023961D02*
X060905Y023961D01*
X060905Y024200D02*
X059512Y024200D01*
X059274Y024438D02*
X060915Y024438D01*
X060988Y024677D02*
X063215Y024677D01*
X063215Y024915D02*
X061008Y024915D01*
X061008Y025154D02*
X061831Y025154D01*
X061831Y025146D02*
X061846Y025090D01*
X061875Y025040D01*
X061916Y024999D01*
X061966Y024970D01*
X062022Y024955D01*
X062328Y024955D01*
X062328Y025492D01*
X061831Y025492D01*
X061831Y025146D01*
X061831Y025392D02*
X061008Y025392D01*
X061008Y025631D02*
X061831Y025631D01*
X061831Y025869D02*
X061071Y025869D01*
X061071Y026108D02*
X061831Y026108D01*
X061831Y026346D02*
X061071Y026346D01*
X061071Y026585D02*
X061831Y026585D01*
X061831Y026505D02*
X062328Y026505D01*
X062328Y027367D01*
X061831Y027367D01*
X061831Y027021D01*
X061846Y026965D01*
X061862Y026936D01*
X061846Y026907D01*
X061831Y026851D01*
X061831Y026505D01*
X061831Y026823D02*
X061071Y026823D01*
X061071Y027062D02*
X061831Y027062D01*
X061831Y027300D02*
X061071Y027300D01*
X061071Y027539D02*
X061831Y027539D01*
X061831Y027777D02*
X061071Y027777D01*
X062328Y027300D02*
X062403Y027300D01*
X062403Y027062D02*
X062328Y027062D01*
X062328Y026823D02*
X062403Y026823D01*
X062403Y026585D02*
X062328Y026585D01*
X062328Y026346D02*
X062403Y026346D01*
X062403Y026108D02*
X062328Y026108D01*
X062328Y025869D02*
X062403Y025869D01*
X062403Y025631D02*
X062328Y025631D01*
X062328Y025392D02*
X062403Y025392D01*
X062403Y025154D02*
X062328Y025154D01*
X062901Y025154D02*
X062950Y025154D01*
X062950Y025392D02*
X062901Y025392D01*
X062901Y025631D02*
X062950Y025631D01*
X062950Y025869D02*
X062901Y025869D01*
X062901Y026108D02*
X062950Y026108D01*
X062950Y026346D02*
X062901Y026346D01*
X062901Y026585D02*
X062950Y026585D01*
X062950Y026823D02*
X062901Y026823D01*
X062901Y027062D02*
X062950Y027062D01*
X062950Y027300D02*
X062901Y027300D01*
X062901Y027539D02*
X062950Y027539D01*
X062950Y027777D02*
X062901Y027777D01*
X065801Y028731D02*
X068453Y028731D01*
X068639Y028970D02*
X066040Y028970D01*
X066278Y029208D02*
X068947Y029208D01*
X069168Y029447D02*
X066517Y029447D01*
X067505Y029685D02*
X069407Y029685D01*
X067663Y029924D02*
X071440Y029924D01*
X071615Y030162D02*
X067663Y030162D01*
X067663Y030401D02*
X071395Y030401D01*
X071348Y030639D02*
X067663Y030639D01*
X067502Y030878D02*
X071418Y030878D01*
X071722Y031116D02*
X067243Y031116D01*
X067175Y031355D02*
X072818Y031355D01*
X072818Y031593D02*
X067413Y031593D01*
X067652Y031832D02*
X072818Y031832D01*
X072818Y032070D02*
X072191Y032070D01*
X072168Y031116D02*
X072168Y031116D01*
X072168Y030878D02*
X072168Y030878D01*
X072168Y030639D02*
X072168Y030639D01*
X072614Y031116D02*
X072818Y031116D01*
X068639Y032070D02*
X067890Y032070D01*
X068129Y032309D02*
X068639Y032309D01*
X068639Y032547D02*
X068367Y032547D01*
X067797Y033263D02*
X067262Y033263D01*
X067262Y033147D02*
X067262Y033492D01*
X066764Y033492D01*
X066764Y032956D01*
X067071Y032956D01*
X067127Y032971D01*
X067177Y033000D01*
X067218Y033040D01*
X067247Y033091D01*
X067262Y033147D01*
X067202Y033024D02*
X067558Y033024D01*
X067320Y032786D02*
X066781Y032786D01*
X066781Y032801D02*
X066718Y032954D01*
X066689Y032982D01*
X066689Y033492D01*
X066764Y033492D01*
X066764Y033567D01*
X067262Y033567D01*
X067262Y033913D01*
X067247Y033969D01*
X067218Y034019D01*
X067177Y034060D01*
X067127Y034089D01*
X067071Y034104D01*
X067040Y034104D01*
X067050Y034139D01*
X067050Y034485D01*
X066552Y034485D01*
X066552Y034560D01*
X066477Y034560D01*
X066477Y034485D01*
X065980Y034485D01*
X065980Y034139D01*
X065989Y034104D01*
X065947Y034104D01*
X065947Y034968D01*
X065893Y035023D01*
X065947Y035077D01*
X065947Y035968D01*
X065945Y035970D01*
X065999Y035970D01*
X065995Y035962D01*
X065980Y035906D01*
X065980Y035560D01*
X066477Y035560D01*
X066477Y035485D01*
X065980Y035485D01*
X065980Y035139D01*
X065995Y035083D01*
X066024Y035033D01*
X066034Y035023D01*
X066024Y035012D01*
X065995Y034962D01*
X065980Y034906D01*
X065980Y034560D01*
X066477Y034560D01*
X066477Y035485D01*
X066552Y035485D01*
X066552Y035097D01*
X066552Y034560D01*
X067050Y034560D01*
X067050Y034906D01*
X067035Y034962D01*
X067006Y035012D01*
X066995Y035023D01*
X067006Y035033D01*
X067035Y035083D01*
X067050Y035139D01*
X067050Y035485D01*
X066552Y035485D01*
X066552Y035560D01*
X067050Y035560D01*
X067050Y035906D01*
X067035Y035962D01*
X067030Y035970D01*
X067116Y035970D01*
X067244Y036099D01*
X067244Y037135D01*
X067239Y037141D01*
X067244Y037161D01*
X067244Y037367D01*
X067244Y037573D01*
X067239Y037593D01*
X067244Y037599D01*
X067244Y038135D01*
X067185Y038195D01*
X067219Y038229D01*
X067245Y038293D01*
X067273Y038293D01*
X067402Y038422D01*
X067402Y039147D01*
X067434Y039147D01*
X067434Y038904D01*
X067932Y038904D01*
X067932Y038830D01*
X067434Y038830D01*
X067434Y038484D01*
X067449Y038428D01*
X067478Y038378D01*
X067519Y038337D01*
X067569Y038308D01*
X067625Y038293D01*
X067932Y038293D01*
X067932Y038830D01*
X068007Y038830D01*
X068007Y038904D01*
X068504Y038904D01*
X068504Y039147D01*
X069252Y039147D01*
X070232Y038167D01*
X069181Y038167D01*
X069084Y038264D01*
X067721Y038264D01*
X067592Y038135D01*
X067592Y036099D01*
X067721Y035970D01*
X069084Y035970D01*
X069213Y036099D01*
X069213Y037067D01*
X070339Y037067D01*
X070563Y036843D01*
X070563Y035092D01*
X070489Y035017D01*
X070379Y035017D01*
X070340Y035057D01*
X070193Y035117D01*
X070034Y035117D01*
X069886Y035057D01*
X069847Y035017D01*
X069553Y035017D01*
X069443Y034972D01*
X069359Y034887D01*
X068959Y034488D01*
X068913Y034377D01*
X068913Y034117D01*
X068767Y034117D01*
X068639Y033988D01*
X068639Y033882D01*
X068481Y033882D01*
X068371Y033837D01*
X068286Y033752D01*
X066188Y031654D01*
X066188Y031814D01*
X066059Y031943D01*
X065243Y031943D01*
X065243Y031992D01*
X066059Y031992D01*
X066188Y032121D01*
X066188Y032227D01*
X066233Y032227D01*
X066343Y032273D01*
X066369Y032299D01*
X066446Y032299D01*
X066600Y032363D01*
X066718Y032481D01*
X066781Y032634D01*
X066781Y032801D01*
X066764Y033024D02*
X066689Y033024D01*
X066689Y033263D02*
X066764Y033263D01*
X066764Y033501D02*
X068035Y033501D01*
X068274Y033740D02*
X067262Y033740D01*
X067241Y033978D02*
X068639Y033978D01*
X068913Y034217D02*
X067050Y034217D01*
X067050Y034455D02*
X068946Y034455D01*
X069165Y034694D02*
X067050Y034694D01*
X067042Y034932D02*
X069404Y034932D01*
X070563Y035171D02*
X067050Y035171D01*
X067050Y035409D02*
X070563Y035409D01*
X070563Y035648D02*
X067050Y035648D01*
X067050Y035886D02*
X070563Y035886D01*
X070563Y036125D02*
X069213Y036125D01*
X069213Y036363D02*
X070563Y036363D01*
X070563Y036602D02*
X069213Y036602D01*
X069213Y036840D02*
X070563Y036840D01*
X071538Y036840D02*
X071559Y036840D01*
X071538Y036861D02*
X072040Y036359D01*
X072189Y036298D01*
X072349Y036137D01*
X072168Y036137D01*
X071827Y036137D01*
X071746Y036124D01*
X071669Y036099D01*
X071596Y036062D01*
X071538Y036020D01*
X071538Y036861D01*
X071538Y036602D02*
X071797Y036602D01*
X072036Y036363D02*
X071538Y036363D01*
X071538Y036125D02*
X071751Y036125D01*
X072168Y036125D02*
X072168Y036125D01*
X072168Y036137D02*
X072168Y035617D01*
X072168Y035617D01*
X072168Y036137D01*
X072168Y035886D02*
X072168Y035886D01*
X072168Y035648D02*
X072168Y035648D01*
X067592Y036125D02*
X067244Y036125D01*
X067244Y036363D02*
X067592Y036363D01*
X067592Y036602D02*
X067244Y036602D01*
X067244Y036840D02*
X067592Y036840D01*
X067592Y037079D02*
X067244Y037079D01*
X067244Y037317D02*
X067592Y037317D01*
X067592Y037556D02*
X067244Y037556D01*
X067244Y037367D02*
X066434Y037367D01*
X066434Y037367D01*
X067244Y037367D01*
X067244Y037794D02*
X067592Y037794D01*
X067592Y038033D02*
X067244Y038033D01*
X067236Y038271D02*
X070128Y038271D01*
X069889Y038510D02*
X068504Y038510D01*
X068504Y038484D02*
X068504Y038830D01*
X068007Y038830D01*
X068007Y038293D01*
X068313Y038293D01*
X068369Y038308D01*
X068419Y038337D01*
X068460Y038378D01*
X068489Y038428D01*
X068504Y038484D01*
X068504Y038748D02*
X069651Y038748D01*
X069412Y038987D02*
X068504Y038987D01*
X068007Y038748D02*
X067932Y038748D01*
X067932Y038510D02*
X068007Y038510D01*
X067434Y038510D02*
X067402Y038510D01*
X067402Y038748D02*
X067434Y038748D01*
X067434Y038987D02*
X067402Y038987D01*
X066332Y038987D02*
X064781Y038987D01*
X064819Y038965D02*
X064577Y039105D01*
X064418Y039147D01*
X066332Y039147D01*
X066332Y038530D01*
X066196Y038394D01*
X066078Y038276D01*
X066073Y038264D01*
X065752Y038264D01*
X065623Y038135D01*
X065623Y037599D01*
X065629Y037593D01*
X065623Y037573D01*
X065623Y037367D01*
X065623Y037276D01*
X065596Y037287D01*
X065429Y037287D01*
X065275Y037223D01*
X065125Y037073D01*
X065007Y036955D01*
X064943Y036801D01*
X064943Y036552D01*
X064512Y036984D01*
X064411Y037085D01*
X064577Y037129D01*
X064819Y037269D01*
X065016Y037466D01*
X065156Y037708D01*
X065228Y037977D01*
X065228Y038257D01*
X065156Y038526D01*
X065016Y038768D01*
X064819Y038965D01*
X065028Y038748D02*
X066332Y038748D01*
X066312Y038510D02*
X065160Y038510D01*
X065224Y038271D02*
X066076Y038271D01*
X066196Y038394D02*
X066196Y038394D01*
X065623Y038033D02*
X065228Y038033D01*
X065179Y037794D02*
X065623Y037794D01*
X065623Y037556D02*
X065068Y037556D01*
X064868Y037317D02*
X065623Y037317D01*
X065623Y037367D02*
X066434Y037367D01*
X066434Y037367D01*
X065623Y037367D01*
X065131Y037079D02*
X064416Y037079D01*
X064655Y036840D02*
X064959Y036840D01*
X064943Y036602D02*
X064893Y036602D01*
X063999Y036167D02*
X063809Y036167D01*
X063607Y036083D01*
X063452Y035929D01*
X063418Y035847D01*
X063389Y035905D01*
X063338Y035975D01*
X063276Y036037D01*
X063206Y036087D01*
X063129Y036127D01*
X063047Y036153D01*
X062961Y036167D01*
X062918Y036167D01*
X062875Y036167D01*
X062789Y036153D01*
X062707Y036127D01*
X062630Y036087D01*
X062560Y036037D01*
X062499Y035975D01*
X062448Y035905D01*
X062418Y035847D01*
X062389Y035905D01*
X062338Y035975D01*
X062276Y036037D01*
X062206Y036087D01*
X062129Y036127D01*
X062047Y036153D01*
X061961Y036167D01*
X061918Y036167D01*
X061875Y036167D01*
X061789Y036153D01*
X061707Y036127D01*
X061630Y036087D01*
X061560Y036037D01*
X061499Y035975D01*
X061448Y035905D01*
X061418Y035847D01*
X061389Y035905D01*
X061338Y035975D01*
X061276Y036037D01*
X061206Y036087D01*
X061129Y036127D01*
X061047Y036153D01*
X060961Y036167D01*
X060918Y036167D01*
X060875Y036167D01*
X060789Y036153D01*
X060707Y036127D01*
X060630Y036087D01*
X060560Y036037D01*
X060499Y035975D01*
X060448Y035905D01*
X060408Y035828D01*
X060382Y035746D01*
X060368Y035660D01*
X060368Y035617D01*
X060368Y035574D01*
X060382Y035488D01*
X060408Y035406D01*
X060448Y035329D01*
X060499Y035259D01*
X060560Y035197D01*
X060630Y035147D01*
X060707Y035107D01*
X060789Y035081D01*
X060875Y035067D01*
X060918Y035067D01*
X060918Y035617D01*
X060368Y035617D01*
X060918Y035617D01*
X060918Y035617D01*
X060918Y035617D01*
X060918Y036167D01*
X060918Y035617D01*
X060918Y035617D01*
X060918Y035067D01*
X060961Y035067D01*
X061047Y035081D01*
X061129Y035107D01*
X061206Y035147D01*
X061276Y035197D01*
X061338Y035259D01*
X061389Y035329D01*
X061418Y035387D01*
X061448Y035329D01*
X061499Y035259D01*
X061560Y035197D01*
X061630Y035147D01*
X061707Y035107D01*
X061789Y035081D01*
X061875Y035067D01*
X061918Y035067D01*
X061918Y035617D01*
X060918Y035617D01*
X061468Y035617D01*
X061918Y035617D01*
X061918Y035617D01*
X061918Y035617D01*
X061918Y036167D01*
X061918Y035617D01*
X061918Y035617D01*
X061918Y035067D01*
X061961Y035067D01*
X062047Y035081D01*
X062129Y035107D01*
X062206Y035147D01*
X062276Y035197D01*
X062338Y035259D01*
X062389Y035329D01*
X062418Y035387D01*
X062448Y035329D01*
X062499Y035259D01*
X062560Y035197D01*
X062630Y035147D01*
X062707Y035107D01*
X062789Y035081D01*
X062875Y035067D01*
X062918Y035067D01*
X062918Y035617D01*
X062368Y035617D01*
X061918Y035617D01*
X062918Y035617D01*
X062918Y035617D01*
X062918Y035617D01*
X062918Y036167D01*
X062918Y035617D01*
X062918Y035617D01*
X062918Y035067D01*
X062961Y035067D01*
X063047Y035081D01*
X063129Y035107D01*
X063206Y035147D01*
X063276Y035197D01*
X063338Y035259D01*
X063389Y035329D01*
X063418Y035387D01*
X063452Y035305D01*
X063607Y035151D01*
X063809Y035067D01*
X064028Y035067D01*
X064198Y035138D01*
X064198Y033938D01*
X064157Y033897D01*
X064098Y033897D01*
X063920Y034075D01*
X063747Y034147D01*
X063720Y034147D01*
X063730Y034151D01*
X063884Y034305D01*
X063968Y034508D01*
X063968Y034726D01*
X063884Y034929D01*
X063730Y035083D01*
X063528Y035167D01*
X063309Y035167D01*
X063107Y035083D01*
X062952Y034929D01*
X062918Y034847D01*
X062884Y034929D01*
X062730Y035083D01*
X062528Y035167D01*
X062309Y035167D01*
X062107Y035083D01*
X061952Y034929D01*
X061918Y034847D01*
X061884Y034929D01*
X061730Y035083D01*
X061528Y035167D01*
X061309Y035167D01*
X061107Y035083D01*
X060952Y034929D01*
X060918Y034847D01*
X060889Y034905D01*
X060838Y034975D01*
X060776Y035037D01*
X060706Y035087D01*
X060629Y035127D01*
X060547Y035153D01*
X060461Y035167D01*
X060418Y035167D01*
X060375Y035167D01*
X060289Y035153D01*
X060207Y035127D01*
X060130Y035087D01*
X060060Y035037D01*
X059999Y034975D01*
X059948Y034905D01*
X059908Y034828D01*
X059882Y034746D01*
X059868Y034660D01*
X059868Y034617D01*
X059868Y034574D01*
X059882Y034488D01*
X059908Y034406D01*
X059948Y034329D01*
X059999Y034259D01*
X060060Y034197D01*
X060130Y034147D01*
X060148Y034137D01*
X060093Y034083D01*
X060093Y033271D01*
X060222Y033142D01*
X061114Y033142D01*
X061179Y033207D01*
X063266Y033207D01*
X063249Y033167D01*
X063249Y033127D01*
X063184Y033062D01*
X063184Y032205D01*
X063144Y032205D01*
X063152Y032234D01*
X063152Y032580D01*
X062654Y032580D01*
X062654Y032043D01*
X062789Y032043D01*
X062789Y031716D01*
X062462Y032043D01*
X062580Y032043D01*
X062580Y032580D01*
X062654Y032580D01*
X062654Y032654D01*
X062580Y032654D01*
X062580Y033191D01*
X062273Y033191D01*
X062217Y033176D01*
X062167Y033147D01*
X062126Y033106D01*
X062097Y033056D01*
X062082Y033000D01*
X062082Y032810D01*
X061943Y032867D01*
X061784Y032867D01*
X061636Y032807D01*
X061548Y032718D01*
X061446Y032761D01*
X061369Y032761D01*
X061318Y032811D01*
X061243Y032843D01*
X061243Y032963D01*
X061114Y033092D01*
X060222Y033092D01*
X060093Y032963D01*
X060093Y032795D01*
X060068Y032784D01*
X059914Y032630D01*
X059868Y032520D01*
X059868Y032212D01*
X059722Y032212D01*
X059687Y032177D01*
X059687Y032322D01*
X059559Y032451D01*
X058743Y032451D01*
X058743Y032484D01*
X059076Y032484D01*
X059076Y032981D01*
X059151Y032981D01*
X059151Y033056D01*
X059687Y033056D01*
X059687Y033363D01*
X059672Y033418D01*
X059643Y033469D01*
X059602Y033510D01*
X059552Y033539D01*
X059496Y033554D01*
X059151Y033554D01*
X059151Y033056D01*
X059076Y033056D01*
X059076Y033554D01*
X058743Y033554D01*
X058743Y033833D01*
X058638Y033938D01*
X058638Y034031D01*
X058881Y034031D01*
X058881Y034528D01*
X058956Y034528D01*
X058956Y034603D01*
X059493Y034603D01*
X059493Y034910D01*
X059478Y034966D01*
X059449Y035016D01*
X059408Y035057D01*
X059357Y035086D01*
X059301Y035101D01*
X058956Y035101D01*
X058956Y034603D01*
X058881Y034603D01*
X058881Y035101D01*
X058638Y035101D01*
X058638Y035133D01*
X059364Y035133D01*
X059493Y035262D01*
X059493Y036074D01*
X059388Y036179D01*
X059388Y037398D01*
X059517Y037269D01*
X059759Y037129D01*
X060029Y037057D01*
X060308Y037057D01*
X060577Y037129D01*
X060819Y037269D01*
X061016Y037466D01*
X061156Y037708D01*
X061228Y037977D01*
X061228Y038257D01*
X061156Y038526D01*
X061016Y038768D01*
X060819Y038965D01*
X060577Y039105D01*
X060418Y039147D01*
X062393Y039147D01*
X062393Y037374D01*
X062465Y037201D01*
X062597Y037069D01*
X063347Y036319D01*
X063520Y036247D01*
X063918Y036247D01*
X063999Y036167D01*
X063707Y036125D02*
X063133Y036125D01*
X062918Y036125D02*
X062918Y036125D01*
X062704Y036125D02*
X062133Y036125D01*
X061918Y036125D02*
X061918Y036125D01*
X061704Y036125D02*
X061133Y036125D01*
X060918Y036125D02*
X060918Y036125D01*
X060704Y036125D02*
X059442Y036125D01*
X059493Y035886D02*
X060438Y035886D01*
X060368Y035648D02*
X059493Y035648D01*
X059493Y035409D02*
X060407Y035409D01*
X060418Y035167D02*
X060418Y034617D01*
X059868Y034617D01*
X060418Y034617D01*
X060418Y034617D01*
X060418Y034617D01*
X060418Y035167D01*
X060596Y035171D02*
X059401Y035171D01*
X059486Y034932D02*
X059968Y034932D01*
X059874Y034694D02*
X059493Y034694D01*
X059493Y034528D02*
X058956Y034528D01*
X058956Y034031D01*
X059301Y034031D01*
X059357Y034046D01*
X059408Y034075D01*
X059449Y034116D01*
X059478Y034166D01*
X059493Y034222D01*
X059493Y034528D01*
X059493Y034455D02*
X059892Y034455D01*
X060040Y034217D02*
X059491Y034217D01*
X058956Y034217D02*
X058881Y034217D01*
X058881Y034455D02*
X058956Y034455D01*
X058956Y034694D02*
X058881Y034694D01*
X058881Y034932D02*
X058956Y034932D01*
X057698Y034932D02*
X057381Y034932D01*
X057384Y034929D02*
X057230Y035083D01*
X057028Y035167D01*
X056809Y035167D01*
X056607Y035083D01*
X056452Y034929D01*
X056418Y034847D01*
X056384Y034929D01*
X056230Y035083D01*
X056028Y035167D01*
X055809Y035167D01*
X055607Y035083D01*
X055452Y034929D01*
X055418Y034847D01*
X055384Y034929D01*
X055230Y035083D01*
X055028Y035167D01*
X054809Y035167D01*
X054607Y035083D01*
X054452Y034929D01*
X054418Y034847D01*
X054389Y034905D01*
X054338Y034975D01*
X054276Y035037D01*
X054206Y035087D01*
X054129Y035127D01*
X054047Y035153D01*
X053961Y035167D01*
X053918Y035167D01*
X053875Y035167D01*
X053789Y035153D01*
X053707Y035127D01*
X053630Y035087D01*
X053560Y035037D01*
X053499Y034975D01*
X053448Y034905D01*
X053408Y034828D01*
X053382Y034746D01*
X053368Y034660D01*
X053368Y034617D01*
X053368Y034574D01*
X053382Y034488D01*
X053408Y034406D01*
X053448Y034329D01*
X053499Y034259D01*
X053546Y034212D01*
X053472Y034212D01*
X053343Y034083D01*
X053343Y033271D01*
X053472Y033142D01*
X054364Y033142D01*
X054429Y033207D01*
X056709Y033207D01*
X056749Y033166D01*
X056749Y033127D01*
X056684Y033062D01*
X056684Y032205D01*
X056644Y032205D01*
X056652Y032234D01*
X056652Y032580D01*
X056154Y032580D01*
X056154Y032043D01*
X056289Y032043D01*
X056289Y031716D01*
X055962Y032043D01*
X056080Y032043D01*
X056080Y032580D01*
X056154Y032580D01*
X056154Y032654D01*
X056080Y032654D01*
X056080Y032580D01*
X055582Y032580D01*
X055582Y032423D01*
X055513Y032492D01*
X055513Y032547D01*
X055452Y032694D01*
X055340Y032807D01*
X055193Y032867D01*
X055034Y032867D01*
X054886Y032807D01*
X054876Y032796D01*
X054850Y032822D01*
X054696Y032886D01*
X054530Y032886D01*
X054493Y032870D01*
X054493Y032963D01*
X054364Y033092D01*
X053472Y033092D01*
X053343Y032963D01*
X053343Y032212D01*
X053222Y032212D01*
X053187Y032177D01*
X053187Y032322D01*
X053059Y032451D01*
X052243Y032451D01*
X052243Y032484D01*
X052576Y032484D01*
X052576Y032981D01*
X052651Y032981D01*
X052651Y033056D01*
X053187Y033056D01*
X053187Y033363D01*
X053172Y033418D01*
X053143Y033469D01*
X053102Y033510D01*
X053052Y033539D01*
X052996Y033554D01*
X052651Y033554D01*
X052651Y033056D01*
X052576Y033056D01*
X052576Y033554D01*
X052243Y033554D01*
X052243Y033833D01*
X052138Y033938D01*
X052138Y034031D01*
X052381Y034031D01*
X052381Y034528D01*
X052456Y034528D01*
X052456Y034603D01*
X052993Y034603D01*
X052993Y034910D01*
X052978Y034966D01*
X052949Y035016D01*
X052908Y035057D01*
X052857Y035086D01*
X052801Y035101D01*
X052456Y035101D01*
X052456Y034603D01*
X052381Y034603D01*
X052381Y035101D01*
X052138Y035101D01*
X052138Y035133D01*
X052864Y035133D01*
X052993Y035262D01*
X052993Y036074D01*
X052888Y036179D01*
X052888Y037398D01*
X053017Y037269D01*
X053259Y037129D01*
X053529Y037057D01*
X053808Y037057D01*
X054077Y037129D01*
X054319Y037269D01*
X054516Y037466D01*
X054656Y037708D01*
X054728Y037977D01*
X054728Y038257D01*
X054656Y038526D01*
X054516Y038768D01*
X054319Y038965D01*
X054077Y039105D01*
X053918Y039147D01*
X057418Y039147D01*
X057259Y039105D01*
X057017Y038965D01*
X056820Y038768D01*
X056680Y038526D01*
X056608Y038257D01*
X056608Y037977D01*
X056680Y037708D01*
X056820Y037466D01*
X057017Y037269D01*
X057259Y037129D01*
X057529Y037057D01*
X057808Y037057D01*
X058077Y037129D01*
X058319Y037269D01*
X058448Y037398D01*
X058448Y036179D01*
X058438Y036168D01*
X058014Y036168D01*
X057830Y036092D01*
X057826Y036088D01*
X057718Y036088D01*
X057528Y036167D01*
X057309Y036167D01*
X057107Y036083D01*
X056952Y035929D01*
X056918Y035847D01*
X056889Y035905D01*
X056838Y035975D01*
X056776Y036037D01*
X056706Y036087D01*
X056629Y036127D01*
X056547Y036153D01*
X056461Y036167D01*
X056418Y036167D01*
X056375Y036167D01*
X056289Y036153D01*
X056207Y036127D01*
X056130Y036087D01*
X056060Y036037D01*
X055999Y035975D01*
X055948Y035905D01*
X055918Y035847D01*
X055889Y035905D01*
X055838Y035975D01*
X055776Y036037D01*
X055706Y036087D01*
X055629Y036127D01*
X055547Y036153D01*
X055461Y036167D01*
X055418Y036167D01*
X055375Y036167D01*
X055289Y036153D01*
X055207Y036127D01*
X055130Y036087D01*
X055060Y036037D01*
X054999Y035975D01*
X054948Y035905D01*
X054918Y035847D01*
X054889Y035905D01*
X054838Y035975D01*
X054776Y036037D01*
X054706Y036087D01*
X054629Y036127D01*
X054547Y036153D01*
X054461Y036167D01*
X054418Y036167D01*
X054375Y036167D01*
X054289Y036153D01*
X054207Y036127D01*
X054130Y036087D01*
X054060Y036037D01*
X053999Y035975D01*
X053948Y035905D01*
X053908Y035828D01*
X053882Y035746D01*
X053868Y035660D01*
X053868Y035617D01*
X053868Y035574D01*
X053882Y035488D01*
X053908Y035406D01*
X053948Y035329D01*
X053999Y035259D01*
X054060Y035197D01*
X054130Y035147D01*
X054207Y035107D01*
X054289Y035081D01*
X054375Y035067D01*
X054418Y035067D01*
X054418Y035617D01*
X053868Y035617D01*
X054418Y035617D01*
X054418Y035617D01*
X054418Y035617D01*
X054418Y036167D01*
X054418Y035617D01*
X054418Y035617D01*
X054418Y035067D01*
X054461Y035067D01*
X054547Y035081D01*
X054629Y035107D01*
X054706Y035147D01*
X054776Y035197D01*
X054838Y035259D01*
X054889Y035329D01*
X054918Y035387D01*
X054948Y035329D01*
X054999Y035259D01*
X055060Y035197D01*
X055130Y035147D01*
X055207Y035107D01*
X055289Y035081D01*
X055375Y035067D01*
X055418Y035067D01*
X055418Y035617D01*
X054418Y035617D01*
X054968Y035617D01*
X055418Y035617D01*
X055418Y035617D01*
X055418Y035617D01*
X055418Y036167D01*
X055418Y035617D01*
X055418Y035617D01*
X055418Y035067D01*
X055461Y035067D01*
X055547Y035081D01*
X055629Y035107D01*
X055706Y035147D01*
X055776Y035197D01*
X055838Y035259D01*
X055889Y035329D01*
X055918Y035387D01*
X055948Y035329D01*
X055999Y035259D01*
X056060Y035197D01*
X056130Y035147D01*
X056207Y035107D01*
X056289Y035081D01*
X056375Y035067D01*
X056418Y035067D01*
X056418Y035617D01*
X055868Y035617D01*
X055418Y035617D01*
X056418Y035617D01*
X056418Y035617D01*
X056418Y035617D01*
X056418Y036167D01*
X056418Y035617D01*
X056418Y035617D01*
X056418Y035067D01*
X056461Y035067D01*
X056547Y035081D01*
X056629Y035107D01*
X056706Y035147D01*
X056776Y035197D01*
X056838Y035259D01*
X056889Y035329D01*
X056918Y035387D01*
X056952Y035305D01*
X057107Y035151D01*
X057309Y035067D01*
X057528Y035067D01*
X057698Y035138D01*
X057698Y033938D01*
X057657Y033897D01*
X057479Y033897D01*
X057387Y033859D01*
X057170Y034075D01*
X057109Y034101D01*
X057230Y034151D01*
X057384Y034305D01*
X057468Y034508D01*
X057468Y034726D01*
X057384Y034929D01*
X057468Y034694D02*
X057698Y034694D01*
X057698Y034455D02*
X057447Y034455D01*
X057296Y034217D02*
X057698Y034217D01*
X057698Y033978D02*
X057267Y033978D01*
X056567Y033147D02*
X056517Y033176D01*
X056461Y033191D01*
X056154Y033191D01*
X056154Y032654D01*
X056652Y032654D01*
X056652Y033000D01*
X056637Y033056D01*
X056608Y033106D01*
X056567Y033147D01*
X056646Y033024D02*
X056684Y033024D01*
X056684Y032786D02*
X056652Y032786D01*
X056652Y032547D02*
X056684Y032547D01*
X056684Y032309D02*
X056652Y032309D01*
X056154Y032309D02*
X056080Y032309D01*
X056080Y032547D02*
X056154Y032547D01*
X056080Y032654D02*
X055582Y032654D01*
X055582Y033000D01*
X055597Y033056D01*
X055626Y033106D01*
X055667Y033147D01*
X055717Y033176D01*
X055773Y033191D01*
X056080Y033191D01*
X056080Y032654D01*
X056080Y032786D02*
X056154Y032786D01*
X056154Y033024D02*
X056080Y033024D01*
X055589Y033024D02*
X054432Y033024D01*
X055360Y032786D02*
X055582Y032786D01*
X055582Y032547D02*
X055513Y032547D01*
X056942Y031867D02*
X057219Y032145D01*
X057219Y032617D01*
X056154Y032070D02*
X056080Y032070D01*
X056173Y031832D02*
X056289Y031832D01*
X053343Y032309D02*
X053187Y032309D01*
X053052Y032499D02*
X053102Y032528D01*
X053143Y032569D01*
X053172Y032619D01*
X053187Y032675D01*
X053187Y032981D01*
X052651Y032981D01*
X052651Y032484D01*
X052996Y032484D01*
X053052Y032499D01*
X053122Y032547D02*
X053343Y032547D01*
X053343Y032786D02*
X053187Y032786D01*
X053404Y033024D02*
X052651Y033024D01*
X052651Y032786D02*
X052576Y032786D01*
X052576Y032547D02*
X052651Y032547D01*
X052651Y033263D02*
X052576Y033263D01*
X052576Y033501D02*
X052651Y033501D01*
X053111Y033501D02*
X053343Y033501D01*
X053351Y033263D02*
X053187Y033263D01*
X053343Y033740D02*
X052243Y033740D01*
X052138Y033978D02*
X053343Y033978D01*
X053540Y034217D02*
X052991Y034217D01*
X052993Y034222D02*
X052993Y034528D01*
X052456Y034528D01*
X052456Y034031D01*
X052801Y034031D01*
X052857Y034046D01*
X052908Y034075D01*
X052949Y034116D01*
X052978Y034166D01*
X052993Y034222D01*
X052993Y034455D02*
X053392Y034455D01*
X053368Y034617D02*
X053918Y034617D01*
X053918Y034617D01*
X053368Y034617D01*
X053374Y034694D02*
X052993Y034694D01*
X052986Y034932D02*
X053468Y034932D01*
X053918Y034932D02*
X053918Y034932D01*
X053918Y035167D02*
X053918Y034617D01*
X053918Y034617D01*
X053918Y035167D01*
X054096Y035171D02*
X052901Y035171D01*
X052993Y035409D02*
X053907Y035409D01*
X053868Y035648D02*
X052993Y035648D01*
X052993Y035886D02*
X053938Y035886D01*
X054204Y036125D02*
X052942Y036125D01*
X052888Y036363D02*
X058448Y036363D01*
X058448Y036602D02*
X052888Y036602D01*
X052888Y036840D02*
X058448Y036840D01*
X058448Y037079D02*
X057890Y037079D01*
X057447Y037079D02*
X053890Y037079D01*
X053447Y037079D02*
X052888Y037079D01*
X052888Y037317D02*
X052969Y037317D01*
X051948Y037317D02*
X051868Y037317D01*
X051819Y037269D02*
X051948Y037398D01*
X051948Y036179D01*
X051938Y036168D01*
X051514Y036168D01*
X051330Y036092D01*
X051325Y036087D01*
X051221Y036087D01*
X051028Y036167D01*
X050809Y036167D01*
X050607Y036083D01*
X050452Y035929D01*
X050418Y035847D01*
X050389Y035905D01*
X050338Y035975D01*
X050276Y036037D01*
X050206Y036087D01*
X050129Y036127D01*
X050047Y036153D01*
X049961Y036167D01*
X049918Y036167D01*
X049875Y036167D01*
X049789Y036153D01*
X049707Y036127D01*
X049630Y036087D01*
X049560Y036037D01*
X049499Y035975D01*
X049448Y035905D01*
X049418Y035847D01*
X049389Y035905D01*
X049338Y035975D01*
X049276Y036037D01*
X049206Y036087D01*
X049129Y036127D01*
X049047Y036153D01*
X048961Y036167D01*
X048918Y036167D01*
X048875Y036167D01*
X048789Y036153D01*
X048707Y036127D01*
X048630Y036087D01*
X048560Y036037D01*
X048499Y035975D01*
X048448Y035905D01*
X048418Y035847D01*
X048389Y035905D01*
X048338Y035975D01*
X048276Y036037D01*
X048206Y036087D01*
X048129Y036127D01*
X048047Y036153D01*
X047961Y036167D01*
X047918Y036167D01*
X047875Y036167D01*
X047789Y036153D01*
X047707Y036127D01*
X047630Y036087D01*
X047560Y036037D01*
X047499Y035975D01*
X047448Y035905D01*
X047408Y035828D01*
X047382Y035746D01*
X047368Y035660D01*
X047368Y035617D01*
X047368Y035574D01*
X047382Y035488D01*
X047408Y035406D01*
X047448Y035329D01*
X047499Y035259D01*
X047560Y035197D01*
X047630Y035147D01*
X047707Y035107D01*
X047789Y035081D01*
X047875Y035067D01*
X047918Y035067D01*
X047918Y035617D01*
X047368Y035617D01*
X047918Y035617D01*
X047918Y035617D01*
X047918Y035617D01*
X047918Y036167D01*
X047918Y035617D01*
X047918Y035617D01*
X047918Y035067D01*
X047961Y035067D01*
X048047Y035081D01*
X048129Y035107D01*
X048206Y035147D01*
X048276Y035197D01*
X048338Y035259D01*
X048389Y035329D01*
X048418Y035387D01*
X048448Y035329D01*
X048499Y035259D01*
X048560Y035197D01*
X048630Y035147D01*
X048707Y035107D01*
X048789Y035081D01*
X048875Y035067D01*
X048918Y035067D01*
X048918Y035617D01*
X047918Y035617D01*
X048468Y035617D01*
X048918Y035617D01*
X048918Y035617D01*
X048918Y035617D01*
X048918Y036167D01*
X048918Y035617D01*
X048918Y035617D01*
X048918Y035067D01*
X048961Y035067D01*
X049047Y035081D01*
X049129Y035107D01*
X049206Y035147D01*
X049276Y035197D01*
X049338Y035259D01*
X049389Y035329D01*
X049418Y035387D01*
X049448Y035329D01*
X049499Y035259D01*
X049560Y035197D01*
X049630Y035147D01*
X049707Y035107D01*
X049789Y035081D01*
X049875Y035067D01*
X049918Y035067D01*
X049918Y035617D01*
X049368Y035617D01*
X048918Y035617D01*
X049918Y035617D01*
X049918Y035617D01*
X049918Y035617D01*
X049918Y036167D01*
X049918Y035617D01*
X049918Y035617D01*
X049918Y035067D01*
X049961Y035067D01*
X050047Y035081D01*
X050129Y035107D01*
X050206Y035147D01*
X050276Y035197D01*
X050338Y035259D01*
X050389Y035329D01*
X050418Y035387D01*
X050452Y035305D01*
X050607Y035151D01*
X050809Y035067D01*
X051028Y035067D01*
X051198Y035138D01*
X051198Y033938D01*
X051157Y033897D01*
X050979Y033897D01*
X050887Y033859D01*
X050670Y034075D01*
X050609Y034101D01*
X050730Y034151D01*
X050884Y034305D01*
X050968Y034508D01*
X050968Y034726D01*
X050884Y034929D01*
X050730Y035083D01*
X050528Y035167D01*
X050309Y035167D01*
X050107Y035083D01*
X049952Y034929D01*
X049918Y034847D01*
X049884Y034929D01*
X049730Y035083D01*
X049528Y035167D01*
X049309Y035167D01*
X049107Y035083D01*
X048952Y034929D01*
X048918Y034847D01*
X048884Y034929D01*
X048730Y035083D01*
X048528Y035167D01*
X048309Y035167D01*
X048107Y035083D01*
X047952Y034929D01*
X047918Y034847D01*
X047889Y034905D01*
X047838Y034975D01*
X047776Y035037D01*
X047706Y035087D01*
X047629Y035127D01*
X047547Y035153D01*
X047461Y035167D01*
X047418Y035167D01*
X047375Y035167D01*
X047289Y035153D01*
X047207Y035127D01*
X047130Y035087D01*
X047060Y035037D01*
X046999Y034975D01*
X046948Y034905D01*
X046908Y034828D01*
X046882Y034746D01*
X046868Y034660D01*
X046868Y034617D01*
X046868Y034574D01*
X046882Y034488D01*
X046908Y034406D01*
X046948Y034329D01*
X046999Y034259D01*
X047031Y034227D01*
X046713Y034227D01*
X046511Y034143D01*
X046493Y034125D01*
X046493Y034564D01*
X046364Y034693D01*
X045472Y034693D01*
X045343Y034564D01*
X045343Y034035D01*
X045262Y034035D01*
X045151Y034146D01*
X044789Y034146D01*
X044789Y034901D01*
X044743Y035011D01*
X044243Y035512D01*
X044243Y035543D01*
X044208Y035628D01*
X045345Y035628D01*
X045343Y035621D01*
X045343Y035315D01*
X045881Y035315D01*
X045881Y035240D01*
X045956Y035240D01*
X045956Y035315D01*
X046493Y035315D01*
X046493Y035621D01*
X046478Y035677D01*
X046449Y035727D01*
X046408Y035768D01*
X046358Y035797D01*
X046355Y035798D01*
X046355Y036296D01*
X046308Y036342D01*
X046355Y036389D01*
X046355Y036965D01*
X046298Y037022D01*
X046298Y037038D01*
X046355Y037095D01*
X046355Y037431D01*
X046517Y037269D01*
X046759Y037129D01*
X047029Y037057D01*
X047308Y037057D01*
X047577Y037129D01*
X047819Y037269D01*
X048016Y037466D01*
X048156Y037708D01*
X048228Y037977D01*
X048228Y038257D01*
X048156Y038526D01*
X048016Y038768D01*
X047819Y038965D01*
X047577Y039105D01*
X047418Y039147D01*
X050918Y039147D01*
X050759Y039105D01*
X050517Y038965D01*
X050320Y038768D01*
X050180Y038526D01*
X050108Y038257D01*
X050108Y037977D01*
X050180Y037708D01*
X050320Y037466D01*
X050517Y037269D01*
X050759Y037129D01*
X051029Y037057D01*
X051308Y037057D01*
X051577Y037129D01*
X051819Y037269D01*
X051948Y037079D02*
X051390Y037079D01*
X050947Y037079D02*
X047390Y037079D01*
X046947Y037079D02*
X046339Y037079D01*
X046355Y037317D02*
X046469Y037317D01*
X046355Y036840D02*
X051948Y036840D01*
X051948Y036602D02*
X046355Y036602D01*
X046329Y036363D02*
X051948Y036363D01*
X051409Y036125D02*
X051129Y036125D01*
X050707Y036125D02*
X050133Y036125D01*
X049918Y036125D02*
X049918Y036125D01*
X049704Y036125D02*
X049133Y036125D01*
X048918Y036125D02*
X048918Y036125D01*
X048704Y036125D02*
X048133Y036125D01*
X047918Y036125D02*
X047918Y036125D01*
X047704Y036125D02*
X046355Y036125D01*
X046355Y035886D02*
X047438Y035886D01*
X047368Y035648D02*
X046486Y035648D01*
X046493Y035409D02*
X047407Y035409D01*
X047418Y035167D02*
X047418Y034617D01*
X046868Y034617D01*
X047418Y034617D01*
X047418Y034617D01*
X047418Y034617D01*
X047418Y035167D01*
X047596Y035171D02*
X046493Y035171D01*
X046493Y035240D02*
X045956Y035240D01*
X045956Y034742D01*
X046302Y034742D01*
X046358Y034757D01*
X046408Y034786D01*
X046449Y034827D01*
X046478Y034877D01*
X046493Y034933D01*
X046493Y035240D01*
X046493Y034932D02*
X046968Y034932D01*
X046874Y034694D02*
X044789Y034694D01*
X044789Y034455D02*
X045343Y034455D01*
X045343Y034217D02*
X044789Y034217D01*
X044189Y034134D02*
X044028Y034067D01*
X043809Y034067D01*
X043607Y034151D01*
X043452Y034305D01*
X043418Y034387D01*
X043384Y034305D01*
X043230Y034151D01*
X043028Y034067D01*
X042809Y034067D01*
X042607Y034151D01*
X042452Y034305D01*
X042418Y034387D01*
X042388Y034314D01*
X042388Y034230D01*
X042463Y034155D01*
X042570Y034048D01*
X042628Y033908D01*
X042628Y033893D01*
X042654Y033893D01*
X042783Y033764D01*
X042783Y032872D01*
X042729Y032818D01*
X042783Y032764D01*
X042783Y031874D01*
X042814Y031844D01*
X042814Y030951D01*
X042685Y030823D01*
X041873Y030823D01*
X041744Y030951D01*
X041744Y031098D01*
X041623Y031098D01*
X041513Y031143D01*
X041357Y031299D01*
X041280Y031299D01*
X041126Y031363D01*
X041009Y031481D01*
X040945Y031634D01*
X040945Y031801D01*
X041009Y031954D01*
X041063Y032009D01*
X041063Y032088D01*
X040908Y032088D01*
X040779Y032217D01*
X040779Y033108D01*
X040824Y033153D01*
X040824Y034013D01*
X040953Y034142D01*
X041448Y034142D01*
X041448Y034314D01*
X041368Y034508D01*
X041368Y034726D01*
X041452Y034929D01*
X041607Y035083D01*
X041809Y035167D01*
X042028Y035167D01*
X042230Y035083D01*
X042384Y034929D01*
X042418Y034847D01*
X042452Y034929D01*
X042607Y035083D01*
X042809Y035167D01*
X043028Y035167D01*
X043230Y035083D01*
X043384Y034929D01*
X043418Y034847D01*
X043452Y034929D01*
X043607Y035083D01*
X043702Y035123D01*
X043682Y035131D01*
X043528Y035067D01*
X043309Y035067D01*
X043107Y035151D01*
X042952Y035305D01*
X042918Y035387D01*
X042889Y035329D01*
X042838Y035259D01*
X042776Y035197D01*
X042706Y035147D01*
X042629Y035107D01*
X042547Y035081D01*
X042461Y035067D01*
X042418Y035067D01*
X042418Y035617D01*
X042418Y035617D01*
X042418Y036167D01*
X042375Y036167D01*
X042289Y036153D01*
X042207Y036127D01*
X042130Y036087D01*
X042060Y036037D01*
X041999Y035975D01*
X041948Y035905D01*
X041918Y035847D01*
X041884Y035929D01*
X041730Y036083D01*
X041528Y036167D01*
X041309Y036167D01*
X041107Y036083D01*
X040952Y035929D01*
X040868Y035726D01*
X040868Y035508D01*
X040952Y035305D01*
X041107Y035151D01*
X041309Y035067D01*
X041528Y035067D01*
X041730Y035151D01*
X041884Y035305D01*
X041918Y035387D01*
X041948Y035329D01*
X041999Y035259D01*
X042060Y035197D01*
X042130Y035147D01*
X042207Y035107D01*
X042289Y035081D01*
X042375Y035067D01*
X042418Y035067D01*
X042418Y035617D01*
X042418Y035617D01*
X042418Y036167D01*
X042461Y036167D01*
X042547Y036153D01*
X042629Y036127D01*
X042706Y036087D01*
X042776Y036037D01*
X042838Y035975D01*
X042889Y035905D01*
X042918Y035847D01*
X042952Y035929D01*
X043107Y036083D01*
X043309Y036167D01*
X043366Y036167D01*
X043605Y036406D01*
X043778Y036478D01*
X043965Y036478D01*
X044138Y036406D01*
X044156Y036388D01*
X045483Y036388D01*
X045482Y036389D01*
X045482Y036965D01*
X045538Y037022D01*
X045538Y037038D01*
X045482Y037095D01*
X045482Y037431D01*
X045319Y037269D01*
X045077Y037129D01*
X044808Y037057D01*
X044529Y037057D01*
X044259Y037129D01*
X044017Y037269D01*
X043820Y037466D01*
X043680Y037708D01*
X043608Y037977D01*
X043608Y038257D01*
X043680Y038526D01*
X043820Y038768D01*
X044017Y038965D01*
X044259Y039105D01*
X044529Y039177D01*
X044808Y039177D01*
X045077Y039105D01*
X045319Y038965D01*
X045344Y038940D01*
X045344Y039127D01*
X045473Y039256D01*
X046115Y039256D01*
X046147Y039289D01*
X045956Y039289D01*
X045956Y039786D01*
X045956Y039861D01*
X046493Y039861D01*
X046493Y040168D01*
X046478Y040224D01*
X046449Y040274D01*
X046408Y040315D01*
X046357Y040344D01*
X046301Y040359D01*
X045956Y040359D01*
X045956Y039861D01*
X045881Y039861D01*
X045881Y040359D01*
X045535Y040359D01*
X045479Y040344D01*
X045429Y040315D01*
X045388Y040274D01*
X045359Y040224D01*
X045344Y040168D01*
X045344Y039861D01*
X045881Y039861D01*
X045881Y039786D01*
X045956Y039786D01*
X046493Y039786D01*
X046493Y039634D01*
X046543Y039685D01*
X046543Y039831D01*
X046630Y040040D01*
X046790Y040201D01*
X047000Y040287D01*
X069601Y040287D01*
X069811Y040201D01*
X070184Y039827D01*
X070078Y040067D01*
X070078Y040411D01*
X070165Y040606D01*
X026168Y040606D01*
X026481Y019595D01*
X026883Y019595D01*
X027012Y019466D01*
X027012Y018500D01*
X027053Y018517D01*
X027739Y018517D01*
X028202Y018981D01*
X028202Y018981D01*
X028287Y019065D01*
X028397Y019111D01*
X028516Y019111D01*
X028592Y019080D01*
X030046Y019080D01*
X029920Y019206D01*
X029826Y019432D01*
X029826Y019503D01*
X029020Y020309D01*
X028948Y020482D01*
X028948Y025880D01*
X028477Y026351D01*
X028218Y026092D01*
X027861Y025944D01*
X027475Y025944D01*
X027119Y026092D01*
X026846Y026365D01*
X026698Y026721D01*
X026698Y027107D01*
X026846Y027464D01*
X027119Y027737D01*
X027475Y027884D01*
X027861Y027884D01*
X028218Y027737D01*
X028491Y027464D01*
X028511Y027414D01*
X028720Y027414D01*
X028904Y027338D01*
X029842Y026400D01*
X029907Y026244D01*
X029907Y026276D01*
X030000Y026502D01*
X030051Y026552D01*
X030051Y026615D01*
X028770Y027896D01*
X028698Y028069D01*
X028698Y028546D01*
X028668Y028618D01*
X028668Y029660D01*
X028258Y030070D01*
X028218Y030029D01*
X027861Y029881D01*
X027475Y029881D01*
X027119Y030029D01*
X026846Y030302D01*
X026698Y030658D01*
X026698Y031044D01*
X026846Y031401D01*
X027119Y031674D01*
X027475Y031821D01*
X027861Y031821D01*
X028218Y031674D01*
X028491Y031401D01*
X028596Y031146D01*
X029451Y030291D01*
X029592Y030150D01*
X029668Y029966D01*
X029668Y028618D01*
X029638Y028546D01*
X029638Y028357D01*
X030787Y027208D01*
X030919Y027076D01*
X030991Y026903D01*
X030991Y026552D01*
X031041Y026502D01*
X031134Y026276D01*
X031134Y026032D01*
X031041Y025807D01*
X030868Y025634D01*
X030643Y025541D01*
X030398Y025541D01*
X030173Y025634D01*
X030000Y025807D01*
X029916Y026011D01*
X029888Y025945D01*
X029888Y022326D01*
X029920Y022402D01*
X030051Y022533D01*
X030051Y023257D01*
X030000Y023307D01*
X029907Y023532D01*
X029907Y023776D01*
X030000Y024002D01*
X030173Y024175D01*
X030398Y024268D01*
X030470Y024268D01*
X033143Y026942D01*
X033143Y027726D01*
X032916Y027726D01*
X032618Y027849D01*
X032390Y028077D01*
X032267Y028375D01*
X032267Y028698D01*
X032390Y028995D01*
X032618Y029223D01*
X032916Y029347D01*
X034420Y029347D01*
X034718Y029223D01*
X034946Y028995D01*
X035069Y028698D01*
X035069Y028375D01*
X034946Y028077D01*
X034718Y027849D01*
X034420Y027726D01*
X034083Y027726D01*
X034083Y026653D01*
X034012Y026481D01*
X031134Y023603D01*
X031134Y023532D01*
X031041Y023307D01*
X030991Y023257D01*
X030991Y022328D01*
X031054Y022176D01*
X031054Y021932D01*
X030960Y021706D01*
X030787Y021534D01*
X030562Y021440D01*
X030318Y021440D01*
X030092Y021534D01*
X029920Y021706D01*
X029888Y021782D01*
X029888Y020770D01*
X030491Y020168D01*
X030562Y020168D01*
X030787Y020074D01*
X030960Y019902D01*
X031054Y019676D01*
X031054Y019432D01*
X030960Y019206D01*
X030834Y019080D01*
X031110Y019080D01*
X031221Y019034D01*
X031305Y018950D01*
X031800Y018455D01*
X036283Y018455D01*
X036092Y018534D01*
X035920Y018706D01*
X035826Y018932D01*
X035826Y019176D01*
X035920Y019402D01*
X036015Y019497D01*
X035270Y019497D01*
X035097Y019569D01*
X034965Y019701D01*
X034215Y020451D01*
X034143Y020624D01*
X034143Y022561D01*
X034215Y022734D01*
X034347Y022866D01*
X035034Y023553D01*
X035207Y023624D01*
X036051Y023624D01*
X036051Y023718D01*
X036122Y023891D01*
X036465Y024234D01*
X036597Y024366D01*
X036770Y024437D01*
X037008Y024437D01*
X037057Y024554D01*
X037192Y024689D01*
X037368Y024763D01*
X037559Y024763D01*
X037735Y024689D01*
X037870Y024554D01*
X037943Y024378D01*
X037943Y024374D01*
X040719Y024374D01*
X040713Y024388D01*
X040713Y024547D01*
X040755Y024649D01*
X040688Y024716D01*
X040688Y025608D01*
X040723Y025643D01*
X040703Y025677D01*
X040688Y025733D01*
X040688Y026080D01*
X041185Y026080D01*
X041185Y026154D01*
X040688Y026154D01*
X040688Y026501D01*
X040703Y026557D01*
X040732Y026607D01*
X040773Y026648D01*
X040823Y026677D01*
X040879Y026692D01*
X041185Y026692D01*
X041185Y026154D01*
X041260Y026154D01*
X041260Y026692D01*
X041567Y026692D01*
X041623Y026677D01*
X041673Y026648D01*
X041714Y026607D01*
X041722Y026593D01*
X041722Y026763D01*
X041851Y026892D01*
X042114Y026892D01*
X042193Y026972D01*
X042847Y027625D01*
X042957Y027671D01*
X043076Y027671D01*
X043149Y027641D01*
X043253Y027641D01*
X043256Y027647D01*
X043250Y027647D01*
X043040Y027734D01*
X042867Y027908D01*
X040924Y027908D01*
X040902Y027917D01*
X039939Y027917D01*
X039891Y027936D01*
X038805Y027936D01*
X038718Y027849D01*
X038420Y027726D01*
X037648Y027726D01*
X037735Y027689D01*
X037870Y027554D01*
X037943Y027378D01*
X037943Y026667D01*
X037883Y026522D01*
X037883Y026291D01*
X037982Y026193D01*
X038364Y026193D01*
X038372Y026189D01*
X038647Y026189D01*
X038651Y026186D01*
X038651Y026372D01*
X038666Y026428D01*
X038695Y026478D01*
X038736Y026519D01*
X038786Y026548D01*
X038842Y026563D01*
X039147Y026563D01*
X039147Y026147D01*
X039147Y026147D01*
X039147Y026563D01*
X039451Y026563D01*
X039507Y026548D01*
X039557Y026519D01*
X039568Y026508D01*
X039568Y026563D01*
X039697Y026692D01*
X040509Y026692D01*
X040638Y026563D01*
X040638Y025671D01*
X040607Y025640D01*
X040638Y025608D01*
X040638Y024716D01*
X040509Y024587D01*
X039697Y024587D01*
X039568Y024716D01*
X039568Y024747D01*
X039270Y024747D01*
X039097Y024819D01*
X038965Y024951D01*
X038941Y024975D01*
X038925Y024982D01*
X038780Y024982D01*
X038651Y025111D01*
X038651Y025360D01*
X038647Y025356D01*
X038372Y025356D01*
X038364Y025353D01*
X037724Y025353D01*
X037570Y025416D01*
X037226Y025761D01*
X037107Y025879D01*
X037089Y025923D01*
X037041Y025807D01*
X036868Y025634D01*
X036643Y025541D01*
X036398Y025541D01*
X036173Y025634D01*
X036000Y025807D01*
X035907Y026032D01*
X035907Y026276D01*
X036000Y026502D01*
X036051Y026552D01*
X036051Y026718D01*
X036122Y026891D01*
X036465Y027234D01*
X036597Y027366D01*
X036770Y027437D01*
X037008Y027437D01*
X037057Y027554D01*
X037192Y027689D01*
X037279Y027726D01*
X036916Y027726D01*
X036618Y027849D01*
X036390Y028077D01*
X036267Y028375D01*
X036267Y028698D01*
X036390Y028995D01*
X036618Y029223D01*
X036916Y029347D01*
X038420Y029347D01*
X038718Y029223D01*
X038805Y029136D01*
X039560Y029136D01*
X039528Y029169D01*
X039499Y029219D01*
X039484Y029275D01*
X039484Y029581D01*
X040020Y029581D01*
X040020Y029656D01*
X039484Y029656D01*
X039484Y029963D01*
X039494Y030001D01*
X039462Y030033D01*
X039433Y030083D01*
X039418Y030139D01*
X039418Y030485D01*
X039916Y030485D01*
X039916Y030560D01*
X039916Y031097D01*
X039609Y031097D01*
X039553Y031082D01*
X039503Y031053D01*
X039462Y031013D01*
X039433Y030962D01*
X039418Y030906D01*
X039418Y030560D01*
X039916Y030560D01*
X039991Y030560D01*
X040488Y030560D01*
X040488Y030906D01*
X040473Y030962D01*
X040444Y031013D01*
X040403Y031053D01*
X040353Y031082D01*
X040297Y031097D01*
X039991Y031097D01*
X039991Y030560D01*
X039991Y030485D01*
X040488Y030485D01*
X040488Y030141D01*
X040497Y030139D01*
X040538Y030115D01*
X040538Y030969D01*
X040667Y031097D01*
X041479Y031097D01*
X041608Y030969D01*
X041608Y030076D01*
X041591Y030060D01*
X041618Y030033D01*
X041618Y029927D01*
X043979Y029927D01*
X043193Y030713D01*
X043193Y030713D01*
X043109Y030797D01*
X043098Y030823D01*
X042992Y030823D01*
X042863Y030951D01*
X042863Y031841D01*
X042833Y031872D01*
X042833Y032764D01*
X042887Y032818D01*
X042833Y032872D01*
X042833Y033764D01*
X042962Y033893D01*
X043774Y033893D01*
X043903Y033764D01*
X043903Y033671D01*
X043978Y033640D01*
X044189Y033429D01*
X044189Y034134D01*
X044189Y033978D02*
X042599Y033978D01*
X042540Y034217D02*
X042401Y034217D01*
X042381Y034932D02*
X042456Y034932D01*
X042418Y035171D02*
X042418Y035171D01*
X042418Y035409D02*
X042418Y035409D01*
X042418Y035648D02*
X042418Y035648D01*
X042418Y035886D02*
X042418Y035886D01*
X042418Y036125D02*
X042418Y036125D01*
X042204Y036125D02*
X041629Y036125D01*
X041902Y035886D02*
X041938Y035886D01*
X042096Y035171D02*
X041750Y035171D01*
X041456Y034932D02*
X037502Y034932D01*
X037263Y034694D02*
X041368Y034694D01*
X041390Y034455D02*
X036952Y034455D01*
X037076Y034507D02*
X038076Y035507D01*
X038279Y035709D01*
X038388Y035974D01*
X038388Y036387D01*
X038420Y036387D01*
X038718Y036511D01*
X038946Y036739D01*
X039069Y037036D01*
X039069Y037359D01*
X038946Y037657D01*
X038718Y037885D01*
X038420Y038008D01*
X036916Y038008D01*
X036618Y037885D01*
X036390Y037657D01*
X036267Y037359D01*
X036267Y037036D01*
X036390Y036739D01*
X036618Y036511D01*
X036916Y036387D01*
X036920Y036387D01*
X036370Y035837D01*
X032025Y035837D01*
X031760Y035727D01*
X031558Y035525D01*
X030308Y034275D01*
X030198Y034010D01*
X030198Y033854D01*
X029844Y033500D01*
X029768Y033316D01*
X029768Y032268D01*
X029773Y032255D01*
X029773Y031994D01*
X029849Y031812D01*
X029988Y031672D01*
X030170Y031597D01*
X030367Y031597D01*
X030549Y031672D01*
X030672Y031796D01*
X030691Y031770D01*
X030746Y031714D01*
X030809Y031669D01*
X030878Y031633D01*
X030952Y031609D01*
X031029Y031597D01*
X031068Y031597D01*
X031068Y032367D01*
X031068Y033137D01*
X031029Y033137D01*
X030952Y033125D01*
X030878Y033101D01*
X030839Y033081D01*
X030905Y033147D01*
X031061Y033147D01*
X031326Y033257D01*
X032466Y034397D01*
X036811Y034397D01*
X037076Y034507D01*
X037740Y035171D02*
X041086Y035171D01*
X040909Y035409D02*
X037979Y035409D01*
X038217Y035648D02*
X040868Y035648D01*
X040934Y035886D02*
X038352Y035886D01*
X038388Y036125D02*
X041207Y036125D01*
X042633Y036125D02*
X043207Y036125D01*
X042934Y035886D02*
X042898Y035886D01*
X042740Y035171D02*
X043086Y035171D01*
X043381Y034932D02*
X043456Y034932D01*
X043540Y034217D02*
X043296Y034217D01*
X044776Y034932D02*
X045344Y034932D01*
X045343Y034933D02*
X045358Y034877D01*
X045387Y034827D01*
X045428Y034786D01*
X045478Y034757D01*
X045534Y034742D01*
X045881Y034742D01*
X045881Y035240D01*
X045343Y035240D01*
X045343Y034933D01*
X045343Y035171D02*
X044584Y035171D01*
X044345Y035409D02*
X045343Y035409D01*
X045881Y035171D02*
X045956Y035171D01*
X045956Y034932D02*
X045881Y034932D01*
X046493Y034455D02*
X046892Y034455D01*
X046689Y034217D02*
X046493Y034217D01*
X047418Y034694D02*
X047418Y034694D01*
X047418Y034932D02*
X047418Y034932D01*
X047869Y034932D02*
X047956Y034932D01*
X047918Y035171D02*
X047918Y035171D01*
X047918Y035409D02*
X047918Y035409D01*
X047918Y035617D02*
X047918Y035617D01*
X047918Y035648D02*
X047918Y035648D01*
X047918Y035886D02*
X047918Y035886D01*
X048398Y035886D02*
X048438Y035886D01*
X048918Y035886D02*
X048918Y035886D01*
X048918Y035648D02*
X048918Y035648D01*
X048918Y035617D02*
X048918Y035617D01*
X048918Y035409D02*
X048918Y035409D01*
X048918Y035171D02*
X048918Y035171D01*
X048881Y034932D02*
X048956Y034932D01*
X049240Y035171D02*
X049596Y035171D01*
X049918Y035171D02*
X049918Y035171D01*
X049918Y035409D02*
X049918Y035409D01*
X049918Y035648D02*
X049918Y035648D01*
X049918Y035886D02*
X049918Y035886D01*
X049438Y035886D02*
X049398Y035886D01*
X050398Y035886D02*
X050434Y035886D01*
X050586Y035171D02*
X050240Y035171D01*
X049956Y034932D02*
X049881Y034932D01*
X050881Y034932D02*
X051198Y034932D01*
X051198Y034694D02*
X050968Y034694D01*
X050947Y034455D02*
X051198Y034455D01*
X051198Y034217D02*
X050796Y034217D01*
X050767Y033978D02*
X051198Y033978D01*
X052381Y034217D02*
X052456Y034217D01*
X052456Y034455D02*
X052381Y034455D01*
X052381Y034694D02*
X052456Y034694D01*
X052456Y034932D02*
X052381Y034932D01*
X053918Y034694D02*
X053918Y034694D01*
X054369Y034932D02*
X054456Y034932D01*
X054418Y035171D02*
X054418Y035171D01*
X054418Y035409D02*
X054418Y035409D01*
X054418Y035617D02*
X054418Y035617D01*
X054418Y035648D02*
X054418Y035648D01*
X054418Y035886D02*
X054418Y035886D01*
X054418Y036125D02*
X054418Y036125D01*
X054633Y036125D02*
X055204Y036125D01*
X055418Y036125D02*
X055418Y036125D01*
X055633Y036125D02*
X056204Y036125D01*
X056418Y036125D02*
X056418Y036125D01*
X056633Y036125D02*
X057207Y036125D01*
X056934Y035886D02*
X056898Y035886D01*
X056418Y035886D02*
X056418Y035886D01*
X056418Y035648D02*
X056418Y035648D01*
X056418Y035409D02*
X056418Y035409D01*
X056418Y035171D02*
X056418Y035171D01*
X056381Y034932D02*
X056456Y034932D01*
X056740Y035171D02*
X057086Y035171D01*
X056096Y035171D02*
X055740Y035171D01*
X055418Y035171D02*
X055418Y035171D01*
X055418Y035409D02*
X055418Y035409D01*
X055418Y035617D02*
X055418Y035617D01*
X055418Y035648D02*
X055418Y035648D01*
X055418Y035886D02*
X055418Y035886D01*
X054938Y035886D02*
X054898Y035886D01*
X054740Y035171D02*
X055096Y035171D01*
X055381Y034932D02*
X055456Y034932D01*
X055898Y035886D02*
X055938Y035886D01*
X057629Y036125D02*
X057909Y036125D01*
X059388Y036363D02*
X063302Y036363D01*
X063064Y036602D02*
X059388Y036602D01*
X059388Y036840D02*
X062825Y036840D01*
X062587Y037079D02*
X060390Y037079D01*
X059947Y037079D02*
X059388Y037079D01*
X059388Y037317D02*
X059469Y037317D01*
X058448Y037317D02*
X058368Y037317D01*
X056969Y037317D02*
X054368Y037317D01*
X054568Y037556D02*
X056768Y037556D01*
X056657Y037794D02*
X054679Y037794D01*
X054728Y038033D02*
X056608Y038033D01*
X056612Y038271D02*
X054724Y038271D01*
X054660Y038510D02*
X056676Y038510D01*
X056809Y038748D02*
X054528Y038748D01*
X054281Y038987D02*
X057055Y038987D01*
X060781Y038987D02*
X062393Y038987D01*
X062393Y038748D02*
X061028Y038748D01*
X061160Y038510D02*
X062393Y038510D01*
X062393Y038271D02*
X061224Y038271D01*
X061228Y038033D02*
X062393Y038033D01*
X062393Y037794D02*
X061179Y037794D01*
X061068Y037556D02*
X062393Y037556D01*
X062416Y037317D02*
X060868Y037317D01*
X060918Y035886D02*
X060918Y035886D01*
X060918Y035648D02*
X060918Y035648D01*
X060918Y035617D02*
X060918Y035617D01*
X060918Y035409D02*
X060918Y035409D01*
X060918Y035171D02*
X060918Y035171D01*
X060956Y034932D02*
X060869Y034932D01*
X061240Y035171D02*
X061596Y035171D01*
X061918Y035171D02*
X061918Y035171D01*
X061918Y035409D02*
X061918Y035409D01*
X061918Y035617D02*
X061918Y035617D01*
X061918Y035648D02*
X061918Y035648D01*
X061918Y035886D02*
X061918Y035886D01*
X061438Y035886D02*
X061398Y035886D01*
X062398Y035886D02*
X062438Y035886D01*
X062918Y035886D02*
X062918Y035886D01*
X062918Y035648D02*
X062918Y035648D01*
X062918Y035409D02*
X062918Y035409D01*
X062918Y035171D02*
X062918Y035171D01*
X062881Y034932D02*
X062956Y034932D01*
X063240Y035171D02*
X063586Y035171D01*
X063881Y034932D02*
X064198Y034932D01*
X064198Y034694D02*
X063968Y034694D01*
X063947Y034455D02*
X064198Y034455D01*
X064198Y034217D02*
X063796Y034217D01*
X064017Y033978D02*
X064198Y033978D01*
X063184Y033024D02*
X063146Y033024D01*
X063152Y033000D02*
X063137Y033056D01*
X063108Y033106D01*
X063067Y033147D01*
X063017Y033176D01*
X062961Y033191D01*
X062654Y033191D01*
X062654Y032654D01*
X063152Y032654D01*
X063152Y033000D01*
X063152Y032786D02*
X063184Y032786D01*
X063184Y032547D02*
X063152Y032547D01*
X063152Y032309D02*
X063184Y032309D01*
X063442Y031867D02*
X063719Y032145D01*
X063719Y032617D01*
X062654Y032547D02*
X062580Y032547D01*
X062580Y032309D02*
X062654Y032309D01*
X062654Y032070D02*
X062580Y032070D01*
X062673Y031832D02*
X062789Y031832D01*
X062654Y032786D02*
X062580Y032786D01*
X062580Y033024D02*
X062654Y033024D01*
X062089Y033024D02*
X061182Y033024D01*
X061344Y032786D02*
X061616Y032786D01*
X060154Y033024D02*
X059151Y033024D01*
X059151Y032981D02*
X059687Y032981D01*
X059687Y032675D01*
X059672Y032619D01*
X059643Y032569D01*
X059602Y032528D01*
X059552Y032499D01*
X059496Y032484D01*
X059151Y032484D01*
X059151Y032981D01*
X059151Y032786D02*
X059076Y032786D01*
X059076Y032547D02*
X059151Y032547D01*
X059622Y032547D02*
X059880Y032547D01*
X059868Y032309D02*
X059687Y032309D01*
X059687Y032786D02*
X060072Y032786D01*
X060101Y033263D02*
X059687Y033263D01*
X059611Y033501D02*
X060093Y033501D01*
X060093Y033740D02*
X058743Y033740D01*
X058638Y033978D02*
X060093Y033978D01*
X059151Y033501D02*
X059076Y033501D01*
X059076Y033263D02*
X059151Y033263D01*
X060418Y034694D02*
X060418Y034694D01*
X060418Y034932D02*
X060418Y034932D01*
X061881Y034932D02*
X061956Y034932D01*
X062240Y035171D02*
X062596Y035171D01*
X063398Y035886D02*
X063434Y035886D01*
X065947Y035886D02*
X065980Y035886D01*
X065980Y035648D02*
X065947Y035648D01*
X065947Y035409D02*
X065980Y035409D01*
X065980Y035171D02*
X065947Y035171D01*
X065947Y034932D02*
X065987Y034932D01*
X065980Y034694D02*
X065947Y034694D01*
X065947Y034455D02*
X065980Y034455D01*
X065980Y034217D02*
X065947Y034217D01*
X066159Y033951D02*
X066159Y033086D01*
X066203Y033104D01*
X066192Y033147D01*
X066192Y033492D01*
X066689Y033492D01*
X066689Y033567D01*
X066192Y033567D01*
X066192Y033913D01*
X066201Y033948D01*
X066171Y033948D01*
X066159Y033951D01*
X066159Y033740D02*
X066192Y033740D01*
X066159Y033501D02*
X066689Y033501D01*
X066192Y033263D02*
X066159Y033263D01*
X066745Y032547D02*
X067081Y032547D01*
X066843Y032309D02*
X066469Y032309D01*
X066604Y032070D02*
X066137Y032070D01*
X066170Y031832D02*
X066366Y031832D01*
X062313Y030343D02*
X062313Y029767D01*
X060803Y029767D01*
X060693Y029722D01*
X060311Y029339D01*
X060092Y029558D01*
X060016Y029634D01*
X059917Y029675D01*
X059688Y029675D01*
X059688Y029814D01*
X059559Y029943D01*
X058743Y029943D01*
X058743Y029992D01*
X059559Y029992D01*
X059656Y030089D01*
X059722Y030022D01*
X060614Y030022D01*
X060743Y030151D01*
X060743Y030214D01*
X060756Y030164D01*
X060785Y030114D01*
X060826Y030073D01*
X060877Y030044D01*
X060933Y030029D01*
X061395Y030029D01*
X061857Y030029D01*
X061913Y030044D01*
X061963Y030073D01*
X062004Y030114D01*
X062033Y030164D01*
X062048Y030220D01*
X062048Y030367D01*
X062048Y030514D01*
X062033Y030567D01*
X062089Y030567D01*
X062313Y030343D01*
X062255Y030401D02*
X062048Y030401D01*
X062048Y030367D02*
X061395Y030367D01*
X061395Y030367D01*
X062048Y030367D01*
X062032Y030162D02*
X062313Y030162D01*
X062313Y029924D02*
X059578Y029924D01*
X059688Y029685D02*
X060657Y029685D01*
X060418Y029447D02*
X060203Y029447D01*
X060743Y030162D02*
X060757Y030162D01*
X061395Y030162D02*
X061395Y030162D01*
X061395Y030029D02*
X061395Y030367D01*
X061395Y030367D01*
X061395Y030029D01*
X057744Y029772D02*
X057304Y029333D01*
X057280Y029392D01*
X057162Y029509D01*
X057009Y029573D01*
X056842Y029573D01*
X056689Y029509D01*
X056592Y029413D01*
X056413Y029592D01*
X056413Y030033D01*
X056418Y030029D01*
X057466Y030029D01*
X057547Y030110D01*
X057593Y030063D01*
X057593Y029901D01*
X057722Y029772D01*
X057744Y029772D01*
X057657Y029685D02*
X056413Y029685D01*
X056413Y029924D02*
X057593Y029924D01*
X057418Y029447D02*
X057225Y029447D01*
X056626Y029447D02*
X056558Y029447D01*
X055813Y029573D02*
X055717Y029573D01*
X055564Y029509D01*
X055446Y029392D01*
X055395Y029267D01*
X053188Y029267D01*
X053188Y030056D01*
X053222Y030022D01*
X054114Y030022D01*
X054243Y030151D01*
X054243Y030214D01*
X054256Y030164D01*
X054285Y030114D01*
X054326Y030073D01*
X054377Y030044D01*
X054433Y030029D01*
X054895Y030029D01*
X055357Y030029D01*
X055413Y030044D01*
X055463Y030073D01*
X055504Y030114D01*
X055533Y030164D01*
X055548Y030220D01*
X055548Y030367D01*
X055548Y030514D01*
X055533Y030567D01*
X055589Y030567D01*
X055813Y030343D01*
X055813Y029573D01*
X055813Y029685D02*
X053188Y029685D01*
X053188Y029447D02*
X055501Y029447D01*
X055813Y029924D02*
X053188Y029924D01*
X054243Y030162D02*
X054257Y030162D01*
X054895Y030162D02*
X054895Y030162D01*
X054895Y030029D02*
X054895Y030367D01*
X055548Y030367D01*
X054895Y030367D01*
X054895Y030367D01*
X054895Y030367D01*
X054895Y030029D01*
X055532Y030162D02*
X055813Y030162D01*
X055755Y030401D02*
X055548Y030401D01*
X058139Y028567D02*
X058193Y028567D01*
X058201Y028571D01*
X058193Y028563D01*
X058193Y027671D01*
X058322Y027542D01*
X059021Y027542D01*
X058988Y027509D01*
X058988Y027359D01*
X058751Y027359D01*
X058751Y026861D01*
X058676Y026861D01*
X058676Y026786D01*
X058751Y026786D01*
X058751Y026289D01*
X059097Y026289D01*
X059153Y026304D01*
X059203Y026333D01*
X059244Y026374D01*
X059263Y026406D01*
X059263Y026153D01*
X059159Y026256D01*
X058268Y026256D01*
X058253Y026242D01*
X058078Y026417D01*
X058078Y026692D01*
X058089Y026820D01*
X058078Y026855D01*
X058078Y027606D01*
X058143Y027671D01*
X058143Y028563D01*
X058139Y028567D01*
X058143Y028493D02*
X058193Y028493D01*
X058193Y028254D02*
X058143Y028254D01*
X058143Y028016D02*
X058193Y028016D01*
X058193Y027777D02*
X058143Y027777D01*
X058078Y027539D02*
X059018Y027539D01*
X058751Y027300D02*
X058676Y027300D01*
X058676Y027359D02*
X058330Y027359D01*
X058274Y027344D01*
X058224Y027315D01*
X058183Y027274D01*
X058154Y027224D01*
X058139Y027168D01*
X058139Y026861D01*
X058676Y026861D01*
X058676Y027359D01*
X058676Y027062D02*
X058751Y027062D01*
X058676Y026823D02*
X058088Y026823D01*
X058139Y026786D02*
X058139Y026480D01*
X058154Y026424D01*
X058183Y026374D01*
X058224Y026333D01*
X058274Y026304D01*
X058330Y026289D01*
X058676Y026289D01*
X058676Y026786D01*
X058139Y026786D01*
X058139Y026585D02*
X058078Y026585D01*
X058149Y026346D02*
X058210Y026346D01*
X058676Y026346D02*
X058751Y026346D01*
X058751Y026585D02*
X058676Y026585D01*
X059217Y026346D02*
X059263Y026346D01*
X058139Y027062D02*
X058078Y027062D01*
X058078Y027300D02*
X058210Y027300D01*
X056156Y027043D02*
X056156Y026556D01*
X056067Y026593D01*
X055860Y026593D01*
X055669Y026513D01*
X055523Y026367D01*
X055463Y026224D01*
X055404Y026367D01*
X055258Y026513D01*
X055067Y026593D01*
X054860Y026593D01*
X054669Y026513D01*
X054523Y026367D01*
X054463Y026224D01*
X054404Y026367D01*
X054258Y026513D01*
X054067Y026593D01*
X053860Y026593D01*
X053669Y026513D01*
X053523Y026367D01*
X053462Y026221D01*
X053445Y026272D01*
X053408Y026345D01*
X053360Y026411D01*
X053302Y026469D01*
X053236Y026517D01*
X053163Y026554D01*
X053085Y026580D01*
X053004Y026593D01*
X052963Y026593D01*
X052923Y026593D01*
X052842Y026580D01*
X052764Y026554D01*
X052691Y026517D01*
X052625Y026469D01*
X052567Y026411D01*
X052519Y026345D01*
X052482Y026272D01*
X052465Y026221D01*
X052404Y026367D01*
X052258Y026513D01*
X052067Y026593D01*
X051860Y026593D01*
X051669Y026513D01*
X051523Y026367D01*
X051463Y026224D01*
X051414Y026344D01*
X052487Y027417D01*
X055597Y027417D01*
X055636Y027378D01*
X055784Y027317D01*
X055943Y027317D01*
X056090Y027378D01*
X056093Y027382D01*
X056093Y027164D01*
X056134Y027064D01*
X056156Y027043D01*
X056137Y027062D02*
X052132Y027062D01*
X052370Y027300D02*
X056093Y027300D01*
X056156Y026823D02*
X051893Y026823D01*
X051842Y026585D02*
X051655Y026585D01*
X051514Y026346D02*
X051416Y026346D01*
X051045Y026823D02*
X050539Y026823D01*
X050539Y026585D02*
X050806Y026585D01*
X050781Y026560D02*
X052109Y027887D01*
X052193Y027972D01*
X052303Y028017D01*
X055597Y028017D01*
X055636Y028057D01*
X055784Y028117D01*
X055943Y028117D01*
X056090Y028057D01*
X056093Y028053D01*
X056093Y028106D01*
X056031Y028167D01*
X051303Y028167D01*
X051193Y028213D01*
X051109Y028297D01*
X049048Y030359D01*
X049048Y030220D01*
X049033Y030164D01*
X049004Y030114D01*
X048963Y030073D01*
X048913Y030044D01*
X048888Y030037D01*
X048976Y030037D01*
X049186Y029951D01*
X050292Y028844D01*
X050292Y028844D01*
X050453Y028684D01*
X050539Y028474D01*
X050539Y026384D01*
X050669Y026513D01*
X050781Y026560D01*
X052085Y026585D02*
X052875Y026585D01*
X052963Y026585D02*
X052963Y026585D01*
X052963Y026593D02*
X052963Y025773D01*
X052963Y025773D01*
X052963Y026593D01*
X053052Y026585D02*
X053842Y026585D01*
X054085Y026585D02*
X054842Y026585D01*
X055085Y026585D02*
X055842Y026585D01*
X056085Y026585D02*
X056156Y026585D01*
X055514Y026346D02*
X055413Y026346D01*
X054514Y026346D02*
X054413Y026346D01*
X053514Y026346D02*
X053407Y026346D01*
X052963Y026346D02*
X052963Y026346D01*
X052963Y026108D02*
X052963Y026108D01*
X052963Y025869D02*
X052963Y025869D01*
X052963Y025773D02*
X052963Y024953D01*
X052963Y025773D01*
X052963Y025773D01*
X052963Y025631D02*
X052963Y025631D01*
X052963Y025392D02*
X052963Y025392D01*
X052963Y025154D02*
X052963Y025154D01*
X052963Y024953D02*
X053004Y024953D01*
X053085Y024965D01*
X053163Y024991D01*
X053236Y025028D01*
X053302Y025076D01*
X053360Y025134D01*
X053408Y025200D01*
X053445Y025273D01*
X053462Y025324D01*
X053523Y025178D01*
X053669Y025032D01*
X053860Y024953D01*
X054067Y024953D01*
X054194Y025005D01*
X054494Y024705D01*
X054357Y024705D01*
X054357Y024168D01*
X054854Y024168D01*
X054854Y024447D01*
X054887Y024447D01*
X054887Y023782D01*
X054854Y023749D01*
X054854Y024093D01*
X054357Y024093D01*
X054357Y024168D01*
X054282Y024168D01*
X054282Y024705D01*
X053975Y024705D01*
X053919Y024690D01*
X053869Y024661D01*
X053828Y024620D01*
X053799Y024570D01*
X053784Y024514D01*
X053784Y024168D01*
X054282Y024168D01*
X054282Y024093D01*
X053784Y024093D01*
X053784Y023747D01*
X053799Y023691D01*
X053828Y023641D01*
X053857Y023612D01*
X050934Y023612D01*
X050835Y023571D01*
X050631Y023367D01*
X050539Y023367D01*
X050539Y024247D01*
X051707Y024247D01*
X051879Y024319D01*
X052012Y024451D01*
X052362Y024802D01*
X052433Y024974D01*
X052433Y025248D01*
X052465Y025324D01*
X052482Y025273D01*
X052519Y025200D01*
X052567Y025134D01*
X052625Y025076D01*
X052691Y025028D01*
X052764Y024991D01*
X052842Y024965D01*
X052923Y024953D01*
X052963Y024953D01*
X052552Y025154D02*
X052433Y025154D01*
X052409Y024915D02*
X054283Y024915D01*
X054282Y024677D02*
X054357Y024677D01*
X054357Y024438D02*
X054282Y024438D01*
X054282Y024200D02*
X054357Y024200D01*
X054854Y024200D02*
X054887Y024200D01*
X054887Y024438D02*
X054854Y024438D01*
X054854Y023961D02*
X054887Y023961D01*
X053784Y023961D02*
X050539Y023961D01*
X050539Y023723D02*
X053791Y023723D01*
X053784Y024200D02*
X050539Y024200D01*
X051999Y024438D02*
X053784Y024438D01*
X053897Y024677D02*
X052237Y024677D01*
X053375Y025154D02*
X053547Y025154D01*
X052520Y026346D02*
X052413Y026346D01*
X051522Y027300D02*
X050539Y027300D01*
X050539Y027062D02*
X051283Y027062D01*
X051760Y027539D02*
X050539Y027539D01*
X050539Y027777D02*
X051999Y027777D01*
X052300Y028016D02*
X050539Y028016D01*
X050539Y028254D02*
X051152Y028254D01*
X050913Y028493D02*
X050532Y028493D01*
X050405Y028731D02*
X050675Y028731D01*
X050436Y028970D02*
X050167Y028970D01*
X050198Y029208D02*
X049928Y029208D01*
X049959Y029447D02*
X049690Y029447D01*
X049721Y029685D02*
X049451Y029685D01*
X049482Y029924D02*
X049213Y029924D01*
X049244Y030162D02*
X049032Y030162D01*
X049039Y030367D02*
X048395Y030367D01*
X049039Y030367D01*
X049039Y030367D01*
X048395Y030367D02*
X048395Y030367D01*
X048627Y028897D02*
X047732Y028897D01*
X049367Y027262D01*
X049399Y027185D01*
X049399Y028125D01*
X048627Y028897D01*
X048793Y028731D02*
X047898Y028731D01*
X048137Y028493D02*
X049031Y028493D01*
X049270Y028254D02*
X048375Y028254D01*
X048614Y028016D02*
X049399Y028016D01*
X049399Y027777D02*
X048852Y027777D01*
X049091Y027539D02*
X049399Y027539D01*
X049399Y027300D02*
X049329Y027300D01*
X048063Y026593D02*
X048063Y024658D01*
X048093Y024585D01*
X048093Y024164D01*
X048134Y024064D01*
X048210Y023989D01*
X048483Y023715D01*
X048452Y023733D01*
X048396Y023748D01*
X048050Y023748D01*
X048050Y023251D01*
X047975Y023251D01*
X047975Y023176D01*
X047438Y023176D01*
X047438Y022870D01*
X047453Y022814D01*
X047482Y022763D01*
X047523Y022722D01*
X047573Y022693D01*
X047629Y022679D01*
X047893Y022679D01*
X047815Y022646D01*
X047567Y022646D01*
X047438Y022517D01*
X047438Y022323D01*
X046813Y022323D01*
X046686Y022451D01*
X046476Y022537D01*
X046013Y022537D01*
X046013Y023313D01*
X045908Y023418D01*
X045908Y023554D01*
X045959Y023605D01*
X045959Y024259D01*
X045830Y024388D01*
X045097Y024388D01*
X044968Y024259D01*
X044968Y023605D01*
X045048Y023524D01*
X045048Y023418D01*
X044943Y023313D01*
X044943Y022537D01*
X044928Y022537D01*
X044928Y022980D01*
X044893Y023065D01*
X044893Y023313D01*
X044790Y023416D01*
X044817Y023443D01*
X044817Y025791D01*
X044744Y025864D01*
X044744Y026230D01*
X044723Y026281D01*
X044687Y026369D01*
X044742Y026424D01*
X044784Y026525D01*
X044784Y026702D01*
X044794Y026702D01*
X044794Y026977D01*
X044794Y026977D01*
X044794Y026702D01*
X044933Y026702D01*
X044987Y026713D01*
X045037Y026733D01*
X045082Y026764D01*
X045120Y026802D01*
X045150Y026847D01*
X045171Y026897D01*
X045181Y026950D01*
X045181Y026977D01*
X045099Y026977D01*
X045181Y026977D01*
X045181Y027004D01*
X045171Y027057D01*
X045163Y027076D01*
X045171Y027094D01*
X045181Y027147D01*
X045181Y027174D01*
X045099Y027174D01*
X045099Y027174D01*
X045181Y027174D01*
X045181Y027201D01*
X045171Y027254D01*
X045163Y027273D01*
X045171Y027291D01*
X045181Y027344D01*
X045181Y027371D01*
X045181Y027398D01*
X045171Y027451D01*
X045163Y027469D01*
X045171Y027488D01*
X045181Y027541D01*
X045181Y027568D01*
X045181Y027573D01*
X045247Y027573D01*
X045689Y027132D01*
X045792Y027089D01*
X045859Y027089D01*
X045859Y026963D01*
X045987Y026834D01*
X046878Y026834D01*
X047007Y026963D01*
X047007Y027649D01*
X048063Y026593D01*
X048063Y026585D02*
X047007Y026585D01*
X047007Y026611D02*
X047007Y026304D01*
X046470Y026304D01*
X046395Y026304D01*
X046395Y026229D01*
X045859Y026229D01*
X045859Y025923D01*
X045874Y025867D01*
X045903Y025817D01*
X045944Y025776D01*
X045994Y025747D01*
X046050Y025732D01*
X046395Y025732D01*
X046395Y026229D01*
X046470Y026229D01*
X046470Y025732D01*
X046816Y025732D01*
X046872Y025747D01*
X046922Y025776D01*
X046963Y025817D01*
X046992Y025867D01*
X047007Y025923D01*
X047007Y026229D01*
X046470Y026229D01*
X046470Y026304D01*
X046470Y026802D01*
X046816Y026802D01*
X046872Y026787D01*
X046922Y026758D01*
X046963Y026717D01*
X046992Y026666D01*
X047007Y026611D01*
X047007Y026346D02*
X048063Y026346D01*
X048063Y026108D02*
X047007Y026108D01*
X046993Y025869D02*
X048063Y025869D01*
X048063Y025631D02*
X044817Y025631D01*
X044817Y025392D02*
X044972Y025392D01*
X044968Y025378D02*
X044968Y025113D01*
X044968Y024848D01*
X044983Y024792D01*
X045012Y024742D01*
X045053Y024701D01*
X045103Y024672D01*
X045159Y024657D01*
X045463Y024657D01*
X045463Y025113D01*
X044968Y025113D01*
X045463Y025113D01*
X045463Y025113D01*
X045463Y025113D01*
X045463Y025569D01*
X045159Y025569D01*
X045103Y025554D01*
X045053Y025525D01*
X045012Y025484D01*
X044983Y025434D01*
X044968Y025378D01*
X044968Y025154D02*
X044817Y025154D01*
X044817Y024915D02*
X044968Y024915D01*
X045094Y024677D02*
X044817Y024677D01*
X044817Y024438D02*
X048093Y024438D01*
X048093Y024200D02*
X045959Y024200D01*
X045959Y023961D02*
X046297Y023961D01*
X046296Y023960D02*
X046281Y023904D01*
X046281Y023658D01*
X046281Y023413D01*
X046296Y023357D01*
X046325Y023307D01*
X046366Y023266D01*
X046416Y023237D01*
X046472Y023222D01*
X046580Y023222D01*
X046580Y023309D01*
X046580Y023309D01*
X046580Y023222D01*
X046687Y023222D01*
X046708Y023227D01*
X046728Y023222D01*
X046836Y023222D01*
X046836Y023309D01*
X046836Y023309D01*
X046836Y023309D01*
X046836Y023222D01*
X046943Y023222D01*
X046963Y023227D01*
X046984Y023222D01*
X047091Y023222D01*
X047091Y023309D01*
X047091Y023309D01*
X047091Y023309D01*
X047091Y023222D01*
X047199Y023222D01*
X047219Y023227D01*
X047240Y023222D01*
X047347Y023222D01*
X047347Y023309D01*
X047347Y023222D01*
X047455Y023222D01*
X047511Y023237D01*
X047535Y023251D01*
X047975Y023251D01*
X047975Y023748D01*
X047646Y023748D01*
X047646Y023904D01*
X047631Y023960D01*
X047602Y024010D01*
X047561Y024051D01*
X047511Y024080D01*
X047455Y024095D01*
X047347Y024095D01*
X047240Y024095D01*
X047219Y024089D01*
X047199Y024095D01*
X047091Y024095D01*
X046984Y024095D01*
X046963Y024089D01*
X046943Y024095D01*
X046836Y024095D01*
X046836Y024008D01*
X046836Y024008D01*
X046836Y024008D01*
X046836Y024095D01*
X046728Y024095D01*
X046708Y024089D01*
X046687Y024095D01*
X046580Y024095D01*
X046580Y024008D01*
X046580Y024008D01*
X046580Y024095D01*
X046472Y024095D01*
X046416Y024080D01*
X046366Y024051D01*
X046325Y024010D01*
X046296Y023960D01*
X046281Y023723D02*
X045959Y023723D01*
X045908Y023484D02*
X046281Y023484D01*
X046281Y023658D02*
X046580Y023658D01*
X046580Y023658D01*
X046835Y023658D01*
X046835Y023658D01*
X046793Y023658D01*
X046580Y023658D01*
X046580Y023658D01*
X046281Y023658D01*
X046400Y023246D02*
X046013Y023246D01*
X046013Y023007D02*
X047438Y023007D01*
X047479Y022769D02*
X046013Y022769D01*
X046493Y022530D02*
X047452Y022530D01*
X048050Y023176D02*
X048050Y023251D01*
X048587Y023251D01*
X048587Y023557D01*
X048572Y023613D01*
X048554Y023645D01*
X048713Y023486D01*
X048713Y023388D01*
X048774Y023241D01*
X048886Y023128D01*
X049034Y023067D01*
X049193Y023067D01*
X049340Y023128D01*
X049399Y023188D01*
X049399Y022681D01*
X048406Y022681D01*
X048452Y022693D01*
X048502Y022722D01*
X048543Y022763D01*
X048572Y022814D01*
X048587Y022870D01*
X048587Y023176D01*
X048050Y023176D01*
X048050Y023246D02*
X048772Y023246D01*
X048713Y023484D02*
X048587Y023484D01*
X048476Y023723D02*
X048470Y023723D01*
X048237Y023961D02*
X047630Y023961D01*
X047347Y024008D02*
X047347Y024008D01*
X047347Y024095D01*
X047347Y024008D01*
X047091Y024008D02*
X047091Y024095D01*
X047091Y024008D01*
X047091Y024008D01*
X047091Y024008D01*
X047091Y023658D02*
X047347Y023658D01*
X047091Y023658D01*
X046836Y023658D01*
X046836Y023658D01*
X047091Y023658D01*
X047091Y023658D01*
X047091Y023658D01*
X047347Y023658D02*
X047347Y023658D01*
X047347Y023309D02*
X047347Y023309D01*
X047347Y023246D02*
X047347Y023246D01*
X047527Y023246D02*
X047975Y023246D01*
X047975Y023484D02*
X048050Y023484D01*
X048050Y023723D02*
X047975Y023723D01*
X047091Y023246D02*
X047091Y023246D01*
X046836Y023246D02*
X046836Y023246D01*
X046580Y023246D02*
X046580Y023246D01*
X045048Y023484D02*
X044817Y023484D01*
X044817Y023723D02*
X044968Y023723D01*
X044968Y023961D02*
X044817Y023961D01*
X044817Y024200D02*
X044968Y024200D01*
X045463Y024657D02*
X045768Y024657D01*
X045824Y024672D01*
X045874Y024701D01*
X045915Y024742D01*
X045944Y024792D01*
X045959Y024848D01*
X045959Y025113D01*
X045463Y025113D01*
X045463Y025113D01*
X045463Y024657D01*
X045463Y024677D02*
X045463Y024677D01*
X045463Y024915D02*
X045463Y024915D01*
X045463Y025113D02*
X045463Y025113D01*
X045463Y025569D01*
X045768Y025569D01*
X045824Y025554D01*
X045874Y025525D01*
X045915Y025484D01*
X045944Y025434D01*
X045959Y025378D01*
X045959Y025113D01*
X045463Y025113D01*
X045463Y025154D02*
X045463Y025154D01*
X045463Y025392D02*
X045463Y025392D01*
X045955Y025392D02*
X048063Y025392D01*
X048063Y025154D02*
X045959Y025154D01*
X045959Y024915D02*
X048063Y024915D01*
X048063Y024677D02*
X045833Y024677D01*
X043531Y024677D02*
X043306Y024677D01*
X043306Y024915D02*
X043531Y024915D01*
X043531Y025154D02*
X043306Y025154D01*
X043306Y025392D02*
X043531Y025392D01*
X043531Y025631D02*
X043306Y025631D01*
X043306Y025743D02*
X043322Y025743D01*
X043322Y026280D01*
X043397Y026280D01*
X043397Y025743D01*
X043531Y025743D01*
X043531Y023443D01*
X043537Y023437D01*
X043299Y023437D01*
X043306Y023443D01*
X043306Y025743D01*
X043322Y025869D02*
X043397Y025869D01*
X043397Y026108D02*
X043322Y026108D01*
X043322Y026355D02*
X043322Y026787D01*
X043345Y026764D01*
X043390Y026733D01*
X043397Y026731D01*
X043397Y026355D01*
X043322Y026355D01*
X043322Y026585D02*
X043397Y026585D01*
X043633Y026977D02*
X043633Y027096D01*
X043633Y026977D01*
X043633Y026977D01*
X043633Y027062D02*
X043633Y027062D01*
X043633Y027096D02*
X043633Y027096D01*
X042997Y027777D02*
X038545Y027777D01*
X037877Y027539D02*
X042760Y027539D01*
X042522Y027300D02*
X037943Y027300D01*
X037943Y027062D02*
X042283Y027062D01*
X041782Y026823D02*
X037943Y026823D01*
X037909Y026585D02*
X039590Y026585D01*
X039147Y026346D02*
X039147Y026346D01*
X038651Y026346D02*
X037883Y026346D01*
X037117Y025869D02*
X037067Y025869D01*
X036860Y025631D02*
X037356Y025631D01*
X037628Y025392D02*
X032923Y025392D01*
X032685Y025154D02*
X038651Y025154D01*
X039000Y024915D02*
X032446Y024915D01*
X032208Y024677D02*
X037179Y024677D01*
X037008Y024438D02*
X031969Y024438D01*
X031731Y024200D02*
X036431Y024200D01*
X036192Y023961D02*
X031492Y023961D01*
X031254Y023723D02*
X036052Y023723D01*
X034965Y023484D02*
X031114Y023484D01*
X030991Y023246D02*
X034727Y023246D01*
X034488Y023007D02*
X030991Y023007D01*
X030991Y022769D02*
X034250Y022769D01*
X034143Y022530D02*
X030991Y022530D01*
X031006Y022292D02*
X034143Y022292D01*
X034143Y022053D02*
X031054Y022053D01*
X031005Y021815D02*
X034143Y021815D01*
X034143Y021576D02*
X030830Y021576D01*
X030050Y021576D02*
X029888Y021576D01*
X029888Y021338D02*
X034143Y021338D01*
X034143Y021099D02*
X029888Y021099D01*
X029888Y020861D02*
X034143Y020861D01*
X034144Y020622D02*
X030036Y020622D01*
X030275Y020384D02*
X034282Y020384D01*
X034520Y020145D02*
X030616Y020145D01*
X030955Y019907D02*
X034759Y019907D01*
X034997Y019668D02*
X031054Y019668D01*
X031053Y019430D02*
X035948Y019430D01*
X035832Y019191D02*
X030945Y019191D01*
X031302Y018953D02*
X035826Y018953D01*
X035916Y018714D02*
X031540Y018714D01*
X031779Y018476D02*
X036232Y018476D01*
X037219Y017479D02*
X037626Y017886D01*
X037674Y017838D01*
X038188Y017838D01*
X038188Y017783D01*
X038234Y017672D01*
X038639Y017267D01*
X032487Y017267D01*
X032457Y017297D01*
X036947Y017297D01*
X037101Y017361D01*
X037219Y017479D01*
X037262Y017522D02*
X038384Y017522D01*
X038197Y017760D02*
X037500Y017760D01*
X038623Y017283D02*
X032471Y017283D01*
X032100Y016806D02*
X031382Y016806D01*
X031144Y017045D02*
X031861Y017045D01*
X031623Y017283D02*
X030905Y017283D01*
X030667Y017522D02*
X031384Y017522D01*
X031146Y017760D02*
X030428Y017760D01*
X030190Y017999D02*
X030907Y017999D01*
X029935Y019191D02*
X027012Y019191D01*
X027012Y018953D02*
X028174Y018953D01*
X027936Y018714D02*
X027012Y018714D01*
X027012Y019430D02*
X029827Y019430D01*
X029661Y019668D02*
X026480Y019668D01*
X026476Y019907D02*
X029422Y019907D01*
X029184Y020145D02*
X026472Y020145D01*
X026469Y020384D02*
X027251Y020384D01*
X027192Y020400D02*
X027449Y020331D01*
X027715Y020331D01*
X027972Y020400D01*
X028202Y020533D01*
X028390Y020721D01*
X028523Y020951D01*
X028592Y021208D01*
X028592Y021474D01*
X028523Y021731D01*
X028390Y021962D01*
X028202Y022150D01*
X027972Y022283D01*
X027715Y022352D01*
X027449Y022352D01*
X027192Y022283D01*
X026961Y022150D01*
X026773Y021962D01*
X026640Y021731D01*
X026571Y021474D01*
X026571Y021208D01*
X026640Y020951D01*
X026773Y020721D01*
X026961Y020533D01*
X027192Y020400D01*
X026871Y020622D02*
X026465Y020622D01*
X026462Y020861D02*
X026692Y020861D01*
X026600Y021099D02*
X026458Y021099D01*
X026455Y021338D02*
X026571Y021338D01*
X026598Y021576D02*
X026451Y021576D01*
X026448Y021815D02*
X026688Y021815D01*
X026864Y022053D02*
X026444Y022053D01*
X026441Y022292D02*
X027224Y022292D01*
X027939Y022292D02*
X028948Y022292D01*
X028948Y022530D02*
X026437Y022530D01*
X026433Y022769D02*
X028948Y022769D01*
X028948Y023007D02*
X026430Y023007D01*
X026426Y023246D02*
X028948Y023246D01*
X028948Y023484D02*
X026423Y023484D01*
X026419Y023723D02*
X028948Y023723D01*
X028948Y023961D02*
X026416Y023961D01*
X026412Y024200D02*
X027048Y024200D01*
X027021Y024221D02*
X027106Y024153D01*
X027198Y024095D01*
X027296Y024048D01*
X027399Y024012D01*
X027505Y023988D01*
X027614Y023976D01*
X027650Y023976D01*
X027650Y024928D01*
X026698Y024928D01*
X026698Y024891D01*
X026710Y024783D01*
X026735Y024677D01*
X026405Y024677D01*
X026402Y024915D02*
X026698Y024915D01*
X026698Y024964D02*
X027650Y024964D01*
X027650Y025916D01*
X027614Y025916D01*
X027505Y025904D01*
X027399Y025879D01*
X027296Y025843D01*
X027198Y025796D01*
X027106Y025738D01*
X027021Y025670D01*
X026944Y025593D01*
X026876Y025508D01*
X026818Y025416D01*
X026771Y025318D01*
X026735Y025215D01*
X026710Y025108D01*
X026698Y025000D01*
X026698Y024964D01*
X026721Y025154D02*
X026398Y025154D01*
X026394Y025392D02*
X026807Y025392D01*
X026982Y025631D02*
X026391Y025631D01*
X026387Y025869D02*
X027371Y025869D01*
X027650Y025869D02*
X027686Y025869D01*
X027686Y025916D02*
X027723Y025916D01*
X027831Y025904D01*
X027937Y025879D01*
X028040Y025843D01*
X028138Y025796D01*
X028230Y025738D01*
X028316Y025670D01*
X028393Y025593D01*
X028461Y025508D01*
X028518Y025416D01*
X028566Y025318D01*
X028602Y025215D01*
X028626Y025108D01*
X028638Y025000D01*
X028638Y024964D01*
X027686Y024964D01*
X027650Y024964D01*
X027650Y024928D01*
X027686Y024928D01*
X027686Y024964D01*
X027686Y025916D01*
X027965Y025869D02*
X028948Y025869D01*
X028948Y025631D02*
X028355Y025631D01*
X028530Y025392D02*
X028948Y025392D01*
X028948Y025154D02*
X028616Y025154D01*
X028638Y024928D02*
X027686Y024928D01*
X027686Y023976D01*
X027723Y023976D01*
X027831Y023988D01*
X027937Y024012D01*
X028040Y024048D01*
X028138Y024095D01*
X028230Y024153D01*
X028316Y024221D01*
X028393Y024298D01*
X028461Y024384D01*
X028518Y024476D01*
X028566Y024574D01*
X028602Y024677D01*
X028948Y024677D01*
X028948Y024915D02*
X028638Y024915D01*
X028638Y024928D02*
X028638Y024891D01*
X028626Y024783D01*
X028602Y024677D01*
X028495Y024438D02*
X028948Y024438D01*
X028948Y024200D02*
X028289Y024200D01*
X027686Y024200D02*
X027650Y024200D01*
X027650Y024438D02*
X027686Y024438D01*
X027686Y024677D02*
X027650Y024677D01*
X027650Y024915D02*
X027686Y024915D01*
X027686Y025154D02*
X027650Y025154D01*
X027650Y025392D02*
X027686Y025392D01*
X027686Y025631D02*
X027650Y025631D01*
X027103Y026108D02*
X026384Y026108D01*
X026380Y026346D02*
X026864Y026346D01*
X026755Y026585D02*
X026377Y026585D01*
X026373Y026823D02*
X026698Y026823D01*
X026698Y027062D02*
X026370Y027062D01*
X026366Y027300D02*
X026778Y027300D01*
X026921Y027539D02*
X026363Y027539D01*
X026359Y027777D02*
X027217Y027777D01*
X027296Y027985D02*
X027399Y027949D01*
X027505Y027925D01*
X027614Y027913D01*
X027650Y027913D01*
X027650Y028865D01*
X026698Y028865D01*
X026698Y028828D01*
X026710Y028720D01*
X026735Y028614D01*
X026771Y028511D01*
X026818Y028413D01*
X026876Y028321D01*
X026944Y028235D01*
X027021Y028158D01*
X027106Y028090D01*
X027198Y028032D01*
X027296Y027985D01*
X027233Y028016D02*
X026355Y028016D01*
X026352Y028254D02*
X026929Y028254D01*
X026779Y028493D02*
X026348Y028493D01*
X026345Y028731D02*
X026709Y028731D01*
X026698Y028901D02*
X027650Y028901D01*
X027650Y029853D01*
X027614Y029853D01*
X027505Y029841D01*
X027399Y029816D01*
X027296Y029780D01*
X027198Y029733D01*
X027106Y029675D01*
X027021Y029607D01*
X026944Y029530D01*
X026876Y029445D01*
X026818Y029353D01*
X026771Y029255D01*
X026735Y029152D01*
X026710Y029045D01*
X026698Y028937D01*
X026698Y028901D01*
X026702Y028970D02*
X026341Y028970D01*
X026338Y029208D02*
X026754Y029208D01*
X026877Y029447D02*
X026334Y029447D01*
X026331Y029685D02*
X027122Y029685D01*
X027372Y029924D02*
X026327Y029924D01*
X026324Y030162D02*
X026985Y030162D01*
X026805Y030401D02*
X026320Y030401D01*
X026316Y030639D02*
X026706Y030639D01*
X026698Y030878D02*
X026313Y030878D01*
X026309Y031116D02*
X026728Y031116D01*
X026827Y031355D02*
X026306Y031355D01*
X026302Y031593D02*
X027039Y031593D01*
X027198Y031969D02*
X027296Y031922D01*
X027399Y031886D01*
X027505Y031862D01*
X027614Y031850D01*
X027650Y031850D01*
X027650Y032802D01*
X026698Y032802D01*
X026698Y032765D01*
X026710Y032657D01*
X026735Y032551D01*
X026771Y032448D01*
X026818Y032350D01*
X026876Y032258D01*
X026944Y032172D01*
X027021Y032095D01*
X027106Y032027D01*
X027198Y031969D01*
X027052Y032070D02*
X026295Y032070D01*
X026299Y031832D02*
X029840Y031832D01*
X029773Y032070D02*
X028284Y032070D01*
X028316Y032095D02*
X028230Y032027D01*
X028138Y031969D01*
X028040Y031922D01*
X027937Y031886D01*
X027831Y031862D01*
X027723Y031850D01*
X027686Y031850D01*
X027686Y032802D01*
X027686Y032838D01*
X027650Y032838D01*
X027650Y033790D01*
X027614Y033790D01*
X027505Y033778D01*
X027399Y033753D01*
X027296Y033717D01*
X027198Y033670D01*
X027106Y033612D01*
X027021Y033544D01*
X026944Y033467D01*
X026876Y033382D01*
X026818Y033290D01*
X026771Y033192D01*
X026735Y033089D01*
X026710Y032983D01*
X026698Y032874D01*
X026698Y032838D01*
X027650Y032838D01*
X027650Y032802D01*
X027686Y032802D01*
X028638Y032802D01*
X028638Y032765D01*
X028626Y032657D01*
X028602Y032551D01*
X028566Y032448D01*
X028518Y032350D01*
X028461Y032258D01*
X028393Y032172D01*
X028316Y032095D01*
X028493Y032309D02*
X029768Y032309D01*
X029768Y032547D02*
X028601Y032547D01*
X028638Y032786D02*
X029768Y032786D01*
X029768Y033024D02*
X028616Y033024D01*
X028626Y032983D02*
X028602Y033089D01*
X028566Y033192D01*
X028518Y033290D01*
X028461Y033382D01*
X028393Y033467D01*
X028316Y033544D01*
X028230Y033612D01*
X028138Y033670D01*
X028040Y033717D01*
X027937Y033753D01*
X027831Y033778D01*
X027723Y033790D01*
X027686Y033790D01*
X027686Y032838D01*
X028638Y032838D01*
X028638Y032874D01*
X028626Y032983D01*
X028531Y033263D02*
X029768Y033263D01*
X029845Y033501D02*
X028358Y033501D01*
X027975Y033740D02*
X030084Y033740D01*
X030198Y033978D02*
X028230Y033978D01*
X028218Y033966D02*
X028320Y034068D01*
X029233Y034068D01*
X029497Y034178D01*
X031797Y036478D01*
X032698Y036478D01*
X032916Y036387D01*
X034420Y036387D01*
X034718Y036511D01*
X034946Y036739D01*
X035069Y037036D01*
X035069Y037359D01*
X034946Y037657D01*
X034718Y037885D01*
X034420Y038008D01*
X032916Y038008D01*
X032698Y037918D01*
X031886Y037918D01*
X031326Y038477D01*
X030379Y039424D01*
X030371Y039428D01*
X030368Y039432D01*
X030180Y039620D01*
X029951Y039753D01*
X029695Y039821D01*
X029429Y039821D01*
X029173Y039753D01*
X028943Y039620D01*
X028756Y039432D01*
X028623Y039203D01*
X028554Y038946D01*
X028554Y038681D01*
X028623Y038425D01*
X028756Y038195D01*
X028943Y038008D01*
X029173Y037875D01*
X029429Y037806D01*
X029695Y037806D01*
X029904Y037863D01*
X030308Y037459D01*
X030525Y037242D01*
X028791Y035508D01*
X028320Y035508D01*
X028218Y035611D01*
X027861Y035758D01*
X027475Y035758D01*
X027119Y035611D01*
X026846Y035338D01*
X026698Y034981D01*
X026698Y034595D01*
X026846Y034239D01*
X027119Y033966D01*
X027475Y033818D01*
X027861Y033818D01*
X028218Y033966D01*
X027686Y033740D02*
X027650Y033740D01*
X027650Y033501D02*
X027686Y033501D01*
X027686Y033263D02*
X027650Y033263D01*
X027650Y033024D02*
X027686Y033024D01*
X027686Y032786D02*
X027650Y032786D01*
X027650Y032547D02*
X027686Y032547D01*
X027686Y032309D02*
X027650Y032309D01*
X027650Y032070D02*
X027686Y032070D01*
X028298Y031593D02*
X040962Y031593D01*
X040958Y031832D02*
X031491Y031832D01*
X031492Y031833D02*
X031527Y031902D01*
X031551Y031976D01*
X031563Y032053D01*
X031563Y032367D01*
X031068Y032367D01*
X031068Y032367D01*
X031068Y032367D01*
X031068Y033137D01*
X031107Y033137D01*
X031184Y033125D01*
X031258Y033101D01*
X031328Y033065D01*
X031391Y033020D01*
X031446Y032964D01*
X031492Y032901D01*
X031527Y032832D01*
X031551Y032758D01*
X031563Y032681D01*
X031563Y032367D01*
X031068Y032367D01*
X031068Y031597D01*
X031107Y031597D01*
X031184Y031609D01*
X031258Y031633D01*
X031328Y031669D01*
X031391Y031714D01*
X031446Y031770D01*
X031492Y031833D01*
X031563Y032070D02*
X041063Y032070D01*
X040731Y032223D02*
X040746Y032279D01*
X040746Y032625D01*
X040249Y032625D01*
X040249Y032700D01*
X040174Y032700D01*
X040174Y032993D01*
X040219Y032993D01*
X040219Y033530D01*
X039722Y033530D01*
X039722Y033185D01*
X039728Y033160D01*
X039720Y033152D01*
X039692Y033102D01*
X039677Y033046D01*
X039677Y032700D01*
X040174Y032700D01*
X040174Y032625D01*
X039677Y032625D01*
X039677Y032279D01*
X039692Y032223D01*
X039720Y032173D01*
X039761Y032132D01*
X039812Y032103D01*
X039868Y032088D01*
X040174Y032088D01*
X040174Y032625D01*
X040249Y032625D01*
X040249Y032088D01*
X040555Y032088D01*
X040611Y032103D01*
X040662Y032132D01*
X040703Y032173D01*
X040731Y032223D01*
X040746Y032309D02*
X040779Y032309D01*
X040779Y032547D02*
X040746Y032547D01*
X040746Y032700D02*
X040746Y033046D01*
X040740Y033070D01*
X040748Y033078D01*
X040777Y033129D01*
X040792Y033185D01*
X040792Y033530D01*
X040294Y033530D01*
X040294Y033237D01*
X040249Y033237D01*
X040249Y032700D01*
X040746Y032700D01*
X040746Y032786D02*
X040779Y032786D01*
X040779Y033024D02*
X040746Y033024D01*
X040792Y033263D02*
X040824Y033263D01*
X040824Y033501D02*
X040792Y033501D01*
X040792Y033605D02*
X040792Y033951D01*
X040777Y034007D01*
X040748Y034057D01*
X040707Y034098D01*
X040657Y034127D01*
X040601Y034142D01*
X040294Y034142D01*
X040294Y033605D01*
X040792Y033605D01*
X040792Y033740D02*
X040824Y033740D01*
X040824Y033978D02*
X040784Y033978D01*
X040294Y033978D02*
X040219Y033978D01*
X040219Y034142D02*
X039913Y034142D01*
X039857Y034127D01*
X039807Y034098D01*
X039766Y034057D01*
X039737Y034007D01*
X039722Y033951D01*
X039722Y033605D01*
X040219Y033605D01*
X040219Y033530D01*
X040294Y033530D01*
X040294Y033605D01*
X040219Y033605D01*
X040219Y034142D01*
X040219Y033740D02*
X040294Y033740D01*
X040294Y033501D02*
X040219Y033501D01*
X040219Y033263D02*
X040294Y033263D01*
X040249Y033024D02*
X040219Y033024D01*
X040249Y032786D02*
X040174Y032786D01*
X040174Y032547D02*
X040249Y032547D01*
X040249Y032309D02*
X040174Y032309D01*
X039677Y032309D02*
X031563Y032309D01*
X031563Y032547D02*
X039677Y032547D01*
X039677Y032786D02*
X031542Y032786D01*
X031384Y033024D02*
X039677Y033024D01*
X039722Y033263D02*
X031332Y033263D01*
X031571Y033501D02*
X039722Y033501D01*
X039722Y033740D02*
X031809Y033740D01*
X032048Y033978D02*
X039729Y033978D01*
X041359Y033568D02*
X041763Y033568D01*
X042013Y033318D01*
X042248Y033318D01*
X042783Y033263D02*
X042833Y033263D01*
X042833Y033501D02*
X042783Y033501D01*
X042783Y033740D02*
X042833Y033740D01*
X042833Y033024D02*
X042783Y033024D01*
X042761Y032786D02*
X042855Y032786D01*
X042833Y032547D02*
X042783Y032547D01*
X042783Y032309D02*
X042833Y032309D01*
X042833Y032070D02*
X042783Y032070D01*
X042814Y031832D02*
X042863Y031832D01*
X042863Y031593D02*
X042814Y031593D01*
X042814Y031355D02*
X042863Y031355D01*
X042863Y031116D02*
X042814Y031116D01*
X042740Y030878D02*
X042937Y030878D01*
X043267Y030639D02*
X041608Y030639D01*
X041608Y030401D02*
X043505Y030401D01*
X043744Y030162D02*
X041608Y030162D01*
X040538Y030162D02*
X040488Y030162D01*
X040488Y030401D02*
X040538Y030401D01*
X040538Y030639D02*
X040488Y030639D01*
X040488Y030878D02*
X040538Y030878D01*
X039991Y030878D02*
X039916Y030878D01*
X039916Y030639D02*
X039991Y030639D01*
X039418Y030639D02*
X029103Y030639D01*
X029341Y030401D02*
X039418Y030401D01*
X039418Y030162D02*
X029580Y030162D01*
X029668Y029924D02*
X039484Y029924D01*
X039484Y029685D02*
X029668Y029685D01*
X029668Y029447D02*
X039484Y029447D01*
X039505Y029208D02*
X038733Y029208D01*
X036603Y029208D02*
X034733Y029208D01*
X034956Y028970D02*
X036380Y028970D01*
X036281Y028731D02*
X035055Y028731D01*
X035069Y028493D02*
X036267Y028493D01*
X036317Y028254D02*
X035019Y028254D01*
X034885Y028016D02*
X036452Y028016D01*
X036792Y027777D02*
X034545Y027777D01*
X034083Y027539D02*
X037050Y027539D01*
X036531Y027300D02*
X034083Y027300D01*
X034083Y027062D02*
X036293Y027062D01*
X036094Y026823D02*
X034083Y026823D01*
X034055Y026585D02*
X036051Y026585D01*
X035936Y026346D02*
X033877Y026346D01*
X033639Y026108D02*
X035907Y026108D01*
X035974Y025869D02*
X033400Y025869D01*
X033162Y025631D02*
X036181Y025631D01*
X037748Y024677D02*
X039608Y024677D01*
X040599Y024677D02*
X040727Y024677D01*
X040713Y024438D02*
X037918Y024438D01*
X037843Y023434D02*
X040770Y023434D01*
X040713Y023297D01*
X040713Y023138D01*
X040774Y022991D01*
X040813Y022952D01*
X040813Y022658D01*
X040859Y022547D01*
X041559Y021847D01*
X041360Y021847D01*
X041360Y021310D01*
X041285Y021310D01*
X041285Y021235D01*
X040788Y021235D01*
X040788Y020889D01*
X040794Y020865D01*
X040788Y020858D01*
X040788Y019966D01*
X040917Y019837D01*
X041729Y019837D01*
X041858Y019966D01*
X041858Y020112D01*
X045794Y020112D01*
X046006Y019901D01*
X046116Y019855D01*
X051076Y019855D01*
X051046Y019825D01*
X049489Y018267D01*
X049288Y018267D01*
X049288Y018369D01*
X049160Y018498D01*
X048267Y018498D01*
X048185Y018416D01*
X048185Y018445D01*
X048170Y018501D01*
X048141Y018551D01*
X048101Y018592D01*
X048050Y018621D01*
X047994Y018636D01*
X047828Y018636D01*
X047828Y018278D01*
X047470Y018278D01*
X047470Y018121D01*
X047457Y018152D01*
X047457Y018251D01*
X047328Y018380D01*
X047228Y018380D01*
X047175Y018403D01*
X046674Y018403D01*
X046634Y018442D01*
X045822Y018442D01*
X045693Y018313D01*
X045693Y017517D01*
X045643Y017517D01*
X045643Y018313D01*
X045514Y018442D01*
X044713Y018442D01*
X044838Y018566D01*
X044838Y019378D01*
X044709Y019507D01*
X043817Y019507D01*
X043702Y019392D01*
X043566Y019392D01*
X043457Y019437D01*
X042808Y019437D01*
X042781Y019464D01*
X042608Y019536D01*
X041709Y019536D01*
X041629Y019616D01*
X041457Y019687D01*
X039058Y019687D01*
X038480Y020265D01*
X038307Y020337D01*
X037904Y020337D01*
X037878Y020399D01*
X037743Y020534D01*
X037567Y020607D01*
X037376Y020607D01*
X037199Y020534D01*
X037103Y020437D01*
X035558Y020437D01*
X035083Y020912D01*
X035083Y022273D01*
X035495Y022684D01*
X036123Y022684D01*
X036173Y022634D01*
X036205Y022621D01*
X036092Y022574D01*
X035920Y022402D01*
X035826Y022176D01*
X035826Y021932D01*
X035920Y021706D01*
X036092Y021534D01*
X036318Y021440D01*
X036562Y021440D01*
X036787Y021534D01*
X036838Y021584D01*
X037293Y021584D01*
X037466Y021656D01*
X037738Y021927D01*
X037870Y022059D01*
X037910Y022156D01*
X037910Y021276D01*
X037834Y021200D01*
X037834Y020624D01*
X037963Y020495D01*
X038238Y020495D01*
X038246Y020492D01*
X038413Y020492D01*
X038421Y020495D01*
X038696Y020495D01*
X038700Y020499D01*
X038700Y020250D01*
X038829Y020121D01*
X038974Y020121D01*
X039102Y020068D01*
X039668Y020068D01*
X039668Y019966D01*
X039797Y019837D01*
X040609Y019837D01*
X040738Y019966D01*
X040738Y021719D01*
X040609Y021847D01*
X039797Y021847D01*
X039668Y021719D01*
X039668Y021582D01*
X039647Y021618D01*
X039606Y021659D01*
X039556Y021688D01*
X039500Y021703D01*
X039196Y021703D01*
X039196Y021286D01*
X039196Y021286D01*
X039196Y021703D01*
X038891Y021703D01*
X038835Y021688D01*
X038785Y021659D01*
X038750Y021624D01*
X038750Y022584D01*
X038686Y022739D01*
X038320Y023105D01*
X038201Y023223D01*
X038047Y023287D01*
X037925Y023287D01*
X037878Y023399D01*
X037843Y023434D01*
X038146Y023246D02*
X040713Y023246D01*
X040767Y023007D02*
X038417Y023007D01*
X038320Y023105D02*
X038320Y023105D01*
X038656Y022769D02*
X040813Y022769D01*
X040876Y022530D02*
X038750Y022530D01*
X038750Y022292D02*
X041114Y022292D01*
X041353Y022053D02*
X038750Y022053D01*
X038750Y021815D02*
X039765Y021815D01*
X039196Y021576D02*
X039196Y021576D01*
X039196Y021338D02*
X039196Y021338D01*
X040642Y021815D02*
X040893Y021815D01*
X040873Y021803D02*
X040832Y021763D01*
X040803Y021712D01*
X040788Y021656D01*
X040788Y021310D01*
X041285Y021310D01*
X041285Y021847D01*
X040979Y021847D01*
X040923Y021832D01*
X040873Y021803D01*
X040788Y021576D02*
X040738Y021576D01*
X040738Y021338D02*
X040788Y021338D01*
X040788Y021099D02*
X040738Y021099D01*
X040738Y020861D02*
X040791Y020861D01*
X040788Y020622D02*
X040738Y020622D01*
X040738Y020384D02*
X040788Y020384D01*
X040788Y020145D02*
X040738Y020145D01*
X040679Y019907D02*
X040847Y019907D01*
X041502Y019668D02*
X050890Y019668D01*
X050651Y019430D02*
X049287Y019430D01*
X049288Y019426D02*
X049273Y019482D01*
X049244Y019532D01*
X049203Y019573D01*
X049153Y019602D01*
X049097Y019617D01*
X048751Y019617D01*
X048751Y019120D01*
X048676Y019120D01*
X048676Y019617D01*
X048330Y019617D01*
X048274Y019602D01*
X048223Y019573D01*
X048182Y019532D01*
X048154Y019482D01*
X048139Y019426D01*
X048139Y019120D01*
X048676Y019120D01*
X048676Y019045D01*
X048139Y019045D01*
X048139Y018738D01*
X048154Y018682D01*
X048182Y018632D01*
X048223Y018591D01*
X048274Y018562D01*
X048330Y018547D01*
X048676Y018547D01*
X048676Y019045D01*
X048751Y019045D01*
X048751Y019120D01*
X049288Y019120D01*
X049288Y019426D01*
X049288Y019191D02*
X050413Y019191D01*
X050174Y018953D02*
X049288Y018953D01*
X049288Y019045D02*
X049288Y018738D01*
X049273Y018682D01*
X049244Y018632D01*
X049203Y018591D01*
X049153Y018562D01*
X049097Y018547D01*
X048751Y018547D01*
X048751Y019045D01*
X049288Y019045D01*
X049282Y018714D02*
X049936Y018714D01*
X049697Y018476D02*
X049181Y018476D01*
X048751Y018714D02*
X048676Y018714D01*
X048676Y018953D02*
X048751Y018953D01*
X048751Y019191D02*
X048676Y019191D01*
X048676Y019430D02*
X048751Y019430D01*
X048140Y019430D02*
X044786Y019430D01*
X044838Y019191D02*
X048139Y019191D01*
X048139Y018953D02*
X044838Y018953D01*
X044838Y018714D02*
X048145Y018714D01*
X048177Y018476D02*
X048246Y018476D01*
X047828Y018476D02*
X047828Y018476D01*
X047828Y018636D02*
X047828Y018278D01*
X047828Y018278D01*
X047828Y018278D01*
X047470Y018278D01*
X047470Y018445D01*
X047485Y018501D01*
X047514Y018551D01*
X047555Y018592D01*
X047605Y018621D01*
X047661Y018636D01*
X047828Y018636D01*
X047478Y018476D02*
X044747Y018476D01*
X045643Y018237D02*
X045693Y018237D01*
X045693Y017999D02*
X045643Y017999D01*
X045643Y017760D02*
X045693Y017760D01*
X045693Y017522D02*
X045643Y017522D01*
X047457Y018237D02*
X047470Y018237D01*
X049254Y017522D02*
X053993Y017522D01*
X054232Y017760D02*
X049830Y017760D01*
X050069Y017999D02*
X054470Y017999D01*
X054709Y018237D02*
X050307Y018237D01*
X050546Y018476D02*
X054947Y018476D01*
X055186Y018714D02*
X050784Y018714D01*
X051023Y018953D02*
X055283Y018953D01*
X055643Y019191D02*
X051261Y019191D01*
X055265Y019430D02*
X055344Y019430D01*
X055943Y018953D02*
X056293Y018953D01*
X057334Y018714D02*
X057433Y018714D01*
X057433Y018476D02*
X057337Y018476D01*
X057337Y018237D02*
X057433Y018237D01*
X057433Y017999D02*
X057332Y017999D01*
X058776Y016091D02*
X064964Y016091D01*
X064964Y015852D02*
X058606Y015852D01*
X058368Y015614D02*
X065496Y015614D01*
X065496Y015852D02*
X065640Y015852D01*
X065640Y016091D02*
X065496Y016091D01*
X065596Y016329D02*
X066429Y016329D01*
X065640Y015375D02*
X065496Y015375D01*
X065496Y015137D02*
X065640Y015137D01*
X064964Y015137D02*
X057891Y015137D01*
X058129Y015375D02*
X064964Y015375D01*
X068283Y015375D02*
X068333Y015375D01*
X068333Y015137D02*
X068283Y015137D01*
X069403Y015137D02*
X071104Y015137D01*
X071059Y015375D02*
X070752Y015375D01*
X070990Y015614D02*
X071071Y015614D01*
X072543Y016329D02*
X073529Y016329D01*
X073533Y016091D02*
X072844Y016091D01*
X072996Y015852D02*
X073536Y015852D01*
X073540Y015614D02*
X073068Y015614D01*
X073080Y015375D02*
X073543Y015375D01*
X073547Y015137D02*
X073036Y015137D01*
X072926Y014898D02*
X073550Y014898D01*
X073554Y014660D02*
X072723Y014660D01*
X072419Y016568D02*
X073526Y016568D01*
X073522Y016806D02*
X072453Y016806D01*
X072453Y017045D02*
X073519Y017045D01*
X073515Y017283D02*
X072453Y017283D01*
X072453Y017522D02*
X073511Y017522D01*
X073508Y017760D02*
X072453Y017760D01*
X072453Y017999D02*
X073504Y017999D01*
X073501Y018237D02*
X072324Y018237D01*
X071920Y019430D02*
X073483Y019430D01*
X073480Y019668D02*
X072158Y019668D01*
X072397Y019907D02*
X073476Y019907D01*
X073472Y020145D02*
X072635Y020145D01*
X072874Y020384D02*
X073469Y020384D01*
X073465Y020622D02*
X073112Y020622D01*
X073351Y020861D02*
X073462Y020861D01*
X072818Y022053D02*
X072149Y022053D01*
X067028Y018953D02*
X067028Y018953D01*
X067028Y018818D02*
X067028Y018658D01*
X067028Y018658D01*
X067028Y018818D01*
X067028Y018818D01*
X067028Y018714D02*
X067028Y018714D01*
X066373Y018714D02*
X066323Y018714D01*
X066373Y018953D02*
X065913Y018953D01*
X065913Y018714D02*
X066028Y018714D01*
X064769Y018237D02*
X063767Y018237D01*
X064006Y017999D02*
X065008Y017999D01*
X065246Y017760D02*
X064223Y017760D01*
X063634Y017522D02*
X062147Y017522D01*
X062249Y017760D02*
X063396Y017760D01*
X063157Y017999D02*
X062245Y017999D01*
X062128Y018237D02*
X062919Y018237D01*
X063290Y018714D02*
X064292Y018714D01*
X064531Y018476D02*
X063529Y018476D01*
X061668Y017867D02*
X061668Y017867D01*
X061668Y017760D02*
X061668Y017760D01*
X061668Y017522D02*
X061668Y017522D01*
X061190Y017522D02*
X061157Y017522D01*
X059290Y020971D02*
X059230Y020971D01*
X059230Y021239D01*
X059260Y021311D01*
X059260Y021431D01*
X059214Y021541D01*
X059117Y021637D01*
X059033Y021722D01*
X058923Y021767D01*
X058166Y021767D01*
X058127Y021807D01*
X058022Y021850D01*
X058090Y021878D01*
X058202Y021991D01*
X058263Y022138D01*
X058263Y022297D01*
X058202Y022444D01*
X058133Y022513D01*
X058133Y022543D01*
X058144Y022554D01*
X058773Y021926D01*
X058872Y021885D01*
X059439Y021885D01*
X059468Y021856D01*
X059468Y021440D01*
X059330Y021302D01*
X059290Y021206D01*
X059290Y020971D01*
X059290Y021099D02*
X059230Y021099D01*
X059260Y021338D02*
X059366Y021338D01*
X059468Y021576D02*
X059178Y021576D01*
X059468Y021815D02*
X058107Y021815D01*
X058228Y022053D02*
X058645Y022053D01*
X058407Y022292D02*
X058263Y022292D01*
X058168Y022530D02*
X058133Y022530D01*
X057593Y023079D02*
X057211Y022697D01*
X057211Y022719D01*
X057149Y022719D01*
X057149Y022719D01*
X057211Y022719D01*
X057211Y023704D01*
X057211Y023988D01*
X057593Y023606D01*
X057593Y023079D01*
X057521Y023007D02*
X057211Y023007D01*
X057211Y022769D02*
X057283Y022769D01*
X057149Y022719D02*
X057149Y022719D01*
X057211Y023246D02*
X057593Y023246D01*
X057593Y023484D02*
X057211Y023484D01*
X057211Y023704D02*
X057149Y023704D01*
X057211Y023704D01*
X057211Y023723D02*
X057476Y023723D01*
X057149Y023704D02*
X057149Y023704D01*
X057149Y023704D01*
X057211Y023961D02*
X057237Y023961D01*
X058696Y023961D02*
X058987Y023961D01*
X059226Y023723D02*
X058696Y023723D01*
X058696Y023484D02*
X059464Y023484D01*
X059703Y023246D02*
X058696Y023246D01*
X058696Y023079D02*
X058696Y024253D01*
X060210Y022739D01*
X060234Y022729D01*
X060267Y022696D01*
X060363Y022656D01*
X060905Y022656D01*
X060905Y021557D01*
X060842Y021620D01*
X060766Y021696D01*
X060667Y021737D01*
X060513Y021737D01*
X060513Y021859D01*
X060452Y022006D01*
X060340Y022119D01*
X060239Y022161D01*
X059904Y022495D01*
X059829Y022571D01*
X059729Y022612D01*
X059162Y022612D01*
X058696Y023079D01*
X058767Y023007D02*
X059941Y023007D01*
X060180Y022769D02*
X059006Y022769D01*
X059869Y022530D02*
X060905Y022530D01*
X060905Y022292D02*
X060108Y022292D01*
X060405Y022053D02*
X060905Y022053D01*
X060905Y021815D02*
X060513Y021815D01*
X060886Y021576D02*
X060905Y021576D01*
X062837Y022769D02*
X063215Y022769D01*
X063215Y023007D02*
X062837Y023007D01*
X061757Y024438D02*
X061729Y024438D01*
X058749Y024200D02*
X058696Y024200D01*
X054851Y022394D02*
X054851Y022037D01*
X054199Y022037D01*
X053998Y022046D01*
X054309Y022046D01*
X054365Y022061D01*
X054415Y022090D01*
X054456Y022131D01*
X054485Y022181D01*
X054500Y022237D01*
X054500Y022544D01*
X053963Y022544D01*
X053963Y022619D01*
X054500Y022619D01*
X054500Y022699D01*
X054773Y022426D01*
X054851Y022394D01*
X054851Y022292D02*
X054500Y022292D01*
X054668Y022242D02*
X054329Y022581D01*
X053926Y022581D01*
X053888Y022544D02*
X053351Y022544D01*
X053351Y022237D01*
X053366Y022181D01*
X053395Y022131D01*
X053436Y022090D01*
X053486Y022061D01*
X053542Y022046D01*
X053818Y022046D01*
X053794Y022037D01*
X050849Y022037D01*
X050539Y022347D01*
X050539Y022567D01*
X050693Y022567D01*
X050840Y022628D01*
X050863Y022652D01*
X050886Y022628D01*
X051034Y022567D01*
X051193Y022567D01*
X051340Y022628D01*
X051452Y022741D01*
X051512Y022885D01*
X053351Y022885D01*
X053351Y022619D01*
X053888Y022619D01*
X053888Y022544D01*
X053351Y022530D02*
X050539Y022530D01*
X050595Y022292D02*
X053351Y022292D01*
X053515Y022053D02*
X050833Y022053D01*
X051464Y022769D02*
X053351Y022769D01*
X054500Y022530D02*
X054668Y022530D01*
X054851Y022053D02*
X054336Y022053D01*
X054287Y020897D02*
X054593Y020897D01*
X054531Y020872D01*
X054426Y020767D01*
X048219Y020767D01*
X048346Y020895D01*
X048496Y021044D01*
X048583Y021254D01*
X048583Y021541D01*
X049733Y021541D01*
X050130Y021145D01*
X050290Y020984D01*
X050500Y020897D01*
X054175Y020897D01*
X054275Y020893D01*
X054287Y020897D01*
X054520Y020861D02*
X048313Y020861D01*
X048519Y021099D02*
X050175Y021099D01*
X049936Y021338D02*
X048583Y021338D01*
X047007Y020767D02*
X046487Y020767D01*
X046283Y020972D01*
X046173Y021017D01*
X043237Y021017D01*
X041413Y022842D01*
X041413Y022952D01*
X041452Y022991D01*
X041513Y023138D01*
X041513Y023297D01*
X041456Y023434D01*
X042028Y023434D01*
X042043Y023419D01*
X042043Y023104D01*
X042130Y022895D01*
X042480Y022544D01*
X042641Y022384D01*
X042850Y022297D01*
X043788Y022297D01*
X043788Y022109D01*
X043875Y021899D01*
X044130Y021645D01*
X044290Y021484D01*
X044500Y021397D01*
X046476Y021397D01*
X046604Y021450D01*
X046791Y021450D01*
X046791Y021179D01*
X046793Y021175D01*
X046793Y021104D01*
X046880Y020895D01*
X047007Y020767D01*
X046913Y020861D02*
X046394Y020861D01*
X046795Y021099D02*
X043155Y021099D01*
X042917Y021338D02*
X046791Y021338D01*
X044198Y021576D02*
X042678Y021576D01*
X042440Y021815D02*
X043959Y021815D01*
X043811Y022053D02*
X042201Y022053D01*
X041963Y022292D02*
X043788Y022292D01*
X044928Y022769D02*
X044943Y022769D01*
X044943Y023007D02*
X044917Y023007D01*
X044893Y023246D02*
X044943Y023246D01*
X043531Y023484D02*
X043306Y023484D01*
X043306Y023723D02*
X043531Y023723D01*
X043531Y023961D02*
X043306Y023961D01*
X043306Y024200D02*
X043531Y024200D01*
X043531Y024438D02*
X043306Y024438D01*
X042043Y023246D02*
X041513Y023246D01*
X041459Y023007D02*
X042083Y023007D01*
X042255Y022769D02*
X041486Y022769D01*
X041724Y022530D02*
X042494Y022530D01*
X041858Y021548D02*
X042694Y020712D01*
X041858Y020712D01*
X041858Y020858D01*
X041851Y020865D01*
X041858Y020889D01*
X041858Y021235D01*
X041360Y021235D01*
X041360Y021310D01*
X041858Y021310D01*
X041858Y021548D01*
X041858Y021338D02*
X042068Y021338D01*
X041858Y021099D02*
X042307Y021099D01*
X042545Y020861D02*
X041855Y020861D01*
X041360Y021338D02*
X041285Y021338D01*
X041285Y021576D02*
X041360Y021576D01*
X041360Y021815D02*
X041285Y021815D01*
X038700Y020384D02*
X037884Y020384D01*
X037836Y020622D02*
X035373Y020622D01*
X035134Y020861D02*
X037834Y020861D01*
X037834Y021099D02*
X035083Y021099D01*
X035083Y021338D02*
X037910Y021338D01*
X037910Y021576D02*
X036830Y021576D01*
X036050Y021576D02*
X035083Y021576D01*
X035083Y021815D02*
X035875Y021815D01*
X035826Y022053D02*
X035083Y022053D01*
X035102Y022292D02*
X035874Y022292D01*
X036048Y022530D02*
X035341Y022530D01*
X037625Y021815D02*
X037910Y021815D01*
X037910Y022053D02*
X037864Y022053D01*
X038600Y020145D02*
X038805Y020145D01*
X038838Y019907D02*
X039728Y019907D01*
X041799Y019907D02*
X045999Y019907D01*
X043739Y019430D02*
X043475Y019430D01*
X048546Y022769D02*
X049399Y022769D01*
X049399Y023007D02*
X048587Y023007D01*
X050539Y023484D02*
X050748Y023484D01*
X046470Y025869D02*
X046395Y025869D01*
X046395Y026108D02*
X046470Y026108D01*
X046395Y026304D02*
X045859Y026304D01*
X045859Y026611D01*
X045874Y026666D01*
X045903Y026717D01*
X045944Y026758D01*
X045994Y026787D01*
X046050Y026802D01*
X046395Y026802D01*
X046395Y026304D01*
X046395Y026346D02*
X046470Y026346D01*
X046470Y026585D02*
X046395Y026585D01*
X045859Y026585D02*
X044784Y026585D01*
X044794Y026823D02*
X044794Y026823D01*
X044794Y026977D02*
X044794Y027096D01*
X044794Y027174D01*
X044794Y027174D01*
X044794Y026977D01*
X044794Y026977D01*
X044794Y027062D02*
X044794Y027062D01*
X044794Y027174D02*
X044794Y027371D01*
X044794Y027568D01*
X044794Y027568D01*
X044794Y027371D01*
X044794Y027371D01*
X044794Y027371D01*
X044794Y027174D01*
X044794Y027174D01*
X044794Y027300D02*
X044794Y027300D01*
X044794Y027539D02*
X044794Y027539D01*
X045099Y027568D02*
X045181Y027568D01*
X045099Y027568D01*
X045099Y027568D01*
X045181Y027539D02*
X045281Y027539D01*
X045181Y027371D02*
X045099Y027371D01*
X045099Y027371D01*
X045099Y027371D01*
X045181Y027371D01*
X045173Y027300D02*
X045520Y027300D01*
X045859Y027062D02*
X045169Y027062D01*
X045099Y026977D02*
X045099Y026977D01*
X045134Y026823D02*
X047833Y026823D01*
X047594Y027062D02*
X047007Y027062D01*
X047007Y027300D02*
X047356Y027300D01*
X047117Y027539D02*
X047007Y027539D01*
X045273Y028133D02*
X044730Y028133D01*
X044665Y028199D01*
X044563Y028241D01*
X044454Y028241D01*
X044410Y028222D01*
X044367Y028241D01*
X044257Y028241D01*
X044213Y028222D01*
X044170Y028241D01*
X044060Y028241D01*
X044017Y028222D01*
X044016Y028223D01*
X044012Y028234D01*
X043933Y028312D01*
X043933Y028331D01*
X043846Y028540D01*
X043612Y028775D01*
X043582Y028847D01*
X043413Y029016D01*
X043192Y029108D01*
X041505Y029108D01*
X041618Y029221D01*
X041618Y029327D01*
X044079Y029327D01*
X045273Y028133D01*
X045152Y028254D02*
X043991Y028254D01*
X043866Y028493D02*
X044913Y028493D01*
X044675Y028731D02*
X043655Y028731D01*
X043459Y028970D02*
X044436Y028970D01*
X044198Y029208D02*
X041605Y029208D01*
X044615Y030639D02*
X045251Y030639D01*
X045251Y030401D02*
X044854Y030401D01*
X045092Y030162D02*
X045251Y030162D01*
X045251Y030004D02*
X044226Y031029D01*
X044226Y031837D01*
X045049Y031837D01*
X045007Y031738D01*
X045007Y031572D01*
X045071Y031418D01*
X045189Y031300D01*
X045251Y031275D01*
X045251Y030004D01*
X045251Y030878D02*
X044377Y030878D01*
X044226Y031116D02*
X045251Y031116D01*
X045134Y031355D02*
X044226Y031355D01*
X044226Y031593D02*
X045007Y031593D01*
X045046Y031832D02*
X044226Y031832D01*
X041817Y030878D02*
X041608Y030878D01*
X041578Y031116D02*
X028626Y031116D01*
X028509Y031355D02*
X041146Y031355D01*
X039418Y030878D02*
X028864Y030878D01*
X031068Y031832D02*
X031068Y031832D01*
X031068Y032070D02*
X031068Y032070D01*
X031068Y032309D02*
X031068Y032309D01*
X031068Y032367D02*
X031068Y032367D01*
X031068Y032547D02*
X031068Y032547D01*
X031068Y032786D02*
X031068Y032786D01*
X031068Y033024D02*
X031068Y033024D01*
X030284Y034217D02*
X029536Y034217D01*
X029775Y034455D02*
X030488Y034455D01*
X030727Y034694D02*
X030013Y034694D01*
X030252Y034932D02*
X030965Y034932D01*
X031204Y035171D02*
X030490Y035171D01*
X030729Y035409D02*
X031442Y035409D01*
X031681Y035648D02*
X030967Y035648D01*
X031206Y035886D02*
X036419Y035886D01*
X036658Y036125D02*
X031444Y036125D01*
X031683Y036363D02*
X036896Y036363D01*
X036527Y036602D02*
X034809Y036602D01*
X034988Y036840D02*
X036348Y036840D01*
X036267Y037079D02*
X035069Y037079D01*
X035069Y037317D02*
X036267Y037317D01*
X036349Y037556D02*
X034988Y037556D01*
X034808Y037794D02*
X036528Y037794D01*
X034429Y038668D02*
X034498Y038925D01*
X034498Y039191D01*
X034429Y039448D01*
X034296Y039678D01*
X034108Y039867D01*
X033877Y040000D01*
X033620Y040069D01*
X033354Y040069D01*
X033097Y040000D01*
X032867Y039867D01*
X032678Y039678D01*
X032545Y039448D01*
X032477Y039191D01*
X032477Y038925D01*
X032545Y038668D01*
X032678Y038437D01*
X032867Y038249D01*
X033097Y038116D01*
X033354Y038047D01*
X033620Y038047D01*
X033877Y038116D01*
X034108Y038249D01*
X034296Y038437D01*
X034429Y038668D01*
X034450Y038748D02*
X039809Y038748D01*
X039820Y038768D02*
X039680Y038526D01*
X039608Y038257D01*
X039608Y037977D01*
X039680Y037708D01*
X039820Y037466D01*
X040017Y037269D01*
X040259Y037129D01*
X040529Y037057D01*
X040808Y037057D01*
X041077Y037129D01*
X041319Y037269D01*
X041516Y037466D01*
X041656Y037708D01*
X041728Y037977D01*
X041728Y038257D01*
X041656Y038526D01*
X041516Y038768D01*
X041319Y038965D01*
X041077Y039105D01*
X040808Y039177D01*
X040529Y039177D01*
X040259Y039105D01*
X040017Y038965D01*
X039820Y038768D01*
X039676Y038510D02*
X034338Y038510D01*
X034130Y038271D02*
X039612Y038271D01*
X039608Y038033D02*
X031771Y038033D01*
X031532Y038271D02*
X032844Y038271D01*
X032637Y038510D02*
X031294Y038510D01*
X031055Y038748D02*
X032524Y038748D01*
X032477Y038987D02*
X030817Y038987D01*
X030578Y039225D02*
X032486Y039225D01*
X032555Y039464D02*
X030336Y039464D01*
X030038Y039702D02*
X032702Y039702D01*
X032995Y039941D02*
X026178Y039941D01*
X026175Y040179D02*
X045347Y040179D01*
X045344Y039941D02*
X033979Y039941D01*
X034272Y039702D02*
X045344Y039702D01*
X045344Y039786D02*
X045344Y039480D01*
X045359Y039424D01*
X045388Y039374D01*
X045429Y039333D01*
X045479Y039304D01*
X045535Y039289D01*
X045881Y039289D01*
X045881Y039786D01*
X045344Y039786D01*
X045348Y039464D02*
X034420Y039464D01*
X034488Y039225D02*
X045442Y039225D01*
X045344Y038987D02*
X045281Y038987D01*
X045881Y039464D02*
X045956Y039464D01*
X045956Y039702D02*
X045881Y039702D01*
X045881Y039941D02*
X045956Y039941D01*
X045956Y040179D02*
X045881Y040179D01*
X046489Y040179D02*
X046769Y040179D01*
X046589Y039941D02*
X046493Y039941D01*
X046493Y039702D02*
X046543Y039702D01*
X047781Y038987D02*
X050555Y038987D01*
X050309Y038748D02*
X048028Y038748D01*
X048160Y038510D02*
X050176Y038510D01*
X050112Y038271D02*
X048224Y038271D01*
X048228Y038033D02*
X050108Y038033D01*
X050157Y037794D02*
X048179Y037794D01*
X048068Y037556D02*
X050268Y037556D01*
X050469Y037317D02*
X047868Y037317D01*
X045498Y037079D02*
X044890Y037079D01*
X044447Y037079D02*
X040890Y037079D01*
X040447Y037079D02*
X039069Y037079D01*
X039069Y037317D02*
X039969Y037317D01*
X039768Y037556D02*
X038988Y037556D01*
X038808Y037794D02*
X039657Y037794D01*
X038988Y036840D02*
X045482Y036840D01*
X045482Y036602D02*
X038809Y036602D01*
X038388Y036363D02*
X043562Y036363D01*
X043969Y037317D02*
X041368Y037317D01*
X041568Y037556D02*
X043768Y037556D01*
X043657Y037794D02*
X041679Y037794D01*
X041728Y038033D02*
X043608Y038033D01*
X043612Y038271D02*
X041724Y038271D01*
X041660Y038510D02*
X043676Y038510D01*
X043809Y038748D02*
X041528Y038748D01*
X041281Y038987D02*
X044055Y038987D01*
X040055Y038987D02*
X034498Y038987D01*
X030450Y037317D02*
X029344Y037317D01*
X029333Y037350D02*
X029284Y037452D01*
X029223Y037547D01*
X029153Y037636D01*
X029073Y037716D01*
X028984Y037786D01*
X028889Y037847D01*
X028787Y037896D01*
X028680Y037933D01*
X028569Y037958D01*
X028520Y037964D01*
X028520Y037083D01*
X029401Y037083D01*
X029395Y037132D01*
X029370Y037243D01*
X029333Y037350D01*
X029217Y037556D02*
X030211Y037556D01*
X029973Y037794D02*
X028971Y037794D01*
X028918Y038033D02*
X027836Y038033D01*
X027872Y038062D02*
X027952Y038142D01*
X028023Y038230D01*
X028083Y038326D01*
X028132Y038428D01*
X028169Y038535D01*
X028194Y038645D01*
X028200Y038694D01*
X027320Y038694D01*
X027320Y038934D01*
X028200Y038934D01*
X028194Y038983D01*
X028169Y039093D01*
X028132Y039200D01*
X028083Y039302D01*
X028023Y039398D01*
X027952Y039486D01*
X027872Y039566D01*
X027784Y039637D01*
X027688Y039697D01*
X027586Y039746D01*
X027479Y039783D01*
X027369Y039809D01*
X027320Y039814D01*
X027320Y038934D01*
X027080Y038934D01*
X027080Y039814D01*
X027031Y039809D01*
X026920Y039783D01*
X026814Y039746D01*
X026712Y039697D01*
X026616Y039637D01*
X026527Y039566D01*
X026447Y039486D01*
X026377Y039398D01*
X026317Y039302D01*
X026268Y039200D01*
X026230Y039093D01*
X026205Y038983D01*
X026199Y038934D01*
X027080Y038934D01*
X027080Y038694D01*
X027320Y038694D01*
X027320Y037814D01*
X027369Y037819D01*
X027479Y037844D01*
X027586Y037882D01*
X027688Y037931D01*
X027784Y037991D01*
X027872Y038062D01*
X028014Y037896D02*
X027912Y037847D01*
X027817Y037786D01*
X027728Y037716D01*
X027648Y037636D01*
X027578Y037547D01*
X027517Y037452D01*
X027468Y037350D01*
X027431Y037243D01*
X027406Y037132D01*
X027400Y037083D01*
X028280Y037083D01*
X028280Y036843D01*
X028520Y036843D01*
X028520Y035963D01*
X028569Y035969D01*
X028680Y035994D01*
X028787Y036031D01*
X028889Y036080D01*
X028984Y036141D01*
X029073Y036211D01*
X029153Y036291D01*
X029223Y036380D01*
X029284Y036475D01*
X029333Y036577D01*
X029370Y036684D01*
X029395Y036794D01*
X029401Y036843D01*
X028520Y036843D01*
X028520Y037083D01*
X028280Y037083D01*
X028280Y037964D01*
X028231Y037958D01*
X028121Y037933D01*
X028014Y037896D01*
X027829Y037794D02*
X026210Y037794D01*
X026214Y037556D02*
X027584Y037556D01*
X027457Y037317D02*
X026217Y037317D01*
X026221Y037079D02*
X028280Y037079D01*
X028280Y036843D02*
X027400Y036843D01*
X027406Y036794D01*
X027431Y036684D01*
X027468Y036577D01*
X027517Y036475D01*
X027578Y036380D01*
X027648Y036291D01*
X027728Y036211D01*
X027817Y036141D01*
X027912Y036080D01*
X028014Y036031D01*
X028121Y035994D01*
X028231Y035969D01*
X028280Y035963D01*
X028280Y036843D01*
X028280Y036840D02*
X028520Y036840D01*
X028520Y036602D02*
X028280Y036602D01*
X028280Y036363D02*
X028520Y036363D01*
X028520Y036125D02*
X028280Y036125D01*
X027842Y036125D02*
X026235Y036125D01*
X026231Y036363D02*
X027590Y036363D01*
X027460Y036602D02*
X026228Y036602D01*
X026224Y036840D02*
X027401Y036840D01*
X028280Y037317D02*
X028520Y037317D01*
X028520Y037079D02*
X030362Y037079D01*
X030123Y036840D02*
X029400Y036840D01*
X029341Y036602D02*
X029885Y036602D01*
X029646Y036363D02*
X029210Y036363D01*
X029408Y036125D02*
X028959Y036125D01*
X029169Y035886D02*
X026238Y035886D01*
X026242Y035648D02*
X027209Y035648D01*
X026918Y035409D02*
X026246Y035409D01*
X026249Y035171D02*
X026777Y035171D01*
X026698Y034932D02*
X026253Y034932D01*
X026256Y034694D02*
X026698Y034694D01*
X026756Y034455D02*
X026260Y034455D01*
X026263Y034217D02*
X026868Y034217D01*
X027106Y033978D02*
X026267Y033978D01*
X026270Y033740D02*
X027361Y033740D01*
X026978Y033501D02*
X026274Y033501D01*
X026277Y033263D02*
X026805Y033263D01*
X026720Y033024D02*
X026281Y033024D01*
X026285Y032786D02*
X026698Y032786D01*
X026736Y032547D02*
X026288Y032547D01*
X026292Y032309D02*
X026844Y032309D01*
X032286Y034217D02*
X041448Y034217D01*
X043903Y033740D02*
X044189Y033740D01*
X044189Y033501D02*
X044116Y033501D01*
X047016Y033092D02*
X047050Y033127D01*
X047528Y033127D01*
X047564Y033142D01*
X047864Y033142D01*
X047929Y033207D01*
X050209Y033207D01*
X050249Y033166D01*
X050249Y033127D01*
X050184Y033062D01*
X050184Y032205D01*
X050144Y032205D01*
X050152Y032234D01*
X050152Y032580D01*
X049654Y032580D01*
X049654Y032043D01*
X049789Y032043D01*
X049789Y031716D01*
X049462Y032043D01*
X049580Y032043D01*
X049580Y032580D01*
X049082Y032580D01*
X049082Y032423D01*
X049013Y032492D01*
X049013Y032547D01*
X048952Y032694D01*
X048840Y032807D01*
X048693Y032867D01*
X048534Y032867D01*
X048386Y032807D01*
X048376Y032796D01*
X048350Y032822D01*
X048196Y032886D01*
X048030Y032886D01*
X047993Y032870D01*
X047993Y032963D01*
X047864Y033092D01*
X047016Y033092D01*
X047932Y033024D02*
X049089Y033024D01*
X049082Y033000D02*
X049082Y032654D01*
X049580Y032654D01*
X049580Y032580D01*
X049654Y032580D01*
X049654Y032654D01*
X049580Y032654D01*
X049580Y033191D01*
X049273Y033191D01*
X049217Y033176D01*
X049167Y033147D01*
X049126Y033106D01*
X049097Y033056D01*
X049082Y033000D01*
X049082Y032786D02*
X048860Y032786D01*
X049013Y032547D02*
X049082Y032547D01*
X049580Y032547D02*
X049654Y032547D01*
X049654Y032654D02*
X050152Y032654D01*
X050152Y033000D01*
X050137Y033056D01*
X050108Y033106D01*
X050067Y033147D01*
X050017Y033176D01*
X049961Y033191D01*
X049654Y033191D01*
X049654Y032654D01*
X049654Y032786D02*
X049580Y032786D01*
X049580Y033024D02*
X049654Y033024D01*
X050146Y033024D02*
X050184Y033024D01*
X050184Y032786D02*
X050152Y032786D01*
X050152Y032547D02*
X050184Y032547D01*
X050184Y032309D02*
X050152Y032309D01*
X049654Y032309D02*
X049580Y032309D01*
X049580Y032070D02*
X049654Y032070D01*
X049673Y031832D02*
X049789Y031832D01*
X050442Y031867D02*
X050719Y032145D01*
X050719Y032617D01*
X048596Y035171D02*
X048240Y035171D01*
X045482Y037317D02*
X045368Y037317D01*
X029086Y039702D02*
X027676Y039702D01*
X027320Y039702D02*
X027080Y039702D01*
X027080Y039464D02*
X027320Y039464D01*
X027320Y039225D02*
X027080Y039225D01*
X027080Y038987D02*
X027320Y038987D01*
X027320Y038748D02*
X028554Y038748D01*
X028565Y038987D02*
X028193Y038987D01*
X028120Y039225D02*
X028636Y039225D01*
X028787Y039464D02*
X027970Y039464D01*
X026723Y039702D02*
X026182Y039702D01*
X026185Y039464D02*
X026430Y039464D01*
X026280Y039225D02*
X026189Y039225D01*
X026192Y038987D02*
X026206Y038987D01*
X026196Y038748D02*
X027080Y038748D01*
X027080Y038694D02*
X026199Y038694D01*
X026205Y038645D01*
X026230Y038535D01*
X026268Y038428D01*
X026317Y038326D01*
X026377Y038230D01*
X026447Y038142D01*
X026527Y038062D01*
X026616Y037991D01*
X026712Y037931D01*
X026814Y037882D01*
X026920Y037844D01*
X027031Y037819D01*
X027080Y037814D01*
X027080Y038694D01*
X027080Y038510D02*
X027320Y038510D01*
X027320Y038271D02*
X027080Y038271D01*
X027080Y038033D02*
X027320Y038033D01*
X026563Y038033D02*
X026207Y038033D01*
X026203Y038271D02*
X026351Y038271D01*
X026239Y038510D02*
X026200Y038510D01*
X028049Y038271D02*
X028712Y038271D01*
X028600Y038510D02*
X028161Y038510D01*
X028280Y037794D02*
X028520Y037794D01*
X028520Y037556D02*
X028280Y037556D01*
X028128Y035648D02*
X028931Y035648D01*
X026171Y040418D02*
X070081Y040418D01*
X070078Y040179D02*
X069832Y040179D01*
X070071Y039941D02*
X070134Y039941D01*
X066552Y035409D02*
X066477Y035409D01*
X066477Y035171D02*
X066552Y035171D01*
X066552Y034932D02*
X066477Y034932D01*
X066477Y034694D02*
X066552Y034694D01*
X068609Y027539D02*
X068639Y027539D01*
X068639Y027300D02*
X068370Y027300D01*
X068132Y027062D02*
X068639Y027062D01*
X067893Y026823D02*
X072818Y026823D01*
X072818Y026585D02*
X067655Y026585D01*
X072170Y027062D02*
X072818Y027062D01*
X058566Y021015D02*
X058501Y021080D01*
X057225Y021080D01*
X057113Y020967D01*
X055613Y020967D01*
X045873Y025869D02*
X044744Y025869D01*
X044744Y026108D02*
X045859Y026108D01*
X045859Y026346D02*
X044696Y026346D01*
X044723Y026281D02*
X044723Y026281D01*
X045099Y027174D02*
X045099Y027174D01*
X041260Y026585D02*
X041185Y026585D01*
X041185Y026346D02*
X041260Y026346D01*
X041185Y026108D02*
X040638Y026108D01*
X040638Y026346D02*
X040688Y026346D01*
X040719Y026585D02*
X040616Y026585D01*
X040638Y025869D02*
X040688Y025869D01*
X040711Y025631D02*
X040616Y025631D01*
X040638Y025392D02*
X040688Y025392D01*
X040688Y025154D02*
X040638Y025154D01*
X040638Y024915D02*
X040688Y024915D01*
X033143Y027062D02*
X030925Y027062D01*
X030991Y026823D02*
X033025Y026823D01*
X032786Y026585D02*
X030991Y026585D01*
X031105Y026346D02*
X032548Y026346D01*
X032309Y026108D02*
X031134Y026108D01*
X031067Y025869D02*
X032071Y025869D01*
X031832Y025631D02*
X030860Y025631D01*
X030181Y025631D02*
X029888Y025631D01*
X029888Y025869D02*
X029974Y025869D01*
X029936Y026346D02*
X029864Y026346D01*
X030051Y026585D02*
X029657Y026585D01*
X029842Y026823D02*
X029419Y026823D01*
X029604Y027062D02*
X029180Y027062D01*
X029365Y027300D02*
X028942Y027300D01*
X029127Y027539D02*
X028415Y027539D01*
X028119Y027777D02*
X028888Y027777D01*
X028720Y028016D02*
X028104Y028016D01*
X028138Y028032D02*
X028230Y028090D01*
X028316Y028158D01*
X028393Y028235D01*
X028461Y028321D01*
X028518Y028413D01*
X028566Y028511D01*
X028602Y028614D01*
X028626Y028720D01*
X028638Y028828D01*
X028638Y028865D01*
X027686Y028865D01*
X027686Y028901D01*
X027650Y028901D01*
X027650Y028865D01*
X027686Y028865D01*
X027686Y027913D01*
X027723Y027913D01*
X027831Y027925D01*
X027937Y027949D01*
X028040Y027985D01*
X028138Y028032D01*
X028408Y028254D02*
X028698Y028254D01*
X028698Y028493D02*
X028557Y028493D01*
X028627Y028731D02*
X028668Y028731D01*
X028638Y028901D02*
X028638Y028937D01*
X028626Y029045D01*
X028602Y029152D01*
X028566Y029255D01*
X028518Y029353D01*
X028461Y029445D01*
X028393Y029530D01*
X028316Y029607D01*
X028230Y029675D01*
X028138Y029733D01*
X028040Y029780D01*
X027937Y029816D01*
X027831Y029841D01*
X027723Y029853D01*
X027686Y029853D01*
X027686Y028901D01*
X028638Y028901D01*
X028635Y028970D02*
X028668Y028970D01*
X028668Y029208D02*
X028582Y029208D01*
X028668Y029447D02*
X028459Y029447D01*
X028643Y029685D02*
X028214Y029685D01*
X028404Y029924D02*
X027964Y029924D01*
X027686Y029685D02*
X027650Y029685D01*
X027650Y029447D02*
X027686Y029447D01*
X027686Y029208D02*
X027650Y029208D01*
X027650Y028970D02*
X027686Y028970D01*
X027686Y028731D02*
X027650Y028731D01*
X027650Y028493D02*
X027686Y028493D01*
X027686Y028254D02*
X027650Y028254D01*
X027650Y028016D02*
X027686Y028016D01*
X029638Y028493D02*
X032267Y028493D01*
X032281Y028731D02*
X029668Y028731D01*
X029668Y028970D02*
X032380Y028970D01*
X032603Y029208D02*
X029668Y029208D01*
X029741Y028254D02*
X032317Y028254D01*
X032452Y028016D02*
X029979Y028016D01*
X030218Y027777D02*
X032792Y027777D01*
X033143Y027539D02*
X030456Y027539D01*
X030695Y027300D02*
X033143Y027300D01*
X031594Y025392D02*
X029888Y025392D01*
X029888Y025154D02*
X031355Y025154D01*
X031117Y024915D02*
X029888Y024915D01*
X029888Y024677D02*
X030878Y024677D01*
X030640Y024438D02*
X029888Y024438D01*
X029888Y024200D02*
X030234Y024200D01*
X029983Y023961D02*
X029888Y023961D01*
X029888Y023723D02*
X029907Y023723D01*
X029888Y023484D02*
X029927Y023484D01*
X029888Y023246D02*
X030051Y023246D01*
X030051Y023007D02*
X029888Y023007D01*
X029888Y022769D02*
X030051Y022769D01*
X030048Y022530D02*
X029888Y022530D01*
X028948Y022053D02*
X028299Y022053D01*
X028475Y021815D02*
X028948Y021815D01*
X028948Y021576D02*
X028565Y021576D01*
X028592Y021338D02*
X028948Y021338D01*
X028948Y021099D02*
X028563Y021099D01*
X028471Y020861D02*
X028948Y020861D01*
X028948Y020622D02*
X028292Y020622D01*
X027913Y020384D02*
X028989Y020384D01*
X027540Y016806D02*
X027540Y016806D01*
X027540Y016568D02*
X027540Y016568D01*
X027193Y016568D02*
X027012Y016568D01*
X027012Y016806D02*
X027045Y016806D01*
X027021Y024221D02*
X026944Y024298D01*
X026876Y024384D01*
X026818Y024476D01*
X026771Y024574D01*
X026735Y024677D01*
X026841Y024438D02*
X026409Y024438D01*
X028234Y026108D02*
X028720Y026108D01*
X028482Y026346D02*
X028472Y026346D01*
D48*
X039856Y027492D03*
X042356Y027492D03*
X044231Y028742D03*
X042481Y029242D03*
X044481Y031242D03*
X045426Y031655D03*
X048113Y032467D03*
X048981Y032992D03*
X045551Y033530D03*
X041363Y031717D03*
X048606Y028367D03*
X050731Y028242D03*
X053731Y029742D03*
X055801Y029155D03*
X056926Y029155D03*
X057231Y029742D03*
X059113Y031217D03*
X061363Y032342D03*
X061981Y032992D03*
X058981Y033742D03*
X055481Y032992D03*
X054613Y032467D03*
X052613Y031342D03*
X052481Y033742D03*
X049356Y037242D03*
X055668Y037305D03*
X062231Y037242D03*
X065293Y037680D03*
X067231Y035492D03*
X071731Y036430D03*
X067481Y033492D03*
X066363Y032717D03*
X065926Y030780D03*
X066988Y030780D03*
X068231Y029992D03*
X061418Y029867D03*
X058731Y027430D03*
X062231Y024742D03*
X060356Y023992D03*
X059606Y022992D03*
X059356Y021742D03*
X057356Y022992D03*
X057356Y023492D03*
X056113Y023780D03*
X054668Y022242D03*
X053106Y022242D03*
X049231Y020992D03*
X046606Y019242D03*
X048356Y016492D03*
X051606Y016492D03*
X055106Y016492D03*
X055106Y014867D03*
X051606Y014867D03*
X048356Y014867D03*
X044606Y014867D03*
X041356Y014867D03*
X041356Y016492D03*
X044606Y016492D03*
X037856Y016492D03*
X037731Y017492D03*
X034106Y016492D03*
X031231Y017242D03*
X029981Y015742D03*
X027231Y015492D03*
X034106Y014867D03*
X037856Y014867D03*
X027981Y018992D03*
X039981Y022492D03*
X043481Y021742D03*
X049238Y024967D03*
X045731Y025992D03*
X045731Y026492D03*
X045731Y026992D03*
X045231Y026992D03*
X045231Y026492D03*
X045231Y025992D03*
X063481Y021492D03*
X066981Y019680D03*
X071231Y017930D03*
X037731Y039492D03*
D49*
X043613Y027967D02*
X043633Y027948D01*
X044509Y027853D02*
X045363Y027853D01*
X045847Y027369D01*
X046433Y027369D01*
X043373Y026977D02*
X043363Y026967D01*
X043363Y026842D01*
X043363Y026717D01*
X042863Y025178D02*
X042627Y024942D01*
D50*
X042662Y024617D02*
X042263Y025017D01*
X042257Y026318D01*
X043359Y026318D02*
X043359Y026838D01*
X043363Y026842D01*
X044173Y026117D02*
X044174Y026116D01*
X044174Y024617D01*
X042613Y023967D02*
X042613Y023217D01*
X042963Y022867D01*
X044358Y022867D01*
X044358Y022222D01*
X044613Y021967D01*
X046363Y021967D01*
X048013Y022111D02*
X048013Y021367D01*
X047863Y021217D01*
X047363Y021217D01*
X048013Y022111D02*
X049969Y022111D01*
X049969Y022467D01*
X049969Y024717D01*
X049969Y028361D01*
X048863Y029467D01*
X046613Y029467D01*
X046113Y029967D01*
X046113Y032217D01*
X043073Y028508D02*
X043363Y028217D01*
X049969Y022111D02*
X050613Y021467D01*
X054187Y021467D01*
X053926Y021479D01*
X054187Y021467D02*
X055113Y021467D01*
X055613Y020967D01*
X055613Y019967D01*
X055863Y019717D01*
X072363Y036842D02*
X069488Y039717D01*
X065363Y039717D01*
X062863Y039717D01*
X058863Y039717D01*
X052363Y039717D01*
X047113Y039717D01*
D51*
X043863Y035467D02*
X044489Y034841D01*
X044489Y032784D01*
X043613Y032217D02*
X043468Y032217D01*
X043368Y032318D01*
X043613Y032217D02*
X043926Y031905D01*
X043926Y030905D01*
X046238Y028592D01*
X047238Y028592D01*
X048863Y026967D01*
X048863Y024717D01*
X048613Y024717D02*
X048613Y026842D01*
X047113Y028342D01*
X045988Y028342D01*
X043363Y030967D01*
X043363Y031362D01*
X043398Y031398D01*
X042279Y031398D02*
X041683Y031398D01*
X041363Y031717D01*
X041363Y032363D01*
X041314Y032662D01*
X045426Y031655D02*
X045551Y031592D01*
X045551Y029717D01*
X046426Y028842D01*
X047363Y028842D01*
X049113Y027092D01*
X049113Y025092D01*
X049238Y024967D01*
X048363Y024717D02*
X048363Y026717D01*
X046988Y028092D01*
X045738Y028092D01*
X044203Y029627D01*
X041043Y029627D01*
X043613Y027967D02*
X043633Y027947D01*
X043633Y027627D01*
X043727Y027853D02*
X043633Y027947D01*
X043727Y027853D02*
X043918Y027853D01*
X044115Y027853D01*
X044213Y027273D02*
X044696Y027273D01*
X043017Y027371D02*
X042363Y026717D01*
X042363Y026424D01*
X042257Y026318D01*
X041223Y025162D02*
X041223Y024577D01*
X041113Y024467D01*
X041113Y023217D02*
X041113Y022717D01*
X043113Y020717D01*
X046113Y020717D01*
X046363Y020467D01*
X054551Y020467D01*
X054701Y020617D01*
X054926Y020617D01*
X054926Y020155D02*
X046176Y020155D01*
X045918Y020412D01*
X041323Y020412D01*
X038488Y018842D02*
X038488Y017842D01*
X039113Y017217D01*
X054113Y017217D01*
X055613Y018717D01*
X056113Y018467D02*
X054613Y016967D01*
X032363Y016967D01*
X031738Y017592D01*
X031863Y017717D01*
X031738Y017592D02*
X030863Y018467D01*
X028613Y018467D01*
X028024Y017879D01*
X027540Y017879D01*
X027540Y017623D02*
X028269Y017623D01*
X028363Y017717D01*
X028613Y017717D01*
X028613Y017217D02*
X028363Y017217D01*
X028213Y017367D01*
X027540Y017367D01*
X027540Y017111D02*
X027969Y017111D01*
X028113Y016967D01*
X028113Y016467D01*
X028363Y016217D01*
X029113Y016217D01*
X029363Y015967D01*
X029363Y015265D01*
X029354Y015256D01*
X027540Y017111D02*
X027094Y017111D01*
X026988Y017217D01*
X026988Y018092D01*
X027113Y018217D01*
X027863Y018217D01*
X028457Y018811D01*
X028488Y018780D01*
X031051Y018780D01*
X031676Y018155D01*
X036676Y018155D01*
X037488Y018967D01*
X038363Y018967D01*
X038488Y018842D01*
X037961Y018467D02*
X037961Y018412D01*
X046363Y021967D02*
X046444Y021887D01*
X046580Y021887D01*
X046836Y021887D01*
X047091Y021887D02*
X047091Y021239D01*
X047113Y021217D01*
X047113Y021467D01*
X047363Y021467D01*
X047363Y021217D01*
X049613Y017967D02*
X051301Y019655D01*
X054926Y019655D01*
X057901Y021467D02*
X058863Y021467D01*
X058960Y021371D01*
X060613Y019967D02*
X060801Y019967D01*
X061051Y019717D01*
X061051Y018780D01*
X061238Y018592D01*
X062988Y018592D01*
X063953Y017628D01*
X063953Y016787D01*
X066113Y017318D02*
X064113Y019318D01*
X063618Y019318D01*
X062363Y020217D02*
X065363Y020217D01*
X068176Y023030D01*
X069863Y023030D01*
X070113Y023280D01*
X070113Y023467D01*
X070228Y023582D01*
X070713Y023582D01*
X070748Y023617D01*
X072168Y023617D01*
X072168Y024617D02*
X069763Y024617D01*
X069213Y024068D01*
X069213Y023582D01*
X068228Y023582D01*
X065863Y021217D01*
X065863Y021092D01*
X065238Y020467D01*
X062363Y020467D01*
X062363Y020717D02*
X065113Y020717D01*
X065613Y021217D01*
X065613Y024967D01*
X068676Y028030D01*
X069676Y028030D01*
X070228Y028582D01*
X070713Y028582D01*
X070748Y028617D01*
X072168Y028617D01*
X072168Y029617D02*
X069763Y029617D01*
X069213Y029068D01*
X069213Y028582D01*
X068728Y028582D01*
X065363Y025217D01*
X065363Y021467D01*
X064863Y020967D01*
X062363Y020967D01*
X062489Y021341D02*
X062739Y021341D01*
X064551Y021467D02*
X064613Y021467D01*
X065113Y021967D01*
X065113Y027467D01*
X064363Y028217D01*
X061363Y028217D01*
X060926Y028530D02*
X061363Y028967D01*
X065613Y028967D01*
X066488Y029842D01*
X067238Y029842D01*
X067363Y029967D01*
X067363Y030592D01*
X067176Y030780D01*
X066988Y030780D01*
X066926Y030342D02*
X066988Y030280D01*
X066926Y030342D02*
X066613Y030342D01*
X066613Y031217D01*
X068426Y033030D01*
X069738Y033030D01*
X069988Y033280D01*
X069988Y033405D01*
X070166Y033582D01*
X070713Y033582D01*
X070748Y033617D01*
X072168Y033617D01*
X071238Y034592D02*
X070713Y034068D01*
X070713Y033582D01*
X071238Y034592D02*
X071238Y037092D01*
X070463Y037867D01*
X068402Y037867D01*
X068402Y037367D02*
X070463Y037367D01*
X070863Y036967D01*
X070863Y034967D01*
X070613Y034717D01*
X070113Y034717D01*
X069613Y034717D01*
X069213Y034318D01*
X069213Y033582D01*
X068541Y033582D01*
X066363Y031405D01*
X066363Y030467D01*
X065363Y029467D01*
X062613Y029467D01*
X062613Y030467D01*
X062213Y030867D01*
X061395Y030867D01*
X060888Y030867D01*
X060578Y030557D01*
X060168Y030557D01*
X059113Y030527D02*
X059113Y031217D01*
X059113Y031916D01*
X058168Y032307D02*
X058168Y031427D01*
X058108Y031367D01*
X056942Y031367D01*
X056213Y031367D01*
X055113Y032467D01*
X054613Y032467D02*
X054523Y032557D01*
X053918Y032557D01*
X053918Y032148D01*
X053668Y031898D01*
X053668Y031677D01*
X054154Y031677D01*
X054463Y031367D01*
X054895Y031367D01*
X054895Y030867D02*
X055713Y030867D01*
X056113Y030467D01*
X056113Y029467D01*
X056613Y028967D01*
X056363Y028717D02*
X052363Y028717D01*
X051668Y029412D01*
X051668Y030307D01*
X051273Y030307D01*
X051113Y030467D01*
X051113Y030717D01*
X050963Y030867D01*
X050442Y030867D01*
X050442Y031367D02*
X049713Y031367D01*
X048613Y032467D01*
X048113Y032467D02*
X048023Y032557D01*
X047418Y032557D01*
X047418Y032273D01*
X047168Y032023D01*
X047168Y031677D01*
X047654Y031677D01*
X047963Y031367D01*
X048395Y031367D01*
X048395Y030867D02*
X047825Y030867D01*
X047515Y030557D01*
X047168Y030557D01*
X048395Y030867D02*
X048963Y030867D01*
X051363Y028467D01*
X056113Y028467D01*
X055613Y028967D02*
X055801Y029155D01*
X055613Y028967D02*
X052863Y028967D01*
X052613Y029217D01*
X052613Y029658D01*
X052613Y030777D02*
X052613Y031342D01*
X052613Y031916D01*
X051668Y032307D02*
X051668Y031427D01*
X051608Y031367D01*
X050442Y031367D01*
X053668Y030557D02*
X054078Y030557D01*
X054388Y030867D01*
X054895Y030867D01*
X056942Y030867D02*
X057463Y030867D01*
X057613Y030717D01*
X057613Y030467D01*
X057773Y030307D01*
X058023Y030307D01*
X058113Y030217D01*
X058113Y029717D01*
X057238Y028842D01*
X058113Y028967D02*
X058363Y028967D01*
X058613Y028717D01*
X058613Y028232D01*
X058728Y028117D01*
X059408Y028117D01*
X059563Y028222D01*
X060363Y028967D02*
X060863Y029467D01*
X062613Y029467D01*
X061113Y029217D02*
X060613Y028717D01*
X061113Y029217D02*
X065488Y029217D01*
X066613Y030342D01*
X065926Y030780D02*
X065801Y030780D01*
X065613Y030967D01*
X065613Y031408D01*
X064668Y031427D02*
X064668Y032307D01*
X065613Y032527D02*
X065624Y032539D01*
X065624Y033530D01*
X065613Y032527D02*
X066173Y032527D01*
X066363Y032717D01*
X064668Y031427D02*
X064608Y031367D01*
X063442Y031367D01*
X062713Y031367D01*
X062051Y032030D01*
X062051Y032280D01*
X061863Y032467D01*
X061363Y032342D02*
X061148Y032557D01*
X060668Y032557D01*
X060641Y032530D01*
X060238Y032530D01*
X060168Y032460D01*
X060168Y031677D01*
X060654Y031677D01*
X060963Y031367D01*
X061395Y031367D01*
X063442Y030867D02*
X063963Y030867D01*
X064113Y030717D01*
X064113Y030467D01*
X064273Y030307D01*
X064668Y030307D01*
X065586Y030307D01*
X065613Y030280D01*
X059563Y027102D02*
X059563Y025917D01*
X059353Y025708D01*
X059113Y024567D02*
X059780Y024567D01*
X060356Y023992D01*
X057613Y026342D02*
X057613Y026717D01*
X057613Y026767D01*
X055863Y027717D02*
X052363Y027717D01*
X050963Y026318D01*
X050963Y025773D01*
X058023Y030307D02*
X058168Y030307D01*
X053918Y032557D02*
X053828Y032467D01*
X045738Y033655D02*
X045676Y033655D01*
X045551Y033530D01*
X065613Y019123D02*
X066058Y019568D01*
X065613Y019123D02*
X065613Y018217D01*
X066013Y017818D01*
X067028Y017818D01*
X067028Y018318D02*
X066513Y018318D01*
X066176Y018342D02*
X067003Y018342D01*
X067028Y018318D01*
X067028Y017318D02*
X066113Y017318D01*
X067113Y016717D02*
X067748Y016717D01*
X069088Y018818D02*
X068969Y018936D01*
X068969Y019492D01*
X060668Y017867D02*
X060467Y018068D01*
X060467Y019318D01*
X049613Y017967D02*
X048718Y017967D01*
X048713Y017963D01*
X048709Y017967D01*
X048363Y017967D01*
X048162Y017767D01*
X047828Y017767D01*
D52*
X054988Y022655D02*
X056176Y022655D01*
X056176Y022905D02*
X055113Y022905D01*
X056794Y022719D02*
X057083Y022719D01*
X057356Y022992D01*
X057361Y022987D01*
X057611Y023219D01*
X057356Y023492D02*
X057144Y023704D01*
X056794Y023704D01*
X058763Y024630D02*
X058801Y024592D01*
X058763Y024630D02*
X058763Y025082D01*
X058960Y025082D02*
X058960Y024721D01*
X059113Y024567D01*
X060363Y022967D02*
X060414Y022916D01*
X061322Y022916D01*
X061322Y022719D02*
X062121Y022719D01*
X062263Y022861D01*
X059363Y021735D02*
X059356Y021742D01*
X059363Y021735D02*
X059363Y021467D01*
X059156Y021261D01*
X059156Y020554D01*
X059550Y020554D02*
X059550Y021154D01*
X059738Y021342D01*
X059738Y021467D01*
X059863Y021155D02*
X060113Y021155D01*
X059863Y021155D02*
X059747Y021039D01*
X059747Y020554D01*
X060534Y020554D02*
X060534Y020046D01*
X060613Y019967D01*
X065073Y016787D02*
X065142Y016717D01*
X065224Y016717D01*
D53*
X062498Y019318D02*
X061649Y019318D01*
X055426Y023340D02*
X055426Y024126D01*
X055422Y024130D01*
X050731Y028242D02*
X050613Y028360D01*
X050613Y028717D01*
X048963Y030367D01*
X048395Y030367D01*
X046113Y032217D02*
X046051Y032280D01*
X045988Y032217D01*
X044238Y032217D01*
X043988Y032467D01*
X043988Y033092D01*
X043763Y033318D01*
X043368Y033318D01*
X042248Y033318D02*
X042248Y032318D01*
X042248Y033318D02*
X042248Y033832D01*
X041918Y034162D01*
X044863Y033650D02*
X044868Y033655D01*
X045738Y033655D01*
X045918Y033835D01*
X045918Y034158D01*
X046046Y032784D02*
X046113Y032717D01*
X046046Y032784D02*
X045237Y032784D01*
X043863Y035467D02*
X043713Y035617D01*
X043871Y036008D02*
X045918Y036008D01*
X045918Y036677D02*
X045918Y037383D01*
X045918Y038052D02*
X045918Y038721D01*
X046117Y038721D01*
X047113Y039717D01*
X065293Y037680D02*
X065606Y037367D01*
X066434Y037367D01*
X066434Y036867D02*
X065513Y036867D01*
X045113Y027467D02*
X044863Y027467D01*
X044863Y027217D01*
X044269Y027217D01*
X044213Y027273D01*
X044115Y026692D02*
X044115Y026175D01*
X044123Y026167D01*
X044794Y027036D02*
X045113Y026717D01*
X045113Y027467D01*
X044794Y027174D02*
X044794Y027036D01*
X046384Y018023D02*
X046228Y017867D01*
X046384Y018023D02*
X047099Y018023D01*
D54*
X043363Y018967D02*
X042613Y018967D01*
X042515Y019066D01*
X041515Y019066D01*
X041363Y019217D01*
X038863Y019217D01*
X038213Y019867D01*
X037471Y019867D01*
X036658Y019054D01*
X036440Y019054D01*
X037371Y019967D02*
X035363Y019967D01*
X034613Y020717D01*
X034613Y022467D01*
X035300Y023154D01*
X036521Y023154D01*
X036521Y023625D01*
X036863Y023967D01*
X037408Y023967D01*
X037463Y024023D01*
X037345Y023904D01*
X037800Y023904D02*
X042550Y023904D01*
X042613Y023967D01*
X042613Y024568D01*
X042662Y024617D01*
X040103Y025162D02*
X040103Y026117D01*
X039363Y025217D02*
X039182Y025399D01*
X039147Y025399D01*
X039363Y025217D02*
X040048Y025217D01*
X040103Y025162D01*
X037463Y027023D02*
X037408Y026967D01*
X036863Y026967D01*
X036521Y026625D01*
X036521Y026154D01*
X033613Y026747D02*
X030521Y023654D01*
X030521Y022135D01*
X030440Y022054D01*
X029418Y020576D02*
X030440Y019554D01*
X029418Y020576D02*
X029418Y026117D01*
X030521Y026154D02*
X030521Y026810D01*
X029168Y028162D01*
X029168Y028717D01*
X033613Y028481D02*
X033668Y028536D01*
X033613Y028481D02*
X033613Y026747D01*
X037471Y022867D02*
X037471Y022326D01*
X037200Y022054D01*
X036440Y022054D01*
X037471Y022867D02*
X037517Y022912D01*
X040203Y021273D02*
X040203Y020412D01*
X040077Y020538D01*
X039196Y020538D01*
X037471Y019867D02*
X037371Y019967D01*
X041515Y019066D02*
X041515Y018367D01*
X055113Y021467D02*
X055551Y021905D01*
X055426Y022220D01*
X055863Y019717D02*
X056117Y019463D01*
X056763Y019463D01*
X051613Y024717D02*
X049969Y024717D01*
X051613Y024717D02*
X051963Y025068D01*
X051963Y025773D01*
X057608Y026222D02*
X058113Y025717D01*
X058710Y025717D01*
X058713Y025721D01*
X057608Y026222D02*
X057608Y026713D01*
X057613Y026767D01*
X057608Y026713D02*
X057608Y028117D01*
X057219Y032617D02*
X057219Y033074D01*
X057363Y033217D01*
X056904Y033677D01*
X053918Y033677D01*
X051668Y033427D02*
X051073Y033427D01*
X050863Y033217D01*
X050404Y033677D01*
X047418Y033677D01*
X050719Y033074D02*
X050719Y032617D01*
X050719Y033074D02*
X050863Y033217D01*
X051668Y033427D02*
X051668Y035467D01*
X051519Y035617D01*
X050918Y035617D01*
X051613Y035668D02*
X051668Y035613D01*
X051668Y035467D01*
X052418Y035668D02*
X052418Y039662D01*
X052363Y039717D01*
X058863Y039717D02*
X058918Y039662D01*
X058918Y035668D01*
X058168Y035613D02*
X058113Y035668D01*
X058168Y035613D02*
X058168Y033427D01*
X057573Y033427D01*
X057363Y033217D01*
X060668Y033677D02*
X063654Y033677D01*
X063988Y033342D01*
X063719Y033074D01*
X063719Y032617D01*
X063988Y033342D02*
X064073Y033427D01*
X064668Y033427D01*
X064668Y035467D01*
X064773Y035572D01*
X065363Y035572D01*
X065412Y035523D02*
X065412Y034523D01*
X064709Y033467D02*
X064668Y033427D01*
X064668Y035467D02*
X064668Y035717D01*
X064568Y035617D01*
X063918Y035617D01*
X064668Y035717D02*
X064668Y036162D01*
X064113Y036717D01*
X063613Y036717D01*
X062863Y037467D01*
X062863Y039717D01*
X065363Y039717D02*
X065418Y039662D01*
X043871Y036008D02*
X043481Y035617D01*
X043713Y035617D01*
X043481Y035617D02*
X043418Y035617D01*
X041918Y034617D02*
X041918Y034162D01*
X043363Y028217D02*
X043613Y027967D01*
D55*
X041043Y029627D02*
X041043Y030493D01*
X041073Y030523D01*
X037463Y027023D02*
X037463Y026117D01*
X037808Y025773D01*
X038280Y025773D01*
X042613Y025068D02*
X042613Y024467D01*
X042662Y024617D02*
X042627Y024942D01*
X042613Y025068D01*
X037800Y023904D02*
X037345Y023904D01*
X037471Y022867D02*
X037963Y022867D01*
X038330Y022501D01*
X038330Y020912D01*
X043363Y018967D02*
X043368Y018972D01*
X044263Y018972D01*
X043363Y018967D02*
X043363Y018652D01*
X043357Y018647D01*
X042530Y018273D02*
X042530Y017885D01*
X042363Y017717D01*
X039863Y017717D01*
X039822Y017759D01*
X039822Y018367D01*
X039822Y018412D01*
X039064Y018412D01*
X037961Y018467D02*
X037613Y018467D01*
X036863Y017717D01*
X031863Y017717D01*
X029863Y017717D02*
X029363Y017717D01*
X029363Y017217D02*
X029613Y017217D01*
X041440Y018367D02*
X041515Y018367D01*
X043357Y017899D02*
X044217Y017899D01*
X044263Y017852D01*
X045094Y017852D01*
X045108Y017867D01*
X049863Y022574D02*
X049969Y022467D01*
X049863Y022574D02*
X049863Y023967D01*
X055422Y024130D02*
X055551Y024126D01*
X068969Y019492D02*
X069074Y019597D01*
X070263Y019597D01*
X071493Y019597D01*
X073238Y021342D01*
X073238Y022717D01*
X073238Y027717D01*
X073238Y032717D01*
X073238Y035842D01*
X072363Y036717D01*
X072363Y036842D01*
X066863Y038467D02*
X066863Y038863D01*
X066867Y038867D01*
X066863Y038467D02*
X066434Y038038D01*
X066434Y037867D01*
X065513Y036867D02*
X065363Y036717D01*
X065363Y035572D01*
X065412Y035523D01*
X058113Y035668D02*
X057469Y035668D01*
X057418Y035617D01*
D56*
X043073Y028508D02*
X041043Y028508D01*
X041034Y028517D01*
X040058Y028517D01*
X040038Y028536D01*
X037668Y028536D01*
D57*
X029168Y028717D02*
X029168Y029867D01*
X028184Y030851D01*
X027668Y030851D01*
X030268Y032367D02*
X030268Y033217D01*
X030918Y033867D01*
X028621Y026914D02*
X027668Y026914D01*
X028621Y026914D02*
X029418Y026117D01*
X051613Y035668D02*
X052418Y035668D01*
X058113Y035668D02*
X058918Y035668D01*
D58*
X069213Y032463D02*
X070713Y032463D01*
X072014Y032463D01*
X072168Y032617D01*
X073138Y032617D01*
X073238Y032717D01*
X073238Y027717D02*
X073138Y027617D01*
X072168Y027617D01*
X072014Y027463D01*
X070713Y027463D01*
X069213Y027463D01*
X069213Y022463D02*
X070713Y022463D01*
X072014Y022463D01*
X072168Y022617D01*
X073138Y022617D01*
X073238Y022717D01*
X058363Y019217D02*
X058363Y016217D01*
X057613Y015467D01*
X031363Y015467D01*
X029613Y017217D01*
X029363Y017217D02*
X028613Y017217D01*
X028613Y017717D02*
X029363Y017717D01*
X029863Y017717D02*
X031613Y015967D01*
X057363Y015967D01*
X057863Y016467D01*
X057863Y019217D01*
X045478Y022867D02*
X045478Y023917D01*
X045463Y023932D01*
D59*
X049113Y023967D03*
X049113Y023467D03*
X049113Y024467D03*
X050613Y022967D03*
X051113Y022967D03*
X056176Y023280D03*
X058238Y024467D03*
X057488Y025592D03*
X057613Y026342D03*
X057613Y026717D03*
X057613Y027092D03*
X057613Y027467D03*
X055863Y027717D03*
X058113Y028967D03*
X061363Y028217D03*
X065613Y030280D03*
X066988Y030280D03*
X061863Y032467D03*
X055113Y032467D03*
X048613Y032467D03*
X041113Y024467D03*
X041113Y023217D03*
X054926Y020617D03*
X054926Y020155D03*
X054926Y019655D03*
X055613Y018717D03*
X056113Y018467D03*
X056613Y020467D03*
X057113Y020280D03*
X057901Y021467D03*
X057863Y022217D03*
X057363Y022217D03*
X056176Y021842D03*
X056176Y021380D03*
X060113Y021155D03*
X060113Y021780D03*
X060926Y020405D03*
X061426Y020155D03*
X064551Y021467D03*
X066176Y018342D03*
X067113Y016717D03*
X070113Y034717D03*
D60*
X047418Y033677D02*
X046823Y033677D01*
X046113Y032967D01*
X046113Y032717D01*
X046113Y032217D01*
D61*
X037668Y036117D02*
X037668Y037198D01*
X037668Y036117D02*
X036668Y035117D01*
X032168Y035117D01*
X030918Y033867D01*
X029089Y034788D02*
X031543Y037242D01*
X031587Y037198D01*
X033668Y037198D01*
X031543Y037242D02*
X030918Y037867D01*
X029971Y038814D01*
X029562Y038814D01*
X029089Y034788D02*
X027668Y034788D01*
D62*
X033487Y039058D03*
X072070Y039058D03*
X027582Y021341D03*
X072070Y015436D03*
D63*
X056426Y022717D02*
X056363Y022655D01*
X056176Y022655D01*
X056176Y022905D02*
X056238Y022905D01*
X056446Y023113D01*
X056794Y023113D01*
X056794Y022916D02*
X056499Y022916D01*
X056426Y022842D01*
X056426Y022717D01*
X056511Y023507D02*
X056238Y023780D01*
X056113Y023780D01*
X056200Y024130D02*
X056263Y024130D01*
X056493Y023900D01*
X056794Y023900D01*
X056794Y024097D02*
X056555Y024097D01*
X056551Y024092D01*
X056426Y024217D01*
X056511Y023507D02*
X056794Y023507D01*
X055113Y022905D02*
X054988Y022905D01*
X054926Y022967D01*
M02*
