G75*
G70*
%OFA0B0*%
%FSLAX24Y24*%
%IPPOS*%
%LPD*%
%AMOC8*
5,1,8,0,0,1.08239X$1,22.5*
%
%ADD10C,0.0740*%
%ADD11C,0.0600*%
%ADD12C,0.0680*%
%ADD13C,0.1580*%
%ADD14C,0.1261*%
%ADD15C,0.1655*%
%ADD16C,0.0867*%
%ADD17C,0.0630*%
%ADD18C,0.1360*%
%ADD19C,0.0395*%
%ADD20C,0.0277*%
%ADD21C,0.0820*%
%ADD22C,0.0476*%
%ADD23C,0.0440*%
%ADD24C,0.1661*%
D10*
X030918Y033867D03*
X030918Y037867D03*
X041418Y034617D03*
X042418Y034617D03*
X043418Y034617D03*
X042918Y035617D03*
X041918Y035617D03*
X043918Y035617D03*
X047918Y034617D03*
X048918Y034617D03*
X049918Y034617D03*
X049418Y035617D03*
X048418Y035617D03*
X050418Y035617D03*
X054418Y034617D03*
X055418Y034617D03*
X056418Y034617D03*
X055918Y035617D03*
X054918Y035617D03*
X056918Y035617D03*
X060918Y034617D03*
X061918Y034617D03*
X062918Y034617D03*
X062418Y035617D03*
X061418Y035617D03*
X063418Y035617D03*
D11*
X037463Y027283D02*
X037463Y026763D01*
X037463Y024283D02*
X037463Y023763D01*
X037471Y023127D02*
X037471Y022607D01*
X037471Y020127D02*
X037471Y019607D01*
D12*
X050963Y025473D02*
X050963Y026073D01*
X051963Y026073D02*
X051963Y025473D01*
X052963Y025473D02*
X052963Y026073D01*
X053963Y026073D02*
X053963Y025473D01*
X054963Y025473D02*
X054963Y026073D01*
X055963Y026073D02*
X055963Y025473D01*
X071868Y025617D02*
X072468Y025617D01*
X072468Y024617D02*
X071868Y024617D01*
X071868Y023617D02*
X072468Y023617D01*
X072468Y022617D02*
X071868Y022617D01*
X071868Y027617D02*
X072468Y027617D01*
X072468Y028617D02*
X071868Y028617D01*
X071868Y029617D02*
X072468Y029617D01*
X072468Y030617D02*
X071868Y030617D01*
X071868Y032617D02*
X072468Y032617D01*
X072468Y033617D02*
X071868Y033617D01*
X071868Y034617D02*
X072468Y034617D01*
X072468Y035617D02*
X071868Y035617D01*
D13*
X027668Y034788D03*
X027668Y032820D03*
X027668Y030851D03*
X027668Y028883D03*
X027668Y026914D03*
X027668Y024946D03*
D14*
X033078Y028536D02*
X034259Y028536D01*
X037078Y028536D02*
X038259Y028536D01*
X038259Y037198D02*
X037078Y037198D01*
X034259Y037198D02*
X033078Y037198D01*
D15*
X029562Y038814D03*
X027200Y038814D03*
X028400Y036963D03*
D16*
X030521Y026904D03*
X030521Y024404D03*
X030440Y022804D03*
X030440Y020304D03*
X036440Y019804D03*
X036440Y022804D03*
X036521Y023904D03*
X036521Y026904D03*
D17*
X031068Y032092D02*
X031068Y032642D01*
X030268Y032642D02*
X030268Y032092D01*
D18*
X040668Y038117D03*
X044668Y038117D03*
X047168Y038117D03*
X051168Y038117D03*
X053668Y038117D03*
X057668Y038117D03*
X060168Y038117D03*
X064168Y038117D03*
D19*
X068761Y037617D03*
X069076Y037617D03*
D20*
X069115Y036021D03*
D21*
X066058Y019568D03*
X065058Y019568D03*
X061668Y017867D03*
X060668Y017867D03*
D22*
X034106Y014867D03*
X037856Y014867D03*
X037856Y016492D03*
X034106Y016492D03*
X032731Y017742D03*
X031231Y017242D03*
X029981Y015742D03*
X027231Y015492D03*
X027981Y018992D03*
X041356Y016492D03*
X044606Y016492D03*
X044606Y014867D03*
X041356Y014867D03*
X048356Y014867D03*
X051606Y014867D03*
X055106Y014867D03*
X055106Y016492D03*
X051606Y016492D03*
X048356Y016492D03*
X041606Y019242D03*
X043481Y021742D03*
X049231Y020992D03*
X053106Y022242D03*
X054856Y022242D03*
X057356Y022992D03*
X057356Y023492D03*
X059606Y022992D03*
X060356Y023992D03*
X059356Y021742D03*
X066981Y019680D03*
X071231Y017930D03*
X058731Y027430D03*
X057231Y029742D03*
X052731Y029742D03*
X050731Y028242D03*
X048481Y028242D03*
X045731Y026992D03*
X045731Y026492D03*
X045231Y026492D03*
X045231Y026992D03*
X045231Y025992D03*
X045731Y025992D03*
X042356Y027492D03*
X044231Y028742D03*
X042481Y029242D03*
X039856Y027492D03*
X048981Y032992D03*
X052481Y033742D03*
X055481Y032992D03*
X058981Y033742D03*
X061981Y032992D03*
X067481Y034492D03*
X071731Y036430D03*
X066043Y038180D03*
X062231Y037242D03*
X055668Y037305D03*
X049356Y037242D03*
X037731Y039492D03*
X068231Y029992D03*
D23*
X066613Y030467D03*
X065363Y030467D03*
X061613Y032467D03*
X060113Y034717D03*
X054863Y032717D03*
X053613Y034717D03*
X048363Y032717D03*
X047113Y034717D03*
X058113Y028967D03*
X056113Y027717D03*
X057613Y027467D03*
X057613Y027092D03*
X057613Y026717D03*
X057613Y026342D03*
X057238Y025530D03*
X058238Y024467D03*
X056238Y023405D03*
X057363Y022217D03*
X057863Y022217D03*
X057901Y021467D03*
X057113Y020280D03*
X056613Y020467D03*
X056176Y021380D03*
X056176Y021842D03*
X054926Y020617D03*
X054926Y020155D03*
X054926Y019655D03*
X055613Y018717D03*
X056113Y018467D03*
X060926Y020405D03*
X061426Y020155D03*
X060113Y021155D03*
X060113Y021780D03*
X064363Y021717D03*
X066176Y018342D03*
X067113Y016717D03*
X051113Y022967D03*
X050613Y022967D03*
X049113Y023467D03*
X049113Y023967D03*
X049113Y024467D03*
X041113Y024467D03*
X041113Y023217D03*
X061113Y028217D03*
X070113Y034717D03*
D24*
X072070Y039058D03*
X033487Y039058D03*
X027582Y021341D03*
X072070Y015436D03*
M02*
