G75*
G70*
%OFA0B0*%
%FSLAX24Y24*%
%IPPOS*%
%LPD*%
%AMOC8*
5,1,8,0,0,1.08239X$1,22.5*
%
%ADD10C,0.0660*%
%ADD11C,0.0520*%
%ADD12C,0.0600*%
%ADD13C,0.1500*%
%ADD14C,0.1181*%
%ADD15C,0.1575*%
%ADD16C,0.0787*%
%ADD17C,0.0550*%
%ADD18C,0.0740*%
%ADD19C,0.0320*%
%ADD20C,0.0396*%
%ADD21C,0.0360*%
%ADD22C,0.0500*%
%ADD23C,0.0160*%
%ADD24C,0.0080*%
%ADD25C,0.0100*%
%ADD26C,0.1581*%
D10*
X030918Y033867D03*
X030918Y037867D03*
X041418Y034617D03*
X042418Y034617D03*
X043418Y034617D03*
X042918Y035617D03*
X041918Y035617D03*
X043918Y035617D03*
X047918Y034617D03*
X048918Y034617D03*
X049918Y034617D03*
X049418Y035617D03*
X048418Y035617D03*
X050418Y035617D03*
X054418Y034617D03*
X055418Y034617D03*
X056418Y034617D03*
X055918Y035617D03*
X054918Y035617D03*
X056918Y035617D03*
X060918Y034617D03*
X061918Y034617D03*
X062918Y034617D03*
X062418Y035617D03*
X061418Y035617D03*
X063418Y035617D03*
D11*
X037463Y027283D02*
X037463Y026763D01*
X037463Y024283D02*
X037463Y023763D01*
X037471Y023127D02*
X037471Y022607D01*
X037471Y020127D02*
X037471Y019607D01*
D12*
X050963Y025473D02*
X050963Y026073D01*
X051963Y026073D02*
X051963Y025473D01*
X052963Y025473D02*
X052963Y026073D01*
X053963Y026073D02*
X053963Y025473D01*
X054963Y025473D02*
X054963Y026073D01*
X055963Y026073D02*
X055963Y025473D01*
X071868Y025617D02*
X072468Y025617D01*
X072468Y024617D02*
X071868Y024617D01*
X071868Y023617D02*
X072468Y023617D01*
X072468Y022617D02*
X071868Y022617D01*
X071868Y027617D02*
X072468Y027617D01*
X072468Y028617D02*
X071868Y028617D01*
X071868Y029617D02*
X072468Y029617D01*
X072468Y030617D02*
X071868Y030617D01*
X071868Y032617D02*
X072468Y032617D01*
X072468Y033617D02*
X071868Y033617D01*
X071868Y034617D02*
X072468Y034617D01*
X072468Y035617D02*
X071868Y035617D01*
D13*
X027668Y034788D03*
X027668Y032820D03*
X027668Y030851D03*
X027668Y028883D03*
X027668Y026914D03*
X027668Y024946D03*
D14*
X033078Y028536D02*
X034259Y028536D01*
X037078Y028536D02*
X038259Y028536D01*
X038259Y037198D02*
X037078Y037198D01*
X034259Y037198D02*
X033078Y037198D01*
D15*
X029562Y038814D03*
X027200Y038814D03*
X028400Y036963D03*
D16*
X030521Y026904D03*
X030521Y024404D03*
X030440Y022804D03*
X030440Y020304D03*
X036440Y019804D03*
X036440Y022804D03*
X036521Y023904D03*
X036521Y026904D03*
D17*
X031068Y032092D02*
X031068Y032642D01*
X030268Y032642D02*
X030268Y032092D01*
D18*
X060668Y017867D03*
X061668Y017867D03*
X065058Y019568D03*
X066058Y019568D03*
D19*
X026562Y014127D02*
X026200Y038501D01*
X026230Y038412D01*
X026282Y038306D01*
X026344Y038207D01*
X026417Y038115D01*
X026501Y038032D01*
X026593Y037958D01*
X026692Y037896D01*
X026798Y037845D01*
X026909Y037806D01*
X027024Y037780D01*
X027094Y037772D01*
X027094Y038708D01*
X027305Y038708D01*
X027305Y037772D01*
X027375Y037780D01*
X027490Y037806D01*
X027601Y037845D01*
X027707Y037896D01*
X027807Y037958D01*
X027899Y038032D01*
X027982Y038115D01*
X028055Y038207D01*
X028118Y038306D01*
X028169Y038412D01*
X028208Y038523D01*
X028234Y038638D01*
X028242Y038708D01*
X027305Y038708D01*
X027305Y038920D01*
X027094Y038920D01*
X027094Y039856D01*
X027024Y039848D01*
X026909Y039822D01*
X026798Y039783D01*
X026692Y039732D01*
X026593Y039669D01*
X026501Y039596D01*
X026417Y039513D01*
X026344Y039421D01*
X026282Y039321D01*
X026230Y039215D01*
X026192Y039104D01*
X026191Y039100D01*
X026169Y040566D01*
X073169Y040566D01*
X073562Y014127D01*
X026562Y014127D01*
X026557Y014423D02*
X071791Y014423D01*
X071664Y014457D02*
X071931Y014385D01*
X072208Y014385D01*
X072475Y014457D01*
X072715Y014595D01*
X072910Y014791D01*
X073049Y015030D01*
X073120Y015298D01*
X073120Y015574D01*
X073049Y015841D01*
X072910Y016081D01*
X072715Y016277D01*
X072475Y016415D01*
X072208Y016486D01*
X071931Y016486D01*
X071664Y016415D01*
X071425Y016277D01*
X071229Y016081D01*
X071091Y015841D01*
X071019Y015574D01*
X071019Y015298D01*
X071091Y015030D01*
X071229Y014791D01*
X071425Y014595D01*
X071664Y014457D01*
X071279Y014741D02*
X026553Y014741D01*
X026548Y015060D02*
X071083Y015060D01*
X071019Y015378D02*
X026543Y015378D01*
X026539Y015697D02*
X071052Y015697D01*
X071191Y016015D02*
X026534Y016015D01*
X026529Y016334D02*
X066889Y016334D01*
X066864Y016344D02*
X067026Y016277D01*
X067201Y016277D01*
X067362Y016344D01*
X067486Y016468D01*
X067553Y016630D01*
X067553Y016805D01*
X067486Y016967D01*
X067453Y017000D01*
X067453Y017785D01*
X067401Y017910D01*
X066801Y018510D01*
X066705Y018606D01*
X066580Y018658D01*
X066482Y018658D01*
X066425Y018715D01*
X066263Y018782D01*
X066088Y018782D01*
X065926Y018715D01*
X065803Y018592D01*
X065736Y018430D01*
X065736Y018255D01*
X065803Y018093D01*
X065926Y017969D01*
X066088Y017902D01*
X066263Y017902D01*
X066393Y017956D01*
X066773Y017577D01*
X066773Y017000D01*
X066740Y016967D01*
X066673Y016805D01*
X066673Y016630D01*
X066740Y016468D01*
X066864Y016344D01*
X066673Y016652D02*
X026524Y016652D01*
X026520Y016971D02*
X066744Y016971D01*
X066773Y017289D02*
X061922Y017289D01*
X061910Y017283D02*
X061998Y017328D01*
X062079Y017386D01*
X062149Y017457D01*
X062207Y017537D01*
X062252Y017625D01*
X062283Y017719D01*
X062298Y017817D01*
X062298Y017867D01*
X062298Y017917D01*
X062283Y018015D01*
X062252Y018109D01*
X062207Y018197D01*
X062149Y018277D01*
X062079Y018348D01*
X061998Y018406D01*
X061910Y018451D01*
X061816Y018481D01*
X061718Y018497D01*
X061668Y018497D01*
X061668Y017867D01*
X061668Y017867D01*
X061668Y017867D01*
X061668Y017237D01*
X061619Y017237D01*
X061521Y017253D01*
X061426Y017283D01*
X061338Y017328D01*
X061258Y017386D01*
X061188Y017457D01*
X061171Y017479D01*
X061025Y017333D01*
X060794Y017237D01*
X060543Y017237D01*
X060311Y017333D01*
X060134Y017510D01*
X060038Y017742D01*
X060038Y017992D01*
X060134Y018224D01*
X060311Y018401D01*
X060543Y018497D01*
X060794Y018497D01*
X061025Y018401D01*
X061171Y018255D01*
X061188Y018277D01*
X061258Y018348D01*
X061338Y018406D01*
X061426Y018451D01*
X061521Y018481D01*
X061619Y018497D01*
X061668Y018497D01*
X061668Y017867D01*
X061668Y017237D01*
X061718Y017237D01*
X061816Y017253D01*
X061910Y017283D01*
X061668Y017289D02*
X061668Y017289D01*
X061414Y017289D02*
X060920Y017289D01*
X060416Y017289D02*
X026515Y017289D01*
X026510Y017608D02*
X060094Y017608D01*
X060038Y017926D02*
X026505Y017926D01*
X026501Y018245D02*
X055729Y018245D01*
X055740Y018218D02*
X055864Y018094D01*
X056026Y018027D01*
X056201Y018027D01*
X056362Y018094D01*
X056486Y018218D01*
X056553Y018380D01*
X056553Y018555D01*
X056486Y018717D01*
X056423Y018780D01*
X056423Y018814D01*
X056814Y019205D01*
X056901Y019292D01*
X056948Y019406D01*
X056948Y019864D01*
X056954Y019870D01*
X057026Y019840D01*
X057201Y019840D01*
X057362Y019907D01*
X057486Y020031D01*
X057553Y020192D01*
X057553Y020367D01*
X057486Y020529D01*
X057362Y020653D01*
X057201Y020720D01*
X057026Y020720D01*
X056991Y020705D01*
X056986Y020717D01*
X056862Y020840D01*
X056701Y020907D01*
X056684Y020907D01*
X056904Y021127D01*
X057618Y021127D01*
X057651Y021094D01*
X057813Y021027D01*
X057988Y021027D01*
X058150Y021094D01*
X058224Y021168D01*
X059125Y020267D01*
X059239Y020220D01*
X060422Y020220D01*
X060500Y020142D01*
X060613Y020095D01*
X060676Y020032D01*
X060838Y019965D01*
X061013Y019965D01*
X061026Y019970D01*
X061053Y019906D01*
X061176Y019782D01*
X061338Y019715D01*
X061513Y019715D01*
X061675Y019782D01*
X061799Y019906D01*
X061866Y020067D01*
X061866Y020242D01*
X061799Y020404D01*
X061736Y020467D01*
X061736Y020592D01*
X061688Y020706D01*
X061501Y020893D01*
X061414Y020980D01*
X061300Y021027D01*
X060537Y021027D01*
X060553Y021067D01*
X060553Y021242D01*
X060486Y021404D01*
X060423Y021467D01*
X060486Y021531D01*
X060553Y021692D01*
X060553Y021867D01*
X060486Y022029D01*
X060362Y022153D01*
X060201Y022220D01*
X060026Y022220D01*
X059864Y022153D01*
X059740Y022029D01*
X059673Y021867D01*
X059673Y021692D01*
X059740Y021531D01*
X059803Y021467D01*
X059740Y021404D01*
X059673Y021242D01*
X059673Y021067D01*
X059690Y021027D01*
X059554Y021027D01*
X058303Y022278D01*
X058303Y022305D01*
X058236Y022467D01*
X058112Y022590D01*
X057951Y022657D01*
X057776Y022657D01*
X057614Y022590D01*
X057613Y022590D01*
X057612Y022590D01*
X057451Y022657D01*
X057276Y022657D01*
X057114Y022590D01*
X056990Y022467D01*
X056923Y022305D01*
X056923Y022130D01*
X056990Y021968D01*
X057114Y021844D01*
X057203Y021807D01*
X056670Y021807D01*
X056616Y021785D01*
X056616Y021930D01*
X056549Y022092D01*
X056425Y022215D01*
X056263Y022282D01*
X056088Y022282D01*
X055926Y022215D01*
X055803Y022092D01*
X055736Y021930D01*
X055736Y021908D01*
X054885Y021057D01*
X054838Y021057D01*
X054676Y020990D01*
X054553Y020867D01*
X054486Y020705D01*
X054486Y020530D01*
X054545Y020386D01*
X054486Y020242D01*
X054486Y020067D01*
X054553Y019906D01*
X054553Y019905D01*
X054553Y019904D01*
X054486Y019742D01*
X054486Y019567D01*
X054553Y019406D01*
X054676Y019282D01*
X054838Y019215D01*
X055013Y019215D01*
X055175Y019282D01*
X055299Y019406D01*
X055366Y019567D01*
X055366Y019614D01*
X056069Y020317D01*
X056053Y020279D01*
X056053Y019596D01*
X055615Y019157D01*
X055526Y019157D01*
X055364Y019090D01*
X055240Y018967D01*
X055173Y018805D01*
X055173Y018630D01*
X055240Y018468D01*
X055364Y018344D01*
X055526Y018277D01*
X055701Y018277D01*
X055713Y018283D01*
X055740Y018218D01*
X055201Y018563D02*
X026496Y018563D01*
X026491Y018882D02*
X055205Y018882D01*
X055658Y019200D02*
X037800Y019200D01*
X037766Y019166D02*
X037912Y019312D01*
X037991Y019504D01*
X037991Y020230D01*
X037912Y020422D01*
X037766Y020568D01*
X037575Y020647D01*
X037368Y020647D01*
X037177Y020568D01*
X037031Y020422D01*
X036951Y020230D01*
X036951Y020217D01*
X036810Y020358D01*
X036570Y020458D01*
X036310Y020458D01*
X036070Y020358D01*
X035886Y020174D01*
X035786Y019934D01*
X035786Y019674D01*
X035886Y019434D01*
X036070Y019250D01*
X036310Y019150D01*
X036570Y019150D01*
X036810Y019250D01*
X036984Y019424D01*
X037031Y019312D01*
X037177Y019166D01*
X037368Y019087D01*
X037575Y019087D01*
X037766Y019166D01*
X037991Y019519D02*
X054506Y019519D01*
X054525Y019837D02*
X037991Y019837D01*
X037991Y020156D02*
X054486Y020156D01*
X054509Y020474D02*
X037859Y020474D01*
X037083Y020474D02*
X031077Y020474D01*
X031094Y020434D02*
X030994Y020674D01*
X030810Y020858D01*
X030570Y020958D01*
X030310Y020958D01*
X030070Y020858D01*
X029886Y020674D01*
X029786Y020434D01*
X029786Y020174D01*
X029886Y019934D01*
X030070Y019750D01*
X030310Y019650D01*
X030570Y019650D01*
X030810Y019750D01*
X030994Y019934D01*
X031094Y020174D01*
X031094Y020434D01*
X031086Y020156D02*
X035878Y020156D01*
X035786Y019837D02*
X030898Y019837D01*
X029982Y019837D02*
X026477Y019837D01*
X026482Y019519D02*
X035850Y019519D01*
X036189Y019200D02*
X026486Y019200D01*
X026472Y020156D02*
X029794Y020156D01*
X029803Y020474D02*
X028181Y020474D01*
X028227Y020501D02*
X028422Y020696D01*
X028561Y020936D01*
X028632Y021203D01*
X028632Y021480D01*
X028561Y021747D01*
X028422Y021986D01*
X028227Y022182D01*
X027987Y022320D01*
X027720Y022392D01*
X027443Y022392D01*
X027176Y022320D01*
X026937Y022182D01*
X026741Y021986D01*
X026603Y021747D01*
X026531Y021480D01*
X026531Y021203D01*
X026603Y020936D01*
X026741Y020696D01*
X026937Y020501D01*
X027176Y020362D01*
X027443Y020291D01*
X027720Y020291D01*
X027987Y020362D01*
X028227Y020501D01*
X028478Y020793D02*
X030004Y020793D01*
X030875Y020793D02*
X054522Y020793D01*
X054939Y021111D02*
X028608Y021111D01*
X028632Y021430D02*
X055257Y021430D01*
X055576Y021748D02*
X028560Y021748D01*
X028342Y022067D02*
X055792Y022067D01*
X056559Y022067D02*
X056949Y022067D01*
X056956Y022385D02*
X050969Y022385D01*
X051001Y022417D02*
X051111Y022527D01*
X051201Y022527D01*
X051362Y022594D01*
X051486Y022718D01*
X051553Y022880D01*
X051553Y023055D01*
X051537Y023095D01*
X055926Y023095D01*
X055989Y023032D01*
X056151Y022965D01*
X056326Y022965D01*
X056487Y023032D01*
X056611Y023156D01*
X056678Y023317D01*
X056678Y023492D01*
X056611Y023654D01*
X056487Y023778D01*
X056326Y023845D01*
X056151Y023845D01*
X055989Y023778D01*
X055926Y023715D01*
X050491Y023715D01*
X049476Y024730D01*
X049470Y024733D01*
X049362Y024840D01*
X049201Y024907D01*
X049026Y024907D01*
X048864Y024840D01*
X048740Y024717D01*
X048673Y024555D01*
X048673Y024380D01*
X048740Y024218D01*
X048741Y024217D01*
X048740Y024217D01*
X048673Y024055D01*
X048673Y023880D01*
X048740Y023718D01*
X048741Y023717D01*
X048740Y023717D01*
X048673Y023555D01*
X048673Y023380D01*
X048740Y023218D01*
X048864Y023094D01*
X049026Y023027D01*
X049201Y023027D01*
X049272Y023057D01*
X050000Y022330D01*
X050114Y022282D01*
X050800Y022282D01*
X050914Y022330D01*
X051001Y022417D01*
X051472Y022704D02*
X071308Y022704D01*
X071308Y022728D02*
X071308Y022506D01*
X071393Y022300D01*
X071551Y022142D01*
X071757Y022057D01*
X072580Y022057D01*
X072785Y022142D01*
X072943Y022300D01*
X073028Y022506D01*
X073028Y022728D01*
X072943Y022934D01*
X072785Y023092D01*
X072724Y023117D01*
X072785Y023142D01*
X072943Y023300D01*
X073028Y023506D01*
X073028Y023728D01*
X072943Y023934D01*
X072785Y024092D01*
X072724Y024117D01*
X072785Y024142D01*
X072943Y024300D01*
X073028Y024506D01*
X073028Y024728D01*
X072943Y024934D01*
X072785Y025092D01*
X072722Y025118D01*
X072762Y025138D01*
X072833Y025190D01*
X072895Y025252D01*
X073397Y025252D01*
X073392Y025570D02*
X073028Y025570D01*
X073028Y025573D02*
X073014Y025486D01*
X072987Y025402D01*
X072947Y025324D01*
X072895Y025252D01*
X072943Y024933D02*
X073401Y024933D01*
X073406Y024615D02*
X073028Y024615D01*
X072940Y024296D02*
X073411Y024296D01*
X073415Y023978D02*
X072899Y023978D01*
X073028Y023659D02*
X073420Y023659D01*
X073425Y023341D02*
X072960Y023341D01*
X072855Y023022D02*
X073430Y023022D01*
X073434Y022704D02*
X073028Y022704D01*
X072978Y022385D02*
X073439Y022385D01*
X073444Y022067D02*
X072603Y022067D01*
X071733Y022067D02*
X064636Y022067D01*
X064612Y022090D02*
X064451Y022157D01*
X064276Y022157D01*
X064114Y022090D01*
X063990Y021967D01*
X063923Y021805D01*
X063923Y021630D01*
X063990Y021468D01*
X064114Y021344D01*
X064276Y021277D01*
X064322Y021277D01*
X064718Y020882D01*
X064718Y020109D01*
X064701Y020102D01*
X064524Y019925D01*
X064428Y019693D01*
X064428Y019442D01*
X064524Y019211D01*
X064701Y019034D01*
X064933Y018938D01*
X065183Y018938D01*
X065415Y019034D01*
X065558Y019177D01*
X065701Y019034D01*
X065933Y018938D01*
X066183Y018938D01*
X066415Y019034D01*
X066592Y019211D01*
X066688Y019442D01*
X066688Y019693D01*
X066592Y019925D01*
X066415Y020102D01*
X066183Y020198D01*
X065933Y020198D01*
X065701Y020102D01*
X065558Y019959D01*
X065415Y020102D01*
X065398Y020109D01*
X065398Y021090D01*
X065346Y021215D01*
X064803Y021758D01*
X064803Y021805D01*
X064736Y021967D01*
X064612Y022090D01*
X064813Y021748D02*
X073449Y021748D01*
X073453Y021430D02*
X065131Y021430D01*
X065389Y021111D02*
X073458Y021111D01*
X073463Y020793D02*
X065398Y020793D01*
X065398Y020474D02*
X073468Y020474D01*
X073472Y020156D02*
X066284Y020156D01*
X065832Y020156D02*
X065398Y020156D01*
X064718Y020156D02*
X061866Y020156D01*
X061736Y020474D02*
X064718Y020474D01*
X064718Y020793D02*
X061601Y020793D01*
X060553Y021111D02*
X064488Y021111D01*
X064028Y021430D02*
X060460Y021430D01*
X060553Y021748D02*
X063923Y021748D01*
X064090Y022067D02*
X060448Y022067D01*
X059778Y022067D02*
X058514Y022067D01*
X058270Y022385D02*
X071358Y022385D01*
X071308Y022728D02*
X071393Y022934D01*
X071551Y023092D01*
X071612Y023117D01*
X071551Y023142D01*
X071393Y023300D01*
X071308Y023506D01*
X071308Y023728D01*
X071393Y023934D01*
X071551Y024092D01*
X071612Y024117D01*
X071551Y024142D01*
X071393Y024300D01*
X071308Y024506D01*
X071308Y024728D01*
X071393Y024934D01*
X071551Y025092D01*
X071614Y025118D01*
X071575Y025138D01*
X071503Y025190D01*
X071441Y025252D01*
X071389Y025324D01*
X071349Y025402D01*
X071322Y025486D01*
X071308Y025573D01*
X071308Y025617D01*
X072168Y025617D01*
X072168Y025617D01*
X071308Y025617D01*
X071308Y025661D01*
X071322Y025748D01*
X071349Y025832D01*
X071389Y025911D01*
X071441Y025982D01*
X071503Y026044D01*
X071575Y026096D01*
X071653Y026136D01*
X071737Y026163D01*
X071824Y026177D01*
X072168Y026177D01*
X072168Y025617D01*
X072168Y025617D01*
X072168Y026177D01*
X072512Y026177D01*
X072599Y026163D01*
X072683Y026136D01*
X072762Y026096D01*
X072833Y026044D01*
X072895Y025982D01*
X072947Y025911D01*
X072987Y025832D01*
X073014Y025748D01*
X073028Y025661D01*
X073028Y025617D01*
X072168Y025617D01*
X072168Y025617D01*
X073028Y025617D01*
X073028Y025573D01*
X072958Y025889D02*
X073387Y025889D01*
X073382Y026207D02*
X058109Y026207D01*
X058123Y026241D02*
X058123Y027569D01*
X058045Y027756D01*
X057902Y027900D01*
X057715Y027977D01*
X057604Y027977D01*
X058113Y028487D01*
X058670Y027929D01*
X058795Y027877D01*
X060831Y027877D01*
X060864Y027844D01*
X061026Y027777D01*
X061201Y027777D01*
X061362Y027844D01*
X061486Y027968D01*
X061553Y028130D01*
X061553Y028305D01*
X061486Y028467D01*
X061362Y028590D01*
X061201Y028657D01*
X061026Y028657D01*
X060864Y028590D01*
X060831Y028557D01*
X059004Y028557D01*
X058553Y029008D01*
X058553Y029055D01*
X058486Y029217D01*
X058362Y029340D01*
X058201Y029407D01*
X058026Y029407D01*
X057864Y029340D01*
X057740Y029217D01*
X057673Y029055D01*
X057673Y029008D01*
X056722Y028057D01*
X056395Y028057D01*
X056362Y028090D01*
X056201Y028157D01*
X056026Y028157D01*
X055864Y028090D01*
X055740Y027967D01*
X055673Y027805D01*
X055673Y027630D01*
X055740Y027468D01*
X055864Y027344D01*
X056026Y027277D01*
X056201Y027277D01*
X056362Y027344D01*
X056395Y027377D01*
X056931Y027377D01*
X057056Y027429D01*
X057103Y027477D01*
X057103Y027277D01*
X052449Y027277D01*
X052434Y027282D01*
X052348Y027277D01*
X052262Y027277D01*
X052247Y027271D01*
X052232Y027271D01*
X052154Y027233D01*
X052074Y027200D01*
X052063Y027189D01*
X052049Y027182D01*
X051992Y027117D01*
X051931Y027056D01*
X051925Y027042D01*
X051592Y026668D01*
X051531Y026607D01*
X051525Y026592D01*
X051515Y026581D01*
X051487Y026499D01*
X051453Y026419D01*
X051453Y026404D01*
X051448Y026389D01*
X051450Y026361D01*
X051438Y026390D01*
X051281Y026547D01*
X051075Y026633D01*
X050852Y026633D01*
X050646Y026547D01*
X050489Y026390D01*
X050403Y026184D01*
X050403Y025361D01*
X050489Y025155D01*
X050646Y024998D01*
X050852Y024913D01*
X051075Y024913D01*
X051281Y024998D01*
X051438Y025155D01*
X051463Y025216D01*
X051489Y025155D01*
X051646Y024998D01*
X051852Y024913D01*
X052075Y024913D01*
X052281Y024998D01*
X052438Y025155D01*
X052464Y025219D01*
X052485Y025179D01*
X052536Y025108D01*
X052599Y025045D01*
X052670Y024994D01*
X052748Y024954D01*
X052832Y024926D01*
X052919Y024913D01*
X052963Y024913D01*
X052963Y025773D01*
X052963Y025773D01*
X052963Y024913D01*
X053008Y024913D01*
X053095Y024926D01*
X053178Y024954D01*
X053257Y024994D01*
X053328Y025045D01*
X053391Y025108D01*
X053442Y025179D01*
X053463Y025219D01*
X053489Y025155D01*
X053646Y024998D01*
X053852Y024913D01*
X054075Y024913D01*
X054281Y024998D01*
X054438Y025155D01*
X054463Y025216D01*
X054489Y025155D01*
X054646Y024998D01*
X054852Y024913D01*
X055075Y024913D01*
X055281Y024998D01*
X055438Y025155D01*
X055463Y025216D01*
X055489Y025155D01*
X055646Y024998D01*
X055852Y024913D01*
X056075Y024913D01*
X056281Y024998D01*
X056438Y025155D01*
X056523Y025361D01*
X056523Y026184D01*
X056493Y026257D01*
X057103Y026257D01*
X057103Y026241D01*
X057181Y026054D01*
X057264Y025970D01*
X057151Y025970D01*
X056989Y025903D01*
X056865Y025779D01*
X056798Y025617D01*
X056798Y025442D01*
X056865Y025281D01*
X056989Y025157D01*
X057151Y025090D01*
X057240Y025090D01*
X057798Y024531D01*
X057798Y024380D01*
X057865Y024218D01*
X057989Y024094D01*
X058151Y024027D01*
X058326Y024027D01*
X058487Y024094D01*
X058611Y024218D01*
X058678Y024380D01*
X058678Y024555D01*
X058611Y024717D01*
X058487Y024840D01*
X058326Y024907D01*
X058299Y024907D01*
X057678Y025528D01*
X057678Y025617D01*
X057611Y025779D01*
X057558Y025832D01*
X057715Y025832D01*
X057902Y025910D01*
X058045Y026054D01*
X058123Y026241D01*
X058123Y026526D02*
X073378Y026526D01*
X073373Y026844D02*
X058123Y026844D01*
X058123Y027163D02*
X071530Y027163D01*
X071551Y027142D02*
X071757Y027057D01*
X072580Y027057D01*
X072785Y027142D01*
X072943Y027300D01*
X073028Y027506D01*
X073028Y027728D01*
X072943Y027934D01*
X072785Y028092D01*
X072724Y028117D01*
X072785Y028142D01*
X072943Y028300D01*
X073028Y028506D01*
X073028Y028728D01*
X072943Y028934D01*
X072785Y029092D01*
X072724Y029117D01*
X072785Y029142D01*
X072943Y029300D01*
X073028Y029506D01*
X073028Y029728D01*
X072943Y029934D01*
X072785Y030092D01*
X072722Y030118D01*
X072762Y030138D01*
X072833Y030190D01*
X072895Y030252D01*
X072947Y030324D01*
X072987Y030402D01*
X073014Y030486D01*
X073028Y030573D01*
X073028Y030617D01*
X073028Y030661D01*
X073014Y030748D01*
X072987Y030832D01*
X072947Y030911D01*
X072895Y030982D01*
X072833Y031044D01*
X072762Y031096D01*
X072683Y031136D01*
X072599Y031163D01*
X072512Y031177D01*
X072168Y031177D01*
X071824Y031177D01*
X071737Y031163D01*
X071653Y031136D01*
X071575Y031096D01*
X071503Y031044D01*
X071441Y030982D01*
X071389Y030911D01*
X071349Y030832D01*
X071322Y030748D01*
X071308Y030661D01*
X071308Y030617D01*
X071308Y030573D01*
X071322Y030486D01*
X071349Y030402D01*
X071389Y030324D01*
X071441Y030252D01*
X071503Y030190D01*
X071575Y030138D01*
X071614Y030118D01*
X071551Y030092D01*
X071393Y029934D01*
X071308Y029728D01*
X071308Y029506D01*
X071393Y029300D01*
X071551Y029142D01*
X071612Y029117D01*
X071551Y029092D01*
X071393Y028934D01*
X071308Y028728D01*
X071308Y028506D01*
X071393Y028300D01*
X071551Y028142D01*
X071612Y028117D01*
X071551Y028092D01*
X071393Y027934D01*
X071308Y027728D01*
X071308Y027506D01*
X071393Y027300D01*
X071551Y027142D01*
X071318Y027481D02*
X058123Y027481D01*
X058002Y027800D02*
X060971Y027800D01*
X061255Y027800D02*
X071338Y027800D01*
X071609Y028118D02*
X061548Y028118D01*
X061498Y028437D02*
X071337Y028437D01*
X071319Y028755D02*
X058806Y028755D01*
X058545Y029074D02*
X071533Y029074D01*
X071355Y029392D02*
X058237Y029392D01*
X057989Y029392D02*
X028541Y029392D01*
X028554Y029372D02*
X028493Y029468D01*
X028422Y029557D01*
X028342Y029637D01*
X028254Y029708D01*
X028158Y029768D01*
X028055Y029817D01*
X027948Y029855D01*
X027896Y029867D01*
X028058Y029910D01*
X028288Y030043D01*
X028476Y030231D01*
X028609Y030461D01*
X028678Y030718D01*
X028678Y030984D01*
X028609Y031241D01*
X028476Y031471D01*
X028288Y031659D01*
X028058Y031792D01*
X027896Y031836D01*
X027948Y031848D01*
X028055Y031885D01*
X028158Y031934D01*
X028254Y031995D01*
X028342Y032065D01*
X028422Y032146D01*
X028493Y032234D01*
X028554Y032330D01*
X028603Y032433D01*
X028640Y032540D01*
X028665Y032650D01*
X028678Y032763D01*
X028678Y032820D01*
X028678Y032876D01*
X028665Y032989D01*
X028640Y033100D01*
X028603Y033207D01*
X028554Y033309D01*
X028493Y033405D01*
X028422Y033494D01*
X028342Y033574D01*
X028254Y033645D01*
X028158Y033705D01*
X028055Y033754D01*
X027948Y033792D01*
X027896Y033804D01*
X028058Y033847D01*
X028288Y033980D01*
X028476Y034168D01*
X028609Y034398D01*
X028678Y034655D01*
X028678Y034921D01*
X028609Y035178D01*
X028476Y035408D01*
X028288Y035596D01*
X028058Y035729D01*
X027801Y035798D01*
X027535Y035798D01*
X027278Y035729D01*
X027048Y035596D01*
X026860Y035408D01*
X026727Y035178D01*
X026658Y034921D01*
X026658Y034655D01*
X026727Y034398D01*
X026860Y034168D01*
X027048Y033980D01*
X027278Y033847D01*
X027440Y033804D01*
X027388Y033792D01*
X027281Y033754D01*
X027179Y033705D01*
X027083Y033645D01*
X026994Y033574D01*
X026914Y033494D01*
X026843Y033405D01*
X026783Y033309D01*
X026734Y033207D01*
X026696Y033100D01*
X026671Y032989D01*
X026658Y032876D01*
X026658Y032820D01*
X027668Y032820D01*
X027668Y032820D01*
X026658Y032820D01*
X026658Y032763D01*
X026671Y032650D01*
X026696Y032540D01*
X026734Y032433D01*
X026783Y032330D01*
X026843Y032234D01*
X026914Y032146D01*
X026994Y032065D01*
X027083Y031995D01*
X027179Y031934D01*
X027281Y031885D01*
X027388Y031848D01*
X027440Y031836D01*
X027278Y031792D01*
X027048Y031659D01*
X026860Y031471D01*
X026727Y031241D01*
X026658Y030984D01*
X026658Y030718D01*
X026727Y030461D01*
X026860Y030231D01*
X027048Y030043D01*
X027278Y029910D01*
X027440Y029867D01*
X027388Y029855D01*
X027281Y029817D01*
X027179Y029768D01*
X027083Y029708D01*
X026994Y029637D01*
X026914Y029557D01*
X026843Y029468D01*
X026783Y029372D01*
X026734Y029270D01*
X026696Y029163D01*
X026671Y029052D01*
X026658Y028939D01*
X026658Y028883D01*
X027668Y028883D01*
X027668Y028883D01*
X026658Y028883D01*
X026658Y028826D01*
X026671Y028713D01*
X026696Y028603D01*
X026734Y028496D01*
X026783Y028393D01*
X026843Y028297D01*
X026914Y028209D01*
X026994Y028128D01*
X027083Y028058D01*
X027179Y027997D01*
X027281Y027948D01*
X027388Y027911D01*
X027440Y027899D01*
X027278Y027855D01*
X027048Y027722D01*
X026860Y027534D01*
X026727Y027304D01*
X026658Y027047D01*
X026658Y026781D01*
X026727Y026524D01*
X026860Y026294D01*
X027048Y026106D01*
X027278Y025973D01*
X027440Y025930D01*
X027388Y025918D01*
X027281Y025880D01*
X027179Y025831D01*
X027083Y025771D01*
X026994Y025700D01*
X026914Y025620D01*
X026843Y025531D01*
X026783Y025435D01*
X026734Y025333D01*
X026696Y025226D01*
X026671Y025115D01*
X026658Y025002D01*
X026658Y024946D01*
X027668Y024946D01*
X027668Y024946D01*
X026658Y024946D01*
X026658Y024889D01*
X026671Y024776D01*
X026696Y024666D01*
X026734Y024559D01*
X026783Y024456D01*
X026843Y024360D01*
X026914Y024272D01*
X026994Y024191D01*
X027083Y024121D01*
X027179Y024060D01*
X027281Y024011D01*
X027388Y023974D01*
X027499Y023948D01*
X027611Y023936D01*
X027668Y023936D01*
X027668Y024946D01*
X028678Y024946D01*
X028678Y025002D01*
X028665Y025115D01*
X028640Y025226D01*
X028603Y025333D01*
X028554Y025435D01*
X028493Y025531D01*
X028422Y025620D01*
X028342Y025700D01*
X028254Y025771D01*
X028158Y025831D01*
X028055Y025880D01*
X027948Y025918D01*
X027896Y025930D01*
X028058Y025973D01*
X028288Y026106D01*
X028476Y026294D01*
X028609Y026524D01*
X028678Y026781D01*
X028678Y027047D01*
X028609Y027304D01*
X028476Y027534D01*
X028288Y027722D01*
X028058Y027855D01*
X027896Y027899D01*
X027948Y027911D01*
X028055Y027948D01*
X028158Y027997D01*
X028254Y028058D01*
X028342Y028128D01*
X028422Y028209D01*
X028493Y028297D01*
X028554Y028393D01*
X028603Y028496D01*
X028640Y028603D01*
X028665Y028713D01*
X028678Y028826D01*
X028678Y028883D01*
X028678Y028939D01*
X028665Y029052D01*
X028640Y029163D01*
X028603Y029270D01*
X028554Y029372D01*
X028661Y029074D02*
X032412Y029074D01*
X032357Y029018D02*
X032227Y028705D01*
X032227Y028367D01*
X032357Y028055D01*
X032596Y027815D01*
X032908Y027686D01*
X034428Y027686D01*
X034741Y027815D01*
X034980Y028055D01*
X035109Y028367D01*
X035109Y028705D01*
X034980Y029018D01*
X034741Y029257D01*
X034428Y029387D01*
X032908Y029387D01*
X032596Y029257D01*
X032357Y029018D01*
X032248Y028755D02*
X028670Y028755D01*
X028678Y028883D02*
X027668Y028883D01*
X028678Y028883D01*
X028574Y028437D02*
X032227Y028437D01*
X032330Y028118D02*
X028330Y028118D01*
X028154Y027800D02*
X032633Y027800D01*
X031075Y027275D02*
X030891Y027459D01*
X030651Y027558D01*
X030391Y027558D01*
X030150Y027459D01*
X029966Y027275D01*
X029867Y027034D01*
X029867Y026774D01*
X029966Y026534D01*
X030150Y026350D01*
X030391Y026251D01*
X030651Y026251D01*
X030891Y026350D01*
X031075Y026534D01*
X031174Y026774D01*
X031174Y027034D01*
X031075Y027275D01*
X031121Y027163D02*
X035920Y027163D01*
X035966Y027275D02*
X035867Y027034D01*
X035867Y026774D01*
X035966Y026534D01*
X036150Y026350D01*
X036391Y026251D01*
X036651Y026251D01*
X036891Y026350D01*
X037019Y026478D01*
X037023Y026468D01*
X037169Y026322D01*
X037360Y026243D01*
X037567Y026243D01*
X037758Y026322D01*
X037904Y026468D01*
X037983Y026659D01*
X037983Y027386D01*
X037904Y027577D01*
X037796Y027686D01*
X038428Y027686D01*
X038741Y027815D01*
X038980Y028055D01*
X039109Y028367D01*
X039109Y028705D01*
X038980Y029018D01*
X038741Y029257D01*
X038428Y029387D01*
X036908Y029387D01*
X036596Y029257D01*
X036357Y029018D01*
X036227Y028705D01*
X036227Y028367D01*
X036357Y028055D01*
X036596Y027815D01*
X036908Y027686D01*
X037131Y027686D01*
X037023Y027577D01*
X036949Y027400D01*
X036891Y027459D01*
X036651Y027558D01*
X036391Y027558D01*
X036150Y027459D01*
X035966Y027275D01*
X036205Y027481D02*
X030836Y027481D01*
X030205Y027481D02*
X028507Y027481D01*
X028647Y027163D02*
X029920Y027163D01*
X029867Y026844D02*
X028678Y026844D01*
X028610Y026526D02*
X029975Y026526D01*
X031067Y026526D02*
X035975Y026526D01*
X035867Y026844D02*
X031174Y026844D01*
X028390Y026207D02*
X050413Y026207D01*
X050403Y025889D02*
X028031Y025889D01*
X028462Y025570D02*
X050403Y025570D01*
X050449Y025252D02*
X028631Y025252D01*
X028678Y024946D02*
X027668Y024946D01*
X027668Y024946D01*
X027668Y024946D01*
X027668Y023936D01*
X027725Y023936D01*
X027838Y023948D01*
X027948Y023974D01*
X028055Y024011D01*
X028158Y024060D01*
X028254Y024121D01*
X028342Y024191D01*
X028422Y024272D01*
X028493Y024360D01*
X028554Y024456D01*
X028603Y024559D01*
X028640Y024666D01*
X028665Y024776D01*
X028678Y024889D01*
X028678Y024946D01*
X028678Y024933D02*
X030125Y024933D01*
X030150Y024959D02*
X029966Y024775D01*
X029867Y024534D01*
X029867Y024274D01*
X029966Y024034D01*
X030150Y023850D01*
X030391Y023751D01*
X030651Y023751D01*
X030891Y023850D01*
X031075Y024034D01*
X031174Y024274D01*
X031174Y024534D01*
X031075Y024775D01*
X030891Y024959D01*
X030651Y025058D01*
X030391Y025058D01*
X030150Y024959D01*
X029900Y024615D02*
X028622Y024615D01*
X028442Y024296D02*
X029867Y024296D01*
X030023Y023978D02*
X027960Y023978D01*
X027668Y023978D02*
X027668Y023978D01*
X027376Y023978D02*
X026415Y023978D01*
X026411Y024296D02*
X026894Y024296D01*
X026714Y024615D02*
X026406Y024615D01*
X026401Y024933D02*
X026658Y024933D01*
X026705Y025252D02*
X026397Y025252D01*
X026392Y025570D02*
X026875Y025570D01*
X027306Y025889D02*
X026387Y025889D01*
X026382Y026207D02*
X026947Y026207D01*
X026727Y026526D02*
X026378Y026526D01*
X026373Y026844D02*
X026658Y026844D01*
X026689Y027163D02*
X026368Y027163D01*
X026363Y027481D02*
X026829Y027481D01*
X027182Y027800D02*
X026359Y027800D01*
X026354Y028118D02*
X027007Y028118D01*
X026762Y028437D02*
X026349Y028437D01*
X026344Y028755D02*
X026666Y028755D01*
X026676Y029074D02*
X026340Y029074D01*
X026335Y029392D02*
X026796Y029392D01*
X027088Y029711D02*
X026330Y029711D01*
X026326Y030029D02*
X027072Y030029D01*
X026793Y030348D02*
X026321Y030348D01*
X026316Y030666D02*
X026672Y030666D01*
X026658Y030985D02*
X026311Y030985D01*
X026307Y031303D02*
X026763Y031303D01*
X027010Y031622D02*
X026302Y031622D01*
X026297Y031940D02*
X027169Y031940D01*
X026828Y032259D02*
X026292Y032259D01*
X026288Y032577D02*
X026688Y032577D01*
X026660Y032896D02*
X026283Y032896D01*
X026278Y033214D02*
X026737Y033214D01*
X026953Y033533D02*
X026273Y033533D01*
X026269Y033851D02*
X027271Y033851D01*
X026859Y034170D02*
X026264Y034170D01*
X026259Y034488D02*
X026703Y034488D01*
X026658Y034807D02*
X026255Y034807D01*
X026250Y035125D02*
X026713Y035125D01*
X026895Y035444D02*
X026245Y035444D01*
X026240Y035762D02*
X027401Y035762D01*
X027701Y036181D02*
X027618Y036264D01*
X027545Y036356D01*
X027482Y036456D01*
X027431Y036562D01*
X027392Y036673D01*
X027366Y036788D01*
X027358Y036858D01*
X028295Y036858D01*
X028506Y036858D01*
X028506Y037069D01*
X029443Y037069D01*
X029435Y037139D01*
X029409Y037254D01*
X029370Y037365D01*
X029319Y037471D01*
X029256Y037571D01*
X029183Y037662D01*
X029100Y037746D01*
X029008Y037819D01*
X028908Y037882D01*
X028802Y037933D01*
X028691Y037972D01*
X028576Y037998D01*
X028506Y038006D01*
X028506Y037069D01*
X028295Y037069D01*
X028295Y036858D01*
X028295Y035921D01*
X028225Y035929D01*
X028110Y035955D01*
X027999Y035994D01*
X027893Y036045D01*
X027793Y036108D01*
X027701Y036181D01*
X027836Y036081D02*
X026236Y036081D01*
X026231Y036399D02*
X027518Y036399D01*
X027382Y036718D02*
X026226Y036718D01*
X026221Y037036D02*
X028295Y037036D01*
X028295Y037069D02*
X027358Y037069D01*
X027366Y037139D01*
X027392Y037254D01*
X027431Y037365D01*
X027482Y037471D01*
X027545Y037571D01*
X027618Y037662D01*
X027701Y037746D01*
X027793Y037819D01*
X027893Y037882D01*
X027999Y037933D01*
X028110Y037972D01*
X028225Y037998D01*
X028295Y038006D01*
X028295Y037069D01*
X028506Y037036D02*
X032227Y037036D01*
X032227Y037029D02*
X032357Y036716D01*
X032596Y036477D01*
X032908Y036347D01*
X034428Y036347D01*
X034741Y036477D01*
X034980Y036716D01*
X035109Y037029D01*
X035109Y037367D01*
X034980Y037680D01*
X034741Y037919D01*
X034428Y038048D01*
X033778Y038048D01*
X033893Y038079D01*
X034132Y038217D01*
X034328Y038413D01*
X034466Y038652D01*
X034538Y038920D01*
X034538Y039196D01*
X034466Y039463D01*
X034328Y039703D01*
X034132Y039899D01*
X033893Y040037D01*
X033625Y040109D01*
X033349Y040109D01*
X033082Y040037D01*
X032842Y039899D01*
X032646Y039703D01*
X032508Y039463D01*
X032437Y039196D01*
X032437Y038920D01*
X032508Y038652D01*
X032646Y038413D01*
X032842Y038217D01*
X033082Y038079D01*
X033196Y038048D01*
X032908Y038048D01*
X032596Y037919D01*
X032357Y037680D01*
X032227Y037367D01*
X032227Y037029D01*
X032227Y037355D02*
X031224Y037355D01*
X031252Y037367D02*
X031418Y037533D01*
X031508Y037750D01*
X031508Y037984D01*
X031418Y038201D01*
X031252Y038367D01*
X031036Y038457D01*
X030801Y038457D01*
X030584Y038367D01*
X030418Y038201D01*
X030328Y037984D01*
X030328Y037750D01*
X030418Y037533D01*
X030584Y037367D01*
X030801Y037277D01*
X031036Y037277D01*
X031252Y037367D01*
X031477Y037673D02*
X032354Y037673D01*
X032772Y037992D02*
X031505Y037992D01*
X031309Y038310D02*
X032749Y038310D01*
X032522Y038629D02*
X030597Y038629D01*
X030609Y038676D02*
X030538Y038410D01*
X030400Y038171D01*
X030205Y037976D01*
X029966Y037838D01*
X029700Y037766D01*
X029424Y037766D01*
X029158Y037838D01*
X028919Y037976D01*
X028724Y038171D01*
X028586Y038410D01*
X028514Y038676D01*
X028514Y038952D01*
X028586Y039218D01*
X028724Y039457D01*
X028919Y039652D01*
X029158Y039790D01*
X029424Y039861D01*
X029700Y039861D01*
X029966Y039790D01*
X030205Y039652D01*
X030400Y039457D01*
X030538Y039218D01*
X030609Y038952D01*
X030609Y038676D01*
X030609Y038947D02*
X032437Y038947D01*
X032455Y039266D02*
X030510Y039266D01*
X030273Y039584D02*
X032578Y039584D01*
X032850Y039903D02*
X026179Y039903D01*
X026174Y040221D02*
X073174Y040221D01*
X073179Y039903D02*
X072707Y039903D01*
X072715Y039899D02*
X072475Y040037D01*
X072208Y040109D01*
X071931Y040109D01*
X071664Y040037D01*
X071425Y039899D01*
X071229Y039703D01*
X071091Y039463D01*
X071019Y039196D01*
X071019Y038920D01*
X071091Y038652D01*
X071229Y038413D01*
X071425Y038217D01*
X071664Y038079D01*
X071931Y038007D01*
X072208Y038007D01*
X072475Y038079D01*
X072715Y038217D01*
X072910Y038413D01*
X073049Y038652D01*
X073120Y038920D01*
X073120Y039196D01*
X073049Y039463D01*
X072910Y039703D01*
X072715Y039899D01*
X072979Y039584D02*
X073184Y039584D01*
X073188Y039266D02*
X073102Y039266D01*
X073120Y038947D02*
X073193Y038947D01*
X073198Y038629D02*
X073035Y038629D01*
X073202Y038310D02*
X072808Y038310D01*
X073207Y037992D02*
X069574Y037992D01*
X069599Y037967D02*
X069425Y038140D01*
X069198Y038234D01*
X068953Y038234D01*
X068918Y038220D01*
X068884Y038234D01*
X068638Y038234D01*
X068411Y038140D01*
X068237Y037967D01*
X068143Y037740D01*
X068143Y037494D01*
X068237Y037267D01*
X068411Y037094D01*
X068638Y037000D01*
X068884Y037000D01*
X068918Y037014D01*
X068953Y037000D01*
X069198Y037000D01*
X069425Y037094D01*
X069599Y037267D01*
X069693Y037494D01*
X069693Y037740D01*
X069599Y037967D01*
X069693Y037673D02*
X073212Y037673D01*
X073217Y037355D02*
X069635Y037355D01*
X069288Y037036D02*
X073221Y037036D01*
X073226Y036718D02*
X038981Y036718D01*
X038980Y036716D02*
X039109Y037029D01*
X039109Y037367D01*
X038980Y037680D01*
X038741Y037919D01*
X038428Y038048D01*
X036908Y038048D01*
X036596Y037919D01*
X036357Y037680D01*
X036227Y037367D01*
X036227Y037029D01*
X036357Y036716D01*
X036596Y036477D01*
X036908Y036347D01*
X038428Y036347D01*
X038741Y036477D01*
X038980Y036716D01*
X039109Y037036D02*
X040451Y037036D01*
X040523Y037017D02*
X040813Y037017D01*
X041093Y037092D01*
X041344Y037237D01*
X041548Y037442D01*
X041693Y037692D01*
X041768Y037972D01*
X041768Y038262D01*
X041693Y038542D01*
X041548Y038792D01*
X041344Y038997D01*
X041093Y039142D01*
X040813Y039217D01*
X040523Y039217D01*
X040244Y039142D01*
X039993Y038997D01*
X039788Y038792D01*
X039643Y038542D01*
X039568Y038262D01*
X039568Y037972D01*
X039643Y037692D01*
X039788Y037442D01*
X039993Y037237D01*
X040244Y037092D01*
X040523Y037017D01*
X040885Y037036D02*
X044451Y037036D01*
X044523Y037017D02*
X044813Y037017D01*
X045093Y037092D01*
X045344Y037237D01*
X045548Y037442D01*
X045693Y037692D01*
X045768Y037972D01*
X045768Y038262D01*
X045693Y038542D01*
X045548Y038792D01*
X045344Y038997D01*
X045093Y039142D01*
X044813Y039217D01*
X044523Y039217D01*
X044244Y039142D01*
X043993Y038997D01*
X043788Y038792D01*
X043643Y038542D01*
X043568Y038262D01*
X043568Y037972D01*
X043643Y037692D01*
X043788Y037442D01*
X043993Y037237D01*
X044244Y037092D01*
X044523Y037017D01*
X044885Y037036D02*
X046951Y037036D01*
X047023Y037017D02*
X047313Y037017D01*
X047593Y037092D01*
X047844Y037237D01*
X048048Y037442D01*
X048193Y037692D01*
X048268Y037972D01*
X048268Y038262D01*
X048193Y038542D01*
X048048Y038792D01*
X047844Y038997D01*
X047593Y039142D01*
X047313Y039217D01*
X047023Y039217D01*
X046744Y039142D01*
X046493Y038997D01*
X046288Y038792D01*
X046143Y038542D01*
X046068Y038262D01*
X046068Y037972D01*
X046143Y037692D01*
X046288Y037442D01*
X046493Y037237D01*
X046744Y037092D01*
X047023Y037017D01*
X047385Y037036D02*
X050951Y037036D01*
X051023Y037017D02*
X051313Y037017D01*
X051593Y037092D01*
X051844Y037237D01*
X052048Y037442D01*
X052193Y037692D01*
X052268Y037972D01*
X052268Y038262D01*
X052193Y038542D01*
X052048Y038792D01*
X051844Y038997D01*
X051593Y039142D01*
X051313Y039217D01*
X051023Y039217D01*
X050744Y039142D01*
X050493Y038997D01*
X050288Y038792D01*
X050143Y038542D01*
X050068Y038262D01*
X050068Y037972D01*
X050143Y037692D01*
X050288Y037442D01*
X050493Y037237D01*
X050744Y037092D01*
X051023Y037017D01*
X051385Y037036D02*
X053451Y037036D01*
X053523Y037017D02*
X053813Y037017D01*
X054093Y037092D01*
X054344Y037237D01*
X054548Y037442D01*
X054693Y037692D01*
X054768Y037972D01*
X054768Y038262D01*
X054693Y038542D01*
X054548Y038792D01*
X054344Y038997D01*
X054093Y039142D01*
X053813Y039217D01*
X053523Y039217D01*
X053244Y039142D01*
X052993Y038997D01*
X052788Y038792D01*
X052643Y038542D01*
X052568Y038262D01*
X052568Y037972D01*
X052643Y037692D01*
X052788Y037442D01*
X052993Y037237D01*
X053244Y037092D01*
X053523Y037017D01*
X053885Y037036D02*
X057451Y037036D01*
X057523Y037017D02*
X057813Y037017D01*
X058093Y037092D01*
X058344Y037237D01*
X058548Y037442D01*
X058693Y037692D01*
X058768Y037972D01*
X058768Y038262D01*
X058693Y038542D01*
X058548Y038792D01*
X058344Y038997D01*
X058093Y039142D01*
X057813Y039217D01*
X057523Y039217D01*
X057244Y039142D01*
X056993Y038997D01*
X056788Y038792D01*
X056643Y038542D01*
X056568Y038262D01*
X056568Y037972D01*
X056643Y037692D01*
X056788Y037442D01*
X056993Y037237D01*
X057244Y037092D01*
X057523Y037017D01*
X057885Y037036D02*
X059951Y037036D01*
X060023Y037017D02*
X060313Y037017D01*
X060593Y037092D01*
X060844Y037237D01*
X061048Y037442D01*
X061193Y037692D01*
X061268Y037972D01*
X061268Y038262D01*
X061193Y038542D01*
X061048Y038792D01*
X060844Y038997D01*
X060593Y039142D01*
X060313Y039217D01*
X060023Y039217D01*
X059744Y039142D01*
X059493Y038997D01*
X059288Y038792D01*
X059143Y038542D01*
X059068Y038262D01*
X059068Y037972D01*
X059143Y037692D01*
X059288Y037442D01*
X059493Y037237D01*
X059744Y037092D01*
X060023Y037017D01*
X060385Y037036D02*
X063951Y037036D01*
X064023Y037017D02*
X064313Y037017D01*
X064593Y037092D01*
X064844Y037237D01*
X065048Y037442D01*
X065193Y037692D01*
X065268Y037972D01*
X065268Y038262D01*
X065193Y038542D01*
X065048Y038792D01*
X064844Y038997D01*
X064593Y039142D01*
X064313Y039217D01*
X064023Y039217D01*
X063744Y039142D01*
X063493Y038997D01*
X063288Y038792D01*
X063143Y038542D01*
X063068Y038262D01*
X063068Y037972D01*
X063143Y037692D01*
X063288Y037442D01*
X063493Y037237D01*
X063744Y037092D01*
X064023Y037017D01*
X064385Y037036D02*
X068549Y037036D01*
X068201Y037355D02*
X064962Y037355D01*
X065182Y037673D02*
X068143Y037673D01*
X068262Y037992D02*
X065268Y037992D01*
X065255Y038310D02*
X071332Y038310D01*
X071104Y038629D02*
X065143Y038629D01*
X064893Y038947D02*
X071019Y038947D01*
X071038Y039266D02*
X034519Y039266D01*
X034538Y038947D02*
X039943Y038947D01*
X039694Y038629D02*
X034452Y038629D01*
X034225Y038310D02*
X039581Y038310D01*
X039568Y037992D02*
X038564Y037992D01*
X038982Y037673D02*
X039654Y037673D01*
X039875Y037355D02*
X039109Y037355D01*
X038554Y036399D02*
X068704Y036399D01*
X068642Y036337D02*
X068799Y036494D01*
X069004Y036579D01*
X069226Y036579D01*
X069431Y036494D01*
X069588Y036337D01*
X069673Y036132D01*
X069673Y035909D01*
X069588Y035704D01*
X069431Y035547D01*
X069226Y035462D01*
X069004Y035462D01*
X068799Y035547D01*
X068642Y035704D01*
X068557Y035909D01*
X068557Y036132D01*
X068642Y036337D01*
X068557Y036081D02*
X063789Y036081D01*
X063752Y036117D02*
X063536Y036207D01*
X063301Y036207D01*
X063084Y036117D01*
X062918Y035951D01*
X062752Y036117D01*
X062536Y036207D01*
X062301Y036207D01*
X062084Y036117D01*
X061918Y035951D01*
X061752Y036117D01*
X061536Y036207D01*
X061301Y036207D01*
X061084Y036117D01*
X060918Y035951D01*
X060828Y035734D01*
X060828Y035500D01*
X060918Y035283D01*
X060999Y035202D01*
X060965Y035207D01*
X060918Y035207D01*
X060872Y035207D01*
X060780Y035192D01*
X060692Y035164D01*
X060609Y035122D01*
X060534Y035067D01*
X060468Y035001D01*
X060461Y034992D01*
X060362Y035090D01*
X060201Y035157D01*
X060026Y035157D01*
X059864Y035090D01*
X059740Y034967D01*
X059673Y034805D01*
X059673Y034630D01*
X059740Y034468D01*
X059773Y034435D01*
X059773Y033900D01*
X059825Y033775D01*
X061173Y032427D01*
X061173Y032380D01*
X061240Y032218D01*
X061364Y032094D01*
X061526Y032027D01*
X061701Y032027D01*
X061862Y032094D01*
X061986Y032218D01*
X062053Y032380D01*
X062053Y032555D01*
X061986Y032717D01*
X061862Y032840D01*
X061701Y032907D01*
X061654Y032907D01*
X060453Y034108D01*
X060453Y034253D01*
X060468Y034233D01*
X060534Y034167D01*
X060609Y034112D01*
X060692Y034070D01*
X060780Y034042D01*
X060872Y034027D01*
X060918Y034027D01*
X060918Y034617D01*
X060918Y035207D01*
X060918Y034617D01*
X060918Y034617D01*
X060918Y034617D01*
X060918Y034027D01*
X060965Y034027D01*
X061056Y034042D01*
X061145Y034070D01*
X061227Y034112D01*
X061303Y034167D01*
X061368Y034233D01*
X061418Y034301D01*
X061468Y034233D01*
X061534Y034167D01*
X061609Y034112D01*
X061692Y034070D01*
X061780Y034042D01*
X061872Y034027D01*
X061918Y034027D01*
X061918Y034617D01*
X060918Y034617D01*
X061508Y034617D01*
X061918Y034617D01*
X061918Y034617D01*
X061918Y034617D01*
X061918Y035207D01*
X061872Y035207D01*
X061837Y035202D01*
X061918Y035283D01*
X061999Y035202D01*
X061965Y035207D01*
X061918Y035207D01*
X061918Y034617D01*
X061918Y034617D01*
X061918Y034027D01*
X061965Y034027D01*
X062056Y034042D01*
X062145Y034070D01*
X062227Y034112D01*
X062303Y034167D01*
X062368Y034233D01*
X062418Y034301D01*
X062468Y034233D01*
X062534Y034167D01*
X062609Y034112D01*
X062692Y034070D01*
X062780Y034042D01*
X062872Y034027D01*
X062918Y034027D01*
X062918Y034617D01*
X062508Y034617D01*
X061918Y034617D01*
X062918Y034617D01*
X062918Y034617D01*
X062918Y034617D01*
X062918Y035207D01*
X062872Y035207D01*
X062837Y035202D01*
X062918Y035283D01*
X062999Y035202D01*
X062965Y035207D01*
X062918Y035207D01*
X062918Y034617D01*
X062918Y034617D01*
X062918Y034027D01*
X062965Y034027D01*
X063056Y034042D01*
X063145Y034070D01*
X063227Y034112D01*
X063303Y034167D01*
X063368Y034233D01*
X063423Y034308D01*
X063465Y034391D01*
X063494Y034479D01*
X063508Y034571D01*
X063508Y034617D01*
X063508Y034663D01*
X063494Y034755D01*
X063465Y034843D01*
X063423Y034926D01*
X063368Y035001D01*
X063343Y035027D01*
X063536Y035027D01*
X063752Y035117D01*
X063918Y035283D01*
X064008Y035500D01*
X064008Y035734D01*
X063918Y035951D01*
X063752Y036117D01*
X063997Y035762D02*
X068618Y035762D01*
X069613Y035762D02*
X071327Y035762D01*
X071322Y035748D02*
X071308Y035661D01*
X071308Y035617D01*
X071308Y035573D01*
X071322Y035486D01*
X071349Y035402D01*
X071389Y035324D01*
X071441Y035252D01*
X071503Y035190D01*
X071575Y035138D01*
X071614Y035118D01*
X071551Y035092D01*
X071416Y034957D01*
X070490Y034957D01*
X070486Y034967D01*
X070362Y035090D01*
X070201Y035157D01*
X070026Y035157D01*
X069864Y035090D01*
X069740Y034967D01*
X069673Y034805D01*
X069673Y034630D01*
X069740Y034468D01*
X069864Y034344D01*
X070026Y034277D01*
X070145Y034277D01*
X070146Y034277D01*
X071416Y034277D01*
X071551Y034142D01*
X071612Y034117D01*
X071551Y034092D01*
X071393Y033934D01*
X071308Y033728D01*
X071308Y033506D01*
X071393Y033300D01*
X071551Y033142D01*
X071612Y033117D01*
X071551Y033092D01*
X071393Y032934D01*
X071308Y032728D01*
X071308Y032506D01*
X071393Y032300D01*
X071551Y032142D01*
X071757Y032057D01*
X072580Y032057D01*
X072785Y032142D01*
X072943Y032300D01*
X073028Y032506D01*
X073028Y032728D01*
X072943Y032934D01*
X072785Y033092D01*
X072724Y033117D01*
X072785Y033142D01*
X072943Y033300D01*
X073028Y033506D01*
X073028Y033728D01*
X072943Y033934D01*
X072785Y034092D01*
X072724Y034117D01*
X072785Y034142D01*
X072943Y034300D01*
X073028Y034506D01*
X073028Y034728D01*
X072943Y034934D01*
X072785Y035092D01*
X072722Y035118D01*
X072762Y035138D01*
X072833Y035190D01*
X072895Y035252D01*
X072947Y035324D01*
X072987Y035402D01*
X073014Y035486D01*
X073028Y035573D01*
X073028Y035617D01*
X073028Y035661D01*
X073014Y035748D01*
X072987Y035832D01*
X072947Y035911D01*
X072895Y035982D01*
X072833Y036044D01*
X072762Y036096D01*
X072683Y036136D01*
X072599Y036163D01*
X072512Y036177D01*
X072168Y036177D01*
X071824Y036177D01*
X071737Y036163D01*
X071653Y036136D01*
X071575Y036096D01*
X071503Y036044D01*
X071441Y035982D01*
X071389Y035911D01*
X071349Y035832D01*
X071322Y035748D01*
X071308Y035617D02*
X072168Y035617D01*
X071308Y035617D01*
X071336Y035444D02*
X063985Y035444D01*
X063761Y035125D02*
X069948Y035125D01*
X070278Y035125D02*
X071599Y035125D01*
X072737Y035125D02*
X073250Y035125D01*
X073255Y034807D02*
X072996Y034807D01*
X073021Y034488D02*
X073259Y034488D01*
X073264Y034170D02*
X072813Y034170D01*
X072977Y033851D02*
X073269Y033851D01*
X073273Y033533D02*
X073028Y033533D01*
X072858Y033214D02*
X073278Y033214D01*
X073283Y032896D02*
X072959Y032896D01*
X073028Y032577D02*
X073288Y032577D01*
X073292Y032259D02*
X072902Y032259D01*
X073297Y031940D02*
X031581Y031940D01*
X031590Y031967D02*
X031603Y032050D01*
X031603Y032367D01*
X031603Y032684D01*
X031590Y032767D01*
X031564Y032847D01*
X031526Y032922D01*
X031476Y032991D01*
X031417Y033050D01*
X031349Y033100D01*
X031274Y033138D01*
X031193Y033164D01*
X031110Y033177D01*
X031068Y033177D01*
X031026Y033177D01*
X030943Y033164D01*
X030863Y033138D01*
X030788Y033100D01*
X030720Y033050D01*
X030668Y032999D01*
X030571Y033096D01*
X030375Y033177D01*
X030162Y033177D01*
X029965Y033096D01*
X029815Y032945D01*
X029733Y032748D01*
X029733Y031986D01*
X029815Y031789D01*
X029965Y031638D01*
X030162Y031557D01*
X030375Y031557D01*
X030571Y031638D01*
X030668Y031735D01*
X030720Y031684D01*
X030788Y031634D01*
X030863Y031596D01*
X030943Y031570D01*
X031026Y031557D01*
X031068Y031557D01*
X031068Y032367D01*
X031068Y032367D01*
X031068Y033177D01*
X031068Y032367D01*
X031068Y032367D01*
X031068Y031557D01*
X031110Y031557D01*
X031193Y031570D01*
X031274Y031596D01*
X031349Y031634D01*
X031417Y031684D01*
X031476Y031743D01*
X031526Y031812D01*
X031564Y031887D01*
X031590Y031967D01*
X031603Y032259D02*
X061223Y032259D01*
X061022Y032577D02*
X055281Y032577D01*
X055303Y032630D02*
X055303Y032805D01*
X055236Y032967D01*
X055112Y033090D01*
X054951Y033157D01*
X054904Y033157D01*
X053953Y034108D01*
X053953Y034253D01*
X053968Y034233D01*
X054034Y034167D01*
X054109Y034112D01*
X054192Y034070D01*
X054280Y034042D01*
X054372Y034027D01*
X054418Y034027D01*
X054418Y034617D01*
X054418Y035207D01*
X054372Y035207D01*
X054280Y035192D01*
X054192Y035164D01*
X054109Y035122D01*
X054034Y035067D01*
X053968Y035001D01*
X053961Y034992D01*
X053862Y035090D01*
X053701Y035157D01*
X053526Y035157D01*
X053364Y035090D01*
X053240Y034967D01*
X053173Y034805D01*
X053173Y034630D01*
X053240Y034468D01*
X053273Y034435D01*
X053273Y033900D01*
X053325Y033775D01*
X054423Y032677D01*
X054423Y032630D01*
X054490Y032468D01*
X054614Y032344D01*
X054776Y032277D01*
X054951Y032277D01*
X055112Y032344D01*
X055236Y032468D01*
X055303Y032630D01*
X055265Y032896D02*
X060704Y032896D01*
X060385Y033214D02*
X054847Y033214D01*
X054528Y033533D02*
X060067Y033533D01*
X059793Y033851D02*
X054210Y033851D01*
X054418Y034027D02*
X054465Y034027D01*
X054556Y034042D01*
X054645Y034070D01*
X054727Y034112D01*
X054803Y034167D01*
X054868Y034233D01*
X054918Y034301D01*
X054968Y034233D01*
X055034Y034167D01*
X055109Y034112D01*
X055192Y034070D01*
X055280Y034042D01*
X055372Y034027D01*
X055418Y034027D01*
X055418Y034617D01*
X054418Y034617D01*
X054418Y034617D01*
X054418Y034617D01*
X054418Y035207D01*
X054465Y035207D01*
X054499Y035202D01*
X054418Y035283D01*
X054328Y035500D01*
X054328Y035734D01*
X054418Y035951D01*
X054584Y036117D01*
X054801Y036207D01*
X055036Y036207D01*
X055252Y036117D01*
X055418Y035951D01*
X055584Y036117D01*
X055801Y036207D01*
X056036Y036207D01*
X056252Y036117D01*
X056418Y035951D01*
X056584Y036117D01*
X056801Y036207D01*
X057036Y036207D01*
X057252Y036117D01*
X057418Y035951D01*
X057508Y035734D01*
X057508Y035500D01*
X057418Y035283D01*
X057252Y035117D01*
X057036Y035027D01*
X056843Y035027D01*
X056868Y035001D01*
X056923Y034926D01*
X056965Y034843D01*
X056994Y034755D01*
X057008Y034663D01*
X057008Y034617D01*
X056418Y034617D01*
X055828Y034617D01*
X055418Y034617D01*
X055418Y034617D01*
X055008Y034617D01*
X054418Y034617D01*
X054418Y034027D01*
X054418Y034170D02*
X054418Y034170D01*
X054418Y034488D02*
X054418Y034488D01*
X054418Y034617D02*
X054418Y034617D01*
X054418Y034807D02*
X054418Y034807D01*
X054418Y035125D02*
X054418Y035125D01*
X054116Y035125D02*
X053778Y035125D01*
X053448Y035125D02*
X050761Y035125D01*
X050752Y035117D02*
X050918Y035283D01*
X051008Y035500D01*
X051008Y035734D01*
X050918Y035951D01*
X050752Y036117D01*
X050536Y036207D01*
X050301Y036207D01*
X050084Y036117D01*
X049918Y035951D01*
X049752Y036117D01*
X049536Y036207D01*
X049301Y036207D01*
X049084Y036117D01*
X048918Y035951D01*
X048752Y036117D01*
X048536Y036207D01*
X048301Y036207D01*
X048084Y036117D01*
X047918Y035951D01*
X047828Y035734D01*
X047828Y035500D01*
X047918Y035283D01*
X047999Y035202D01*
X047965Y035207D01*
X047918Y035207D01*
X047872Y035207D01*
X047780Y035192D01*
X047692Y035164D01*
X047609Y035122D01*
X047534Y035067D01*
X047468Y035001D01*
X047461Y034992D01*
X047362Y035090D01*
X047201Y035157D01*
X047026Y035157D01*
X046864Y035090D01*
X046740Y034967D01*
X046673Y034805D01*
X046673Y034630D01*
X046740Y034468D01*
X046773Y034435D01*
X046773Y033900D01*
X046825Y033775D01*
X047923Y032677D01*
X047923Y032630D01*
X047990Y032468D01*
X048114Y032344D01*
X048276Y032277D01*
X048451Y032277D01*
X048612Y032344D01*
X048736Y032468D01*
X048803Y032630D01*
X048803Y032805D01*
X048736Y032967D01*
X048612Y033090D01*
X048451Y033157D01*
X048404Y033157D01*
X047453Y034108D01*
X047453Y034253D01*
X047468Y034233D01*
X047534Y034167D01*
X047609Y034112D01*
X047692Y034070D01*
X047780Y034042D01*
X047872Y034027D01*
X047918Y034027D01*
X047918Y034617D01*
X047918Y035207D01*
X047918Y034617D01*
X047918Y034617D01*
X047918Y034617D01*
X047918Y034027D01*
X047965Y034027D01*
X048056Y034042D01*
X048145Y034070D01*
X048227Y034112D01*
X048303Y034167D01*
X048368Y034233D01*
X048418Y034301D01*
X048468Y034233D01*
X048534Y034167D01*
X048609Y034112D01*
X048692Y034070D01*
X048780Y034042D01*
X048872Y034027D01*
X048918Y034027D01*
X048918Y034617D01*
X047918Y034617D01*
X048508Y034617D01*
X048918Y034617D01*
X048918Y034617D01*
X048918Y034617D01*
X048918Y035207D01*
X048872Y035207D01*
X048837Y035202D01*
X048918Y035283D01*
X048999Y035202D01*
X048965Y035207D01*
X048918Y035207D01*
X048918Y034617D01*
X048918Y034617D01*
X048918Y034027D01*
X048965Y034027D01*
X049056Y034042D01*
X049145Y034070D01*
X049227Y034112D01*
X049303Y034167D01*
X049368Y034233D01*
X049418Y034301D01*
X049468Y034233D01*
X049534Y034167D01*
X049609Y034112D01*
X049692Y034070D01*
X049780Y034042D01*
X049872Y034027D01*
X049918Y034027D01*
X049918Y034617D01*
X049328Y034617D01*
X048918Y034617D01*
X049918Y034617D01*
X049918Y034617D01*
X049918Y034617D01*
X049918Y035207D01*
X049872Y035207D01*
X049837Y035202D01*
X049918Y035283D01*
X049999Y035202D01*
X049965Y035207D01*
X049918Y035207D01*
X049918Y034617D01*
X049918Y034617D01*
X049918Y034027D01*
X049965Y034027D01*
X050056Y034042D01*
X050145Y034070D01*
X050227Y034112D01*
X050303Y034167D01*
X050368Y034233D01*
X050423Y034308D01*
X050465Y034391D01*
X050494Y034479D01*
X050508Y034571D01*
X050508Y034617D01*
X050508Y034663D01*
X050494Y034755D01*
X050465Y034843D01*
X050423Y034926D01*
X050368Y035001D01*
X050343Y035027D01*
X050536Y035027D01*
X050752Y035117D01*
X050985Y035444D02*
X054351Y035444D01*
X054340Y035762D02*
X050997Y035762D01*
X050789Y036081D02*
X054548Y036081D01*
X055289Y036081D02*
X055548Y036081D01*
X056289Y036081D02*
X056548Y036081D01*
X057289Y036081D02*
X061048Y036081D01*
X060840Y035762D02*
X057497Y035762D01*
X057485Y035444D02*
X060851Y035444D01*
X060918Y035125D02*
X060918Y035125D01*
X060616Y035125D02*
X060278Y035125D01*
X059948Y035125D02*
X057261Y035125D01*
X056977Y034807D02*
X059674Y034807D01*
X059732Y034488D02*
X056995Y034488D01*
X056994Y034479D02*
X057008Y034571D01*
X057008Y034617D01*
X056418Y034617D01*
X056418Y034617D01*
X055418Y034617D01*
X055418Y034617D01*
X055418Y035207D01*
X055372Y035207D01*
X055337Y035202D01*
X055418Y035283D01*
X055499Y035202D01*
X055465Y035207D01*
X055418Y035207D01*
X055418Y034617D01*
X055418Y034617D01*
X055418Y034027D01*
X055465Y034027D01*
X055556Y034042D01*
X055645Y034070D01*
X055727Y034112D01*
X055803Y034167D01*
X055868Y034233D01*
X055918Y034301D01*
X055968Y034233D01*
X056034Y034167D01*
X056109Y034112D01*
X056192Y034070D01*
X056280Y034042D01*
X056372Y034027D01*
X056418Y034027D01*
X056418Y034617D01*
X056418Y034617D01*
X056418Y035207D01*
X056372Y035207D01*
X056337Y035202D01*
X056418Y035283D01*
X056499Y035202D01*
X056465Y035207D01*
X056418Y035207D01*
X056418Y034617D01*
X056418Y034617D01*
X056418Y034027D01*
X056465Y034027D01*
X056556Y034042D01*
X056645Y034070D01*
X056727Y034112D01*
X056803Y034167D01*
X056868Y034233D01*
X056923Y034308D01*
X056965Y034391D01*
X056994Y034479D01*
X056805Y034170D02*
X059773Y034170D01*
X060453Y034170D02*
X060531Y034170D01*
X060710Y033851D02*
X071359Y033851D01*
X071308Y033533D02*
X061028Y033533D01*
X061347Y033214D02*
X071479Y033214D01*
X071378Y032896D02*
X061728Y032896D01*
X062044Y032577D02*
X071308Y032577D01*
X071434Y032259D02*
X062003Y032259D01*
X061918Y034170D02*
X061918Y034170D01*
X061918Y034488D02*
X061918Y034488D01*
X061918Y034617D02*
X061918Y034617D01*
X061918Y034807D02*
X061918Y034807D01*
X061918Y035125D02*
X061918Y035125D01*
X062918Y035125D02*
X062918Y035125D01*
X062918Y034807D02*
X062918Y034807D01*
X062918Y034617D02*
X063508Y034617D01*
X062918Y034617D01*
X062918Y034617D01*
X062918Y034488D02*
X062918Y034488D01*
X062918Y034170D02*
X062918Y034170D01*
X062531Y034170D02*
X062305Y034170D01*
X061531Y034170D02*
X061305Y034170D01*
X060918Y034170D02*
X060918Y034170D01*
X060918Y034488D02*
X060918Y034488D01*
X060918Y034617D02*
X060918Y034617D01*
X060918Y034807D02*
X060918Y034807D01*
X063305Y034170D02*
X071523Y034170D01*
X069732Y034488D02*
X063495Y034488D01*
X063477Y034807D02*
X069674Y034807D01*
X069673Y036081D02*
X071554Y036081D01*
X072168Y036081D02*
X072168Y036081D01*
X072168Y036177D02*
X072168Y035617D01*
X072168Y035617D01*
X072168Y036177D01*
X072168Y035762D02*
X072168Y035762D01*
X072168Y035617D02*
X072168Y035617D01*
X073028Y035617D01*
X072168Y035617D01*
X072168Y035617D01*
X072782Y036081D02*
X073236Y036081D01*
X073231Y036399D02*
X069526Y036399D01*
X073010Y035762D02*
X073240Y035762D01*
X073245Y035444D02*
X073001Y035444D01*
X073302Y031622D02*
X031324Y031622D01*
X031068Y031622D02*
X031068Y031622D01*
X030812Y031622D02*
X030531Y031622D01*
X030005Y031622D02*
X028326Y031622D01*
X028167Y031940D02*
X029752Y031940D01*
X029733Y032259D02*
X028509Y032259D01*
X028649Y032577D02*
X029733Y032577D01*
X029794Y032896D02*
X028676Y032896D01*
X028678Y032820D02*
X027668Y032820D01*
X027668Y032820D01*
X028678Y032820D01*
X028599Y033214D02*
X047385Y033214D01*
X047704Y032896D02*
X031539Y032896D01*
X031603Y032577D02*
X047945Y032577D01*
X048781Y032577D02*
X054445Y032577D01*
X054204Y032896D02*
X048765Y032896D01*
X048347Y033214D02*
X053885Y033214D01*
X053567Y033533D02*
X048028Y033533D01*
X047710Y033851D02*
X053293Y033851D01*
X053273Y034170D02*
X050305Y034170D01*
X050495Y034488D02*
X053232Y034488D01*
X053174Y034807D02*
X050477Y034807D01*
X050508Y034617D02*
X049918Y034617D01*
X049918Y034617D01*
X050508Y034617D01*
X049918Y034488D02*
X049918Y034488D01*
X049918Y034170D02*
X049918Y034170D01*
X049531Y034170D02*
X049305Y034170D01*
X048918Y034170D02*
X048918Y034170D01*
X048918Y034488D02*
X048918Y034488D01*
X048918Y034617D02*
X048918Y034617D01*
X048918Y034807D02*
X048918Y034807D01*
X048918Y035125D02*
X048918Y035125D01*
X047918Y035125D02*
X047918Y035125D01*
X047616Y035125D02*
X047278Y035125D01*
X046948Y035125D02*
X044261Y035125D01*
X044252Y035117D02*
X044418Y035283D01*
X044508Y035500D01*
X044508Y035734D01*
X044418Y035951D01*
X044252Y036117D01*
X044036Y036207D01*
X043801Y036207D01*
X043584Y036117D01*
X043418Y035951D01*
X043252Y036117D01*
X043036Y036207D01*
X042801Y036207D01*
X042584Y036117D01*
X042418Y035951D01*
X042252Y036117D01*
X042036Y036207D01*
X041801Y036207D01*
X041584Y036117D01*
X041418Y035951D01*
X041328Y035734D01*
X041328Y035500D01*
X041418Y035283D01*
X041494Y035207D01*
X041301Y035207D01*
X041084Y035117D01*
X040918Y034951D01*
X040828Y034734D01*
X040828Y034500D01*
X040918Y034283D01*
X041084Y034117D01*
X041301Y034027D01*
X041536Y034027D01*
X041752Y034117D01*
X041918Y034283D01*
X041923Y034295D01*
X041968Y034233D01*
X042034Y034167D01*
X042109Y034112D01*
X042192Y034070D01*
X042280Y034042D01*
X042372Y034027D01*
X042418Y034027D01*
X042418Y034617D01*
X042418Y034617D01*
X042418Y035207D01*
X042372Y035207D01*
X042337Y035202D01*
X042418Y035283D01*
X042499Y035202D01*
X042465Y035207D01*
X042418Y035207D01*
X042418Y034617D01*
X042418Y034617D01*
X042418Y034027D01*
X042465Y034027D01*
X042556Y034042D01*
X042645Y034070D01*
X042727Y034112D01*
X042803Y034167D01*
X042868Y034233D01*
X042913Y034295D01*
X042918Y034283D01*
X043084Y034117D01*
X043301Y034027D01*
X043536Y034027D01*
X043752Y034117D01*
X043918Y034283D01*
X044008Y034500D01*
X044008Y034734D01*
X043918Y034951D01*
X043843Y035027D01*
X044036Y035027D01*
X044252Y035117D01*
X044485Y035444D02*
X047851Y035444D01*
X047840Y035762D02*
X044497Y035762D01*
X044289Y036081D02*
X048048Y036081D01*
X048789Y036081D02*
X049048Y036081D01*
X049789Y036081D02*
X050048Y036081D01*
X049918Y035125D02*
X049918Y035125D01*
X049918Y034807D02*
X049918Y034807D01*
X048531Y034170D02*
X048305Y034170D01*
X047918Y034170D02*
X047918Y034170D01*
X047918Y034488D02*
X047918Y034488D01*
X047918Y034617D02*
X047918Y034617D01*
X047918Y034807D02*
X047918Y034807D01*
X046732Y034488D02*
X044004Y034488D01*
X043978Y034807D02*
X046674Y034807D01*
X046773Y034170D02*
X043805Y034170D01*
X043031Y034170D02*
X042805Y034170D01*
X042418Y034170D02*
X042418Y034170D01*
X042418Y034488D02*
X042418Y034488D01*
X042418Y034807D02*
X042418Y034807D01*
X042418Y035125D02*
X042418Y035125D01*
X041351Y035444D02*
X028441Y035444D01*
X028623Y035125D02*
X041104Y035125D01*
X040858Y034807D02*
X028678Y034807D01*
X028633Y034488D02*
X040833Y034488D01*
X041031Y034170D02*
X031431Y034170D01*
X031418Y034201D02*
X031252Y034367D01*
X031036Y034457D01*
X030801Y034457D01*
X030584Y034367D01*
X030418Y034201D01*
X030328Y033984D01*
X030328Y033750D01*
X030418Y033533D01*
X028383Y033533D01*
X028066Y033851D02*
X030328Y033851D01*
X030405Y034170D02*
X028477Y034170D01*
X030418Y033533D02*
X030584Y033367D01*
X030801Y033277D01*
X031036Y033277D01*
X031252Y033367D01*
X031418Y033533D01*
X031508Y033750D01*
X031508Y033984D01*
X031418Y034201D01*
X031508Y033851D02*
X046793Y033851D01*
X047067Y033533D02*
X031418Y033533D01*
X031068Y032896D02*
X031068Y032896D01*
X031068Y032577D02*
X031068Y032577D01*
X031068Y032367D02*
X031603Y032367D01*
X031068Y032367D01*
X031068Y032367D01*
X031068Y032259D02*
X031068Y032259D01*
X031068Y031940D02*
X031068Y031940D01*
X028678Y030985D02*
X071444Y030985D01*
X071309Y030666D02*
X067007Y030666D01*
X066986Y030717D02*
X066862Y030840D01*
X066701Y030907D01*
X066526Y030907D01*
X066364Y030840D01*
X066331Y030807D01*
X065645Y030807D01*
X065612Y030840D01*
X065451Y030907D01*
X065276Y030907D01*
X065114Y030840D01*
X064990Y030717D01*
X064923Y030555D01*
X064923Y030380D01*
X064990Y030218D01*
X065114Y030094D01*
X065276Y030027D01*
X065451Y030027D01*
X065612Y030094D01*
X065645Y030127D01*
X066331Y030127D01*
X066364Y030094D01*
X066526Y030027D01*
X066701Y030027D01*
X066862Y030094D01*
X066986Y030218D01*
X067053Y030380D01*
X067053Y030555D01*
X066986Y030717D01*
X067040Y030348D02*
X071377Y030348D01*
X071308Y030617D02*
X072168Y030617D01*
X072168Y030617D01*
X071308Y030617D01*
X072168Y030617D02*
X072168Y031177D01*
X072168Y030617D01*
X072168Y030617D01*
X073028Y030617D01*
X072168Y030617D01*
X072168Y030617D01*
X072168Y030666D02*
X072168Y030666D01*
X072168Y030985D02*
X072168Y030985D01*
X072892Y030985D02*
X073311Y030985D01*
X073307Y031303D02*
X028573Y031303D01*
X028664Y030666D02*
X064969Y030666D01*
X064936Y030348D02*
X028544Y030348D01*
X028265Y030029D02*
X065271Y030029D01*
X065455Y030029D02*
X066521Y030029D01*
X066705Y030029D02*
X071489Y030029D01*
X071308Y029711D02*
X028249Y029711D01*
X027668Y028883D02*
X027668Y028883D01*
X034704Y027800D02*
X036633Y027800D01*
X036836Y027481D02*
X036983Y027481D01*
X037944Y027481D02*
X055735Y027481D01*
X055673Y027800D02*
X038704Y027800D01*
X039006Y028118D02*
X055931Y028118D01*
X056295Y028118D02*
X056783Y028118D01*
X057102Y028437D02*
X039109Y028437D01*
X039089Y028755D02*
X057420Y028755D01*
X057681Y029074D02*
X038924Y029074D01*
X036412Y029074D02*
X034924Y029074D01*
X035089Y028755D02*
X036248Y028755D01*
X036227Y028437D02*
X035109Y028437D01*
X035006Y028118D02*
X036330Y028118D01*
X037983Y027163D02*
X052032Y027163D01*
X051749Y026844D02*
X037983Y026844D01*
X037928Y026526D02*
X050625Y026526D01*
X051302Y026526D02*
X051496Y026526D01*
X052963Y025570D02*
X052963Y025570D01*
X052963Y025252D02*
X052963Y025252D01*
X052963Y024933D02*
X052963Y024933D01*
X052810Y024933D02*
X052125Y024933D01*
X051802Y024933D02*
X051125Y024933D01*
X050802Y024933D02*
X030916Y024933D01*
X031141Y024615D02*
X037060Y024615D01*
X037023Y024577D02*
X036949Y024400D01*
X036891Y024459D01*
X036651Y024558D01*
X036391Y024558D01*
X036150Y024459D01*
X035966Y024275D01*
X035867Y024034D01*
X035867Y023774D01*
X035966Y023534D01*
X036121Y023380D01*
X036070Y023358D01*
X035886Y023174D01*
X035786Y022934D01*
X035786Y022674D01*
X035886Y022434D01*
X036070Y022250D01*
X036310Y022150D01*
X036570Y022150D01*
X036810Y022250D01*
X036984Y022424D01*
X037031Y022312D01*
X037177Y022166D01*
X037368Y022087D01*
X037575Y022087D01*
X037766Y022166D01*
X037912Y022312D01*
X037991Y022504D01*
X037991Y023230D01*
X037912Y023422D01*
X037885Y023449D01*
X037904Y023468D01*
X037983Y023659D01*
X037983Y024386D01*
X037904Y024577D01*
X037758Y024723D01*
X037567Y024803D01*
X037360Y024803D01*
X037169Y024723D01*
X037023Y024577D01*
X037866Y024615D02*
X040698Y024615D01*
X040673Y024555D02*
X040673Y024380D01*
X040740Y024218D01*
X040773Y024185D01*
X040773Y023500D01*
X040740Y023467D01*
X040673Y023305D01*
X040673Y023130D01*
X040740Y022968D01*
X040864Y022844D01*
X041026Y022777D01*
X041201Y022777D01*
X041362Y022844D01*
X041486Y022968D01*
X041553Y023130D01*
X041553Y023305D01*
X041486Y023467D01*
X041453Y023500D01*
X041453Y024185D01*
X041486Y024218D01*
X041553Y024380D01*
X041553Y024555D01*
X041486Y024717D01*
X041362Y024840D01*
X041201Y024907D01*
X041026Y024907D01*
X040864Y024840D01*
X040740Y024717D01*
X040673Y024555D01*
X040708Y024296D02*
X037983Y024296D01*
X037983Y023978D02*
X040773Y023978D01*
X040773Y023659D02*
X037983Y023659D01*
X037946Y023341D02*
X040688Y023341D01*
X040718Y023022D02*
X037991Y023022D01*
X037991Y022704D02*
X049626Y022704D01*
X049944Y022385D02*
X037942Y022385D01*
X037000Y022385D02*
X036946Y022385D01*
X035934Y022385D02*
X030946Y022385D01*
X030994Y022434D02*
X031094Y022674D01*
X031094Y022934D01*
X030994Y023174D01*
X030810Y023358D01*
X030570Y023458D01*
X030310Y023458D01*
X030070Y023358D01*
X029886Y023174D01*
X029786Y022934D01*
X029786Y022674D01*
X029886Y022434D01*
X030070Y022250D01*
X030310Y022150D01*
X030570Y022150D01*
X030810Y022250D01*
X030994Y022434D01*
X031094Y022704D02*
X035786Y022704D01*
X035823Y023022D02*
X031057Y023022D01*
X030827Y023341D02*
X036052Y023341D01*
X035914Y023659D02*
X026420Y023659D01*
X026425Y023341D02*
X030052Y023341D01*
X029823Y023022D02*
X026430Y023022D01*
X026434Y022704D02*
X029786Y022704D01*
X029934Y022385D02*
X027744Y022385D01*
X027419Y022385D02*
X026439Y022385D01*
X026444Y022067D02*
X026821Y022067D01*
X026603Y021748D02*
X026449Y021748D01*
X026453Y021430D02*
X026531Y021430D01*
X026556Y021111D02*
X026458Y021111D01*
X026463Y020793D02*
X026685Y020793D01*
X026468Y020474D02*
X026982Y020474D01*
X027668Y024296D02*
X027668Y024296D01*
X027668Y024615D02*
X027668Y024615D01*
X027668Y024933D02*
X027668Y024933D01*
X031019Y023978D02*
X035867Y023978D01*
X035988Y024296D02*
X031174Y024296D01*
X041453Y023978D02*
X048673Y023978D01*
X048708Y024296D02*
X041518Y024296D01*
X041528Y024615D02*
X048698Y024615D01*
X049591Y024615D02*
X057715Y024615D01*
X057833Y024296D02*
X049910Y024296D01*
X050228Y023978D02*
X071437Y023978D01*
X071397Y024296D02*
X058643Y024296D01*
X058653Y024615D02*
X071308Y024615D01*
X071393Y024933D02*
X058273Y024933D01*
X057954Y025252D02*
X071441Y025252D01*
X071309Y025570D02*
X057678Y025570D01*
X057851Y025889D02*
X071378Y025889D01*
X072168Y025889D02*
X072168Y025889D01*
X072806Y027163D02*
X073368Y027163D01*
X073363Y027481D02*
X073018Y027481D01*
X072999Y027800D02*
X073359Y027800D01*
X073354Y028118D02*
X072728Y028118D01*
X073000Y028437D02*
X073349Y028437D01*
X073344Y028755D02*
X073017Y028755D01*
X072803Y029074D02*
X073340Y029074D01*
X073335Y029392D02*
X072981Y029392D01*
X073028Y029711D02*
X073330Y029711D01*
X073326Y030029D02*
X072848Y030029D01*
X072960Y030348D02*
X073321Y030348D01*
X073316Y030666D02*
X073027Y030666D01*
X063048Y036081D02*
X062789Y036081D01*
X062048Y036081D02*
X061789Y036081D01*
X060962Y037355D02*
X063375Y037355D01*
X063154Y037673D02*
X061182Y037673D01*
X061268Y037992D02*
X063068Y037992D01*
X063081Y038310D02*
X061255Y038310D01*
X061143Y038629D02*
X063194Y038629D01*
X063443Y038947D02*
X060893Y038947D01*
X059443Y038947D02*
X058393Y038947D01*
X058643Y038629D02*
X059194Y038629D01*
X059081Y038310D02*
X058755Y038310D01*
X058768Y037992D02*
X059068Y037992D01*
X059154Y037673D02*
X058682Y037673D01*
X058462Y037355D02*
X059375Y037355D01*
X056875Y037355D02*
X054462Y037355D01*
X054682Y037673D02*
X056654Y037673D01*
X056568Y037992D02*
X054768Y037992D01*
X054755Y038310D02*
X056581Y038310D01*
X056694Y038629D02*
X054643Y038629D01*
X054393Y038947D02*
X056943Y038947D01*
X052943Y038947D02*
X051893Y038947D01*
X052143Y038629D02*
X052694Y038629D01*
X052581Y038310D02*
X052255Y038310D01*
X052268Y037992D02*
X052568Y037992D01*
X052654Y037673D02*
X052182Y037673D01*
X051962Y037355D02*
X052875Y037355D01*
X050375Y037355D02*
X047962Y037355D01*
X048182Y037673D02*
X050154Y037673D01*
X050068Y037992D02*
X048268Y037992D01*
X048255Y038310D02*
X050081Y038310D01*
X050194Y038629D02*
X048143Y038629D01*
X047893Y038947D02*
X050443Y038947D01*
X046443Y038947D02*
X045393Y038947D01*
X045643Y038629D02*
X046194Y038629D01*
X046081Y038310D02*
X045755Y038310D01*
X045768Y037992D02*
X046068Y037992D01*
X046154Y037673D02*
X045682Y037673D01*
X045462Y037355D02*
X046375Y037355D01*
X043875Y037355D02*
X041462Y037355D01*
X041682Y037673D02*
X043654Y037673D01*
X043568Y037992D02*
X041768Y037992D01*
X041755Y038310D02*
X043581Y038310D01*
X043694Y038629D02*
X041643Y038629D01*
X041393Y038947D02*
X043943Y038947D01*
X043548Y036081D02*
X043289Y036081D01*
X042548Y036081D02*
X042289Y036081D01*
X041548Y036081D02*
X028965Y036081D01*
X029008Y036108D02*
X029100Y036181D01*
X029183Y036264D01*
X029256Y036356D01*
X029319Y036456D01*
X029370Y036562D01*
X029409Y036673D01*
X029435Y036788D01*
X029443Y036858D01*
X028506Y036858D01*
X028506Y035921D01*
X028576Y035929D01*
X028691Y035955D01*
X028802Y035994D01*
X028908Y036045D01*
X029008Y036108D01*
X029283Y036399D02*
X032782Y036399D01*
X032356Y036718D02*
X029419Y036718D01*
X028506Y036718D02*
X028295Y036718D01*
X028295Y036399D02*
X028506Y036399D01*
X028506Y036081D02*
X028295Y036081D01*
X027935Y035762D02*
X041340Y035762D01*
X041805Y034170D02*
X042031Y034170D01*
X047453Y034170D02*
X047531Y034170D01*
X053953Y034170D02*
X054031Y034170D01*
X054805Y034170D02*
X055031Y034170D01*
X055418Y034170D02*
X055418Y034170D01*
X055418Y034488D02*
X055418Y034488D01*
X055418Y034617D02*
X055418Y034617D01*
X055418Y034807D02*
X055418Y034807D01*
X055418Y035125D02*
X055418Y035125D01*
X056418Y035125D02*
X056418Y035125D01*
X056418Y034807D02*
X056418Y034807D01*
X056418Y034617D02*
X056418Y034617D01*
X056418Y034488D02*
X056418Y034488D01*
X056418Y034170D02*
X056418Y034170D01*
X056031Y034170D02*
X055805Y034170D01*
X058063Y028437D02*
X058163Y028437D01*
X058481Y028118D02*
X057745Y028118D01*
X057117Y026207D02*
X056514Y026207D01*
X056523Y025889D02*
X056975Y025889D01*
X056798Y025570D02*
X056523Y025570D01*
X056478Y025252D02*
X056894Y025252D01*
X057396Y024933D02*
X056125Y024933D01*
X055802Y024933D02*
X055125Y024933D01*
X054802Y024933D02*
X054125Y024933D01*
X053802Y024933D02*
X053116Y024933D01*
X056606Y023659D02*
X071308Y023659D01*
X071376Y023341D02*
X056678Y023341D01*
X056464Y023022D02*
X071482Y023022D01*
X073477Y019837D02*
X066628Y019837D01*
X066688Y019519D02*
X073482Y019519D01*
X073486Y019200D02*
X066582Y019200D01*
X066748Y018563D02*
X073496Y018563D01*
X073501Y018245D02*
X067066Y018245D01*
X067385Y017926D02*
X073505Y017926D01*
X073510Y017608D02*
X067453Y017608D01*
X067453Y017289D02*
X073515Y017289D01*
X073520Y016971D02*
X067482Y016971D01*
X067553Y016652D02*
X073524Y016652D01*
X073529Y016334D02*
X072615Y016334D01*
X072948Y016015D02*
X073534Y016015D01*
X073539Y015697D02*
X073087Y015697D01*
X073120Y015378D02*
X073543Y015378D01*
X073548Y015060D02*
X073057Y015060D01*
X072861Y014741D02*
X073553Y014741D01*
X073557Y014423D02*
X072348Y014423D01*
X071524Y016334D02*
X067337Y016334D01*
X066742Y017608D02*
X062243Y017608D01*
X062298Y017867D02*
X061668Y017867D01*
X062298Y017867D01*
X062297Y017926D02*
X066030Y017926D01*
X066321Y017926D02*
X066423Y017926D01*
X065740Y018245D02*
X062172Y018245D01*
X061668Y018245D02*
X061668Y018245D01*
X061668Y017926D02*
X061668Y017926D01*
X061668Y017867D02*
X061668Y017867D01*
X061668Y017608D02*
X061668Y017608D01*
X060155Y018245D02*
X056497Y018245D01*
X056550Y018563D02*
X065791Y018563D01*
X064534Y019200D02*
X056809Y019200D01*
X056948Y019519D02*
X064428Y019519D01*
X064488Y019837D02*
X061730Y019837D01*
X061121Y019837D02*
X056948Y019837D01*
X057538Y020156D02*
X060486Y020156D01*
X058918Y020474D02*
X057509Y020474D01*
X056910Y020793D02*
X058599Y020793D01*
X058281Y021111D02*
X058167Y021111D01*
X057634Y021111D02*
X056888Y021111D01*
X058833Y021748D02*
X059673Y021748D01*
X059766Y021430D02*
X059151Y021430D01*
X059470Y021111D02*
X059673Y021111D01*
X056053Y020156D02*
X055907Y020156D01*
X056053Y019837D02*
X055589Y019837D01*
X055345Y019519D02*
X055976Y019519D01*
X056491Y018882D02*
X073491Y018882D01*
X056012Y023022D02*
X051553Y023022D01*
X049307Y023022D02*
X041509Y023022D01*
X041538Y023341D02*
X048689Y023341D01*
X048716Y023659D02*
X041453Y023659D01*
X037143Y019200D02*
X036691Y019200D01*
X036782Y036399D02*
X034554Y036399D01*
X034981Y036718D02*
X036356Y036718D01*
X036227Y037036D02*
X035109Y037036D01*
X035109Y037355D02*
X036227Y037355D01*
X036354Y037673D02*
X034982Y037673D01*
X034564Y037992D02*
X036772Y037992D01*
X034396Y039584D02*
X071161Y039584D01*
X071432Y039903D02*
X034125Y039903D01*
X030527Y038310D02*
X030481Y038310D01*
X030331Y037992D02*
X030221Y037992D01*
X030360Y037673D02*
X029172Y037673D01*
X029373Y037355D02*
X030613Y037355D01*
X028903Y037992D02*
X028601Y037992D01*
X028506Y037992D02*
X028295Y037992D01*
X028199Y037992D02*
X027849Y037992D01*
X027629Y037673D02*
X026212Y037673D01*
X026217Y037355D02*
X027428Y037355D01*
X027305Y037992D02*
X027094Y037992D01*
X027094Y038310D02*
X027305Y038310D01*
X027305Y038629D02*
X027094Y038629D01*
X027094Y038947D02*
X027305Y038947D01*
X027305Y038920D02*
X027305Y039856D01*
X027375Y039848D01*
X027490Y039822D01*
X027601Y039783D01*
X027707Y039732D01*
X027807Y039669D01*
X027899Y039596D01*
X027982Y039513D01*
X028055Y039421D01*
X028118Y039321D01*
X028169Y039215D01*
X028208Y039104D01*
X028234Y038990D01*
X028242Y038920D01*
X027305Y038920D01*
X027305Y039266D02*
X027094Y039266D01*
X027094Y039584D02*
X027305Y039584D01*
X027910Y039584D02*
X028851Y039584D01*
X028613Y039266D02*
X028145Y039266D01*
X028239Y038947D02*
X028514Y038947D01*
X028527Y038629D02*
X028232Y038629D01*
X028120Y038310D02*
X028643Y038310D01*
X028506Y037673D02*
X028295Y037673D01*
X028295Y037355D02*
X028506Y037355D01*
X026550Y037992D02*
X026207Y037992D01*
X026202Y038310D02*
X026280Y038310D01*
X026255Y039266D02*
X026188Y039266D01*
X026184Y039584D02*
X026489Y039584D01*
X026169Y040540D02*
X073169Y040540D01*
D20*
X066043Y038180D03*
X062231Y037242D03*
X055668Y037305D03*
X049356Y037242D03*
X052481Y033742D03*
X055481Y032992D03*
X058981Y033742D03*
X061981Y032992D03*
X067481Y034492D03*
X071731Y036430D03*
X068231Y029992D03*
X058731Y027430D03*
X057231Y029742D03*
X052731Y029742D03*
X050731Y028242D03*
X048481Y028242D03*
X045731Y026992D03*
X045731Y026492D03*
X045231Y026492D03*
X045231Y026992D03*
X045231Y025992D03*
X045731Y025992D03*
X042356Y027492D03*
X044231Y028742D03*
X042481Y029242D03*
X039856Y027492D03*
X048981Y032992D03*
X037731Y039492D03*
X060356Y023992D03*
X059606Y022992D03*
X059356Y021742D03*
X057356Y022992D03*
X057356Y023492D03*
X054856Y022242D03*
X053106Y022242D03*
X049231Y020992D03*
X043481Y021742D03*
X041606Y019242D03*
X041356Y016492D03*
X044606Y016492D03*
X044606Y014867D03*
X041356Y014867D03*
X037856Y014867D03*
X034106Y014867D03*
X034106Y016492D03*
X032731Y017742D03*
X031231Y017242D03*
X029981Y015742D03*
X027231Y015492D03*
X027981Y018992D03*
X037856Y016492D03*
X048356Y016492D03*
X051606Y016492D03*
X055106Y016492D03*
X055106Y014867D03*
X051606Y014867D03*
X048356Y014867D03*
X066981Y019680D03*
X071231Y017930D03*
D21*
X067113Y016717D03*
X066176Y018342D03*
X061426Y020155D03*
X060926Y020405D03*
X060113Y021155D03*
X060113Y021780D03*
X057901Y021467D03*
X057863Y022217D03*
X057363Y022217D03*
X056176Y021842D03*
X056176Y021380D03*
X056613Y020467D03*
X057113Y020280D03*
X054926Y020155D03*
X054926Y020617D03*
X054926Y019655D03*
X055613Y018717D03*
X056113Y018467D03*
X064363Y021717D03*
X058238Y024467D03*
X057238Y025530D03*
X057613Y026342D03*
X057613Y026717D03*
X057613Y027092D03*
X057613Y027467D03*
X056113Y027717D03*
X058113Y028967D03*
X061113Y028217D03*
X065363Y030467D03*
X066613Y030467D03*
X061613Y032467D03*
X060113Y034717D03*
X054863Y032717D03*
X053613Y034717D03*
X048363Y032717D03*
X047113Y034717D03*
X070113Y034717D03*
X049113Y024467D03*
X049113Y023967D03*
X049113Y023467D03*
X050613Y022967D03*
X051113Y022967D03*
X056238Y023405D03*
X041113Y023217D03*
X041113Y024467D03*
D22*
X051963Y025773D02*
X051963Y026318D01*
X052363Y026767D01*
X057613Y026767D01*
X057613Y027092D01*
X057613Y027467D01*
X057613Y026767D02*
X057613Y026342D01*
D23*
X056863Y027717D02*
X056113Y027717D01*
X056863Y027717D02*
X058113Y028967D01*
X058863Y028217D01*
X061113Y028217D01*
X065363Y030467D02*
X066613Y030467D01*
X061613Y032467D02*
X060113Y033967D01*
X060113Y034717D01*
X054863Y032717D02*
X053613Y033967D01*
X053613Y034717D01*
X048363Y032717D02*
X047113Y033967D01*
X047113Y034717D01*
X070113Y034717D02*
X070213Y034617D01*
X072168Y034617D01*
X041113Y024467D02*
X041113Y023217D01*
X054926Y020617D02*
X056151Y021842D01*
X056176Y021842D01*
X056176Y021380D02*
X055463Y020667D01*
X055463Y020542D01*
X055076Y020155D01*
X054926Y020155D01*
X054926Y019655D02*
X056113Y020842D01*
X056138Y020842D01*
X056738Y021442D01*
X056738Y021467D01*
X057901Y021467D01*
X064363Y021717D02*
X065058Y021023D01*
X065058Y019568D01*
X066176Y018342D02*
X066200Y018318D01*
X066513Y018318D01*
X067113Y017717D01*
X067113Y016717D01*
D24*
X060113Y021155D02*
X060113Y021780D01*
D25*
X059426Y020717D02*
X057926Y022217D01*
X057863Y022217D01*
X057801Y021780D02*
X057363Y022217D01*
X057801Y021780D02*
X058051Y021780D01*
X059301Y020530D01*
X060551Y020530D01*
X060676Y020405D01*
X060926Y020405D01*
X061238Y020717D02*
X061426Y020530D01*
X061426Y020155D01*
X061238Y020717D02*
X059426Y020717D01*
X057113Y020280D02*
X056926Y020280D01*
X056638Y019992D01*
X056638Y019467D01*
X056113Y018942D01*
X056113Y018467D01*
X055613Y018717D02*
X056363Y019467D01*
X056363Y020217D01*
X056613Y020467D01*
X051113Y022967D02*
X050738Y022592D01*
X050176Y022592D01*
X049301Y023467D01*
X049113Y023467D01*
X049113Y023967D02*
X050113Y022967D01*
X050613Y022967D01*
X050363Y023405D02*
X049301Y024467D01*
X049113Y024467D01*
X050363Y023405D02*
X056238Y023405D01*
X058238Y024467D02*
X058238Y024530D01*
X057238Y025530D01*
D26*
X072070Y015436D03*
X027582Y021341D03*
X033487Y039058D03*
X072070Y039058D03*
M02*
