G75*
G70*
%OFA0B0*%
%FSLAX24Y24*%
%IPPOS*%
%LPD*%
%AMOC8*
5,1,8,0,0,1.08239X$1,22.5*
%
%ADD10C,0.0000*%
%ADD11C,0.0040*%
D10*
X025613Y013467D02*
X025613Y041026D01*
X074038Y041026D01*
X074038Y013467D01*
X025613Y013467D01*
X069017Y036021D02*
X069019Y036040D01*
X069024Y036059D01*
X069034Y036075D01*
X069046Y036090D01*
X069061Y036102D01*
X069077Y036112D01*
X069096Y036117D01*
X069115Y036119D01*
X069134Y036117D01*
X069153Y036112D01*
X069169Y036102D01*
X069184Y036090D01*
X069196Y036075D01*
X069206Y036059D01*
X069211Y036040D01*
X069213Y036021D01*
X069211Y036002D01*
X069206Y035983D01*
X069196Y035967D01*
X069184Y035952D01*
X069169Y035940D01*
X069153Y035930D01*
X069134Y035925D01*
X069115Y035923D01*
X069096Y035925D01*
X069077Y035930D01*
X069061Y035940D01*
X069046Y035952D01*
X069034Y035967D01*
X069024Y035983D01*
X069019Y036002D01*
X069017Y036021D01*
X068919Y037617D02*
X068921Y037642D01*
X068927Y037666D01*
X068936Y037688D01*
X068949Y037709D01*
X068965Y037728D01*
X068984Y037744D01*
X069005Y037757D01*
X069027Y037766D01*
X069051Y037772D01*
X069076Y037774D01*
X069101Y037772D01*
X069125Y037766D01*
X069147Y037757D01*
X069168Y037744D01*
X069187Y037728D01*
X069203Y037709D01*
X069216Y037688D01*
X069225Y037666D01*
X069231Y037642D01*
X069233Y037617D01*
X069231Y037592D01*
X069225Y037568D01*
X069216Y037546D01*
X069203Y037525D01*
X069187Y037506D01*
X069168Y037490D01*
X069147Y037477D01*
X069125Y037468D01*
X069101Y037462D01*
X069076Y037460D01*
X069051Y037462D01*
X069027Y037468D01*
X069005Y037477D01*
X068984Y037490D01*
X068965Y037506D01*
X068949Y037525D01*
X068936Y037546D01*
X068927Y037568D01*
X068921Y037592D01*
X068919Y037617D01*
X068604Y037617D02*
X068606Y037642D01*
X068612Y037666D01*
X068621Y037688D01*
X068634Y037709D01*
X068650Y037728D01*
X068669Y037744D01*
X068690Y037757D01*
X068712Y037766D01*
X068736Y037772D01*
X068761Y037774D01*
X068786Y037772D01*
X068810Y037766D01*
X068832Y037757D01*
X068853Y037744D01*
X068872Y037728D01*
X068888Y037709D01*
X068901Y037688D01*
X068910Y037666D01*
X068916Y037642D01*
X068918Y037617D01*
X068916Y037592D01*
X068910Y037568D01*
X068901Y037546D01*
X068888Y037525D01*
X068872Y037506D01*
X068853Y037490D01*
X068832Y037477D01*
X068810Y037468D01*
X068786Y037462D01*
X068761Y037460D01*
X068736Y037462D01*
X068712Y037468D01*
X068690Y037477D01*
X068669Y037490D01*
X068650Y037506D01*
X068634Y037525D01*
X068621Y037546D01*
X068612Y037568D01*
X068606Y037592D01*
X068604Y037617D01*
X063528Y038117D02*
X063530Y038167D01*
X063536Y038217D01*
X063546Y038266D01*
X063559Y038315D01*
X063577Y038362D01*
X063598Y038408D01*
X063622Y038451D01*
X063650Y038493D01*
X063681Y038533D01*
X063715Y038570D01*
X063752Y038604D01*
X063792Y038635D01*
X063834Y038663D01*
X063877Y038687D01*
X063923Y038708D01*
X063970Y038726D01*
X064019Y038739D01*
X064068Y038749D01*
X064118Y038755D01*
X064168Y038757D01*
X064218Y038755D01*
X064268Y038749D01*
X064317Y038739D01*
X064366Y038726D01*
X064413Y038708D01*
X064459Y038687D01*
X064502Y038663D01*
X064544Y038635D01*
X064584Y038604D01*
X064621Y038570D01*
X064655Y038533D01*
X064686Y038493D01*
X064714Y038451D01*
X064738Y038408D01*
X064759Y038362D01*
X064777Y038315D01*
X064790Y038266D01*
X064800Y038217D01*
X064806Y038167D01*
X064808Y038117D01*
X064806Y038067D01*
X064800Y038017D01*
X064790Y037968D01*
X064777Y037919D01*
X064759Y037872D01*
X064738Y037826D01*
X064714Y037783D01*
X064686Y037741D01*
X064655Y037701D01*
X064621Y037664D01*
X064584Y037630D01*
X064544Y037599D01*
X064502Y037571D01*
X064459Y037547D01*
X064413Y037526D01*
X064366Y037508D01*
X064317Y037495D01*
X064268Y037485D01*
X064218Y037479D01*
X064168Y037477D01*
X064118Y037479D01*
X064068Y037485D01*
X064019Y037495D01*
X063970Y037508D01*
X063923Y037526D01*
X063877Y037547D01*
X063834Y037571D01*
X063792Y037599D01*
X063752Y037630D01*
X063715Y037664D01*
X063681Y037701D01*
X063650Y037741D01*
X063622Y037783D01*
X063598Y037826D01*
X063577Y037872D01*
X063559Y037919D01*
X063546Y037968D01*
X063536Y038017D01*
X063530Y038067D01*
X063528Y038117D01*
X059528Y038117D02*
X059530Y038167D01*
X059536Y038217D01*
X059546Y038266D01*
X059559Y038315D01*
X059577Y038362D01*
X059598Y038408D01*
X059622Y038451D01*
X059650Y038493D01*
X059681Y038533D01*
X059715Y038570D01*
X059752Y038604D01*
X059792Y038635D01*
X059834Y038663D01*
X059877Y038687D01*
X059923Y038708D01*
X059970Y038726D01*
X060019Y038739D01*
X060068Y038749D01*
X060118Y038755D01*
X060168Y038757D01*
X060218Y038755D01*
X060268Y038749D01*
X060317Y038739D01*
X060366Y038726D01*
X060413Y038708D01*
X060459Y038687D01*
X060502Y038663D01*
X060544Y038635D01*
X060584Y038604D01*
X060621Y038570D01*
X060655Y038533D01*
X060686Y038493D01*
X060714Y038451D01*
X060738Y038408D01*
X060759Y038362D01*
X060777Y038315D01*
X060790Y038266D01*
X060800Y038217D01*
X060806Y038167D01*
X060808Y038117D01*
X060806Y038067D01*
X060800Y038017D01*
X060790Y037968D01*
X060777Y037919D01*
X060759Y037872D01*
X060738Y037826D01*
X060714Y037783D01*
X060686Y037741D01*
X060655Y037701D01*
X060621Y037664D01*
X060584Y037630D01*
X060544Y037599D01*
X060502Y037571D01*
X060459Y037547D01*
X060413Y037526D01*
X060366Y037508D01*
X060317Y037495D01*
X060268Y037485D01*
X060218Y037479D01*
X060168Y037477D01*
X060118Y037479D01*
X060068Y037485D01*
X060019Y037495D01*
X059970Y037508D01*
X059923Y037526D01*
X059877Y037547D01*
X059834Y037571D01*
X059792Y037599D01*
X059752Y037630D01*
X059715Y037664D01*
X059681Y037701D01*
X059650Y037741D01*
X059622Y037783D01*
X059598Y037826D01*
X059577Y037872D01*
X059559Y037919D01*
X059546Y037968D01*
X059536Y038017D01*
X059530Y038067D01*
X059528Y038117D01*
X057028Y038117D02*
X057030Y038167D01*
X057036Y038217D01*
X057046Y038266D01*
X057059Y038315D01*
X057077Y038362D01*
X057098Y038408D01*
X057122Y038451D01*
X057150Y038493D01*
X057181Y038533D01*
X057215Y038570D01*
X057252Y038604D01*
X057292Y038635D01*
X057334Y038663D01*
X057377Y038687D01*
X057423Y038708D01*
X057470Y038726D01*
X057519Y038739D01*
X057568Y038749D01*
X057618Y038755D01*
X057668Y038757D01*
X057718Y038755D01*
X057768Y038749D01*
X057817Y038739D01*
X057866Y038726D01*
X057913Y038708D01*
X057959Y038687D01*
X058002Y038663D01*
X058044Y038635D01*
X058084Y038604D01*
X058121Y038570D01*
X058155Y038533D01*
X058186Y038493D01*
X058214Y038451D01*
X058238Y038408D01*
X058259Y038362D01*
X058277Y038315D01*
X058290Y038266D01*
X058300Y038217D01*
X058306Y038167D01*
X058308Y038117D01*
X058306Y038067D01*
X058300Y038017D01*
X058290Y037968D01*
X058277Y037919D01*
X058259Y037872D01*
X058238Y037826D01*
X058214Y037783D01*
X058186Y037741D01*
X058155Y037701D01*
X058121Y037664D01*
X058084Y037630D01*
X058044Y037599D01*
X058002Y037571D01*
X057959Y037547D01*
X057913Y037526D01*
X057866Y037508D01*
X057817Y037495D01*
X057768Y037485D01*
X057718Y037479D01*
X057668Y037477D01*
X057618Y037479D01*
X057568Y037485D01*
X057519Y037495D01*
X057470Y037508D01*
X057423Y037526D01*
X057377Y037547D01*
X057334Y037571D01*
X057292Y037599D01*
X057252Y037630D01*
X057215Y037664D01*
X057181Y037701D01*
X057150Y037741D01*
X057122Y037783D01*
X057098Y037826D01*
X057077Y037872D01*
X057059Y037919D01*
X057046Y037968D01*
X057036Y038017D01*
X057030Y038067D01*
X057028Y038117D01*
X053028Y038117D02*
X053030Y038167D01*
X053036Y038217D01*
X053046Y038266D01*
X053059Y038315D01*
X053077Y038362D01*
X053098Y038408D01*
X053122Y038451D01*
X053150Y038493D01*
X053181Y038533D01*
X053215Y038570D01*
X053252Y038604D01*
X053292Y038635D01*
X053334Y038663D01*
X053377Y038687D01*
X053423Y038708D01*
X053470Y038726D01*
X053519Y038739D01*
X053568Y038749D01*
X053618Y038755D01*
X053668Y038757D01*
X053718Y038755D01*
X053768Y038749D01*
X053817Y038739D01*
X053866Y038726D01*
X053913Y038708D01*
X053959Y038687D01*
X054002Y038663D01*
X054044Y038635D01*
X054084Y038604D01*
X054121Y038570D01*
X054155Y038533D01*
X054186Y038493D01*
X054214Y038451D01*
X054238Y038408D01*
X054259Y038362D01*
X054277Y038315D01*
X054290Y038266D01*
X054300Y038217D01*
X054306Y038167D01*
X054308Y038117D01*
X054306Y038067D01*
X054300Y038017D01*
X054290Y037968D01*
X054277Y037919D01*
X054259Y037872D01*
X054238Y037826D01*
X054214Y037783D01*
X054186Y037741D01*
X054155Y037701D01*
X054121Y037664D01*
X054084Y037630D01*
X054044Y037599D01*
X054002Y037571D01*
X053959Y037547D01*
X053913Y037526D01*
X053866Y037508D01*
X053817Y037495D01*
X053768Y037485D01*
X053718Y037479D01*
X053668Y037477D01*
X053618Y037479D01*
X053568Y037485D01*
X053519Y037495D01*
X053470Y037508D01*
X053423Y037526D01*
X053377Y037547D01*
X053334Y037571D01*
X053292Y037599D01*
X053252Y037630D01*
X053215Y037664D01*
X053181Y037701D01*
X053150Y037741D01*
X053122Y037783D01*
X053098Y037826D01*
X053077Y037872D01*
X053059Y037919D01*
X053046Y037968D01*
X053036Y038017D01*
X053030Y038067D01*
X053028Y038117D01*
X050528Y038117D02*
X050530Y038167D01*
X050536Y038217D01*
X050546Y038266D01*
X050559Y038315D01*
X050577Y038362D01*
X050598Y038408D01*
X050622Y038451D01*
X050650Y038493D01*
X050681Y038533D01*
X050715Y038570D01*
X050752Y038604D01*
X050792Y038635D01*
X050834Y038663D01*
X050877Y038687D01*
X050923Y038708D01*
X050970Y038726D01*
X051019Y038739D01*
X051068Y038749D01*
X051118Y038755D01*
X051168Y038757D01*
X051218Y038755D01*
X051268Y038749D01*
X051317Y038739D01*
X051366Y038726D01*
X051413Y038708D01*
X051459Y038687D01*
X051502Y038663D01*
X051544Y038635D01*
X051584Y038604D01*
X051621Y038570D01*
X051655Y038533D01*
X051686Y038493D01*
X051714Y038451D01*
X051738Y038408D01*
X051759Y038362D01*
X051777Y038315D01*
X051790Y038266D01*
X051800Y038217D01*
X051806Y038167D01*
X051808Y038117D01*
X051806Y038067D01*
X051800Y038017D01*
X051790Y037968D01*
X051777Y037919D01*
X051759Y037872D01*
X051738Y037826D01*
X051714Y037783D01*
X051686Y037741D01*
X051655Y037701D01*
X051621Y037664D01*
X051584Y037630D01*
X051544Y037599D01*
X051502Y037571D01*
X051459Y037547D01*
X051413Y037526D01*
X051366Y037508D01*
X051317Y037495D01*
X051268Y037485D01*
X051218Y037479D01*
X051168Y037477D01*
X051118Y037479D01*
X051068Y037485D01*
X051019Y037495D01*
X050970Y037508D01*
X050923Y037526D01*
X050877Y037547D01*
X050834Y037571D01*
X050792Y037599D01*
X050752Y037630D01*
X050715Y037664D01*
X050681Y037701D01*
X050650Y037741D01*
X050622Y037783D01*
X050598Y037826D01*
X050577Y037872D01*
X050559Y037919D01*
X050546Y037968D01*
X050536Y038017D01*
X050530Y038067D01*
X050528Y038117D01*
X046528Y038117D02*
X046530Y038167D01*
X046536Y038217D01*
X046546Y038266D01*
X046559Y038315D01*
X046577Y038362D01*
X046598Y038408D01*
X046622Y038451D01*
X046650Y038493D01*
X046681Y038533D01*
X046715Y038570D01*
X046752Y038604D01*
X046792Y038635D01*
X046834Y038663D01*
X046877Y038687D01*
X046923Y038708D01*
X046970Y038726D01*
X047019Y038739D01*
X047068Y038749D01*
X047118Y038755D01*
X047168Y038757D01*
X047218Y038755D01*
X047268Y038749D01*
X047317Y038739D01*
X047366Y038726D01*
X047413Y038708D01*
X047459Y038687D01*
X047502Y038663D01*
X047544Y038635D01*
X047584Y038604D01*
X047621Y038570D01*
X047655Y038533D01*
X047686Y038493D01*
X047714Y038451D01*
X047738Y038408D01*
X047759Y038362D01*
X047777Y038315D01*
X047790Y038266D01*
X047800Y038217D01*
X047806Y038167D01*
X047808Y038117D01*
X047806Y038067D01*
X047800Y038017D01*
X047790Y037968D01*
X047777Y037919D01*
X047759Y037872D01*
X047738Y037826D01*
X047714Y037783D01*
X047686Y037741D01*
X047655Y037701D01*
X047621Y037664D01*
X047584Y037630D01*
X047544Y037599D01*
X047502Y037571D01*
X047459Y037547D01*
X047413Y037526D01*
X047366Y037508D01*
X047317Y037495D01*
X047268Y037485D01*
X047218Y037479D01*
X047168Y037477D01*
X047118Y037479D01*
X047068Y037485D01*
X047019Y037495D01*
X046970Y037508D01*
X046923Y037526D01*
X046877Y037547D01*
X046834Y037571D01*
X046792Y037599D01*
X046752Y037630D01*
X046715Y037664D01*
X046681Y037701D01*
X046650Y037741D01*
X046622Y037783D01*
X046598Y037826D01*
X046577Y037872D01*
X046559Y037919D01*
X046546Y037968D01*
X046536Y038017D01*
X046530Y038067D01*
X046528Y038117D01*
X044028Y038117D02*
X044030Y038167D01*
X044036Y038217D01*
X044046Y038266D01*
X044059Y038315D01*
X044077Y038362D01*
X044098Y038408D01*
X044122Y038451D01*
X044150Y038493D01*
X044181Y038533D01*
X044215Y038570D01*
X044252Y038604D01*
X044292Y038635D01*
X044334Y038663D01*
X044377Y038687D01*
X044423Y038708D01*
X044470Y038726D01*
X044519Y038739D01*
X044568Y038749D01*
X044618Y038755D01*
X044668Y038757D01*
X044718Y038755D01*
X044768Y038749D01*
X044817Y038739D01*
X044866Y038726D01*
X044913Y038708D01*
X044959Y038687D01*
X045002Y038663D01*
X045044Y038635D01*
X045084Y038604D01*
X045121Y038570D01*
X045155Y038533D01*
X045186Y038493D01*
X045214Y038451D01*
X045238Y038408D01*
X045259Y038362D01*
X045277Y038315D01*
X045290Y038266D01*
X045300Y038217D01*
X045306Y038167D01*
X045308Y038117D01*
X045306Y038067D01*
X045300Y038017D01*
X045290Y037968D01*
X045277Y037919D01*
X045259Y037872D01*
X045238Y037826D01*
X045214Y037783D01*
X045186Y037741D01*
X045155Y037701D01*
X045121Y037664D01*
X045084Y037630D01*
X045044Y037599D01*
X045002Y037571D01*
X044959Y037547D01*
X044913Y037526D01*
X044866Y037508D01*
X044817Y037495D01*
X044768Y037485D01*
X044718Y037479D01*
X044668Y037477D01*
X044618Y037479D01*
X044568Y037485D01*
X044519Y037495D01*
X044470Y037508D01*
X044423Y037526D01*
X044377Y037547D01*
X044334Y037571D01*
X044292Y037599D01*
X044252Y037630D01*
X044215Y037664D01*
X044181Y037701D01*
X044150Y037741D01*
X044122Y037783D01*
X044098Y037826D01*
X044077Y037872D01*
X044059Y037919D01*
X044046Y037968D01*
X044036Y038017D01*
X044030Y038067D01*
X044028Y038117D01*
X040028Y038117D02*
X040030Y038167D01*
X040036Y038217D01*
X040046Y038266D01*
X040059Y038315D01*
X040077Y038362D01*
X040098Y038408D01*
X040122Y038451D01*
X040150Y038493D01*
X040181Y038533D01*
X040215Y038570D01*
X040252Y038604D01*
X040292Y038635D01*
X040334Y038663D01*
X040377Y038687D01*
X040423Y038708D01*
X040470Y038726D01*
X040519Y038739D01*
X040568Y038749D01*
X040618Y038755D01*
X040668Y038757D01*
X040718Y038755D01*
X040768Y038749D01*
X040817Y038739D01*
X040866Y038726D01*
X040913Y038708D01*
X040959Y038687D01*
X041002Y038663D01*
X041044Y038635D01*
X041084Y038604D01*
X041121Y038570D01*
X041155Y038533D01*
X041186Y038493D01*
X041214Y038451D01*
X041238Y038408D01*
X041259Y038362D01*
X041277Y038315D01*
X041290Y038266D01*
X041300Y038217D01*
X041306Y038167D01*
X041308Y038117D01*
X041306Y038067D01*
X041300Y038017D01*
X041290Y037968D01*
X041277Y037919D01*
X041259Y037872D01*
X041238Y037826D01*
X041214Y037783D01*
X041186Y037741D01*
X041155Y037701D01*
X041121Y037664D01*
X041084Y037630D01*
X041044Y037599D01*
X041002Y037571D01*
X040959Y037547D01*
X040913Y037526D01*
X040866Y037508D01*
X040817Y037495D01*
X040768Y037485D01*
X040718Y037479D01*
X040668Y037477D01*
X040618Y037479D01*
X040568Y037485D01*
X040519Y037495D01*
X040470Y037508D01*
X040423Y037526D01*
X040377Y037547D01*
X040334Y037571D01*
X040292Y037599D01*
X040252Y037630D01*
X040215Y037664D01*
X040181Y037701D01*
X040150Y037741D01*
X040122Y037783D01*
X040098Y037826D01*
X040077Y037872D01*
X040059Y037919D01*
X040046Y037968D01*
X040036Y038017D01*
X040030Y038067D01*
X040028Y038117D01*
D11*
X045114Y014407D02*
X045027Y014321D01*
X045027Y014234D01*
X045114Y014147D01*
X045027Y014060D01*
X045027Y013974D01*
X045114Y013887D01*
X045288Y013887D01*
X045374Y013974D01*
X045543Y013887D02*
X045890Y013887D01*
X045716Y013887D02*
X045716Y014407D01*
X045890Y014234D01*
X046059Y014321D02*
X046406Y013974D01*
X046319Y013887D01*
X046145Y013887D01*
X046059Y013974D01*
X046059Y014321D01*
X046145Y014407D01*
X046319Y014407D01*
X046406Y014321D01*
X046406Y013974D01*
X046574Y013887D02*
X046921Y013887D01*
X046574Y014234D01*
X046574Y014321D01*
X046661Y014407D01*
X046835Y014407D01*
X046921Y014321D01*
X047090Y014147D02*
X047437Y014147D01*
X047606Y014147D02*
X047953Y014147D01*
X047953Y014234D02*
X047779Y014407D01*
X047606Y014234D01*
X047606Y013887D01*
X047953Y013887D02*
X047953Y014234D01*
X048121Y014234D02*
X048121Y014321D01*
X048208Y014407D01*
X048381Y014407D01*
X048468Y014321D01*
X048637Y014321D02*
X048637Y014147D01*
X048724Y014060D01*
X048984Y014060D01*
X048984Y013887D02*
X048984Y014407D01*
X048724Y014407D01*
X048637Y014321D01*
X048810Y014060D02*
X048637Y013887D01*
X048468Y013887D02*
X048121Y014234D01*
X048121Y013887D02*
X048468Y013887D01*
X049668Y014060D02*
X050015Y014060D01*
X050015Y013974D02*
X050015Y014147D01*
X049928Y014234D01*
X049755Y014234D01*
X049668Y014147D01*
X049668Y014060D01*
X049755Y013887D02*
X049928Y013887D01*
X050015Y013974D01*
X050185Y014234D02*
X050271Y014234D01*
X050445Y014060D01*
X050613Y014060D02*
X050874Y014060D01*
X050960Y013974D01*
X050874Y013887D01*
X050613Y013887D01*
X050613Y014147D01*
X050700Y014234D01*
X050874Y014234D01*
X051129Y014234D02*
X051129Y013974D01*
X051216Y013887D01*
X051303Y013974D01*
X051389Y013887D01*
X051476Y013974D01*
X051476Y014234D01*
X051646Y014234D02*
X051820Y014234D01*
X051733Y014321D02*
X051733Y013974D01*
X051646Y013887D01*
X052077Y013887D02*
X052077Y014321D01*
X051990Y014407D01*
X051990Y014147D02*
X052164Y014147D01*
X052332Y014147D02*
X052332Y013974D01*
X052419Y013887D01*
X052592Y013887D01*
X052679Y013974D01*
X052679Y014147D01*
X052592Y014234D01*
X052419Y014234D01*
X052332Y014147D01*
X052848Y014060D02*
X052848Y013974D01*
X052935Y013887D01*
X053108Y013887D01*
X053195Y013974D01*
X053108Y014147D02*
X052935Y014147D01*
X052848Y014060D01*
X052848Y014321D02*
X052935Y014407D01*
X053108Y014407D01*
X053195Y014321D01*
X053195Y014234D01*
X053108Y014147D01*
X053879Y014147D02*
X054226Y014147D01*
X054226Y014234D02*
X054053Y014407D01*
X053879Y014234D01*
X053879Y013887D01*
X054226Y013887D02*
X054226Y014234D01*
X054395Y014407D02*
X054395Y013887D01*
X054742Y014407D01*
X054742Y013887D01*
X055084Y013887D02*
X055084Y014407D01*
X055257Y014407D02*
X054910Y014407D01*
X055426Y014147D02*
X055773Y014147D01*
X055942Y014147D02*
X056289Y014147D01*
X056289Y013887D02*
X056289Y014407D01*
X055942Y014407D02*
X055942Y013887D01*
X056973Y013974D02*
X057060Y014060D01*
X057233Y014060D01*
X057320Y014147D01*
X057233Y014234D01*
X056973Y014234D01*
X056973Y013974D02*
X057060Y013887D01*
X057320Y013887D01*
X057489Y013887D02*
X057489Y014147D01*
X057575Y014234D01*
X057749Y014234D01*
X057749Y014060D02*
X057489Y014060D01*
X057489Y013887D02*
X057749Y013887D01*
X057836Y013974D01*
X057749Y014060D01*
X058004Y014147D02*
X058004Y013887D01*
X058178Y013887D02*
X058178Y014147D01*
X058091Y014234D01*
X058004Y014147D01*
X058178Y014147D02*
X058265Y014234D01*
X058351Y014234D01*
X058351Y013887D01*
X058520Y013974D02*
X058520Y014147D01*
X058607Y014234D01*
X058780Y014234D01*
X058867Y014147D01*
X058867Y013974D01*
X058780Y013887D01*
X058607Y013887D01*
X058520Y013974D01*
X059036Y013887D02*
X059036Y014147D01*
X059122Y014234D01*
X059296Y014234D01*
X059383Y014147D01*
X059383Y014407D02*
X059383Y013887D01*
X059725Y013887D02*
X059725Y014407D01*
X059898Y014407D02*
X059551Y014407D01*
X050445Y014234D02*
X050445Y013887D01*
X045374Y014321D02*
X045288Y014407D01*
X045114Y014407D01*
X045114Y014147D02*
X045201Y014147D01*
M02*
