G75*
G70*
%OFA0B0*%
%FSLAX24Y24*%
%IPPOS*%
%LPD*%
%AMOC8*
5,1,8,0,0,1.08239X$1,22.5*
%
%ADD10C,0.0000*%
%ADD11C,0.0040*%
%ADD12C,0.0030*%
%ADD13C,0.0100*%
%ADD14C,0.0060*%
%ADD15R,0.1000X0.0200*%
%ADD16R,0.0300X0.0750*%
%ADD17C,0.0050*%
%ADD18R,0.0800X0.0200*%
%ADD19R,0.0200X0.0250*%
%ADD20C,0.0020*%
%ADD21R,0.1600X0.0150*%
%ADD22R,0.0050X0.0350*%
%ADD23R,0.0450X0.0250*%
%ADD24R,0.1600X0.0250*%
%ADD25R,0.0200X0.4000*%
%ADD26R,0.0050X0.1550*%
%ADD27R,0.0200X0.1900*%
%ADD28C,0.0070*%
%ADD29C,0.0080*%
%ADD30C,0.0010*%
D10*
X025613Y013467D02*
X025613Y041026D01*
X074038Y041026D01*
X074038Y013467D01*
X025613Y013467D01*
X069017Y036021D02*
X069019Y036040D01*
X069024Y036059D01*
X069034Y036075D01*
X069046Y036090D01*
X069061Y036102D01*
X069077Y036112D01*
X069096Y036117D01*
X069115Y036119D01*
X069134Y036117D01*
X069153Y036112D01*
X069169Y036102D01*
X069184Y036090D01*
X069196Y036075D01*
X069206Y036059D01*
X069211Y036040D01*
X069213Y036021D01*
X069211Y036002D01*
X069206Y035983D01*
X069196Y035967D01*
X069184Y035952D01*
X069169Y035940D01*
X069153Y035930D01*
X069134Y035925D01*
X069115Y035923D01*
X069096Y035925D01*
X069077Y035930D01*
X069061Y035940D01*
X069046Y035952D01*
X069034Y035967D01*
X069024Y035983D01*
X069019Y036002D01*
X069017Y036021D01*
X068919Y037617D02*
X068921Y037642D01*
X068927Y037666D01*
X068936Y037688D01*
X068949Y037709D01*
X068965Y037728D01*
X068984Y037744D01*
X069005Y037757D01*
X069027Y037766D01*
X069051Y037772D01*
X069076Y037774D01*
X069101Y037772D01*
X069125Y037766D01*
X069147Y037757D01*
X069168Y037744D01*
X069187Y037728D01*
X069203Y037709D01*
X069216Y037688D01*
X069225Y037666D01*
X069231Y037642D01*
X069233Y037617D01*
X069231Y037592D01*
X069225Y037568D01*
X069216Y037546D01*
X069203Y037525D01*
X069187Y037506D01*
X069168Y037490D01*
X069147Y037477D01*
X069125Y037468D01*
X069101Y037462D01*
X069076Y037460D01*
X069051Y037462D01*
X069027Y037468D01*
X069005Y037477D01*
X068984Y037490D01*
X068965Y037506D01*
X068949Y037525D01*
X068936Y037546D01*
X068927Y037568D01*
X068921Y037592D01*
X068919Y037617D01*
X068604Y037617D02*
X068606Y037642D01*
X068612Y037666D01*
X068621Y037688D01*
X068634Y037709D01*
X068650Y037728D01*
X068669Y037744D01*
X068690Y037757D01*
X068712Y037766D01*
X068736Y037772D01*
X068761Y037774D01*
X068786Y037772D01*
X068810Y037766D01*
X068832Y037757D01*
X068853Y037744D01*
X068872Y037728D01*
X068888Y037709D01*
X068901Y037688D01*
X068910Y037666D01*
X068916Y037642D01*
X068918Y037617D01*
X068916Y037592D01*
X068910Y037568D01*
X068901Y037546D01*
X068888Y037525D01*
X068872Y037506D01*
X068853Y037490D01*
X068832Y037477D01*
X068810Y037468D01*
X068786Y037462D01*
X068761Y037460D01*
X068736Y037462D01*
X068712Y037468D01*
X068690Y037477D01*
X068669Y037490D01*
X068650Y037506D01*
X068634Y037525D01*
X068621Y037546D01*
X068612Y037568D01*
X068606Y037592D01*
X068604Y037617D01*
X063528Y038117D02*
X063530Y038167D01*
X063536Y038217D01*
X063546Y038266D01*
X063559Y038315D01*
X063577Y038362D01*
X063598Y038408D01*
X063622Y038451D01*
X063650Y038493D01*
X063681Y038533D01*
X063715Y038570D01*
X063752Y038604D01*
X063792Y038635D01*
X063834Y038663D01*
X063877Y038687D01*
X063923Y038708D01*
X063970Y038726D01*
X064019Y038739D01*
X064068Y038749D01*
X064118Y038755D01*
X064168Y038757D01*
X064218Y038755D01*
X064268Y038749D01*
X064317Y038739D01*
X064366Y038726D01*
X064413Y038708D01*
X064459Y038687D01*
X064502Y038663D01*
X064544Y038635D01*
X064584Y038604D01*
X064621Y038570D01*
X064655Y038533D01*
X064686Y038493D01*
X064714Y038451D01*
X064738Y038408D01*
X064759Y038362D01*
X064777Y038315D01*
X064790Y038266D01*
X064800Y038217D01*
X064806Y038167D01*
X064808Y038117D01*
X064806Y038067D01*
X064800Y038017D01*
X064790Y037968D01*
X064777Y037919D01*
X064759Y037872D01*
X064738Y037826D01*
X064714Y037783D01*
X064686Y037741D01*
X064655Y037701D01*
X064621Y037664D01*
X064584Y037630D01*
X064544Y037599D01*
X064502Y037571D01*
X064459Y037547D01*
X064413Y037526D01*
X064366Y037508D01*
X064317Y037495D01*
X064268Y037485D01*
X064218Y037479D01*
X064168Y037477D01*
X064118Y037479D01*
X064068Y037485D01*
X064019Y037495D01*
X063970Y037508D01*
X063923Y037526D01*
X063877Y037547D01*
X063834Y037571D01*
X063792Y037599D01*
X063752Y037630D01*
X063715Y037664D01*
X063681Y037701D01*
X063650Y037741D01*
X063622Y037783D01*
X063598Y037826D01*
X063577Y037872D01*
X063559Y037919D01*
X063546Y037968D01*
X063536Y038017D01*
X063530Y038067D01*
X063528Y038117D01*
X059528Y038117D02*
X059530Y038167D01*
X059536Y038217D01*
X059546Y038266D01*
X059559Y038315D01*
X059577Y038362D01*
X059598Y038408D01*
X059622Y038451D01*
X059650Y038493D01*
X059681Y038533D01*
X059715Y038570D01*
X059752Y038604D01*
X059792Y038635D01*
X059834Y038663D01*
X059877Y038687D01*
X059923Y038708D01*
X059970Y038726D01*
X060019Y038739D01*
X060068Y038749D01*
X060118Y038755D01*
X060168Y038757D01*
X060218Y038755D01*
X060268Y038749D01*
X060317Y038739D01*
X060366Y038726D01*
X060413Y038708D01*
X060459Y038687D01*
X060502Y038663D01*
X060544Y038635D01*
X060584Y038604D01*
X060621Y038570D01*
X060655Y038533D01*
X060686Y038493D01*
X060714Y038451D01*
X060738Y038408D01*
X060759Y038362D01*
X060777Y038315D01*
X060790Y038266D01*
X060800Y038217D01*
X060806Y038167D01*
X060808Y038117D01*
X060806Y038067D01*
X060800Y038017D01*
X060790Y037968D01*
X060777Y037919D01*
X060759Y037872D01*
X060738Y037826D01*
X060714Y037783D01*
X060686Y037741D01*
X060655Y037701D01*
X060621Y037664D01*
X060584Y037630D01*
X060544Y037599D01*
X060502Y037571D01*
X060459Y037547D01*
X060413Y037526D01*
X060366Y037508D01*
X060317Y037495D01*
X060268Y037485D01*
X060218Y037479D01*
X060168Y037477D01*
X060118Y037479D01*
X060068Y037485D01*
X060019Y037495D01*
X059970Y037508D01*
X059923Y037526D01*
X059877Y037547D01*
X059834Y037571D01*
X059792Y037599D01*
X059752Y037630D01*
X059715Y037664D01*
X059681Y037701D01*
X059650Y037741D01*
X059622Y037783D01*
X059598Y037826D01*
X059577Y037872D01*
X059559Y037919D01*
X059546Y037968D01*
X059536Y038017D01*
X059530Y038067D01*
X059528Y038117D01*
X057028Y038117D02*
X057030Y038167D01*
X057036Y038217D01*
X057046Y038266D01*
X057059Y038315D01*
X057077Y038362D01*
X057098Y038408D01*
X057122Y038451D01*
X057150Y038493D01*
X057181Y038533D01*
X057215Y038570D01*
X057252Y038604D01*
X057292Y038635D01*
X057334Y038663D01*
X057377Y038687D01*
X057423Y038708D01*
X057470Y038726D01*
X057519Y038739D01*
X057568Y038749D01*
X057618Y038755D01*
X057668Y038757D01*
X057718Y038755D01*
X057768Y038749D01*
X057817Y038739D01*
X057866Y038726D01*
X057913Y038708D01*
X057959Y038687D01*
X058002Y038663D01*
X058044Y038635D01*
X058084Y038604D01*
X058121Y038570D01*
X058155Y038533D01*
X058186Y038493D01*
X058214Y038451D01*
X058238Y038408D01*
X058259Y038362D01*
X058277Y038315D01*
X058290Y038266D01*
X058300Y038217D01*
X058306Y038167D01*
X058308Y038117D01*
X058306Y038067D01*
X058300Y038017D01*
X058290Y037968D01*
X058277Y037919D01*
X058259Y037872D01*
X058238Y037826D01*
X058214Y037783D01*
X058186Y037741D01*
X058155Y037701D01*
X058121Y037664D01*
X058084Y037630D01*
X058044Y037599D01*
X058002Y037571D01*
X057959Y037547D01*
X057913Y037526D01*
X057866Y037508D01*
X057817Y037495D01*
X057768Y037485D01*
X057718Y037479D01*
X057668Y037477D01*
X057618Y037479D01*
X057568Y037485D01*
X057519Y037495D01*
X057470Y037508D01*
X057423Y037526D01*
X057377Y037547D01*
X057334Y037571D01*
X057292Y037599D01*
X057252Y037630D01*
X057215Y037664D01*
X057181Y037701D01*
X057150Y037741D01*
X057122Y037783D01*
X057098Y037826D01*
X057077Y037872D01*
X057059Y037919D01*
X057046Y037968D01*
X057036Y038017D01*
X057030Y038067D01*
X057028Y038117D01*
X053028Y038117D02*
X053030Y038167D01*
X053036Y038217D01*
X053046Y038266D01*
X053059Y038315D01*
X053077Y038362D01*
X053098Y038408D01*
X053122Y038451D01*
X053150Y038493D01*
X053181Y038533D01*
X053215Y038570D01*
X053252Y038604D01*
X053292Y038635D01*
X053334Y038663D01*
X053377Y038687D01*
X053423Y038708D01*
X053470Y038726D01*
X053519Y038739D01*
X053568Y038749D01*
X053618Y038755D01*
X053668Y038757D01*
X053718Y038755D01*
X053768Y038749D01*
X053817Y038739D01*
X053866Y038726D01*
X053913Y038708D01*
X053959Y038687D01*
X054002Y038663D01*
X054044Y038635D01*
X054084Y038604D01*
X054121Y038570D01*
X054155Y038533D01*
X054186Y038493D01*
X054214Y038451D01*
X054238Y038408D01*
X054259Y038362D01*
X054277Y038315D01*
X054290Y038266D01*
X054300Y038217D01*
X054306Y038167D01*
X054308Y038117D01*
X054306Y038067D01*
X054300Y038017D01*
X054290Y037968D01*
X054277Y037919D01*
X054259Y037872D01*
X054238Y037826D01*
X054214Y037783D01*
X054186Y037741D01*
X054155Y037701D01*
X054121Y037664D01*
X054084Y037630D01*
X054044Y037599D01*
X054002Y037571D01*
X053959Y037547D01*
X053913Y037526D01*
X053866Y037508D01*
X053817Y037495D01*
X053768Y037485D01*
X053718Y037479D01*
X053668Y037477D01*
X053618Y037479D01*
X053568Y037485D01*
X053519Y037495D01*
X053470Y037508D01*
X053423Y037526D01*
X053377Y037547D01*
X053334Y037571D01*
X053292Y037599D01*
X053252Y037630D01*
X053215Y037664D01*
X053181Y037701D01*
X053150Y037741D01*
X053122Y037783D01*
X053098Y037826D01*
X053077Y037872D01*
X053059Y037919D01*
X053046Y037968D01*
X053036Y038017D01*
X053030Y038067D01*
X053028Y038117D01*
X050528Y038117D02*
X050530Y038167D01*
X050536Y038217D01*
X050546Y038266D01*
X050559Y038315D01*
X050577Y038362D01*
X050598Y038408D01*
X050622Y038451D01*
X050650Y038493D01*
X050681Y038533D01*
X050715Y038570D01*
X050752Y038604D01*
X050792Y038635D01*
X050834Y038663D01*
X050877Y038687D01*
X050923Y038708D01*
X050970Y038726D01*
X051019Y038739D01*
X051068Y038749D01*
X051118Y038755D01*
X051168Y038757D01*
X051218Y038755D01*
X051268Y038749D01*
X051317Y038739D01*
X051366Y038726D01*
X051413Y038708D01*
X051459Y038687D01*
X051502Y038663D01*
X051544Y038635D01*
X051584Y038604D01*
X051621Y038570D01*
X051655Y038533D01*
X051686Y038493D01*
X051714Y038451D01*
X051738Y038408D01*
X051759Y038362D01*
X051777Y038315D01*
X051790Y038266D01*
X051800Y038217D01*
X051806Y038167D01*
X051808Y038117D01*
X051806Y038067D01*
X051800Y038017D01*
X051790Y037968D01*
X051777Y037919D01*
X051759Y037872D01*
X051738Y037826D01*
X051714Y037783D01*
X051686Y037741D01*
X051655Y037701D01*
X051621Y037664D01*
X051584Y037630D01*
X051544Y037599D01*
X051502Y037571D01*
X051459Y037547D01*
X051413Y037526D01*
X051366Y037508D01*
X051317Y037495D01*
X051268Y037485D01*
X051218Y037479D01*
X051168Y037477D01*
X051118Y037479D01*
X051068Y037485D01*
X051019Y037495D01*
X050970Y037508D01*
X050923Y037526D01*
X050877Y037547D01*
X050834Y037571D01*
X050792Y037599D01*
X050752Y037630D01*
X050715Y037664D01*
X050681Y037701D01*
X050650Y037741D01*
X050622Y037783D01*
X050598Y037826D01*
X050577Y037872D01*
X050559Y037919D01*
X050546Y037968D01*
X050536Y038017D01*
X050530Y038067D01*
X050528Y038117D01*
X046528Y038117D02*
X046530Y038167D01*
X046536Y038217D01*
X046546Y038266D01*
X046559Y038315D01*
X046577Y038362D01*
X046598Y038408D01*
X046622Y038451D01*
X046650Y038493D01*
X046681Y038533D01*
X046715Y038570D01*
X046752Y038604D01*
X046792Y038635D01*
X046834Y038663D01*
X046877Y038687D01*
X046923Y038708D01*
X046970Y038726D01*
X047019Y038739D01*
X047068Y038749D01*
X047118Y038755D01*
X047168Y038757D01*
X047218Y038755D01*
X047268Y038749D01*
X047317Y038739D01*
X047366Y038726D01*
X047413Y038708D01*
X047459Y038687D01*
X047502Y038663D01*
X047544Y038635D01*
X047584Y038604D01*
X047621Y038570D01*
X047655Y038533D01*
X047686Y038493D01*
X047714Y038451D01*
X047738Y038408D01*
X047759Y038362D01*
X047777Y038315D01*
X047790Y038266D01*
X047800Y038217D01*
X047806Y038167D01*
X047808Y038117D01*
X047806Y038067D01*
X047800Y038017D01*
X047790Y037968D01*
X047777Y037919D01*
X047759Y037872D01*
X047738Y037826D01*
X047714Y037783D01*
X047686Y037741D01*
X047655Y037701D01*
X047621Y037664D01*
X047584Y037630D01*
X047544Y037599D01*
X047502Y037571D01*
X047459Y037547D01*
X047413Y037526D01*
X047366Y037508D01*
X047317Y037495D01*
X047268Y037485D01*
X047218Y037479D01*
X047168Y037477D01*
X047118Y037479D01*
X047068Y037485D01*
X047019Y037495D01*
X046970Y037508D01*
X046923Y037526D01*
X046877Y037547D01*
X046834Y037571D01*
X046792Y037599D01*
X046752Y037630D01*
X046715Y037664D01*
X046681Y037701D01*
X046650Y037741D01*
X046622Y037783D01*
X046598Y037826D01*
X046577Y037872D01*
X046559Y037919D01*
X046546Y037968D01*
X046536Y038017D01*
X046530Y038067D01*
X046528Y038117D01*
X044028Y038117D02*
X044030Y038167D01*
X044036Y038217D01*
X044046Y038266D01*
X044059Y038315D01*
X044077Y038362D01*
X044098Y038408D01*
X044122Y038451D01*
X044150Y038493D01*
X044181Y038533D01*
X044215Y038570D01*
X044252Y038604D01*
X044292Y038635D01*
X044334Y038663D01*
X044377Y038687D01*
X044423Y038708D01*
X044470Y038726D01*
X044519Y038739D01*
X044568Y038749D01*
X044618Y038755D01*
X044668Y038757D01*
X044718Y038755D01*
X044768Y038749D01*
X044817Y038739D01*
X044866Y038726D01*
X044913Y038708D01*
X044959Y038687D01*
X045002Y038663D01*
X045044Y038635D01*
X045084Y038604D01*
X045121Y038570D01*
X045155Y038533D01*
X045186Y038493D01*
X045214Y038451D01*
X045238Y038408D01*
X045259Y038362D01*
X045277Y038315D01*
X045290Y038266D01*
X045300Y038217D01*
X045306Y038167D01*
X045308Y038117D01*
X045306Y038067D01*
X045300Y038017D01*
X045290Y037968D01*
X045277Y037919D01*
X045259Y037872D01*
X045238Y037826D01*
X045214Y037783D01*
X045186Y037741D01*
X045155Y037701D01*
X045121Y037664D01*
X045084Y037630D01*
X045044Y037599D01*
X045002Y037571D01*
X044959Y037547D01*
X044913Y037526D01*
X044866Y037508D01*
X044817Y037495D01*
X044768Y037485D01*
X044718Y037479D01*
X044668Y037477D01*
X044618Y037479D01*
X044568Y037485D01*
X044519Y037495D01*
X044470Y037508D01*
X044423Y037526D01*
X044377Y037547D01*
X044334Y037571D01*
X044292Y037599D01*
X044252Y037630D01*
X044215Y037664D01*
X044181Y037701D01*
X044150Y037741D01*
X044122Y037783D01*
X044098Y037826D01*
X044077Y037872D01*
X044059Y037919D01*
X044046Y037968D01*
X044036Y038017D01*
X044030Y038067D01*
X044028Y038117D01*
X040028Y038117D02*
X040030Y038167D01*
X040036Y038217D01*
X040046Y038266D01*
X040059Y038315D01*
X040077Y038362D01*
X040098Y038408D01*
X040122Y038451D01*
X040150Y038493D01*
X040181Y038533D01*
X040215Y038570D01*
X040252Y038604D01*
X040292Y038635D01*
X040334Y038663D01*
X040377Y038687D01*
X040423Y038708D01*
X040470Y038726D01*
X040519Y038739D01*
X040568Y038749D01*
X040618Y038755D01*
X040668Y038757D01*
X040718Y038755D01*
X040768Y038749D01*
X040817Y038739D01*
X040866Y038726D01*
X040913Y038708D01*
X040959Y038687D01*
X041002Y038663D01*
X041044Y038635D01*
X041084Y038604D01*
X041121Y038570D01*
X041155Y038533D01*
X041186Y038493D01*
X041214Y038451D01*
X041238Y038408D01*
X041259Y038362D01*
X041277Y038315D01*
X041290Y038266D01*
X041300Y038217D01*
X041306Y038167D01*
X041308Y038117D01*
X041306Y038067D01*
X041300Y038017D01*
X041290Y037968D01*
X041277Y037919D01*
X041259Y037872D01*
X041238Y037826D01*
X041214Y037783D01*
X041186Y037741D01*
X041155Y037701D01*
X041121Y037664D01*
X041084Y037630D01*
X041044Y037599D01*
X041002Y037571D01*
X040959Y037547D01*
X040913Y037526D01*
X040866Y037508D01*
X040817Y037495D01*
X040768Y037485D01*
X040718Y037479D01*
X040668Y037477D01*
X040618Y037479D01*
X040568Y037485D01*
X040519Y037495D01*
X040470Y037508D01*
X040423Y037526D01*
X040377Y037547D01*
X040334Y037571D01*
X040292Y037599D01*
X040252Y037630D01*
X040215Y037664D01*
X040181Y037701D01*
X040150Y037741D01*
X040122Y037783D01*
X040098Y037826D01*
X040077Y037872D01*
X040059Y037919D01*
X040046Y037968D01*
X040036Y038017D01*
X040030Y038067D01*
X040028Y038117D01*
D11*
X038660Y038387D02*
X038660Y038734D01*
X038487Y038907D01*
X038313Y038734D01*
X038313Y038387D01*
X038145Y038474D02*
X038058Y038387D01*
X037884Y038387D01*
X037798Y038474D01*
X037627Y038474D02*
X037541Y038474D01*
X037541Y038387D01*
X037627Y038387D01*
X037627Y038474D01*
X037627Y038387D02*
X037454Y038214D01*
X037198Y038387D02*
X037025Y038387D01*
X036938Y038474D01*
X037285Y038821D01*
X037285Y038474D01*
X037198Y038387D01*
X036938Y038474D02*
X036938Y038821D01*
X037025Y038907D01*
X037198Y038907D01*
X037285Y038821D01*
X037798Y038907D02*
X037798Y038647D01*
X037971Y038734D01*
X038058Y038734D01*
X038145Y038647D01*
X038145Y038474D01*
X038313Y038647D02*
X038660Y038647D01*
X038145Y038907D02*
X037798Y038907D01*
X040188Y039887D02*
X040188Y040234D01*
X040362Y040407D01*
X040535Y040234D01*
X040535Y039887D01*
X040704Y039887D02*
X040704Y040407D01*
X041051Y039887D01*
X041051Y040407D01*
X041219Y040407D02*
X041219Y039887D01*
X041566Y039887D01*
X041735Y039887D02*
X041735Y040407D01*
X041909Y040234D01*
X042082Y040407D01*
X042082Y039887D01*
X042251Y039974D02*
X042337Y039887D01*
X042511Y039887D01*
X042598Y039974D01*
X042598Y040321D01*
X042511Y040407D01*
X042337Y040407D01*
X042251Y040321D01*
X042251Y039974D01*
X042766Y039887D02*
X042766Y040407D01*
X042940Y040234D01*
X043113Y040407D01*
X043113Y039887D01*
X043282Y039887D02*
X043629Y039887D01*
X043456Y040147D02*
X043282Y040147D01*
X043282Y040407D02*
X043282Y039887D01*
X043282Y040407D02*
X043629Y040407D01*
X043798Y040407D02*
X044145Y040407D01*
X044313Y040407D02*
X044313Y039887D01*
X044660Y039887D01*
X044829Y039887D02*
X044829Y040407D01*
X045089Y040407D01*
X045176Y040321D01*
X045176Y040147D01*
X045089Y040060D01*
X044829Y040060D01*
X045002Y040060D02*
X045176Y039887D01*
X044660Y040407D02*
X044313Y040407D01*
X044313Y040147D02*
X044487Y040147D01*
X043971Y039887D02*
X043971Y040407D01*
X041566Y040407D02*
X041219Y040407D01*
X041219Y040147D02*
X041393Y040147D01*
X040535Y040147D02*
X040188Y040147D01*
X035270Y040240D02*
X035270Y040674D01*
X035009Y040674D01*
X034923Y040587D01*
X034923Y040414D01*
X035009Y040327D01*
X035270Y040327D01*
X035270Y040240D02*
X035183Y040154D01*
X035096Y040154D01*
X034754Y040327D02*
X034754Y040587D01*
X034667Y040674D01*
X034494Y040674D01*
X034494Y040500D02*
X034754Y040500D01*
X034754Y040327D02*
X034494Y040327D01*
X034407Y040414D01*
X034494Y040500D01*
X034237Y040327D02*
X034063Y040327D01*
X034150Y040327D02*
X034150Y040847D01*
X034063Y040847D01*
X033379Y040587D02*
X033379Y040500D01*
X033032Y040500D01*
X033032Y040414D02*
X033032Y040587D01*
X033119Y040674D01*
X033292Y040674D01*
X033379Y040587D01*
X033292Y040327D02*
X033119Y040327D01*
X033032Y040414D01*
X032863Y040327D02*
X032863Y040587D01*
X032776Y040674D01*
X032690Y040587D01*
X032690Y040327D01*
X032516Y040327D02*
X032516Y040674D01*
X032603Y040674D01*
X032690Y040587D01*
X032346Y040327D02*
X032172Y040327D01*
X032259Y040327D02*
X032259Y040674D01*
X032172Y040674D01*
X032002Y040674D02*
X031829Y040674D01*
X031915Y040761D02*
X031915Y040414D01*
X032002Y040327D01*
X032259Y040847D02*
X032259Y040934D01*
X031144Y040674D02*
X031144Y040327D01*
X031144Y040587D02*
X030797Y040587D01*
X030797Y040674D02*
X030971Y040847D01*
X031144Y040674D01*
X030797Y040674D02*
X030797Y040327D01*
X030716Y040250D02*
X030716Y040164D01*
X030630Y040077D01*
X030456Y040077D01*
X030369Y040164D01*
X030282Y040327D02*
X030629Y040674D01*
X030629Y040761D01*
X030542Y040847D01*
X030369Y040847D01*
X030282Y040761D01*
X030201Y040597D02*
X030027Y040597D01*
X030114Y040597D02*
X030114Y040164D01*
X030027Y040077D01*
X029940Y040077D01*
X029854Y040164D01*
X030282Y040327D02*
X030629Y040327D01*
X030630Y040337D02*
X030716Y040250D01*
X030630Y040337D02*
X030543Y040337D01*
X030630Y040337D02*
X030716Y040424D01*
X030716Y040511D01*
X030630Y040597D01*
X030456Y040597D01*
X030369Y040511D01*
X047188Y040321D02*
X047188Y040234D01*
X047275Y040147D01*
X047448Y040147D01*
X047535Y040060D01*
X047535Y039974D01*
X047448Y039887D01*
X047275Y039887D01*
X047188Y039974D01*
X047188Y040321D02*
X047275Y040407D01*
X047448Y040407D01*
X047535Y040321D01*
X047704Y040407D02*
X047704Y039887D01*
X048051Y039887D01*
X048219Y039887D02*
X048219Y040407D01*
X048566Y039887D01*
X048566Y040407D01*
X048735Y040321D02*
X048735Y040234D01*
X048822Y040147D01*
X048995Y040147D01*
X049082Y040060D01*
X049082Y039974D01*
X048995Y039887D01*
X048822Y039887D01*
X048735Y039974D01*
X048735Y040321D02*
X048822Y040407D01*
X048995Y040407D01*
X049082Y040321D01*
X049251Y040321D02*
X049251Y039974D01*
X049337Y039887D01*
X049511Y039887D01*
X049598Y039974D01*
X049598Y040321D01*
X049511Y040407D01*
X049337Y040407D01*
X049251Y040321D01*
X049766Y040407D02*
X050027Y040407D01*
X050113Y040321D01*
X050113Y040147D01*
X050027Y040060D01*
X049766Y040060D01*
X049766Y039887D02*
X049766Y040407D01*
X049940Y040060D02*
X050113Y039887D01*
X050798Y039887D02*
X050798Y040234D01*
X050971Y040407D01*
X051145Y040234D01*
X051145Y039887D01*
X051145Y040147D02*
X050798Y040147D01*
X048051Y040407D02*
X047704Y040407D01*
X047704Y040147D02*
X047877Y040147D01*
X053938Y040234D02*
X054025Y040147D01*
X054198Y040147D01*
X054285Y040060D01*
X054285Y039974D01*
X054198Y039887D01*
X054025Y039887D01*
X053938Y039974D01*
X053938Y040234D02*
X053938Y040321D01*
X054025Y040407D01*
X054198Y040407D01*
X054285Y040321D01*
X054454Y040407D02*
X054454Y039887D01*
X054801Y039887D01*
X054969Y039887D02*
X054969Y040407D01*
X055316Y039887D01*
X055316Y040407D01*
X055485Y040321D02*
X055485Y040234D01*
X055572Y040147D01*
X055745Y040147D01*
X055832Y040060D01*
X055832Y039974D01*
X055745Y039887D01*
X055572Y039887D01*
X055485Y039974D01*
X055485Y040321D02*
X055572Y040407D01*
X055745Y040407D01*
X055832Y040321D01*
X056001Y040321D02*
X056001Y039974D01*
X056087Y039887D01*
X056261Y039887D01*
X056348Y039974D01*
X056348Y040321D01*
X056261Y040407D01*
X056087Y040407D01*
X056001Y040321D01*
X056516Y040407D02*
X056516Y039887D01*
X056516Y040060D02*
X056777Y040060D01*
X056863Y040147D01*
X056863Y040321D01*
X056777Y040407D01*
X056516Y040407D01*
X056690Y040060D02*
X056863Y039887D01*
X057548Y039887D02*
X057548Y040407D01*
X057808Y040407D01*
X057895Y040321D01*
X057895Y040234D01*
X057808Y040147D01*
X057548Y040147D01*
X057808Y040147D02*
X057895Y040060D01*
X057895Y039974D01*
X057808Y039887D01*
X057548Y039887D01*
X060188Y039974D02*
X060275Y039887D01*
X060448Y039887D01*
X060535Y039974D01*
X060535Y040060D01*
X060448Y040147D01*
X060275Y040147D01*
X060188Y040234D01*
X060188Y040321D01*
X060275Y040407D01*
X060448Y040407D01*
X060535Y040321D01*
X060704Y040407D02*
X060704Y039887D01*
X061051Y039887D01*
X061219Y039887D02*
X061219Y040407D01*
X061566Y039887D01*
X061566Y040407D01*
X061735Y040321D02*
X061735Y040234D01*
X061822Y040147D01*
X061995Y040147D01*
X062082Y040060D01*
X062082Y039974D01*
X061995Y039887D01*
X061822Y039887D01*
X061735Y039974D01*
X061735Y040321D02*
X061822Y040407D01*
X061995Y040407D01*
X062082Y040321D01*
X062251Y040321D02*
X062251Y039974D01*
X062337Y039887D01*
X062511Y039887D01*
X062598Y039974D01*
X062598Y040321D01*
X062511Y040407D01*
X062337Y040407D01*
X062251Y040321D01*
X062766Y040407D02*
X062766Y039887D01*
X062766Y040060D02*
X063027Y040060D01*
X063113Y040147D01*
X063113Y040321D01*
X063027Y040407D01*
X062766Y040407D01*
X062940Y040060D02*
X063113Y039887D01*
X063798Y039974D02*
X063798Y040321D01*
X063884Y040407D01*
X064058Y040407D01*
X064145Y040321D01*
X064145Y039974D02*
X064058Y039887D01*
X063884Y039887D01*
X063798Y039974D01*
X066447Y039721D02*
X066447Y039415D01*
X066524Y039338D01*
X066677Y039338D01*
X066754Y039415D01*
X066907Y039338D02*
X067214Y039338D01*
X067061Y039338D02*
X067061Y039798D01*
X066907Y039645D01*
X066754Y039721D02*
X066677Y039798D01*
X066524Y039798D01*
X066447Y039721D01*
X067368Y039568D02*
X067674Y039568D01*
X067598Y039798D02*
X067368Y039568D01*
X067598Y039338D02*
X067598Y039798D01*
X068688Y038847D02*
X068688Y038464D01*
X068765Y038387D01*
X068918Y038387D01*
X068995Y038464D01*
X068995Y038847D01*
X069149Y038617D02*
X069379Y038617D01*
X069456Y038540D01*
X069456Y038464D01*
X069379Y038387D01*
X069225Y038387D01*
X069149Y038464D01*
X069149Y038617D01*
X069302Y038771D01*
X069456Y038847D01*
X066668Y037375D02*
X066592Y037452D01*
X066438Y037452D01*
X066362Y037375D01*
X066362Y037298D01*
X066438Y037145D01*
X066208Y037145D01*
X066208Y037452D01*
X066668Y037375D02*
X066668Y037221D01*
X066592Y037145D01*
X066668Y036991D02*
X066668Y036684D01*
X066668Y036838D02*
X066208Y036838D01*
X066362Y036684D01*
X066285Y036531D02*
X066208Y036454D01*
X066208Y036301D01*
X066285Y036224D01*
X066592Y036224D01*
X066668Y036301D01*
X066668Y036454D01*
X066592Y036531D01*
X065648Y036464D02*
X065648Y036617D01*
X065571Y036694D01*
X065418Y036847D02*
X065418Y037154D01*
X065648Y037078D02*
X065188Y037078D01*
X065418Y036847D01*
X065265Y036694D02*
X065188Y036617D01*
X065188Y036464D01*
X065265Y036387D01*
X065571Y036387D01*
X065648Y036464D01*
X070688Y036080D02*
X070841Y036234D01*
X071148Y036234D01*
X070918Y036234D02*
X070918Y035927D01*
X070841Y035927D02*
X070688Y036080D01*
X070841Y035927D02*
X071148Y035927D01*
X071225Y035773D02*
X071225Y035466D01*
X071071Y035313D02*
X071148Y035236D01*
X071148Y035083D01*
X071071Y035006D01*
X070765Y035006D01*
X070688Y035083D01*
X070688Y035236D01*
X070765Y035313D01*
X070765Y034852D02*
X070688Y034776D01*
X070688Y034622D01*
X070765Y034545D01*
X070688Y034392D02*
X070688Y034239D01*
X070688Y034315D02*
X071148Y034315D01*
X071148Y034239D02*
X071148Y034392D01*
X071148Y034545D02*
X070841Y034852D01*
X070765Y034852D01*
X071148Y034852D02*
X071148Y034545D01*
X068443Y033770D02*
X068443Y033463D01*
X068137Y033770D01*
X068060Y033770D01*
X067983Y033694D01*
X067983Y033540D01*
X068060Y033463D01*
X068060Y033310D02*
X068137Y033310D01*
X068213Y033233D01*
X068290Y033310D01*
X068367Y033310D01*
X068443Y033233D01*
X068443Y033080D01*
X068367Y033003D01*
X068443Y032849D02*
X068290Y032696D01*
X068290Y032773D02*
X068290Y032543D01*
X068443Y032543D02*
X067983Y032543D01*
X067983Y032773D01*
X068060Y032849D01*
X068213Y032849D01*
X068290Y032773D01*
X068060Y033003D02*
X067983Y033080D01*
X067983Y033233D01*
X068060Y033310D01*
X068213Y033233D02*
X068213Y033156D01*
X067693Y033310D02*
X067693Y033003D01*
X067387Y033310D01*
X067310Y033310D01*
X067233Y033233D01*
X067233Y033080D01*
X067310Y033003D01*
X067310Y032849D02*
X067463Y032849D01*
X067540Y032773D01*
X067540Y032543D01*
X067540Y032696D02*
X067693Y032849D01*
X067693Y032543D02*
X067233Y032543D01*
X067233Y032773D01*
X067310Y032849D01*
X067310Y033463D02*
X067387Y033463D01*
X067463Y033540D01*
X067463Y033770D01*
X067310Y033770D02*
X067233Y033694D01*
X067233Y033540D01*
X067310Y033463D01*
X067617Y033463D02*
X067693Y033540D01*
X067693Y033694D01*
X067617Y033770D01*
X067310Y033770D01*
X065773Y033407D02*
X065313Y033407D01*
X065543Y033177D01*
X065543Y033484D01*
X065773Y033023D02*
X065773Y032716D01*
X065773Y032563D02*
X065620Y032409D01*
X065620Y032486D02*
X065620Y032256D01*
X065773Y032256D02*
X065313Y032256D01*
X065313Y032486D01*
X065390Y032563D01*
X065543Y032563D01*
X065620Y032486D01*
X065466Y032716D02*
X065313Y032870D01*
X065773Y032870D01*
X065759Y031654D02*
X065452Y031654D01*
X065375Y031578D01*
X065375Y031424D01*
X065452Y031347D01*
X065529Y031347D01*
X065605Y031424D01*
X065605Y031654D01*
X065759Y031654D02*
X065836Y031578D01*
X065836Y031424D01*
X065759Y031347D01*
X065836Y031194D02*
X065682Y031040D01*
X065682Y031117D02*
X065682Y030887D01*
X065836Y030887D02*
X065375Y030887D01*
X065375Y031117D01*
X065452Y031194D01*
X065605Y031194D01*
X065682Y031117D01*
X061956Y029821D02*
X061956Y029744D01*
X061649Y029437D01*
X061956Y029437D01*
X061956Y029821D02*
X061879Y029897D01*
X061725Y029897D01*
X061649Y029821D01*
X061495Y029897D02*
X061495Y029514D01*
X061418Y029437D01*
X061265Y029437D01*
X061188Y029514D01*
X061188Y029897D01*
X060398Y029828D02*
X060398Y029674D01*
X060321Y029597D01*
X060245Y029597D01*
X060168Y029674D01*
X060168Y029828D01*
X060245Y029904D01*
X060321Y029904D01*
X060398Y029828D01*
X060168Y029828D02*
X060091Y029904D01*
X060015Y029904D01*
X059938Y029828D01*
X059938Y029674D01*
X060015Y029597D01*
X060091Y029597D01*
X060168Y029674D01*
X060168Y029444D02*
X060245Y029367D01*
X060245Y029137D01*
X060398Y029137D02*
X059938Y029137D01*
X059938Y029367D01*
X060015Y029444D01*
X060168Y029444D01*
X060245Y029290D02*
X060398Y029444D01*
X059336Y030387D02*
X058875Y030387D01*
X058875Y030617D01*
X058952Y030694D01*
X059105Y030694D01*
X059182Y030617D01*
X059182Y030387D01*
X059182Y030540D02*
X059336Y030694D01*
X059336Y030847D02*
X059259Y030847D01*
X058952Y031154D01*
X058875Y031154D01*
X058875Y030847D01*
X058796Y031911D02*
X058796Y032142D01*
X058872Y032218D01*
X059026Y032218D01*
X059103Y032142D01*
X059103Y031911D01*
X059256Y031911D02*
X058796Y031911D01*
X059103Y032065D02*
X059256Y032218D01*
X059256Y032372D02*
X059256Y032679D01*
X059256Y032525D02*
X058796Y032525D01*
X058949Y032372D01*
X058872Y032832D02*
X058796Y032909D01*
X058796Y033062D01*
X058872Y033139D01*
X058949Y033139D01*
X059026Y033062D01*
X059026Y032986D01*
X059026Y033062D02*
X059103Y033139D01*
X059179Y033139D01*
X059256Y033062D01*
X059256Y032909D01*
X059179Y032832D01*
X059500Y032696D02*
X059500Y032466D01*
X059961Y032466D01*
X059807Y032466D02*
X059807Y032696D01*
X059730Y032773D01*
X059577Y032773D01*
X059500Y032696D01*
X059577Y032927D02*
X059500Y033003D01*
X059500Y033157D01*
X059577Y033234D01*
X059654Y033234D01*
X059730Y033157D01*
X059807Y033234D01*
X059884Y033234D01*
X059961Y033157D01*
X059961Y033003D01*
X059884Y032927D01*
X059961Y032773D02*
X059807Y032620D01*
X059730Y033080D02*
X059730Y033157D01*
X057206Y033464D02*
X057129Y033387D01*
X056975Y033387D01*
X056899Y033464D01*
X056899Y033540D01*
X056975Y033617D01*
X057129Y033617D01*
X057206Y033540D01*
X057206Y033464D01*
X057129Y033617D02*
X057206Y033694D01*
X057206Y033771D01*
X057129Y033847D01*
X056975Y033847D01*
X056899Y033771D01*
X056899Y033694D01*
X056975Y033617D01*
X056745Y033464D02*
X056668Y033387D01*
X056515Y033387D01*
X056438Y033464D01*
X056438Y033771D01*
X056515Y033847D01*
X056668Y033847D01*
X056745Y033771D01*
X053273Y033234D02*
X053273Y032927D01*
X052966Y033234D01*
X052890Y033234D01*
X052813Y033157D01*
X052813Y033003D01*
X052890Y032927D01*
X052756Y032909D02*
X052679Y032832D01*
X052756Y032909D02*
X052756Y033062D01*
X052679Y033139D01*
X052526Y033139D01*
X052449Y033062D01*
X052449Y032986D01*
X052526Y032832D01*
X052296Y032832D01*
X052296Y033139D01*
X052756Y032679D02*
X052756Y032372D01*
X052813Y032466D02*
X052813Y032696D01*
X052890Y032773D01*
X053043Y032773D01*
X053120Y032696D01*
X053120Y032466D01*
X053273Y032466D02*
X052813Y032466D01*
X052756Y032525D02*
X052296Y032525D01*
X052449Y032372D01*
X052372Y032218D02*
X052526Y032218D01*
X052603Y032142D01*
X052603Y031911D01*
X052756Y031911D02*
X052296Y031911D01*
X052296Y032142D01*
X052372Y032218D01*
X052603Y032065D02*
X052756Y032218D01*
X053120Y032620D02*
X053273Y032773D01*
X050711Y033369D02*
X050711Y033676D01*
X050404Y033369D01*
X050481Y033293D01*
X050634Y033293D01*
X050711Y033369D01*
X050404Y033369D02*
X050404Y033676D01*
X050481Y033753D01*
X050634Y033753D01*
X050711Y033676D01*
X050251Y033293D02*
X049944Y033293D01*
X050097Y033293D02*
X050097Y033753D01*
X049944Y033599D01*
X049790Y033676D02*
X049714Y033753D01*
X049560Y033753D01*
X049483Y033676D01*
X049483Y033369D01*
X049560Y033293D01*
X049714Y033293D01*
X049790Y033369D01*
X046818Y033312D02*
X046358Y033312D01*
X046588Y033082D01*
X046588Y033389D01*
X046588Y032929D02*
X046665Y032852D01*
X046665Y032622D01*
X046665Y032775D02*
X046818Y032929D01*
X046588Y032929D02*
X046435Y032929D01*
X046358Y032852D01*
X046358Y032622D01*
X046818Y032622D01*
X046118Y032662D02*
X046118Y032509D01*
X046041Y032432D01*
X045734Y032432D01*
X045657Y032509D01*
X045657Y032662D01*
X045734Y032739D01*
X045811Y032893D02*
X045657Y033046D01*
X046118Y033046D01*
X046118Y032893D02*
X046118Y033200D01*
X046041Y032739D02*
X046118Y032662D01*
X045785Y031736D02*
X045632Y031736D01*
X045555Y031659D01*
X045785Y031736D02*
X045862Y031659D01*
X045862Y031582D01*
X045555Y031275D01*
X045862Y031275D01*
X046063Y031385D02*
X046063Y031538D01*
X046140Y031615D01*
X046446Y031308D01*
X046523Y031385D01*
X046523Y031538D01*
X046446Y031615D01*
X046140Y031615D01*
X046063Y031385D02*
X046140Y031308D01*
X046446Y031308D01*
X046523Y031154D02*
X046523Y030847D01*
X046523Y030694D02*
X046370Y030540D01*
X046370Y030617D02*
X046370Y030387D01*
X046523Y030387D02*
X046063Y030387D01*
X046063Y030617D01*
X046140Y030694D01*
X046293Y030694D01*
X046370Y030617D01*
X046216Y030847D02*
X046063Y031001D01*
X046523Y031001D01*
X045455Y030878D02*
X045148Y030878D01*
X045148Y030648D01*
X045302Y030724D01*
X045378Y030724D01*
X045455Y030648D01*
X045455Y030494D01*
X045378Y030418D01*
X045225Y030418D01*
X045148Y030494D01*
X044995Y030418D02*
X044841Y030571D01*
X044918Y030571D02*
X044688Y030571D01*
X044688Y030418D02*
X044688Y030878D01*
X044918Y030878D01*
X044995Y030801D01*
X044995Y030648D01*
X044918Y030571D01*
X044941Y031275D02*
X044788Y031429D01*
X044864Y031429D02*
X044634Y031429D01*
X044634Y031275D02*
X044634Y031736D01*
X044864Y031736D01*
X044941Y031659D01*
X044941Y031505D01*
X044864Y031429D01*
X045095Y031582D02*
X045248Y031736D01*
X045248Y031275D01*
X045095Y031275D02*
X045402Y031275D01*
X043845Y032275D02*
X043538Y032275D01*
X043385Y032275D02*
X043231Y032429D01*
X043308Y032429D02*
X043078Y032429D01*
X043078Y032275D02*
X043078Y032736D01*
X043308Y032736D01*
X043385Y032659D01*
X043385Y032505D01*
X043308Y032429D01*
X043538Y032582D02*
X043692Y032736D01*
X043692Y032275D01*
X042148Y031472D02*
X042071Y031472D01*
X041765Y031779D01*
X041688Y031779D01*
X041688Y031472D01*
X041765Y031319D02*
X041688Y031242D01*
X041688Y031089D01*
X041765Y031012D01*
X042071Y031012D01*
X042148Y031089D01*
X042148Y031242D01*
X042071Y031319D01*
X041779Y030734D02*
X042086Y030427D01*
X042163Y030427D01*
X042163Y030274D02*
X042163Y029967D01*
X042163Y030120D02*
X041703Y030120D01*
X041856Y029967D01*
X041779Y029813D02*
X041933Y029813D01*
X042009Y029736D01*
X042009Y029506D01*
X042009Y029660D02*
X042163Y029813D01*
X042163Y029506D02*
X041703Y029506D01*
X041703Y029736D01*
X041779Y029813D01*
X041703Y030427D02*
X041703Y030734D01*
X041779Y030734D01*
X041769Y032213D02*
X041845Y032290D01*
X041845Y032366D01*
X041769Y032443D01*
X041538Y032443D01*
X041538Y032290D01*
X041615Y032213D01*
X041769Y032213D01*
X041538Y032443D02*
X041692Y032596D01*
X041845Y032673D01*
X041385Y032596D02*
X041308Y032673D01*
X041155Y032673D01*
X041078Y032596D01*
X041078Y032290D01*
X041155Y032213D01*
X041308Y032213D01*
X041385Y032290D01*
X048188Y029897D02*
X048188Y029514D01*
X048265Y029437D01*
X048418Y029437D01*
X048495Y029514D01*
X048495Y029897D01*
X048649Y029821D02*
X048725Y029897D01*
X048879Y029897D01*
X048956Y029821D01*
X048956Y029744D01*
X048879Y029667D01*
X048956Y029590D01*
X048956Y029514D01*
X048879Y029437D01*
X048725Y029437D01*
X048649Y029514D01*
X048802Y029667D02*
X048879Y029667D01*
X051438Y029393D02*
X051591Y029239D01*
X051438Y029393D02*
X051898Y029393D01*
X051898Y029546D02*
X051898Y029239D01*
X051898Y029086D02*
X051898Y028779D01*
X051898Y028932D02*
X051438Y028932D01*
X051591Y028779D01*
X051515Y028625D02*
X051668Y028625D01*
X051745Y028549D01*
X051745Y028318D01*
X051898Y028318D02*
X051438Y028318D01*
X051438Y028549D01*
X051515Y028625D01*
X051745Y028472D02*
X051898Y028625D01*
X053438Y029137D02*
X053438Y029367D01*
X053515Y029444D01*
X053668Y029444D01*
X053745Y029367D01*
X053745Y029137D01*
X053898Y029137D02*
X053438Y029137D01*
X053745Y029290D02*
X053898Y029444D01*
X053821Y029597D02*
X053898Y029674D01*
X053898Y029828D01*
X053821Y029904D01*
X053745Y029904D01*
X053668Y029828D01*
X053668Y029597D01*
X053821Y029597D01*
X053668Y029597D02*
X053515Y029751D01*
X053438Y029904D01*
X054688Y029897D02*
X054688Y029514D01*
X054765Y029437D01*
X054918Y029437D01*
X054995Y029514D01*
X054995Y029897D01*
X055149Y029744D02*
X055302Y029897D01*
X055302Y029437D01*
X055149Y029437D02*
X055456Y029437D01*
X055697Y028548D02*
X055927Y028548D01*
X056004Y028471D01*
X056004Y028318D01*
X055927Y028241D01*
X055697Y028241D01*
X055697Y028088D02*
X055697Y028548D01*
X055850Y028241D02*
X056004Y028088D01*
X056157Y028165D02*
X056234Y028088D01*
X056387Y028088D01*
X056464Y028165D01*
X056464Y028241D01*
X056387Y028318D01*
X056311Y028318D01*
X056387Y028318D02*
X056464Y028395D01*
X056464Y028471D01*
X056387Y028548D01*
X056234Y028548D01*
X056157Y028471D01*
X056618Y028548D02*
X056618Y028318D01*
X056771Y028395D01*
X056848Y028395D01*
X056924Y028318D01*
X056924Y028165D01*
X056848Y028088D01*
X056694Y028088D01*
X056618Y028165D01*
X056618Y028548D02*
X056924Y028548D01*
X060332Y028029D02*
X060409Y027875D01*
X060562Y027722D01*
X060562Y027952D01*
X060639Y028029D01*
X060716Y028029D01*
X060793Y027952D01*
X060793Y027799D01*
X060716Y027722D01*
X060562Y027722D01*
X060486Y027568D02*
X060409Y027568D01*
X060332Y027492D01*
X060332Y027338D01*
X060409Y027261D01*
X060409Y027108D02*
X060562Y027108D01*
X060639Y027031D01*
X060639Y026801D01*
X060639Y026955D02*
X060793Y027108D01*
X060716Y027261D02*
X060793Y027338D01*
X060793Y027492D01*
X060716Y027568D01*
X060639Y027568D01*
X060562Y027492D01*
X060562Y027415D01*
X060562Y027492D02*
X060486Y027568D01*
X060409Y027108D02*
X060332Y027031D01*
X060332Y026801D01*
X060793Y026801D01*
X060521Y026298D02*
X060368Y026145D01*
X060214Y026145D02*
X060214Y026221D01*
X060137Y026298D01*
X059984Y026298D01*
X059907Y026221D01*
X059754Y026221D02*
X059677Y026298D01*
X059524Y026298D01*
X059447Y026221D01*
X059447Y025915D01*
X059524Y025838D01*
X059677Y025838D01*
X059754Y025915D01*
X059907Y025838D02*
X060214Y026145D01*
X060214Y025838D02*
X059907Y025838D01*
X060368Y025838D02*
X060674Y025838D01*
X060521Y025838D02*
X060521Y026298D01*
X061026Y025367D02*
X061026Y024983D01*
X061103Y024907D01*
X061256Y024907D01*
X061333Y024983D01*
X061333Y025367D01*
X061486Y025367D02*
X061793Y025367D01*
X061793Y025290D01*
X061486Y024983D01*
X061486Y024907D01*
X063032Y023702D02*
X063262Y023472D01*
X063262Y023779D01*
X063032Y023702D02*
X063493Y023702D01*
X063493Y023318D02*
X063493Y023011D01*
X063186Y023318D01*
X063109Y023318D01*
X063032Y023242D01*
X063032Y023088D01*
X063109Y023011D01*
X063109Y022858D02*
X063032Y022781D01*
X063032Y022628D01*
X063109Y022551D01*
X063416Y022551D01*
X063493Y022628D01*
X063493Y022781D01*
X063416Y022858D01*
X067233Y022773D02*
X067233Y022543D01*
X067693Y022543D01*
X067540Y022543D02*
X067540Y022773D01*
X067463Y022849D01*
X067310Y022849D01*
X067233Y022773D01*
X067310Y023003D02*
X067233Y023080D01*
X067233Y023233D01*
X067310Y023310D01*
X067387Y023310D01*
X067463Y023233D01*
X067540Y023310D01*
X067617Y023310D01*
X067693Y023233D01*
X067693Y023080D01*
X067617Y023003D01*
X067693Y022849D02*
X067540Y022696D01*
X067983Y022773D02*
X068060Y022849D01*
X068213Y022849D01*
X068290Y022773D01*
X068290Y022543D01*
X068290Y022696D02*
X068443Y022849D01*
X068367Y023003D02*
X068443Y023080D01*
X068443Y023233D01*
X068367Y023310D01*
X068290Y023310D01*
X068213Y023233D01*
X068213Y023156D01*
X068213Y023233D02*
X068137Y023310D01*
X068060Y023310D01*
X067983Y023233D01*
X067983Y023080D01*
X068060Y023003D01*
X067983Y022773D02*
X067983Y022543D01*
X068443Y022543D01*
X068443Y023463D02*
X068443Y023770D01*
X068443Y023617D02*
X067983Y023617D01*
X068137Y023463D01*
X067693Y023694D02*
X067233Y023694D01*
X067463Y023463D01*
X067463Y023770D01*
X067463Y023233D02*
X067463Y023156D01*
X070688Y024231D02*
X070688Y024404D01*
X070688Y024317D02*
X071208Y024317D01*
X071208Y024231D02*
X071208Y024404D01*
X071208Y024574D02*
X070861Y024921D01*
X070774Y024921D01*
X070688Y024835D01*
X070688Y024661D01*
X070774Y024574D01*
X071208Y024574D02*
X071208Y024921D01*
X071121Y025090D02*
X071208Y025177D01*
X071208Y025350D01*
X071121Y025437D01*
X071295Y025606D02*
X071295Y025953D01*
X071121Y026121D02*
X071208Y026208D01*
X071208Y026382D01*
X071121Y026468D01*
X070774Y026468D02*
X070688Y026382D01*
X070688Y026208D01*
X070774Y026121D01*
X071121Y026121D01*
X070774Y025437D02*
X070688Y025350D01*
X070688Y025177D01*
X070774Y025090D01*
X071121Y025090D01*
X068443Y027543D02*
X067983Y027543D01*
X067983Y027773D01*
X068060Y027849D01*
X068213Y027849D01*
X068290Y027773D01*
X068290Y027543D01*
X068290Y027696D02*
X068443Y027849D01*
X068367Y028003D02*
X068443Y028080D01*
X068443Y028233D01*
X068367Y028310D01*
X068290Y028310D01*
X068213Y028233D01*
X068213Y028156D01*
X068213Y028233D02*
X068137Y028310D01*
X068060Y028310D01*
X067983Y028233D01*
X067983Y028080D01*
X068060Y028003D01*
X067693Y028080D02*
X067617Y028003D01*
X067693Y028080D02*
X067693Y028233D01*
X067617Y028310D01*
X067540Y028310D01*
X067463Y028233D01*
X067463Y028156D01*
X067463Y028233D02*
X067387Y028310D01*
X067310Y028310D01*
X067233Y028233D01*
X067233Y028080D01*
X067310Y028003D01*
X067310Y027849D02*
X067463Y027849D01*
X067540Y027773D01*
X067540Y027543D01*
X067540Y027696D02*
X067693Y027849D01*
X067693Y027543D02*
X067233Y027543D01*
X067233Y027773D01*
X067310Y027849D01*
X067310Y028463D02*
X067233Y028540D01*
X067233Y028694D01*
X067310Y028770D01*
X067387Y028770D01*
X067463Y028694D01*
X067540Y028770D01*
X067617Y028770D01*
X067693Y028694D01*
X067693Y028540D01*
X067617Y028463D01*
X067463Y028617D02*
X067463Y028694D01*
X067983Y028694D02*
X068060Y028770D01*
X068367Y028463D01*
X068443Y028540D01*
X068443Y028694D01*
X068367Y028770D01*
X068060Y028770D01*
X067983Y028694D02*
X067983Y028540D01*
X068060Y028463D01*
X068367Y028463D01*
X070688Y029231D02*
X070688Y029404D01*
X070688Y029317D02*
X071208Y029317D01*
X071208Y029231D02*
X071208Y029404D01*
X071208Y029574D02*
X070861Y029921D01*
X070774Y029921D01*
X070688Y029835D01*
X070688Y029661D01*
X070774Y029574D01*
X071208Y029574D02*
X071208Y029921D01*
X071121Y030090D02*
X071208Y030177D01*
X071208Y030350D01*
X071121Y030437D01*
X071295Y030606D02*
X071295Y030953D01*
X071208Y031121D02*
X070688Y031121D01*
X070688Y031382D01*
X070774Y031468D01*
X070861Y031468D01*
X070948Y031382D01*
X070948Y031121D01*
X071208Y031121D02*
X071208Y031382D01*
X071121Y031468D01*
X071035Y031468D01*
X070948Y031382D01*
X070774Y030437D02*
X070688Y030350D01*
X070688Y030177D01*
X070774Y030090D01*
X071121Y030090D01*
X063501Y033369D02*
X063501Y033676D01*
X063424Y033753D01*
X063271Y033753D01*
X063194Y033676D01*
X063194Y033599D01*
X063271Y033523D01*
X063501Y033523D01*
X063501Y033369D02*
X063424Y033293D01*
X063271Y033293D01*
X063194Y033369D01*
X063040Y033369D02*
X062964Y033293D01*
X062810Y033293D01*
X062733Y033369D01*
X062733Y033676D01*
X062810Y033753D01*
X062964Y033753D01*
X063040Y033676D01*
X059148Y036293D02*
X059148Y036446D01*
X059071Y036523D01*
X059148Y036677D02*
X058841Y036984D01*
X058765Y036984D01*
X058688Y036907D01*
X058688Y036753D01*
X058765Y036677D01*
X058765Y036523D02*
X058688Y036446D01*
X058688Y036293D01*
X058765Y036216D01*
X059071Y036216D01*
X059148Y036293D01*
X059148Y036677D02*
X059148Y036984D01*
X052648Y036907D02*
X052648Y036753D01*
X052571Y036677D01*
X052571Y036523D02*
X052648Y036446D01*
X052648Y036293D01*
X052571Y036216D01*
X052265Y036216D01*
X052188Y036293D01*
X052188Y036446D01*
X052265Y036523D01*
X052265Y036677D02*
X052188Y036753D01*
X052188Y036907D01*
X052265Y036984D01*
X052341Y036984D01*
X052418Y036907D01*
X052495Y036984D01*
X052571Y036984D01*
X052648Y036907D01*
X052418Y036907D02*
X052418Y036830D01*
X054454Y040147D02*
X054627Y040147D01*
X054801Y040407D02*
X054454Y040407D01*
X060704Y040407D02*
X061051Y040407D01*
X060877Y040147D02*
X060704Y040147D01*
X045674Y028698D02*
X045368Y028698D01*
X045368Y028468D01*
X045521Y028545D01*
X045598Y028545D01*
X045674Y028468D01*
X045674Y028315D01*
X045598Y028238D01*
X045444Y028238D01*
X045368Y028315D01*
X045214Y028315D02*
X045214Y028698D01*
X044907Y028698D02*
X044907Y028315D01*
X044984Y028238D01*
X045137Y028238D01*
X045214Y028315D01*
X043166Y028165D02*
X043166Y028089D01*
X043089Y028012D01*
X042936Y028012D01*
X042859Y028089D01*
X042859Y028242D01*
X043089Y028242D01*
X043166Y028165D01*
X043012Y028396D02*
X043166Y028472D01*
X043012Y028396D02*
X042859Y028242D01*
X042706Y028012D02*
X042399Y028012D01*
X042552Y028012D02*
X042552Y028472D01*
X042399Y028319D01*
X042245Y028396D02*
X042168Y028472D01*
X042015Y028472D01*
X041938Y028396D01*
X041938Y028089D01*
X042015Y028012D01*
X042168Y028012D01*
X042245Y028089D01*
X041461Y027863D02*
X041384Y027940D01*
X041307Y027940D01*
X041230Y027863D01*
X041230Y027633D01*
X041384Y027633D01*
X041461Y027710D01*
X041461Y027863D01*
X041230Y027633D02*
X041077Y027787D01*
X041000Y027940D01*
X040773Y027927D02*
X040773Y027620D01*
X040773Y027467D02*
X040773Y027160D01*
X040773Y027313D02*
X040313Y027313D01*
X040466Y027160D01*
X040390Y027006D02*
X040313Y026930D01*
X040313Y026776D01*
X040390Y026700D01*
X040696Y026700D01*
X040773Y026776D01*
X040773Y026930D01*
X040696Y027006D01*
X041000Y026943D02*
X041000Y026712D01*
X041461Y026712D01*
X041307Y026712D02*
X041307Y026943D01*
X041230Y027019D01*
X041077Y027019D01*
X041000Y026943D01*
X041154Y027173D02*
X041000Y027326D01*
X041461Y027326D01*
X041461Y027173D02*
X041461Y027480D01*
X041461Y027019D02*
X041307Y026866D01*
X040466Y027620D02*
X040313Y027774D01*
X040773Y027774D01*
X039052Y027097D02*
X038899Y026944D01*
X039052Y027097D02*
X039052Y026637D01*
X038899Y026637D02*
X039206Y026637D01*
X038592Y026637D02*
X038592Y027097D01*
X038745Y027097D02*
X038438Y027097D01*
X033757Y025603D02*
X033757Y025143D01*
X033604Y025143D02*
X033911Y025143D01*
X033604Y025450D02*
X033757Y025603D01*
X033450Y025603D02*
X033143Y025296D01*
X033220Y025373D02*
X033450Y025143D01*
X033143Y025143D02*
X033143Y025603D01*
X039433Y024347D02*
X039433Y023887D01*
X039433Y024040D02*
X039663Y024040D01*
X039740Y024117D01*
X039740Y024271D01*
X039663Y024347D01*
X039433Y024347D01*
X039587Y024040D02*
X039740Y023887D01*
X039893Y023887D02*
X040200Y023887D01*
X040047Y023887D02*
X040047Y024347D01*
X039893Y024194D01*
X040354Y024194D02*
X040431Y024117D01*
X040661Y024117D01*
X040661Y023964D02*
X040661Y024271D01*
X040584Y024347D01*
X040431Y024347D01*
X040354Y024271D01*
X040354Y024194D01*
X040354Y023964D02*
X040431Y023887D01*
X040584Y023887D01*
X040661Y023964D01*
X040453Y023643D02*
X040530Y023566D01*
X040530Y023489D01*
X040453Y023412D01*
X040299Y023412D01*
X040223Y023489D01*
X040223Y023566D01*
X040299Y023643D01*
X040453Y023643D01*
X040453Y023412D02*
X040530Y023336D01*
X040530Y023259D01*
X040453Y023182D01*
X040299Y023182D01*
X040223Y023259D01*
X040223Y023336D01*
X040299Y023412D01*
X040069Y023182D02*
X039762Y023182D01*
X039609Y023182D02*
X039455Y023336D01*
X039532Y023336D02*
X039302Y023336D01*
X039302Y023182D02*
X039302Y023643D01*
X039532Y023643D01*
X039609Y023566D01*
X039609Y023412D01*
X039532Y023336D01*
X039762Y023489D02*
X039916Y023643D01*
X039916Y023182D01*
X039473Y022393D02*
X039320Y022393D01*
X039243Y022316D01*
X039090Y022393D02*
X038783Y022393D01*
X038936Y022393D02*
X038936Y021932D01*
X039243Y021932D02*
X039550Y022239D01*
X039550Y022316D01*
X039473Y022393D01*
X039550Y021932D02*
X039243Y021932D01*
X042033Y021503D02*
X042033Y021043D01*
X042033Y021196D02*
X042263Y021196D01*
X042340Y021273D01*
X042340Y021426D01*
X042263Y021503D01*
X042033Y021503D01*
X042187Y021196D02*
X042340Y021043D01*
X042493Y021043D02*
X042800Y021349D01*
X042800Y021426D01*
X042724Y021503D01*
X042570Y021503D01*
X042493Y021426D01*
X042493Y021043D02*
X042800Y021043D01*
X042954Y021273D02*
X043261Y021273D01*
X043184Y021043D02*
X043184Y021503D01*
X042954Y021273D01*
X042899Y020643D02*
X042823Y020566D01*
X042899Y020643D02*
X043053Y020643D01*
X043130Y020566D01*
X043130Y020489D01*
X042823Y020182D01*
X043130Y020182D01*
X042669Y020182D02*
X042362Y020182D01*
X042669Y020489D01*
X042669Y020566D01*
X042592Y020643D01*
X042439Y020643D01*
X042362Y020566D01*
X042209Y020566D02*
X042209Y020412D01*
X042132Y020336D01*
X041902Y020336D01*
X042055Y020336D02*
X042209Y020182D01*
X041902Y020182D02*
X041902Y020643D01*
X042132Y020643D01*
X042209Y020566D01*
X044438Y021700D02*
X044438Y022160D01*
X044668Y022160D01*
X044745Y022083D01*
X044745Y021930D01*
X044668Y021853D01*
X044438Y021853D01*
X044592Y021853D02*
X044745Y021700D01*
X044899Y021700D02*
X045206Y022006D01*
X045206Y022083D01*
X045129Y022160D01*
X044975Y022160D01*
X044899Y022083D01*
X044899Y021700D02*
X045206Y021700D01*
X045359Y021776D02*
X045436Y021700D01*
X045589Y021700D01*
X045666Y021776D01*
X045666Y021930D01*
X045589Y022006D01*
X045512Y022006D01*
X045359Y021930D01*
X045359Y022160D01*
X045666Y022160D01*
X046407Y021298D02*
X046407Y020915D01*
X046484Y020838D01*
X046637Y020838D01*
X046714Y020915D01*
X046714Y021298D01*
X046868Y021068D02*
X047098Y021298D01*
X047098Y020838D01*
X047174Y021068D02*
X046868Y021068D01*
X048720Y021753D02*
X048797Y021676D01*
X049103Y021676D01*
X049180Y021753D01*
X049180Y021906D01*
X049103Y021983D01*
X049180Y022136D02*
X049180Y022443D01*
X049180Y022290D02*
X048720Y022290D01*
X048873Y022136D01*
X048797Y021983D02*
X048720Y021906D01*
X048720Y021753D01*
X048797Y022597D02*
X048720Y022674D01*
X048720Y022827D01*
X048797Y022904D01*
X048873Y022904D01*
X048950Y022827D01*
X049027Y022904D01*
X049103Y022904D01*
X049180Y022827D01*
X049180Y022674D01*
X049103Y022597D01*
X048950Y022750D02*
X048950Y022827D01*
X047774Y024538D02*
X047468Y024538D01*
X047621Y024538D02*
X047621Y024998D01*
X047468Y024845D01*
X047314Y024921D02*
X047237Y024998D01*
X047007Y024998D01*
X047007Y024538D01*
X047237Y024538D01*
X047314Y024615D01*
X047314Y024921D01*
X046854Y024998D02*
X046547Y024998D01*
X046547Y024538D01*
X046854Y024538D01*
X046700Y024768D02*
X046547Y024768D01*
X046393Y024538D02*
X046086Y024538D01*
X046086Y024998D01*
X047217Y026150D02*
X047524Y026150D01*
X047600Y026227D01*
X047600Y026380D01*
X047524Y026457D01*
X047600Y026611D02*
X047600Y026918D01*
X047600Y027071D02*
X047294Y027378D01*
X047217Y027378D01*
X047140Y027301D01*
X047140Y027148D01*
X047217Y027071D01*
X047140Y026764D02*
X047600Y026764D01*
X047600Y027071D02*
X047600Y027378D01*
X047140Y026764D02*
X047294Y026611D01*
X047217Y026457D02*
X047140Y026380D01*
X047140Y026227D01*
X047217Y026150D01*
X052384Y024034D02*
X052384Y023727D01*
X052461Y023650D01*
X052614Y023650D01*
X052691Y023727D01*
X052845Y023650D02*
X053152Y023957D01*
X053152Y024034D01*
X053075Y024111D01*
X052921Y024111D01*
X052845Y024034D01*
X052691Y024034D02*
X052614Y024111D01*
X052461Y024111D01*
X052384Y024034D01*
X052845Y023650D02*
X053152Y023650D01*
X053305Y023727D02*
X053612Y024034D01*
X053612Y023727D01*
X053535Y023650D01*
X053382Y023650D01*
X053305Y023727D01*
X053305Y024034D01*
X053382Y024111D01*
X053535Y024111D01*
X053612Y024034D01*
X053261Y023385D02*
X053108Y023385D01*
X053031Y023309D01*
X053261Y023385D02*
X053338Y023309D01*
X053338Y023232D01*
X053031Y022925D01*
X053338Y022925D01*
X052877Y022925D02*
X052571Y022925D01*
X052571Y023385D01*
X054022Y020778D02*
X054099Y020778D01*
X054175Y020701D01*
X054252Y020778D01*
X054329Y020778D01*
X054406Y020701D01*
X054406Y020547D01*
X054329Y020471D01*
X054406Y020317D02*
X054406Y020010D01*
X054099Y020317D01*
X054022Y020317D01*
X053945Y020240D01*
X053945Y020087D01*
X054022Y020010D01*
X054022Y019857D02*
X053945Y019780D01*
X053945Y019627D01*
X054022Y019550D01*
X054329Y019550D01*
X054406Y019627D01*
X054406Y019780D01*
X054329Y019857D01*
X054022Y020471D02*
X053945Y020547D01*
X053945Y020701D01*
X054022Y020778D01*
X054175Y020701D02*
X054175Y020624D01*
X057532Y019279D02*
X057532Y018972D01*
X057762Y018972D01*
X057686Y019125D01*
X057686Y019202D01*
X057762Y019279D01*
X057916Y019279D01*
X057993Y019202D01*
X057993Y019049D01*
X057916Y018972D01*
X057993Y018818D02*
X057993Y018511D01*
X057686Y018818D01*
X057609Y018818D01*
X057532Y018742D01*
X057532Y018588D01*
X057609Y018511D01*
X057609Y018358D02*
X057532Y018281D01*
X057532Y018128D01*
X057609Y018051D01*
X057916Y018051D01*
X057993Y018128D01*
X057993Y018281D01*
X057916Y018358D01*
X058282Y018281D02*
X058282Y018128D01*
X058359Y018051D01*
X058666Y018051D01*
X058743Y018128D01*
X058743Y018281D01*
X058666Y018358D01*
X058743Y018511D02*
X058436Y018818D01*
X058359Y018818D01*
X058282Y018742D01*
X058282Y018588D01*
X058359Y018511D01*
X058359Y018358D02*
X058282Y018281D01*
X058743Y018511D02*
X058743Y018818D01*
X058743Y018972D02*
X058436Y019279D01*
X058359Y019279D01*
X058282Y019202D01*
X058282Y019049D01*
X058359Y018972D01*
X058743Y018972D02*
X058743Y019279D01*
X061811Y020113D02*
X061811Y020573D01*
X061811Y020113D02*
X062118Y020113D01*
X062272Y020113D02*
X062579Y020113D01*
X062732Y020113D02*
X062962Y020113D01*
X063039Y020190D01*
X063039Y020496D01*
X062962Y020573D01*
X062732Y020573D01*
X062732Y020113D01*
X062425Y020343D02*
X062272Y020343D01*
X062272Y020573D02*
X062272Y020113D01*
X062272Y020573D02*
X062579Y020573D01*
X063193Y020496D02*
X063269Y020573D01*
X063423Y020573D01*
X063499Y020496D01*
X063499Y020420D01*
X063193Y020113D01*
X063499Y020113D01*
X063410Y018673D02*
X063487Y018596D01*
X063487Y018520D01*
X063410Y018443D01*
X063257Y018443D01*
X063180Y018520D01*
X063180Y018596D01*
X063257Y018673D01*
X063410Y018673D01*
X063410Y018443D02*
X063487Y018366D01*
X063487Y018290D01*
X063410Y018213D01*
X063257Y018213D01*
X063180Y018290D01*
X063180Y018366D01*
X063257Y018443D01*
X063027Y018520D02*
X062950Y018443D01*
X063027Y018366D01*
X063027Y018290D01*
X062950Y018213D01*
X062796Y018213D01*
X062720Y018290D01*
X062566Y018213D02*
X062413Y018366D01*
X062489Y018366D02*
X062259Y018366D01*
X062259Y018213D02*
X062259Y018673D01*
X062489Y018673D01*
X062566Y018596D01*
X062566Y018443D01*
X062489Y018366D01*
X062720Y018596D02*
X062796Y018673D01*
X062950Y018673D01*
X063027Y018596D01*
X063027Y018520D01*
X062950Y018443D02*
X062873Y018443D01*
X063901Y018018D02*
X064132Y018018D01*
X064208Y017941D01*
X064208Y017787D01*
X064132Y017711D01*
X063901Y017711D01*
X063901Y017557D02*
X063901Y018018D01*
X064055Y017711D02*
X064208Y017557D01*
X064362Y017557D02*
X064669Y017864D01*
X064669Y017941D01*
X064592Y018018D01*
X064439Y018018D01*
X064362Y017941D01*
X064362Y017557D02*
X064669Y017557D01*
X064822Y017634D02*
X064899Y017557D01*
X065052Y017557D01*
X065129Y017634D01*
X065129Y017711D01*
X065052Y017787D01*
X064822Y017787D01*
X064822Y017634D01*
X064822Y017787D02*
X064976Y017941D01*
X065129Y018018D01*
X067657Y016798D02*
X067657Y016415D01*
X067734Y016338D01*
X067887Y016338D01*
X067964Y016415D01*
X067964Y016798D01*
X068118Y016721D02*
X068118Y016645D01*
X068194Y016568D01*
X068348Y016568D01*
X068424Y016491D01*
X068424Y016415D01*
X068348Y016338D01*
X068194Y016338D01*
X068118Y016415D01*
X068118Y016491D01*
X068194Y016568D01*
X068348Y016568D02*
X068424Y016645D01*
X068424Y016721D01*
X068348Y016798D01*
X068194Y016798D01*
X068118Y016721D01*
X069822Y016409D02*
X069822Y016102D01*
X069899Y016025D01*
X070052Y016025D01*
X070129Y016102D01*
X070282Y016025D02*
X070589Y016025D01*
X070436Y016025D02*
X070436Y016486D01*
X070282Y016332D01*
X070129Y016409D02*
X070052Y016486D01*
X069899Y016486D01*
X069822Y016409D01*
X070743Y016409D02*
X070743Y016332D01*
X070819Y016255D01*
X071049Y016255D01*
X071049Y016102D02*
X071049Y016409D01*
X070973Y016486D01*
X070819Y016486D01*
X070743Y016409D01*
X070743Y016102D02*
X070819Y016025D01*
X070973Y016025D01*
X071049Y016102D01*
X068799Y014923D02*
X068799Y014846D01*
X068493Y014540D01*
X068493Y014463D01*
X068339Y014463D02*
X068032Y014463D01*
X068339Y014770D01*
X068339Y014846D01*
X068262Y014923D01*
X068109Y014923D01*
X068032Y014846D01*
X067879Y014846D02*
X067879Y014693D01*
X067802Y014616D01*
X067572Y014616D01*
X067572Y014463D02*
X067572Y014923D01*
X067802Y014923D01*
X067879Y014846D01*
X067725Y014616D02*
X067879Y014463D01*
X066898Y014776D02*
X066591Y014469D01*
X066591Y014392D01*
X066438Y014392D02*
X066131Y014392D01*
X066284Y014392D02*
X066284Y014852D01*
X066131Y014699D01*
X065977Y014776D02*
X065901Y014852D01*
X065747Y014852D01*
X065670Y014776D01*
X065670Y014469D01*
X065747Y014392D01*
X065901Y014392D01*
X065977Y014469D01*
X066591Y014852D02*
X066898Y014852D01*
X066898Y014776D01*
X068493Y014923D02*
X068799Y014923D01*
X071032Y018301D02*
X071032Y018531D01*
X071109Y018608D01*
X071262Y018608D01*
X071339Y018531D01*
X071339Y018301D01*
X071339Y018455D02*
X071493Y018608D01*
X071493Y018761D02*
X071186Y019068D01*
X071109Y019068D01*
X071032Y018992D01*
X071032Y018838D01*
X071109Y018761D01*
X071493Y018761D02*
X071493Y019068D01*
X071416Y019222D02*
X071339Y019222D01*
X071262Y019299D01*
X071262Y019452D01*
X071339Y019529D01*
X071416Y019529D01*
X071493Y019452D01*
X071493Y019299D01*
X071416Y019222D01*
X071262Y019299D02*
X071186Y019222D01*
X071109Y019222D01*
X071032Y019299D01*
X071032Y019452D01*
X071109Y019529D01*
X071186Y019529D01*
X071262Y019452D01*
X068785Y020276D02*
X068708Y020200D01*
X068555Y020200D01*
X068478Y020276D01*
X068478Y020353D01*
X068555Y020430D01*
X068708Y020430D01*
X068785Y020353D01*
X068785Y020276D01*
X068708Y020430D02*
X068785Y020506D01*
X068785Y020583D01*
X068708Y020660D01*
X068555Y020660D01*
X068478Y020583D01*
X068478Y020506D01*
X068555Y020430D01*
X068324Y020200D02*
X068017Y020200D01*
X068171Y020200D02*
X068171Y020660D01*
X068017Y020506D01*
X067864Y020583D02*
X067787Y020660D01*
X067634Y020660D01*
X067557Y020583D01*
X067557Y020276D01*
X067634Y020200D01*
X067787Y020200D01*
X067864Y020276D01*
X071032Y018301D02*
X071493Y018301D01*
X059972Y014407D02*
X059972Y013887D01*
X060059Y014147D02*
X059712Y014147D01*
X059972Y014407D01*
X059370Y014407D02*
X059370Y013887D01*
X059543Y013887D02*
X059196Y013887D01*
X059028Y013974D02*
X058941Y013887D01*
X058768Y013887D01*
X058681Y013974D01*
X059028Y014321D01*
X059028Y013974D01*
X059196Y014234D02*
X059370Y014407D01*
X059028Y014321D02*
X058941Y014407D01*
X058768Y014407D01*
X058681Y014321D01*
X058681Y013974D01*
X058512Y013887D02*
X058165Y013887D01*
X058512Y014234D01*
X058512Y014321D01*
X058425Y014407D01*
X058252Y014407D01*
X058165Y014321D01*
X057996Y014147D02*
X057649Y014147D01*
X057481Y014147D02*
X057134Y014147D01*
X057134Y014234D02*
X057307Y014407D01*
X057481Y014234D01*
X057481Y013887D01*
X057134Y013887D02*
X057134Y014234D01*
X056965Y014234D02*
X056878Y014147D01*
X056965Y014060D01*
X056965Y013974D01*
X056878Y013887D01*
X056705Y013887D01*
X056618Y013974D01*
X056450Y013887D02*
X056276Y014060D01*
X056363Y014060D02*
X056103Y014060D01*
X056103Y013887D02*
X056103Y014407D01*
X056363Y014407D01*
X056450Y014321D01*
X056450Y014147D01*
X056363Y014060D01*
X056618Y014321D02*
X056705Y014407D01*
X056878Y014407D01*
X056965Y014321D01*
X056965Y014234D01*
X056878Y014147D02*
X056792Y014147D01*
X055418Y014147D02*
X055418Y014060D01*
X055071Y014060D01*
X055071Y013974D02*
X055071Y014147D01*
X055158Y014234D01*
X055332Y014234D01*
X055418Y014147D01*
X055332Y013887D02*
X055158Y013887D01*
X055071Y013974D01*
X054902Y014234D02*
X054815Y014234D01*
X054642Y014060D01*
X054473Y014060D02*
X054213Y014060D01*
X054126Y013974D01*
X054213Y013887D01*
X054473Y013887D01*
X054473Y014147D01*
X054386Y014234D01*
X054213Y014234D01*
X053957Y014234D02*
X053957Y013974D01*
X053871Y013887D01*
X053784Y013974D01*
X053697Y013887D01*
X053610Y013974D01*
X053610Y014234D01*
X053440Y014234D02*
X053267Y014234D01*
X053353Y014321D02*
X053353Y013974D01*
X053440Y013887D01*
X053010Y013887D02*
X053010Y014321D01*
X053096Y014407D01*
X053096Y014147D02*
X052923Y014147D01*
X052754Y014147D02*
X052667Y014234D01*
X052494Y014234D01*
X052407Y014147D01*
X052407Y013974D01*
X052494Y013887D01*
X052667Y013887D01*
X052754Y013974D01*
X052754Y014147D01*
X052238Y014060D02*
X052238Y013974D01*
X052152Y013887D01*
X051978Y013887D01*
X051892Y013974D01*
X051978Y014147D02*
X052152Y014147D01*
X052238Y014060D01*
X052238Y014321D02*
X052152Y014407D01*
X051978Y014407D01*
X051892Y014321D01*
X051892Y014234D01*
X051978Y014147D01*
X051207Y014147D02*
X050860Y014147D01*
X050860Y014234D02*
X051034Y014407D01*
X051207Y014234D01*
X051207Y013887D01*
X050860Y013887D02*
X050860Y014234D01*
X050692Y014407D02*
X050692Y013887D01*
X050345Y014407D01*
X050345Y013887D01*
X050002Y013887D02*
X050002Y014407D01*
X049829Y014407D02*
X050176Y014407D01*
X049660Y014147D02*
X049313Y014147D01*
X049145Y014147D02*
X048798Y014147D01*
X048798Y013887D02*
X048798Y014407D01*
X049145Y014407D02*
X049145Y013887D01*
X048113Y013974D02*
X048027Y014060D01*
X047853Y014060D01*
X047766Y014147D01*
X047853Y014234D01*
X048113Y014234D01*
X048113Y013974D02*
X048027Y013887D01*
X047766Y013887D01*
X047598Y013887D02*
X047337Y013887D01*
X047251Y013974D01*
X047337Y014060D01*
X047598Y014060D01*
X047598Y014147D02*
X047598Y013887D01*
X047598Y014147D02*
X047511Y014234D01*
X047337Y014234D01*
X047082Y014147D02*
X047082Y013887D01*
X046909Y013887D02*
X046909Y014147D01*
X046995Y014234D01*
X047082Y014147D01*
X046909Y014147D02*
X046822Y014234D01*
X046735Y014234D01*
X046735Y013887D01*
X046566Y013974D02*
X046566Y014147D01*
X046480Y014234D01*
X046306Y014234D01*
X046219Y014147D01*
X046219Y013974D01*
X046306Y013887D01*
X046480Y013887D01*
X046566Y013974D01*
X046051Y013887D02*
X046051Y014147D01*
X045964Y014234D01*
X045791Y014234D01*
X045704Y014147D01*
X045704Y014407D02*
X045704Y013887D01*
X045362Y013887D02*
X045362Y014407D01*
X045535Y014407D02*
X045188Y014407D01*
X042791Y016848D02*
X042791Y017309D01*
X042561Y017079D01*
X042868Y017079D01*
X042407Y017309D02*
X042100Y017309D01*
X042254Y017309D02*
X042254Y016848D01*
X041041Y016700D02*
X040734Y016700D01*
X040887Y016700D02*
X040887Y017160D01*
X040734Y017006D01*
X040581Y017006D02*
X040581Y017083D01*
X040504Y017160D01*
X040350Y017160D01*
X040274Y017083D01*
X040120Y017083D02*
X040120Y016930D01*
X040043Y016853D01*
X039813Y016853D01*
X039813Y016700D02*
X039813Y017160D01*
X040043Y017160D01*
X040120Y017083D01*
X039967Y016853D02*
X040120Y016700D01*
X040274Y016700D02*
X040581Y017006D01*
X040581Y016700D02*
X040274Y016700D01*
X039493Y016799D02*
X039493Y016952D01*
X039416Y017029D01*
X039109Y017029D01*
X039416Y016722D01*
X039493Y016799D01*
X039416Y016722D02*
X039109Y016722D01*
X039032Y016799D01*
X039032Y016952D01*
X039109Y017029D01*
X039109Y016568D02*
X039032Y016492D01*
X039032Y016338D01*
X039109Y016261D01*
X039109Y016108D02*
X039262Y016108D01*
X039339Y016031D01*
X039339Y015801D01*
X039339Y015955D02*
X039493Y016108D01*
X039493Y016261D02*
X039186Y016568D01*
X039109Y016568D01*
X039493Y016568D02*
X039493Y016261D01*
X039109Y016108D02*
X039032Y016031D01*
X039032Y015801D01*
X039493Y015801D01*
X038224Y017090D02*
X038148Y017013D01*
X037994Y017013D01*
X037918Y017090D01*
X038071Y017243D02*
X038148Y017243D01*
X038224Y017166D01*
X038224Y017090D01*
X038148Y017243D02*
X038224Y017320D01*
X038224Y017396D01*
X038148Y017473D01*
X037994Y017473D01*
X037918Y017396D01*
X037764Y017473D02*
X037457Y017473D01*
X037611Y017473D02*
X037611Y017013D01*
X036056Y017114D02*
X035979Y017037D01*
X035825Y017037D01*
X035749Y017114D01*
X035595Y017114D02*
X035595Y017421D01*
X035518Y017497D01*
X035288Y017497D01*
X035288Y017037D01*
X035518Y017037D01*
X035595Y017114D01*
X035749Y017421D02*
X035825Y017497D01*
X035979Y017497D01*
X036056Y017421D01*
X036056Y017344D01*
X035979Y017267D01*
X036056Y017190D01*
X036056Y017114D01*
X035979Y017267D02*
X035902Y017267D01*
X034200Y017259D02*
X034123Y017182D01*
X033970Y017182D01*
X033893Y017259D01*
X034047Y017412D02*
X034123Y017412D01*
X034200Y017336D01*
X034200Y017259D01*
X034123Y017412D02*
X034200Y017489D01*
X034200Y017566D01*
X034123Y017643D01*
X033970Y017643D01*
X033893Y017566D01*
X033740Y017643D02*
X033433Y017643D01*
X033433Y017182D01*
X033433Y017412D02*
X033586Y017412D01*
X027956Y020121D02*
X027649Y019814D01*
X027649Y019737D01*
X027418Y019814D02*
X027418Y020197D01*
X027342Y020197D02*
X027495Y020197D01*
X027649Y020197D02*
X027956Y020197D01*
X027956Y020121D01*
X027418Y019814D02*
X027342Y019737D01*
X027265Y019737D01*
X027188Y019814D01*
X033313Y021043D02*
X033313Y021503D01*
X033389Y021273D02*
X033620Y021043D01*
X033773Y021043D02*
X034080Y021349D01*
X034080Y021426D01*
X034003Y021503D01*
X033850Y021503D01*
X033773Y021426D01*
X033620Y021503D02*
X033313Y021196D01*
X033773Y021043D02*
X034080Y021043D01*
X042233Y022793D02*
X042540Y022793D01*
X042694Y022793D02*
X043001Y022793D01*
X042847Y022793D02*
X042847Y023253D01*
X042694Y023099D01*
X042233Y023253D02*
X042233Y022793D01*
X044560Y019020D02*
X044637Y019020D01*
X044713Y018944D01*
X044790Y019020D01*
X044867Y019020D01*
X044943Y018944D01*
X044943Y018790D01*
X044867Y018713D01*
X044943Y018560D02*
X044943Y018253D01*
X044637Y018560D01*
X044560Y018560D01*
X044483Y018483D01*
X044483Y018330D01*
X044560Y018253D01*
X044560Y018099D02*
X044713Y018099D01*
X044790Y018023D01*
X044790Y017793D01*
X044790Y017946D02*
X044943Y018099D01*
X044943Y017793D02*
X044483Y017793D01*
X044483Y018023D01*
X044560Y018099D01*
X044560Y018713D02*
X044483Y018790D01*
X044483Y018944D01*
X044560Y019020D01*
X044713Y018944D02*
X044713Y018867D01*
X054642Y014234D02*
X054642Y013887D01*
X029161Y014409D02*
X028854Y014103D01*
X028854Y014026D01*
X028700Y014103D02*
X028624Y014026D01*
X028470Y014026D01*
X028393Y014103D01*
X028240Y014026D02*
X028086Y014179D01*
X028163Y014179D02*
X027933Y014179D01*
X027933Y014026D02*
X027933Y014486D01*
X028163Y014486D01*
X028240Y014409D01*
X028240Y014256D01*
X028163Y014179D01*
X028393Y014409D02*
X028470Y014486D01*
X028624Y014486D01*
X028700Y014409D01*
X028700Y014333D01*
X028624Y014256D01*
X028700Y014179D01*
X028700Y014103D01*
X028624Y014256D02*
X028547Y014256D01*
X028854Y014486D02*
X029161Y014486D01*
X029161Y014409D01*
D12*
X026105Y024382D02*
X026153Y024430D01*
X026153Y024527D01*
X026105Y024576D01*
X025911Y024576D01*
X025863Y024527D01*
X025863Y024430D01*
X025911Y024382D01*
X026105Y024382D01*
X026105Y024677D02*
X026153Y024725D01*
X026153Y024870D01*
X025960Y024870D01*
X025960Y024971D02*
X025960Y025068D01*
X025911Y025020D02*
X026105Y025020D01*
X026153Y025068D01*
X026153Y025168D02*
X025960Y025361D01*
X025911Y025361D01*
X025863Y025313D01*
X025863Y025216D01*
X025911Y025168D01*
X026153Y025168D02*
X026153Y025361D01*
X026008Y025462D02*
X026008Y025656D01*
X025911Y026382D02*
X026105Y026382D01*
X026153Y026430D01*
X026153Y026527D01*
X026105Y026576D01*
X025911Y026576D01*
X025863Y026527D01*
X025863Y026430D01*
X025911Y026382D01*
X025960Y026677D02*
X026105Y026677D01*
X026153Y026725D01*
X026153Y026870D01*
X025960Y026870D01*
X025960Y026971D02*
X025960Y027068D01*
X025911Y027020D02*
X026105Y027020D01*
X026153Y027068D01*
X026153Y027168D02*
X025960Y027361D01*
X025911Y027361D01*
X025863Y027313D01*
X025863Y027216D01*
X025911Y027168D01*
X026153Y027168D02*
X026153Y027361D01*
X026008Y027462D02*
X026008Y027656D01*
X025911Y027559D02*
X026105Y027559D01*
X026105Y028382D02*
X026153Y028430D01*
X026153Y028527D01*
X026105Y028576D01*
X025911Y028576D01*
X025863Y028527D01*
X025863Y028430D01*
X025911Y028382D01*
X026105Y028382D01*
X026105Y028677D02*
X026153Y028725D01*
X026153Y028870D01*
X025960Y028870D01*
X025960Y028971D02*
X025960Y029068D01*
X025911Y029020D02*
X026105Y029020D01*
X026153Y029068D01*
X026153Y029168D02*
X026153Y029361D01*
X026153Y029264D02*
X025863Y029264D01*
X025960Y029168D01*
X026008Y029462D02*
X026008Y029656D01*
X025911Y030132D02*
X026105Y030132D01*
X026153Y030180D01*
X026153Y030277D01*
X026105Y030326D01*
X025911Y030326D01*
X025863Y030277D01*
X025863Y030180D01*
X025911Y030132D01*
X025960Y030427D02*
X026105Y030427D01*
X026153Y030475D01*
X026153Y030620D01*
X025960Y030620D01*
X025960Y030721D02*
X025960Y030818D01*
X025911Y030770D02*
X026105Y030770D01*
X026153Y030818D01*
X026153Y030918D02*
X026153Y031111D01*
X026153Y031014D02*
X025863Y031014D01*
X025960Y030918D01*
X026008Y031212D02*
X026008Y031406D01*
X025911Y031309D02*
X026105Y031309D01*
X026056Y032382D02*
X026153Y032479D01*
X026056Y032576D01*
X025863Y032576D01*
X025960Y032677D02*
X025960Y032725D01*
X026153Y032725D01*
X026153Y032677D02*
X026153Y032773D01*
X026153Y032873D02*
X025960Y032873D01*
X025960Y033018D01*
X026008Y033067D01*
X026153Y033067D01*
X026008Y033168D02*
X026008Y033361D01*
X025863Y032725D02*
X025815Y032725D01*
X025863Y032382D02*
X026056Y032382D01*
X029683Y030752D02*
X029683Y030505D01*
X029807Y030382D01*
X029930Y030505D01*
X029930Y030752D01*
X030052Y030629D02*
X030113Y030629D01*
X030113Y030382D01*
X030052Y030382D02*
X030175Y030382D01*
X030297Y030382D02*
X030297Y030629D01*
X030482Y030629D01*
X030544Y030567D01*
X030544Y030382D01*
X030665Y030567D02*
X030912Y030567D01*
X030789Y030444D02*
X030789Y030691D01*
X030113Y030752D02*
X030113Y030814D01*
X030152Y030115D02*
X030152Y030053D01*
X030152Y029930D02*
X030152Y029683D01*
X030091Y029683D02*
X030214Y029683D01*
X030336Y029683D02*
X030336Y029930D01*
X030521Y029930D01*
X030583Y029868D01*
X030583Y029683D01*
X030513Y029541D02*
X030513Y029294D01*
X030574Y029232D01*
X030697Y029232D02*
X030943Y029232D01*
X030820Y029232D02*
X030820Y029602D01*
X030697Y029479D01*
X030574Y029479D02*
X030451Y029479D01*
X030330Y029479D02*
X030330Y029232D01*
X030144Y029232D01*
X030083Y029294D01*
X030083Y029479D01*
X029961Y029541D02*
X029900Y029602D01*
X029776Y029602D01*
X029714Y029541D01*
X029714Y029294D01*
X029776Y029232D01*
X029900Y029232D01*
X029961Y029294D01*
X029961Y029541D01*
X029846Y029683D02*
X029969Y029806D01*
X029969Y030053D01*
X030091Y029930D02*
X030152Y029930D01*
X029846Y029683D02*
X029722Y029806D01*
X029722Y030053D01*
X030705Y029868D02*
X030952Y029868D01*
X031188Y029541D02*
X031188Y029294D01*
X031065Y029417D02*
X031312Y029417D01*
X030820Y029102D02*
X030697Y028979D01*
X030574Y028979D02*
X030451Y028979D01*
X030513Y029041D02*
X030513Y028794D01*
X030574Y028732D01*
X030697Y028732D02*
X030943Y028732D01*
X030820Y028732D02*
X030820Y029102D01*
X031065Y028917D02*
X031312Y028917D01*
X031188Y028541D02*
X031188Y028294D01*
X031065Y028417D02*
X031312Y028417D01*
X030943Y028479D02*
X030943Y028541D01*
X030882Y028602D01*
X030758Y028602D01*
X030697Y028541D01*
X030574Y028479D02*
X030451Y028479D01*
X030513Y028541D02*
X030513Y028294D01*
X030574Y028232D01*
X030697Y028232D02*
X030943Y028479D01*
X030943Y028232D02*
X030697Y028232D01*
X030758Y028102D02*
X030697Y028041D01*
X030758Y028102D02*
X030882Y028102D01*
X030943Y028041D01*
X030943Y027979D01*
X030697Y027732D01*
X030943Y027732D01*
X031065Y027917D02*
X031312Y027917D01*
X030574Y027979D02*
X030451Y027979D01*
X030513Y028041D02*
X030513Y027794D01*
X030574Y027732D01*
X030330Y027732D02*
X030330Y027979D01*
X030330Y027732D02*
X030144Y027732D01*
X030083Y027794D01*
X030083Y027979D01*
X029961Y028041D02*
X029900Y028102D01*
X029776Y028102D01*
X029714Y028041D01*
X029714Y027794D01*
X029776Y027732D01*
X029900Y027732D01*
X029961Y027794D01*
X029961Y028041D01*
X029900Y028232D02*
X029961Y028294D01*
X029961Y028541D01*
X029900Y028602D01*
X029776Y028602D01*
X029714Y028541D01*
X029714Y028294D01*
X029776Y028232D01*
X029900Y028232D01*
X030083Y028294D02*
X030144Y028232D01*
X030330Y028232D01*
X030330Y028479D01*
X030083Y028479D02*
X030083Y028294D01*
X030144Y028732D02*
X030330Y028732D01*
X030330Y028979D01*
X030083Y028979D02*
X030083Y028794D01*
X030144Y028732D01*
X029961Y028794D02*
X029961Y029041D01*
X029900Y029102D01*
X029776Y029102D01*
X029714Y029041D01*
X029714Y028794D01*
X029776Y028732D01*
X029900Y028732D01*
X029961Y028794D01*
X026105Y028677D02*
X025960Y028677D01*
X025960Y024677D02*
X026105Y024677D01*
X026056Y034382D02*
X026153Y034479D01*
X026056Y034576D01*
X025863Y034576D01*
X025960Y034677D02*
X025960Y034725D01*
X026153Y034725D01*
X026153Y034677D02*
X026153Y034773D01*
X026153Y034873D02*
X025960Y034873D01*
X025960Y035018D01*
X026008Y035067D01*
X026153Y035067D01*
X026008Y035168D02*
X026008Y035361D01*
X025911Y035264D02*
X026105Y035264D01*
X025863Y034725D02*
X025815Y034725D01*
X025863Y034382D02*
X026056Y034382D01*
X050878Y027583D02*
X050926Y027631D01*
X051023Y027631D01*
X051071Y027583D01*
X051071Y027438D01*
X051071Y027534D02*
X051168Y027631D01*
X051168Y027438D02*
X050878Y027438D01*
X050878Y027583D01*
X051168Y027337D02*
X051168Y027143D01*
X050878Y027143D01*
X050926Y027042D02*
X050878Y026994D01*
X050878Y026897D01*
X050926Y026848D01*
X051120Y026848D01*
X051168Y026897D01*
X051168Y026994D01*
X051120Y027042D01*
X051168Y026747D02*
X050878Y026747D01*
X050975Y026651D01*
X050878Y026554D01*
X051168Y026554D01*
X051878Y026598D02*
X052071Y026598D01*
X052168Y026695D01*
X052071Y026792D01*
X051878Y026792D01*
X051926Y026893D02*
X052120Y026893D01*
X052168Y026941D01*
X052168Y027038D01*
X052120Y027087D01*
X052120Y027188D02*
X052168Y027236D01*
X052168Y027333D01*
X052120Y027381D01*
X052120Y027188D02*
X051926Y027188D01*
X051878Y027236D01*
X051878Y027333D01*
X051926Y027381D01*
X051926Y027087D02*
X051878Y027038D01*
X051878Y026941D01*
X051926Y026893D01*
X052878Y026893D02*
X053168Y027087D01*
X052878Y027087D01*
X052878Y027188D02*
X052878Y027333D01*
X052926Y027381D01*
X053120Y027381D01*
X053168Y027333D01*
X053168Y027188D01*
X052878Y027188D01*
X052878Y026893D02*
X053168Y026893D01*
X053120Y026792D02*
X053023Y026792D01*
X053023Y026695D01*
X053120Y026598D02*
X053168Y026647D01*
X053168Y026744D01*
X053120Y026792D01*
X053120Y026598D02*
X052926Y026598D01*
X052878Y026647D01*
X052878Y026744D01*
X052926Y026792D01*
X053808Y026777D02*
X053808Y026874D01*
X053808Y026825D02*
X054098Y026825D01*
X054098Y026777D02*
X054098Y026874D01*
X054098Y026973D02*
X053808Y026973D01*
X054098Y027167D01*
X053808Y027167D01*
X053856Y027268D02*
X053808Y027317D01*
X053808Y027413D01*
X053856Y027462D01*
X053905Y027462D01*
X053953Y027413D01*
X054001Y027462D01*
X054050Y027462D01*
X054098Y027413D01*
X054098Y027317D01*
X054050Y027268D01*
X053953Y027365D02*
X053953Y027413D01*
X054001Y027563D02*
X053953Y027611D01*
X053953Y027708D01*
X054001Y027756D01*
X054050Y027756D01*
X054098Y027708D01*
X054098Y027611D01*
X054050Y027563D01*
X054001Y027563D01*
X053953Y027611D02*
X053905Y027563D01*
X053856Y027563D01*
X053808Y027611D01*
X053808Y027708D01*
X053856Y027756D01*
X053905Y027756D01*
X053953Y027708D01*
X054098Y027857D02*
X053808Y028051D01*
X053808Y028152D02*
X053808Y028297D01*
X053856Y028346D01*
X053953Y028346D01*
X054001Y028297D01*
X054001Y028152D01*
X054098Y028152D02*
X053808Y028152D01*
X053856Y028447D02*
X054050Y028447D01*
X054098Y028495D01*
X054098Y028592D01*
X054050Y028640D01*
X053953Y028640D01*
X053953Y028543D01*
X053856Y028447D02*
X053808Y028495D01*
X053808Y028592D01*
X053856Y028640D01*
X053808Y028741D02*
X053808Y028887D01*
X053856Y028935D01*
X054050Y028935D01*
X054098Y028887D01*
X054098Y028741D01*
X053808Y028741D01*
X054808Y028790D02*
X054856Y028741D01*
X055050Y028741D01*
X055098Y028790D01*
X055098Y028887D01*
X055050Y028935D01*
X054856Y028935D02*
X054808Y028887D01*
X054808Y028790D01*
X054856Y028640D02*
X054808Y028592D01*
X054808Y028495D01*
X054856Y028447D01*
X055050Y028447D01*
X055098Y028495D01*
X055098Y028592D01*
X055050Y028640D01*
X054953Y028640D01*
X054953Y028543D01*
X054953Y028346D02*
X055001Y028297D01*
X055001Y028152D01*
X055098Y028152D02*
X054808Y028152D01*
X054808Y028297D01*
X054856Y028346D01*
X054953Y028346D01*
X054808Y028051D02*
X055098Y027857D01*
X054856Y027756D02*
X055050Y027563D01*
X055098Y027563D01*
X055050Y027462D02*
X055098Y027413D01*
X055098Y027317D01*
X055050Y027268D01*
X055098Y027167D02*
X054808Y027167D01*
X054856Y027268D02*
X054808Y027317D01*
X054808Y027413D01*
X054856Y027462D01*
X054905Y027462D01*
X054953Y027413D01*
X055001Y027462D01*
X055050Y027462D01*
X054953Y027413D02*
X054953Y027365D01*
X054808Y027563D02*
X054808Y027756D01*
X054856Y027756D01*
X055098Y027167D02*
X054808Y026973D01*
X055098Y026973D01*
X055098Y026874D02*
X055098Y026777D01*
X055098Y026825D02*
X054808Y026825D01*
X054808Y026777D02*
X054808Y026874D01*
X054856Y026676D02*
X054953Y026676D01*
X055001Y026628D01*
X055001Y026482D01*
X055098Y026482D02*
X054808Y026482D01*
X054808Y026628D01*
X054856Y026676D01*
X054098Y026482D02*
X053808Y026482D01*
X053808Y026628D01*
X053856Y026676D01*
X053953Y026676D01*
X054001Y026628D01*
X054001Y026482D01*
X065808Y024256D02*
X065808Y024063D01*
X065808Y024160D02*
X066098Y024160D01*
X066098Y023962D02*
X066098Y023768D01*
X065808Y023768D01*
X065808Y023962D01*
X065953Y023865D02*
X065953Y023768D01*
X066001Y023667D02*
X066050Y023667D01*
X066098Y023619D01*
X066098Y023522D01*
X066050Y023474D01*
X065953Y023522D02*
X065953Y023619D01*
X066001Y023667D01*
X065856Y023667D02*
X065808Y023619D01*
X065808Y023522D01*
X065856Y023474D01*
X065905Y023474D01*
X065953Y023522D01*
X066098Y023372D02*
X066098Y023179D01*
X065808Y023179D01*
X065808Y023372D01*
X065953Y023276D02*
X065953Y023179D01*
X065953Y023078D02*
X066001Y023029D01*
X066001Y022884D01*
X066001Y022981D02*
X066098Y023078D01*
X065953Y023078D02*
X065856Y023078D01*
X065808Y023029D01*
X065808Y022884D01*
X066098Y022884D01*
X066050Y022488D02*
X065953Y022488D01*
X065953Y022392D01*
X066050Y022488D02*
X066098Y022440D01*
X066098Y022343D01*
X066050Y022295D01*
X065856Y022295D01*
X065808Y022343D01*
X065808Y022440D01*
X065856Y022488D01*
X065856Y022194D02*
X065808Y022145D01*
X065808Y022049D01*
X065856Y022000D01*
X066050Y022000D01*
X066098Y022049D01*
X066098Y022145D01*
X066050Y022194D01*
X065856Y022194D01*
X065856Y021899D02*
X065808Y021851D01*
X065808Y021706D01*
X066098Y021706D01*
X066098Y021851D01*
X066050Y021899D01*
X065856Y021899D01*
X065808Y021605D02*
X066098Y021605D01*
X065953Y021605D02*
X065953Y021411D01*
X066050Y021310D02*
X066098Y021261D01*
X066098Y021165D01*
X066050Y021116D01*
X065856Y021116D01*
X065808Y021165D01*
X065808Y021261D01*
X065856Y021310D01*
X065808Y021411D02*
X066098Y021411D01*
X065808Y021015D02*
X065808Y020822D01*
X065808Y020918D02*
X066098Y020918D01*
X066098Y020721D02*
X065905Y020721D01*
X065808Y020624D01*
X065905Y020527D01*
X066098Y020527D01*
X066098Y020426D02*
X065808Y020426D01*
X065953Y020527D02*
X065953Y020721D01*
X066098Y020426D02*
X066001Y020329D01*
X066098Y020232D01*
X065808Y020232D01*
X065168Y020304D02*
X064878Y020304D01*
X064975Y020401D01*
X064878Y020497D01*
X065168Y020497D01*
X065120Y020598D02*
X065168Y020647D01*
X065168Y020744D01*
X065120Y020792D01*
X065168Y020893D02*
X065168Y021087D01*
X065168Y021188D02*
X064878Y021188D01*
X064878Y021333D01*
X064926Y021381D01*
X065023Y021381D01*
X065071Y021333D01*
X065071Y021188D01*
X065071Y021284D02*
X065168Y021381D01*
X065168Y020893D02*
X064878Y020893D01*
X064926Y020792D02*
X064878Y020744D01*
X064878Y020647D01*
X064926Y020598D01*
X065120Y020598D01*
X060848Y016963D02*
X060558Y016963D01*
X060558Y016866D02*
X060558Y017060D01*
X060606Y016765D02*
X060558Y016717D01*
X060558Y016620D01*
X060606Y016572D01*
X060800Y016572D01*
X060848Y016620D01*
X060848Y016717D01*
X060800Y016765D01*
X060606Y016765D01*
X060606Y016471D02*
X060558Y016422D01*
X060558Y016325D01*
X060606Y016277D01*
X060800Y016277D01*
X060848Y016325D01*
X060848Y016422D01*
X060800Y016471D01*
X060606Y016471D01*
X060606Y016176D02*
X060655Y016176D01*
X060703Y016128D01*
X060703Y015982D01*
X060848Y015982D02*
X060848Y016128D01*
X060800Y016176D01*
X060751Y016176D01*
X060703Y016128D01*
X060606Y016176D02*
X060558Y016128D01*
X060558Y015982D01*
X060848Y015982D01*
X061558Y016031D02*
X061558Y016128D01*
X061606Y016176D01*
X061703Y016176D02*
X061703Y016079D01*
X061703Y016176D02*
X061800Y016176D01*
X061848Y016128D01*
X061848Y016031D01*
X061800Y015982D01*
X061606Y015982D01*
X061558Y016031D01*
X061558Y016277D02*
X061848Y016471D01*
X061558Y016471D01*
X061558Y016572D02*
X061558Y016717D01*
X061606Y016765D01*
X061800Y016765D01*
X061848Y016717D01*
X061848Y016572D01*
X061558Y016572D01*
X061558Y016277D02*
X061848Y016277D01*
X073113Y022382D02*
X073306Y022382D01*
X073403Y022479D01*
X073306Y022576D01*
X073113Y022576D01*
X073258Y022677D02*
X073258Y022870D01*
X073161Y022773D02*
X073355Y022773D01*
X073355Y023132D02*
X073403Y023180D01*
X073403Y023277D01*
X073355Y023326D01*
X073306Y023326D01*
X073258Y023277D01*
X073258Y023180D01*
X073210Y023132D01*
X073161Y023132D01*
X073113Y023180D01*
X073113Y023277D01*
X073161Y023326D01*
X073161Y023427D02*
X073355Y023427D01*
X073403Y023475D01*
X073403Y023572D01*
X073355Y023620D01*
X073403Y023721D02*
X073403Y023915D01*
X073403Y023721D02*
X073113Y023721D01*
X073161Y023620D02*
X073113Y023572D01*
X073113Y023475D01*
X073161Y023427D01*
X073161Y024382D02*
X073210Y024382D01*
X073258Y024430D01*
X073258Y024527D01*
X073306Y024576D01*
X073355Y024576D01*
X073403Y024527D01*
X073403Y024430D01*
X073355Y024382D01*
X073161Y024382D02*
X073113Y024430D01*
X073113Y024527D01*
X073161Y024576D01*
X073113Y024677D02*
X073113Y024822D01*
X073161Y024870D01*
X073355Y024870D01*
X073403Y024822D01*
X073403Y024677D01*
X073113Y024677D01*
X073210Y024971D02*
X073113Y025068D01*
X073210Y025165D01*
X073403Y025165D01*
X073258Y025165D02*
X073258Y024971D01*
X073210Y024971D02*
X073403Y024971D01*
X073306Y025632D02*
X073403Y025729D01*
X073306Y025826D01*
X073113Y025826D01*
X073258Y025927D02*
X073258Y026120D01*
X073306Y025632D02*
X073113Y025632D01*
X073113Y027382D02*
X073306Y027382D01*
X073403Y027479D01*
X073306Y027576D01*
X073113Y027576D01*
X073258Y027677D02*
X073258Y027870D01*
X073161Y027773D02*
X073355Y027773D01*
X073355Y028132D02*
X073403Y028180D01*
X073403Y028277D01*
X073355Y028326D01*
X073306Y028326D01*
X073258Y028277D01*
X073258Y028180D01*
X073210Y028132D01*
X073161Y028132D01*
X073113Y028180D01*
X073113Y028277D01*
X073161Y028326D01*
X073161Y028427D02*
X073355Y028427D01*
X073403Y028475D01*
X073403Y028572D01*
X073355Y028620D01*
X073403Y028721D02*
X073403Y028915D01*
X073403Y028721D02*
X073113Y028721D01*
X073161Y028620D02*
X073113Y028572D01*
X073113Y028475D01*
X073161Y028427D01*
X073161Y029382D02*
X073210Y029382D01*
X073258Y029430D01*
X073258Y029527D01*
X073306Y029576D01*
X073355Y029576D01*
X073403Y029527D01*
X073403Y029430D01*
X073355Y029382D01*
X073161Y029382D02*
X073113Y029430D01*
X073113Y029527D01*
X073161Y029576D01*
X073113Y029677D02*
X073113Y029822D01*
X073161Y029870D01*
X073355Y029870D01*
X073403Y029822D01*
X073403Y029677D01*
X073113Y029677D01*
X073210Y029971D02*
X073113Y030068D01*
X073210Y030165D01*
X073403Y030165D01*
X073258Y030165D02*
X073258Y029971D01*
X073210Y029971D02*
X073403Y029971D01*
X073306Y030632D02*
X073403Y030729D01*
X073306Y030826D01*
X073113Y030826D01*
X073258Y030927D02*
X073258Y031120D01*
X073306Y030632D02*
X073113Y030632D01*
X073113Y032382D02*
X073306Y032382D01*
X073403Y032479D01*
X073306Y032576D01*
X073113Y032576D01*
X073258Y032677D02*
X073258Y032870D01*
X073161Y032773D02*
X073355Y032773D01*
X073355Y033132D02*
X073403Y033180D01*
X073403Y033277D01*
X073355Y033326D01*
X073306Y033326D01*
X073258Y033277D01*
X073258Y033180D01*
X073210Y033132D01*
X073161Y033132D01*
X073113Y033180D01*
X073113Y033277D01*
X073161Y033326D01*
X073161Y033427D02*
X073355Y033427D01*
X073403Y033475D01*
X073403Y033572D01*
X073355Y033620D01*
X073403Y033721D02*
X073403Y033915D01*
X073403Y033721D02*
X073113Y033721D01*
X073161Y033620D02*
X073113Y033572D01*
X073113Y033475D01*
X073161Y033427D01*
X073161Y034382D02*
X073210Y034382D01*
X073258Y034430D01*
X073258Y034527D01*
X073306Y034576D01*
X073355Y034576D01*
X073403Y034527D01*
X073403Y034430D01*
X073355Y034382D01*
X073161Y034382D02*
X073113Y034430D01*
X073113Y034527D01*
X073161Y034576D01*
X073113Y034677D02*
X073113Y034822D01*
X073161Y034870D01*
X073355Y034870D01*
X073403Y034822D01*
X073403Y034677D01*
X073113Y034677D01*
X073210Y034971D02*
X073113Y035068D01*
X073210Y035165D01*
X073403Y035165D01*
X073258Y035165D02*
X073258Y034971D01*
X073210Y034971D02*
X073403Y034971D01*
X073306Y035632D02*
X073403Y035729D01*
X073306Y035826D01*
X073113Y035826D01*
X073258Y035927D02*
X073258Y036120D01*
X073306Y035632D02*
X073113Y035632D01*
D13*
X054863Y023217D02*
X053363Y023217D01*
X046580Y022517D02*
X046582Y022539D01*
X046588Y022561D01*
X046597Y022581D01*
X046610Y022599D01*
X046626Y022615D01*
X046644Y022628D01*
X046664Y022637D01*
X046686Y022643D01*
X046708Y022645D01*
X046730Y022643D01*
X046752Y022637D01*
X046772Y022628D01*
X046790Y022615D01*
X046806Y022599D01*
X046819Y022581D01*
X046828Y022561D01*
X046834Y022539D01*
X046836Y022517D01*
X046834Y022495D01*
X046828Y022473D01*
X046819Y022453D01*
X046806Y022435D01*
X046790Y022419D01*
X046772Y022406D01*
X046752Y022397D01*
X046730Y022391D01*
X046708Y022389D01*
X046686Y022391D01*
X046664Y022397D01*
X046644Y022406D01*
X046626Y022419D01*
X046610Y022435D01*
X046597Y022453D01*
X046588Y022473D01*
X046582Y022495D01*
X046580Y022517D01*
X037044Y023373D02*
X030169Y023373D01*
X030154Y023373D01*
X030963Y022773D02*
X031213Y022773D01*
X031213Y021523D01*
X030963Y021523D02*
X031213Y020773D01*
X031213Y020273D01*
X030963Y020273D01*
X030088Y019273D02*
X030074Y019273D01*
X030088Y019273D02*
X036963Y019273D01*
X036963Y019336D02*
X036963Y023273D01*
X037044Y023436D02*
X037044Y027373D01*
X036044Y025873D02*
X036044Y025623D01*
X036544Y025623D01*
X036544Y025123D01*
X036294Y025123D01*
X035794Y025623D01*
X036044Y025623D01*
X035794Y025623D02*
X035544Y025623D01*
X035544Y025123D01*
X036044Y025123D01*
X036044Y024873D01*
X036044Y025123D02*
X036294Y025123D01*
X036344Y024873D02*
X036346Y024886D01*
X036351Y024899D01*
X036360Y024910D01*
X036371Y024917D01*
X036384Y024922D01*
X036397Y024923D01*
X036411Y024920D01*
X036423Y024914D01*
X036433Y024905D01*
X036440Y024893D01*
X036444Y024880D01*
X036444Y024866D01*
X036440Y024853D01*
X036433Y024841D01*
X036423Y024832D01*
X036411Y024826D01*
X036397Y024823D01*
X036384Y024824D01*
X036371Y024829D01*
X036360Y024836D01*
X036351Y024847D01*
X036346Y024860D01*
X036344Y024873D01*
X031294Y024873D02*
X031294Y024373D01*
X031044Y024373D01*
X031294Y024873D02*
X031044Y025623D01*
X031294Y025623D02*
X031294Y026873D01*
X031044Y026873D01*
X042863Y026967D02*
X042863Y027717D01*
X036463Y021523D02*
X036463Y021023D01*
X036213Y021023D01*
X035713Y021523D01*
X035963Y021523D01*
X035963Y021773D01*
X035963Y021523D02*
X036463Y021523D01*
X035713Y021523D02*
X035463Y021523D01*
X035463Y021023D01*
X035963Y021023D01*
X035963Y020773D01*
X035963Y021023D02*
X036213Y021023D01*
X036263Y020773D02*
X036265Y020786D01*
X036270Y020799D01*
X036279Y020810D01*
X036290Y020817D01*
X036303Y020822D01*
X036316Y020823D01*
X036330Y020820D01*
X036342Y020814D01*
X036352Y020805D01*
X036359Y020793D01*
X036363Y020780D01*
X036363Y020766D01*
X036359Y020753D01*
X036352Y020741D01*
X036342Y020732D01*
X036330Y020726D01*
X036316Y020723D01*
X036303Y020724D01*
X036290Y020729D01*
X036279Y020736D01*
X036270Y020747D01*
X036265Y020760D01*
X036263Y020773D01*
X027599Y018981D02*
X027599Y018076D01*
X027599Y018981D02*
X026891Y018981D01*
X025946Y018981D02*
X025670Y018981D01*
X027599Y016658D02*
X027599Y015753D01*
X026891Y015753D01*
X025946Y015753D02*
X025670Y015753D01*
X061738Y019842D02*
X061863Y019967D01*
X063613Y019967D01*
X034863Y038967D02*
X034363Y038467D01*
X034863Y038967D02*
X034863Y039967D01*
D14*
X035538Y038084D02*
X031798Y038084D01*
X031798Y027650D01*
X035538Y027650D01*
X035538Y038084D01*
X035798Y038084D02*
X035798Y027650D01*
X039538Y027650D01*
X039538Y038084D01*
X035798Y038084D01*
X036218Y037367D02*
X036868Y037367D01*
X036868Y037267D02*
X036418Y037267D01*
X036418Y037117D01*
X036668Y037117D01*
X036668Y035117D01*
X036218Y035117D01*
X036218Y037117D01*
X036218Y037367D01*
X036218Y037117D02*
X036418Y037117D01*
X035118Y037117D02*
X034668Y037117D01*
X034668Y035117D01*
X035118Y035117D01*
X035118Y037117D01*
X032868Y037267D02*
X032418Y037267D01*
X032418Y037117D01*
X032668Y037117D01*
X032668Y035117D01*
X032218Y035117D01*
X032218Y037117D01*
X032218Y037367D01*
X032868Y037367D01*
X032418Y037117D02*
X032218Y037117D01*
X031418Y036667D02*
X030418Y036667D01*
X030418Y035067D01*
X031418Y035067D01*
X031418Y036667D01*
X031168Y036267D02*
X030668Y036267D01*
X030918Y035867D01*
X031168Y035867D01*
X030918Y035867D02*
X030668Y035867D01*
X030918Y035867D02*
X031168Y036267D01*
X030918Y036467D02*
X030918Y035867D01*
X030918Y035617D01*
X030268Y033167D02*
X030268Y032967D01*
X030168Y033067D02*
X030368Y033067D01*
X029668Y032367D02*
X029670Y032430D01*
X029676Y032492D01*
X029686Y032554D01*
X029699Y032616D01*
X029717Y032676D01*
X029738Y032735D01*
X029763Y032793D01*
X029792Y032849D01*
X029824Y032903D01*
X029859Y032955D01*
X029897Y033004D01*
X029939Y033052D01*
X029983Y033096D01*
X030031Y033138D01*
X030080Y033176D01*
X030132Y033211D01*
X030186Y033243D01*
X030242Y033272D01*
X030300Y033297D01*
X030359Y033318D01*
X030419Y033336D01*
X030481Y033349D01*
X030543Y033359D01*
X030605Y033365D01*
X030668Y033367D01*
X030731Y033365D01*
X030793Y033359D01*
X030855Y033349D01*
X030917Y033336D01*
X030977Y033318D01*
X031036Y033297D01*
X031094Y033272D01*
X031150Y033243D01*
X031204Y033211D01*
X031256Y033176D01*
X031305Y033138D01*
X031353Y033096D01*
X031397Y033052D01*
X031439Y033004D01*
X031477Y032955D01*
X031512Y032903D01*
X031544Y032849D01*
X031573Y032793D01*
X031598Y032735D01*
X031619Y032676D01*
X031637Y032616D01*
X031650Y032554D01*
X031660Y032492D01*
X031666Y032430D01*
X031668Y032367D01*
X031666Y032304D01*
X031660Y032242D01*
X031650Y032180D01*
X031637Y032118D01*
X031619Y032058D01*
X031598Y031999D01*
X031573Y031941D01*
X031544Y031885D01*
X031512Y031831D01*
X031477Y031779D01*
X031439Y031730D01*
X031397Y031682D01*
X031353Y031638D01*
X031305Y031596D01*
X031256Y031558D01*
X031204Y031523D01*
X031150Y031491D01*
X031094Y031462D01*
X031036Y031437D01*
X030977Y031416D01*
X030917Y031398D01*
X030855Y031385D01*
X030793Y031375D01*
X030731Y031369D01*
X030668Y031367D01*
X030605Y031369D01*
X030543Y031375D01*
X030481Y031385D01*
X030419Y031398D01*
X030359Y031416D01*
X030300Y031437D01*
X030242Y031462D01*
X030186Y031491D01*
X030132Y031523D01*
X030080Y031558D01*
X030031Y031596D01*
X029983Y031638D01*
X029939Y031682D01*
X029897Y031730D01*
X029859Y031779D01*
X029824Y031831D01*
X029792Y031885D01*
X029763Y031941D01*
X029738Y031999D01*
X029717Y032058D01*
X029699Y032118D01*
X029686Y032180D01*
X029676Y032242D01*
X029670Y032304D01*
X029668Y032367D01*
X032218Y030617D02*
X032668Y030617D01*
X032668Y028617D01*
X032218Y028617D01*
X032218Y030617D01*
X034668Y030617D02*
X035118Y030617D01*
X035118Y028617D01*
X035118Y028367D01*
X034468Y028367D01*
X034468Y028467D02*
X034918Y028467D01*
X034918Y028617D01*
X034668Y028617D01*
X034668Y030617D01*
X036218Y030617D02*
X036668Y030617D01*
X036668Y028617D01*
X036218Y028617D01*
X036218Y030617D01*
X038668Y030617D02*
X039118Y030617D01*
X039118Y028617D01*
X039118Y028367D01*
X038468Y028367D01*
X038468Y028467D02*
X038918Y028467D01*
X038918Y028617D01*
X038668Y028617D01*
X038668Y030617D01*
X038918Y028617D02*
X039118Y028617D01*
X035118Y028617D02*
X034918Y028617D01*
X037163Y026423D02*
X037763Y026423D01*
X037780Y026421D01*
X037797Y026417D01*
X037813Y026410D01*
X037827Y026400D01*
X037840Y026387D01*
X037850Y026373D01*
X037857Y026357D01*
X037861Y026340D01*
X037863Y026323D01*
X037863Y024723D01*
X037861Y024706D01*
X037857Y024689D01*
X037850Y024673D01*
X037840Y024659D01*
X037827Y024646D01*
X037813Y024636D01*
X037797Y024629D01*
X037780Y024625D01*
X037763Y024623D01*
X037163Y024623D01*
X037146Y024625D01*
X037129Y024629D01*
X037113Y024636D01*
X037099Y024646D01*
X037086Y024659D01*
X037076Y024673D01*
X037069Y024689D01*
X037065Y024706D01*
X037063Y024723D01*
X037063Y026323D01*
X037065Y026340D01*
X037069Y026357D01*
X037076Y026373D01*
X037086Y026387D01*
X037099Y026400D01*
X037113Y026410D01*
X037129Y026417D01*
X037146Y026421D01*
X037163Y026423D01*
X037463Y026123D02*
X037463Y025523D01*
X037713Y025523D01*
X037463Y025523D02*
X037213Y025523D01*
X037463Y025523D02*
X037213Y025923D01*
X037713Y025923D01*
X037463Y025523D01*
X037463Y025273D01*
X037171Y022267D02*
X037771Y022267D01*
X037788Y022265D01*
X037805Y022261D01*
X037821Y022254D01*
X037835Y022244D01*
X037848Y022231D01*
X037858Y022217D01*
X037865Y022201D01*
X037869Y022184D01*
X037871Y022167D01*
X037871Y020567D01*
X037869Y020550D01*
X037865Y020533D01*
X037858Y020517D01*
X037848Y020503D01*
X037835Y020490D01*
X037821Y020480D01*
X037805Y020473D01*
X037788Y020469D01*
X037771Y020467D01*
X037171Y020467D01*
X037154Y020469D01*
X037137Y020473D01*
X037121Y020480D01*
X037107Y020490D01*
X037094Y020503D01*
X037084Y020517D01*
X037077Y020533D01*
X037073Y020550D01*
X037071Y020567D01*
X037071Y022167D01*
X037073Y022184D01*
X037077Y022201D01*
X037084Y022217D01*
X037094Y022231D01*
X037107Y022244D01*
X037121Y022254D01*
X037137Y022261D01*
X037154Y022265D01*
X037171Y022267D01*
X037471Y021967D02*
X037471Y021367D01*
X037721Y021367D01*
X037471Y021367D02*
X037221Y021367D01*
X037471Y021367D02*
X037221Y021767D01*
X037721Y021767D01*
X037471Y021367D01*
X037471Y021117D01*
X046381Y022288D02*
X046381Y023257D01*
X046483Y023355D02*
X047452Y023355D01*
X047448Y023355D02*
X047465Y023354D01*
X047482Y023349D01*
X047497Y023342D01*
X047511Y023332D01*
X047523Y023320D01*
X047533Y023306D01*
X047540Y023291D01*
X047545Y023274D01*
X047546Y023257D01*
X047546Y022284D01*
X047545Y022267D01*
X047540Y022250D01*
X047533Y022235D01*
X047523Y022221D01*
X047511Y022209D01*
X047497Y022199D01*
X047482Y022192D01*
X047465Y022187D01*
X047448Y022186D01*
X047452Y022186D02*
X046483Y022186D01*
X050463Y025523D02*
X050713Y025273D01*
X051213Y025273D01*
X051463Y025523D01*
X051713Y025273D01*
X052213Y025273D01*
X052463Y025523D01*
X052713Y025273D01*
X053213Y025273D01*
X053463Y025523D01*
X053713Y025273D01*
X054213Y025273D01*
X054463Y025523D01*
X054713Y025273D01*
X055213Y025273D01*
X055463Y025523D01*
X055713Y025273D01*
X056213Y025273D01*
X056463Y025523D01*
X056463Y026023D01*
X056213Y026273D01*
X055713Y026273D01*
X055463Y026023D01*
X055213Y026273D01*
X054713Y026273D01*
X054463Y026023D01*
X054213Y026273D01*
X053713Y026273D01*
X053463Y026023D01*
X053213Y026273D01*
X052713Y026273D01*
X052463Y026023D01*
X052213Y026273D01*
X051713Y026273D01*
X051463Y026023D01*
X051213Y026273D01*
X050713Y026273D01*
X050463Y026023D01*
X050463Y025523D01*
X067348Y018998D02*
X068768Y018998D01*
X068768Y017138D02*
X067348Y017138D01*
X071918Y022117D02*
X071668Y022367D01*
X071668Y022867D01*
X071918Y023117D01*
X071668Y023367D01*
X071668Y023867D01*
X071918Y024117D01*
X071668Y024367D01*
X071668Y024867D01*
X071918Y025117D01*
X071668Y025367D01*
X071668Y025867D01*
X071918Y026117D01*
X072418Y026117D01*
X072668Y025867D01*
X072668Y025367D01*
X072418Y025117D01*
X072668Y024867D01*
X072668Y024367D01*
X072418Y024117D01*
X072668Y023867D01*
X072668Y023367D01*
X072418Y023117D01*
X072668Y022867D01*
X072668Y022367D01*
X072418Y022117D01*
X071918Y022117D01*
X071918Y027117D02*
X071668Y027367D01*
X071668Y027867D01*
X071918Y028117D01*
X071668Y028367D01*
X071668Y028867D01*
X071918Y029117D01*
X071668Y029367D01*
X071668Y029867D01*
X071918Y030117D01*
X071668Y030367D01*
X071668Y030867D01*
X071918Y031117D01*
X072418Y031117D01*
X072668Y030867D01*
X072668Y030367D01*
X072418Y030117D01*
X072668Y029867D01*
X072668Y029367D01*
X072418Y029117D01*
X072668Y028867D01*
X072668Y028367D01*
X072418Y028117D01*
X072668Y027867D01*
X072668Y027367D01*
X072418Y027117D01*
X071918Y027117D01*
X071918Y032117D02*
X071668Y032367D01*
X071668Y032867D01*
X071918Y033117D01*
X071668Y033367D01*
X071668Y033867D01*
X071918Y034117D01*
X071668Y034367D01*
X071668Y034867D01*
X071918Y035117D01*
X071668Y035367D01*
X071668Y035867D01*
X071918Y036117D01*
X072418Y036117D01*
X072668Y035867D01*
X072668Y035367D01*
X072418Y035117D01*
X072668Y034867D01*
X072668Y034367D01*
X072418Y034117D01*
X072668Y033867D01*
X072668Y033367D01*
X072418Y033117D01*
X072668Y032867D01*
X072668Y032367D01*
X072418Y032117D01*
X071918Y032117D01*
X062770Y038004D02*
X062663Y037897D01*
X062449Y037897D01*
X062343Y038004D01*
X062343Y038217D02*
X062556Y038324D01*
X062663Y038324D01*
X062770Y038217D01*
X062770Y038004D01*
X062343Y038217D02*
X062343Y038538D01*
X062770Y038538D01*
X062125Y038538D02*
X061912Y038538D01*
X062018Y038538D02*
X062018Y038004D01*
X061912Y037897D01*
X061805Y037897D01*
X061698Y038004D01*
X056270Y038217D02*
X055843Y038217D01*
X056163Y038538D01*
X056163Y037897D01*
X055518Y038004D02*
X055518Y038538D01*
X055412Y038538D02*
X055625Y038538D01*
X055518Y038004D02*
X055412Y037897D01*
X055305Y037897D01*
X055198Y038004D01*
X049770Y038004D02*
X049770Y038111D01*
X049663Y038217D01*
X049343Y038217D01*
X049343Y038004D01*
X049449Y037897D01*
X049663Y037897D01*
X049770Y038004D01*
X049556Y038431D02*
X049343Y038217D01*
X049556Y038431D02*
X049770Y038538D01*
X049125Y038538D02*
X048912Y038538D01*
X049018Y038538D02*
X049018Y038004D01*
X048912Y037897D01*
X048805Y037897D01*
X048698Y038004D01*
X043270Y037897D02*
X042843Y037897D01*
X043270Y038324D01*
X043270Y038431D01*
X043163Y038538D01*
X042949Y038538D01*
X042843Y038431D01*
X042625Y038538D02*
X042412Y038538D01*
X042518Y038538D02*
X042518Y038004D01*
X042412Y037897D01*
X042305Y037897D01*
X042198Y038004D01*
X039118Y037117D02*
X038668Y037117D01*
X038668Y035117D01*
X039118Y035117D01*
X039118Y037117D01*
D15*
X030918Y035317D03*
D16*
X030918Y034692D03*
X030918Y037042D03*
D17*
X030243Y036103D02*
X030243Y035802D01*
X030243Y035953D02*
X029793Y035953D01*
X029943Y035802D01*
X029868Y035642D02*
X029793Y035567D01*
X029793Y035342D01*
X030243Y035342D01*
X030243Y035567D01*
X030168Y035642D01*
X029868Y035642D01*
X029538Y035773D02*
X029538Y023961D01*
X026290Y023961D01*
X026290Y025930D01*
X025798Y025930D01*
X025798Y023961D01*
X026290Y023961D01*
X029838Y023398D02*
X029838Y019273D01*
X030088Y019273D01*
X037996Y019542D02*
X037996Y019767D01*
X038071Y019842D01*
X038371Y019842D01*
X038446Y019767D01*
X038446Y019542D01*
X037996Y019542D01*
X038221Y020002D02*
X038221Y020303D01*
X037996Y020228D02*
X038221Y020002D01*
X038446Y020228D02*
X037996Y020228D01*
X036963Y023273D02*
X036963Y023398D01*
X029838Y023398D01*
X029919Y023373D02*
X030169Y023373D01*
X029919Y023373D02*
X029919Y027498D01*
X037044Y027498D01*
X037044Y027373D01*
X038063Y024408D02*
X037988Y024333D01*
X037988Y024183D01*
X038063Y024108D01*
X038063Y023948D02*
X037988Y023873D01*
X037988Y023648D01*
X038438Y023648D01*
X038438Y023873D01*
X038363Y023948D01*
X038063Y023948D01*
X038438Y024108D02*
X038138Y024408D01*
X038063Y024408D01*
X038438Y024408D02*
X038438Y024108D01*
X026290Y025930D02*
X026290Y027899D01*
X025798Y027899D01*
X025798Y025930D01*
X025798Y027899D02*
X025798Y029867D01*
X026290Y029867D01*
X026290Y027899D01*
X026290Y029867D02*
X026290Y031836D01*
X025798Y031836D01*
X025798Y029867D01*
X025798Y031836D02*
X025798Y033804D01*
X026290Y033804D01*
X026290Y031836D01*
X026290Y033804D02*
X026290Y035773D01*
X029538Y035773D01*
X026290Y035773D02*
X025798Y035773D01*
X025798Y033804D01*
X029693Y033917D02*
X029693Y033617D01*
X029768Y033542D01*
X029918Y033542D01*
X029993Y033617D01*
X030154Y033617D02*
X030229Y033542D01*
X030379Y033542D01*
X030454Y033617D01*
X030454Y033767D01*
X030379Y033842D01*
X030304Y033842D01*
X030154Y033767D01*
X030154Y033992D01*
X030454Y033992D01*
X029993Y033917D02*
X029918Y033992D01*
X029768Y033992D01*
X029693Y033917D01*
X050738Y024948D02*
X050889Y025098D01*
X050889Y024648D01*
X051039Y024648D02*
X050738Y024648D01*
X051738Y024523D02*
X051814Y024448D01*
X051889Y024448D01*
X051964Y024523D01*
X051964Y024898D01*
X051889Y024898D02*
X052039Y024898D01*
X052199Y024898D02*
X052424Y024898D01*
X052499Y024823D01*
X052499Y024673D01*
X052424Y024598D01*
X052199Y024598D01*
X052199Y024448D02*
X052199Y024898D01*
X052659Y024673D02*
X052960Y024673D01*
X052884Y024898D02*
X052659Y024673D01*
X052884Y024448D02*
X052884Y024898D01*
X055738Y026523D02*
X055814Y026448D01*
X055964Y026448D01*
X056039Y026523D01*
X056039Y026598D01*
X055964Y026673D01*
X055738Y026673D01*
X055738Y026523D01*
X055738Y026673D02*
X055889Y026823D01*
X056039Y026898D01*
X069843Y029336D02*
X069918Y029261D01*
X069993Y029261D01*
X070068Y029336D01*
X070068Y029486D01*
X070143Y029561D01*
X070218Y029561D01*
X070293Y029486D01*
X070293Y029336D01*
X070218Y029261D01*
X069843Y029336D02*
X069843Y029486D01*
X069918Y029561D01*
X069843Y029721D02*
X070143Y029721D01*
X070293Y029871D01*
X070143Y030021D01*
X069843Y030021D01*
X069993Y030182D02*
X069843Y030332D01*
X070293Y030332D01*
X070293Y030182D02*
X070293Y030482D01*
X071943Y031282D02*
X072393Y031282D01*
X072393Y031132D02*
X072393Y031432D01*
X072168Y031582D02*
X072168Y031882D01*
X072393Y031807D02*
X071943Y031807D01*
X072168Y031582D01*
X071943Y031282D02*
X072093Y031132D01*
X072168Y026882D02*
X072168Y026582D01*
X071943Y026807D01*
X072393Y026807D01*
X072393Y026432D02*
X072393Y026132D01*
X072393Y026282D02*
X071943Y026282D01*
X072093Y026132D01*
X070543Y025407D02*
X070543Y025257D01*
X070468Y025182D01*
X070393Y025021D02*
X070093Y025021D01*
X070168Y025182D02*
X070093Y025257D01*
X070093Y025407D01*
X070168Y025482D01*
X070243Y025482D01*
X070318Y025407D01*
X070393Y025482D01*
X070468Y025482D01*
X070543Y025407D01*
X070318Y025407D02*
X070318Y025332D01*
X070393Y025021D02*
X070543Y024871D01*
X070393Y024721D01*
X070093Y024721D01*
X070168Y024561D02*
X070093Y024486D01*
X070093Y024336D01*
X070168Y024261D01*
X070243Y024261D01*
X070318Y024336D01*
X070318Y024486D01*
X070393Y024561D01*
X070468Y024561D01*
X070543Y024486D01*
X070543Y024336D01*
X070468Y024261D01*
X071943Y021807D02*
X072168Y021582D01*
X072168Y021882D01*
X072393Y021807D02*
X071943Y021807D01*
X065453Y018748D02*
X065453Y018673D01*
X065378Y018598D01*
X065453Y018523D01*
X065453Y018448D01*
X065378Y018373D01*
X065228Y018373D01*
X065153Y018448D01*
X065303Y018598D02*
X065378Y018598D01*
X065453Y018748D02*
X065378Y018823D01*
X065228Y018823D01*
X065153Y018748D01*
X064992Y018748D02*
X064992Y018598D01*
X064917Y018523D01*
X064692Y018523D01*
X064692Y018373D02*
X064692Y018823D01*
X064917Y018823D01*
X064992Y018748D01*
X064532Y018823D02*
X064382Y018823D01*
X064457Y018823D02*
X064457Y018448D01*
X064382Y018373D01*
X064307Y018373D01*
X064232Y018448D01*
X063634Y018062D02*
X063334Y018062D01*
X063334Y017837D01*
X063484Y017912D01*
X063559Y017912D01*
X063634Y017837D01*
X063634Y017687D01*
X063559Y017612D01*
X063409Y017612D01*
X063334Y017687D01*
X063174Y017837D02*
X063099Y017762D01*
X062874Y017762D01*
X062874Y017612D02*
X062874Y018062D01*
X063099Y018062D01*
X063174Y017987D01*
X063174Y017837D01*
X062713Y018062D02*
X062563Y018062D01*
X062638Y018062D02*
X062638Y017687D01*
X062563Y017612D01*
X062488Y017612D01*
X062413Y017687D01*
X068131Y035686D02*
X068131Y038048D01*
X069706Y038048D01*
X069706Y035686D01*
X068131Y035686D01*
X068915Y036021D02*
X068917Y036049D01*
X068923Y036076D01*
X068932Y036102D01*
X068945Y036127D01*
X068962Y036150D01*
X068981Y036170D01*
X069003Y036187D01*
X069027Y036201D01*
X069053Y036211D01*
X069080Y036218D01*
X069108Y036221D01*
X069136Y036220D01*
X069163Y036215D01*
X069190Y036206D01*
X069215Y036194D01*
X069238Y036179D01*
X069259Y036160D01*
X069277Y036139D01*
X069292Y036115D01*
X069303Y036089D01*
X069311Y036063D01*
X069315Y036035D01*
X069315Y036007D01*
X069311Y035979D01*
X069303Y035953D01*
X069292Y035927D01*
X069277Y035903D01*
X069259Y035882D01*
X069238Y035863D01*
X069215Y035848D01*
X069190Y035836D01*
X069163Y035827D01*
X069136Y035822D01*
X069108Y035821D01*
X069080Y035824D01*
X069053Y035831D01*
X069027Y035841D01*
X069003Y035855D01*
X068981Y035872D01*
X068962Y035892D01*
X068945Y035915D01*
X068932Y035940D01*
X068923Y035966D01*
X068917Y035993D01*
X068915Y036021D01*
X068528Y037367D02*
X069308Y037367D01*
X069308Y037867D01*
X068528Y037867D01*
X068528Y037367D01*
X071943Y036282D02*
X072393Y036282D01*
X072393Y036132D02*
X072393Y036432D01*
X072093Y036132D02*
X071943Y036282D01*
X072843Y036336D02*
X072843Y036486D01*
X072918Y036561D01*
X073068Y036486D02*
X073143Y036561D01*
X073218Y036561D01*
X073293Y036486D01*
X073293Y036336D01*
X073218Y036261D01*
X073068Y036336D02*
X073068Y036486D01*
X073068Y036336D02*
X072993Y036261D01*
X072918Y036261D01*
X072843Y036336D01*
X072843Y036721D02*
X073143Y036721D01*
X073293Y036871D01*
X073143Y037021D01*
X072843Y037021D01*
X072918Y037182D02*
X072843Y037257D01*
X072843Y037407D01*
X072918Y037482D01*
X072993Y037482D01*
X073293Y037182D01*
X073293Y037482D01*
D18*
X037463Y024873D03*
X037471Y020717D03*
D19*
X037471Y020342D03*
X037471Y022392D03*
X037463Y024498D03*
X037463Y026548D03*
D20*
X037668Y030817D02*
X037668Y034917D01*
X036518Y034867D02*
X036518Y030867D01*
X034818Y030867D02*
X034818Y034867D01*
X033668Y034917D02*
X033668Y030817D01*
X032518Y030867D02*
X032518Y034867D01*
X038818Y034867D02*
X038818Y030867D01*
D21*
X037668Y028792D03*
X033668Y028792D03*
X033668Y036942D03*
X037668Y036942D03*
D22*
X036893Y036842D03*
X038443Y036842D03*
X034443Y036842D03*
X032893Y036842D03*
X032893Y028892D03*
X034443Y028892D03*
X036893Y028892D03*
X038443Y028892D03*
D23*
X038693Y030742D03*
X036643Y030742D03*
X034693Y030742D03*
X032643Y030742D03*
X032643Y034992D03*
X034693Y034992D03*
X036643Y034992D03*
X038693Y034992D03*
D24*
X037668Y034992D03*
X033668Y034992D03*
X033668Y030742D03*
X037668Y030742D03*
D25*
X036718Y032867D03*
X038618Y032867D03*
X034618Y032867D03*
X032718Y032867D03*
D26*
X032893Y029842D03*
X034443Y029842D03*
X036893Y029842D03*
X038443Y029842D03*
X038443Y035892D03*
X036893Y035892D03*
X034443Y035892D03*
X032893Y035892D03*
D27*
X032768Y036067D03*
X034568Y036067D03*
X036768Y036067D03*
X038568Y036067D03*
X038568Y029667D03*
X036768Y029667D03*
X034568Y029667D03*
X032768Y029667D03*
D28*
X033141Y031777D02*
X033141Y032408D01*
X033561Y032408D01*
X033785Y032197D02*
X033995Y032408D01*
X033995Y031777D01*
X033785Y031777D02*
X034206Y031777D01*
X033351Y032092D02*
X033141Y032092D01*
X037141Y032217D02*
X037351Y032217D01*
X037141Y031902D02*
X037141Y032533D01*
X037561Y032533D01*
X037785Y032427D02*
X037890Y032533D01*
X038101Y032533D01*
X038206Y032427D01*
X038206Y032322D01*
X037785Y031902D01*
X038206Y031902D01*
D29*
X039961Y034062D02*
X039961Y041188D01*
X045376Y041188D01*
X045376Y034062D01*
X039961Y034062D01*
X046461Y034062D02*
X046461Y041188D01*
X051876Y041188D01*
X051876Y034062D01*
X046461Y034062D01*
X052961Y034062D02*
X052961Y041188D01*
X058376Y041188D01*
X058376Y034062D01*
X052961Y034062D01*
X059461Y034062D02*
X059461Y041188D01*
X064876Y041188D01*
X064876Y034062D01*
X059461Y034062D01*
X044843Y027902D02*
X044843Y027706D01*
X044843Y027902D02*
X044647Y027902D01*
X043780Y027902D02*
X043584Y027902D01*
X043584Y027706D01*
X043584Y026839D02*
X043780Y026643D01*
X044647Y026643D02*
X044843Y026643D01*
X044843Y026839D01*
X044618Y025817D02*
X044518Y025817D01*
X042218Y025817D01*
X042118Y025717D01*
X042118Y023517D01*
X042218Y023417D01*
X044618Y023417D01*
X044718Y023517D01*
X044718Y025717D01*
X044618Y025817D01*
X045070Y025467D02*
X045857Y025467D01*
X045857Y024916D01*
X045739Y024641D02*
X045463Y024641D01*
X045700Y024404D01*
X045227Y024404D01*
X045463Y024641D01*
X045188Y024641D01*
X045070Y024916D02*
X045070Y025467D01*
X043568Y024617D02*
X043570Y024630D01*
X043575Y024643D01*
X043584Y024654D01*
X043595Y024661D01*
X043608Y024666D01*
X043621Y024667D01*
X043635Y024664D01*
X043647Y024658D01*
X043657Y024649D01*
X043664Y024637D01*
X043668Y024624D01*
X043668Y024610D01*
X043664Y024597D01*
X043657Y024585D01*
X043647Y024576D01*
X043635Y024570D01*
X043621Y024567D01*
X043608Y024568D01*
X043595Y024573D01*
X043584Y024580D01*
X043575Y024591D01*
X043570Y024604D01*
X043568Y024617D01*
X045070Y024129D02*
X045070Y023578D01*
X045857Y023578D01*
X045857Y024129D01*
X057050Y024432D02*
X057050Y024826D01*
X057444Y024826D01*
X060672Y024826D02*
X061066Y024432D01*
X061066Y021204D02*
X061066Y020810D01*
X060672Y020810D01*
X060664Y019711D02*
X060113Y019711D01*
X060113Y018924D01*
X060664Y018924D01*
X060940Y019042D02*
X060940Y019318D01*
X061176Y019554D01*
X061176Y019082D01*
X060940Y019318D01*
X060940Y019593D01*
X061452Y019711D02*
X062003Y019711D01*
X062003Y018924D01*
X061452Y018924D01*
X061418Y018367D02*
X061918Y018367D01*
X062168Y018117D01*
X062168Y017617D01*
X061918Y017367D01*
X061418Y017367D01*
X061168Y017617D01*
X060918Y017367D01*
X060418Y017367D01*
X060168Y017617D01*
X060168Y018117D01*
X060418Y018367D01*
X060918Y018367D01*
X061168Y018117D01*
X061418Y018367D01*
X064558Y019318D02*
X064558Y019818D01*
X064808Y020068D01*
X065308Y020068D01*
X065558Y019818D01*
X065808Y020068D01*
X066308Y020068D01*
X066558Y019818D01*
X066558Y019318D01*
X066308Y019068D01*
X065808Y019068D01*
X065558Y019318D01*
X065308Y019068D01*
X064808Y019068D01*
X064558Y019318D01*
X067611Y018778D02*
X067613Y018793D01*
X067619Y018806D01*
X067628Y018818D01*
X067639Y018827D01*
X067653Y018833D01*
X067668Y018835D01*
X067683Y018833D01*
X067696Y018827D01*
X067708Y018818D01*
X067717Y018807D01*
X067723Y018793D01*
X067725Y018778D01*
X067723Y018763D01*
X067717Y018750D01*
X067708Y018738D01*
X067697Y018729D01*
X067683Y018723D01*
X067668Y018721D01*
X067653Y018723D01*
X067640Y018729D01*
X067628Y018738D01*
X067619Y018749D01*
X067613Y018763D01*
X067611Y018778D01*
X057444Y020810D02*
X057050Y020810D01*
X057050Y021204D01*
X042503Y018456D02*
X042188Y018456D01*
X042188Y018337D01*
X042188Y017708D02*
X042188Y017589D01*
X042503Y017589D01*
X038003Y017721D02*
X037688Y017721D01*
X037688Y017958D01*
X037688Y018587D02*
X037688Y018824D01*
X038003Y018824D01*
X036574Y018761D02*
X036574Y018938D01*
X034763Y018938D01*
X034763Y018761D01*
X033763Y018712D02*
X033263Y018712D01*
X033263Y018112D02*
X033763Y018112D01*
X034763Y017973D02*
X034763Y017796D01*
X036574Y017796D01*
X036574Y017973D01*
X036062Y017973D02*
X036062Y018761D01*
X029562Y037042D02*
X029286Y037042D01*
X029562Y037042D02*
X029562Y037869D01*
X027436Y037042D02*
X025349Y037042D01*
X025349Y040586D01*
X029562Y040586D01*
X029562Y039759D01*
D30*
X046475Y023379D02*
X046475Y023329D01*
X046474Y023330D02*
X046459Y023327D01*
X046445Y023322D01*
X046433Y023314D01*
X046422Y023303D01*
X046414Y023291D01*
X046409Y023277D01*
X046406Y023262D01*
X046357Y023261D01*
X046356Y023262D01*
X046359Y023282D01*
X046364Y023302D01*
X046373Y023320D01*
X046385Y023336D01*
X046400Y023351D01*
X046416Y023363D01*
X046434Y023372D01*
X046454Y023377D01*
X046474Y023380D01*
X046474Y023371D01*
X046455Y023369D01*
X046437Y023363D01*
X046421Y023355D01*
X046405Y023344D01*
X046392Y023331D01*
X046381Y023315D01*
X046373Y023299D01*
X046367Y023281D01*
X046365Y023262D01*
X046374Y023262D01*
X046377Y023281D01*
X046383Y023299D01*
X046392Y023316D01*
X046405Y023331D01*
X046420Y023344D01*
X046437Y023353D01*
X046455Y023359D01*
X046474Y023362D01*
X046474Y023353D01*
X046457Y023350D01*
X046440Y023345D01*
X046425Y023336D01*
X046411Y023325D01*
X046400Y023311D01*
X046391Y023296D01*
X046386Y023279D01*
X046383Y023262D01*
X046392Y023262D01*
X046395Y023280D01*
X046402Y023297D01*
X046411Y023312D01*
X046424Y023325D01*
X046439Y023334D01*
X046456Y023341D01*
X046474Y023344D01*
X046474Y023335D01*
X046458Y023332D01*
X046443Y023326D01*
X046430Y023318D01*
X046418Y023306D01*
X046410Y023293D01*
X046404Y023278D01*
X046401Y023262D01*
X046357Y022280D02*
X046407Y022280D01*
X046406Y022279D02*
X046409Y022264D01*
X046414Y022250D01*
X046422Y022238D01*
X046433Y022227D01*
X046445Y022219D01*
X046459Y022214D01*
X046474Y022211D01*
X046475Y022162D01*
X046474Y022161D01*
X046454Y022164D01*
X046434Y022169D01*
X046416Y022178D01*
X046400Y022190D01*
X046385Y022205D01*
X046373Y022221D01*
X046364Y022239D01*
X046359Y022259D01*
X046356Y022279D01*
X046365Y022279D01*
X046367Y022260D01*
X046373Y022242D01*
X046381Y022226D01*
X046392Y022210D01*
X046405Y022197D01*
X046421Y022186D01*
X046437Y022178D01*
X046455Y022172D01*
X046474Y022170D01*
X046474Y022179D01*
X046455Y022182D01*
X046437Y022188D01*
X046420Y022197D01*
X046405Y022210D01*
X046392Y022225D01*
X046383Y022242D01*
X046377Y022260D01*
X046374Y022279D01*
X046383Y022279D01*
X046386Y022262D01*
X046391Y022245D01*
X046400Y022230D01*
X046411Y022216D01*
X046425Y022205D01*
X046440Y022196D01*
X046457Y022191D01*
X046474Y022188D01*
X046474Y022197D01*
X046456Y022200D01*
X046439Y022207D01*
X046424Y022216D01*
X046411Y022229D01*
X046402Y022244D01*
X046395Y022261D01*
X046392Y022279D01*
X046401Y022279D01*
X046404Y022263D01*
X046410Y022248D01*
X046418Y022235D01*
X046430Y022223D01*
X046443Y022215D01*
X046458Y022209D01*
X046474Y022206D01*
M02*
