%
M48
M72
T01C0.0197
T02C0.0200
T03C0.0236
T04C0.0315
T05C0.0320
T06C0.0354
T07C0.0394
T08C0.0400
T09C0.0440
T10C0.0551
T11C0.0591
T12C0.1063
T13C0.1181
T14C0.1280
%
T01
X69115Y36021
T02
X70113Y34717
X61613Y32467
X65363Y30467
X66613Y30467
X61113Y28217
X58113Y28967
X56113Y27717
X57613Y27467
X57613Y27092
X57613Y26717
X57613Y26342
X57238Y25530
X58238Y24467
X56238Y23405
X57363Y22217
X57863Y22217
X57901Y21467
X57113Y20280
X56613Y20467
X56176Y21380
X56176Y21842
X54926Y20617
X54926Y20155
X54926Y19655
X55613Y18717
X56113Y18467
X60926Y20405
X61426Y20155
X60113Y21155
X60113Y21780
X64363Y21717
X66176Y18342
X67113Y16717
X51113Y22967
X50613Y22967
X49113Y23467
X49113Y23967
X49113Y24467
X41113Y24467
X41113Y23217
X48363Y32717
X47113Y34717
X53613Y34717
X54863Y32717
X60113Y34717
T03
X34106Y14867
X37856Y14867
X37856Y16492
X34106Y16492
X32731Y17742
X31231Y17242
X29981Y15742
X27231Y15492
X27981Y18992
X41356Y16492
X44606Y16492
X44606Y14867
X41356Y14867
X48356Y14867
X51606Y14867
X55106Y14867
X55106Y16492
X51606Y16492
X48356Y16492
X41606Y19242
X43481Y21742
X49231Y20992
X53106Y22242
X54856Y22242
X57356Y22992
X57356Y23492
X59606Y22992
X60356Y23992
X59356Y21742
X66981Y19680
X71231Y17930
X58731Y27430
X57231Y29742
X52731Y29742
X50731Y28242
X48481Y28242
X45731Y26992
X45731Y26492
X45231Y26492
X45231Y26992
X45231Y25992
X45731Y25992
X42356Y27492
X44231Y28742
X42481Y29242
X39856Y27492
X48981Y32992
X52481Y33742
X55481Y32992
X58981Y33742
X61981Y32992
X67481Y34492
X71731Y36430
X66043Y38180
X62231Y37242
X55668Y37305
X49356Y37242
X37731Y39492
X68231Y29992
T04
X68761Y37617
X69076Y37617
T05
X37463Y27023
X37463Y24023
X37471Y22867
X37471Y19867
X31068Y32367
X30268Y32367
T06
X41418Y34617
X42418Y34617
X43418Y34617
X42918Y35617
X41918Y35617
X43918Y35617
X47918Y34617
X48918Y34617
X49918Y34617
X49418Y35617
X48418Y35617
X50418Y35617
X54418Y34617
X55418Y34617
X56418Y34617
X55918Y35617
X54918Y35617
X56918Y35617
X60918Y34617
X61918Y34617
X62918Y34617
X62418Y35617
X61418Y35617
X63418Y35617
T07
X36521Y26904
X30521Y26904
X30521Y24404
X30440Y22804
X30440Y20304
X36440Y19804
X36440Y22804
X36521Y23904
T08
X50963Y25773
X51963Y25773
X52963Y25773
X53963Y25773
X54963Y25773
X55963Y25773
X65058Y19568
X66058Y19568
X61668Y17867
X60668Y17867
X72168Y22617
X72168Y23617
X72168Y24617
X72168Y25617
X72168Y27617
X72168Y28617
X72168Y29617
X72168Y30617
X72168Y32617
X72168Y33617
X72168Y34617
X72168Y35617
T09
X30918Y33867
X30918Y37867
T10
X27668Y34788
X27668Y32820
X27668Y30851
X27668Y28883
X27668Y26914
X27668Y24946
T11
X33668Y28536
X37668Y28536
X37668Y37198
X33668Y37198
T12
X29562Y38814
X27200Y38814
X28400Y36963
T13
X33487Y39058
X72070Y39058
X27582Y21341
X72070Y15436
T14
X64168Y38117
X60168Y38117
X57668Y38117
X53668Y38117
X51168Y38117
X47168Y38117
X44668Y38117
X40668Y38117
M30
